<?xml version="1.0" encoding="UTF-8" standalone="no"?>
<!-- Created with Inkscape (http://www.inkscape.org/) -->

<svg
   xmlns:dc="http://purl.org/dc/elements/1.1/"
   xmlns:cc="http://creativecommons.org/ns#"
   xmlns:rdf="http://www.w3.org/1999/02/22-rdf-syntax-ns#"
   xmlns:svg="http://www.w3.org/2000/svg"
   xmlns="http://www.w3.org/2000/svg"
   xmlns:sodipodi="http://sodipodi.sourceforge.net/DTD/sodipodi-0.dtd"
   xmlns:inkscape="http://www.inkscape.org/namespaces/inkscape"
   width="1052.3622"
   height="744.09448"
   id="svg2"
   version="1.1"
   inkscape:version="0.48.2 r9819"
   sodipodi:docname="Journey_03_TopLevel.svg">
  <title
     id="title3024">Top Level Architecture</title>
  <defs
     id="defs4" />
  <sodipodi:namedview
     id="base"
     pagecolor="#ffffff"
     bordercolor="#666666"
     borderopacity="1.0"
     inkscape:pageopacity="0.0"
     inkscape:pageshadow="2"
     inkscape:zoom="1.3291323"
     inkscape:cx="439.65848"
     inkscape:cy="372.04724"
     inkscape:document-units="px"
     inkscape:current-layer="layer2"
     showgrid="false"
     inkscape:window-width="1846"
     inkscape:window-height="1178"
     inkscape:window-x="1592"
     inkscape:window-y="-8"
     inkscape:window-maximized="1">
    <inkscape:grid
       type="xygrid"
       id="grid3008"
       empspacing="5"
       visible="true"
       enabled="true"
       snapvisiblegridlinesonly="true" />
  </sodipodi:namedview>
  <metadata
     id="metadata7">
    <rdf:RDF>
      <cc:Work
         rdf:about="">
        <dc:format>image/svg+xml</dc:format>
        <dc:type
           rdf:resource="http://purl.org/dc/dcmitype/StillImage" />
        <dc:title>Top Level Architecture</dc:title>
      </cc:Work>
    </rdf:RDF>
  </metadata>
  <g
     inkscape:groupmode="layer"
     id="layer2"
     inkscape:label="Version">
    <flowRoot
       xml:space="preserve"
       id="flowRoot3110"
       style="fill:black;stroke:none;stroke-opacity:1;stroke-width:1px;stroke-linejoin:miter;stroke-linecap:butt;fill-opacity:1;font-family:Segoe Print;font-style:normal;font-weight:normal;font-size:16px;line-height:125%;letter-spacing:0px;word-spacing:0px;-inkscape-font-specification:Segoe Print;font-stretch:normal;font-variant:normal;text-anchor:start;text-align:start;writing-mode:lr"><flowRegion
         id="flowRegion3112"><rect
           id="rect3114"
           width="203.89243"
           height="20.314005"
           x="16.552153"
           y="14.295041" /></flowRegion><flowPara
         id="flowPara3116"></flowPara></flowRoot>    <text
       xml:space="preserve"
       style="font-style:normal;font-variant:normal;font-weight:normal;font-stretch:normal;fill:#ff0000;font-family:Courier New;-inkscape-font-specification:Courier New"
       x="10"
       y="24.094482"
       id="versiontext">Journey_04_TopLevel.svg (v1)</text>
    <path
       style="fill:#000000;fill-opacity:1;fill-rule:nonzero;stroke:none"
       id="path3125"
       d="m 110.1654,320.02239 c -1.0861,4.46315 -1.65175,9.03021 -2.52742,13.53633 -0.87564,4.0735 -1.35594,8.20842 -1.61804,12.36185 -0.043,2.29619 -0.14195,4.56815 -0.46699,6.84149 -0.15483,1.46569 -0.76789,2.84085 0.63115,3.8232 1.52529,0.85737 3.28063,0.93528 4.98106,1.10374 3.23512,0.3205 1.71952,0.18379 5.31603,0.45511 7.7661,0.57655 15.51761,1.31115 23.26099,2.13665 6.58469,0.58206 13.13166,1.49213 19.69002,2.30173 3.85112,0.36698 7.68665,0.89374 11.47224,1.69323 2.62519,0.63171 5.3079,0.9309 7.96393,1.39449 2.07513,0.26023 4.11263,0.73158 6.17809,1.05158 2.00199,0.26464 4.02337,0.29224 6.03934,0.31612 1.84453,0.0139 3.68913,0.006 5.53369,0.002 0.72156,-0.001 0.80637,0.0784 1.45499,-0.21443 0.2183,-0.0986 0.83458,-0.4691 0.6184,-0.36596 -2.8089,1.34014 -2.1587,1.38832 -1.14553,-0.26082 0.94322,-1.70593 1.03052,-3.64944 1.28506,-5.53551 0.3481,-2.93679 0.67906,-5.87559 1.00491,-8.81551 0.33345,-3.26047 0.76177,-6.50711 1.00904,-9.77648 0.22197,-2.4838 0.11002,-4.98359 0.31186,-7.46632 0.24229,-2.10453 0.81726,-4.14734 1.11644,-6.2455 0.10178,-1.95442 0.67765,-3.8141 1.16812,-5.69131 0.12597,-1.39614 1.02454,-2.98334 0.43892,-4.34898 -1.33497,-1.00703 -3.46487,-0.70538 -5.05205,-0.73337 -4.50278,-0.2827 -8.98438,-0.78553 -13.48701,-1.07965 -5.30826,-0.19633 -10.61002,-0.43709 -15.91274,-0.75083 -4.07792,-0.18589 -8.13133,-0.68301 -12.20514,-0.937 -3.65295,-0.19894 -7.31237,-0.21003 -10.96961,-0.22538 -4.40911,-0.20571 -8.81403,-0.44106 -13.20975,-0.8419 -3.35253,-0.32421 -6.71626,-0.51077 -10.08244,-0.60777 -1.95782,-0.0474 -3.91632,-0.0459 -5.87456,-0.043 -1.52291,0.004 -3.04583,0.006 -4.56874,0.007 -0.99722,5.9e-4 -0.49853,3.5e-4 -1.49608,7.4e-4 0,0 2.40839,-1.74997 2.40839,-1.74997 l 0,0 c 0.99753,-4.7e-4 0.49885,-1.8e-4 1.49602,-8.5e-4 1.52212,-0.001 3.04423,-0.004 4.56635,-0.005 1.95441,6.2e-4 3.90907,0.006 5.86283,0.063 3.36019,0.11028 6.71706,0.3196 10.06374,0.64295 4.39139,0.40166 8.79337,0.63542 13.19918,0.81814 3.66317,0.013 7.32881,0.0208 10.9871,0.23428 4.06578,0.2633 8.11117,0.76995 12.18226,0.95206 5.29948,0.31991 10.59864,0.5546 15.90364,0.7594 4.51341,0.2969 9.00832,0.79709 13.52514,1.03513 1.69335,0.0313 3.9618,-0.29359 5.26799,0.99772 0.63801,1.45308 -0.19057,3.04062 -0.36466,4.53208 -0.46999,1.87363 -1.10641,3.71169 -1.18729,5.66332 -0.28186,2.09889 -0.85449,4.13667 -1.12707,6.23365 -0.22545,2.48255 -0.0977,4.98642 -0.32838,7.47142 -0.25227,3.2723 -0.67255,6.52319 -1.00764,9.78679 -0.32199,2.93926 -0.65589,5.87582 -0.98446,8.8137 -0.26125,1.91259 -0.31787,3.88208 -1.21849,5.63906 -0.27387,0.45541 -0.39235,1.04826 -0.81529,1.36999 -1.61166,1.226 -3.19583,2.47865 -5.23929,2.42388 -1.84223,0.002 -3.68452,0.006 -5.52669,-0.0125 -2.02664,-0.028 -4.0589,-0.06 -6.06918,-0.34747 -2.06105,-0.33471 -4.10082,-0.78729 -6.17201,-1.06155 -2.65309,-0.46456 -5.33323,-0.77057 -7.95301,-1.41411 -3.77406,-0.78406 -7.59306,-1.31538 -11.42865,-1.69479 -6.53638,-0.83724 -13.06416,-1.75152 -19.63013,-2.33756 -7.75392,-0.82648 -15.51677,-1.55363 -23.29579,-2.10033 -3.10239,-0.22233 -2.51826,-0.15928 -5.35777,-0.4351 -1.75789,-0.17075 -3.56276,-0.27556 -5.1157,-1.20757 -1.46691,-1.17655 -1.00161,-2.43824 -0.77865,-4.10483 0.33551,-2.27151 0.47499,-4.53844 0.50962,-6.83605 0.26872,-4.16964 0.75169,-8.32205 1.63261,-12.41129 0.88924,-4.4988 1.46326,-9.05399 2.45378,-13.53291 0,0 2.68332,-1.27012 2.68332,-1.27012 z"
       inkscape:connector-curvature="0" />
    <path
       style="fill:#000000;fill-opacity:1;fill-rule:nonzero;stroke:none"
       id="path3127"
       d="m 782.28573,307.10199 c -0.0241,3.08405 -0.0171,6.1683 -0.0128,9.25243 0.005,2.68824 0.003,5.37649 0.002,8.06473 0.15358,2.29878 0.44789,4.58433 0.61858,6.88217 0.0863,1.94069 0.12207,3.87004 0.34867,5.80047 0.2828,2.27739 0.41216,4.56868 0.49546,6.86075 0.0298,2.09034 0.12726,4.18449 -0.0318,6.27068 -0.28708,1.87987 -0.36743,3.78866 -0.66191,5.66549 -0.31624,1.43231 -0.46859,2.88814 -0.87076,4.2995 -0.5994,1.29881 -1.00085,2.63641 -1.2049,4.04945 -0.35296,2.2524 0.48301,2.70425 2.44889,3.43724 3.70025,0.81594 7.53695,0.83197 11.30835,1.08513 4.44987,0.27445 8.87934,0.77851 13.32978,1.05418 2.71554,0.16247 5.43555,0.21334 8.15531,0.22915 1.72974,-0.20656 3.4423,-0.49442 5.18053,-0.62953 2.53019,-0.13476 5.06578,-0.11834 7.59876,-0.12719 2.37419,0.117 4.71124,-0.0688 7.06194,-0.35954 2.99248,-0.30382 6.00424,-0.32304 9.00903,-0.36244 2.88617,-0.0277 5.77251,-0.0329 8.65879,-0.036 2.048,-0.096 4.0694,0.26839 6.10097,0.46973 1.96271,0.28376 3.89087,0.20111 5.84054,-0.0839 0.8611,-0.51498 3.59933,-1.08878 -0.78274,0.54074 -0.19691,0.0732 0.29443,-0.30214 0.41573,-0.47364 0.30765,-0.43497 0.3553,-0.67676 0.5335,-1.17433 0.43427,-2.0562 0.3592,-4.18371 0.3695,-6.2744 -0.0344,-3.05327 0.0736,-6.1106 -0.10423,-9.15982 -0.14283,-2.70732 -0.67194,-5.3662 -1.0384,-8.04665 -0.17629,-2.38728 -0.43476,-4.75842 -0.7213,-7.13468 -0.26864,-2.16627 -0.3601,-4.34772 -0.40685,-6.52827 -0.0631,-2.03412 -0.0647,-4.05441 0.17977,-6.07532 0.24643,-2.11793 0.76621,-4.18582 1.03896,-6.30111 0.10436,-1.83213 0.32835,-3.63912 0.59799,-5.45294 0.40457,-1.67002 0.79423,-3.33557 1.00233,-5.04275 0.0941,-1.91867 -2.07138,-1.96751 -3.51665,-2.00434 -2.78732,0.16158 -5.5873,0.22361 -8.36417,0.51922 -2.70477,0.35318 -5.41958,0.58496 -8.1276,0.90882 -3.67242,0.41991 -7.33895,0.85674 -11.0276,1.11507 -3.1388,0.19566 -6.28426,0.23486 -9.42818,0.2524 -2.49776,0.008 -4.99554,0.004 -7.49331,9e-4 -2.14075,-0.005 -4.28151,-4.5e-4 -6.42226,-0.002 -2.41407,-0.002 -4.82814,-0.005 -7.24221,-0.005 -2.25352,0.002 -4.50704,0.003 -6.76055,0.005 -1.88017,0.12202 -3.72534,-0.24997 -5.58285,-0.46719 -1.75565,-0.19255 -3.52163,-0.24626 -5.2862,-0.27532 -1.5335,-0.0174 -3.06715,-0.0128 -4.60072,-0.011 -1.00205,0.001 -0.50112,6.5e-4 -1.5028,0.002 0,0 2.40819,-1.75005 2.40819,-1.75005 l 0,0 c 1.00163,-0.001 0.50072,-5.3e-4 1.50273,-0.002 1.53404,-0.001 3.06819,-0.006 4.60211,0.0171 1.76909,0.0358 3.53921,0.10087 5.29842,0.30307 1.84938,0.22309 3.68945,0.55776 5.56169,0.43918 2.24918,0.002 4.49835,0.003 6.74753,0.005 2.41829,-9e-5 4.83658,-0.003 7.25487,-0.004 2.13881,-3.4e-4 4.27762,0.006 6.41644,0.006 2.49439,0.003 4.98879,0.0121 7.48319,0.004 3.13531,-0.0189 6.27227,-0.0547 9.40217,-0.25698 3.68971,-0.26392 7.35728,-0.70625 11.03036,-1.13519 2.70882,-0.32993 5.42626,-0.55765 8.1331,-0.9059 2.79164,-0.26878 5.60126,-0.37119 8.40237,-0.49442 1.63386,0.0983 3.82761,0.32638 3.77852,2.41636 -0.19684,1.71226 -0.56387,3.38709 -1.00378,5.05302 -0.26619,1.81353 -0.51637,3.61592 -0.60438,5.44926 -0.26361,2.11764 -0.78227,4.18376 -1.03976,6.30014 -0.24926,2.00913 -0.26927,4.01384 -0.19976,6.03789 0.0455,2.17241 0.12457,4.34619 0.38789,6.50508 0.28742,2.37545 0.55483,4.74401 0.71797,7.13187 0.35679,2.69027 0.89543,5.35618 1.03658,8.07202 0.19153,3.0533 0.0732,6.1157 0.11799,9.17369 -0.001,2.11456 0.0746,4.25473 -0.29987,6.34479 -0.7399,2.42741 -2.84244,3.52476 -5.24569,4.15711 -1.95889,0.26859 -3.90498,0.28308 -5.87093,0.0177 -2.02475,-0.2057 -4.04314,-0.53623 -6.08493,-0.44494 -2.87805,-0.006 -5.7562,-0.009 -8.63413,0.0232 -3.00727,0.0429 -6.02224,0.0732 -9.01457,0.40661 -2.3521,0.29097 -4.69644,0.41081 -7.06898,0.32075 -2.53485,0.008 -5.073,-9.2e-4 -7.60384,0.15963 -1.73841,0.14919 -3.45225,0.46803 -5.19107,0.60435 -2.71239,-0.0269 -5.42484,-0.0901 -8.13227,-0.26598 -4.44361,-0.29034 -8.8674,-0.79858 -13.31204,-1.06786 -3.80488,-0.2495 -7.68828,-0.22959 -11.409,-1.12283 -2.02697,-0.80429 -3.00418,-1.42792 -2.65709,-3.77492 0.1773,-1.42544 0.52936,-2.79561 1.17866,-4.08631 0.41697,-1.40255 0.58014,-2.84343 0.8946,-4.27231 0.33352,-1.86408 0.36177,-3.77786 0.68226,-5.64762 0.18247,-2.07367 0.0615,-4.15919 0.0447,-6.23868 -0.0731,-2.28501 -0.19325,-4.56981 -0.48189,-6.83928 -0.23762,-1.93413 -0.29095,-3.86433 -0.35874,-5.8112 -0.16018,-2.30749 -0.4474,-4.60202 -0.61346,-6.90867 -7.7e-4,-2.68891 -0.003,-5.37782 0.002,-8.06672 0.004,-3.07977 0.0113,-6.15967 -0.0128,-9.23937 0,0 2.65018,-1.35033 2.65018,-1.35033 z"
       inkscape:connector-curvature="0" />
    <path
       style="fill:#000000;fill-opacity:1;fill-rule:nonzero;stroke:none"
       id="path3129"
       d="m 673.02606,358.29251 c -0.60284,3.16096 -1.20547,6.32101 -1.62995,9.51201 -0.18867,2.54939 -0.62519,5.06764 -0.91426,7.60528 -0.22578,2.16568 -0.27066,4.34403 -0.3,6.51947 -0.004,1.73401 -0.10854,3.46261 0.2001,5.1749 0.30012,1.56398 0.42528,3.15129 0.50125,4.73948 0.20762,2.05742 1.51144,1.96624 3.27074,2.15761 4.51079,0.23718 9.03269,0.17873 13.54829,0.17473 4.72013,-0.005 9.44023,-0.0242 14.16034,-0.0403 2.33449,-0.009 4.66901,-0.0132 7.00352,-0.0128 1.97654,6.4e-4 3.95308,-1.2e-4 5.92962,-10e-4 1.81975,-0.002 3.6395,10e-4 5.45926,10e-4 1.94517,6.8e-4 3.89035,-7e-5 5.83552,-10e-4 1.74565,-0.001 3.49131,3e-4 5.23696,-2.6e-4 1.60057,-7e-4 3.20114,-10e-4 4.80171,-10e-4 0.24973,-0.0347 0.50914,-0.0271 0.74921,-0.10414 0.22968,-0.0738 0.85421,-0.44858 0.63814,-0.34131 -0.67222,0.33371 -1.28795,0.80515 -2.00681,1.02076 -0.2211,0.0663 0.30865,-0.3473 0.42536,-0.54645 0.30971,-0.52846 0.37482,-0.94329 0.53046,-1.53062 0.36083,-1.65409 0.2267,-3.3539 0.3994,-5.02534 0.27862,-1.59192 0.46372,-3.19188 0.55712,-4.80465 0.28269,-1.8143 0.54839,-3.62647 0.69809,-5.45745 0.15006,-1.99045 0.49885,-3.95843 0.68388,-5.94721 0.13514,-2.05993 0.52048,-4.09168 0.74474,-6.14296 0.15427,-1.65736 0.14064,-3.31302 0.41522,-4.9569 0.2171,-1.1649 0.64262,-2.43144 -0.52886,-3.15606 -1.86366,-0.55559 -3.90636,-0.43628 -5.82681,-0.32468 -4.13994,0.2387 -8.25762,0.73045 -12.39175,1.04606 -3.601,0.1375 -7.18359,0.41559 -10.77127,0.73764 -3.17409,0.27765 -6.36028,0.35164 -9.54468,0.38704 -2.81036,0.17992 -5.61103,0.47596 -8.4217,0.65406 -1.90659,0.0677 -3.79444,0.10367 -5.68569,0.35883 -1.98704,0.26407 -3.98669,0.40147 -5.98871,0.47823 -1.58349,0.0497 -3.16796,0.0486 -4.75205,0.0487 -0.75175,-4.5e-4 -1.5035,-0.001 -2.25525,-0.002 0,0 2.40861,-1.74952 2.40861,-1.74952 l 0,0 c 0.75158,9.2e-4 1.50316,0.002 2.25474,0.002 1.58032,-7.5e-4 3.16105,-8.5e-4 4.74065,-0.0549 1.99589,-0.082 3.98935,-0.22479 5.96927,-0.49776 1.89264,-0.2454 3.78841,-0.25052 5.69326,-0.33925 2.80581,-0.1775 5.60206,-0.47411 8.40937,-0.62667 3.18139,-0.0475 6.36475,-0.1215 9.53533,-0.40835 3.58078,-0.32698 7.16023,-0.56005 10.75291,-0.71921 4.14299,-0.32272 8.27063,-0.81124 12.41955,-1.05816 1.96306,-0.098 4.10659,-0.26678 5.97182,0.45966 1.20971,0.89077 0.98586,2.11853 0.68553,3.45903 -0.29281,1.63916 -0.28801,3.28602 -0.42928,4.94299 -0.22153,2.05152 -0.61484,4.0817 -0.75268,6.14087 -0.17393,1.98814 -0.52122,3.95412 -0.67883,5.94148 -0.14482,1.82871 -0.38483,3.64328 -0.70052,5.45033 -0.0852,1.61755 -0.24666,3.22507 -0.54652,4.81867 -0.20934,1.6791 -0.0413,3.39175 -0.38457,5.06092 -0.66849,2.89388 -2.29462,4.14264 -5.42455,4.5359 -1.59932,-2.3e-4 -3.19863,-6.7e-4 -4.79795,-10e-4 -1.74541,-5.6e-4 -3.49082,9.7e-4 -5.23623,-2.6e-4 -1.94396,-10e-4 -3.88793,-0.002 -5.83189,-10e-4 -1.82089,2.7e-4 -3.64177,0.003 -5.46266,10e-4 -1.97512,-10e-4 -3.95023,-0.002 -5.92535,-0.002 -2.32641,7.8e-4 -4.65283,-0.002 -6.97924,-0.004 -4.70687,-0.003 -9.41374,-5.6e-4 -14.12059,0.0113 -4.54109,0.007 -9.08958,0.0891 -13.62545,-0.16121 -1.9076,-0.23381 -3.25348,-0.32414 -3.50353,-2.50496 -0.0698,-1.5755 -0.18433,-3.15142 -0.48607,-4.70224 -0.31988,-1.73212 -0.22763,-3.47633 -0.21402,-5.23227 0.0246,-2.18504 0.0774,-4.37282 0.293,-6.54867 0.27785,-2.54469 0.74273,-5.06412 0.9291,-7.61962 0.42542,-3.1918 1.03297,-6.34902 1.58735,-9.51962 0,0 2.6783,-1.29169 2.6783,-1.29169 z"
       inkscape:connector-curvature="0" />
    <path
       style="fill:#000000;fill-opacity:1;fill-rule:nonzero;stroke:none"
       id="path3131"
       d="m 674.61667,279.94237 c -0.55363,2.66331 -0.9616,5.34547 -1.20823,8.05373 -0.0584,2.36176 -0.40554,4.69478 -0.67456,7.03763 -0.16679,2.13076 -0.58296,4.22993 -0.82806,6.35216 -0.14251,1.63883 -0.17378,3.27064 -0.42631,4.89742 -0.44704,1.67916 -0.8733,3.35427 -1.10673,5.07789 -0.13942,2.04128 -0.65695,4.02637 -1.07657,6.02138 -0.74648,3.53766 0.53627,3.5695 3.7264,4.10375 7.49556,0.65334 15.01867,0.91063 22.53259,1.267 8.13784,0.47394 16.24922,1.29116 24.38486,1.80226 3.87572,0.091 7.72795,0.46604 11.58447,0.82784 2.6797,0.20781 5.28233,0.99048 7.88961,1.61182 4.14969,1.14338 8.33876,2.08128 12.59531,2.72056 0.93473,0.0589 1.60893,0.17725 2.51671,-0.0143 0.26921,-0.0568 1.0074,-0.43275 0.7737,-0.28754 -3.195,1.9852 -1.85727,1.1649 -1.39645,-0.18869 0.45838,-2.2454 0.56512,-4.53738 0.85122,-6.8055 0.43779,-3.01475 0.62836,-6.05475 0.73885,-9.09645 0.0476,-3.33558 0.39931,-6.65824 0.84009,-9.96188 0.35991,-2.81073 0.89612,-5.59276 1.22674,-8.40806 0.13876,-1.9605 0.34606,-3.9169 0.79271,-5.83332 0.516,-1.73629 0.63992,-3.54582 0.95667,-5.31843 0.3729,-1.69752 0.78837,-2.6667 -1.0787,-3.37139 -2.92516,-0.68263 -5.92734,-0.86622 -8.91695,-1.02479 -3.92571,-0.16312 -7.85564,-0.16958 -11.78404,-0.17683 -4.59358,0.1099 -9.17587,-0.1377 -13.76204,-0.3513 -5.04881,-0.23277 -10.10236,-0.32412 -15.1558,-0.37267 -3.55927,0.0315 -7.10363,-0.3523 -10.65257,-0.5715 -2.20476,-0.13513 -4.41366,-0.17223 -6.62196,-0.18843 -1.73765,-0.007 -3.47533,-0.004 -5.21299,-0.002 -1.62546,0.002 -3.25092,0.005 -4.87638,0.003 -1.70066,-6.4e-4 -3.40131,3.7e-4 -5.10197,8.8e-4 -0.26254,7e-5 -0.52509,1.3e-4 -0.78764,2e-4 0,0 2.4071,-1.74886 2.4071,-1.74886 l 0,0 c 0.26237,6e-5 0.52473,1.3e-4 0.78709,2e-4 1.70004,5.2e-4 3.40008,0.002 5.10012,3.9e-4 1.62526,-0.002 3.25053,-10e-4 4.8758,-0.003 1.73772,-0.001 3.47549,-0.007 5.21318,0.006 2.20546,0.0236 4.41151,0.07 6.61286,0.21492 3.53628,0.2325 7.06898,0.61229 10.61686,0.57814 5.04915,0.0603 10.09814,0.16314 15.14276,0.39461 4.59331,0.20673 9.18344,0.42458 13.78333,0.32032 3.93183,0.0111 7.86516,0.0197 11.79413,0.18807 3.02065,0.16424 6.06916,0.33292 9.01316,1.08022 1.91594,0.86288 1.73357,1.87062 1.27816,3.72373 -0.3476,1.77082 -0.42853,3.59364 -0.95179,5.33356 -0.48062,1.90071 -0.67683,3.85465 -0.8188,5.80621 -0.33459,2.82015 -0.87577,5.60646 -1.24262,8.4214 -0.44982,3.29385 -0.80655,6.60891 -0.85381,9.93588 -0.0978,3.04781 -0.28895,6.09295 -0.71409,9.11496 -0.29877,2.27635 -0.4016,4.57587 -0.80786,6.83955 -0.90139,3.33385 -4.13613,3.73596 -6.98266,3.44978 -4.25502,-0.67144 -8.44412,-1.62959 -12.60516,-2.7416 -2.60832,-0.60489 -5.20963,-1.36056 -7.88763,-1.56481 -3.83255,-0.37977 -7.66286,-0.74699 -11.51503,-0.8663 -8.11424,-0.54756 -16.20569,-1.38382 -24.32618,-1.83801 -7.55348,-0.34972 -15.11741,-0.58018 -22.65304,-1.22536 -3.15701,-0.56505 -4.78345,-0.95219 -3.99504,-4.49393 0.4156,-1.98678 0.94742,-3.96268 1.07561,-5.99587 0.22117,-1.72762 0.62102,-3.41255 1.10563,-5.08503 0.25273,-1.62464 0.31054,-3.24891 0.43409,-4.88805 0.24236,-2.12391 0.67424,-4.22209 0.83247,-6.35446 0.27055,-2.34314 0.63912,-4.67444 0.69009,-7.03735 0.24423,-2.70598 0.63685,-5.38731 1.17925,-8.05057 0,0 2.67004,-1.3189 2.67004,-1.3189 z"
       inkscape:connector-curvature="0" />
    <path
       style="fill:#000000;fill-opacity:1;fill-rule:nonzero;stroke:none"
       d="M 223.53125 407.03125 L 220.90625 408.46875 C 221.76976 410.91419 222.73153 413.34459 223.53125 415.8125 C 224.19912 417.66115 225.09752 419.40673 225.78125 421.25 C 226.43049 423.07953 227.20108 424.84789 227.90625 426.65625 C 228.72809 428.72196 229.69036 430.74806 230.71875 432.71875 C 231.72795 434.58327 232.51055 436.55077 233.40625 438.46875 C 234.13443 440.35543 234.93591 442.22291 235.625 444.125 C 236.42179 445.89708 237.35966 447.60317 238.15625 449.375 C 239.14462 451.65289 240.15625 453.90075 241.125 456.1875 C 242.02511 458.11224 242.831 460.08361 243.8125 461.96875 C 244.6258 463.76191 245.39468 465.56857 246.25 467.34375 C 246.94584 469.21808 247.85173 470.98891 248.84375 472.71875 C 249.15021 473.40462 249.46103 474.08484 249.75 474.78125 C 248.26714 474.22842 246.84492 473.50534 245.4375 472.8125 C 244.0467 472.12251 242.56437 471.6501 241.0625 471.28125 L 238.625 472.96875 C 240.11768 473.31202 241.58793 473.7594 242.96875 474.4375 C 245.08189 475.48278 247.23163 476.62836 249.53125 477.1875 C 249.9108 477.18835 250.27246 477.13064 250.625 477.0625 C 250.65973 477.1582 250.71595 477.24786 250.75 477.34375 C 251.18363 478.31069 250.91359 477.87661 251.46875 478.71875 L 254.0625 477.1875 C 253.53069 476.39799 253.7627 476.83579 253.34375 475.90625 C 253.32802 475.86245 253.29709 475.82503 253.28125 475.78125 C 254.11444 475.0855 254.79884 474.17724 255.28125 473.1875 C 255.81253 471.77551 255.97302 470.30746 256.3125 468.84375 C 256.76792 466.84336 256.93287 464.79019 257.125 462.75 L 254.46875 464.09375 C 254.28419 466.11783 254.09917 468.14692 253.625 470.125 C 253.30267 471.48022 253.15345 472.8541 252.65625 474.15625 C 252.2678 473.1756 251.87517 472.174 251.4375 471.21875 C 250.44157 469.49911 249.53309 467.74482 248.84375 465.875 C 247.98901 464.09618 247.19488 462.29358 246.375 460.5 C 245.4015 458.61979 244.61876 456.66611 243.71875 454.75 C 242.74392 452.4634 241.73421 450.18835 240.75 447.90625 C 239.95787 446.14011 239.01944 444.45005 238.21875 442.6875 C 237.51857 440.78062 236.70742 438.89149 235.96875 437 C 235.07761 435.07525 234.29041 433.11889 233.28125 431.25 C 232.26336 429.28574 231.31065 427.27772 230.5 425.21875 C 229.79291 423.4127 229.02112 421.6416 228.375 419.8125 C 227.6912 417.97366 226.79519 416.21833 226.125 414.375 C 225.31004 411.9069 224.36118 409.49398 223.53125 407.03125 z "
       id="path3137" />
    <path
       style="fill:#000000;fill-opacity:1;fill-rule:nonzero;stroke:none"
       d="M 548.90625 178.40625 L 546.46875 180.09375 C 548.93947 180.73962 551.47972 180.98414 554 181.34375 C 555.20889 181.53668 556.41106 181.68655 557.625 181.84375 L 560.0625 180.15625 C 558.84683 180.00577 557.61549 179.82185 556.40625 179.625 C 553.90188 179.24966 551.35959 179.07401 548.90625 178.40625 z M 545.15625 180.15625 L 542.625 181.71875 C 542.91941 182.00444 543.19022 182.30231 543.46875 182.59375 L 541.6875 183.4375 C 541.26302 185.77681 540.62387 188.05985 539.875 190.3125 C 539.32037 192.01805 538.83363 193.73125 538.28125 195.4375 C 538.08053 196.19676 537.74727 196.92393 537.46875 197.65625 L 540.15625 196.40625 C 540.43732 195.67075 540.76258 194.94894 540.96875 194.1875 C 541.49601 192.47599 542.02572 190.73983 542.5625 189.03125 C 543.18587 187.13195 543.6912 185.23024 544.125 183.28125 C 545.23082 184.53429 546.42223 185.7158 547.625 186.875 C 548.93475 188.23366 550.05375 189.7449 551.1875 191.25 C 552.45299 192.89058 553.69229 194.52312 554.96875 196.15625 C 556.64729 198.11719 558.25953 200.13251 559.9375 202.09375 C 562.24793 204.48043 564.40736 207.01779 566.75 209.375 C 569.72909 212.51151 572.74174 215.6098 575.78125 218.6875 C 579.18084 221.84351 582.65184 224.92194 586.09375 228.03125 C 590.39848 231.8348 594.76445 235.57827 598.90625 239.5625 C 602.5262 243.09411 606.14533 246.58528 609.875 250 C 612.99487 253.17806 616.12942 256.40032 619.03125 259.78125 C 621.86489 263.13953 624.58213 266.58259 627.34375 270 C 630.43469 274.01183 633.39288 278.09921 636.25 282.28125 C 638.42803 285.63592 640.44907 289.08836 642.375 292.59375 L 644.96875 291.125 C 642.9831 287.63496 640.94448 284.17572 638.75 280.8125 C 635.88059 276.6303 632.92477 272.52839 629.84375 268.5 C 627.0887 265.07172 624.3374 261.64203 621.5 258.28125 C 618.59007 254.8987 615.49746 251.68497 612.375 248.5 C 608.64785 245.07518 604.97568 241.58944 601.34375 238.0625 C 597.19037 234.0871 592.86544 230.3099 588.5625 226.5 C 585.12902 223.3878 581.63941 220.31698 578.25 217.15625 C 575.20997 214.08722 572.22175 211.01047 569.25 207.875 C 566.91317 205.51395 564.76826 202.95763 562.46875 200.5625 C 560.79367 198.60682 559.17044 196.61599 557.5 194.65625 C 556.23146 193.02373 554.97991 191.35593 553.71875 189.71875 C 552.57283 188.21079 551.46634 186.68405 550.15625 185.3125 C 548.90815 184.11099 547.67191 182.89857 546.53125 181.59375 C 546.05575 181.1216 545.63149 180.62843 545.15625 180.15625 z M 655.125 407.84375 L 652.46875 409.1875 C 652.45457 411.66761 652.11512 414.11987 651.9375 416.59375 C 651.60554 418.98948 650.9261 421.32697 650.5625 423.71875 C 650.09296 425.95277 649.49457 428.14572 649.15625 430.40625 C 648.68244 433.20456 647.88074 435.93085 647.21875 438.6875 C 646.60643 441.05472 645.83278 443.37077 645.40625 445.78125 C 644.87481 448.64173 644.06912 451.43665 643.46875 454.28125 C 642.9247 456.56195 642.2293 458.79379 641.53125 461.03125 C 640.92031 462.81567 640.28698 464.57228 639.96875 466.4375 C 639.47997 467.87415 639.32974 469.37962 638.96875 470.84375 C 638.46016 472.37098 638.05163 473.9162 637.625 475.46875 C 637.20501 477.28899 636.66271 479.0691 636.3125 480.90625 C 636.15251 481.45824 636.02734 482.03255 635.90625 482.59375 C 635.34566 481.91094 634.92569 481.07539 634.5625 480.25 C 633.49459 477.62203 632.31389 475.02904 631.3125 472.375 L 628.71875 473.84375 C 629.76466 476.47696 630.93532 479.06111 632 481.6875 C 632.75717 483.46065 633.74209 485.20347 635.71875 485.6875 C 638.22821 485.53994 640.45932 483.77725 642.3125 482.21875 C 643.73534 480.77961 645.17455 479.3795 646.65625 478 L 647.4375 477.375 L 644.6875 478.5 L 643.90625 479.125 C 642.4265 480.50506 641.01784 481.93864 639.5625 483.34375 C 639.27909 483.58027 639.1176 483.71446 639 483.8125 C 638.73495 483.8843 638.46373 483.93102 638.1875 483.96875 C 637.53138 483.86682 636.98898 483.59345 636.53125 483.21875 L 638.34375 482.34375 C 638.53419 481.42527 638.72824 480.53199 638.96875 479.625 C 639.32974 477.79744 639.85656 476.00004 640.28125 474.1875 C 640.69798 472.62755 641.18912 471.10627 641.65625 469.5625 C 641.98926 468.08775 642.21801 466.57704 642.65625 465.125 C 642.99302 463.27802 643.63968 461.56123 644.21875 459.78125 C 644.90038 457.53561 645.5771 455.29068 646.09375 453 C 646.70642 450.15372 647.52619 447.33239 648.0625 444.46875 C 648.50981 442.06913 649.28051 439.77155 649.875 437.40625 C 650.53676 434.64283 651.34415 431.89976 651.8125 429.09375 C 652.16904 426.83633 652.782 424.64748 653.21875 422.40625 C 653.59821 420.01294 654.29244 417.68611 654.59375 415.28125 C 654.7725 412.79698 655.098 410.33521 655.125 407.84375 z M 707.59375 413.9375 C 705.67999 413.91438 703.84572 416.02809 702.34375 417.15625 C 700.3958 418.53013 698.37878 419.84832 696.59375 421.4375 L 699.375 420.3125 C 701.14541 418.71795 703.1581 417.4392 705.09375 416.0625 C 705.20507 415.99205 705.40077 415.84956 705.5625 415.71875 C 705.92696 415.69791 706.0652 415.78686 706.4375 415.96875 C 706.51887 416.02805 706.5795 416.0921 706.65625 416.15625 L 706.5 416.21875 C 706.57421 417.77105 706.20248 419.28021 706 420.8125 C 705.81037 422.6176 705.89527 424.44382 705.6875 426.25 C 705.49346 428.18649 705.14075 430.11284 705.15625 432.0625 C 705.15437 434.03581 705.15925 436.02669 705.15625 438 C 705.15504 440.00592 705.14825 441.99409 705.15625 444 C 705.17138 446.05757 705.22586 448.13463 705.375 450.1875 C 705.58775 452.71478 705.92759 455.21754 706.0625 457.75 C 706.27468 460.55313 706.71078 463.32384 707.1875 466.09375 C 707.53632 469.18136 707.8676 472.27251 708.0625 475.375 L 710.71875 474 C 710.48487 470.90518 710.12629 467.83388 709.78125 464.75 C 709.29649 461.98312 708.89276 459.20795 708.6875 456.40625 C 708.55028 453.87248 708.20177 451.34254 708 448.8125 C 707.85321 446.76465 707.79775 444.70842 707.78125 442.65625 C 707.77325 440.65154 707.77925 438.66096 707.78125 436.65625 C 707.78225 434.68259 707.8135 432.69241 707.8125 430.71875 C 707.81425 428.77859 708.15273 426.86647 708.34375 424.9375 C 708.55383 423.13223 708.4316 421.3008 708.65625 419.5 C 708.68777 419.28085 708.71488 419.06286 708.75 418.84375 C 708.88671 419.05196 709.01236 419.27029 709.15625 419.46875 C 710.07549 420.94104 711.13747 422.31465 712.375 423.53125 C 713.16093 424.15479 712.7426 423.86533 713.59375 424.375 L 716.09375 422.75 C 715.26933 422.28578 715.66846 422.55307 714.90625 421.96875 C 713.6739 420.76913 712.62503 419.43169 711.71875 417.96875 C 710.83076 416.73977 710.15718 415.27112 708.9375 414.34375 C 708.49183 414.07283 708.03539 413.94283 707.59375 413.9375 z M 640.65625 483.03125 C 640.89159 482.92625 640.22866 483.31866 640 483.4375 C 639.78572 483.54886 639.56781 483.61003 639.34375 483.6875 C 639.66193 483.51363 640.06627 483.29447 640.65625 483.03125 z "
       id="path3142" />
    <path
       style="fill:#000000;fill-opacity:1;fill-rule:nonzero;stroke:none"
       d="M 553.21875 135.1875 L 550.65625 136.71875 C 552.1419 138.68834 553.60822 140.66677 555.1875 142.5625 C 556.86878 144.7197 558.71097 146.77128 560.75 148.59375 C 562.53968 150.38664 564.5228 151.97519 566.46875 153.59375 C 568.19687 154.96986 569.79034 156.47134 571.46875 157.90625 C 573.60676 159.72262 575.80744 161.48068 577.90625 163.34375 C 579.90764 165.14881 581.91985 166.93119 583.9375 168.71875 C 586.67609 171.20079 589.47379 173.63422 592.4375 175.84375 C 595.61264 178.10324 598.64227 180.52848 601.84375 182.75 C 604.19942 184.59408 606.39051 186.64171 608.65625 188.59375 C 610.83432 190.85466 613.293 192.79101 615.65625 194.84375 C 617.02663 195.98195 618.34646 197.19634 619.59375 198.46875 C 621.865 200.8921 624.1677 203.29197 626.5625 205.59375 C 628.98738 208.17234 631.47081 210.68 633.96875 213.1875 C 635.87806 215.03998 637.75243 216.92629 639.34375 219.0625 C 641.00346 221.33725 642.83571 223.44968 644.65625 225.59375 C 646.43159 227.61073 648.11698 229.71792 649.71875 231.875 C 651.46756 234.59263 653.66176 236.96752 655.53125 239.59375 C 656.65219 241.31605 657.76504 243.07027 658.90625 244.78125 C 659.94189 246.27091 660.95413 247.74993 662.0625 249.1875 C 663.32703 251.3655 664.79621 253.41589 666.25 255.46875 C 667.64969 257.21893 668.93572 259.05315 670.28125 260.84375 C 670.50616 261.14395 670.71367 261.44902 670.9375 261.75 C 670.7073 261.74707 670.48004 261.75263 670.25 261.75 C 668.98614 261.70458 667.71745 261.88947 666.5 262.21875 L 664.125 264.03125 C 665.30624 263.64159 666.60071 263.4808 667.84375 263.5 C 669.30766 263.5171 670.75618 263.54585 672.21875 263.46875 C 672.27148 263.54184 672.32245 263.61427 672.375 263.6875 L 672.8125 263.4375 C 675.2903 263.15262 678.40381 262.12215 678.9375 259.4375 C 678.87976 256.95144 678.39751 254.48733 677.875 252.0625 L 675.25 253.46875 C 675.79187 255.86375 676.3065 258.31739 676.3125 260.78125 C 676.21341 261.08241 676.16361 261.25904 676.09375 261.4375 C 675.82655 261.50623 675.52255 261.60807 675.1875 261.65625 C 674.97633 261.67622 674.77397 261.67357 674.5625 261.6875 C 673.98531 260.89831 673.4268 260.09747 672.84375 259.3125 C 671.5022 257.52135 670.18236 255.71516 668.78125 253.96875 C 667.3282 251.91038 665.87675 249.84671 664.625 247.65625 C 663.52042 246.224 662.46946 244.76557 661.4375 243.28125 C 660.29428 241.56783 659.23021 239.80966 658.09375 238.09375 C 656.20729 235.47714 653.98805 233.10389 652.25 230.375 C 650.65672 228.2048 648.97047 226.11182 647.1875 224.09375 C 645.36055 221.96271 643.52372 219.83893 641.875 217.5625 C 640.28548 215.40726 638.42975 213.50851 636.5 211.65625 C 633.98872 209.15662 631.44992 206.65255 629.03125 204.0625 C 626.63921 201.76708 624.39929 199.347 622.15625 196.90625 C 620.91273 195.61638 619.57532 194.41379 618.1875 193.28125 C 615.81659 191.23449 613.31683 189.31498 611.15625 187.03125 C 608.88211 185.07283 606.71043 183.03494 604.34375 181.1875 C 601.12837 178.98706 598.08224 176.53841 594.90625 174.28125 C 591.94954 172.08083 589.15878 169.64062 586.4375 167.15625 C 584.41979 165.36803 582.41085 163.61456 580.40625 161.8125 C 578.30599 159.9506 576.13216 158.16729 574 156.34375 C 572.32065 154.90779 570.69858 153.40743 568.96875 152.03125 C 567.02193 150.41634 565.03663 148.82507 563.25 147.03125 C 561.21204 145.22912 559.42558 143.20484 557.75 141.0625 C 556.16326 139.17492 554.67598 137.1764 553.21875 135.1875 z M 406.4375 145.15625 L 403.71875 146.34375 C 401.40583 148.85763 398.96748 151.26694 396.4375 153.5625 C 393.52684 156.16218 390.63841 158.73806 387.625 161.21875 C 384.43759 163.83552 381.13632 166.34666 378.03125 169.0625 C 374.84585 171.88605 371.56562 174.60588 368.28125 177.3125 C 364.83783 180.20062 361.39541 183.09189 357.96875 186 C 354.48297 189.04256 350.92509 192.01549 347.3125 194.90625 C 344.08214 197.52587 340.66575 199.8554 337.53125 202.59375 C 334.82839 204.95325 332.25483 207.46296 329.75 210.03125 C 327.48667 212.45664 324.83077 214.46868 322.34375 216.65625 C 319.73062 218.89166 317.32121 221.39432 314.875 223.8125 C 312.54701 226.14318 310.19608 228.44951 307.75 230.65625 C 306.08094 232.15674 304.35272 233.56835 302.625 235 C 300.58996 236.82444 298.55256 238.61879 296.40625 240.3125 C 294.04664 242.1651 291.67389 243.99454 289.46875 246.03125 C 287.47212 247.64178 285.69786 249.52524 283.78125 251.21875 C 281.73939 253.45753 279.44646 255.43074 277.15625 257.40625 C 275.38296 259.17753 273.43901 260.74204 271.625 262.46875 C 270.71893 263.37638 269.78668 264.25489 268.84375 265.125 C 266.98312 264.81481 266.38369 264.40285 266.46875 261.875 C 266.70259 259.36853 266.99615 256.86705 266.90625 254.34375 L 264.25 255.6875 C 264.38096 258.20011 264.04298 260.69234 263.8125 263.1875 C 263.68135 265.92385 264.57639 266.46296 266.875 266.875 C 266.08474 267.45437 266.41619 267.21899 265.4375 267.9375 L 267.78125 267 C 273.36969 267.47977 278.85414 268.61346 284.34375 269.71875 C 286.85493 270.24884 289.33312 270.83887 291.8125 271.5 L 294.21875 269.84375 C 291.72245 269.18649 289.21371 268.59532 286.6875 268.0625 C 281.19377 266.95964 275.71507 265.81929 270.125 265.3125 C 271.58142 264.04363 272.96901 262.70183 274.34375 261.34375 C 276.16369 259.62974 278.12785 258.07234 279.90625 256.3125 C 282.19532 254.33186 284.4249 252.30213 286.5 250.09375 C 288.39331 248.37525 290.21872 246.57561 292.1875 244.9375 C 294.40916 242.92294 296.76723 241.06988 299.125 239.21875 C 301.26878 237.51294 303.318 235.68279 305.375 233.875 C 307.10498 232.45085 308.83963 231.03671 310.5 229.53125 C 312.92569 227.308 315.27139 225.0183 317.59375 222.6875 C 320.04047 220.26958 322.44132 217.79101 325.0625 215.5625 C 327.55552 213.38182 330.18426 211.34314 332.4375 208.90625 C 334.94983 206.35105 337.51132 203.84871 340.21875 201.5 C 343.36698 198.78883 346.80905 196.43193 350.03125 193.8125 C 353.63738 190.91296 357.16889 187.94774 360.65625 184.90625 C 364.08642 182.00085 367.55214 179.10306 371 176.21875 C 374.28792 173.51248 377.56089 170.7918 380.75 167.96875 C 383.86699 165.26774 387.12794 162.74452 390.3125 160.125 C 393.32052 157.63381 396.24941 155.04547 399.15625 152.4375 C 401.69268 150.11727 404.11381 147.69024 406.4375 145.15625 z "
       id="path3162" />
    <text
       xml:space="preserve"
       style="font-size:16px;font-style:normal;font-variant:normal;font-weight:normal;font-stretch:normal;text-align:start;line-height:125%;letter-spacing:0px;word-spacing:0px;writing-mode:lr-tb;text-anchor:start;fill:#000000;fill-opacity:1;stroke:none;font-family:Segoe Print;-inkscape-font-specification:Segoe Print"
       x="440.13678"
       y="21.066376"
       id="text3173"
       sodipodi:linespacing="125%"><tspan
         sodipodi:role="line"
         id="tspan3175"
         x="440.13678"
         y="21.066376">SQL Database</tspan></text>
    <text
       xml:space="preserve"
       style="font-size:16px;font-style:normal;font-variant:normal;font-weight:normal;font-stretch:normal;text-align:start;line-height:125%;letter-spacing:0px;word-spacing:0px;writing-mode:lr-tb;text-anchor:start;fill:#000000;fill-opacity:1;stroke:none;font-family:Segoe Print;-inkscape-font-specification:Segoe Print"
       x="20"
       y="244.09448"
       id="text3177"
       sodipodi:linespacing="125%"><tspan
         sodipodi:role="line"
         id="tspan3179"
         x="20"
         y="244.09448">Windows Azure web role</tspan></text>
    <text
       xml:space="preserve"
       style="font-size:16px;font-style:normal;font-variant:normal;font-weight:normal;font-stretch:normal;text-align:start;line-height:125%;letter-spacing:0px;word-spacing:0px;writing-mode:lr-tb;text-anchor:start;fill:#000000;fill-opacity:1;stroke:none;font-family:Segoe Print;-inkscape-font-specification:Segoe Print"
       x="750"
       y="234.09448"
       id="text3181"
       sodipodi:linespacing="125%"><tspan
         sodipodi:role="line"
         id="tspan3183"
         x="750"
         y="234.09448">Windows Azure worker role</tspan></text>
    <text
       xml:space="preserve"
       style="font-size:16px;font-style:normal;font-variant:normal;font-weight:normal;font-stretch:normal;text-align:start;line-height:125%;letter-spacing:0px;word-spacing:0px;writing-mode:lr-tb;text-anchor:start;fill:#000000;fill-opacity:1;stroke:none;font-family:Segoe Print;-inkscape-font-specification:Segoe Print"
       x="375.43292"
       y="570.29688"
       id="text3185"
       sodipodi:linespacing="125%"><tspan
         sodipodi:role="line"
         id="tspan3187"
         x="375.43292"
         y="570.29688">Windows Azure Service Bus</tspan></text>
    <text
       xml:space="preserve"
       style="font-size:16px;font-style:normal;font-variant:normal;font-weight:normal;font-stretch:normal;text-align:start;line-height:125%;letter-spacing:0px;word-spacing:0px;writing-mode:lr-tb;text-anchor:start;fill:#000000;fill-opacity:1;stroke:none;font-family:Segoe Print;-inkscape-font-specification:Segoe Print"
       x="117.36981"
       y="334.8049"
       id="text3189"
       sodipodi:linespacing="125%"><tspan
         sodipodi:role="line"
         id="tspan3191"
         x="117.36981"
         y="334.8049"
         style="font-size:12px">MVC web</tspan><tspan
         sodipodi:role="line"
         x="117.36981"
         y="354.8049"
         id="tspan3193"
         style="font-size:12px">application</tspan></text>
    <text
       xml:space="preserve"
       style="font-size:16px;font-style:normal;font-variant:normal;font-weight:normal;font-stretch:normal;text-align:start;line-height:125%;letter-spacing:0px;word-spacing:0px;writing-mode:lr-tb;text-anchor:start;fill:#000000;fill-opacity:1;stroke:none;font-family:Segoe Print;-inkscape-font-specification:Segoe Print"
       x="270"
       y="174.09448"
       id="text3195"
       sodipodi:linespacing="125%"><tspan
         sodipodi:role="line"
         id="tspan3197"
         x="270"
         y="174.09448"
         style="font-size:12px">Data from the</tspan><tspan
         sodipodi:role="line"
         x="270"
         y="189.09448"
         id="tspan3199"
         style="font-size:12px">read-model</tspan></text>
    <text
       xml:space="preserve"
       style="font-size:16px;font-style:normal;font-variant:normal;font-weight:normal;font-stretch:normal;text-align:start;line-height:125%;letter-spacing:0px;word-spacing:0px;writing-mode:lr-tb;text-anchor:start;fill:#000000;fill-opacity:1;stroke:none;font-family:Segoe Print;-inkscape-font-specification:Segoe Print"
       x="248.43094"
       y="434.53162"
       id="text3195-1"
       sodipodi:linespacing="125%"><tspan
         sodipodi:role="line"
         x="248.43094"
         y="434.53162"
         id="tspan3199-4"
         style="font-size:12px">Send commands</tspan></text>
    <text
       xml:space="preserve"
       style="font-size:16px;font-style:normal;font-variant:normal;font-weight:normal;font-stretch:normal;text-align:start;line-height:125%;letter-spacing:0px;word-spacing:0px;writing-mode:lr-tb;text-anchor:start;fill:#000000;fill-opacity:1;stroke:none;font-family:Segoe Print;-inkscape-font-specification:Segoe Print"
       x="515.58246"
       y="435.83978"
       id="text3195-1-0"
       sodipodi:linespacing="125%"><tspan
         sodipodi:role="line"
         x="515.58246"
         y="435.83978"
         id="tspan3199-4-9"
         style="font-size:12px">Send commands and</tspan><tspan
         sodipodi:role="line"
         x="515.58246"
         y="450.83978"
         style="font-size:12px"
         id="tspan3248">publish events</tspan></text>
    <text
       xml:space="preserve"
       style="font-size:16px;font-style:normal;font-variant:normal;font-weight:normal;font-stretch:normal;text-align:start;line-height:125%;letter-spacing:0px;word-spacing:0px;writing-mode:lr-tb;text-anchor:start;fill:#000000;fill-opacity:1;stroke:none;font-family:Segoe Print;-inkscape-font-specification:Segoe Print"
       x="715.66193"
       y="437.83823"
       id="text3195-1-0-4"
       sodipodi:linespacing="125%"><tspan
         sodipodi:role="line"
         x="715.66193"
         y="437.83823"
         id="tspan3199-4-9-8"
         style="font-size:12px">Receive commands and</tspan><tspan
         sodipodi:role="line"
         x="715.66193"
         y="452.83823"
         style="font-size:12px"
         id="tspan3248-8">events</tspan></text>
    <text
       xml:space="preserve"
       style="font-size:16px;font-style:normal;font-variant:normal;font-weight:normal;font-stretch:normal;text-align:start;line-height:125%;letter-spacing:0px;word-spacing:0px;writing-mode:lr-tb;text-anchor:start;fill:#000000;fill-opacity:1;stroke:none;font-family:Segoe Print;-inkscape-font-specification:Segoe Print"
       x="450.8186"
       y="253.21028"
       id="text3195-2"
       sodipodi:linespacing="125%"><tspan
         sodipodi:role="line"
         x="450.8186"
         y="253.21028"
         style="font-size:12px"
         id="tspan3300">Persist aggregate state</tspan><tspan
         sodipodi:role="line"
         x="450.8186"
         y="268.2103"
         style="font-size:12px"
         id="tspan3304">and push to read model</tspan></text>
    <text
       xml:space="preserve"
       style="font-size:16px;font-style:normal;font-variant:normal;font-weight:normal;font-stretch:normal;text-align:start;line-height:125%;letter-spacing:0px;word-spacing:0px;writing-mode:lr-tb;text-anchor:start;fill:#000000;fill-opacity:1;stroke:none;font-family:Segoe Print;-inkscape-font-specification:Segoe Print"
       x="605.05457"
       y="162.17346"
       id="text3195-5"
       sodipodi:linespacing="125%"><tspan
         sodipodi:role="line"
         x="605.05457"
         y="162.17346"
         id="tspan3199-7"
         style="font-size:12px">Re-hydrate aggregate</tspan><tspan
         sodipodi:role="line"
         x="605.05457"
         y="177.17346"
         style="font-size:12px"
         id="tspan3332">instances</tspan></text>
    <text
       xml:space="preserve"
       style="font-size:16px;font-style:normal;font-variant:normal;font-weight:normal;font-stretch:normal;text-align:start;line-height:125%;letter-spacing:0px;word-spacing:0px;writing-mode:lr-tb;text-anchor:start;fill:#000000;fill-opacity:1;stroke:none;font-family:Segoe Print;-inkscape-font-specification:Segoe Print"
       x="792.65753"
       y="334.93045"
       id="text3189-1"
       sodipodi:linespacing="125%"><tspan
         sodipodi:role="line"
         x="792.65753"
         y="334.93045"
         id="tspan3193-5"
         style="font-size:12px">Domain</tspan><tspan
         sodipodi:role="line"
         x="792.65753"
         y="349.93045"
         style="font-size:12px"
         id="tspan3360">model</tspan></text>
    <text
       xml:space="preserve"
       style="font-size:16px;font-style:normal;font-variant:normal;font-weight:normal;font-stretch:normal;text-align:start;line-height:125%;letter-spacing:0px;word-spacing:0px;writing-mode:lr-tb;text-anchor:start;fill:#000000;fill-opacity:1;stroke:none;font-family:Segoe Print;-inkscape-font-specification:Segoe Print"
       x="677.97931"
       y="378.55734"
       id="text3189-1-2"
       sodipodi:linespacing="125%"><tspan
         sodipodi:role="line"
         x="677.97931"
         y="378.55734"
         style="font-size:12px"
         id="tspan3360-6">Handlers</tspan></text>
    <text
       xml:space="preserve"
       style="font-size:16px;font-style:normal;font-variant:normal;font-weight:normal;font-stretch:normal;text-align:start;line-height:125%;letter-spacing:0px;word-spacing:0px;writing-mode:lr-tb;text-anchor:start;fill:#000000;fill-opacity:1;stroke:none;font-family:Segoe Print;-inkscape-font-specification:Segoe Print"
       x="683.24591"
       y="298.80603"
       id="text3189-1-1"
       sodipodi:linespacing="125%"><tspan
         sodipodi:role="line"
         x="683.24591"
         y="298.80603"
         style="font-size:12px"
         id="tspan3360-2">Read model</tspan><tspan
         sodipodi:role="line"
         x="683.24591"
         y="313.80603"
         style="font-size:12px"
         id="tspan3401">generators</tspan></text>
  </g>
  <g
     inkscape:label="Layer 1"
     inkscape:groupmode="layer"
     id="layer1"
     transform="translate(0,-308.2677)">
    <path
       style="fill:#000000;fill-opacity:1;fill-rule:nonzero;stroke:none"
       d="M 469.28125 39.75 C 468.40853 39.761358 467.52833 39.802395 466.65625 39.84375 C 463.11302 40.037526 459.60485 40.464004 456.09375 40.96875 C 452.68922 41.411472 449.31631 42.201439 446.03125 43.1875 C 443.10171 44.147469 440.22919 45.261899 437.34375 46.34375 C 433.57842 47.652883 430.16131 49.662729 426.75 51.6875 C 424.22505 53.291796 421.68285 54.882933 419.1875 56.53125 C 417.1669 57.764469 415.54406 59.322437 414.375 61.375 C 413.66762 62.757073 413.38663 64.221348 413.375 65.71875 L 412.46875 66.1875 C 412.53914 69.323051 412.49109 72.46545 412.28125 75.59375 C 411.9566 79.450201 411.95107 83.29753 411.6875 87.15625 C 411.37537 90.316615 411.18124 93.483202 411.0625 96.65625 C 410.9775 99.639174 410.97075 102.64113 410.96875 105.625 C 410.97075 108.85092 410.96809 112.08658 410.96875 115.3125 C 410.96775 118.46449 410.999 121.598 411 124.75 C 411.003 128.09943 410.97375 131.46307 410.96875 134.8125 C 411.02197 137.13189 410.66509 139.41673 410.4375 141.71875 C 410.28463 143.31576 410.23615 144.92816 410.21875 146.53125 C 410.18165 148.27952 410.29852 150.03983 410.125 151.78125 C 409.82807 153.688 409.6569 155.60464 409.5625 157.53125 C 409.43261 159.49199 409.58505 161.45262 409.375 163.40625 C 409.02952 165.13916 409.26838 166.83983 410.125 168.375 C 411.12163 169.80346 412.63616 170.72642 414.125 171.5625 C 415.97991 172.54423 417.91951 173.35065 419.84375 174.1875 C 421.99924 174.97472 424.28781 175.29978 426.5 175.90625 C 428.59956 176.6536 430.73063 177.17356 432.9375 177.46875 C 434.83715 177.78527 436.70873 178.29762 438.5625 178.8125 C 440.60606 179.36101 442.62872 179.94026 444.71875 180.28125 C 447.31438 180.75381 449.89864 181.34504 452.46875 181.9375 C 455.13685 182.41745 457.78511 182.95282 460.46875 183.34375 C 463.34804 183.75928 466.20969 184.27871 469.0625 184.84375 C 471.99847 185.54478 474.93951 186.1436 477.9375 186.5 C 480.08857 186.66601 482.22997 187.02432 484.375 187.25 C 485.98562 187.40975 487.60157 187.45225 489.21875 187.46875 C 491.11261 187.47675 493.01238 187.47075 494.90625 187.46875 C 496.92272 187.40455 498.95836 187.56271 500.96875 187.375 C 502.58991 187.20135 504.16596 186.83787 505.75 186.46875 C 507.30777 186.09275 508.85126 185.76263 510.40625 185.375 C 512.13755 184.8588 513.8587 184.31878 515.59375 183.8125 C 517.63659 183.03916 519.80443 182.71458 521.9375 182.3125 C 523.79291 181.73932 525.65779 181.22844 527.53125 180.71875 C 529.37713 180.04371 531.27302 179.62081 533.21875 179.375 C 534.88464 179.1417 536.50415 178.68044 538.125 178.25 C 539.85589 177.91622 541.56826 177.48429 543.1875 176.78125 L 545.53125 174.9375 C 543.94859 175.70193 542.22383 176.12102 540.5 176.4375 C 538.87902 176.85324 537.28567 177.3445 535.625 177.59375 C 533.67169 177.82038 531.74876 178.19732 529.90625 178.90625 C 528.03013 179.39895 526.15418 179.8871 524.3125 180.5 C 522.18167 180.91947 520.00843 181.20382 517.96875 182 C 516.23376 182.49707 514.504 183.02776 512.78125 183.5625 C 511.2417 183.99135 509.67062 184.27833 508.125 184.6875 C 506.54307 185.04633 504.96224 185.42205 503.34375 185.59375 C 501.34602 185.85994 499.32251 185.63275 497.3125 185.71875 C 495.42236 185.71975 493.51513 185.72575 491.625 185.71875 C 490.01176 185.70654 488.38904 185.67767 486.78125 185.53125 C 484.63287 185.31935 482.52719 184.94685 480.375 184.78125 C 477.37463 184.45015 474.40077 183.87383 471.46875 183.15625 C 468.61689 182.59003 465.78513 182.04056 462.90625 181.625 C 460.22312 181.25153 457.54297 180.71258 454.875 180.25 C 452.30151 179.66028 449.75268 179.04557 447.15625 178.5625 C 445.07153 178.23999 443.03618 177.69897 441 177.15625 C 439.14013 176.62353 437.27888 176.0982 435.375 175.75 C 433.17325 175.47898 431.02378 174.98464 428.9375 174.21875 C 426.73543 173.6131 424.47452 173.28888 422.3125 172.5625 C 420.39186 171.74218 418.4797 170.89663 416.625 169.9375 C 415.18279 169.13034 413.69772 168.28005 412.71875 166.90625 C 411.88227 165.41604 411.70982 163.76929 412.03125 162.09375 C 412.20742 160.13366 412.09351 158.15215 412.21875 156.1875 C 412.32281 154.26442 412.49927 152.34305 412.78125 150.4375 C 412.93015 148.68607 412.8401 146.94396 412.875 145.1875 C 412.89413 143.59304 412.94055 141.99453 413.09375 140.40625 C 413.32042 138.09959 413.6917 135.79276 413.625 133.46875 C 413.62 130.11998 413.622 126.75502 413.625 123.40625 C 413.626 120.25402 413.628 117.12098 413.625 113.96875 C 413.623 110.74259 413.59175 107.50741 413.59375 104.28125 C 413.59645 101.29977 413.5983 98.324192 413.6875 95.34375 C 413.80172 92.176017 414.01845 89.000011 414.3125 85.84375 C 414.56498 81.984134 414.57492 78.106243 414.90625 74.25 C 415.00218 72.836841 415.05752 71.444321 415.09375 70.03125 C 415.8516 70.916149 416.74526 71.721855 417.625 72.46875 C 419.94244 74.334202 422.51454 75.728167 425.1875 77 C 428.91577 78.741696 432.95983 79.707498 436.9375 80.6875 C 443.17338 82.271472 449.46351 83.503543 455.8125 84.53125 C 461.63095 85.477875 467.47449 86.344565 473.34375 86.90625 C 477.6813 87.431683 482.01053 87.804331 486.375 88 C 490.01595 88.281183 493.64266 87.967845 497.25 87.5 C 500.95064 86.940882 504.71399 86.910128 508.4375 86.625 C 511.20267 86.467534 513.90363 85.942752 516.59375 85.3125 C 519.33038 84.409907 522.12432 83.74438 524.90625 83 C 527.18387 82.0909 529.7851 81.812956 531.96875 80.65625 C 533.12515 80.043685 534.23873 79.367909 535.375 78.71875 C 536.86844 77.917553 537.93347 76.682112 539 75.40625 C 540.05012 74.014566 540.89423 72.469731 541.65625 70.90625 C 541.74174 70.724038 541.79972 70.529361 541.875 70.34375 C 542.07955 72.6535 542.25981 74.940378 542.46875 77.25 C 542.94067 81.854329 543.20889 86.499902 543.34375 91.125 C 543.32367 95.217125 543.5038 99.292348 543.75 103.375 C 543.95687 106.72273 544.0756 110.05286 544.125 113.40625 C 544.1549 115.90386 544.1572 118.40852 544.15625 120.90625 C 544.15425 123.3541 544.16025 125.80215 544.15625 128.25 C 544.15925 131.01241 544.15225 133.76885 544.15625 136.53125 C 543.93919 140.12003 543.67681 143.71964 543.53125 147.3125 C 543.44896 150.56256 543.47258 153.79157 543.1875 157.03125 C 542.9249 159.60086 542.7756 162.20038 542.6875 164.78125 C 542.6625 166.41696 542.27618 168.00093 542.09375 169.625 C 541.96102 170.93079 541.92935 172.25115 541.90625 173.5625 L 544.5625 172.21875 C 544.58767 170.91597 544.61058 169.6091 544.75 168.3125 C 544.9422 166.68602 545.34875 165.08095 545.34375 163.4375 C 545.42661 160.86347 545.55205 158.28158 545.8125 155.71875 C 546.08914 152.47617 546.06105 149.22042 546.15625 145.96875 C 546.3011 142.37126 546.57081 138.81248 546.78125 135.21875 C 546.78525 132.45391 546.77725 129.67109 546.78125 126.90625 C 546.77925 124.45879 546.77925 122.00995 546.78125 119.5625 C 546.78245 117.06422 546.7863 114.56057 546.75 112.0625 C 546.68838 108.7094 546.59021 105.3784 546.375 102.03125 C 546.13442 97.950358 545.9253 93.871078 545.9375 89.78125 C 545.78852 85.154262 545.53751 80.512524 545.0625 75.90625 C 544.66843 71.485905 544.34469 67.069724 543.875 62.65625 L 543.625 62.78125 C 543.67648 62.083471 543.723 61.384956 543.75 60.6875 C 543.9607 58.805752 543.11151 57.247144 542.1875 55.6875 C 541.15785 54.029338 539.75882 52.674147 538.4375 51.25 C 537.01761 49.516338 535.30597 48.170991 533.5 46.875 C 531.80208 45.698239 529.98216 44.741982 528.125 43.84375 C 526.52914 43.129753 524.87052 42.531312 523.1875 42.0625 C 521.02528 41.358449 518.82017 40.921848 516.5625 40.6875 C 515.21167 40.494081 513.85082 40.256101 512.5 40.0625 L 510.34375 41.59375 C 508.06822 41.472958 505.77809 41.428912 503.5 41.375 C 498.65121 41.263746 493.80463 41.035831 488.96875 40.65625 C 485.03153 40.24727 481.08036 39.975059 477.125 39.84375 C 474.50725 39.79698 471.89942 39.715925 469.28125 39.75 z M 466.90625 41.5 C 469.52144 41.459615 472.13491 41.526005 474.75 41.5625 C 478.70707 41.685382 482.65481 41.93636 486.59375 42.34375 C 491.43074 42.733959 496.3064 42.930737 501.15625 43.0625 C 504.94974 43.150857 508.72249 43.273916 512.5 43.65625 L 514.25 42.4375 C 516.4528 42.655717 518.64434 43.046503 520.75 43.75 C 522.4223 44.202888 524.03517 44.779787 525.625 45.46875 C 527.47687 46.34547 529.30308 47.3171 531 48.46875 C 531.64035 48.931746 532.31676 49.32352 532.9375 49.8125 C 534.03613 50.677921 534.91151 51.808178 535.90625 52.78125 C 537.21327 54.190008 538.60285 55.550064 539.625 57.1875 C 540.52767 58.705874 541.31229 60.199396 541.09375 62.03125 C 541.02376 63.721933 540.94143 65.420085 540.5 67.0625 C 540.06128 68.774397 539.75931 70.55828 538.96875 72.15625 C 538.19766 73.699785 537.319 75.201902 536.25 76.5625 C 535.49384 77.456434 534.73086 78.298704 533.8125 79 C 533.58816 79.11088 533.3303 79.227895 533.1875 79.28125 C 531.23451 80.01093 529.22739 80.532372 527.25 81.1875 C 524.47751 81.944046 521.65542 82.584243 518.9375 83.53125 C 516.25044 84.169168 513.54629 84.713223 510.78125 84.875 C 507.05704 85.187251 503.32901 85.189756 499.625 85.75 C 496.02668 86.22448 492.41591 86.559331 488.78125 86.28125 C 484.41347 86.09731 480.05911 85.745916 475.71875 85.21875 C 469.84533 84.675578 464.00892 83.81822 458.1875 82.875 C 451.84749 81.861065 445.53442 80.625925 439.3125 79.03125 C 435.36078 78.049881 431.3677 77.090421 427.65625 75.375 C 425.00217 74.116527 422.43032 72.751063 420.125 70.90625 C 418.46183 69.501503 416.6935 67.95222 416.09375 65.78125 C 415.93256 63.831235 416.14963 61.938502 417.09375 60.1875 C 418.3005 58.188453 419.97686 56.656031 421.96875 55.4375 C 424.27475 53.907098 426.60116 52.452423 428.9375 50.96875 C 429.01074 50.928156 429.08328 50.884971 429.15625 50.84375 C 429.27082 50.770861 429.38553 50.698068 429.5 50.625 C 429.52845 50.610002 429.5651 50.608317 429.59375 50.59375 C 431.36217 49.694539 433.16494 48.835443 435.03125 48.15625 C 437.91694 47.07239 440.79431 45.977466 443.71875 45 C 446.98987 43.988827 450.32322 43.17543 453.71875 42.71875 C 457.22309 42.201411 460.74396 41.79907 464.28125 41.59375 C 465.15217 41.54648 466.03452 41.513462 466.90625 41.5 z "
       transform="translate(0,308.2677)"
       id="path2985" />
    <path
       style="fill:#000000;fill-opacity:1;fill-rule:nonzero;stroke:none"
       id="path2993"
       d="m 209.37423,263.89556 c -2.87369,-0.87583 -5.77833,-1.65754 -8.73901,-2.17579 -2.95256,-0.38472 -5.86889,-0.99016 -8.81092,-1.4417 -3.11899,-0.42311 -6.22904,-0.88109 -9.36795,-1.13231 -2.78342,-0.19985 -5.5754,-0.21059 -8.36451,-0.22193 -3.17156,-0.007 -6.34313,-0.001 -9.5147,0.003 -2.93842,-0.12275 -5.85157,0.10487 -8.77452,0.35574 -2.74526,0.4624 -5.50454,0.79613 -8.28008,1.00413 -2.46232,0.26061 -4.8889,0.7344 -7.32943,1.13666 -2.32138,0.25327 -4.56362,0.96905 -6.79765,1.62451 -2.12064,0.84751 -4.25925,1.60351 -6.44571,2.25835 -2.69504,0.7651 -5.28934,1.85144 -7.8519,2.97768 -2.7911,1.25892 -5.58353,2.49288 -8.34879,3.80411 -3.79498,2.00063 -2.03945,1.02572 -6.82013,4.15222 -3.54487,2.13986 -7.026744,4.38539 -10.510261,6.62375 -2.528871,1.74185 -5.081316,3.47202 -7.375475,5.51947 -2.171723,1.77815 -3.990462,3.90472 -5.795898,6.03933 -2.087966,2.36843 -3.801181,5.02118 -5.531795,7.65139 -2.144919,2.93544 -4.063846,5.99884 -5.849785,9.16087 -1.493307,2.88474 -2.761324,5.87786 -4.171737,8.80209 -1.532478,2.8458 -2.391127,5.95712 -3.29312,9.03865 -0.766494,2.92689 -1.256481,5.92378 -1.654177,8.92112 -0.580029,3.37769 -0.920069,6.78248 -1.106523,10.20224 -0.237157,3.2902 -0.0829,6.57026 0.587341,9.79863 0.374169,2.34668 1.293607,4.50038 2.156388,6.6898 0.733406,1.90063 2.018981,3.47654 3.282455,5.04295 1.641115,2.11039 3.697785,3.82718 5.824715,5.42323 2.399676,1.48102 4.931517,2.72967 7.44957,3.99295 3.407644,1.87164 6.6889,3.96179 10.071511,5.88165 3.556433,2.00997 7.335113,3.5472 11.101035,5.10405 3.601756,1.6265 7.229416,3.15647 10.976006,4.4161 4.02081,1.44047 8.10291,2.59847 12.27802,3.4848 4.50558,0.76011 8.98389,1.66604 13.46941,2.53356 3.86095,0.62705 7.71944,1.26561 11.55299,2.04478 3.77344,0.76054 7.61671,1.05078 11.44111,1.43232 4.32686,0.29258 8.6497,0.61675 12.97475,0.93902 4.01124,0.29432 8.03342,0.37153 12.05376,0.41755 3.26741,0.15019 6.5132,-0.0759 9.76672,-0.33094 3.42153,-0.20887 6.82381,-0.65539 10.21272,-1.15935 2.88367,-0.64732 5.80248,-1.10771 8.72183,-1.55792 3.55244,-0.74801 7.12619,-1.34888 10.70849,-1.93201 3.07672,-0.43531 6.08908,-1.20348 9.12066,-1.86648 3.33161,-0.71418 6.50901,-1.96572 9.68975,-3.15832 3.72645,-1.51337 7.46203,-2.98465 11.25919,-4.31072 2.33514,-0.63913 4.51731,-1.68279 6.76223,-2.55904 1.12442,-0.24823 2.61933,-1.63222 3.67071,-1.84142 0.4346,-0.0865 -1.54553,0.86774 -1.16021,0.64892 3.49352,-1.98387 2.92993,-1.66635 5.30006,-2.98308 -3.6546,2.05033 1.66974,-0.92615 2.50168,-1.39447 0.36166,-0.20359 1.44079,-0.82461 1.07871,-0.62177 -0.49707,0.27846 -0.96659,0.60946 -1.48371,0.84865 -0.35755,0.16539 0.66171,-0.42825 1.00241,-0.62602 1.18471,-0.68771 2.38208,-1.35335 3.57312,-2.03002 -0.50537,0.27478 -0.96437,0.66161 -1.51612,0.82433 -0.40815,0.12037 0.72379,-0.4486 1.07191,-0.69332 1.62747,-1.14405 3.08299,-2.47711 4.51302,-3.85319 1.85752,-1.892 3.56726,-3.90417 5.1644,-6.01784 1.40844,-2.12394 2.95867,-4.14772 4.42842,-6.22833 1.42601,-2.11432 2.71526,-4.32049 3.92996,-6.56252 1.13864,-2.12499 2.11847,-4.32736 3.17015,-6.49591 0.93395,-2.24099 1.89632,-4.47366 2.74699,-6.74809 0.52979,-1.77014 0.80361,-3.61575 1.10543,-5.43854 0.33044,-2.08678 0.72959,-4.15725 0.95312,-6.26018 0.1808,-2.07565 0.2116,-4.16011 0.22775,-6.2423 -0.0294,-2.18378 0.10273,-4.37515 -0.0816,-6.55301 -0.15447,-1.92565 -0.60479,-3.80501 -1.11327,-5.66333 -0.64736,-1.71476 -1.31267,-3.43628 -2.10592,-5.0893 -0.6387,-1.42781 -1.39316,-2.77865 -2.19954,-4.11643 -1.10621,-1.65684 -2.00073,-3.44224 -2.89384,-5.21969 -0.95913,-1.49825 -1.89517,-3.03215 -2.96964,-4.45175 -1.25165,-1.72668 -2.76613,-3.22827 -4.42001,-4.56669 -1.42336,-1.20069 -2.81333,-2.4502 -4.28606,-3.59047 -1.45671,-1.09811 -3.01011,-2.0636 -4.54675,-3.04561 -1.42,-0.94947 -2.90836,-1.79734 -4.3933,-2.63981 -1.70373,-0.95365 -3.43555,-1.86135 -5.12755,-2.83371 -1.40663,-0.63302 -2.69903,-1.45726 -4.07078,-2.15767 -1.98955,-0.89811 -4.02932,-1.68174 -5.98567,-2.65103 -2.02872,-0.88647 -4.06874,-1.79485 -6.18505,-2.45716 -1.93072,-0.67434 -3.818,-1.46793 -5.72596,-2.20515 -1.52084,-0.46854 -3.0686,-0.79915 -4.58713,-1.28376 -1.72143,-0.4633 -3.44472,-0.92541 -5.17848,-1.34365 -1.562,-0.5924 -3.17194,-0.92596 -4.82782,-1.09596 -1.80457,-0.27861 -3.56729,-0.7452 -5.34944,-1.1307 -1.86701,-0.23381 -3.71501,-0.52201 -5.56713,-0.85452 -1.32511,-0.47924 -2.6643,-0.84317 -4.06194,-1.02158 -0.93444,-0.0803 -0.46445,-0.0471 -1.41,-0.0993 0,0 2.42348,-1.73855 2.42348,-1.73855 l 0,0 c 0.95427,0.0623 0.47969,0.0232 1.42375,0.11699 1.39509,0.20129 2.72681,0.59782 4.06427,1.03597 1.85237,0.33854 3.7088,0.59231 5.57103,0.86501 1.7726,0.39296 3.53279,0.84413 5.33258,1.10334 1.66357,0.18916 3.2733,0.56089 4.85187,1.12734 1.7347,0.43226 3.46723,0.87634 5.18773,1.35985 1.52658,0.467 3.08485,0.79619 4.59803,1.30092 1.89762,0.74409 3.78007,1.53292 5.70759,2.19508 2.12033,0.68764 4.17867,1.58152 6.20958,2.49372 1.96482,0.95842 4.00804,1.74138 5.99631,2.64962 1.37318,0.70304 2.68063,1.51421 4.07927,2.16862 1.69802,0.96407 3.41565,1.89595 5.12897,2.83355 1.48072,0.85994 2.98245,1.68806 4.3987,2.65289 1.5449,0.98426 3.10091,1.96162 4.55977,3.07062 1.46668,1.15193 2.86961,2.38817 4.29009,3.59602 1.65762,1.36903 3.18544,2.88768 4.45864,4.6261 1.08369,1.43513 2.03244,2.98228 2.99114,4.50197 0.88706,1.77196 1.78626,3.54633 2.89118,5.19467 0.8107,1.34593 1.57437,2.70349 2.21413,4.14108 0.79679,1.67095 1.463,3.41023 2.12607,5.13809 0.52389,1.87231 0.96921,3.77166 1.13567,5.71297 0.1968,2.18487 0.0588,4.38402 0.0996,6.57566 -0.0186,2.09161 -0.0549,4.18475 -0.22171,6.27075 -0.21175,2.10866 -0.60875,4.18355 -0.94141,6.27397 -0.29688,1.83952 -0.58404,3.69607 -1.08063,5.49031 -0.84149,2.28832 -1.8414,4.51579 -2.74651,6.77929 -1.05153,2.17024 -2.03,4.37351 -3.15908,6.50451 -1.20426,2.25846 -2.51547,4.46256 -3.92411,6.59864 -1.46012,2.0873 -3.0269,4.09964 -4.41859,6.23486 -1.60044,2.12654 -3.29976,4.1594 -5.1605,6.0661 -2.73802,2.66597 -5.64569,4.99567 -9.10428,6.70637 0.50004,-0.30112 0.98555,-0.6278 1.50012,-0.90338 0.3482,-0.18648 -0.66017,0.43443 -1.0001,0.6356 -1.18904,0.70364 -2.38898,1.38873 -3.58616,2.07844 -0.35842,0.20649 -1.38474,0.89048 -1.08059,0.61013 0.31054,-0.28624 8.11777,-4.77529 -2.49295,1.39597 -0.45315,0.25087 -0.86084,0.61233 -1.35944,0.7526 -0.41784,0.11755 1.48699,-0.89589 1.10918,-0.68219 -2.50298,1.41576 -4.94237,2.95548 -7.59606,4.08517 -2.23107,0.9019 -4.43375,1.87609 -6.75541,2.53775 -3.79087,1.32142 -7.51256,2.80896 -11.23831,4.30307 -3.19496,1.19936 -6.39086,2.44357 -9.74165,3.14513 -3.02768,0.66507 -6.04167,1.41004 -9.11522,1.842 -3.58656,0.57892 -7.15828,1.20912 -10.71783,1.93697 -2.91704,0.46232 -5.83243,0.93065 -8.72047,1.55394 -3.39318,0.50074 -6.80099,0.92625 -10.22534,1.14365 -3.2562,0.25892 -6.5069,0.44729 -9.7761,0.30451 -4.02063,-0.0541 -8.04318,-0.13823 -12.05427,-0.43969 -4.32711,-0.32543 -8.65339,-0.63847 -12.98169,-0.94286 -3.83357,-0.38018 -7.6852,-0.67456 -11.46515,-1.45137 -3.83251,-0.76936 -7.6866,-1.41426 -11.54342,-2.04893 -4.48355,-0.87838 -8.96457,-1.7701 -13.46844,-2.54037 -4.18444,-0.89075 -8.27116,-2.0757 -12.30448,-3.50777 -3.74902,-1.2681 -7.37778,-2.81194 -10.987662,-4.43162 -3.777379,-1.55515 -7.55316,-3.12389 -11.117697,-5.13717 -3.378726,-1.92297 -6.66213,-4.00925 -10.0811,-5.85704 -2.533515,-1.26887 -5.085201,-2.51875 -7.483229,-4.0347 -2.141675,-1.61623 -4.20968,-3.3548 -5.866993,-5.48246 -1.288284,-1.58614 -2.59348,-3.18631 -3.337838,-5.11629 -0.859346,-2.20964 -1.78946,-4.37873 -2.158974,-6.74471 -0.685584,-3.25002 -0.857005,-6.5542 -0.617636,-9.86922 0.180805,-3.42544 0.508362,-6.8369 1.091477,-10.21991 0.388043,-3.01115 0.880418,-6.01876 1.632565,-8.96193 0.915156,-3.08853 1.73756,-6.22449 3.272571,-9.08305 1.429406,-2.92187 2.689451,-5.92554 4.172615,-8.82262 1.789588,-3.16355 3.673413,-6.25361 5.841386,-9.17886 1.73153,-2.63183 3.418911,-5.30561 5.50656,-7.67825 1.796675,-2.14693 3.604704,-4.29344 5.7783,-6.07566 2.276927,-2.08481 4.847045,-3.80987 7.375989,-5.57129 3.478868,-2.24773 6.968773,-4.48587 10.516086,-6.62331 3.83936,-2.53096 7.73687,-5.01686 11.86145,-7.05889 2.76139,-1.31911 5.56693,-2.52777 8.35283,-3.79566 2.57158,-1.12519 5.18037,-2.19448 7.88473,-2.95768 2.18617,-0.6577 4.30951,-1.46253 6.44895,-2.25743 2.24293,-0.64416 4.48693,-1.35008 6.81658,-1.59495 2.44315,-0.40849 4.8765,-0.87257 7.34452,-1.11511 2.77259,-0.21311 5.52434,-0.57411 8.27167,-1.00189 2.92628,-0.25665 5.84592,-0.43967 8.78671,-0.33333 3.17294,-0.002 6.34588,-0.008 9.51882,-0.004 2.79342,0.0147 5.59012,0.0226 8.37686,0.24116 3.14119,0.26455 6.25522,0.72864 9.37796,1.15124 2.94223,0.4609 5.86423,1.04352 8.81587,1.44642 2.97265,0.54019 5.89004,1.3345 8.78413,2.19697 0,0 -2.46386,1.67171 -2.46386,1.67171 z"
       inkscape:connector-curvature="0"
       transform="translate(0,308.2677)" />
    <path
       style="fill:#000000;fill-opacity:1;fill-rule:nonzero;stroke:none"
       id="path2995"
       d="m 778.1046,249.15683 c -4.93459,-0.0818 -9.86292,0.005 -14.79366,0.19333 -6.92255,0.37494 -13.82129,1.04691 -20.71331,1.77994 -5.81228,0.79636 -11.62136,1.61097 -17.44133,2.35647 -4.64084,0.57546 -9.18552,1.66011 -13.64048,3.05649 -3.88528,1.16206 -7.67609,2.66011 -11.37676,4.31654 -3.59856,1.34807 -7.09592,2.94318 -10.53311,4.6568 -0.0879,0.0484 -2.69606,1.47367 -2.80275,1.57003 -0.35708,0.32251 1.05638,-1.123 1.26756,-0.69065 0.21203,0.43411 -0.82412,0.50453 -1.232,0.76345 -1.26281,0.80163 -1.10143,0.71275 -2.33416,1.59746 -2.65479,1.84847 -5.40325,3.55367 -8.11301,5.31894 -3.27266,2.13963 -6.34737,4.54271 -9.35859,7.03016 -3.39496,2.66993 -6.64701,5.5121 -9.93996,8.3049 -2.87028,2.51926 -5.60295,5.17172 -8.22989,7.94161 -2.57444,2.54436 -4.70305,5.46454 -6.869,8.34914 -2.27322,3.12749 -4.12171,6.50714 -5.81049,9.97587 -1.99278,3.83469 -3.49891,7.87602 -5.05583,11.89841 -1.53706,3.77287 -2.38783,7.75996 -3.25238,11.72507 -0.68175,3.61046 -1.15008,7.2618 -1.59744,10.90849 -0.34814,2.96373 -0.43528,5.9476 -0.48307,8.92844 -0.0287,2.70576 -0.0217,5.41172 -0.0152,8.11757 0.21341,2.18805 0.37302,4.3913 0.70593,6.5651 0.33514,2.03188 1.05969,3.98813 1.79246,5.90694 0.59052,2.05153 1.6471,3.88748 2.70204,5.72309 0.96479,1.5812 2.17131,2.96373 3.49464,4.25047 1.95144,1.7289 4.24932,2.97914 6.44418,4.36052 2.17069,1.57419 4.58307,2.65465 7.03608,3.69485 2.54481,1.12049 5.10868,2.22088 7.71148,3.20195 3.08126,0.88492 6.18554,1.70814 9.33865,2.29328 3.73765,0.63739 7.42226,1.52406 11.13033,2.3063 4.93558,1.03378 9.91482,1.8587 14.90177,2.60203 5.00364,0.80693 10.00423,1.60482 15.05285,2.06782 5.72851,0.31119 11.43366,0.91512 17.15104,1.36949 5.37178,0.41919 10.75952,0.52369 16.14496,0.58268 6.234,0.0599 12.46186,0.39792 18.69361,0.57782 4.50887,0.0602 9.0242,0.29307 13.53136,0.0876 4.45409,-0.13456 8.78707,-1.23952 13.12752,-2.14042 4.01487,-0.91512 8.02044,-1.89857 11.96753,-3.07479 3.85953,-1.30333 7.68291,-2.70388 11.54398,-4.00268 5.13858,-1.61508 10.34405,-3.02541 15.57973,-4.28958 4.35193,-1.00469 8.57226,-2.50668 12.73198,-4.11793 5.41353,-2.11958 10.75505,-4.41014 16.11237,-6.66433 3.45005,-1.30175 6.74045,-2.97463 10.08994,-4.5102 1.40493,-0.91452 3.07343,-1.42692 4.46786,-2.35265 0.31388,-0.20837 -1.29797,0.72857 -1.03136,0.46236 0.42986,-0.42923 1.03392,-0.63836 1.54165,-0.97189 0.49905,-0.32783 0.98544,-0.67455 1.47817,-1.01182 3.13115,-2.11647 6.16964,-4.36046 9.06689,-6.78723 3.15201,-2.69108 6.01089,-5.66967 8.53305,-8.95433 2.87052,-3.58125 5.48774,-7.36361 7.68203,-11.39551 1.75151,-3.0364 2.96203,-6.22535 3.59406,-9.66468 0.50819,-3.78081 0.45742,-7.60884 0.46971,-11.41561 0.13226,-3.46694 -0.11688,-6.90075 -0.69487,-10.31526 -0.6736,-2.69735 -1.41296,-5.38315 -2.45133,-7.96431 -1.0096,-2.84595 -2.18177,-5.61902 -3.60617,-8.28154 -1.02748,-2.26872 -2.21156,-4.44311 -3.3703,-6.64732 -1.44814,-2.41607 -2.66209,-4.9621 -4.01637,-7.42947 -1.37057,-2.31932 -2.83386,-4.57499 -4.30457,-6.83058 -1.23618,-1.85404 -2.67169,-3.54847 -4.04841,-5.29517 -1.52043,-1.53886 -3.35297,-2.72663 -5.22545,-3.7887 -3.50907,-1.77943 -7.01376,-3.56644 -10.57485,-5.24118 -4.30645,-2.10083 -8.73587,-3.91713 -13.16407,-5.73944 -4.27881,-1.7762 -8.59278,-3.45868 -12.92004,-5.11084 -2.49975,-1.10615 -5.10489,-1.91149 -7.7267,-2.66356 -1.9037,-0.44088 -3.79608,-0.89984 -5.73349,-1.16997 -2.2992,-0.25645 -4.57353,-0.66262 -6.88045,-0.86029 -2.26114,-0.21775 -4.53894,-0.0819 -6.79731,-0.29936 -1.97593,-0.25395 -3.9559,-0.46074 -5.94508,-0.57133 -1.61864,0.0546 -3.18937,-0.19783 -4.78101,-0.43813 -1.88538,-0.24515 -3.78635,-0.3222 -5.68525,-0.3684 -1.60781,0.0938 -3.17201,-0.26582 -4.75199,-0.49473 -1.65062,-0.51245 -3.33927,-0.7559 -5.05603,-0.89611 -1.27127,-0.0908 -2.54571,-0.11342 -3.8196,-0.13223 0,0 2.40819,-1.74389 2.40819,-1.74389 l 0,0 c 1.2777,0.0213 2.55585,0.0502 3.83038,0.14983 1.72238,0.15258 3.4082,0.43325 5.07392,0.9059 1.57026,0.23593 3.12974,0.55107 4.72796,0.46795 1.90672,0.0546 3.81519,0.14298 5.70734,0.39808 1.58457,0.24202 3.15639,0.4382 4.76483,0.41597 1.98818,0.12268 3.96589,0.3452 5.9432,0.5837 2.2598,0.18434 4.53483,0.0765 6.79421,0.30124 2.30998,0.20895 4.58967,0.61752 6.8942,0.87034 1.94328,0.28564 3.8498,0.74028 5.75689,1.20448 2.61739,0.76945 5.21561,1.59218 7.71384,2.70205 4.32031,1.66299 8.62564,3.36072 12.90431,5.12968 4.43668,1.81743 8.86715,3.64702 13.18093,5.74583 3.57116,1.6815 7.09369,3.46065 10.61579,5.24151 1.90255,1.0849 3.77232,2.29001 5.29851,3.87831 1.38005,1.75485 2.81122,3.46337 4.05259,5.32387 1.4688,2.26535 2.93973,4.52487 4.31123,6.852 1.35802,2.46715 2.56226,5.02079 4.0232,7.43161 1.16257,2.20223 2.34674,4.37537 3.36361,6.6492 1.42559,2.67333 2.60731,5.45396 3.62076,8.3095 1.0538,2.59818 1.79989,5.30277 2.48292,8.01994 0.57949,3.43376 0.83659,6.88503 0.6951,10.37152 -0.007,3.81865 0.0516,7.65719 -0.42856,11.45285 -0.61436,3.47243 -1.79649,6.69576 -3.56973,9.75641 -2.17934,4.05186 -4.80042,7.84881 -7.67303,11.44109 -2.49987,3.30953 -5.34683,6.30404 -8.49574,9.0085 -2.88314,2.4447 -5.92131,4.69176 -9.051,6.81146 -3.66166,2.54324 -7.51284,4.80182 -11.50541,6.78598 -3.33837,1.52934 -6.62187,3.18776 -10.0635,4.47762 -5.35891,2.25834 -10.71096,4.53149 -16.12324,6.66167 -4.16838,1.60291 -8.39422,3.10024 -12.75592,4.08838 -5.22821,1.27434 -10.43384,2.66495 -15.55964,4.30625 -3.87038,1.30954 -7.6993,2.73329 -11.57907,4.01535 -3.94877,1.14764 -7.94351,2.14182 -11.95675,3.03668 -4.3533,0.90936 -8.70328,1.99679 -13.17265,2.11456 -4.5015,0.17563 -9.00825,-0.0481 -13.51019,-0.1289 -6.23343,-0.18985 -12.46401,-0.52404 -18.70052,-0.56613 -5.38733,-0.0595 -10.77661,-0.17162 -16.14936,-0.60413 -5.72141,-0.46048 -11.43244,-1.04884 -17.16513,-1.36394 -5.05077,-0.47328 -10.05396,-1.27799 -15.06123,-2.08192 -4.9933,-0.75018 -9.97923,-1.57623 -14.92259,-2.60869 -3.71165,-0.7848 -7.40623,-1.643 -11.14638,-2.28722 -3.16292,-0.60389 -6.28391,-1.42172 -9.37118,-2.33413 -2.6031,-0.99379 -5.17629,-2.07965 -7.72348,-3.20756 -2.46591,-1.04475 -4.87239,-2.16605 -7.05943,-3.73629 -2.21375,-1.39087 -4.52907,-2.65478 -6.49017,-4.40533 -1.34157,-1.30717 -2.56506,-2.71203 -3.53474,-4.32277 -1.05877,-1.85002 -2.13312,-3.69605 -2.72768,-5.7619 -0.73879,-1.93782 -1.47246,-3.91353 -1.82013,-5.96283 -0.34741,-2.1869 -0.48704,-4.40805 -0.71909,-6.60953 -0.001,-2.70802 -0.012,-5.4162 0.0168,-8.1241 0.0468,-2.99163 0.13245,-5.98616 0.47813,-8.96097 0.44705,-3.65638 0.93187,-7.31448 1.59517,-10.93772 0.86583,-3.97745 1.70759,-7.97949 3.23747,-11.7685 1.56494,-4.02476 3.05042,-8.08065 5.04613,-11.92002 1.67789,-3.48496 3.51553,-6.87738 5.77883,-10.02407 2.17185,-2.88481 4.27349,-5.83175 6.85247,-8.37853 2.63079,-2.77785 5.35719,-5.44609 8.2296,-7.97602 3.29283,-2.79362 6.54342,-5.63845 9.93881,-8.3085 3.0089,-2.48763 6.06378,-4.91172 9.33256,-7.05568 2.70682,-1.76242 5.44661,-3.47232 8.10945,-5.30163 3.19638,-2.34229 6.67132,-4.27281 10.14774,-6.16528 3.44451,-1.69824 6.94531,-3.27807 10.53645,-4.64385 3.70799,-1.64059 7.50036,-3.13022 11.3892,-4.28294 4.46033,-1.38411 9.01501,-2.43698 13.65693,-3.00478 5.81534,-0.74076 11.61797,-1.56542 17.42813,-2.33877 6.89681,-0.72392 13.80039,-1.39078 20.72663,-1.7659 4.95609,-0.1953 9.91015,-0.26733 14.87023,-0.23512 0,0 -2.40741,1.74909 -2.40741,1.74909 z"
       inkscape:connector-curvature="0"
       transform="translate(0,308.2677)" />
    <path
       style="fill:#000000;fill-opacity:1;fill-rule:nonzero;stroke:none"
       d="M 236.34375 480.625 C 234.56373 480.6254 232.77869 480.64035 231 480.71875 C 229.10128 480.82066 227.21821 480.9826 225.34375 481.3125 C 223.41817 481.5922 221.43774 481.5564 219.53125 482 C 216.7705 482.53583 214.0298 483.12913 211.25 483.5625 L 208.875 485.3125 C 211.66464 484.88833 214.41892 484.32031 217.1875 483.78125 C 219.08802 483.35063 221.04435 483.33291 222.96875 483.09375 C 224.84047 482.77119 226.73025 482.57855 228.625 482.46875 C 230.40102 482.38175 232.15985 482.379 233.9375 482.375 C 235.936 482.372 237.93901 482.372 239.9375 482.375 C 241.49854 482.55892 243.05896 482.85138 244.625 483 C 246.62173 483.06099 248.60113 483.2802 250.5625 483.65625 C 252.50217 484.12425 254.48216 484.40835 256.46875 484.5625 C 258.47122 484.64925 260.47493 484.6203 262.46875 484.84375 C 264.28599 485.13938 266.11826 485.17894 267.9375 485.4375 C 269.74039 485.83953 271.56603 485.9707 273.40625 486.0625 C 275.53012 486.1403 277.65621 486.15125 279.78125 486.15625 C 281.56189 486.15925 283.34437 486.15825 285.125 486.15625 C 287.17623 485.975 289.22634 485.67772 291.28125 485.53125 C 293.06212 485.47072 294.79826 485.09564 296.5625 484.875 C 298.09003 484.72183 299.60953 484.72534 301.125 484.46875 C 303.31421 484.08031 305.56404 483.9989 307.78125 483.9375 C 310.73823 483.8788 313.69882 483.874 316.65625 483.875 C 319.34209 483.84877 322.01166 483.85142 324.6875 484.09375 C 327.8173 484.44623 330.95574 484.4651 334.09375 484.6875 C 337.40267 485.02122 340.71399 485.54873 344 486.0625 C 347.80585 486.6794 351.66517 486.66086 355.5 486.9375 C 358.54479 487.1045 361.54306 487.64198 364.5625 488.03125 C 366.72482 488.31076 368.88503 488.36915 371.0625 488.40625 C 373.16771 488.42715 375.26972 488.40825 377.375 488.40625 C 379.57893 488.40325 381.79606 488.40665 384 488.40625 C 386.33124 488.4065 388.66876 488.40567 391 488.40625 C 393.30792 488.40739 395.59833 488.40725 397.90625 488.40625 C 400.80432 488.40425 403.72693 488.40725 406.625 488.40625 C 410.07232 488.30078 413.50058 488.48721 416.9375 488.71875 C 420.33694 488.89701 423.72023 489.19848 427.09375 489.65625 C 430.64876 490.24947 434.24755 490.43725 437.84375 490.5625 C 441.64306 490.6955 445.46557 490.91009 449.25 491.28125 C 452.92794 491.62551 456.575 492.03234 460.25 492.40625 C 463.98983 492.76484 467.74594 492.85405 471.5 492.90625 C 474.5555 492.94185 477.63184 492.9395 480.6875 492.9375 C 482.93657 492.9385 485.18843 492.93815 487.4375 492.9375 C 489.74434 492.78411 492.03132 492.49414 494.3125 492.125 C 497.02604 491.52629 499.71574 490.8753 502.4375 490.3125 C 505.23845 489.6809 508.0198 489.05033 510.875 488.71875 C 513.53868 488.48387 516.17824 488.0962 518.84375 487.875 C 521.56781 487.61003 524.26432 487.12279 526.96875 486.71875 C 529.63173 486.32033 532.34368 486.21225 535.03125 486.15625 C 538.03577 486.11285 541.02651 486.12424 544.03125 486.125 C 547.39456 486.10007 550.76998 486.09472 554.125 486.34375 C 557.13995 486.4896 560.09586 486.96311 563.09375 487.28125 C 566.15609 487.56831 569.23922 487.62105 572.3125 487.65625 C 574.89817 487.67785 577.47677 487.65925 580.0625 487.65625 C 582.63658 487.65129 585.20716 487.65661 587.78125 487.65625 C 589.96418 487.6566 592.16082 487.65925 594.34375 487.65625 C 596.61958 487.65736 598.91167 487.65717 601.1875 487.65625 C 603.88741 487.62556 606.55945 487.60602 609.25 487.84375 C 611.6928 488.1265 614.13669 488.27185 616.59375 488.34375 C 619.33424 488.40795 622.10271 488.40675 624.84375 488.40625 C 628.44962 488.30127 632.02853 488.64819 635.625 488.84375 C 639.15345 489.16613 642.68121 489.53861 646.21875 489.75 C 649.23129 489.90157 652.23446 489.89825 655.25 489.90625 C 658.42352 489.90825 661.60773 489.9067 664.78125 489.90625 C 667.76635 489.73957 670.7527 489.46493 673.71875 489.09375 C 677.11664 488.76044 680.50697 488.45009 683.90625 488.125 C 686.71683 487.8364 689.44269 487.11849 692.21875 486.625 C 694.49588 486.35858 696.75492 485.99353 699.03125 485.71875 C 700.91461 485.33863 702.80481 484.99422 704.71875 484.8125 C 706.85692 484.65422 709.01358 484.633 711.15625 484.625 C 713.20189 484.624 715.23561 484.65325 717.28125 484.65625 C 719.21162 484.53556 721.09522 484.84036 723 485.09375 C 724.77035 485.32181 726.56113 485.3455 728.34375 485.375 C 730.3609 485.3988 732.389 485.40925 734.40625 485.40625 C 736.464 485.40506 738.536 485.40659 740.59375 485.40625 C 742.52376 485.40499 744.44499 485.40725 746.375 485.40625 C 748.24279 485.44196 750.08474 485.06306 751.9375 484.875 C 753.62639 484.71684 755.30492 484.67635 757 484.65625 C 758.63158 484.66985 760.27989 484.57197 761.90625 484.71875 C 763.53231 484.97317 765.17051 485.19664 766.8125 485.3125 C 768.40511 485.37124 769.98243 485.3734 771.5625 485.59375 C 773.31812 485.86644 775.02018 486.37062 776.78125 486.625 C 778.46125 486.83985 780.15242 486.88435 781.84375 486.90625 C 783.43488 486.91454 785.00261 486.90856 786.59375 486.90625 C 784.12563 488.00711 781.6918 489.25726 779.8125 491.21875 C 778.55961 492.30431 777.77 493.78642 776.78125 495.09375 C 775.89704 496.42166 775.19581 497.89505 774.53125 499.34375 C 773.76428 500.9812 773.12472 502.62932 772.46875 504.3125 C 772.03589 505.77941 771.3635 507.17837 770.96875 508.65625 C 770.73184 510.29271 770.37409 511.89059 770.15625 513.53125 C 769.9465 515.28948 769.87125 517.07504 769.84375 518.84375 C 769.802 520.48829 769.75234 522.08513 770.15625 523.6875 C 770.73025 525.42703 771.88503 526.8442 773.1875 528.09375 C 774.54288 529.44902 776.12985 530.51156 777.78125 531.46875 C 777.94553 531.59155 778.11115 531.70071 778.28125 531.8125 C 777.87472 531.81273 777.46903 531.81225 777.0625 531.8125 C 775.04274 531.8135 773.01975 531.8155 771 531.8125 C 769.19048 531.8115 767.37201 531.8135 765.5625 531.8125 C 764.02829 531.8121 762.50136 531.7954 760.96875 531.875 C 759.3917 531.97964 757.82339 532.17499 756.28125 532.53125 C 754.43024 532.86674 752.54375 532.89474 750.6875 533.21875 C 748.783 533.42683 746.85068 533.2654 744.9375 533.3125 C 743.02601 533.311 741.09847 533.33285 739.1875 533.28125 C 736.74998 533.20116 734.3348 533.00506 731.90625 532.78125 C 728.75199 532.53259 725.60112 532.5185 722.4375 532.5625 C 719.23102 532.5615 716.01899 532.5645 712.8125 532.5625 C 710.02618 532.56167 707.25508 532.5635 704.46875 532.5625 C 702.01317 532.5615 699.54933 532.5615 697.09375 532.5625 C 694.92599 532.5605 692.76151 532.5615 690.59375 532.5625 C 687.68889 532.56459 684.77986 532.5675 681.875 532.5625 C 678.86589 532.5607 675.85278 532.5383 672.84375 532.5625 C 668.71114 532.60171 664.5661 532.67421 660.4375 532.875 C 657.03738 533.06889 653.65961 533.4099 650.25 533.3125 C 646.78279 533.3125 643.31096 533.3105 639.84375 533.3125 C 635.2793 533.3111 630.72068 533.32715 626.15625 533.34375 C 622.19776 533.3663 618.23416 533.36029 614.28125 533.59375 C 611.17144 533.81213 608.06118 534.19228 604.9375 534.0625 C 601.79995 534.05633 598.66707 534.05444 595.53125 533.9375 C 592.35566 533.79607 589.19152 533.5284 586.03125 533.1875 C 582.42211 533.01957 578.81507 532.71928 575.21875 532.375 C 571.72827 532.2005 568.24543 531.8229 564.75 531.8125 C 561.7589 531.8105 558.77235 531.81151 555.78125 531.8125 C 552.23544 531.815 548.70195 531.81125 545.15625 531.84375 C 541.93548 531.88293 538.70976 531.92112 535.5 532.21875 C 532.98619 532.45124 530.46612 532.67492 527.9375 532.5625 C 525.59766 532.56771 523.27427 532.55418 520.9375 532.6875 C 518.60556 532.85105 516.29408 533.20498 514 533.65625 C 511.50029 533.94808 509.01754 534.45522 506.5 534.59375 C 503.47208 534.87547 500.44474 534.83175 497.40625 534.90625 C 494.01946 535.03089 490.63406 535.26112 487.28125 535.78125 C 483.60498 536.22674 479.89055 536.3859 476.1875 536.3125 C 472.39247 536.3115 468.60753 536.34368 464.8125 536.34375 C 460.61421 536.34404 456.41704 536.34475 452.21875 536.34375 C 448.31634 536.34375 444.40241 536.33775 440.5 536.34375 C 435.83144 536.34855 431.16848 536.3463 426.5 536.3125 C 422.0213 536.26752 417.53378 536.221 413.0625 535.9375 C 409.33987 535.69338 405.63998 535.44245 401.90625 535.5625 C 398.73507 535.5625 395.57743 535.5675 392.40625 535.5625 C 389.79088 535.5525 387.14464 535.5517 384.53125 535.4375 C 381.975 535.30683 379.45267 535.0658 376.90625 534.8125 C 374.27477 534.8145 371.63148 534.81202 369 534.8125 C 366.12736 534.81249 363.24764 534.81301 360.375 534.8125 C 357.73653 534.80946 355.10722 534.81281 352.46875 534.8125 C 349.49558 534.81568 346.53567 534.81298 343.5625 534.8125 C 340.33106 534.8125 337.07519 534.81263 333.84375 534.8125 C 329.86688 534.811 325.91425 534.80775 321.9375 534.84375 C 318.5836 534.8892 315.20816 534.92941 311.875 535.34375 C 308.80054 535.72677 305.73062 536.2352 302.625 536.3125 C 299.95769 536.3125 297.29231 536.31157 294.625 536.3125 C 292.08369 536.3135 289.54132 536.3105 287 536.3125 C 284.87505 536.31098 282.74996 536.3155 280.625 536.3125 C 278.05073 536.30483 275.47905 536.2816 272.90625 536.1875 C 269.34066 536.04916 265.7789 535.79654 262.21875 535.5625 C 259.26782 535.5632 256.32588 535.5808 253.375 535.5625 C 250.48677 535.53407 247.6011 535.48205 244.71875 535.28125 C 241.77015 535.06031 238.83719 534.71935 235.875 534.78125 C 232.66181 534.70558 229.45434 534.53711 226.25 534.28125 C 222.98511 534.04892 219.7105 534.028 216.4375 534.0625 L 214.03125 535.8125 C 217.30894 535.75952 220.57323 535.77766 223.84375 536 C 227.04781 536.25317 230.25605 536.4181 233.46875 536.5 C 236.42786 536.4435 239.36715 536.77472 242.3125 537 C 245.19721 537.20625 248.10902 537.2808 251 537.3125 C 253.95381 537.3342 256.88988 537.3145 259.84375 537.3125 C 263.40456 537.51456 266.96719 537.75873 270.53125 537.90625 C 273.09807 538.00808 275.65017 538.0468 278.21875 538.0625 C 280.34683 538.0685 282.49692 538.0665 284.625 538.0625 C 287.16605 538.06112 289.70895 538.06166 292.25 538.0625 C 294.9195 538.0625 297.5805 538.06312 300.25 538.0625 C 303.36292 537.99713 306.41969 537.52178 309.5 537.125 C 312.82958 536.70054 316.21098 536.6164 319.5625 536.5625 C 323.53854 536.5193 327.49255 536.52725 331.46875 536.53125 C 334.69554 536.53675 337.92946 536.5605 341.15625 536.5625 C 344.12853 536.56383 347.12148 536.5595 350.09375 536.5625 C 352.7323 536.56219 355.36145 536.5655 358 536.5625 C 360.87328 536.56197 363.75172 536.56251 366.625 536.5625 C 369.25382 536.5635 371.87119 536.5605 374.5 536.5625 C 377.04764 536.77626 379.60238 537.01792 382.15625 537.15625 C 384.77198 537.27548 387.382 537.3045 390 537.3125 C 393.17663 537.3165 396.35462 537.3165 399.53125 537.3125 C 403.26149 537.2015 406.96764 537.3836 410.6875 537.625 C 415.16667 537.90763 419.66964 537.98755 424.15625 538.03125 C 428.82227 538.06509 433.49014 538.0595 438.15625 538.0625 C 442.0576 538.0645 445.94241 538.0635 449.84375 538.0625 C 454.04295 538.05984 458.23831 538.06229 462.4375 538.0625 C 466.22947 538.0625 470.02053 538.06286 473.8125 538.0625 C 477.52183 538.13474 481.25213 537.94979 484.9375 537.53125 C 488.28778 537.02379 491.64835 536.78863 495.03125 536.65625 C 498.0674 536.57245 501.09752 536.60695 504.125 536.34375 C 506.64176 536.20662 509.12821 535.71396 511.625 535.40625 C 513.92081 534.98547 516.20381 534.65016 518.53125 534.46875 C 520.86317 534.32023 523.19563 534.28925 525.53125 534.28125 C 528.06598 534.37965 530.60419 534.2025 533.125 533.96875 C 536.33473 533.66294 539.55968 533.6059 542.78125 533.5625 C 546.32348 533.5273 549.86389 533.52625 553.40625 533.53125 C 556.39738 533.53592 559.38386 533.53139 562.375 533.53125 C 565.87037 533.52177 569.35442 533.91603 572.84375 534.09375 C 576.44047 534.41519 580.01784 534.72816 583.625 534.90625 C 586.78697 535.22779 589.9497 535.50853 593.125 535.65625 C 596.26234 535.78261 599.42315 535.8045 602.5625 535.8125 C 605.69008 535.9382 608.79287 535.6032 611.90625 535.375 C 615.86146 535.12284 619.81955 535.0926 623.78125 535.0625 C 628.34456 535.0383 632.90541 535.02925 637.46875 535.03125 C 640.92953 535.03695 644.38298 535.0605 647.84375 535.0625 C 651.26071 535.16406 654.68713 534.79663 658.09375 534.59375 C 662.21748 534.37859 666.34029 534.342 670.46875 534.3125 C 673.47426 534.2968 676.46321 534.27925 679.46875 534.28125 C 682.37117 534.27925 685.28508 534.3095 688.1875 534.3125 C 690.35391 534.31486 692.52109 534.3135 694.6875 534.3125 C 697.14613 534.3145 699.60387 534.3135 702.0625 534.3125 C 704.84868 534.31165 707.65133 534.3135 710.4375 534.3125 C 713.64728 534.3105 716.85273 534.31287 720.0625 534.3125 C 723.21925 534.28613 726.35141 534.26133 729.5 534.5 C 731.92564 534.72273 734.34696 534.9102 736.78125 535 C 738.69359 535.0596 740.61819 535.06264 742.53125 535.0625 C 744.44985 535.0289 746.3677 535.1275 748.28125 534.96875 C 750.14438 534.67552 752.04402 534.59843 753.90625 534.3125 C 755.44611 533.977 756.99195 533.77482 758.5625 533.65625 C 760.0914 533.56275 761.62518 533.5675 763.15625 533.5625 C 764.96654 533.5625 766.78346 533.5605 768.59375 533.5625 C 770.61386 533.5625 772.63614 533.5615 774.65625 533.5625 C 776.31172 533.5636 777.96953 533.56219 779.625 533.5625 L 780.375 533.5625 L 780.9375 533.15625 C 781.27893 533.29449 781.62316 533.43417 781.96875 533.5625 C 782.96132 534.09563 783.96904 534.48476 785.0625 534.75 L 787.53125 533.0625 C 786.43884 532.82524 785.41097 532.43342 784.4375 531.875 C 782.97674 531.34681 781.53565 530.81819 780.28125 529.875 C 778.64006 528.94433 777.08918 527.87123 775.75 526.53125 C 774.48004 525.32738 773.32319 523.97646 772.78125 522.28125 C 772.40463 520.70123 772.4718 519.08502 772.5 517.46875 C 772.52859 515.71119 772.59224 513.96469 772.8125 512.21875 C 773.04523 510.59059 773.38215 508.9952 773.65625 507.375 C 774.07634 505.91722 774.71415 504.51429 775.15625 503.0625 C 775.79909 501.37915 776.48997 499.72855 777.25 498.09375 C 777.92502 496.66335 778.61779 495.23337 779.53125 493.9375 C 780.49732 492.62307 781.31227 491.17309 782.5625 490.09375 C 782.98536 489.67346 783.24918 489.37198 783.6875 489.03125 C 784.04285 488.86095 784.40525 488.6732 784.59375 488.5625 C 786.35989 487.94477 788.14493 487.44098 789.9375 486.90625 C 790.48761 486.90213 791.04666 486.90287 791.59375 486.84375 L 793.96875 485.0625 C 793.78186 485.09308 793.59422 485.07572 793.40625 485.09375 L 794.125 484.5625 C 793.45763 484.76799 792.79494 484.95894 792.125 485.15625 C 791.22797 485.15555 790.33072 485.11511 789.4375 485.15625 C 787.71139 485.16022 785.97611 485.16625 784.25 485.15625 C 782.56529 485.14006 780.86274 485.10343 779.1875 484.90625 C 777.42226 484.66855 775.75114 484.1733 774 483.875 C 772.41566 483.63996 770.81995 483.5881 769.21875 483.5625 C 767.57736 483.45869 765.96566 483.27488 764.34375 483 C 762.71469 482.81028 761.04414 482.92605 759.40625 482.90625 C 757.70477 482.92334 756.00855 482.9451 754.3125 483.09375 C 752.46219 483.26991 750.64203 483.66125 748.78125 483.65625 C 746.85112 483.65477 744.89888 483.65661 742.96875 483.65625 C 740.90938 483.65725 738.87187 483.65325 736.8125 483.65625 C 734.79824 483.65605 732.76419 483.67525 730.75 483.65625 C 728.97523 483.62932 727.20144 483.59026 725.4375 483.375 C 723.52319 483.12746 721.6275 482.78235 719.6875 482.90625 C 717.63958 482.90425 715.57917 482.90325 713.53125 482.90625 C 711.38612 482.91044 709.23552 482.89425 707.09375 483.03125 C 705.17469 483.19875 703.28455 483.50764 701.40625 483.9375 C 699.1249 484.20595 696.87746 484.59753 694.59375 484.84375 C 691.8125 485.32841 689.0598 486.05714 686.25 486.375 C 682.85062 486.69529 679.46204 487.03158 676.0625 487.34375 C 673.10283 487.71303 670.13349 487.99489 667.15625 488.1875 C 663.98242 488.1915 660.83009 488.1915 657.65625 488.1875 C 654.6444 488.18105 651.63426 488.17183 648.625 488.03125 C 645.08094 487.83486 641.53253 487.46496 638 487.125 C 634.40525 486.92757 630.82295 486.5883 627.21875 486.6875 C 624.48233 486.6859 621.73598 486.6808 619 486.625 C 616.54559 486.55624 614.0965 486.40866 611.65625 486.125 C 608.9619 485.87687 606.26776 485.86615 603.5625 485.90625 C 601.28752 485.90531 599.02498 485.90542 596.75 485.90625 C 594.56594 485.90425 592.37156 485.90525 590.1875 485.90625 C 587.61314 485.90725 585.04312 485.90425 582.46875 485.90625 C 579.88137 485.90825 577.3061 485.92135 574.71875 485.90625 C 571.6516 485.8787 568.55707 485.86823 565.5 485.59375 C 562.49681 485.28506 559.51932 484.76828 556.5 484.625 C 553.14094 484.36639 549.77471 484.37545 546.40625 484.40625 C 543.40309 484.40155 540.40929 484.4043 537.40625 484.4375 C 534.71153 484.49106 532.01528 484.54709 529.34375 484.9375 C 526.64237 485.32959 523.96872 485.82218 521.25 486.09375 C 518.57944 486.30868 515.91729 486.69876 513.25 486.9375 C 510.38529 487.24755 507.61587 487.87857 504.8125 488.53125 C 502.09729 489.09951 499.3869 489.70412 496.6875 490.34375 C 494.41454 490.71106 492.14024 491.00385 489.84375 491.1875 C 487.59194 491.1885 485.31429 491.1805 483.0625 491.1875 C 480.0026 491.1917 476.96607 491.18395 473.90625 491.15625 C 470.15761 491.10905 466.3914 491.03619 462.65625 490.6875 C 458.98066 490.3196 455.30357 489.93174 451.625 489.59375 C 447.83747 489.208 444.02178 488.98691 440.21875 488.84375 C 436.63181 488.72373 433.0459 488.56107 429.5 487.96875 C 426.12248 487.49379 422.7182 487.20612 419.3125 487.03125 C 415.87458 486.79728 412.44909 486.54224 409 486.65625 C 406.10544 486.65525 403.20706 486.65825 400.3125 486.65625 C 398.00541 486.6551 395.71333 486.65548 393.40625 486.65625 C 391.07446 486.65679 388.73805 486.65525 386.40625 486.65625 C 384.20455 486.65725 381.98295 486.65225 379.78125 486.65625 C 377.67648 486.66065 375.57347 486.67495 373.46875 486.65625 C 371.29549 486.62562 369.12848 486.5772 366.96875 486.3125 C 363.93881 485.93618 360.92872 485.3839 357.875 485.21875 C 354.04713 484.93258 350.20713 484.98443 346.40625 484.375 C 343.11473 483.86218 339.8129 483.31299 336.5 482.96875 C 333.36788 482.72759 330.21878 482.73126 327.09375 482.375 C 324.4114 482.11977 321.7254 482.11545 319.03125 482.15625 C 316.07301 482.15835 313.11417 482.137 310.15625 482.1875 C 307.93765 482.23966 305.7254 482.29246 303.53125 482.65625 C 302.01798 482.93231 300.50108 482.97744 298.96875 483.09375 C 297.2018 483.30089 295.43526 483.70485 293.65625 483.78125 C 291.60416 483.91838 289.57385 484.17161 287.53125 484.40625 C 285.75171 484.40725 283.96705 484.40225 282.1875 484.40625 C 280.06353 484.40545 277.9667 484.41785 275.84375 484.34375 C 274.01325 484.25893 272.16644 484.13144 270.375 483.71875 C 268.55744 483.4166 266.69539 483.43758 264.875 483.125 C 262.88052 482.8898 260.88113 482.8683 258.875 482.8125 C 256.89424 482.67458 254.93192 482.44241 253 481.96875 C 251.04058 481.5661 249.03112 481.33855 247.03125 481.28125 C 245.45664 481.14422 243.90536 480.89388 242.34375 480.65625 C 240.34436 480.65525 238.34313 480.628 236.34375 480.625 z M 212.40625 485.375 L 209.6875 486.625 C 208.6018 488.87663 207.53241 491.1226 206.84375 493.53125 C 206.43647 495.2232 205.9851 496.86632 205.75 498.59375 C 205.56963 500.308 205.5685 502.05934 205.5625 503.78125 C 205.5605 505.57464 205.5575 507.36287 205.5625 509.15625 C 205.5645 510.99821 205.56283 512.84555 205.5625 514.6875 C 205.5625 516.34942 205.56304 517.99433 205.5625 519.65625 C 205.71406 521.36266 206.18436 523.02337 206.5625 524.6875 C 207.01004 526.41047 207.60039 528.06511 208.25 529.71875 C 208.77997 530.8989 208.53041 530.30142 209.03125 531.46875 L 211.625 530 C 211.12247 528.83369 211.36645 529.41979 210.84375 528.25 C 210.20034 526.61002 209.60051 524.98912 209.15625 523.28125 C 208.77908 521.63864 208.3479 519.99992 208.21875 518.3125 L 208.21875 513.3125 C 208.21775 511.47026 208.22175 509.62349 208.21875 507.78125 C 208.21775 505.98863 208.21275 504.19887 208.21875 502.40625 C 208.23093 500.69503 208.2378 498.98329 208.4375 497.28125 C 208.68484 495.57114 209.12639 493.92743 209.53125 492.25 C 210.23589 489.85854 211.30527 487.60685 212.40625 485.375 z M 794.65625 486.78125 L 792.0625 488.25 C 793.21001 490.66924 794.06075 493.20107 795.125 495.65625 C 795.97074 497.86974 797.14979 499.94963 797.84375 502.21875 C 798.35724 504.11525 798.42605 506.07929 798.46875 508.03125 C 798.54255 509.90302 798.41196 511.78167 797.8125 513.5625 C 797.19381 515.50947 796.29501 517.34819 795.5625 519.25 C 794.84144 520.97624 793.8211 522.56437 792.75 524.09375 C 791.54483 525.67068 790.23587 527.18224 788.75 528.5 C 787.64364 529.56775 786.51577 530.6291 785.34375 531.625 L 788.09375 530.5 C 789.25872 529.49829 790.38426 528.43072 791.5 527.375 C 792.96377 526.0183 794.28483 524.51372 795.46875 522.90625 C 796.52979 521.3527 797.55208 519.75304 798.25 518 C 798.99756 516.09967 799.88516 514.26488 800.5 512.3125 C 801.05205 510.48705 801.17925 508.55934 801.09375 506.65625 C 801.04222 504.67947 800.97326 502.6981 800.4375 500.78125 C 799.72908 498.50653 798.57187 496.4089 797.71875 494.1875 C 796.65393 491.72579 795.77744 489.21899 794.65625 486.78125 z "
       transform="translate(0,308.2677)"
       id="path3010" />
  </g>
</svg>
