<?xml version="1.0" encoding="UTF-8" standalone="no"?>
<!-- Created with Inkscape (http://www.inkscape.org/) -->

<svg
   xmlns:dc="http://purl.org/dc/elements/1.1/"
   xmlns:cc="http://creativecommons.org/ns#"
   xmlns:rdf="http://www.w3.org/1999/02/22-rdf-syntax-ns#"
   xmlns:svg="http://www.w3.org/2000/svg"
   xmlns="http://www.w3.org/2000/svg"
   xmlns:sodipodi="http://sodipodi.sourceforge.net/DTD/sodipodi-0.dtd"
   xmlns:inkscape="http://www.inkscape.org/namespaces/inkscape"
   width="1052.3622"
   height="744.09448"
   id="svg2"
   version="1.1"
   inkscape:version="0.48.2 r9819"
   sodipodi:docname="Journey_02_BCs.svg"
   inkscape:export-filename="D:\CQRS Resources\Source Code\cqrs-journey-doc\images\Journey_02_BCs.png"
   inkscape:export-xdpi="90"
   inkscape:export-ydpi="90">
  <title
     id="title3798">Bounded Contexts</title>
  <defs
     id="defs4" />
  <sodipodi:namedview
     id="base"
     pagecolor="#ffffff"
     bordercolor="#666666"
     borderopacity="1.0"
     inkscape:pageopacity="0.0"
     inkscape:pageshadow="2"
     inkscape:zoom="1.0334709"
     inkscape:cx="440.0238"
     inkscape:cy="373.01486"
     inkscape:document-units="px"
     inkscape:current-layer="versionlayer"
     showgrid="false"
     inkscape:window-width="1600"
     inkscape:window-height="1178"
     inkscape:window-x="3512"
     inkscape:window-y="-8"
     inkscape:window-maximized="1" />
  <metadata
     id="metadata7">
    <rdf:RDF>
      <cc:Work
         rdf:about="">
        <dc:format>image/svg+xml</dc:format>
        <dc:type
           rdf:resource="http://purl.org/dc/dcmitype/StillImage" />
        <dc:title>Bounded Contexts</dc:title>
      </cc:Work>
    </rdf:RDF>
  </metadata>
  <g
     inkscape:label="Template"
     inkscape:groupmode="layer"
     id="layer1"
     transform="translate(0,-308.2677)"
     style="display:none">
    <rect
       style="fill:none;stroke:#800000;stroke-width:1px;stroke-linecap:butt;stroke-linejoin:miter;stroke-opacity:1"
       id="rect3754"
       width="965.67786"
       height="629.91614"
       x="38.704525"
       y="48.380657"
       transform="translate(0,308.2677)" />
    <path
       style="fill:none;stroke:#800000;stroke-width:1px;stroke-linecap:butt;stroke-linejoin:miter;stroke-opacity:1"
       d="M 37.736911,360.91969 1004.3824,355.11401"
       id="path3756"
       inkscape:connector-curvature="0"
       transform="translate(0,308.2677)" />
    <path
       style="fill:none;stroke:#800000;stroke-width:1px;stroke-linecap:butt;stroke-linejoin:miter;stroke-opacity:1"
       d="m 341.56743,360.91969 1.93522,317.3771"
       id="path3758"
       inkscape:connector-curvature="0"
       transform="translate(0,308.2677)" />
    <path
       style="fill:none;stroke:#800000;stroke-width:1px;stroke-linecap:butt;stroke-linejoin:miter;stroke-opacity:1"
       d="m 708.2928,357.04924 0.96761,322.21516"
       id="path3760"
       inkscape:connector-curvature="0"
       transform="translate(0,308.2677)" />
    <rect
       style="fill:none;stroke:#000000"
       id="rect5412"
       width="217.71295"
       height="137.40106"
       x="385.11002"
       y="51.283489"
       transform="translate(0,308.2677)" />
    <path
       style="fill:none;stroke:#000000;stroke-width:1px;stroke-linecap:butt;stroke-linejoin:miter;stroke-opacity:1"
       d="m 494.4503,190.61978 0,167.39707"
       id="path5414"
       inkscape:connector-curvature="0"
       transform="translate(0,308.2677)" />
  </g>
  <g
     inkscape:groupmode="layer"
     id="layer2"
     inkscape:label="Drawing"
     style="display:inline">
    <text
       xml:space="preserve"
       style="font-size:40px;font-style:normal;font-variant:normal;font-weight:normal;font-stretch:normal;line-height:125%;letter-spacing:0px;word-spacing:0px;fill:#000000;fill-opacity:1;stroke:none;font-family:Segoe Print;-inkscape-font-specification:Segoe Print"
       x="73.538597"
       y="104.50222"
       id="text3800"
       sodipodi:linespacing="125%"><tspan
         sodipodi:role="line"
         id="tspan3802"
         x="73.538597"
         y="104.50222">Conference</tspan><tspan
         sodipodi:role="line"
         x="73.538597"
         y="154.50223"
         id="tspan3804">Management</tspan><tspan
         sodipodi:role="line"
         x="73.538597"
         y="204.50223"
         id="tspan3806">(CRUD)</tspan></text>
    <text
       xml:space="preserve"
       style="font-size:40px;font-style:normal;font-variant:normal;font-weight:normal;font-stretch:normal;line-height:125%;letter-spacing:0px;word-spacing:0px;fill:#000000;fill-opacity:1;stroke:none;font-family:Segoe Print;-inkscape-font-specification:Segoe Print"
       x="707.3252"
       y="105.46983"
       id="text3808"
       sodipodi:linespacing="125%"><tspan
         sodipodi:role="line"
         id="tspan3810"
         x="707.3252"
         y="105.46983">Orders and</tspan><tspan
         sodipodi:role="line"
         x="707.3252"
         y="155.46983"
         id="tspan3812">Registrations</tspan><tspan
         sodipodi:role="line"
         x="707.3252"
         y="205.46983"
         id="tspan3814">(CQRS/ES)</tspan></text>
    <text
       xml:space="preserve"
       style="font-size:40px;font-style:normal;font-variant:normal;font-weight:normal;font-stretch:normal;line-height:125%;letter-spacing:0px;word-spacing:0px;fill:#000000;fill-opacity:1;stroke:none;font-family:Segoe Print;-inkscape-font-specification:Segoe Print"
       x="687.9729"
       y="558.31274"
       id="text3826"
       sodipodi:linespacing="125%"><tspan
         sodipodi:role="line"
         id="tspan3828"
         x="687.9729"
         y="558.31274">Payments</tspan><tspan
         sodipodi:role="line"
         x="687.9729"
         y="608.31274"
         id="tspan3830">(CQRS)</tspan></text>
    <path
       style="fill:#800000;stroke:none"
       d="m 779.67616,249.57276 -3.4375,4.10738 c 0.15399,8.11373 -0.0927,16.20581 -0.40625,24.27757 -0.21532,7.99273 -0.60793,15.9419 -0.9375,23.91083 -0.34273,8.14046 -0.46675,16.32269 -0.53125,24.49761 -0.0526,7.31963 -0.0323,14.61026 -0.0312,21.93048 0.002,7.75474 -5.2e-4,15.49599 0,23.25072 -2.4e-4,7.29354 -0.003,14.56361 0,21.85715 -0.0635,6.91061 0.13319,13.86647 -0.125,20.75695 -0.26248,6.74113 -0.73978,13.41537 -1.1875,20.09683 -0.37243,6.78552 -0.96335,13.44811 -1.3125,20.24353 -0.19286,5.80329 -0.21887,11.61453 -0.5625,17.38303 -0.12359,2.31558 -0.3108,4.60665 -0.5,6.89454 -0.0533,-0.16406 -0.10366,-0.35516 -0.15625,-0.51343 -1.68733,-6.03674 -3.22161,-12.35068 -5.25,-17.8231 -2.04472,-5.74083 -3.95914,-11.71663 -5.46875,-18.33653 l -3.3125,4.54746 c 1.55816,6.59171 3.51258,12.56129 5.5625,18.33653 2.02413,5.43674 3.51368,11.73477 5.1875,17.74976 0.46481,1.3763 0.90851,3.01092 1.59375,3.88734 0.36183,0.4628 0.74368,0.59346 1.15625,0.58677 -0.002,0.0237 0.002,0.0495 0,0.0732 l 0.0625,-0.0732 0.0312,0 c 1.93744,-0.1765 4.23956,-4.64362 5.28125,-7.40796 1.24707,-4.36032 2.30426,-8.99002 3.65625,-13.2023 1.51634,-4.88452 3.42459,-8.80984 5.375,-12.68888 l 0.96875,-1.61361 -3.53125,3.30057 -0.96875,1.68696 c -1.95419,3.90941 -3.82914,7.99875 -5.34375,12.90892 -0.52893,1.68809 -0.99555,3.44272 -1.46875,5.20758 0.20692,-2.48546 0.4011,-4.96423 0.53125,-7.48131 0.33232,-5.77345 0.3435,-11.58364 0.5625,-17.38303 0.35101,-6.78039 0.93274,-13.474 1.3125,-20.24353 0.45016,-6.6985 0.93333,-13.33563 1.1875,-20.09683 0.22218,-6.91524 0.047,-13.90021 0.0937,-20.8303 0.003,-7.29354 0.002,-14.56361 0,-21.85714 -10e-4,-7.75329 0.005,-15.49744 0,-23.25072 -0.003,-7.31701 -0.005,-14.61391 0.0312,-21.93049 0.0669,-8.14738 0.18531,-16.31152 0.53125,-24.42426 0.34243,-7.9714 0.7363,-15.9096 0.9375,-23.91083 0.30326,-8.11481 0.56335,-16.27064 0.46875,-24.42426 z"
       id="path3086"
       inkscape:connector-curvature="0" />
    <path
       style="fill:#800000;stroke:none"
       d="m 875.44266,252.83923 -2.1875,2.67482 c 0.20416,-0.46989 0.42466,-0.89488 0.625,-1.37562 l -3.5625,3.51547 c -2.14673,5.33404 -4.61425,9.7876 -7,14.44402 l -1.09375,2.52197 3.53125,-3.51548 1.09375,-2.44554 c 1.7469,-3.39941 3.51038,-6.79224 5.1875,-10.39358 10e-4,5.10532 0.0257,10.25579 0.0312,15.36109 0.006,7.57186 -0.0127,15.12593 0,22.69774 0.006,10.83194 0.0155,21.65057 -0.0937,32.47992 -0.11279,8.38918 -0.24875,16.80424 -0.90625,25.06686 -0.43072,6.28907 -0.65349,12.68336 -1.3125,18.87657 -0.62434,7.69332 -1.10497,15.41736 -1.625,23.15627 -0.41529,6.87776 -0.68801,13.85769 -0.90625,20.78715 -0.01,7.3261 -0.0151,14.60796 0.0312,21.9335 0.0733,6.96715 0.13678,13.96241 0.5625,20.86358 0.42582,5.75843 0.83331,11.51684 1.0625,17.3481 0.33898,7.15259 0.2992,14.35788 0.25,21.55138 l 3.4375,-4.27971 c 0.009,-7.21937 0.0288,-14.37426 -0.3125,-21.55138 -0.21011,-5.86024 -0.63995,-11.64242 -1.0625,-17.42453 -0.428,-6.85592 -0.5023,-13.78823 -0.5625,-20.71072 -0.0459,-7.31116 -0.0263,-14.62171 -0.0312,-21.9335 0.26779,-6.88684 0.50682,-13.79482 0.9375,-20.63431 0.52643,-7.71651 0.97848,-15.49339 1.625,-23.15627 0.68638,-6.19858 0.88983,-12.58024 1.34375,-18.87657 0.64162,-8.28781 0.7426,-16.7371 0.84375,-25.14328 0.0932,-10.84121 0.0833,-21.7133 0.0937,-32.55635 0.011,-7.58278 -0.002,-15.19134 0,-22.77415 0.002,-5.51828 -10e-4,-10.98917 0,-16.50745 z m 3.4375,0.61139 -3.28125,4.89109 c 1.70199,4.47905 2.9175,9.91516 4.25,15.0554 l 3.3125,-4.73824 c -1.35072,-5.19347 -2.6033,-10.59299 -4.28125,-15.20825 z"
       id="path3091"
       inkscape:connector-curvature="0" />
    <path
       style="fill:#800000;stroke:none"
       d="m 636.76454,111.03472 -7.80306,1.875 c 3.67385,2.66801 9.75598,4.50341 14.87687,6.625 0.37408,0.2051 0.89299,0.44065 1.3856,0.6875 -3.67808,0.14877 -7.34157,0.3171 -11.01181,0.5 -7.00098,0.30748 -14.14305,0.25524 -21.07558,0.84375 -6.73074,0.57949 -13.49966,0.97508 -20.20046,1.625 -10.97078,0.93949 -22.01374,1.67866 -33.03542,2.5 -12.46472,0.78874 -25.13686,0.97796 -37.70267,1.3125 -16.08381,0.31286 -32.16596,0.77231 -48.27693,0.59375 -12.01564,-0.006 -24.08266,-0.003 -36.0983,0 -12.59714,-0.003 -25.18059,-0.0136 -37.7756,-0.125 -9.55714,-0.11076 -19.08765,-0.25606 -28.58694,-0.75 l -7.29259,2.21875 c 9.56813,0.46753 19.18625,0.63643 28.80572,0.75 12.607,0.10516 25.16673,0.0867 37.7756,0.0937 12.021,0.005 24.07732,0.009 36.0983,0 16.12768,0.13282 32.24761,-0.24969 48.34985,-0.5625 12.57217,-0.29647 25.22269,-0.54107 37.70268,-1.28125 11.02368,-0.7932 22.05773,-1.56515 33.03541,-2.46875 6.67556,-0.64244 13.42137,-1.02303 20.12754,-1.59375 6.91753,-0.61357 13.99878,-0.62849 21.00265,-0.90625 4.90142,-0.23957 9.81625,-0.44282 14.73103,-0.625 l 4.66725,-1.46875 c 1.90506,1.01853 3.66387,2.23817 2.69826,3.375 -0.20256,0.23852 -0.676,0.41866 -1.02096,0.625 -0.5187,0.18525 -1.20572,0.41577 -1.969,0.6875 -3.24848,0.70911 -1.79278,0.42377 -5.68822,1.21875 l -2.91703,0.625 -6.92796,2.375 2.91704,-0.625 c 7.93221,-1.58605 16.64931,-3.11936 22.75287,-5.84375 2.50946,-2.31972 -1.58029,-4.0823 -4.95896,-5.78125 -5.04764,-2.08733 -11.02436,-3.85618 -14.58518,-6.5 z"
       id="path3109"
       inkscape:connector-curvature="0" />
    <path
       style="fill:#800000;stroke:none"
       d="m 402.00702,159.7853 c -9.56941,1.79822 -18.59896,4.11904 -26.07338,7.15625 -3.60194,1.67624 -9.65863,2.94895 -10.97826,5.28125 -0.21469,0.38142 -0.16346,0.79688 -0.22859,1.1875 2.02834,3.04418 9.19412,4.72636 15.17135,6.40625 6.21499,1.57551 11.91273,3.49647 18.37334,4.90625 3.27294,0.56086 1.58553,0.3009 4.87923,0.71875 l 7.70003,-2.15625 c -3.23347,-0.37408 -1.58387,-0.13874 -4.80299,-0.65625 -6.49865,-1.36189 -12.17231,-3.278 -18.37334,-4.84375 -5.64764,-1.58341 -12.7049,-3.20342 -14.56145,-6.09375 0.10393,-0.35401 0.0595,-0.72043 0.30495,-1.0625 1.60507,-2.23705 7.66498,-3.44307 11.13074,-5.125 2.7827,-1.08695 5.61655,-2.09263 8.76736,-3 0.77687,-0.22372 2.79858,-0.69642 3.27823,-0.84375 -0.0412,0.004 -0.0632,-0.0134 -0.15247,0 -0.21981,0.033 -0.3951,0.087 -0.60991,0.125 l 6.17528,-2 z m 141.65009,4.53125 c -9.56207,0.0269 -19.11384,0.22262 -28.66547,0.46875 -11.04086,0.30769 -22.04264,0.87811 -33.08726,1.1875 -9.40933,0.17196 -18.74336,0.70687 -28.1318,1 -6.99594,0.42502 -13.98612,0.84399 -21.04167,1.0625 -7.15259,0.0709 -14.23183,0.47472 -21.34663,0.75 -6.47222,0.24981 -12.94398,0.3338 -19.44067,0.375 -4.36491,0.015 -2.18619,0.0242 -6.48023,0.0312 l -7.54755,2.21875 c 4.30089,-0.007 2.18696,0.012 6.55646,0 6.51953,-0.0294 13.02171,-0.095 19.51691,-0.34375 7.10657,-0.26869 14.12878,-0.71495 21.27039,-0.78125 7.06944,-0.20862 14.13005,-0.57616 21.11791,-1.0625 9.40605,-0.29002 18.70896,-0.81618 28.1318,-1 11.05847,-0.30203 22.04164,-0.87736 33.08726,-1.21875 12.71215,-0.33501 25.44957,-0.59113 38.19521,-0.4375 9.0121,0.0184 18.0581,0.0383 27.06447,0.1875 9.73708,0.18195 19.40427,0.48269 29.12289,0.78125 8.08268,0.005 16.16391,-0.007 24.24366,0.0937 9.23404,0.12868 18.49472,0.29846 27.67438,0.75 l 7.62379,-2.1875 c -9.23184,-0.42044 -18.54941,-0.60454 -27.82685,-0.75 -8.08234,-0.11979 -16.15724,-0.121 -24.24366,-0.125 -9.7214,-0.24824 -19.39274,-0.58471 -29.12289,-0.78125 -9.02426,-0.16337 -18.10946,-0.18718 -27.14071,-0.1875 -3.19168,-0.0324 -6.34239,-0.0402 -9.52974,-0.0312 z"
       id="path3114"
       inkscape:connector-curvature="0" />
    <text
       xml:space="preserve"
       style="font-size:32px;font-style:normal;font-variant:normal;font-weight:normal;font-stretch:normal;line-height:125%;letter-spacing:0px;word-spacing:0px;fill:#800000;fill-opacity:1;stroke:none;font-family:Segoe Print;-inkscape-font-specification:Segoe Print"
       x="482.83896"
       y="91.923241"
       id="text3119"
       sodipodi:linespacing="125%"><tspan
         sodipodi:role="line"
         id="tspan3121"
         x="482.83896"
         y="91.923241">1</tspan></text>
    <text
       xml:space="preserve"
       style="font-size:32px;font-style:normal;font-variant:normal;font-weight:normal;font-stretch:normal;line-height:125%;letter-spacing:0px;word-spacing:0px;fill:#800000;fill-opacity:1;stroke:none;display:inline;font-family:Segoe Print;-inkscape-font-specification:Segoe Print"
       x="493.22687"
       y="210.88185"
       id="text3119-9"
       sodipodi:linespacing="125%"><tspan
         sodipodi:role="line"
         id="tspan3121-4"
         x="493.22687"
         y="210.88185">2</tspan></text>
    <text
       xml:space="preserve"
       style="font-size:32px;font-style:normal;font-variant:normal;font-weight:normal;font-stretch:normal;line-height:125%;letter-spacing:0px;word-spacing:0px;fill:#800000;fill-opacity:1;stroke:none;display:inline;font-family:Segoe Print;-inkscape-font-specification:Segoe Print"
       x="736.09772"
       y="369.57037"
       id="text3119-5"
       sodipodi:linespacing="125%"><tspan
         sodipodi:role="line"
         id="tspan3121-1"
         x="736.09772"
         y="369.57037">3</tspan></text>
    <text
       xml:space="preserve"
       style="font-size:32px;font-style:normal;font-variant:normal;font-weight:normal;font-stretch:normal;line-height:125%;letter-spacing:0px;word-spacing:0px;fill:#800000;fill-opacity:1;stroke:none;display:inline;font-family:Segoe Print;-inkscape-font-specification:Segoe Print"
       x="898.65668"
       y="382.14935"
       id="text3119-7"
       sodipodi:linespacing="125%"><tspan
         sodipodi:role="line"
         id="tspan3121-11"
         x="898.65668"
         y="382.14935">4</tspan></text>
    <path
       style="fill:#800000;stroke:none"
       id="path3216"
       d="m 494.9773,67.753462 c -2.67892,-0.32315 -5.37537,-0.7503 -8.07808,-0.60532 -2.33216,0.15695 -4.47416,1.12828 -6.50275,2.22488 0.69696,-0.38652 1.34881,-0.86891 2.09088,-1.15957 0.43126,-0.16892 -0.76943,0.51621 -1.14397,0.78868 -1.40109,1.01926 -2.80642,2.05934 -4.12496,3.18276 -1.66812,1.50717 -2.06337,3.49269 -2.28674,5.62674 -0.21757,2.41979 -0.11406,4.82757 0.15803,7.23536 0.3152,3.39159 2.17483,6.12662 3.98585,8.88744 1.33146,2.31008 3.24984,3.78233 5.67975,4.76754 2.44334,0.82689 5.04731,0.79447 7.59533,0.83822 3.59294,0.042 7.21135,-0.70991 10.61095,-1.84887 2.38142,-0.73328 4.49641,-2.07633 6.70076,-3.20284 0.3565,-0.20138 1.42889,-0.8003 1.0695,-0.60412 -3.08919,1.68632 -2.58031,1.5397 -1.10016,0.46591 1.05236,-0.76344 1.94369,-1.61118 2.84482,-2.54306 1.33937,-1.54708 2.35563,-3.36799 2.0363,-5.45371 -1.18777,-2.43397 -3.05238,-4.65372 -5.0861,-6.44066 -2.59917,-1.76913 -4.84976,-3.96881 -7.31474,-5.9114 -1.91077,-1.52386 -4.01304,-2.79373 -6.18599,-3.90496 -0.32526,-0.17679 -0.65052,-0.35358 -0.97578,-0.53038 0,0 3.19599,-2.08791 3.19599,-2.08791 l 0,0 c 0.324,0.17481 0.64801,0.34963 0.97202,0.52444 2.17944,1.14305 4.29579,2.4234 6.21072,3.97666 2.45419,1.96566 4.73403,4.14023 7.32668,5.92851 2.08332,1.86978 3.98665,4.14539 5.23936,6.65051 0.39975,2.18347 -0.51328,4.11037 -1.90111,5.78187 -2.64008,2.81542 -5.8262,4.82314 -9.30777,6.53475 -2.19534,1.13804 -4.32859,2.43939 -6.71953,3.139798 -3.44292,1.08766 -7.06862,1.81792 -10.69011,1.7506 -2.588,-0.0482 -5.23143,-0.0336 -7.6932,-0.94538 -2.46763,-1.062368 -4.42582,-2.601208 -5.78333,-4.970168 -1.83026,-2.8124 -3.72441,-5.59876 -4.07695,-9.03811 -0.2887,-2.42919 -0.42528,-4.85574 -0.20955,-7.30046 0.20269,-2.18741 0.52593,-4.28072 2.17215,-5.89114 2.9193,-2.60429 6.27042,-4.74192 9.67846,-6.63177 2.07288,-1.07062 4.24203,-1.99951 6.60903,-2.09186 2.72487,-0.0678 5.43379,0.33291 8.13552,0.64921 0,0 -3.13128,2.20781 -3.13128,2.20781 z"
       inkscape:connector-curvature="0" />
    <path
       style="fill:#800000;stroke:none"
       id="path3218"
       d="m 511.32888,184.97099 c -3.21083,-0.0195 -6.42175,-0.0111 -9.63261,-0.007 -2.4133,0.0466 -4.83237,-0.10578 -7.23638,0.13053 -0.46891,0.0965 -0.94766,0.15368 -1.40672,0.28952 -1.07037,0.31671 -4.12888,1.37347 -3.01569,1.45589 0.65774,0.0487 1.20154,-1.17449 1.78162,-0.86065 0.51102,0.27647 -0.92412,0.70583 -1.36208,1.08762 -0.40097,0.34955 -0.76811,0.73612 -1.15216,1.10418 -2.01174,1.83359 -3.04867,4.04981 -3.55671,6.67129 -0.43847,2.88315 -0.39195,5.73276 0.50958,8.5116 1.11261,2.97188 3.40947,5.17702 5.73527,7.2304 2.1724,1.8814 4.30778,3.80241 6.70958,5.38961 2.11213,1.21885 4.49231,1.76411 6.87308,2.16371 2.69117,0.52975 5.27316,0.31005 7.90431,-0.34725 0.10796,0.32749 3.84045,-1.41812 3.53517,-1.18925 -0.6298,0.47216 -1.32074,0.88833 -2.06422,1.14684 -0.90172,0.31354 1.55463,-1.10854 2.32715,-1.66946 2.08095,-1.56707 4.07218,-3.16511 5.68082,-5.2275 1.67956,-2.29524 2.15734,-5.09629 2.48665,-7.85336 0.22132,-3.17364 0.35418,-6.37059 0.13259,-9.54668 -0.30979,-2.82616 -1.68511,-5.1177 -3.61544,-7.12184 -1.84564,-1.52422 -4.12022,-2.00409 -6.43535,-2.25486 -1.34883,-0.26983 -2.69908,-0.52171 -4.06027,-0.72 0,0 3.12566,-2.20058 3.12566,-2.20058 l 0,0 c 1.35559,0.20908 2.69984,0.47384 4.05044,0.71195 2.38398,0.30123 4.70336,0.87061 6.57331,2.47956 1.97277,2.07759 3.38827,4.45589 3.7293,7.35901 0.24089,3.19521 0.10036,6.41099 -0.0937,9.60646 -0.30801,2.79757 -0.76335,5.66113 -2.38906,8.03274 -1.57178,2.12601 -3.5543,3.74596 -5.64877,5.33531 -3.16864,2.29703 -6.44421,4.66986 -10.36074,5.42212 -2.65982,0.62152 -5.2964,0.75326 -7.99711,0.22219 -2.41812,-0.43317 -4.84027,-1.0051 -6.96379,-2.29456 -2.39434,-1.62166 -4.54254,-3.54775 -6.72139,-5.44282 -2.37059,-2.10454 -4.69522,-4.37194 -5.84526,-7.39946 -0.92958,-2.83008 -1.0186,-5.72866 -0.60713,-8.67519 0.47774,-2.683 1.43098,-4.99703 3.47934,-6.89232 3.20092,-3.18477 7.23575,-5.95996 11.72219,-6.78906 2.4129,-0.18763 4.83382,-0.0772 7.2525,-0.10095 3.21716,0.004 6.43438,0.0125 9.65151,-0.007 0,0 -3.09548,2.249 -3.09548,2.249 z"
       inkscape:connector-curvature="0" />
    <path
       style="fill:#800000;stroke:none"
       id="path3220"
       d="m 754.29762,344.49081 c -2.65988,-0.31755 -5.41438,-0.27825 -8.06731,0.11004 -2.80824,0.23002 -5.34531,0.95994 -7.86243,2.20352 0.87784,-0.59833 -3.48524,1.85172 -2.62668,1.36531 0.67908,-0.38473 1.31226,-0.87339 2.04688,-1.13703 0.40402,-0.14499 -0.70443,0.4931 -1.03049,0.77228 -0.78517,0.67227 -0.92821,0.95452 -1.55644,1.78145 -1.45992,2.19117 -1.70152,4.83393 -2.18392,7.35652 -0.53685,2.67858 -0.57286,5.43005 -0.0512,8.11052 0.38553,2.17556 1.73188,3.85067 3.13225,5.47665 1.65721,1.87793 3.81316,2.36788 6.18988,2.66226 2.64893,0.36918 5.21431,0.0325 7.72272,-0.83224 0.37998,-0.19451 1.50882,-0.79837 1.13995,-0.58354 -4.74655,2.76441 -1.1137,0.52201 -0.19962,-0.13538 0.86854,-0.62465 1.08821,-0.82282 1.92312,-1.49949 2.12816,-1.66811 3.90537,-3.63985 5.4833,-5.82133 1.27684,-1.83793 2.44001,-3.62189 2.98636,-5.80605 0.37368,-2.04023 0.58661,-4.10806 0.0608,-6.13005 -0.79771,-2.17828 -1.93657,-4.118 -3.54754,-5.78538 -0.28024,-0.2568 -0.56049,-0.51359 -0.84073,-0.77039 0,0 3.24501,-2.00685 3.24501,-2.00685 l 0,0 c 0.28458,0.26361 0.56917,0.52721 0.85375,0.79082 1.63589,1.7293 2.81502,3.71562 3.64733,5.94858 0.57274,2.07722 0.38678,4.18947 0.0239,6.29912 -0.50709,2.25311 -1.61425,4.06845 -2.93788,5.94719 -1.57069,2.20366 -3.29544,4.2307 -5.43871,5.91053 -2.86099,2.37315 -6.0216,4.42678 -9.40514,5.9765 -2.5519,0.8087 -5.16009,1.08496 -7.82661,0.69593 -2.45473,-0.3416 -4.65329,-0.94615 -6.34556,-2.89237 -1.44132,-1.67458 -2.82933,-3.40876 -3.23253,-5.64627 -0.54062,-2.71886 -0.5263,-5.52183 -0.005,-8.24562 0.48996,-2.5587 0.71121,-5.24133 2.10796,-7.50654 2.31874,-3.30783 6.09462,-4.89999 9.63306,-6.66213 2.54642,-1.19838 5.13789,-1.86931 7.94694,-2.11652 2.69249,-0.324 5.45389,-0.37543 8.14629,-0.0378 0,0 -3.13128,2.20781 -3.13128,2.20781 z"
       inkscape:connector-curvature="0" />
    <path
       style="fill:#800000;stroke:none"
       id="path3222"
       d="m 915.8054,352.50286 c -3.28209,0.3142 -6.47767,1.24245 -9.63596,2.15627 -1.8042,0.63435 -3.58434,1.33263 -5.32247,2.13125 -0.37742,0.17341 -1.47038,0.77021 -1.1176,0.55098 0.67252,-0.41792 1.38616,-0.76572 2.07924,-1.14857 -2.34272,1.70443 -4.43827,3.66568 -6.00392,6.10851 -1.51677,2.95849 -1.7467,6.30462 -1.92697,9.56511 -0.29425,3.24666 0.27167,5.48611 2.41609,7.93154 1.88182,2.03147 4.49529,2.85869 7.02084,3.76371 2.61965,0.91314 5.36581,1.17446 8.11503,1.32469 2.61617,0.21973 5.09115,0.15422 7.5532,-0.79315 0.38262,-0.20113 1.52304,-0.81804 1.14784,-0.6034 -0.70805,0.40506 -1.37468,0.91149 -2.14673,1.17484 -0.38972,0.13293 0.65474,-0.50053 0.96467,-0.77163 0.94398,-0.82571 1.63133,-1.73711 2.32986,-2.76905 1.25558,-2.19013 1.99918,-4.6239 2.53308,-7.07831 0.40495,-2.06677 0.46823,-4.17481 0.50236,-6.27383 0.0256,-2.09531 0.12275,-4.16873 -0.36931,-6.21683 -0.74637,-2.38362 -2.12806,-4.29339 -4.1031,-5.79493 -0.87979,-0.60664 -1.87399,-0.8872 -2.89101,-1.15172 0,0 3.15107,-2.16225 3.15107,-2.16225 l 0,0 c 1.04717,0.30504 2.06945,0.62931 2.96666,1.28027 2.00886,1.5863 3.44968,3.55739 4.23262,6.01494 0.52537,2.07529 0.46309,4.17028 0.42218,6.30006 -0.0305,2.122 -0.0873,4.25284 -0.47883,6.34514 -0.52064,2.49251 -1.26335,4.95727 -2.47597,7.20779 -2.09808,3.28955 -5.12017,5.338 -8.78696,6.84378 -2.49973,0.85661 -5.01955,0.88301 -7.64054,0.66537 -2.77581,-0.16929 -5.54232,-0.46781 -8.17998,-1.41214 -2.58317,-0.92507 -5.22117,-1.84092 -7.12704,-3.92729 -2.17344,-2.53316 -2.85093,-4.84653 -2.54078,-8.19543 0.16672,-3.30722 0.39259,-6.69414 1.83493,-9.73229 1.50981,-2.51953 3.61416,-4.48485 5.93288,-6.27084 3.52257,-2.05988 6.97394,-4.07062 10.91407,-5.22035 3.18406,-0.89833 6.39513,-1.80528 9.69755,-2.12935 0,0 -3.067,2.28711 -3.067,2.28711 z"
       inkscape:connector-curvature="0" />
    <path
       style="fill:#000000;fill-opacity:1;fill-rule:nonzero;stroke:none"
       id="path3041"
       d="m 166.74345,42.731436 c -5.9068,0.09313 -11.79519,-0.39729 -17.67407,-0.903698 -5.99515,-0.706958 -11.98973,-1.397749 -18.0157,-1.775912 -3.74187,-0.210065 -7.49006,-0.240258 -11.23674,-0.246321 -2.67934,0.0052 -5.35867,0.0093 -8.038,0.01483 -3.1094,0.0094 -6.21729,0.450085 -9.24884,1.122568 -3.947731,0.961235 -7.754601,2.340901 -11.55908,3.745683 -3.527455,1.377007 -7.018888,2.849745 -10.497897,4.345449 -1.6387,0.746931 -3.230451,1.582735 -4.794639,2.473424 -0.518734,0.295379 -2.120447,1.074528 -1.551176,0.894904 0.380811,-0.120158 3.818511,-2.184574 0.369565,-0.135932 -2.597823,1.577473 -5.10409,3.302456 -7.609644,5.021542 -2.800005,1.882869 -5.074924,4.376289 -7.269487,6.909447 -2.41615,3.170062 -4.74295,6.409085 -7.094933,9.628285 -2.75155,3.659855 -4.667944,7.736531 -6.567107,11.86896 -1.814709,4.405727 -3.264322,8.975207 -4.662417,13.531323 -1.237065,4.354226 -2.042601,8.802866 -2.773883,13.264156 -0.610285,4.43605 -1.310948,8.85204 -1.687509,13.31591 -0.31119,4.27616 -0.312971,8.56647 -0.333541,12.85146 -0.02503,5.01276 -0.09157,10.01891 0.280353,15.02018 0.210374,3.6805 0.857519,7.30988 1.221082,10.97448 0.432941,4.6348 1.216322,9.22037 2.078366,13.79118 0.607757,2.3287 0.583342,4.78162 1.147273,7.1154 0.278581,1.15288 0.688599,2.26998 1.032336,3.40514 1.675457,4.66251 3.744095,9.14242 5.943812,13.57497 2.342084,4.23383 5.015362,8.25043 8.036668,12.02545 3.9784,4.88003 8.675173,9.08857 13.558149,13.03557 4.598242,3.94624 9.566141,7.43987 14.676903,10.68537 4.067281,2.45799 8.58336,4.12366 13.027523,5.77818 5.787093,2.60951 11.866893,4.15028 18.054983,5.43425 6.10603,1.55017 12.36976,2.10437 18.60911,2.78989 5.4696,0.91774 10.98203,1.52109 16.49545,2.10111 7.16874,0.68808 14.37444,0.80052 21.5702,0.89611 6.91684,0.066 13.83409,0.0552 20.75114,0.0484 7.09556,0.21874 14.16161,-0.35311 21.20398,-1.15657 7.36293,-0.99616 14.61851,-2.62777 21.92,-3.98064 5.609,-1.04775 11.23625,-1.93326 16.67496,-3.69035 3.97348,-1.1171 7.46218,-3.28788 11.03059,-5.27513 2.30795,-1.2853 4.39844,-2.33993 6.74812,-3.55243 6.02101,-3.21125 12.37252,-5.71358 18.5907,-8.50179 3.66701,-1.53919 7.24941,-3.27921 10.67936,-5.29549 0.18936,-0.11131 -0.77572,0.40515 -0.59888,0.27487 0.87153,-0.64213 1.79455,-1.21128 2.69183,-1.81691 5.4349,-3.84448 10.65444,-7.9829 15.95364,-12.01028 4.88673,-3.35685 9.30124,-7.29448 13.65709,-11.29589 4.26508,-3.71085 7.79382,-8.14236 10.77865,-12.92065 3.0341,-4.85416 5.717,-9.91568 8.50695,-14.91123 2.84734,-5.09949 5.26086,-10.40715 6.78133,-16.04887 1.53379,-5.74765 2.12646,-11.66305 2.44925,-17.58334 0.20299,-6.03654 -1.05793,-11.94684 -2.79058,-17.68987 -1.90507,-6.37498 -5.04948,-12.22129 -8.44672,-17.90127 -3.68475,-5.893194 -7.80721,-11.457052 -12.30299,-16.750673 -4.69898,-5.220939 -9.99148,-9.863242 -15.41126,-14.314732 -4.16944,-3.606245 -8.52729,-6.9845 -13.01993,-10.176236 -4.34412,-3.010208 -9.09871,-5.370821 -13.85971,-7.639613 -4.73446,-1.95258 -9.61196,-3.527681 -14.50712,-5.020569 -4.23141,-1.063189 -8.48907,-2.021801 -12.76146,-2.907228 -5.1483,-0.872936 -10.34789,-1.393279 -15.51501,-2.133097 -4.15373,-0.576514 -8.27864,-1.322941 -12.44811,-1.781617 -4.10968,-0.206452 -8.19048,-0.732636 -12.28981,-1.066269 -4.00517,-0.495715 -7.94926,-1.308548 -11.96111,-1.761333 -4.62648,-0.292067 -9.23394,-0.801581 -13.85719,-1.139469 -3.97849,-0.495213 -7.96002,-0.937079 -11.96313,-1.167878 -4.08651,-0.437655 -8.18001,-0.784285 -12.28513,-0.981527 -2.46613,-0.106995 -4.93447,-0.138435 -7.40257,-0.153046 0,0 3.09015,-2.241448 3.09015,-2.241448 l 0,0 c 2.46291,0.02385 4.92589,0.06799 7.38645,0.18426 4.10656,0.20979 8.19909,0.584009 12.29128,0.981744 3.99835,0.245541 7.97295,0.712979 11.95013,1.184027 4.62579,0.349353 9.23876,0.842177 13.86754,1.150495 4.00874,0.464659 7.9553,1.273359 11.96226,1.745792 4.10029,0.341482 8.18409,0.855936 12.29451,1.07658 4.16521,0.475044 8.29071,1.212411 12.4406,1.800698 5.17295,0.731613 10.37441,1.273259 15.52584,2.154624 4.2839,0.891312 8.5624,1.817164 12.79559,2.926811 4.89441,1.52364 9.78067,3.101779 14.51273,5.083111 4.77785,2.283158 9.55436,4.647812 13.90567,7.687075 4.49454,3.196689 8.83727,6.60216 13.00353,10.218013 5.42373,4.479568 10.72953,9.137249 15.44313,14.373079 4.50148,5.31509 8.63629,10.8946 12.33533,16.802556 3.41341,5.7042 6.57579,11.57664 8.5012,17.97532 1.75869,5.77541 3.03616,11.7244 2.8624,17.79914 -0.31482,5.9437 -0.9049,11.88117 -2.42311,17.65614 -1.4802,5.67509 -3.88761,11.00478 -6.73333,16.12994 -2.79476,4.9959 -5.47545,10.06164 -8.49804,14.92559 -2.95551,4.8165 -6.4791,9.28699 -10.74818,13.01884 -4.35767,4.00663 -8.74474,7.98674 -13.64929,11.33072 -5.30915,4.01976 -10.52647,8.16531 -15.9508,12.03001 -6.02387,4.12349 -12.43587,7.68878 -19.16873,10.51887 -6.21161,2.77228 -12.54493,5.28593 -18.55168,8.49761 -2.67782,1.38815 -4.12124,2.11079 -6.74485,3.57101 -3.58976,1.99796 -7.12636,4.12575 -11.12068,5.24476 -5.44426,1.71031 -11.06979,2.57584 -16.66956,3.62736 -7.30046,1.35609 -14.55887,2.97548 -21.92435,3.95092 -7.05882,0.7876 -14.13835,1.3554 -21.24858,1.13778 -6.91115,6.6e-4 -13.82252,0.007 -20.73336,-0.0678 -7.21126,-0.0994 -14.43247,-0.21366 -21.61654,-0.90449 -5.51678,-0.57642 -11.03043,-1.18503 -16.50383,-2.09735 -6.24217,-0.68322 -12.49943,-1.29485 -18.60806,-2.83442 -6.20853,-1.29687 -12.30305,-2.87437 -18.123423,-5.45621 -4.463135,-1.66761 -9.001266,-3.34306 -13.070373,-5.84507 -5.1019,-3.27328 -10.051133,-6.80283 -14.661051,-10.74523 -4.900231,-3.9724 -9.632471,-8.18486 -13.63944,-13.08017 -3.039178,-3.79563 -5.72678,-7.83453 -8.07095,-12.09874 -2.208264,-4.44901 -4.28654,-8.94686 -6.002192,-13.61341 -0.352905,-1.14713 -0.779589,-2.27357 -1.066877,-3.43887 -0.575181,-2.33304 -0.511071,-4.79561 -1.118635,-7.12618 -0.852675,-4.58136 -1.64644,-9.17254 -2.106099,-13.81327 -0.366873,-3.66921 -1.024189,-7.30213 -1.214357,-10.98918 -0.360247,-5.01242 -0.305247,-10.02764 -0.28319,-15.0511 0.0092,-4.2908 -0.01078,-8.58755 0.302003,-12.86971 0.378926,-4.47505 1.081731,-8.89933 1.686163,-13.34747 0.718974,-4.4776 1.527733,-8.93868 2.753037,-13.31042 1.381189,-4.57456 2.869048,-9.146782 4.645594,-13.579924 1.908876,-4.140678 3.763966,-8.257953 6.523128,-11.931984 2.356395,-3.217545 4.684923,-6.454579 7.069587,-9.649644 2.178883,-2.557333 4.441724,-5.077361 7.224193,-6.996745 2.501566,-1.728693 5.0142,-3.447905 7.600993,-5.04658 4.108513,-2.411312 8.140249,-4.99006 12.494797,-6.946896 3.482121,-1.488963 6.970886,-2.969177 10.506171,-4.327155 3.811633,-1.40609 7.637071,-2.760067 11.595271,-3.706568 3.05887,-0.647384 6.18342,-1.085004 9.31589,-1.072108 2.67702,-0.003 5.35404,-0.01594 8.03106,-0.0075 3.74132,0.01883 7.48408,0.05743 11.21962,0.287418 6.0132,0.404575 11.99264,1.128622 17.9793,1.811469 5.90167,0.505094 11.81554,0.971991 17.74474,0.813027 0,0 -3.09432,2.248155 -3.09432,2.248155 z"
       inkscape:connector-curvature="0" />
    <path
       style="fill:#000000;fill-opacity:1;fill-rule:nonzero;stroke:none"
       id="path3043"
       d="m 781.06409,44.665171 c -6.22855,0.06034 -12.42795,0.846354 -18.64278,1.258574 -7.88078,0.553809 -15.72372,1.506624 -23.48451,2.980375 -5.94445,0.953618 -11.81816,2.167888 -17.64885,3.658762 -4.12418,0.968541 -7.93728,2.781561 -11.70454,4.662827 -0.59792,0.346413 -1.22371,0.648659 -1.79376,1.039239 -0.44067,0.301933 1.78347,-1.148465 1.40418,-0.772311 -0.52608,0.521734 -1.24025,0.81099 -1.85708,1.221468 -1.98978,1.324131 -3.96176,2.673622 -5.95598,3.991236 -4.0731,2.778323 -8.28205,5.345792 -12.21105,8.330489 -3.85068,2.864603 -7.08111,6.279312 -9.8679,10.166538 -2.96667,4.665695 -5.11817,9.768586 -7.28178,14.837544 -2.37372,5.257278 -4.14895,10.736918 -5.64657,16.298848 -1.32058,5.04983 -1.64815,10.26085 -1.83212,15.45312 -0.12303,5.27198 -0.2401,10.54156 0.30122,15.79229 0.92449,5.92244 2.96334,11.63629 5.08626,17.22389 2.2057,5.51028 4.42526,11.02986 7.17374,16.29501 2.68387,5.35974 5.78104,10.48868 8.87401,15.61759 2.56024,4.13033 5.29877,8.13378 8.21072,12.02081 2.42558,3.21799 5.19749,6.14854 7.98576,9.04967 3.4879,3.1971 7.37134,5.91557 11.26072,8.59411 4.0328,2.71031 8.19785,5.17518 12.52094,7.3892 5.80153,3.18083 12.18864,5.08028 18.48332,7.01968 6.58176,1.85034 13.3239,3.02046 20.00309,4.45276 7.76999,1.68695 15.65081,2.72384 23.56053,3.46744 9.21191,0.56278 18.42129,1.12585 27.62517,1.81343 9.40111,0.94449 18.82842,1.49802 28.26962,1.8065 9.20493,0.16165 18.37696,-0.67951 27.54105,-1.40992 8.67201,-0.72441 17.2743,-2.03198 25.8583,-3.42657 6.18201,-1.07695 11.99645,-3.32437 17.70406,-5.8488 5.68746,-2.59589 11.33404,-5.2861 16.81007,-8.30531 4.01667,-2.13351 8.4545,-5.52746 12.75898,-9.23478 4.46539,-4.04201 8.30387,-8.68787 12.09086,-13.35119 3.67564,-4.37834 6.81033,-9.12799 9.49742,-14.16389 2.44338,-4.78707 4.00563,-9.9837 5.57101,-15.11182 1.34826,-4.95959 3.20896,-9.75887 4.77599,-14.64985 1.42732,-3.71758 2.27342,-7.57775 2.71327,-11.52404 0.3599,-4.1509 0.3734,-8.30519 -0.0853,-12.44447 -0.60572,-5.64481 -2.70177,-10.90111 -4.85491,-16.09822 -1.84321,-4.536 -4.38864,-8.7311 -7.12128,-12.7766 -2.76971,-4.15186 -5.70676,-8.1824 -8.92731,-11.995882 -3.01581,-3.582574 -6.22837,-7.003234 -9.55475,-10.298904 -3.73568,-3.406981 -7.88592,-6.318016 -11.92573,-9.345937 -4.66866,-3.076585 -9.41724,-6.037402 -14.41251,-8.554916 -4.18464,-2.27205 -8.5496,-4.196254 -12.89763,-6.13252 -5.26557,-2.489904 -10.75005,-4.418338 -16.23068,-6.366663 -4.66822,-1.463571 -9.36862,-2.873382 -14.09544,-4.144032 -4.72755,-1.367243 -9.48659,-2.604097 -14.27387,-3.741667 -5.31836,-1.148253 -10.68941,-2.019522 -16.03445,-3.02884 -5.70203,-1.031266 -11.49489,-1.358355 -17.25564,-1.90517 -5.66413,-0.391973 -11.27515,-1.275184 -16.91288,-1.91291 -4.62426,-0.406254 -9.24697,-0.75086 -13.86399,-1.23954 -3.08946,-0.297293 -6.18161,-0.403042 -9.2595,-0.806098 -3.29257,-0.455702 -6.55566,-1.044278 -9.86784,-1.356376 -3.29257,-0.521418 -6.60369,-0.887185 -9.9289,-1.112619 -1.91638,-0.119812 -3.83651,-0.146183 -5.75599,-0.160079 0,0 3.09679,-2.245754 3.09679,-2.245754 l 0,0 c 1.91946,0.02019 3.83947,0.05667 5.75506,0.189874 3.323,0.245979 6.62986,0.635007 9.92554,1.126987 3.31457,0.328787 6.58277,0.926188 9.88312,1.360496 3.07098,0.391569 6.16128,0.479599 9.23932,0.810459 4.60498,0.503404 9.2197,0.825112 13.83023,1.266393 5.63595,0.646366 11.24871,1.50889 16.91162,1.905318 5.76866,0.551236 11.56929,0.886299 17.27765,1.93142 5.3527,1.003714 10.72882,1.884765 16.05278,3.03755 4.79172,1.134626 9.54875,2.393823 14.28303,3.749501 4.72664,1.283407 9.43729,2.669851 14.09415,4.180392 5.48901,1.956816 10.97777,3.903813 16.26062,6.380725 4.35882,1.926886 8.7224,3.869478 12.91097,6.146952 4.99755,2.548127 9.75214,5.533163 14.43375,8.618556 4.06114,3.032763 8.23571,5.945049 11.97917,9.37454 3.32501,3.310654 6.53924,6.741993 9.5541,10.338096 3.22521,3.827962 6.18285,7.859488 8.96156,12.022698 2.73789,4.07247 5.29565,8.28926 7.14065,12.85247 2.16032,5.22856 4.26653,10.51413 4.91742,16.1834 0.48861,4.15887 0.49246,8.33064 0.15001,12.50596 -0.42695,3.9735 -1.25109,7.86956 -2.70787,11.60537 -1.55708,4.89432 -3.44409,9.68525 -4.78257,14.64746 -1.5657,5.14677 -3.13319,10.36319 -5.54922,15.18111 -2.66935,5.06131 -5.79301,9.83522 -9.46984,14.23134 -3.79698,4.67528 -7.62853,9.34587 -12.08562,13.41992 -5.8465,5.08569 -12.20577,9.4286 -19.11678,12.97808 -5.49493,2.99858 -11.14268,5.70147 -16.84177,8.28897 -5.71399,2.50314 -11.54351,4.70853 -17.72848,5.748 -8.57677,1.38191 -17.17435,2.65689 -25.83726,3.37405 -9.17508,0.74167 -18.36072,1.57124 -27.57741,1.38497 -9.44312,-0.32302 -18.87072,-0.89293 -28.27554,-1.82073 -9.20608,-0.68355 -18.41801,-1.23888 -27.63076,-1.81822 -7.93071,-0.74661 -15.83637,-1.77274 -23.62534,-3.47456 -6.68886,-1.42451 -13.43882,-2.60367 -20.02211,-4.47966 -6.31698,-1.94998 -12.71535,-3.87632 -18.54408,-7.05678 -4.3432,-2.21279 -8.5226,-4.69061 -12.5627,-7.42125 -3.90373,-2.70172 -7.81149,-5.43058 -11.31238,-8.65106 -2.80161,-2.91021 -5.57925,-5.85754 -8.0139,-9.08817 -2.89865,-3.91092 -5.63354,-7.93012 -8.19379,-12.07368 -3.08923,-5.13962 -6.19141,-10.27455 -8.8873,-15.63622 -2.75581,-5.27936 -4.97529,-10.81353 -7.18238,-16.34048 -2.14093,-5.61244 -4.19674,-11.3525 -5.1516,-17.29901 -0.55736,-5.26478 -0.45337,-10.54737 -0.33217,-15.83518 0.18182,-5.21839 0.48955,-10.45748 1.80748,-15.53567 1.48479,-5.57941 3.25072,-11.07767 5.62757,-16.348502 2.16624,-5.081507 4.30232,-10.197942 7.22966,-14.902051 2.75628,-3.929535 5.96428,-7.380426 9.81886,-10.268612 3.90954,-3.01968 8.13475,-5.570985 12.20775,-8.357783 4.82321,-3.17506 9.50794,-6.565732 14.66131,-9.211114 3.77439,-1.870101 7.60644,-3.6354 11.73517,-4.584994 5.82312,-1.472222 11.69381,-2.646874 17.62368,-3.61005 7.76947,-1.44762 15.61814,-2.380637 23.5021,-2.938636 6.2528,-0.42744 12.48699,-1.221816 18.75523,-1.309539 0,0 -3.09021,2.245172 -3.09021,2.245172 z"
       inkscape:connector-curvature="0" />
    <path
       style="fill:#000000;fill-opacity:1;fill-rule:nonzero;stroke:none"
       id="path3045"
       d="m 817.02827,506.3881 c -5.45417,-4.40038 -11.76245,-7.39287 -18.21763,-9.99572 -8.54894,-3.08529 -17.56856,-4.35482 -26.57897,-5.12345 -10.75303,-0.67374 -21.53506,-0.62654 -32.30434,-0.64507 -11.6263,-0.2037 -23.22238,0.54391 -34.80226,1.46751 -11.22793,0.85848 -22.37452,2.47886 -33.47643,4.32512 -6.23321,1.23994 -12.48872,2.52987 -18.54196,4.4982 -2.51313,0.81719 -4.98146,1.76623 -7.47421,2.64363 -5.47121,2.14355 -10.77462,4.69651 -16.02212,7.33541 -0.018,0.01 -3.60185,1.94602 -3.66136,2.01427 -0.39043,0.44778 1.59583,-1.3798 1.59974,-0.78572 0.004,0.6508 -1.07866,0.72962 -1.59753,1.12248 -1.25691,0.95167 -1.84536,1.5354 -3.01976,2.60204 -3.75289,3.7879 -6.21529,8.4444 -8.33342,13.27445 -2.79356,6.37879 -3.512,13.29496 -3.9997,20.16215 -0.55781,7.20285 0.15015,14.39588 0.77574,21.56544 0.50476,5.19038 1.78746,10.25919 3.53686,15.15905 1.56738,3.99081 3.20256,8.03212 5.44733,11.69805 1.90902,3.74106 4.73928,6.73247 7.74448,9.60394 7.0487,6.66643 15.06621,12.11534 23.00896,17.6324 10.50007,6.86804 20.94313,13.83196 31.63003,20.40775 12.18088,7.45829 24.80442,14.15639 37.61759,20.45335 15.08729,7.54099 31.14635,12.80241 47.2145,17.79077 13.16076,3.84102 26.4956,7.11751 40.01744,9.39635 5.7391,0.8225 11.52956,1.50965 17.33853,1.42124 3.4975,-0.0532 4.85138,-0.24824 8.35026,-0.57309 9.05579,-0.89328 17.87735,-3.1238 26.76351,-4.97109 9.96755,-2.05193 19.71041,-4.86641 29.31695,-8.19838 10.03527,-3.65962 19.54347,-8.58114 28.80664,-13.86213 0.16018,-0.17915 0.29096,-0.38976 0.48055,-0.53744 4.14369,-3.22782 2.15414,-1.29762 5.98193,-4.55801 2.56216,-2.18236 4.74567,-4.57262 6.87407,-7.16674 4.17449,-5.3388 7.77047,-11.07958 11.37221,-16.80898 2.99606,-4.67163 5.76033,-9.42164 7.83618,-14.57515 2.22785,-5.50296 3.39394,-11.2639 4.06595,-17.13517 0.65306,-4.7952 1.10452,-9.60986 1.33478,-14.44297 0.092,-2.82156 0.3076,-5.66703 -0.34034,-8.44544 -0.16833,-0.72179 -1.27474,-4.17824 -1.4776,-4.82107 -1.96511,-5.57172 -4.69003,-10.80175 -7.82678,-15.79213 -3.86266,-5.92504 -8.52529,-11.21132 -13.56393,-16.14848 -4.44944,-4.17198 -9.38782,-7.76103 -14.09005,-11.63053 -3.72672,-3.1924 -7.8158,-5.90682 -11.99843,-8.45565 -3.88123,-2.30736 -7.95123,-4.2076 -12.093,-5.98627 -4.67926,-2.11324 -9.46605,-3.92881 -14.35752,-5.48023 -6.25255,-1.97249 -12.61274,-3.54168 -19.07597,-4.63156 -5.23134,-0.76376 -10.4121,-1.75234 -15.53471,-3.05892 -3.72502,-0.88379 -7.3923,-1.94176 -11.18849,-2.4812 -2.73078,-0.14409 -5.39268,-0.61015 -8.03553,-1.28862 -2.39983,-0.68423 -4.88446,-0.8538 -7.36384,-0.95852 -2.94111,-0.1351 -5.91133,-0.39751 -8.81293,-0.91621 -1.87322,-0.4113 -3.76299,-0.71474 -5.67042,-0.90626 0,0 3.11792,-2.21563 3.11792,-2.21563 l 0,0 c 1.90757,0.21075 3.79564,0.53532 5.67297,0.93522 2.89857,0.48211 5.84831,0.77227 8.78333,0.87797 2.49961,0.11472 4.99868,0.31708 7.41426,1.01899 2.63132,0.66796 5.29085,1.0708 8.0003,1.26475 3.79265,0.57313 7.45951,1.65029 11.18775,2.52941 5.10835,1.29454 10.27181,2.28593 15.48535,3.05679 6.4712,1.1199 12.8411,2.70068 19.1074,4.67248 4.90773,1.55779 9.71831,3.36817 14.41442,5.48671 4.15195,1.78835 8.21982,3.72427 12.11101,6.03861 4.18977,2.56567 8.28951,5.28947 12.01419,8.50829 4.7027,3.87895 9.64235,7.47839 14.07637,11.67715 5.05088,4.96449 9.73655,10.27101 13.61916,16.21628 3.16331,5.01066 5.91359,10.26283 7.89996,15.86035 0.16278,0.51067 1.37621,4.28127 1.516,4.85953 0.67659,2.79901 0.48661,5.6671 0.38392,8.51487 -0.23133,4.847 -0.68772,9.67513 -1.35818,14.48213 -0.66415,5.89637 -1.79443,11.68683 -4.01446,17.22075 -2.04,5.19511 -4.80767,9.96447 -7.83129,14.64779 -3.60412,5.73602 -7.19762,11.48482 -11.3497,16.84881 -5.39587,6.68246 -12.07629,11.89112 -19.61575,16.02809 -9.27312,5.25167 -18.78154,10.15795 -28.82181,13.78874 -9.62595,3.32563 -19.39064,6.13066 -29.37428,8.18373 -8.8947,1.86184 -17.73482,4.06462 -26.80272,4.94784 -3.52601,0.31659 -4.85552,0.50691 -8.37911,0.54532 -5.80737,0.0633 -11.59424,-0.63979 -17.32629,-1.49902 -13.49091,-2.34273 -26.79465,-5.65869 -39.93077,-9.51352 -16.08388,-5.01159 -32.1595,-10.28391 -47.27522,-17.81563 -12.83441,-6.29502 -25.47688,-12.99577 -37.67944,-20.45337 -10.69721,-6.57577 -21.14741,-13.54271 -31.65527,-20.4149 -7.98288,-5.51977 -16.04237,-10.96355 -23.1612,-17.60376 -3.04739,-2.88129 -5.91125,-5.88791 -7.8327,-9.66662 -2.24796,-3.69566 -3.87352,-7.76732 -5.45955,-11.77995 -1.76517,-4.93134 -3.06546,-10.03163 -3.55144,-15.2605 -0.61494,-7.19079 -1.32469,-14.40431 -0.78061,-21.62765 0.46268,-6.89257 1.15266,-13.84075 3.90897,-20.25966 2.09977,-4.8598 4.53038,-9.54408 8.23544,-13.40334 3.89172,-3.60361 8.37742,-6.36626 13.12013,-8.73875 5.23733,-2.62019 10.53276,-5.15289 16.00053,-7.25793 0.39372,-0.13817 7.22413,-2.53708 7.46853,-2.61533 6.05412,-1.93819 12.30302,-3.21268 18.5318,-4.434 11.10692,-1.8294 22.2561,-3.43892 33.48648,-4.29431 11.58199,-0.91891 23.1808,-1.63441 34.80807,-1.43551 10.79093,0.0134 21.5953,-0.0518 32.36958,0.63597 9.03726,0.78631 18.08053,2.08549 26.64587,5.21003 6.50155,2.62674 12.83325,5.65809 18.39327,9.99757 0,0 -3.22819,2.04181 -3.22819,2.04181 z"
       inkscape:connector-curvature="0" />
  </g>
  <g
     inkscape:groupmode="layer"
     id="versionlayer"
     inkscape:label="Version">
    <text
       xml:space="preserve"
       style="font-style:normal;font-variant:normal;font-weight:normal;font-stretch:normal;fill:#ff0000;font-family:Courier New;-inkscape-font-specification:Courier New"
       x="10"
       y="10"
       id="versiontext">Journey_02_BCs.svg (v3)</text>
  </g>
</svg>
