<?xml version="1.0" encoding="UTF-8" standalone="no"?>
<!-- Created with Inkscape (http://www.inkscape.org/) -->

<svg
   xmlns:dc="http://purl.org/dc/elements/1.1/"
   xmlns:cc="http://creativecommons.org/ns#"
   xmlns:rdf="http://www.w3.org/1999/02/22-rdf-syntax-ns#"
   xmlns:svg="http://www.w3.org/2000/svg"
   xmlns="http://www.w3.org/2000/svg"
   xmlns:sodipodi="http://sodipodi.sourceforge.net/DTD/sodipodi-0.dtd"
   xmlns:inkscape="http://www.inkscape.org/namespaces/inkscape"
   width="1052.3622"
   height="744.09448"
   id="svg6391"
   version="1.1"
   inkscape:version="0.48.2 r9819"
   sodipodi:docname="Journey_05_Payments.svg"
   inkscape:export-filename="D:\CQRS Resources\Source Code\cqrs-journey-doc\images\Journey_05_Payments.png"
   inkscape:export-xdpi="90"
   inkscape:export-ydpi="90">
  <title
     id="title7081">Payments Sequence Diagram</title>
  <defs
     id="defs3" />
  <sodipodi:namedview
     inkscape:document-units="mm"
     id="base"
     pagecolor="#ffffff"
     bordercolor="#666666"
     borderopacity="1.0"
     inkscape:pageopacity="0.0"
     inkscape:pageshadow="2"
     inkscape:zoom="1.0334709"
     inkscape:cx="537.00342"
     inkscape:cy="369.0225"
     inkscape:current-layer="layer1"
     showgrid="false"
     units="mm"
     inkscape:window-width="1600"
     inkscape:window-height="1178"
     inkscape:window-x="3512"
     inkscape:window-y="-8"
     inkscape:window-maximized="1" />
  <metadata
     id="metadata4">
    <rdf:RDF>
      <cc:Work
         rdf:about="">
        <dc:format>image/svg+xml</dc:format>
        <dc:type
           rdf:resource="http://purl.org/dc/dcmitype/StillImage" />
        <dc:title>Payments Sequence Diagram</dc:title>
      </cc:Work>
    </rdf:RDF>
  </metadata>
  <g
     inkscape:groupmode="layer"
     id="layer4"
     inkscape:label="Template"
     style="display:none">
    <path
       style="fill:none;stroke:#000000;stroke-width:1px;stroke-linecap:butt;stroke-linejoin:miter;stroke-opacity:1"
       d="m 54.186334,90.955632 0,638.624648"
       id="path7047"
       inkscape:connector-curvature="0"
       sodipodi:nodetypes="cc" />
    <path
       style="fill:none;stroke:#000000;stroke-width:1px;stroke-linecap:butt;stroke-linejoin:miter;stroke-opacity:1;display:inline"
       d="m 359.95208,89.020408 0,638.624652"
       id="path7047-8"
       inkscape:connector-curvature="0"
       sodipodi:nodetypes="cc" />
    <path
       style="fill:none;stroke:#000000;stroke-width:1px;stroke-linecap:butt;stroke-linejoin:miter;stroke-opacity:1;display:inline"
       d="m 659.91214,90.955635 0,638.624645"
       id="path7047-3"
       inkscape:connector-curvature="0"
       sodipodi:nodetypes="cc" />
    <path
       style="fill:none;stroke:#000000;stroke-width:1px;stroke-linecap:butt;stroke-linejoin:miter;stroke-opacity:1;display:inline"
       d="m 961.80743,90.955634 0,638.624656"
       id="path7047-2"
       inkscape:connector-curvature="0"
       sodipodi:nodetypes="cc" />
  </g>
  <g
     inkscape:label="Layer 1"
     inkscape:groupmode="layer"
     id="layer1"
     transform="translate(0,-308.2677)">
    <text
       xml:space="preserve"
       style="font-size:40px;font-style:normal;font-variant:normal;font-weight:normal;font-stretch:normal;line-height:125%;letter-spacing:0px;word-spacing:0px;fill:#000000;fill-opacity:1;stroke:none;font-family:Segoe Print;-inkscape-font-specification:Segoe Print"
       x="57.564121"
       y="367.69211"
       id="text6913"
       sodipodi:linespacing="125%"><tspan
         sodipodi:role="line"
         id="tspan6915"
         x="57.564121"
         y="367.69211"
         style="font-size:16px;text-align:center;text-anchor:middle;font-weight:bold;-inkscape-font-specification:Segoe Print Bold">Registration</tspan><tspan
         sodipodi:role="line"
         x="57.564121"
         y="387.69211"
         id="tspan6921"
         style="font-size:16px;text-align:center;text-anchor:middle;font-weight:bold;-inkscape-font-specification:Segoe Print Bold">Controller</tspan></text>
    <text
       xml:space="preserve"
       style="font-size:40px;font-style:normal;font-variant:normal;font-weight:normal;font-stretch:normal;line-height:125%;letter-spacing:0px;word-spacing:0px;fill:#000000;fill-opacity:1;stroke:none;font-family:Segoe Print;-inkscape-font-specification:Segoe Print"
       x="356.66962"
       y="367.69211"
       id="text6913-0"
       sodipodi:linespacing="125%"><tspan
         sodipodi:role="line"
         id="tspan6915-7"
         x="356.66962"
         y="367.69211"
         style="font-size:16px;text-align:center;text-anchor:middle;font-weight:bold">Payment</tspan><tspan
         sodipodi:role="line"
         x="356.66962"
         y="387.69211"
         id="tspan6921-2"
         style="font-size:16px;text-align:center;text-anchor:middle;font-weight:bold">Controller</tspan></text>
    <text
       xml:space="preserve"
       style="font-size:40px;font-style:normal;font-variant:normal;font-weight:normal;font-stretch:normal;line-height:125%;letter-spacing:0px;word-spacing:0px;fill:#000000;fill-opacity:1;stroke:none;font-family:Segoe Print;-inkscape-font-specification:Segoe Print"
       x="656.52124"
       y="363.41867"
       id="text6913-0-7"
       sodipodi:linespacing="125%"><tspan
         sodipodi:role="line"
         x="656.52124"
         y="363.41867"
         id="tspan6921-2-6"
         style="font-size:16px;text-align:center;text-anchor:middle;font-weight:bold">ThirdPartyProcessorPayment</tspan><tspan
         sodipodi:role="line"
         x="656.52124"
         y="383.41867"
         style="font-size:16px;text-align:center;text-anchor:middle;font-weight:bold"
         id="tspan6973">(Aggregate)</tspan></text>
    <text
       xml:space="preserve"
       style="font-size:40px;font-style:normal;font-variant:normal;font-weight:normal;font-stretch:normal;line-height:125%;letter-spacing:0px;word-spacing:0px;fill:#000000;fill-opacity:1;stroke:none;font-family:Segoe Print;-inkscape-font-specification:Segoe Print"
       x="955.73218"
       y="364.44211"
       id="text6913-0-7-4"
       sodipodi:linespacing="125%"><tspan
         sodipodi:role="line"
         x="955.73218"
         y="364.44211"
         id="tspan6921-2-6-7"
         style="font-size:16px;text-align:center;text-anchor:middle;font-weight:bold">ThirdPartyProcessor</tspan><tspan
         sodipodi:role="line"
         x="955.73218"
         y="384.44211"
         style="font-size:16px;text-align:center;text-anchor:middle;font-weight:bold"
         id="tspan6973-1">(External Service)</tspan></text>
    <text
       xml:space="preserve"
       style="font-size:40px;font-style:normal;font-variant:normal;font-weight:normal;font-stretch:normal;line-height:125%;letter-spacing:0px;word-spacing:0px;fill:#000000;fill-opacity:1;stroke:none;font-family:Segoe Print;-inkscape-font-specification:Segoe Print"
       x="211.40727"
       y="331.77231"
       id="text6913-3"
       sodipodi:linespacing="125%"><tspan
         sodipodi:role="line"
         x="211.40727"
         y="331.77231"
         id="tspan6921-1"
         style="font-size:16px;text-align:center;text-anchor:middle">Orders and Registrations Bounded Context</tspan></text>
    <text
       xml:space="preserve"
       style="font-size:40px;font-style:normal;font-variant:normal;font-weight:normal;font-stretch:normal;line-height:125%;letter-spacing:0px;word-spacing:0px;fill:#000000;fill-opacity:1;stroke:none;font-family:Segoe Print;-inkscape-font-specification:Segoe Print"
       x="655.44794"
       y="331.77231"
       id="text6913-3-6"
       sodipodi:linespacing="125%"><tspan
         sodipodi:role="line"
         x="655.44794"
         y="331.77231"
         id="tspan6921-1-3"
         style="font-size:16px;text-align:center;text-anchor:middle">Payments Bounded Context</tspan></text>
    <path
       style="fill:#000000;fill-opacity:1;stroke:none"
       id="path7083"
       d="m 57.723727,94.791455 c -0.403966,2.68298 -0.618304,5.388685 -0.760624,8.096575 -0.153299,2.13337 0.0089,4.28101 -0.219392,6.40702 -0.461613,2.34259 -0.641899,4.71566 -0.754871,7.09629 0.03803,2.6416 -0.216943,5.24561 -0.543052,7.86142 -0.387352,2.60876 -0.306295,5.2568 -0.605143,7.87066 -0.534035,3.15634 -0.689675,6.35244 -0.803609,9.54589 -0.133492,2.91084 0.08036,5.82956 -0.354258,8.71755 -0.439592,2.12666 -0.556578,4.29215 -0.639095,6.45605 -0.406354,2.84959 -0.700193,5.70528 -0.866431,8.57897 -0.164674,3.33331 -0.172798,6.67169 -0.186102,10.00823 -0.01506,3.54738 0.0028,7.09477 0.01502,10.64212 0.01308,2.39102 0.0053,4.78205 0.0044,7.17309 1.77e-4,2.87417 -0.0069,5.74833 -0.0036,8.62251 -0.01246,3.46293 -0.0048,6.92589 -0.0058,10.38884 -0.245167,3.88929 -0.594146,7.76962 -0.79001,11.66233 -0.130359,2.85283 -0.160618,5.70871 -0.170818,8.56406 -0.0076,2.73833 -0.003,5.47667 -0.0049,8.21501 0.138202,3.54168 -0.169305,7.06137 -0.443013,10.58771 -0.333901,4.25987 -0.441285,8.53194 -0.503427,12.80289 -0.06448,5.3199 -0.05163,10.64022 -0.05446,15.96038 -0.06699,4.87042 0.156519,9.74782 -0.09004,14.61375 -0.417317,4.79794 -0.623164,9.60857 -0.751505,14.42168 -0.100983,4.4822 -0.11075,8.96576 -0.107222,13.44888 -2.54e-4,3.94322 0.0031,7.88643 0.0045,11.82965 -0.0015,4.16413 -0.0014,8.32827 2.63e-4,12.4924 -0.0011,4.15544 0.474874,8.29258 0.69305,12.44083 0.186466,3.90365 0.252996,7.81132 0.27949,11.71885 0.01686,3.11539 0.01542,6.23085 0.01207,9.34627 -0.0059,3.26537 -0.0059,6.53074 -0.0088,9.79611 -0.0049,4.22365 0.448704,8.43287 0.686771,12.64803 0.237522,4.66822 0.243067,9.34407 0.257308,14.01705 0.01352,5.13294 0.009,10.26591 0.01183,15.39886 0.215957,5.03939 0.54482,10.07232 1.053203,15.09051 0.260365,4.83895 0.87487,9.6005 1.684227,14.37356 0.606342,4.25687 1.231997,8.51273 1.655978,12.79262 0.427818,4.51339 0.893898,9.01709 1.135765,13.54622 0.472722,4.85807 0.856665,9.72064 1.067441,14.59734 0.226165,4.56281 0.04464,9.13518 0.29802,13.69532 0.390779,4.26416 0.610126,8.53962 0.739203,12.81892 0.110469,4.05312 0.113145,8.1078 0.117747,12.16206 -0.0027,4.13517 -0.002,8.27032 -0.0049,12.40549 -0.04263,4.15073 -0.372541,8.31134 -0.812377,12.43939 -0.471117,4.51601 -1.142769,9.00634 -1.593048,13.52461 -0.820047,4.6219 -1.566755,9.25508 -2.345772,13.88396 -0.73299,4.23591 -0.902759,8.53368 -1.0118,12.82191 -0.270196,3.92941 -0.644626,7.84842 -0.839414,11.78302 -0.160555,3.75778 -0.168616,7.51976 -0.177514,11.28027 -0.0066,4.23644 -0.0043,8.47286 0.0014,12.70929 0.170981,3.71419 0.443995,7.40035 1.332839,11.0142 0.813351,3.06638 1.211052,6.21541 1.723978,9.34018 0.440559,2.58743 0.672196,5.20089 0.788992,7.82081 -0.05946,2.28717 0.224349,4.53929 0.480429,6.80566 0.419574,3.05007 0.25258,6.14357 0.710727,9.18269 0.590845,2.70794 1.204103,5.4055 1.538696,8.15912 0.184631,2.01095 0.16605,4.01482 0.49965,6.00896 0.410083,2.04448 0.554141,4.11992 0.62576,6.19911 0.06728,3.03698 0.06099,6.07499 0.06042,9.11253 -0.314681,3.62404 -0.6413,7.24086 -0.805383,10.87633 0.01277,1.82069 -0.199272,3.62856 -0.403439,5.43379 0,0 -3.394258,1.67983 -3.394258,1.67983 l 0,0 c 0.218614,-1.79962 0.456119,-3.60172 0.43655,-5.41955 0.154394,-3.62678 0.433081,-7.23834 0.790231,-10.85002 -0.0015,-3.0308 0.0068,-6.06222 -0.07023,-9.09229 -0.0768,-2.06093 -0.209818,-4.12092 -0.614164,-6.14824 -0.344579,-2.0019 -0.350443,-4.00664 -0.501902,-6.02975 -0.31381,-2.75441 -0.905499,-5.4552 -1.506961,-8.15933 -0.495022,-3.03846 -0.313213,-6.13547 -0.730229,-9.19006 -0.265951,-2.27267 -0.592657,-4.52645 -0.507315,-6.82284 -0.102245,-2.60924 -0.31174,-5.21387 -0.745675,-7.79135 -0.515331,-3.11559 -0.904412,-6.25672 -1.704129,-9.31735 -0.896982,-3.64599 -1.187345,-7.35412 -1.359299,-11.1029 0.0012,-4.23639 -0.0055,-8.47277 -0.004,-12.70916 0.0088,-3.76379 -0.0046,-7.52941 0.157699,-11.29056 0.201903,-3.93586 0.564765,-7.8567 0.865703,-11.78546 0.103422,-4.30278 0.249088,-8.61735 0.98466,-12.86821 0.782266,-4.62202 1.53333,-9.24808 2.360209,-13.86257 0.448674,-4.51869 1.117107,-9.00975 1.588137,-13.52593 0.454673,-4.11354 0.7555,-8.26403 0.825588,-12.40068 6.06e-4,-4.13479 0.0087,-8.26957 0.004,-12.40436 -0.0044,-4.05199 -0.01115,-8.10449 -0.106575,-12.15555 -0.127934,-4.27643 -0.341283,-8.54833 -0.736203,-12.80943 -0.259103,-4.56243 -0.06895,-9.13896 -0.290784,-13.70478 -0.2047,-4.87693 -0.573431,-9.74033 -1.05787,-14.59755 -0.2454,-4.52166 -0.723007,-9.01593 -1.146775,-13.522 -0.413097,-4.27429 -1.047714,-8.52097 -1.636462,-12.77343 -0.80054,-4.78315 -1.438655,-9.5517 -1.685652,-14.40095 -0.504766,-5.02979 -0.842128,-10.07192 -1.074787,-15.12193 0.0077,-5.13434 0.01355,-10.26871 2.48e-4,-15.40305 -0.02485,-4.66334 -0.04449,-9.32894 -0.27212,-13.98781 -0.231101,-4.21953 -0.682466,-8.43101 -0.714985,-12.65717 -0.002,-3.26374 -4.03e-4,-6.52749 -0.0013,-9.79124 0.0014,-3.11655 0.0103,-6.2331 5.07e-4,-9.34965 -0.02307,-3.90568 -0.06374,-7.81228 -0.249805,-11.71426 -0.223429,-4.15297 -0.705336,-8.29481 -0.709491,-12.45484 0.0013,-4.16347 9.26e-4,-8.32693 -0.0039,-12.49039 -0.0022,-3.94351 -0.0062,-7.88701 -0.0041,-11.83052 0.01431,-4.48948 0.01763,-8.97953 0.123402,-13.46802 0.132667,-4.81262 0.31644,-9.62564 0.732638,-14.42344 0.278943,-4.86353 0.05301,-9.74233 0.130743,-14.61163 -0.0051,-5.31661 -0.01058,-10.63339 0.02204,-15.9499 0.0585,-4.27762 0.159321,-8.55611 0.491162,-12.8229 0.264443,-3.5134 0.564421,-7.01964 0.427619,-10.54736 -0.0058,-2.73705 -0.01094,-5.47411 -0.007,-8.21117 0.01592,-2.86488 0.04501,-5.73021 0.18796,-8.59217 0.195644,-3.88648 0.549664,-7.7603 0.794502,-11.6433 -9.99e-4,-3.46097 0.0067,-6.92196 -0.0058,-10.38291 0.0034,-2.8729 -0.0036,-5.74578 -0.0039,-8.61868 -0.0014,-2.39146 -0.0101,-4.78291 -0.0013,-7.17437 0.0064,-3.55213 0.01604,-7.10427 0.01015,-10.6564 0.0042,-3.33996 -0.0093,-6.68228 0.161693,-10.01896 0.161885,-2.86731 0.404187,-5.72501 0.852871,-8.56358 0.0779,-2.17408 0.154225,-4.35749 0.609472,-6.49283 0.483703,-2.87729 0.292499,-5.78837 0.416511,-8.696 0.103477,-3.19592 0.220967,-6.39955 0.754751,-9.55897 0.34469,-2.60987 0.223515,-5.26438 0.612499,-7.87424 0.316401,-2.60875 0.612674,-5.20179 0.559744,-7.83725 0.105402,-2.38359 0.234245,-4.76882 0.722509,-7.11127 0.279491,-2.11494 0.0711,-4.26378 0.24267,-6.39045 0.144321,-2.71364 0.369456,-5.422205 0.72539,-8.117031 0,0 3.43582,-1.689664 3.43582,-1.689664 z"
       inkscape:connector-curvature="0"
       transform="translate(0,308.2677)" />
    <path
       style="fill:#000000;fill-opacity:1;stroke:none"
       id="path7085"
       d="m 358.75255,90.046084 c 0.15471,3.628098 -0.52951,7.203772 -1.2858,10.735276 -0.92659,4.15714 -2.32425,8.18684 -3.33067,12.32715 -0.65323,3.33885 -1.30283,6.68639 -1.75551,10.06002 -0.57392,2.96077 -0.99815,5.93392 -1.2076,8.94197 -0.16808,2.96137 -0.17316,5.92845 -0.18859,8.89354 -0.0586,3.51162 0.44813,6.99874 0.70213,10.49551 0.0821,3.13381 0.56013,6.23168 0.8485,9.34893 0.14913,3.80911 0.62474,7.59023 0.95682,11.38516 0.27584,3.32401 0.35735,6.65794 0.40039,9.99153 0.0237,3.20937 0.016,6.41886 0.0106,9.62829 -0.004,3.92554 -0.0113,7.85106 -0.0202,11.77659 -0.0552,4.59757 0.1206,9.19981 -0.10751,13.79319 -0.36302,3.62563 -0.44578,7.27767 -0.84133,10.89862 -0.44084,2.92817 -0.72215,5.87205 -0.86331,8.82871 -0.30691,3.16457 -0.70044,6.31734 -0.90039,9.49136 -0.15909,3.38164 -0.63085,6.73753 -0.8778,10.11407 -0.22426,3.41529 -0.24789,6.83905 -0.26927,10.26027 -0.0177,4.03664 -0.0121,8.07332 -0.009,12.10998 0.005,3.92197 0.002,7.84394 0.009,11.7659 0.006,3.87436 -0.008,7.74871 -0.005,11.62307 0.003,3.59893 0.008,7.19786 0.009,10.79679 -0.008,3.63667 -0.006,7.27335 -7.2e-4,10.91002 0.003,3.16261 0.004,6.32522 0.003,9.48783 -0.002,3.65667 -0.006,7.31333 -0.0133,10.97 -0.019,5.76331 -0.0223,11.52661 -0.0212,17.28996 0.006,4.57083 0.0188,9.14165 0.0306,13.71247 0.001,3.5592 -0.003,7.11842 -0.002,10.67764 0.004,3.35506 0.003,6.71013 0.004,10.06519 0.003,3.13507 8e-5,6.27014 0.003,9.40522 0.0304,3.32082 -0.0962,6.64393 0.10383,9.96 0.30315,3.93327 0.54612,7.86578 1.01107,11.78357 0.23254,4.37138 0.85328,8.66038 1.61066,12.96608 0.66791,4.62572 1.36219,9.24473 1.77053,13.90195 0.45899,3.48819 0.90175,6.97383 1.14037,10.48484 0.12113,2.98914 0.61045,5.94529 0.87514,8.92353 0.10918,2.93778 0.5472,5.84481 0.83606,8.76733 0.28562,3.0418 0.34647,6.09889 0.38444,9.15204 -0.11694,3.24334 0.18321,6.46018 0.4344,9.68826 0.22685,5.61874 0.54244,11.22821 0.90997,16.83979 0.53322,5.10073 1.02946,10.20428 1.34875,15.3232 0.16634,2.71949 0.22233,5.44353 0.23955,8.16746 0.007,2.28942 -0.009,4.5788 -0.0114,6.86822 -0.003,2.78822 -0.0105,5.57641 -0.008,8.36464 4e-5,2.68636 0.003,5.37271 0.004,8.05907 0.007,2.46045 -5e-4,4.9209 -0.001,7.38135 6.7e-4,2.65411 -4.8e-4,5.30822 4.1e-4,7.96234 -0.009,2.7011 -0.48473,5.37433 -0.70034,8.06559 -0.17588,3.25747 -0.69492,6.48058 -0.96528,9.7312 -0.23201,3.01085 -0.25486,6.03197 -0.27752,9.05 -0.0895,3.72847 -0.44778,7.46102 -0.82659,11.17249 -0.49921,4.156 -0.72013,8.33399 -1.26502,12.48396 -0.53076,3.42823 -0.53771,6.90292 -0.86622,10.34809 -0.3467,2.86118 -0.63764,5.72738 -0.79712,8.60524 -0.12604,2.96974 -0.12092,5.94329 -0.12272,8.91514 -0.003,2.8372 0.009,5.67439 0.0165,8.51158 0.033,2.46666 -0.0825,4.93429 0.10468,7.39523 0.33231,3.07079 0.57297,6.14379 1.00972,9.20172 0.48078,3.20131 0.65424,6.43315 0.75432,9.66501 0.18186,3.40015 0.92888,6.72585 1.42977,10.08508 0.36518,2.45643 0.50494,4.93571 0.56746,7.41564 0.034,1.95991 0.0239,3.92022 0.0196,5.88032 -0.046,1.28072 0.005,2.55035 0.0911,3.82777 0,0 -3.36656,1.74736 -3.36656,1.74736 l 0,0 c -0.10695,-1.28196 -0.17654,-2.55369 -0.12994,-3.84098 0.005,-1.95788 0.0149,-3.91592 -0.0114,-5.8737 -0.0514,-2.46953 -0.17123,-4.93949 -0.52013,-7.38761 -0.48827,-3.37528 -1.24354,-6.71185 -1.45069,-10.12351 -0.0958,-3.21868 -0.25621,-6.43852 -0.73521,-9.62697 -0.44284,-3.06396 -0.6884,-6.14214 -1.02741,-9.21911 -0.20985,-2.46647 -0.11125,-4.94201 -0.13089,-7.41582 0.003,-2.84108 0.007,-5.68215 0.005,-8.52323 0.004,-2.97433 -0.0187,-5.95021 0.0922,-8.923 0.16223,-2.88672 0.46159,-5.76091 0.8117,-8.63067 0.35261,-3.44773 0.33582,-6.92922 0.86585,-10.36269 0.56952,-4.14861 0.80229,-8.32617 1.29318,-12.48468 0.37972,-3.69467 0.69185,-7.41445 0.81133,-11.12437 0.0152,-3.02624 0.0324,-6.05624 0.2634,-9.07533 0.26851,-3.25069 0.78884,-6.47268 0.96648,-9.72879 0.19158,-2.68409 0.66117,-5.3455 0.70208,-8.03432 8.9e-4,-2.65425 -2.6e-4,-5.30849 4e-4,-7.96274 -8.5e-4,-2.45998 -0.008,-4.91996 -0.001,-7.37995 9.1e-4,-2.68763 0.003,-5.37525 0.004,-8.06288 0.003,-2.78699 -0.004,-5.57396 -3.3e-4,-8.36094 0.003,-2.28722 2.3e-4,-4.57443 0.003,-6.86164 -0.007,-2.72499 -0.0409,-5.45047 -0.18505,-8.17223 -0.28451,-5.12681 -0.76426,-10.23713 -1.30605,-15.34279 -0.36,-5.60294 -0.6943,-11.20336 -0.9514,-16.81159 -0.27125,-3.23099 -0.59972,-6.45026 -0.47031,-9.69893 -0.036,-3.0442 -0.0839,-6.09194 -0.36474,-9.12547 -0.28706,-2.92329 -0.74699,-5.82827 -0.84568,-8.7672 -0.25397,-2.98281 -0.74446,-5.94213 -0.87321,-8.93367 -0.22162,-3.51325 -0.64955,-7.00231 -1.11133,-10.49136 -0.38948,-4.6496 -1.05893,-9.26152 -1.75198,-13.87433 -0.75225,-4.31115 -1.39778,-8.60204 -1.63167,-12.97842 -0.46789,-3.9236 -0.7022,-7.86095 -1.02598,-11.79872 -0.229,-3.31956 -0.0873,-6.64935 -0.12765,-9.97526 0.003,-3.13613 -3.2e-4,-6.27226 0.003,-9.40839 7e-5,-3.35627 -5.5e-4,-6.71254 0.004,-10.06881 0.001,-3.55868 -0.003,-7.11736 -0.002,-10.67603 0.0118,-4.58122 0.0249,-9.16244 0.0306,-13.74366 0.001,-5.75614 -0.002,-11.51223 -0.0212,-17.26833 -0.007,-3.65215 -0.0115,-7.30431 -0.0133,-10.95648 -8.9e-4,-3.16353 1.1e-4,-6.32706 0.003,-9.49059 0.006,-3.63643 0.007,-7.27287 -7.1e-4,-10.90929 0.001,-3.60203 0.006,-7.20406 0.009,-10.80608 0.003,-3.87262 -0.0103,-7.74522 -0.005,-11.61784 0.006,-3.92358 0.001,-7.84717 0.001,-11.77075 -0.002,-4.03555 -0.009,-8.07112 -0.003,-12.10666 0.0162,-3.42776 0.0282,-6.85856 0.25373,-10.28042 0.23697,-3.37473 0.71637,-6.72707 0.87061,-10.10589 0.18635,-3.17428 0.58885,-6.32411 0.90605,-9.48689 0.11672,-2.96597 0.39824,-5.91851 0.85326,-8.85298 0.4237,-3.61604 0.48934,-7.26927 0.87609,-10.891 0.2635,-4.58689 0.0596,-9.18701 0.12503,-13.7796 -0.008,-3.92054 -0.0135,-7.84108 -0.01,-11.76163 1e-5,-3.20685 0.008,-6.41376 -0.0154,-9.62055 -0.0341,-3.32732 -0.10855,-6.65591 -0.37191,-9.97433 -0.32593,-3.79343 -0.80603,-7.57224 -0.96449,-11.37864 -0.28965,-3.11985 -0.79002,-6.21765 -0.85314,-9.35526 -0.25065,-3.50565 -0.74299,-7.00167 -0.71486,-10.5205 -0.003,-2.9719 0.005,-5.9453 0.17401,-8.91349 0.19199,-3.01634 0.59406,-5.99813 1.19302,-8.96219 0.44161,-3.39248 1.12049,-6.75298 1.76652,-10.11026 1.00381,-4.13621 2.37838,-8.16715 3.32426,-12.31384 0.76933,-3.495313 1.48187,-7.044451 1.27709,-10.640304 0,0 3.40662,-1.735762 3.40662,-1.735762 z"
       inkscape:connector-curvature="0"
       transform="translate(0,308.2677)" />
    <path
       style="fill:#000000;fill-opacity:1;stroke:none"
       id="path7087"
       d="m 660.65046,94.767069 c -0.0301,3.348868 -0.0221,6.697961 -0.0218,10.046941 0.22254,3.19618 0.59452,6.37843 0.7933,9.57678 0.40828,2.91016 0.77227,5.82307 0.97222,8.75555 0.18193,3.17795 0.6472,6.32834 0.87253,9.50543 0.19651,3.39211 0.72032,6.75072 0.96072,10.14051 -0.0326,3.90739 -0.35643,7.80523 -0.51912,11.70891 -0.14101,3.68446 -0.16405,7.37179 -0.17802,11.05845 -0.0518,3.55215 0.10607,7.10883 -0.11061,10.65604 -0.34649,3.63259 -0.57362,7.26974 -1.01404,10.89257 -0.53799,3.96672 -0.67108,7.9678 -0.76142,11.96461 0.20678,4.38945 -0.60584,8.69685 -1.21684,13.02092 -0.37604,3.62778 -0.74633,7.25092 -1.16968,10.87413 -0.4517,4.37164 -0.49922,8.77119 -0.55828,13.16163 -0.0411,5.04444 -0.0322,10.08913 -0.0307,15.13369 0.001,5.15364 0.005,10.30728 0.006,15.46091 -0.005,5.63492 0.43675,11.26004 0.69597,16.88738 0.27551,4.50281 0.11471,9.02091 0.39293,13.52132 0.3713,3.79061 0.62143,7.58835 0.75469,11.39432 -0.0288,3.61544 0.19025,7.2045 0.549,10.79914 0.30571,4.08641 0.60072,8.17318 0.91415,12.25959 0.37672,4.8635 0.47552,9.74165 0.54299,14.61732 0.0394,4.30421 0.0456,8.60875 0.0405,12.91313 0.0529,4.24525 0.0136,8.47718 -0.28175,12.71236 -0.45809,4.36781 -0.3282,8.77693 -0.85569,13.13331 -0.7592,4.54444 -1.23577,9.12588 -1.8311,13.69276 -0.54174,3.99708 -0.74169,8.02604 -0.85303,12.05439 -0.0699,3.28723 -0.0579,6.57544 -0.0572,9.8632 0.007,3.36571 0.008,6.73143 0.003,10.09713 -0.003,4.04546 -0.001,8.09092 -2.7e-4,12.13637 0.0737,4.14272 -0.19823,8.29563 0.21756,12.42188 0.71693,4.60483 1.16651,9.24199 1.75718,13.86319 0.60413,4.57117 1.06396,9.16335 1.68029,13.73188 0.63339,3.94799 0.91246,7.93798 1.08325,11.9289 0.0821,3.53417 0.54877,7.04451 0.81509,10.5678 0.22567,3.27754 0.24739,6.56357 0.25347,9.84731 0.008,4.71639 -0.009,9.43275 -0.009,14.14915 -0.005,5.35911 -0.004,10.71823 -0.0129,16.07734 0.007,6.11944 -0.45914,12.22749 -0.6996,18.34073 -0.39984,5.84988 -0.71864,11.68924 -1.59405,17.48944 -1.06452,5.17864 -1.79602,10.41334 -2.50858,15.64919 -0.54048,4.84018 -0.9353,9.69548 -1.37917,14.54607 -0.24278,4.31417 -0.77977,8.60123 -1.13106,12.90657 -0.15961,3.78889 -0.46468,7.55817 -0.82984,11.33184 -0.39796,4.14427 -0.46898,8.30893 -0.52369,12.46885 -0.0544,4.76348 -0.0327,9.52735 -0.0375,14.29103 0.008,4.05311 0.0158,8.10623 0.0183,12.15936 0.0675,3.01034 -0.1179,6.0303 0.11999,9.03376 0.4364,2.64258 1.4051,5.14398 2.37014,7.62757 0.734,2.11505 1.36184,4.26433 2.00445,6.40869 0.60607,2.39215 1.37186,4.7379 2.05113,7.10987 0.78232,3.05901 1.4168,6.14477 1.83387,9.27455 0.14949,2.41738 0.60882,4.79346 0.92926,7.19058 0,0 -3.37229,1.77436 -3.37229,1.77436 l 0,0 c -0.31242,-2.4005 -0.79513,-4.77512 -0.9183,-7.19725 -0.39352,-3.11596 -1.01832,-6.1838 -1.80794,-9.22371 -0.68027,-2.36883 -1.46594,-4.70574 -2.05974,-7.09859 -0.65406,-2.13158 -1.26272,-4.27715 -1.98493,-6.3869 -0.97148,-2.51962 -1.95623,-5.05104 -2.41703,-7.72559 -0.26784,-3.01439 -0.049,-6.04965 -0.11326,-9.07285 3.1e-4,-4.05733 0.004,-8.11465 0.007,-12.17198 -0.009,-4.76392 7e-4,-9.52788 0.0279,-14.29174 0.0534,-4.16588 0.1006,-8.3377 0.49346,-12.48866 0.3621,-3.77464 0.68485,-7.54286 0.84423,-11.33266 0.34786,-4.30877 0.88747,-8.59814 1.13821,-12.91469 0.44993,-4.85725 0.84723,-9.71846 1.38319,-14.56616 0.71157,-5.23959 1.43294,-10.48036 2.51531,-15.6594 0.89632,-5.78881 1.217,-11.61525 1.62177,-17.4566 0.24359,-6.10821 0.7124,-12.21185 0.7034,-18.32618 -0.008,-5.35607 -0.006,-10.71213 -0.005,-16.0682 0.004,-4.71132 2e-4,-9.42267 -0.016,-14.13397 -0.0273,-3.27323 -0.0444,-6.54888 -0.2566,-9.81669 -0.25194,-3.52996 -0.72308,-7.04504 -0.81028,-10.58395 -0.15824,-3.98315 -0.4238,-7.96471 -1.05374,-11.90527 -0.60687,-4.57187 -1.06475,-9.16562 -1.67377,-13.73805 -0.58552,-4.62376 -1.03787,-9.26277 -1.76582,-13.86787 -0.45305,-4.13333 -0.16984,-8.29884 -0.24531,-12.45195 7.7e-4,-4.04478 0.003,-8.08956 -0.003,-12.13434 -0.008,-3.36326 -0.0136,-6.72653 -0.0166,-10.08979 -0.005,-3.29261 -0.007,-6.58556 0.0616,-9.87763 0.11319,-4.04299 0.31633,-8.08714 0.85622,-12.09906 0.59959,-4.56566 1.06975,-9.14677 1.83077,-13.69033 0.56375,-4.34671 0.38734,-8.75554 0.86811,-13.1164 0.29488,-4.22536 0.33515,-8.44784 0.28181,-12.68329 -3.6e-4,-4.30513 0.0173,-8.61035 -0.0251,-12.91538 -0.0573,-4.86985 -0.15475,-9.74195 -0.5243,-14.59997 -0.3148,-4.07845 -0.66448,-8.15256 -0.94784,-12.2329 -0.35163,-3.60443 -0.59318,-7.20021 -0.55041,-10.82558 -0.1296,-3.80396 -0.37352,-7.6001 -0.74286,-11.3888 -0.2802,-4.50704 -0.11567,-9.03137 -0.36782,-13.54171 -0.24002,-5.63288 -0.68785,-11.26116 -0.70816,-16.89966 -0.001,-5.15338 -0.001,-10.30675 -0.007,-15.46013 -0.004,-5.04561 -0.0112,-10.09132 0.0271,-15.13683 0.0409,-4.39577 0.0894,-8.79963 0.5058,-13.17915 0.4184,-3.62952 0.81906,-7.25461 1.17938,-10.88995 0.62131,-4.31135 1.45145,-8.606 1.24487,-12.98454 0.0852,-4.00447 0.18427,-8.01559 0.72776,-11.99011 0.45044,-3.61523 0.66892,-7.24508 1.01782,-10.87086 0.25598,-3.53844 0.0544,-7.09222 0.12694,-10.63772 0.0145,-3.6917 0.0259,-7.38453 0.17699,-11.07376 0.15906,-3.89015 0.47181,-7.77381 0.53054,-11.66691 -0.24564,-3.38921 -0.76162,-6.7486 -0.96325,-10.13953 -0.22502,-3.17603 -0.69588,-6.32389 -0.8866,-9.49969 -0.19453,-2.93417 -0.5419,-5.84983 -0.97106,-8.75875 -0.19285,-3.20791 -0.54773,-6.40019 -0.7912,-9.60386 3.2e-4,-3.34157 0.008,-6.683262 -0.0218,-10.024725 0,0 3.41187,-1.738436 3.41187,-1.738436 z"
       inkscape:connector-curvature="0"
       transform="translate(0,308.2677)" />
    <path
       style="fill:#000000;fill-opacity:1;stroke:none"
       id="path7095"
       d="m 963.4096,89.95339 c -0.21507,2.551444 -0.85033,5.028128 -1.32922,7.535288 -0.36416,2.109154 -0.92095,4.164772 -1.19392,6.291382 -0.27377,2.59051 -0.2737,5.19966 -0.29409,7.80154 -0.1325,2.7686 0.0978,5.50549 0.42837,8.24994 0.54297,2.28786 0.93473,4.60547 1.4071,6.90704 0.54521,3.00751 1.25847,5.9764 1.6621,9.00869 0.51544,2.80831 0.96461,5.61886 1.17161,8.46739 -0.007,2.86605 0.43923,5.69144 0.75844,8.53108 0.31599,3.28961 0.32497,6.59894 0.36599,9.90063 0.0338,2.73675 0.0287,5.47365 0.0202,8.21051 -0.007,3.22946 -0.01,6.45894 -0.006,9.6884 7e-4,3.09776 -0.003,6.19552 -0.001,9.29327 0.13433,3.18977 -0.1147,6.35115 -0.43109,9.52078 -0.20714,3.36255 -0.55164,6.7035 -0.93644,10.04949 -0.42336,4.06958 -0.49597,8.16403 -0.55128,12.2518 -0.0402,3.64922 -0.0296,7.29869 -0.0276,10.94804 0.005,3.12338 0.0113,6.24677 0.0115,9.37015 -0.002,3.2699 -0.002,6.5398 -0.004,9.8097 0.0353,3.44917 -0.43821,6.87712 -0.69268,10.31244 -0.22456,3.37155 -0.24794,6.75153 -0.27878,10.129 0.009,4.17066 -0.44535,8.325 -0.70034,12.48499 -0.51442,4.06724 -0.85866,8.14665 -1.05787,12.24068 -0.0201,3.99798 -0.3108,7.97259 -0.62363,11.95536 -0.54627,4.46479 -1.01007,8.93571 -1.28146,13.42587 -0.0151,3.30317 -0.46744,6.57147 -0.78456,9.85274 -0.13634,3.10531 -0.62244,6.17472 -0.94808,9.26231 -0.13699,2.76286 -0.44974,5.4954 -0.81757,8.23484 -0.40587,3.20538 -0.47671,6.43792 -0.53238,9.66422 -0.0436,3.63794 -0.0332,7.27624 -0.0298,10.91435 0.006,3.18938 0.009,6.37876 0.007,9.56814 -6e-4,3.79719 -0.01,7.59439 -0.009,11.39158 -0.0529,3.68529 0.44145,7.3489 0.70395,11.01981 0.23062,3.44993 0.72872,6.86906 0.96074,10.32144 0.21627,4.05335 0.73585,8.07905 0.96606,12.1327 0.21293,4.58259 0.71784,9.14166 0.96406,13.72354 0.0583,4.47107 0.53633,8.91529 0.8522,13.37148 0.28902,4.29941 0.34802,8.60929 0.37809,12.91682 0.0668,4.57442 -0.0949,9.15252 0.12531,13.72294 0.33182,4.21481 0.59112,8.43284 0.74782,12.6577 0.11901,3.75263 0.11278,7.50756 0.11474,11.26161 0.002,4.32532 -0.008,8.65063 -0.01,12.97594 1e-4,4.22695 0.003,8.45389 0.004,12.68083 -0.15103,4.21915 0.13397,8.4151 0.4255,12.61963 0.253,4.27648 0.87237,8.51826 1.20594,12.78915 0.20426,3.59649 0.72365,7.16262 1.01048,10.75333 0.52982,3.19371 0.74428,6.4262 1.16896,9.63146 0.5471,3.37948 0.78405,6.79426 0.9299,10.21102 0.15293,3.56891 0.56463,7.1221 0.80669,10.68715 0.22337,3.39607 0.24282,6.79906 0.26238,10.20077 0.24257,3.55592 0.61083,7.0988 0.79295,10.65921 0.21349,3.30769 0.19753,6.60218 -0.0878,9.90213 -0.33211,3.29083 -0.5166,6.58875 -0.90356,9.87381 -0.51911,3.80589 -0.94116,7.62969 -1.51782,11.42744 -0.58109,3.25906 -0.86875,6.55513 -1.34402,9.82938 -0.44349,3.06189 -0.59673,6.14759 -1.01662,9.2119 -0.3439,3.11507 -0.72684,6.22133 -1.13088,9.32959 -0.22705,2.91181 -0.7722,5.78037 -1.13722,8.6751 -0.16607,2.81954 -0.4936,5.61022 -0.84404,8.41103 -0.40882,3.61124 -0.927,7.20356 -1.22042,10.82811 -0.21523,2.80591 -0.26969,5.61984 -0.29046,8.43274 -0.008,2.13694 5.1e-4,4.27389 0.005,6.41082 0.006,2.28034 -0.003,4.56067 -0.002,6.84102 3.9e-4,0.4092 7.7e-4,0.81841 0.001,1.22761 0,0 -3.3929,1.72883 -3.3929,1.72883 l 0,0 c 2.8e-4,-0.40953 5.6e-4,-0.81907 8.4e-4,-1.2286 1.7e-4,-2.27804 -0.009,-4.55603 -0.0109,-6.83406 -0.003,-2.14 -0.008,-4.28002 0.005,-6.42 0.025,-2.82574 0.0755,-5.65249 0.30415,-8.4706 0.2953,-3.62566 0.79963,-7.22111 1.19948,-10.83423 0.32597,-2.80297 0.7098,-5.58735 0.83887,-8.41034 0.36003,-2.89834 0.91657,-5.76698 1.14664,-8.68129 0.39723,-3.10928 0.79515,-6.21305 1.12435,-9.32994 0.4229,-3.06656 0.59205,-6.15116 1.02175,-9.21744 0.47302,-3.27749 0.76681,-6.57549 1.35069,-9.83678 0.59765,-3.78971 1.0055,-7.61196 1.51965,-11.41365 0.39593,-3.2817 0.5586,-6.57679 0.90913,-9.86357 0.29462,-3.28403 0.30845,-6.56237 0.11206,-9.8557 -0.17976,-3.56593 -0.53309,-7.11569 -0.79874,-10.67543 -0.0181,-3.39457 -0.0545,-6.79064 -0.25205,-10.18042 -0.22905,-3.5688 -0.66109,-7.1219 -0.81608,-10.69261 -0.13901,-3.40608 -0.36402,-6.81074 -0.91705,-10.17869 -0.4347,-3.21058 -0.63458,-6.45199 -1.17724,-9.65083 -0.27226,-3.59414 -0.79452,-7.16199 -0.99773,-10.76043 -0.32205,-4.27492 -0.92805,-8.52046 -1.19144,-12.79898 -0.30785,-4.20964 -0.60166,-8.41118 -0.45075,-12.63674 0.002,-4.22914 0.005,-8.45828 0.008,-12.68742 0.001,-4.32318 -0.001,-8.64637 -0.001,-12.96956 -0.007,-3.74927 -0.0119,-7.4992 -0.11477,-11.24734 -0.1377,-4.22641 -0.39311,-8.44574 -0.72829,-12.66116 -0.24091,-4.57403 -0.055,-9.15747 -0.13414,-13.73633 -0.0382,-4.30006 -0.0871,-8.60254 -0.36921,-12.89502 -0.31208,-4.45982 -0.80075,-8.90673 -0.84623,-13.38167 -0.24466,-4.58012 -0.75436,-9.1372 -0.97173,-13.7176 -0.24198,-4.04988 -0.74857,-8.07383 -0.97727,-12.12301 -0.23378,-3.45048 -0.74155,-6.86686 -0.97099,-10.31488 -0.25538,-3.68235 -0.74557,-7.35691 -0.69839,-11.0525 2e-4,-3.79371 -0.009,-7.58742 -0.011,-11.38113 -0.003,-3.18988 -0.005,-6.37976 -0.004,-9.56964 -8.3e-4,-3.64148 -1.4e-4,-7.28303 0.0362,-10.92436 0.0439,-3.23512 0.0944,-6.4759 0.48899,-9.69173 0.35742,-2.73903 0.71004,-5.4663 0.83121,-8.22965 0.3155,-3.08795 0.82086,-6.15433 0.94845,-9.25956 0.31806,-3.28127 0.78325,-6.54775 0.80996,-9.85036 0.27594,-4.49323 0.74743,-8.9673 1.28844,-13.43594 0.29704,-3.97958 0.60554,-7.94941 0.62243,-11.94337 0.20551,-4.0928 0.50929,-8.17685 1.04844,-12.24111 0.25834,-4.15426 0.73222,-8.30282 0.71365,-12.46803 0.007,-3.38237 0.032,-6.76673 0.2506,-10.1434 0.24895,-3.42885 0.74272,-6.8481 0.70982,-10.29004 -0.002,-3.26821 -0.002,-6.53641 -0.006,-9.80461 -0.002,-3.12511 -3.5e-4,-6.25021 -0.001,-9.37531 -0.003,-3.65334 -0.003,-7.30683 0.0382,-10.95999 0.066,-4.09565 0.12296,-8.19781 0.52009,-12.27784 0.37803,-3.34488 0.75074,-6.68032 0.93483,-10.04315 0.32109,-3.15774 0.58369,-6.30646 0.44519,-9.48528 0.002,-3.09749 -0.002,-6.19499 -3.3e-4,-9.29248 0.006,-3.22928 0.006,-6.45856 0.004,-9.68784 -0.004,-2.73707 0.002,-5.47413 -0.009,-8.21119 -0.0286,-3.28819 -0.0504,-6.58293 -0.36384,-9.85903 -0.31183,-2.84553 -0.77153,-5.67477 -0.76134,-8.54603 -0.2042,-2.84123 -0.6279,-5.65009 -1.15994,-8.44846 -0.39149,-3.02386 -1.08091,-5.98563 -1.66208,-8.97586 -0.49473,-2.30804 -0.84508,-4.6473 -1.41263,-6.94185 -0.32843,-2.7591 -0.59768,-5.50841 -0.44992,-8.29261 0.014,-2.61262 0.0142,-5.23248 0.2627,-7.83548 0.25555,-2.13865 0.79249,-4.2009 1.18292,-6.313253 0.4713,-2.501276 1.16115,-4.960976 1.3225,-7.512613 0,0 3.43582,-1.689664 3.43582,-1.689664 z"
       inkscape:connector-curvature="0"
       transform="translate(0,308.2677)" />
    <path
       style="fill:#008000;fill-opacity:1;stroke:none"
       d="M 87.875 107.21875 C 87.430023 107.23381 86.980739 107.2726 86.53125 107.28125 C 84.526097 107.33957 82.514854 107.43185 80.53125 107.75 C 78.149064 108.11437 75.792441 108.36689 73.375 108.21875 C 71.072842 108.21461 68.770909 108.21475 66.46875 108.21875 C 63.521553 108.22175 60.572168 108.23535 57.625 108.21875 L 54.53125 110.46875 C 57.483884 110.45215 60.453588 110.46475 63.40625 110.46875 C 65.707614 110.47262 67.979887 110.47275 70.28125 110.46875 C 72.701034 110.58424 75.07906 110.38809 77.46875 110.03125 C 79.441847 109.70906 81.442054 109.59925 83.4375 109.53125 C 85.098445 109.55027 86.951361 109.12211 88.34375 110.21875 C 89.292311 111.55297 89.23149 113.27193 89.28125 114.84375 C 89.30864 116.77974 89.29357 118.72022 89.28125 120.65625 C 89.26639 122.74277 89.2515 124.81969 89.25 126.90625 C 89.297503 129.16195 89.284573 131.39036 88.96875 133.625 C 88.618641 135.72974 88.43952 137.87035 88.34375 140 C 88.27506 141.94808 88.281801 143.89475 88.28125 145.84375 C 88.231684 146.74401 88.404186 147.77142 88.125 148.65625 C 86.812096 148.87286 85.455446 148.83639 84.125 148.65625 C 82.154433 148.30112 80.185118 148.08089 78.1875 147.96875 C 76.249176 147.88115 74.283603 147.878 72.34375 147.875 C 70.409035 147.875 68.497214 147.873 66.5625 147.875 C 64.627376 147.87668 62.685124 147.87486 60.75 147.875 C 59.5386 147.875 60.085146 147.88 59.03125 147.875 L 57.375 149.09375 C 56.538733 147.90463 56.894196 146.57257 58 145.3125 C 59.854759 143.35556 62.03268 141.79146 64.09375 140.0625 L 60.53125 141.46875 C 58.483747 143.21662 56.312989 144.81084 54.5 146.8125 C 53.068819 148.53477 53.094328 150.27708 54.71875 151.78125 C 56.534981 152.85076 58.647589 153.13365 60.53125 154.0625 C 62.386217 155.2408 64.065069 156.66093 65.875 157.90625 L 69.09375 155.84375 C 67.259315 154.6059 65.565869 153.18684 63.71875 151.96875 C 62.165972 151.14966 60.453058 150.76907 58.84375 150.125 C 60.383567 150.12497 61.928933 150.1258 63.46875 150.125 C 65.40333 150.124 67.315419 150.126 69.25 150.125 C 71.186048 150.1262 73.127563 150.1128 75.0625 150.1875 C 77.053702 150.28585 79.037534 150.47946 81 150.84375 C 83.001103 151.14849 85.012265 151.18495 86.96875 150.5625 C 91.333486 147.98242 91.78731 148.50543 91.6875 144.09375 C 91.68868 142.15019 91.67643 140.22374 91.75 138.28125 C 91.851181 136.16309 92.033228 134.06309 92.375 131.96875 C 92.676272 129.71875 92.69746 127.45569 92.65625 125.1875 C 92.65807 123.10037 92.67617 121.02461 92.6875 118.9375 C 92.7 116.99662 92.72134 115.03454 92.6875 113.09375 C 92.626085 111.40288 92.629442 109.61182 91.59375 108.1875 C 90.511826 107.24663 89.209932 107.17357 87.875 107.21875 z "
       transform="translate(0,308.2677)"
       id="path7097" />
    <text
       xml:space="preserve"
       style="font-size:12px;font-style:normal;font-variant:normal;font-weight:normal;font-stretch:normal;line-height:125%;letter-spacing:0px;word-spacing:0px;fill:#008000;fill-opacity:1;stroke:none;font-family:Segoe Print;-inkscape-font-specification:Segoe Print"
       x="97.728928"
       y="440.83069"
       id="text7102"
       sodipodi:linespacing="125%"><tspan
         sodipodi:role="line"
         id="tspan7104"
         x="97.728928"
         y="440.83069"
         style="font-size:14px;font-weight:bold;fill:#008000">GetOrderDetails</tspan></text>
    <path
       style="fill:#0000ff;fill-opacity:1;stroke:none"
       d="M 650.40625 152.46875 L 647.125 154.4375 C 649.05466 156.86779 651.03472 159.27398 652.90625 161.75 C 653.069 162.0031 653.19768 162.18372 653.34375 162.40625 C 652.10758 162.40729 650.86117 162.40461 649.625 162.40625 C 646.69335 162.40849 643.7754 162.40725 640.84375 162.40625 C 638.02119 162.40825 635.19755 162.41325 632.375 162.40625 C 630.41989 162.40325 628.45511 162.40672 626.5 162.40625 C 624.50904 162.40625 622.52221 162.40325 620.53125 162.40625 C 617.22459 162.41135 613.93167 162.4315 610.625 162.4375 C 605.34244 162.4436 600.06381 162.41425 594.78125 162.40625 C 591.03996 162.40898 587.27118 162.41543 583.53125 162.53125 C 579.01676 162.69077 574.50422 162.90052 570 163.25 C 565.65835 163.45228 561.33704 163.24905 557 163 C 552.73684 162.69244 548.46801 162.17255 544.1875 162.15625 C 540.17076 161.94377 536.17593 161.5261 532.15625 161.4375 C 528.9608 161.40114 525.74825 161.33621 522.5625 161.0625 C 519.49694 160.78765 516.46207 160.31852 513.375 160.46875 C 509.44604 160.47075 505.52272 160.498 501.59375 160.5 C 496.60899 160.5024 491.60975 160.48045 486.625 160.46875 C 483.03952 160.46435 479.46046 160.4889 475.875 160.5 C 469.8602 160.51 463.82729 160.52 457.8125 160.5 C 453.39028 160.4919 448.98472 160.46675 444.5625 160.46875 C 439.4044 160.46995 434.25181 160.4797 429.09375 160.5 C 422.30611 160.54168 415.5006 160.59811 408.71875 160.90625 C 403.40391 161.21422 398.10039 161.73537 392.78125 161.96875 C 387.50588 162.29863 382.25745 162.58365 376.96875 162.53125 C 371.97182 162.6586 366.97797 162.8389 362 163.3125 C 356.96154 163.67174 351.87196 163.70083 346.875 164.53125 C 342.44275 165.32009 338.04923 166.07055 333.53125 166.15625 C 329.04423 166.40071 324.55466 166.22475 320.0625 166.28125 C 315.28802 166.27855 310.49323 166.29605 305.71875 166.28125 C 302.02026 166.28229 298.32349 166.28425 294.625 166.28125 C 290.65937 166.28025 286.68437 166.28425 282.71875 166.28125 C 277.89189 166.28565 273.07649 166.3097 268.25 166.375 C 263.03814 166.45797 257.82285 166.54721 252.625 166.96875 C 247.66323 167.29967 242.69136 167.33205 237.71875 167.28125 C 231.9023 167.28725 226.0977 167.28425 220.28125 167.28125 C 214.36331 167.28025 208.44918 167.2638 202.53125 167.25 C 198.19947 167.24413 193.86303 167.247 189.53125 167.25 C 185.8592 167.251 182.20329 167.245 178.53125 167.25 C 174.53039 167.24598 170.53115 167.25505 166.53125 167.15625 C 161.11501 167.00824 155.69016 166.72267 150.28125 166.40625 C 144.72627 166.17942 139.1506 166.3507 133.59375 166.46875 C 129.12367 166.64838 124.69306 166.96636 120.25 167.5 C 117.31385 167.72104 114.3844 168.22575 111.4375 168.21875 C 107.19943 168.22975 102.95681 168.23655 98.71875 168.21875 C 93.965034 168.1911 89.213019 168.18034 84.46875 167.84375 C 81.469952 167.59623 78.485979 167.13624 75.46875 167.25 C 72.301977 167.20967 69.12758 167.11745 65.96875 166.875 C 62.508062 166.59545 59.040882 166.17949 55.5625 166.28125 L 52.46875 168.53125 C 55.953317 168.38263 59.44025 168.77342 62.90625 169.0625 C 66.064948 169.30823 69.207887 169.42265 72.375 169.46875 C 75.390428 169.35684 78.378043 169.81358 81.375 170.0625 C 86.13839 170.41471 90.914218 170.36945 95.6875 170.40625 C 99.910097 170.43325 104.15234 170.4325 108.375 170.4375 C 111.32752 170.47916 114.25008 169.98913 117.1875 169.75 C 121.64038 169.20835 126.11349 168.88285 130.59375 168.6875 C 136.15165 168.5335 141.72338 168.40814 147.28125 168.59375 C 152.68201 168.90009 158.06188 169.17294 163.46875 169.34375 C 167.46469 169.45635 171.47152 169.46175 175.46875 169.46875 C 179.14234 169.47645 182.82642 169.47175 186.5 169.46875 C 190.83901 169.46865 195.161 169.47475 199.5 169.46875 C 205.42377 169.45475 211.35747 169.47075 217.28125 169.46875 C 223.0934 169.46575 228.9066 169.46275 234.71875 169.46875 C 239.692 169.49859 244.6615 169.51607 249.625 169.1875 C 254.82569 168.77302 260.03541 168.6492 265.25 168.5625 C 270.06485 168.4971 274.87232 168.498 279.6875 168.5 C 283.65015 168.499 287.59985 168.498 291.5625 168.5 C 295.25954 168.5 298.95921 168.499 302.65625 168.5 C 307.44148 168.4853 312.24602 168.503 317.03125 168.5 C 321.52352 168.45688 326.01178 168.62496 330.5 168.40625 C 335.02207 168.30884 339.43606 167.57273 343.875 166.78125 C 348.86518 165.92019 353.93066 165.87062 358.96875 165.53125 C 363.94362 165.07427 368.94475 164.849 373.9375 164.71875 C 379.22958 164.74485 384.50159 164.5176 389.78125 164.1875 C 395.10533 163.96405 400.4006 163.41496 405.71875 163.09375 C 412.49976 162.75072 419.30562 162.7228 426.09375 162.6875 C 431.23479 162.6649 436.35896 162.6785 441.5 162.6875 C 445.93203 162.6975 450.38048 162.6945 454.8125 162.6875 C 460.82253 162.6688 466.83372 162.6775 472.84375 162.6875 C 476.42114 162.6985 479.98509 162.6925 483.5625 162.6875 C 488.55795 162.67576 493.56704 162.6855 498.5625 162.6875 C 502.47772 162.6894 506.39728 162.71675 510.3125 162.71875 C 513.39234 162.57375 516.44179 163.00248 519.5 163.28125 C 522.69142 163.56678 525.89168 163.61825 529.09375 163.65625 C 533.11867 163.71506 537.13672 164.1556 541.15625 164.375 C 545.43486 164.39442 549.67621 164.88097 553.9375 165.1875 C 558.2839 165.46143 562.64699 165.638 567 165.46875 C 571.5006 165.1356 575.98971 164.89909 580.5 164.75 C 584.23796 164.63912 587.97948 164.633 591.71875 164.625 C 597.00971 164.614 602.30279 164.615 607.59375 164.625 C 610.88029 164.6328 614.15095 164.65025 617.4375 164.65625 C 619.42556 164.659 621.41818 164.65615 623.40625 164.65625 C 625.36307 164.65525 627.32442 164.65925 629.28125 164.65625 C 632.10829 164.64925 634.9542 164.65425 637.78125 164.65625 C 640.71266 164.6545 643.63108 164.65325 646.5625 164.65625 C 648.8219 164.65925 651.08436 164.65525 653.34375 164.65625 C 653.67845 164.62365 654.00905 164.5951 654.34375 164.5625 L 654.40625 164.53125 C 654.58311 165.2696 654.46647 166.0526 653.875 167.15625 C 653.52603 167.62155 653.10966 167.97368 652.65625 168.3125 C 650.48101 169.40888 648.3891 170.70801 646.34375 172.03125 L 649.46875 170.8125 C 649.48602 170.80214 649.51282 170.79226 649.53125 170.78125 L 649.90625 170.625 C 650.02388 170.55087 650.13258 170.48071 650.25 170.40625 C 652.86006 169.30107 655.62808 167.83889 657.375 165.5625 C 658.45131 163.24865 657.53849 161.80009 656.15625 159.8125 C 654.27622 157.34039 652.28591 154.94164 650.40625 152.46875 z "
       transform="translate(0,308.2677)"
       id="path7106" />
    <text
       xml:space="preserve"
       style="font-size:12px;font-style:normal;font-variant:normal;font-weight:normal;font-stretch:normal;line-height:125%;letter-spacing:0px;word-spacing:0px;fill:#0000ff;fill-opacity:1;stroke:none;font-family:Segoe Print;-inkscape-font-specification:Segoe Print"
       x="372.43079"
       y="442.97278"
       id="text7102-8"
       sodipodi:linespacing="125%"><tspan
         sodipodi:role="line"
         id="tspan7104-6"
         x="372.43079"
         y="442.97278"
         style="font-size:14px;fill:#0000ff">Send command</tspan><tspan
         sodipodi:role="line"
         x="372.43079"
         y="460.47278"
         style="font-size:14px;font-weight:bold;fill:#0000ff"
         id="tspan7132">InitiateThirdPartyProcessorPayment</tspan></text>
    <path
       style="fill:#008000;fill-opacity:1;stroke:none"
       d="M 698.21875 163.34375 C 697.772 163.33472 697.29026 163.35202 696.8125 163.375 C 694.6499 163.376 692.50634 163.377 690.34375 163.375 C 688.3963 163.37502 686.44745 163.37415 684.5 163.375 C 682.15965 163.376 679.8091 163.372 677.46875 163.375 C 674.37661 163.3786 671.27962 163.3905 668.1875 163.375 L 665.09375 165.625 C 668.19356 165.61 671.30641 165.622 674.40625 165.625 C 676.74021 165.628 679.07228 165.624 681.40625 165.625 C 683.35289 165.62586 685.30336 165.62498 687.25 165.625 C 689.41426 165.62256 691.55448 165.62423 693.71875 165.625 C 695.41963 165.60309 697.21634 165.32253 698.28125 166.875 C 698.93471 168.46503 698.88795 170.24723 698.90625 171.9375 C 698.90655 173.88069 698.8857 175.80685 698.875 177.75 C 698.865 179.68951 698.84475 181.62297 698.84375 183.5625 C 698.84313 185.49788 698.84365 187.43962 698.84375 189.375 C 698.89301 191.32085 698.88921 193.23674 698.5625 195.15625 C 698.4367 196.25589 698.30677 197.24373 697.84375 198.0625 C 697.68015 198.09196 697.49805 198.11571 697.34375 198.125 C 696.53306 198.17381 695.7951 197.98583 695.03125 197.75 C 693.31674 197.03007 691.52539 196.64965 689.6875 196.4375 C 687.76285 196.26189 685.83716 196.256 683.90625 196.25 C 681.96899 196.25 680.03102 196.27825 678.09375 196.28125 C 676.15832 196.28357 674.21668 196.28096 672.28125 196.28125 C 670.73306 196.28241 669.17319 196.28128 667.625 196.28125 C 667.71146 194.93724 668.164 193.63233 668.9375 192.4375 C 669.80954 191.32806 670.72061 190.42186 671.875 189.59375 C 672.19424 189.36474 673.05014 188.89679 673.25 188.75 C 673.23293 188.75366 673.22442 188.73657 673.1875 188.75 C 672.9426 188.83907 672.69595 188.93476 672.46875 189.0625 L 675.21875 186.875 C 671.64177 188.81184 667.8844 190.60358 665.4375 193.9375 C 664.63284 195.27901 664.1982 196.71053 664.1875 198.1875 L 663.78125 198.5 C 663.91695 198.49992 664.0518 198.50004 664.1875 198.5 C 664.20555 199.00395 664.28227 199.51604 664.40625 200.03125 C 665.49098 202.10827 667.43821 203.18204 669.59375 203.84375 C 671.56792 204.35203 673.59736 204.19076 675.5625 204.71875 C 676.8597 205.13941 676.19931 204.90502 677.5 205.3125 L 680.65625 203.1875 C 679.35473 202.78576 680.02138 202.99769 678.71875 202.5625 C 676.75891 201.96234 674.71665 202.11391 672.71875 201.6875 C 670.7872 201.15038 669.00643 200.27311 667.9375 198.53125 C 668.35505 198.53154 668.76995 198.53102 669.1875 198.53125 C 671.12304 198.53125 673.06446 198.502 675 198.5 C 676.93698 198.497 678.87552 198.502 680.8125 198.5 C 682.73494 198.50312 684.64465 198.50526 686.5625 198.65625 C 688.38111 198.84148 690.18552 199.1436 691.875 199.875 C 695.02372 201.0098 697.14012 199.87917 700.03125 198.03125 C 701.59005 196.93071 701.7792 195.26914 702 193.46875 C 702.31017 191.53113 702.2844 189.61585 702.25 187.65625 C 702.2499 185.72094 702.2493 183.77905 702.25 181.84375 C 702.2511 179.90483 702.27125 177.97016 702.28125 176.03125 C 702.29225 174.08595 702.28525 172.13285 702.28125 170.1875 C 702.25714 168.42246 702.31913 166.58357 701.59375 164.9375 C 700.7327 163.65901 699.559 163.37084 698.21875 163.34375 z "
       transform="translate(0,308.2677)"
       id="path7134" />
    <text
       xml:space="preserve"
       style="font-size:12px;font-style:normal;font-variant:normal;font-weight:normal;font-stretch:normal;line-height:125%;letter-spacing:0px;word-spacing:0px;fill:#008000;fill-opacity:1;stroke:none;font-family:Segoe Print;-inkscape-font-specification:Segoe Print"
       x="707.22491"
       y="484.58014"
       id="text7102-0"
       sodipodi:linespacing="125%"><tspan
         sodipodi:role="line"
         id="tspan7104-1"
         x="707.22491"
         y="484.58014"
         style="font-size:14px;font-weight:normal;fill:#008000">Invoke constructor</tspan><tspan
         sodipodi:role="line"
         x="707.22491"
         y="502.08014"
         style="font-size:14px;fill:#008000"
         id="tspan7268">and raise <tspan
   style="font-weight:bold;fill:#008000"
   id="tspan7419">PaymentInitiated</tspan> event</tspan></text>
    <path
       style="fill:#008000;fill-opacity:1;stroke:none"
       d="M 342.71875 203.90625 L 339.40625 205.84375 C 340.9482 208.2661 342.3498 210.78654 344.0625 213.09375 C 344.54806 213.71227 345.01464 214.31006 345.375 214.96875 C 344.42388 215.05794 343.47457 215.1554 342.53125 215.3125 C 340.25484 215.64892 337.9871 215.6723 335.6875 215.625 C 333.17383 215.62682 330.66992 215.624 328.15625 215.625 C 325.80567 215.62467 323.44433 215.62 321.09375 215.625 C 318.63216 215.627 316.18034 215.618 313.71875 215.625 C 310.68703 215.63 307.65666 215.6486 304.625 215.625 C 301.53153 215.5893 298.42822 215.50707 295.34375 215.25 C 292.16182 214.95958 288.9864 214.49431 285.78125 214.65625 C 282.72088 214.65541 279.65412 214.65578 276.59375 214.65625 C 273.32508 214.65842 270.08117 214.65925 266.8125 214.65625 C 264.36197 214.65125 261.88803 214.65125 259.4375 214.65625 C 256.56715 214.66025 253.7141 214.65725 250.84375 214.65625 C 247.07833 214.65725 243.29667 214.66125 239.53125 214.65625 C 235.73859 214.65125 231.9489 214.66225 228.15625 214.65625 C 224.82772 214.65878 221.51474 214.67653 218.1875 214.78125 C 214.62148 214.90683 211.04962 215.13105 207.5 215.5 C 204.11044 215.73564 200.70849 215.581 197.3125 215.625 C 193.70231 215.624 190.11019 215.632 186.5 215.625 C 183.37168 215.63355 180.21956 215.644 177.09375 215.78125 C 173.67814 215.9443 170.30249 216.32956 166.90625 216.71875 C 161.96037 216.88057 157.03275 217.16733 152.09375 217.46875 C 147.42229 217.67559 142.72832 217.58674 138.0625 217.9375 C 134.20051 218.23443 130.3495 218.68874 126.46875 218.53125 C 123.18936 218.52925 119.90439 218.53063 116.625 218.53125 C 113.48046 218.53571 110.33205 218.53209 107.1875 218.53125 C 104.33448 218.52823 101.47803 218.52625 98.625 218.53125 C 95.931752 218.53225 93.255748 218.52725 90.5625 218.53125 C 88.130857 218.53525 85.68159 218.55085 83.25 218.53125 C 80.953453 218.50015 78.65645 218.44729 76.375 218.15625 C 73.393826 217.77001 70.442967 217.26325 67.4375 217.09375 C 64.131647 216.68081 60.845732 216.09037 57.53125 215.75 L 54.40625 217.96875 C 57.735943 218.27895 61.028943 218.85 64.34375 219.28125 C 67.341581 219.47323 70.307878 219.94042 73.28125 220.34375 C 75.567714 220.65684 77.852301 220.7107 80.15625 220.75 C 82.590954 220.7758 85.033954 220.78325 87.46875 220.78125 C 90.164085 220.77825 92.867163 220.75061 95.5625 220.75 C 98.418385 220.753 101.26912 220.753 104.125 220.75 C 107.26625 220.75 110.42125 220.746 113.5625 220.75 C 116.84956 220.751 120.1192 220.753 123.40625 220.75 C 127.29151 220.90629 131.16479 220.48522 135.03125 220.1875 C 139.71024 219.83025 144.40839 219.89252 149.09375 219.6875 C 154.0175 219.39606 158.94498 219.09805 163.875 218.9375 C 167.27557 218.6139 170.64966 218.21137 174.0625 218.03125 C 177.17907 217.8899 180.28706 217.85615 183.40625 217.84375 C 187.0204 217.82905 190.63582 217.84075 194.25 217.84375 C 197.65117 217.81523 201.07224 217.95006 204.46875 217.75 C 208.01816 217.40182 211.56125 217.13623 215.125 217 C 218.44789 216.89402 221.76951 216.882 225.09375 216.875 C 228.89015 216.86678 232.70359 216.877 236.5 216.875 C 240.26151 216.872 244.01974 216.873 247.78125 216.875 C 250.64454 216.874 253.51171 216.90325 256.375 216.90625 C 258.83071 216.91065 261.26304 216.91025 263.71875 216.90625 C 266.98727 216.90341 270.26272 216.90425 273.53125 216.90625 C 276.59185 216.90673 279.65815 216.9071 282.71875 216.90625 C 285.91681 216.74087 289.07524 217.17356 292.25 217.46875 C 295.33908 217.73762 298.43243 217.80095 301.53125 217.84375 C 304.56303 217.87175 307.59313 217.87432 310.625 217.875 C 313.08293 217.87722 315.54207 217.87481 318 217.875 C 320.3524 217.878 322.7101 217.87583 325.0625 217.875 C 327.5744 217.8761 330.08185 217.873 332.59375 217.875 C 334.89712 217.90449 337.18326 217.93327 339.46875 217.625 C 341.65938 217.2593 343.87753 217.1017 346.09375 217 C 346.16555 217.48 346.14977 217.97337 346.0625 218.5 C 345.74448 219.28901 345.72337 219.53379 345.15625 220.1875 C 344.95296 220.42182 344.58167 220.70465 344.1875 221 C 341.65937 222.30988 339.31196 223.95997 336.90625 225.46875 C 335.70032 226.26363 336.30892 225.88296 335.0625 226.59375 L 338.625 225.21875 C 339.86034 224.48346 339.25765 224.85247 340.46875 224.0625 C 341.33117 223.50407 342.18449 222.94019 343.0625 222.40625 C 343.07009 222.40164 343.08532 222.41133 343.09375 222.40625 C 345.70409 221.06371 348.59804 219.80758 349.5 216.8125 C 349.57529 216.09255 349.50485 215.42141 349.34375 214.78125 L 349.4375 214.71875 C 349.40641 214.72 349.37484 214.71748 349.34375 214.71875 C 349.00368 213.42275 348.24542 212.24293 347.34375 211.125 C 345.61865 208.83687 344.21398 206.34717 342.71875 203.90625 z "
       transform="translate(0,308.2677)"
       id="path7160" />
    <text
       xml:space="preserve"
       style="font-size:12px;font-style:normal;font-variant:normal;font-weight:normal;font-stretch:normal;line-height:125%;letter-spacing:0px;word-spacing:0px;fill:#008000;fill-opacity:1;stroke:none;font-family:Segoe Print;-inkscape-font-specification:Segoe Print"
       x="55.106853"
       y="504.79062"
       id="text7102-0-2"
       sodipodi:linespacing="125%"><tspan
         sodipodi:role="line"
         id="tspan7104-1-6"
         x="55.106853"
         y="504.79062"
         style="font-size:14px;fill:#008000">Redirect to <tspan
   style="font-weight:bold;fill:#008000"
   id="tspan7415">ThirdPartyProcessorPayment</tspan></tspan><tspan
         sodipodi:role="line"
         x="55.106853"
         y="522.29065"
         style="font-size:14px;fill:#008000"
         id="tspan7186">action</tspan></text>
    <path
       style="fill:#008000;fill-opacity:1;stroke:none"
       d="m 641.8125,597.11145 -3.28125,2 c 2.15268,2.23068 4.35255,4.37101 6.9375,6.09375 0.94818,0.62308 1.95258,1.20583 2.90625,1.84375 -0.36371,2.9e-4 -0.73004,-3.5e-4 -1.09375,0 -2.62084,0.002 -5.22292,0.004 -7.84375,0 -2.51751,0.002 -5.04499,0.003 -7.5625,0 -2.26852,4.9e-4 -4.54398,-0.003 -6.8125,0 -2.53913,0.003 -5.08588,-0.007 -7.625,0 -3.00929,0.005 -6.02212,0.0371 -9.03125,0 -3.09135,-0.0545 -6.17445,-0.16032 -9.25,-0.5 -3.44149,-0.35722 -6.85911,-0.66513 -10.3125,-0.875 -3.14872,-0.36458 -6.2789,-0.9419 -9.4375,-1.21875 -2.46114,-0.32258 -4.92487,-0.40015 -7.40625,-0.46875 -3.28313,-0.19814 -6.53213,-0.57976 -9.8125,-0.8125 -4.23625,0 -8.4825,0.0293 -12.71875,0.0312 -3.66938,0.006 -7.33564,0.037 -11,0.25 -3.87602,0.25255 -7.74148,0.76886 -11.625,0.875 -4.79386,0.2019 -9.56322,0.56109 -14.34375,0.96875 -5.54826,0.19955 -11.08443,0.56079 -16.625,0.90625 -5.98081,0.13773 -11.9731,0.36063 -17.9375,0.84375 -5.93571,0.39337 -11.90325,0.46096 -17.8125,1.21875 -4.68998,0.50184 -9.38156,0.89806 -14.03125,1.71875 -3.41565,0.0478 -6.81741,0.16457 -10.21875,0.5 -4.77045,0.41689 -9.5569,0.72152 -14.34375,0.875 -5.10165,0.31025 -10.18505,0.68199 -15.28125,1.0625 -3.15633,0.34325 -6.29282,0.69758 -9.46875,0.8125 -3.43225,0.29237 -6.85972,0.7685 -10.3125,0.59375 -2.93176,-0.0356 -5.8904,-0.11488 -8.8125,-0.375 -3.84182,-0.35615 -7.66593,-0.7542 -11.53125,-0.6875 -3.49438,-0.11119 -7.00096,-0.27952 -10.46875,-0.75 l -3.125,2.21875 c 3.49447,0.44318 7.01284,0.61188 10.53125,0.71875 3.85267,-0.0567 7.70313,0.34687 11.53125,0.71875 2.92662,0.27158 5.84391,0.3385 8.78125,0.375 3.46239,0.16434 6.90184,-0.26365 10.34375,-0.5625 3.17476,-0.13704 6.34379,-0.4595 9.5,-0.8125 5.10714,-0.42476 10.19661,-0.81517 15.3125,-1.125 4.77691,-0.15801 9.55038,-0.40969 14.3125,-0.8125 3.39241,-0.32338 6.78189,-0.46725 10.1875,-0.53125 4.68031,-0.74785 9.41394,-1.21329 14.125,-1.71875 5.90892,-0.76071 11.84399,-0.84506 17.78125,-1.21875 5.9607,-0.4751 11.96061,-0.73915 17.9375,-0.875 5.53794,-0.31988 11.04953,-0.67718 16.59375,-0.875 4.77873,-0.37634 9.55409,-0.76348 14.34375,-0.96875 3.88036,-0.0864 7.75483,-0.61115 11.625,-0.875 3.66346,-0.22309 7.33116,-0.25325 11,-0.28125 4.23132,-0.0198 8.45617,-0.006 12.6875,0 3.27353,0.1904 6.5403,0.59951 9.8125,0.8125 2.46847,0.10963 4.92149,0.13449 7.375,0.4375 3.16309,0.27418 6.28669,0.8396 9.4375,1.21875 3.453,0.24463 6.90025,0.51157 10.34375,0.875 3.07781,0.35603 6.15497,0.46805 9.25,0.53125 3.00991,0.0475 6.02107,0.0305 9.03125,0.0312 2.5349,10e-4 5.05884,-6.4e-4 7.59375,0 2.2679,6.9e-4 4.54459,-8.8e-4 6.8125,0 2.51878,-0.002 5.04371,-0.002 7.5625,0 2.62056,-0.004 5.25443,-0.002 7.875,0 2.08571,0.002 4.16429,-4.3e-4 6.25,0 l 0.375,-0.25 c 0.30986,0.31986 0.61086,0.66352 0.875,1.03125 0.46646,2.22447 -1.90644,3.4876 -3.40625,4.6875 -2.09756,1.43831 -4.16018,2.93295 -6.375,4.1875 l 3.5625,-1.375 c 2.1929,-1.29106 4.27478,-2.73905 6.34375,-4.21875 1.67928,-1.36034 3.91591,-2.75665 3.15625,-5.21875 -1.60311,-2.21928 -4.07336,-3.55075 -6.34375,-5 -2.58146,-1.68108 -4.75097,-3.77812 -6.84375,-6.03125 z"
       id="path7188"
       inkscape:connector-curvature="0" />
    <text
       xml:space="preserve"
       style="font-size:12px;font-style:normal;font-variant:normal;font-weight:normal;font-stretch:normal;line-height:125%;letter-spacing:0px;word-spacing:0px;fill:#008000;fill-opacity:1;stroke:none;font-family:Segoe Print;-inkscape-font-specification:Segoe Print"
       x="361.78702"
       y="548.96082"
       id="text7102-05"
       sodipodi:linespacing="125%"><tspan
         sodipodi:role="line"
         id="tspan7104-4"
         x="361.78702"
         y="548.96082"
         style="font-size:14px;font-weight:bold;fill:#008000">WaitUntilAvailable</tspan><tspan
         sodipodi:role="line"
         x="361.78702"
         y="566.46082"
         style="font-size:14px;font-weight:normal;fill:#008000"
         id="tspan7512">(waits until the</tspan><tspan
         sodipodi:role="line"
         x="361.78702"
         y="583.96082"
         style="font-size:14px;font-weight:normal;fill:#008000"
         id="tspan7514"><tspan
   style="font-weight:bold;fill:#008000"
   id="tspan7526">ThirdPartyProcessorPayment</tspan> aggregate</tspan><tspan
         sodipodi:role="line"
         x="361.78702"
         y="601.46082"
         style="font-size:14px;font-weight:normal;fill:#008000"
         id="tspan7516">has been created or a timeout occurs)</tspan></text>
    <path
       style="fill:#008000;fill-opacity:1;stroke:none"
       d="m 360.28125,640.04895 -3.53125,1.5 c -1.38641,2.11908 -3.24426,3.83742 -4.65625,5.9375 -0.70928,1.4471 -2.64049,2.95836 -2.40625,4.75 0.0407,0.3111 0.20743,0.57937 0.3125,0.875 1.10596,1.96216 3.27896,2.81367 5,4.125 1.57306,1.25245 2.67817,2.94363 4.03125,4.40625 l 0.71875,0.59375 3.21875,-2.03125 -0.6875,-0.53125 c -1.38076,-1.46528 -2.47696,-3.19757 -4.0625,-4.46875 -1.03051,-0.79982 -2.25181,-1.41893 -3.28125,-2.21875 1.20116,-0.0148 2.39312,0.004 3.59375,-0.0312 1.99462,0 4.00538,0.002 6,0 2.8191,-0.003 5.64965,9e-4 8.46875,0 3.69698,10e-4 7.36552,0.007 11.0625,0 2.82718,-0.0152 5.67879,-0.0447 8.5,-0.25 3.0097,-0.24689 6.01043,-0.68985 9.03125,-0.71875 3.08931,-0.0393 6.16886,-0.1353 9.25,-0.375 4.23372,-0.31741 8.46492,-0.77334 12.71875,-0.59375 5.06939,0.007 10.14936,0.0124 15.21875,0 4.6365,-0.0168 9.27441,-0.0146 13.90625,-0.25 4.20547,-0.24741 8.37798,-0.74665 12.59375,-0.71875 4.9076,-10e-4 9.8424,0.004 14.75,0 5.79394,-0.003 11.58107,-0.0303 17.375,-0.0312 6.2986,-0.004 12.5764,0.0222 18.875,0.0312 4.61916,0.012 9.25583,0.006 13.875,0 5.30372,-0.005 10.60254,10e-4 15.90625,0 5.2883,-0.002 10.58671,-0.0272 15.875,-0.0312 4.05707,-10e-4 8.09943,0.0121 12.15625,0.0625 3.49903,0.0735 7.00217,0.1996 10.46875,0.71875 3.84439,0.60632 7.67351,1.47948 11.59375,1.1875 3.08847,0 6.16154,-0.008 9.25,0 2.41036,0.0185 4.85455,0.0419 7.25,0.34375 2.93226,0.40476 5.78407,1.06019 8.6875,1.625 2.61672,0.0561 5.24709,0.11351 7.84375,0.46875 2.48629,0.32471 4.95503,0.60595 7.46875,0.46875 2.32805,-10e-4 4.67195,0.003 7,0 2.69919,-0.002 5.39459,-0.0153 8.09375,0 l 3.09375,-2.25 c -2.70531,0.016 -5.41967,0.003 -8.125,0 -2.32634,-0.003 -4.64241,0.001 -6.96875,0 -2.50323,0.11963 -4.95926,-0.0831 -7.4375,-0.40625 -2.60539,-0.36585 -5.24816,-0.4393 -7.875,-0.5 -2.90802,-0.46832 -5.77171,-1.19495 -8.6875,-1.625 -2.40289,-0.33449 -4.8289,-0.3522 -7.25,-0.375 -3.09707,-0.0128 -6.18419,0.0243 -9.28125,0.0312 -3.90703,0.29437 -7.73212,-0.53947 -11.5625,-1.15625 -3.47403,-0.53779 -6.99099,-0.67 -10.5,-0.75 -4.06745,-0.0631 -8.11975,-0.0372 -12.1875,-0.0312 -5.29307,0.008 -10.58192,-3.5e-4 -15.875,0 -5.29947,0.001 -10.60677,0.004 -15.90625,0 -4.62343,-0.006 -9.25157,-0.0119 -13.875,0 -6.30301,0.009 -12.60323,0.0353 -18.90625,0.0312 -5.78926,-10e-4 -11.58574,-0.0282 -17.375,-0.0312 -4.9019,-0.004 -9.7856,0.002 -14.6875,0 -4.2158,-0.0495 -8.42088,0.43401 -12.625,0.6875 -4.63657,0.24685 -9.29566,0.25925 -13.9375,0.28125 -5.06829,0.015 -10.11919,-0.003 -15.1875,0 -4.24898,-0.18152 -8.48922,0.24159 -12.71875,0.5625 -3.06946,0.23846 -6.14135,0.3293 -9.21875,0.375 -3.02779,0.0106 -6.01694,0.46819 -9.03125,0.71875 -2.81655,0.21502 -5.64552,0.25715 -8.46875,0.28125 -3.70114,0.0205 -7.42382,0.003 -11.125,0 -2.80858,-0.005 -5.59768,0.004 -8.40625,0 -1.99248,-0.003 -4.00752,-0.0311 -6,-0.0312 -1.93013,0.0379 -3.85852,-0.0666 -5.78125,0.125 l -1.8125,1.34375 c -0.25225,-0.27276 -0.45957,-0.57497 -0.65625,-0.90625 -0.0777,-0.24428 -0.2319,-0.46306 -0.25,-0.71875 -0.12164,-1.72215 1.78154,-3.17227 2.4375,-4.59375 1.45278,-2.06735 3.30544,-3.80624 4.71875,-5.90625 z"
       id="path7214"
       inkscape:connector-curvature="0" />
    <text
       xml:space="preserve"
       style="font-size:12px;font-style:normal;font-variant:normal;font-weight:normal;font-stretch:normal;line-height:125%;letter-spacing:0px;word-spacing:0px;fill:#008000;fill-opacity:1;stroke:none;font-family:Segoe Print;-inkscape-font-specification:Segoe Print"
       x="412.6459"
       y="643.00616"
       id="text7102-05-6"
       sodipodi:linespacing="125%"><tspan
         sodipodi:role="line"
         id="tspan7104-4-7"
         x="412.6459"
         y="643.00616"
         style="font-size:14px;fill:#008000">Return <tspan
   style="font-weight:bold;fill:#008000"
   id="tspan7417">PaymentDetails</tspan></tspan></text>
    <path
       style="fill:#008000;fill-opacity:1;stroke:none"
       d="m 942.84375,666.8927 -3.25,2.03125 c 2.55809,1.81282 5.00777,3.75845 7.375,5.8125 1.36255,1.26763 2.65353,2.14103 3,3.5 -0.6782,0.0879 -1.35465,0.16796 -2.03125,0.28125 -2.89876,0.43831 -5.83359,0.52265 -8.75,0.8125 -3.42996,0.35403 -6.8316,0.70532 -10.28125,0.8125 -3.53524,0.25644 -7.07464,0.67919 -10.625,0.5625 -3.40245,0.003 -6.81648,0.0236 -10.21875,0.0625 -2.90136,0.0546 -5.80303,0.12773 -8.6875,0.46875 -2.55334,0.33242 -5.07346,0.59257 -7.65625,0.4375 -2.62169,0.002 -5.25332,0.007 -7.875,0 -2.0423,10e-4 -4.0827,-0.002 -6.125,0 L 870,681.7052 c -2.81047,0.003 -5.62703,-0.002 -8.4375,0 -2.92002,-10e-4 -5.83037,-0.006 -8.75,-0.0625 -4.74541,-0.10464 -9.48179,-0.32029 -14.21875,-0.625 -5.39114,-0.31151 -10.78761,-0.3408 -16.1875,-0.25 -4.6227,0.0567 -9.268,0.11112 -13.875,0.53125 -4.23043,0.40505 -8.43516,0.86641 -12.65625,1.34375 -3.58364,0.57142 -7.18249,1.09581 -10.8125,1.25 -4.16106,0.28467 -8.30412,0.84099 -12.46875,1.0625 -3.67809,0.27361 -7.34609,0.7592 -11.03125,0.9375 -4.1219,0.42399 -8.16806,1.1777 -12.25,1.875 -4.64714,0.27334 -9.30915,0.77555 -13.96875,0.71875 -5.81651,-10e-4 -11.62099,-0.006 -17.4375,0 -6.14392,0.01 -12.29522,0.0269 -18.4375,0.1875 -5.39776,0.15451 -10.79875,0.43532 -16.1875,0.78125 -4.51216,0.002 -9.0191,-0.003 -13.53125,0 -5.4309,0.002 -10.85037,-0.0222 -16.28125,-0.0312 -4.6279,-0.003 -9.24806,0.0214 -13.875,0.125 -5.2259,0.13845 -10.45324,0.37517 -15.65625,0.90625 -3.79334,0.36518 -7.62258,0.517 -11.40625,1 -3.69013,0.13764 -7.35518,0.43372 -11.03125,0.78125 -4.02538,0.28551 -8.08435,0.1912 -12.09375,0.71875 -3.86791,0.51252 -7.72708,1.0095 -11.625,1.25 -3.98803,0.3405 -7.9867,0.29816 -11.96875,0.75 -3.3383,0.30888 -6.68775,0.42394 -10.03125,0.65625 -3.27934,0.29758 -6.54158,0.75257 -9.84375,0.59375 -3.30301,0.003 -6.60326,0.0165 -9.90625,0 -4.05776,-0.0343 -8.13789,-0.0942 -12.1875,-0.375 -5.22466,-0.37911 -10.42399,-0.91502 -15.65625,-1.1875 -5.58324,-0.4764 -11.15438,-1.06071 -16.71875,-1.71875 -6.04569,-0.77277 -12.10609,-1.41952 -18.15625,-2.15625 -6.50636,-0.78473 -13.05985,-1.54344 -19.625,-1.3125 -5.06853,-0.004 -10.11897,0.004 -15.1875,0 -3.76223,0.002 -7.51906,-0.009 -11.28125,-0.0312 -3.79982,-0.0344 -7.61452,-0.10353 -11.40625,-0.375 -2.70057,-0.21981 -5.37946,-0.66785 -8.09375,-0.59375 l -7.09375,0 c -2.91421,0 -5.83579,0.004 -8.75,0 -3.03259,-0.003 -6.06116,-0.006 -9.09375,0 -3.07156,0.0194 -6.15323,0.034 -9.21875,0.25 -2.76321,0.24885 -5.50847,0.78573 -8.28125,0.90625 -2.93605,0.19281 -5.85588,0.46684 -8.78125,0.78125 l -3.09375,2.25 c 2.94113,-0.28398 5.89491,-0.58469 8.84375,-0.78125 2.7744,-0.11481 5.48864,-0.60619 8.25,-0.875 3.06097,-0.2419 6.15003,-0.26155 9.21875,-0.28125 3.02939,-0.0163 6.06434,-0.003 9.09375,0 2.91505,0.001 5.80371,-0.002 8.71875,0 2.35946,0.002 4.7343,-10e-4 7.09375,0 2.71804,-0.0895 5.42188,0.34354 8.125,0.5625 3.79867,0.28208 7.59905,0.3337 11.40625,0.375 3.76308,0.0312 7.51807,0.0332 11.28125,0.0312 5.08284,-0.01 10.16715,-0.0253 15.25,-0.0312 6.5624,-0.24475 13.0883,0.48132 19.59375,1.25 6.04318,0.73624 12.08464,1.4281 18.125,2.1875 5.56494,0.68241 11.16431,1.23364 16.75,1.71875 5.22508,0.28969 10.43893,0.82361 15.65625,1.21875 4.04597,0.29379 8.10123,0.36315 12.15625,0.40625 3.3014,0.0264 6.60477,0.0343 9.90625,0.0312 3.30699,0.14867 6.55944,-0.28789 9.84375,-0.59375 3.34647,-0.25296 6.71974,-0.34897 10.0625,-0.65625 3.98169,-0.44992 7.97844,-0.44096 11.96875,-0.75 3.8946,-0.26341 7.75787,-0.73426 11.625,-1.25 4.00904,-0.54307 8.06467,-0.46219 12.09375,-0.71875 3.66785,-0.32943 7.35132,-0.63309 11.03125,-0.78125 3.79941,-0.43481 7.59988,-0.67921 11.40625,-1.03125 5.20276,-0.5483 10.42895,-0.76312 15.65625,-0.90625 4.61997,-0.10574 9.25411,-0.117 13.875,-0.125 5.43677,-0.006 10.87573,-0.006 16.3125,0 4.50271,0.007 8.99729,-0.002 13.5,0 5.40617,-0.32992 10.80469,-0.61257 16.21875,-0.78125 6.14236,-0.15944 12.29346,-0.1753 18.4375,-0.1875 5.80932,-0.005 11.62818,-0.004 17.4375,0 4.65398,0.0683 9.29606,-0.4134 13.9375,-0.6875 4.09211,-0.63216 8.12888,-1.41112 12.25,-1.84375 3.68435,-0.1896 7.35487,-0.6476 11.03125,-0.9375 4.16245,-0.22838 8.27953,-0.7678 12.4375,-1.0625 3.63399,-0.15466 7.25569,-0.67818 10.84375,-1.25 4.21753,-0.52904 8.45666,-0.92022 12.6875,-1.34375 4.60145,-0.43257 9.22545,-0.53385 13.84375,-0.59375 5.40083,-0.0984 10.79429,-0.0467 16.1875,0.25 4.72824,0.30097 9.45113,0.53946 14.1875,0.65625 2.91068,0.0645 5.80744,0.0619 8.71875,0.0625 2.81349,-0.002 5.65526,-6.3e-4 8.46875,0 2.57205,0 5.11545,-0.002 7.6875,0 2.03995,0.002 4.08506,-3.1e-4 6.125,0 2.62641,-0.006 5.24859,-0.002 7.875,0 2.58758,0.12972 5.15752,-0.0753 7.71875,-0.40625 2.87789,-0.36584 5.75904,-0.46785 8.65625,-0.53125 3.40163,-0.0539 6.8168,-0.0372 10.21875,-0.0312 3.5612,0.12224 7.11114,-0.32902 10.65625,-0.59375 3.44713,-0.12129 6.85307,-0.41995 10.28125,-0.78125 2.90889,-0.30659 5.82217,-0.36853 8.71875,-0.78125 1.49782,-0.24259 3.0082,-0.38075 4.5,-0.65625 L 950,679.67395 c -0.0509,0.26919 -0.13704,0.56684 -0.25,0.875 -0.39873,1.01528 -2.22876,2.38289 -3.21875,3.09375 -1.40827,0.66798 -2.8559,1.22132 -4.3125,1.78125 -2.02951,0.90035 -3.89659,2.14643 -5.78125,3.3125 l 3.0625,-1.1875 c -0.95675,0.55147 -1.83545,1.07723 -0.28125,0.21875 2.01353,-0.75265 4.00073,-1.53002 5.90625,-2.53125 2.98953,-1.72595 6.37508,-3.1723 8.09375,-6.34375 0.88146,-3.10237 -0.88715,-4.2042 -3.03125,-6.15625 -2.36586,-2.05308 -4.80782,-4.0038 -7.34375,-5.84375 z"
       id="path7240"
       inkscape:connector-curvature="0" />
    <text
       xml:space="preserve"
       style="font-size:12px;font-style:normal;font-variant:normal;font-weight:normal;font-stretch:normal;line-height:125%;letter-spacing:0px;word-spacing:0px;fill:#008000;fill-opacity:1;stroke:none;font-family:Segoe Print;-inkscape-font-specification:Segoe Print"
       x="747.01605"
       y="654.78253"
       id="text7102-05-6-9"
       sodipodi:linespacing="125%"><tspan
         sodipodi:role="line"
         id="tspan7104-4-7-3"
         x="747.01605"
         y="654.78253"
         style="font-size:14px;fill:#008000">Redirect to external</tspan><tspan
         sodipodi:role="line"
         x="747.01605"
         y="672.28253"
         style="font-size:14px;font-weight:bold;fill:#008000"
         id="tspan7266">ThirdPartyProcessor</tspan></text>
    <path
       style="fill:#008000;fill-opacity:1;stroke:none"
       d="m 371.03807,770.2995 -3.5625,1.40625 c -2.45667,1.56535 -4.7852,3.25032 -7.0625,5.0625 -1.96759,1.52768 -3.87948,2.98404 -4.6875,5.40625 -0.37159,2.51483 1.16536,4.24537 2.78125,5.9375 1.58169,1.6823 3.71611,2.54768 5.625,3.75 1.53983,1.16984 2.87089,2.59941 4.09375,4.09375 0.97508,1.11337 1.87411,2.30849 2.75,3.5 l 3.28125,-1.96875 c -0.87777,-1.19757 -1.77487,-2.37879 -2.75,-3.5 -1.24287,-1.53058 -2.60021,-2.97344 -4.15625,-4.1875 -1.87263,-1.20958 -4.02069,-2.00122 -5.59375,-3.65625 -0.58637,-0.61223 -1.15198,-1.24596 -1.625,-1.90625 1.06298,-1.1e-4 2.12453,-0.003 3.1875,0 2.26295,-10e-4 4.54956,0.005 6.8125,0 2.3581,-0.003 4.70446,-0.0205 7.0625,0 2.77704,0.0379 5.54404,0.14009 8.3125,0.375 3.18918,0.27895 6.38278,0.75733 9.59375,0.59375 2.86489,0 5.72887,-0.006 8.59375,0 3.28836,0.0191 6.56033,0.0519 9.84375,0.25 3.31831,0.22549 6.64322,0.68945 9.96875,0.71875 3.41089,0 6.80787,0.008 10.21875,0 3.89711,-0.009 7.79253,-0.0146 11.6875,-0.15625 3.54314,-0.16784 7.06345,-0.53964 10.59375,-0.875 4.12495,-0.10391 8.26284,-0.27056 12.375,-0.625 3.97171,-0.28218 7.92383,-0.35055 11.90625,-0.28125 3.89414,0 7.79336,-0.004 11.6875,0 3.31101,7.8e-4 6.62649,-0.002 9.9375,0 3.31009,-0.002 6.6274,0.001 9.9375,0 3.68059,-0.003 7.35065,0.001 11.03125,0 3.78689,0.001 7.5881,0.002 11.375,0 4.04171,-0.009 8.08422,-0.0266 12.125,-0.125 4.69645,-0.14121 9.37709,-0.39553 14.0625,-0.75 4.94957,-0.24006 9.92093,-0.0477 14.875,-0.0937 4.30426,0.006 8.60198,-0.004 12.90625,0 3.64605,-0.003 7.29269,-0.0169 10.9375,-0.125 4.51927,-0.14394 9.02132,-0.3969 13.53125,-0.71875 5.65757,-0.26327 11.3382,-0.0601 17,-0.1875 5.94031,-0.0868 11.88592,-0.25103 17.8125,-0.6875 5.19892,-0.36551 10.4035,-0.5495 15.59375,-1.03125 4.6434,-0.46976 9.30138,-0.7821 13.90625,-1.5625 1.13003,-0.18482 3.26941,-0.5346 4.40625,-0.625 3.04673,-0.24219 6.11463,-0.0983 9.15625,-0.46875 4.58365,-0.375 9.1844,-0.75452 13.78125,-0.9375 4.69964,-0.33488 9.38066,-0.6221 14.09375,-0.6875 4.71702,-0.24421 9.40423,-0.76732 14.125,-0.90625 5.64195,-0.19716 11.29684,-0.59039 16.9375,-0.8125 6.32912,-0.003 12.63963,0.002 18.96875,0 6.62968,0.005 13.27727,0.016 19.90625,0.125 5.48551,0.11629 10.96753,0.29956 16.4375,0.75 4.90361,0.26769 9.81297,0.11818 14.71875,0.375 5.17192,0.24075 10.32984,0.72142 15.5,0.96875 4.61745,0.24132 9.19682,0.72911 13.8125,0.96875 5.06388,0.28434 10.12574,0.82062 15.1875,1.125 5.04631,0.39603 10.06523,1.02227 15.09375,1.59375 4.17124,0.60706 8.29939,1.16928 12.53125,1 3.37964,0.12757 6.76426,0.36179 10.125,0.75 3.12523,0.25457 6.24177,0.0733 9.375,0.125 3.7624,-0.003 7.55011,-0.008 11.3125,0 3.60813,-10e-4 7.20457,0.0133 10.8125,-0.0312 3.00169,-0.0505 6.01536,-0.11799 9,-0.46875 2.92188,-0.35189 5.83343,-0.6227 8.78125,-0.46875 l 3.09375,-2.25 c -2.96111,-0.0992 -5.90516,0.0967 -8.84375,0.4375 -2.98006,0.36325 -5.9703,0.47015 -8.96875,0.53125 -3.60895,0.0508 -7.23453,0.0353 -10.84375,0.0312 -3.76014,0.003 -7.52111,0.005 -11.28125,0 -3.12633,-0.0472 -6.25403,0.0842 -9.375,-0.125 -3.36768,-0.36568 -6.74071,-0.61505 -10.125,-0.75 -4.22783,0.15008 -8.36066,-0.36512 -12.53125,-0.96875 -5.03627,-0.58067 -10.07129,-1.15229 -15.125,-1.5625 -5.06141,-0.29661 -10.09438,-0.85829 -15.15625,-1.15625 -4.61678,-0.23853 -9.22611,-0.72233 -13.84375,-0.96875 -5.17541,-0.2372 -10.32411,-0.72345 -15.5,-0.96875 -4.9007,-0.26667 -9.81872,-0.13449 -14.71875,-0.375 -5.48235,-0.44101 -10.97144,-0.63736 -16.46875,-0.75 -6.63429,-0.10709 -13.27128,-0.0907 -19.90625,-0.0937 -6.3242,-0.004 -12.64455,-4.5e-4 -18.96875,0 -5.63726,0.20113 -11.26878,0.57973 -16.90625,0.78125 -4.72004,0.11492 -9.4109,0.62337 -14.125,0.875 -4.7139,0.0864 -9.42381,0.34736 -14.125,0.6875 -4.59518,0.19948 -9.16743,0.55391 -13.75,0.9375 -4.54754,0.31765 -9.08567,0.35264 -13.59375,1.0625 -4.60311,0.79967 -9.26288,1.1178 -13.90625,1.59375 -5.19282,0.49837 -10.42272,0.65727 -15.625,1.03125 -5.92286,0.44695 -11.84418,0.62385 -17.78125,0.71875 -5.65941,0.12698 -11.31259,-0.0748 -16.96875,0.15625 -4.50185,0.3007 -9.02152,0.57163 -13.53125,0.71875 -3.63987,0.10289 -7.26523,0.119 -10.90625,0.125 -4.31213,0.006 -8.62537,-0.004 -12.9375,0 -4.9588,0.0411 -9.9198,-0.0891 -14.875,0.125 -4.68093,0.3362 -9.3717,0.57605 -14.0625,0.71875 -4.03314,0.10187 -8.05955,0.124 -12.09375,0.125 -3.78945,-2.6e-4 -7.58555,10e-4 -11.375,0 -3.67668,-0.004 -7.35457,0.003 -11.03125,0 -3.30845,-0.002 -6.62905,0.002 -9.9375,0 -3.31221,10e-4 -6.62529,-0.001 -9.9375,0 -3.89877,0.004 -7.78873,2e-4 -11.6875,0 -3.99013,-0.0605 -7.95758,-0.0353 -11.9375,0.25 -4.10411,0.34604 -8.22714,0.556 -12.34375,0.65625 -3.53458,0.29408 -7.05097,0.65547 -10.59375,0.84375 -3.89248,0.16304 -7.79228,0.1757 -11.6875,0.1875 -3.40593,10e-4 -6.81282,0.005 -10.21875,0 -3.32306,-0.003 -6.62447,-0.48498 -9.9375,-0.71875 -3.28471,-0.20977 -6.58482,-0.2205 -9.875,-0.25 -2.86685,-0.0212 -5.72685,-0.0353 -8.59375,-0.0312 -3.20387,0.16305 -6.38037,-0.27995 -9.5625,-0.5625 -2.76847,-0.24608 -5.5346,-0.3296 -8.3125,-0.375 -2.35779,-0.031 -4.73583,-0.0322 -7.09375,-0.0312 -2.26268,0 -4.51858,-3.4e-4 -6.78125,0 -1.38916,0.005 -2.76709,3e-4 -4.15625,0 l -2.4375,1.78125 c -0.56321,-0.92954 -0.86633,-1.94275 -0.625,-3.1875 0.90899,-2.30443 2.85358,-3.71642 4.75,-5.21875 2.27421,-1.82452 4.64646,-3.47734 7.09375,-5.0625 z"
       id="path7270"
       inkscape:connector-curvature="0" />
    <text
       xml:space="preserve"
       style="font-size:12px;font-style:normal;font-variant:normal;font-weight:normal;font-stretch:normal;line-height:125%;letter-spacing:0px;word-spacing:0px;fill:#008000;fill-opacity:1;stroke:none;font-family:Segoe Print;-inkscape-font-specification:Segoe Print"
       x="362.54114"
       y="740.33673"
       id="text7102-05-6-9-4"
       sodipodi:linespacing="125%"><tspan
         sodipodi:role="line"
         id="tspan7104-4-7-3-7"
         x="362.54114"
         y="740.33673"
         style="font-size:14px;fill:#008000">Redirect to </tspan><tspan
         sodipodi:role="line"
         x="362.54114"
         y="757.83673"
         style="font-size:14px;fill:#008000"
         id="tspan7266-8"><tspan
   style="font-weight:bold;fill:#008000"
   id="tspan7421">ThirdPartyProcessorPaymentAccepted</tspan> or</tspan><tspan
         sodipodi:role="line"
         x="362.54114"
         y="775.33673"
         style="font-size:14px;font-weight:bold;fill:#008000"
         id="tspan7387">ThirdPartyProcessorPaymentRejected</tspan></text>
    <path
       style="fill:#0000ff;fill-opacity:1;stroke:none"
       d="m 639.84375,861.92395 -3.21875,2.03125 c 2.25187,1.8198 4.36548,3.7831 6.625,5.59375 1.48642,1.20124 2.62099,2.64087 2.96875,4.46875 -2.50316,0.73829 -5.03906,1.4065 -7.625,1.78125 -2.57236,0.33549 -5.15331,0.29263 -7.71875,0.71875 -2.34459,0.29927 -4.69813,0.36635 -7.0625,0.34375 -2.89309,0.0676 -5.77865,0.1742 -8.65625,0.5 -3.38741,0.34842 -6.7779,0.57471 -10.1875,0.4375 -3.81799,10e-4 -7.61993,0.0344 -11.4375,-0.0312 -3.90166,-0.0868 -7.80148,-0.24719 -11.6875,-0.625 -4.26593,-0.35312 -8.53415,-0.37745 -12.8125,-0.46875 -6.35593,-0.21154 -12.70526,-0.60718 -19.0625,-0.78125 -8.15874,-7e-4 -16.31022,-0.003 -24.46875,0.0625 -7.24988,0.06 -14.50968,0.22514 -21.75,0.625 -7.5484,0.34588 -15.10281,0.35324 -22.65625,0.53125 -4.22552,0.17694 -8.42211,0.62849 -12.625,1.0625 -3.72132,0.31295 -7.41322,0.75984 -11.15625,0.625 -4.01588,0.0518 -8.06381,0.0934 -12.0625,0.5 -3.80042,0.42836 -7.60237,0.80025 -11.40625,1.1875 -3.69523,0.5124 -7.33547,1.45835 -11.09375,1.1875 -3.29931,0.003 -6.57569,-0.008 -9.875,0 -3.28169,0.005 -6.59346,0.039 -9.875,0 -6.14209,-0.0927 -12.27586,-0.31803 -18.40625,-0.71875 -6.70703,-0.44627 -13.40095,-1.21798 -20.125,-1.21875 l -3.09375,2.25 c 6.76335,-0.10397 13.50691,0.63981 20.25,1.09375 6.10457,0.41137 12.22695,0.66015 18.34375,0.78125 3.27296,0.0566 6.53916,0.0675 9.8125,0.0625 3.30338,-0.004 6.60285,-0.0311 9.90625,-0.0312 3.77188,0.27861 7.45142,-0.62272 11.15625,-1.15625 3.79514,-0.41119 7.58038,-0.73199 11.375,-1.15625 3.99439,-0.4302 8.01777,-0.5052 12.03125,-0.5625 3.74151,0.12566 7.46699,-0.27659 11.1875,-0.59375 4.21967,-0.41323 8.4185,-0.87974 12.65625,-1.09375 7.56287,-0.233 15.12772,-0.22869 22.6875,-0.5625 7.24466,-0.38093 14.49681,-0.56375 21.75,-0.65625 8.1538,-0.0683 16.31474,-0.0615 24.46875,-0.0625 6.33693,0.16406 12.6656,0.57804 19,0.8125 4.26428,0.12873 8.52748,0.12401 12.78125,0.46875 3.89062,0.37923 7.78089,0.5382 11.6875,0.625 3.81455,0.0635 7.62251,0.0907 11.4375,0.0937 3.4139,0.12157 6.82473,-0.0999 10.21875,-0.4375 2.86818,-0.32356 5.74137,-0.4318 8.625,-0.5 2.36681,1.7e-4 4.71194,-0.0237 7.0625,-0.3125 2.56655,-0.41553 5.17243,-0.45586 7.75,-0.75 2.63703,-0.36315 5.22892,-1.00372 7.78125,-1.75 1.46174,-0.39728 0.71979,-0.19872 2.15625,-0.53125 l 0.71875,-0.53125 c -0.46025,1.86881 -2.06572,3.19313 -3.40625,4.5 -1.2602,1.11411 -2.39138,2.2935 -3.375,3.65625 l 3.5,-1.5 c 1.01227,-1.32444 2.17088,-2.50543 3.40625,-3.625 1.49995,-1.48226 3.19098,-2.94615 3.34375,-5.1875 -0.22894,-2.30164 -1.4218,-4.12354 -3.21875,-5.5625 -2.26265,-1.80177 -4.41793,-3.72512 -6.625,-5.59375 z"
       id="path7389"
       inkscape:connector-curvature="0" />
    <text
       xml:space="preserve"
       style="font-size:12px;font-style:normal;font-variant:normal;font-weight:normal;font-stretch:normal;line-height:125%;letter-spacing:0px;word-spacing:0px;fill:#0000ff;fill-opacity:1;stroke:none;font-family:Segoe Print;-inkscape-font-specification:Segoe Print"
       x="360.39481"
       y="835.37085"
       id="text7102-05-8"
       sodipodi:linespacing="125%"><tspan
         sodipodi:role="line"
         id="tspan7104-4-1"
         x="360.39481"
         y="835.37085"
         style="font-size:14px;fill:#0000ff">Send command</tspan><tspan
         sodipodi:role="line"
         x="360.39481"
         y="852.87085"
         style="font-size:14px;fill:#0000ff"
         id="tspan7423"><tspan
   style="font-weight:bold;fill:#0000ff"
   id="tspan7429">CompleteThirdPartyProcessorPayment</tspan> or</tspan><tspan
         sodipodi:role="line"
         x="360.39481"
         y="870.37085"
         style="font-size:14px;font-weight:bold;fill:#0000ff"
         id="tspan7427">CancelThirdPartyProcessorPayment</tspan><tspan
         sodipodi:role="line"
         x="360.39481"
         y="887.87085"
         style="font-size:14px;fill:#0000ff"
         id="tspan7425" /></text>
    <path
       style="fill:#008000;fill-opacity:1;stroke:none"
       d="m 671,873.54895 -3.125,2.1875 c 2.69061,0.4215 5.39954,0.50473 8.09375,0.875 2.11865,0.40947 4.25462,0.71588 6.40625,0.875 2.02855,0.12355 4.06237,0.0918 6.09375,0.0937 2.01932,-0.0496 3.41877,-0.0182 4.1875,2.03125 0.53339,2.62356 0.46844,5.29647 0.15625,7.9375 -0.29245,2.34524 -0.99945,4.60376 -1.375,6.9375 -0.60746,2.0565 -0.96157,4.14739 -1.125,6.28125 -0.14931,2.39038 -0.1775,4.79332 -0.1875,7.1875 -0.0624,2.04316 0.1314,4.09419 -0.125,6.125 -0.0961,0.31414 -0.15204,0.63546 -0.28125,0.9375 -0.0826,0.19307 -0.16668,0.35911 -0.25,0.5 -0.15637,0.0426 -0.22143,0.0593 -0.46875,0.125 -2.29382,0.25782 -4.55566,0.627 -6.84375,0.9375 -2.03164,0.21484 -4.00943,0.74179 -6.03125,1.03125 -1.59961,0.20588 -3.20205,0.24785 -4.8125,0.28125 l -0.5625,0.40625 c -0.23003,-0.34006 -0.40681,-0.71918 -0.5,-1.15625 0.0812,-2.52254 1.49417,-4.73841 2.65625,-6.90625 l -3.46875,1.5625 c -1.19312,2.20499 -2.58875,4.49035 -2.59375,7.0625 0.44243,1.96465 2.19962,2.95038 3.84375,3.84375 1.21334,0.61777 2.57211,0.8402 3.875,1.1875 l 3.15625,-2.15625 c -1.27747,-0.3569 -2.60594,-0.54581 -3.8125,-1.125 -0.39754,-0.20859 -0.81725,-0.4207 -1.21875,-0.65625 0.12575,-0.0127 0.24938,-0.0167 0.375,-0.0312 2.02939,-0.26624 4.002,-0.8224 6.03125,-1.0625 2.29637,-0.29959 4.56386,-0.73335 6.875,-0.90625 2.51416,-0.55945 1.01014,-0.11798 5.28125,-2.4375 1.27303,-0.69135 1.94607,-1.69849 2.1875,-3.125 0.20425,-2.04815 0.053,-4.1316 0.0937,-6.1875 0.007,-2.38396 0.0232,-4.74558 0.1875,-7.125 0.18981,-2.12434 0.59686,-4.22211 1.15625,-6.28125 0.39014,-2.33062 1.08343,-4.58624 1.34375,-6.9375 0.3002,-2.6998 0.338,-5.41824 -0.21875,-8.09375 -0.84812,-2.17951 -2.19238,-2.49315 -4.4375,-2.40625 -2.02432,-0.003 -4.04022,-0.0217 -6.0625,-0.125 -2.15,-0.14068 -4.29257,-0.41954 -6.40625,-0.84375 -2.68326,-0.40851 -5.41294,-0.38491 -8.09375,-0.84375 z m 18.09375,42.40625 c -0.15154,0.14802 -0.29273,0.30997 -0.53125,0.46875 -0.20579,0.137 -0.76173,0.44101 -0.90625,0.5 0.008,-0.007 -0.0167,-0.0192 0,-0.0312 0.54826,-0.39389 1.04949,-0.70498 1.4375,-0.9375 z"
       id="path7431"
       inkscape:connector-curvature="0" />
    <text
       xml:space="preserve"
       style="font-size:12px;font-style:normal;font-variant:normal;font-weight:normal;font-stretch:normal;line-height:125%;letter-spacing:0px;word-spacing:0px;fill:#008000;fill-opacity:1;stroke:none;font-family:Segoe Print;-inkscape-font-specification:Segoe Print"
       x="703.34601"
       y="889.80261"
       id="text7102-05-6-9-6"
       sodipodi:linespacing="125%"><tspan
         sodipodi:role="line"
         id="tspan7104-4-7-3-3"
         x="703.34601"
         y="889.80261"
         style="font-size:14px;fill:#008000">Raise event</tspan><tspan
         sodipodi:role="line"
         x="703.34601"
         y="907.30261"
         style="font-size:14px;font-weight:bold;fill:#008000"
         id="tspan7266-87">PaymentCompleted <tspan
   style="font-weight:normal;fill:#008000"
   id="tspan7462">or</tspan></tspan><tspan
         sodipodi:role="line"
         x="703.34601"
         y="924.80261"
         style="font-size:14px;font-weight:bold;fill:#008000"
         id="tspan7460">PaymentRejected</tspan><tspan
         sodipodi:role="line"
         x="703.34601"
         y="942.30261"
         style="font-size:14px;font-weight:normal;fill:#008000"
         id="tspan7506">(these events are handled by</tspan><tspan
         sodipodi:role="line"
         x="703.34601"
         y="959.80261"
         style="font-size:14px;font-weight:normal;fill:#008000"
         id="tspan7508">the registration process</tspan><tspan
         sodipodi:role="line"
         x="703.34601"
         y="977.30261"
         style="font-size:14px;font-weight:normal;fill:#008000"
         id="tspan7510">manager)</tspan></text>
    <path
       style="fill:#008000;fill-opacity:1;stroke:none"
       d="m 84.40625,970.92395 -3.5625,1.40625 c -2.521404,1.75614 -4.774619,3.82849 -7.375,5.46875 -2.225905,1.31128 -4.279242,2.93508 -6.375,4.4375 -1.160944,1.13969 -3.466269,1.84285 -4,3.5625 -0.121784,0.39237 -0.05827,0.80945 -0.09375,1.21875 0.002,0.0318 -0.0024,0.0622 0,0.0937 l -0.75,0.53125 c 0.277607,0.0324 0.565897,0.0476 0.84375,0.0625 0.368754,2.38888 1.800279,4.10028 3.875,5.375 2.119088,1.02373 4.361469,1.65602 6.59375,2.375 1.807303,0.50893 3.173162,1.64097 4.5,2.90625 l 3.25,-1.96875 c -1.353218,-1.30874 -2.744995,-2.51494 -4.59375,-3.0625 -2.214245,-0.70352 -4.441035,-1.35106 -6.5625,-2.3125 -1.46431,-0.85167 -2.595987,-1.95557 -3.21875,-3.375 0.333698,-0.0178 0.666232,-0.0519 1,-0.0625 10.281448,-0.57655 20.558581,-1.33009 30.84375,-1.84375 9.92488,-0.46684 19.90878,-1.09541 29.84375,-0.625 4.5213,0.31218 9.03119,0.79778 13.5625,0.9375 6.28361,0.32472 12.55427,0.85876 18.78125,1.78125 2.33575,0.33668 4.70168,0.7627 7.0625,0.875 2.81032,0.13369 5.62621,-0.12167 8.4375,0 6.79892,0.004 13.60894,-0.0106 20.40625,0.15625 4.40575,0.15583 8.77563,0.53309 13.15625,1.03125 6.1785,0.30914 12.35733,0.86753 18.53125,1.25 7.16103,0.28724 14.30461,0.54766 21.46875,0.71875 4.57693,0.25071 9.16587,0.72105 13.75,0.78125 4.81711,0.0894 9.64375,0.20001 14.4375,0.71875 5.05266,0.5125 10.09592,0.64028 15.15625,1.0625 2.47062,0.26132 4.97862,0.22444 7.4375,0.625 3.88313,0.51694 7.76919,0.65025 11.6875,0.65625 5.95266,0.16156 11.92802,0.53845 17.875,0.25 3.13305,-0.28991 6.25337,-0.61858 9.40625,-0.46875 3.3565,-8e-4 6.70605,0.0109 10.0625,0.0312 l 3.09375,-2.25 c -3.36978,0.0205 -6.72394,7.8e-4 -10.09375,0 -3.15861,-0.15209 -6.29827,0.14311 -9.4375,0.4375 -5.95435,0.3827 -11.94622,0.0263 -17.90625,-0.15625 -3.88382,-0.0406 -7.74405,-0.16748 -11.59375,-0.6875 -2.46189,-0.41372 -4.95811,-0.40396 -7.4375,-0.625 -5.07183,-0.38064 -10.12717,-0.50955 -15.1875,-1.03125 -4.80177,-0.52569 -9.64334,-0.6456 -14.46875,-0.75 -4.57775,-0.0521 -9.15025,-0.51249 -13.71875,-0.78125 -7.19545,-0.14553 -14.37018,-0.36348 -21.5625,-0.65625 -6.14795,-0.37261 -12.28716,-0.97662 -18.4375,-1.3125 -4.39395,-0.485 -8.79953,-0.87373 -13.21875,-1 -6.80272,-0.15152 -13.60217,-0.1735 -20.40625,-0.1875 -5.19671,0.24255 -10.30297,-0.13228 -15.4375,-0.875 -6.24884,-0.86612 -12.5152,-1.43183 -18.8125,-1.78125 -4.51519,-0.14446 -9.02843,-0.62994 -13.53125,-0.96875 -3.92629,-0.37099 -7.80905,-0.0847 -11.75,0.0625 -13.67187,0.51068 -4.7226,0.14082 -18.40625,0.78125 -10.190481,0.49151 -20.371865,1.13767 -30.5625,1.625 -1.522376,0.0407 -3.041908,0.13628 -4.5625,0.0937 -0.0022,-0.0429 0.0014,-0.0817 0,-0.125 0.06504,-0.35526 0.05023,-0.72844 0.1875,-1.0625 0.672422,-1.63641 2.896206,-2.27968 4.0625,-3.4375 2.092733,-1.49777 4.119881,-3.10104 6.34375,-4.40625 2.578704,-1.69423 4.879953,-3.72908 7.40625,-5.5 z"
       id="path7469"
       inkscape:connector-curvature="0" />
    <text
       xml:space="preserve"
       style="font-size:12px;font-style:normal;font-variant:normal;font-weight:normal;font-stretch:normal;line-height:125%;letter-spacing:0px;word-spacing:0px;fill:#008000;fill-opacity:1;stroke:none;font-family:Segoe Print;-inkscape-font-specification:Segoe Print"
       x="112.54248"
       y="937.05267"
       id="text7102-05-6-9-4-6"
       sodipodi:linespacing="125%"><tspan
         sodipodi:role="line"
         id="tspan7104-4-7-3-7-1"
         x="112.54248"
         y="937.05267"
         style="font-size:14px;fill:#008000">Redirect to </tspan><tspan
         sodipodi:role="line"
         x="112.54248"
         y="954.55267"
         style="font-size:14px;fill:#008000"
         id="tspan7266-8-7"><tspan
   style="font-weight:bold;fill:#008000"
   id="tspan7504">ThankYou</tspan> or</tspan><tspan
         sodipodi:role="line"
         x="112.54248"
         y="972.05267"
         style="font-size:14px;font-weight:bold;fill:#008000"
         id="tspan7387-3">SpecifyPaymentDetails</tspan></text>
  </g>
  <g
     inkscape:groupmode="layer"
     id="versionlayer"
     inkscape:label="Version">
    <text
       xml:space="preserve"
       style="font-style:normal;font-variant:normal;font-weight:normal;font-stretch:normal;fill:#ff0000;font-family:Courier New;-inkscape-font-specification:Courier New"
       x="10"
       y="10"
       id="versiontext">Journey_05_Payments.svg (v2)</text>
  </g>
</svg>
