<?xml version="1.0" encoding="UTF-8" standalone="no"?>
<!-- Created with Inkscape (http://www.inkscape.org/) -->

<svg
   xmlns:dc="http://purl.org/dc/elements/1.1/"
   xmlns:cc="http://creativecommons.org/ns#"
   xmlns:rdf="http://www.w3.org/1999/02/22-rdf-syntax-ns#"
   xmlns:svg="http://www.w3.org/2000/svg"
   xmlns="http://www.w3.org/2000/svg"
   xmlns:sodipodi="http://sodipodi.sourceforge.net/DTD/sodipodi-0.dtd"
   xmlns:inkscape="http://www.inkscape.org/namespaces/inkscape"
   width="744.09448"
   height="1052.3622"
   id="svg2"
   version="1.1"
   inkscape:version="0.48.2 r9819"
   sodipodi:docname="Journey_03_Aggregates_01.svg"
   inkscape:export-filename="D:\CQRS Resources\Source Code\cqrs-journey-doc\images\Journey_03_Aggregates_01.png"
   inkscape:export-xdpi="90"
   inkscape:export-ydpi="90">
  <title
     id="title3173">Mapping from the Domain to the RDBMS</title>
  <defs
     id="defs4" />
  <sodipodi:namedview
     id="base"
     pagecolor="#ffffff"
     bordercolor="#666666"
     borderopacity="1.0"
     inkscape:pageopacity="0.0"
     inkscape:pageshadow="2"
     inkscape:zoom="0.93406009"
     inkscape:cx="249.67954"
     inkscape:cy="527.87626"
     inkscape:document-units="px"
     inkscape:current-layer="layer1"
     showgrid="false"
     inkscape:window-width="1846"
     inkscape:window-height="1178"
     inkscape:window-x="1592"
     inkscape:window-y="-8"
     inkscape:window-maximized="1" />
  <metadata
     id="metadata7">
    <rdf:RDF>
      <cc:Work
         rdf:about="">
        <dc:format>image/svg+xml</dc:format>
        <dc:type
           rdf:resource="http://purl.org/dc/dcmitype/StillImage" />
        <dc:title>Mapping from the Domain to the RDBMS</dc:title>
      </cc:Work>
    </rdf:RDF>
  </metadata>
  <g
     inkscape:label="Layer 1"
     inkscape:groupmode="layer"
     id="layer1">
    <path
       style="fill:#000000;fill-opacity:0.78431373;stroke:none"
       id="path2991"
       d="m 23.032826,144.42403 c -0.293194,3.62596 -0.66418,7.24344 -0.877003,10.87567 -0.332755,2.95529 -0.795505,5.89161 -1.053142,8.85536 -0.243292,2.74307 -0.101487,5.50055 -0.326258,8.24249 -0.403888,2.69705 -0.679492,5.40467 -0.821801,8.12739 -0.115291,2.87253 -0.123557,5.74792 -0.12664,8.62232 -0.003,2.67597 0.0068,5.35192 0.005,8.02788 -0.0037,2.80622 0.004,5.61244 0.0011,8.41866 -4.26e-4,2.79479 0.0026,5.58959 -7.32e-4,8.38438 -5.72e-4,2.834 0.0029,5.66801 -2.39e-4,8.50201 -0.0015,3.19426 -0.0076,6.38852 -0.0043,9.58279 -0.160868,3.51824 0.318457,7.0062 0.622949,10.50199 0.292806,3.78289 0.856472,7.53633 1.180973,11.31817 0.519402,3.75581 0.952239,7.51418 1.184251,11.29893 0.178137,3.6395 0.199437,7.28429 0.210251,10.9274 0.01334,3.26974 -0.0033,6.53948 -0.0046,9.80922 -0.01108,4.09385 -0.01188,8.18772 -0.01855,12.28158 0.14057,4.93984 -0.111548,9.85588 -0.475541,14.77882 -0.321188,4.2458 -0.349706,8.50091 -0.827222,12.73329 -0.373804,2.90031 -0.609362,5.81413 -0.730722,8.73515 -0.01512,2.36597 -0.06242,4.7061 -0.365134,7.05356 -0.42466,2.95575 -0.59856,5.9373 -0.701421,8.91893 -0.07908,2.80744 -0.07532,5.61631 -0.07299,8.4246 0.0063,2.42148 0.0063,4.84297 0.0022,7.26446 -5.24e-4,2.577 0.0042,5.154 0.0068,7.731 0.002,2.18225 0.0024,4.3645 0.0026,6.54675 -1.36e-4,2.33887 -0.0049,4.67773 -0.0039,7.01661 0.0042,2.36455 7.06e-4,4.7291 -9.8e-4,7.09365 0.05594,2.3975 -0.46692,4.75621 -0.751112,7.12753 -0.253502,2.29403 -0.284583,4.60366 -0.309204,6.90901 0.151513,2.3499 -0.287708,4.64929 -0.625119,6.96073 -0.184153,2.42317 -0.679489,4.80085 -1.047371,7.19912 -0.331086,2.23816 -0.400412,4.50098 -0.447142,6.75922 0.03268,2.50743 -0.157997,5.02837 0.09473,7.52632 0.605041,2.59609 3.29848,2.40945 5.44753,2.34912 3.746466,-0.24994 7.496151,-0.42472 11.248868,-0.54711 3.202285,0.10471 6.349974,-0.25684 9.520362,-0.62255 2.946749,-0.3487 5.848115,-0.97657 8.799315,-1.32125 2.815114,-0.26303 5.644114,-0.28484 8.469021,-0.30032 3.593381,-0.003 7.18678,0.002 10.780153,0.0101 4.135752,0.16938 8.246127,-0.30965 12.359426,-0.65888 3.274636,-0.26717 6.559557,-0.35047 9.843428,-0.39929 2.452555,-0.0299 4.905317,-0.0217 7.357983,-0.0183 2.96702,0.005 5.93404,0.009 8.90107,0.0123 3.98433,0.009 7.96869,0.008 11.95303,0.004 3.91354,-0.0296 7.80597,-0.54486 11.71249,-0.78487 4.80599,-0.5394 9.6232,-0.92645 14.42874,-1.46859 4.99242,-0.52197 9.95134,-1.2696 14.95813,-1.66349 3.6745,-0.0735 7.29823,-0.66982 10.94935,-1.0174 4.24039,-0.23483 8.47366,-0.3357 12.70616,-0.69561 4.50241,-0.24734 8.96088,-0.91247 13.44568,-1.3541 4.54207,-0.22915 9.06914,-0.59583 13.60324,-0.95024 5.35978,-0.75028 10.75008,-1.17786 16.15423,-1.41782 6.26732,-0.21428 12.53953,-0.20619 18.8097,-0.2135 6.00715,-0.002 12.0143,-8.2e-4 18.02145,-0.003 4.94807,-0.0272 9.87506,0.53093 14.8136,0.78635 5.46487,0.24024 10.93609,0.26117 16.40521,0.28503 6.80923,0.0424 13.61911,-0.0755 20.42505,0.15885 9.06207,0.29111 18.11008,0.83437 27.16319,1.31265 8.59193,0.29292 17.17492,0.67747 25.75919,1.14213 7.36746,0.3977 14.7455,0.50452 22.12199,0.56618 6.48976,0.0402 12.97967,0.0291 19.4695,0.0237 5.77099,0.15757 11.51961,-0.14594 17.27536,-0.50726 5.20176,-0.29464 10.40156,-0.43357 15.59439,-0.86052 5.6777,-0.57526 11.33868,-1.19175 17.04117,-1.48639 6.49029,-0.27638 12.98743,-0.32268 19.48263,-0.35688 5.83068,-0.016 11.66138,0.003 17.49206,0.006 6.00278,0.002 12.00555,0.003 18.00833,0.005 4.6252,-0.004 9.25038,-0.0107 13.87557,-0.0213 2.56367,-0.005 5.12735,-0.0117 7.69103,-0.008 3.88326,0.008 7.76653,0.0133 11.64978,0.0248 8.62602,-0.20104 17.22248,0.25907 25.82368,0.84421 9.30594,0.60053 18.58741,1.48992 27.90069,1.98436 6.51155,0.11161 13.00033,0.63332 19.49751,1.03286 3.73182,0.23461 7.46958,0.33258 11.20792,0.36982 3.83751,0.0178 7.67506,0.0234 11.5126,0.0363 8.04116,0.24399 16.05124,1.01579 24.07675,1.53729 4.55013,0.28952 9.10557,0.4856 13.66435,0.55358 2.79414,0.0309 5.5885,0.0185 8.38273,0.0107 2.30379,-0.006 4.60759,-0.0118 6.91139,-0.009 2.44048,0.002 4.88096,-0.003 7.32144,2.9e-4 2.46489,0.1787 4.8716,-0.34599 7.29818,-0.678 2.45561,-0.19307 4.87942,-0.3399 7.25072,-1.04892 3.35381,-1.76947 -2.33796,1.41914 -3.57392,1.99814 -0.28467,0.13336 0.46401,-0.42837 0.65735,-0.67625 0.60434,-0.77481 0.81879,-1.66703 1.0376,-2.59972 0.32873,-2.06634 0.2804,-4.16831 0.27086,-6.25385 0.0933,-2.24785 -0.2741,-4.46665 -0.76939,-6.65106 -0.65256,-2.33069 -1.04388,-4.71063 -1.2576,-7.11771 -0.1683,-2.3184 -0.15179,-4.64449 -0.15532,-6.96741 0.0487,-2.31848 -0.47187,-4.59769 -0.74779,-6.89114 -0.2369,-2.14301 -0.2776,-4.30018 -0.3045,-6.45395 -0.016,-2.17025 -0.013,-4.34062 -0.005,-6.51091 0.006,-2.61418 0.009,-5.22835 0.007,-7.84253 -0.005,-2.6219 0.003,-5.24379 0.004,-7.86569 -0.007,-2.76216 8.5e-4,-5.5243 0.002,-8.28645 -0.001,-2.92871 2.4e-4,-5.85742 -8.9e-4,-8.78613 -0.003,-2.49003 -0.006,-4.98007 -0.008,-7.47011 0.004,-2.54334 0.005,-5.08668 0.005,-7.63002 9.9e-4,-2.82179 -1e-5,-5.64358 0.005,-8.46537 0.003,-3.21315 3e-5,-6.4263 0.002,-9.63945 -2.6e-4,-3.20669 -0.003,-6.41339 -3.9e-4,-9.62008 0.002,-3.33775 0.003,-6.67551 -10e-5,-10.01326 0.24285,-3.54812 0.62983,-7.08161 1.15918,-10.59764 0.57396,-3.58348 1.26054,-7.13872 1.66224,-10.7487 0.31955,-3.43675 0.35775,-6.89092 0.38042,-10.33982 0.012,-3.30089 0.004,-6.60179 -0.004,-9.90268 -0.005,-3.09799 -0.008,-6.196 -0.007,-9.29399 -0.006,-3.03093 0.002,-6.06185 -0.002,-9.09278 0.13401,-3.19262 -0.5996,-6.31044 -1.2223,-9.41673 -0.8481,-2.90246 -1.3464,-5.88257 -2.01153,-8.82781 -0.52291,-2.44428 -1.29961,-4.81312 -1.72578,-7.27981 -0.18879,-2.4623 -0.68009,-4.88236 -0.99765,-7.32875 -0.33804,-2.96216 -0.37327,-5.94849 -0.4188,-8.92642 -0.0249,-2.84081 -0.0229,-5.68173 -0.0144,-8.5226 0.007,-2.959 0.005,-5.918 0.001,-8.87701 0.26392,-2.80302 0.64857,-5.59016 0.86169,-8.39897 0.16058,-2.3163 0.18655,-4.63861 0.20069,-6.95949 0.0109,-2.3885 0.006,-4.77703 0.002,-7.16554 -0.0589,-2.21019 0.11686,-4.43165 -0.11616,-6.63257 -0.2213,-2.20335 -0.73907,-4.27016 -1.56072,-6.31732 -0.597,-2.35256 -2.04575,-3.29612 -4.30117,-3.80517 -2.7039,-0.42524 -5.45404,-0.37348 -8.18303,-0.37309 -2.90949,0.0134 -5.81896,0.0287 -8.72847,0.0379 -2.90471,0.009 -5.80945,0.006 -8.71417,0.009 -2.74467,-0.18891 -5.43598,0.32538 -8.14293,0.67776 -2.56882,0.0827 -5.07616,0.51633 -7.60982,0.89482 -3.61546,0.56273 -7.22568,1.04616 -10.87895,1.3032 -4.42136,0.10278 -8.81734,0.40352 -13.21923,0.81647 -3.93503,0.64256 -7.87892,1.14858 -11.85697,1.41515 -4.51311,0.22818 -9.03452,0.20143 -13.552,0.20429 -5.67194,0.15887 -11.3207,-0.13089 -16.97634,-0.50715 -5.3168,-0.35668 -10.64519,-0.4674 -15.97211,-0.53514 -5.76834,0.005 -11.51589,-0.80908 -17.21819,-1.62057 -5.17138,-0.81809 -10.39255,-1.23769 -15.61927,-1.47486 -3.76672,-0.14 -7.53659,-0.13394 -11.30527,-0.13286 -4.14838,-0.0178 -8.27155,0.57557 -12.37666,1.11128 -4.52418,0.54319 -9.07037,0.80031 -13.60028,1.28507 -5.19736,0.54829 -10.42423,0.65948 -15.64529,0.7419 -5.40468,0.0621 -10.80993,0.0729 -16.21494,0.0681 -4.78111,0.14021 -9.51005,0.84488 -14.25561,1.37433 -5.37624,0.55344 -10.78291,0.63856 -16.18219,0.71241 -6.39451,0.0414 -12.78921,0.0339 -19.18382,0.0316 -6.19499,-0.006 -12.38999,-0.006 -18.58498,-0.006 -5.33325,0.002 -10.6665,0.007 -15.99976,0.006 -5.2934,0.004 -10.5868,-0.003 -15.8802,-0.005 -5.19129,0.005 -10.38258,0.001 -15.57386,0.009 -4.49853,-0.31904 -8.99107,-0.68459 -13.4974,-0.88068 -4.14796,-0.40746 -8.29161,-0.83259 -12.4538,-1.06519 -3.47279,-0.17177 -6.95089,-0.17342 -10.42701,-0.18363 -4.88718,-0.0136 -9.77437,-0.009 -14.66155,-0.005 -4.85182,2.4e-4 -9.70364,0.005 -14.55546,0.007 -4.93541,-0.001 -9.87083,-0.005 -14.80624,-0.005 -5.29734,0.12694 -10.54348,0.81451 -15.80332,1.38013 -4.5172,0.57884 -9.07812,0.51427 -13.6095,0.86729 -4.7886,0.34603 -9.55766,0.87394 -14.33491,1.34225 -5.13021,0.83324 -10.30081,1.26781 -15.48765,1.52159 -6.48644,0.33287 -12.96488,0.75794 -19.45837,0.98231 -6.67596,0.0455 -13.33089,0.33953 -19.99001,0.78649 -4.15038,0.31964 -8.30873,0.48408 -12.47002,0.55518 -3.61673,0.042 -7.23377,0.0332 -10.85066,0.0334 -3.3084,0.001 -6.61679,-0.002 -9.92518,-0.006 -3.60353,0.0769 -7.22128,-0.17494 -10.81406,0.14741 -2.8777,0.34396 -5.75706,0.65573 -8.65097,0.82035 -2.4993,0.10044 -5.00103,0.10789 -7.50196,0.11319 -2.18802,0.001 -4.37605,-0.002 -6.56407,-0.004 -2.1261,-0.002 -4.25219,-0.002 -6.37829,-0.002 -2.67564,-0.002 -5.35128,-0.007 -8.02692,-0.008 -3.29653,-0.005 -6.59307,-4.7e-4 -9.889601,-0.003 -3.404937,6.9e-4 -6.809872,-0.002 -10.214809,3e-4 -3.426969,0.17182 -6.81766,-0.31832 -10.216553,-0.66526 -3.729544,-0.33256 -7.478087,-0.35822 -11.21969,-0.39252 -3.528564,-0.0283 -7.057276,-0.0161 -10.585893,-0.007 -2.722489,0.007 -5.444988,0.003 -8.167482,0.005 -2.688594,-0.002 -5.377189,0.001 -8.065783,0.003 -2.30729,0.003 -4.614578,6.1e-4 -6.921867,-6.8e-4 -2.370458,-0.0562 -4.700451,-0.0517 -7.038603,0.3447 0,0 5.054998,-3.79499 5.054998,-3.79499 l 0,0 c 2.354972,-0.34465 4.716355,-0.27585 7.092074,-0.26123 2.307871,-0.001 4.615741,-0.004 6.923614,-6e-4 2.68591,0.002 5.371823,0.006 8.057733,0.002 2.722184,4.9e-4 5.444359,-0.005 8.166541,-0.005 3.521188,0.003 7.042391,0.009 10.563514,0.0324 3.759938,0.0454 7.528045,0.0674 11.274228,0.42549 3.382334,0.35974 6.761521,0.78837 10.172222,0.61664 3.404664,0.002 6.809325,-4e-4 10.213987,2.9e-4 3.29911,-0.002 6.59822,0.002 9.89732,-0.003 2.68258,-6.5e-4 5.36515,-0.006 8.04772,-0.007 2.12612,2.3e-4 4.25223,5.7e-4 6.37835,0.003 2.18616,0.002 4.37232,0.007 6.55848,0.006 2.49298,-0.006 4.98742,-0.0119 7.47775,-0.1404 2.88367,-0.18047 5.75214,-0.50798 8.62461,-0.81387 3.60671,-0.22761 7.22572,-0.0478 10.8378,-0.10518 3.30858,-0.002 6.61715,-0.002 9.92572,0.006 3.61427,0.004 7.22879,0.008 10.84279,-0.0421 4.13847,-0.0786 8.27389,-0.24582 12.40298,-0.54317 6.64913,-0.43131 13.29621,-0.66364 19.95964,-0.74088 6.50845,-0.23859 12.99985,-0.70738 19.50303,-1.02658 5.18374,-0.27124 10.3428,-0.76748 15.4763,-1.55043 4.78291,-0.47732 9.55993,-0.99615 14.35545,-1.33741 4.52644,-0.3079 9.07431,-0.31347 13.58369,-0.8759 5.26996,-0.58114 10.53532,-1.21907 15.8439,-1.32595 4.93989,2.7e-4 9.87977,-0.003 14.81966,-0.005 4.84815,0.002 9.69629,0.005 14.54444,4.9e-4 4.89661,-4.5e-4 9.79321,-0.007 14.68981,-0.0133 3.48489,0.009 6.97259,0.006 10.45291,0.20865 4.15245,0.25959 8.28498,0.71745 12.42956,1.07179 4.49764,0.21042 8.98109,0.60203 13.47536,0.86178 5.18336,0.007 10.36674,0.004 15.55011,0.009 5.29805,-0.002 10.5961,-0.009 15.89416,-0.005 5.32666,-0.001 10.65332,0.004 15.97998,0.008 6.19256,0.003 12.38511,0.008 18.57767,0.0118 6.39795,0.005 12.79621,0.0207 19.19388,-0.0503 5.39324,-0.0794 10.79387,-0.19189 16.16119,-0.77316 4.75515,-0.54506 9.50023,-1.23001 14.29522,-1.316 5.39712,-0.002 10.79451,0.0155 16.19124,-0.0643 5.22084,-0.0978 10.44684,-0.23658 15.64171,-0.80805 4.52566,-0.47928 9.0711,-0.71378 13.58647,-1.29405 4.12831,-0.54707 8.27925,-1.10039 12.45198,-1.06488 3.76861,0.002 7.53857,0.007 11.3044,0.17101 5.2258,0.27094 10.44334,0.73367 15.61513,1.54753 5.69619,0.79019 11.43075,1.58601 17.19214,1.54244 5.33144,0.0734 10.66359,0.21029 15.98467,0.5672 5.6472,0.37885 11.29019,0.62572 16.95284,0.47128 4.52122,-0.0153 9.04679,-0.004 13.5622,-0.26404 3.97098,-0.28638 7.90313,-0.8448 11.84107,-1.42107 4.40216,-0.40019 8.80259,-0.64907 13.22011,-0.80317 3.65535,-0.28628 7.26785,-0.81244 10.88923,-1.37274 2.53345,-0.40394 5.06187,-0.70949 7.62238,-0.88664 2.71777,-0.36185 5.42876,-0.77115 8.18205,-0.60416 2.90419,0.001 5.80838,-0.003 8.71257,-0.01 2.90938,-0.009 5.81871,-0.0282 8.7281,-0.0342 2.76587,0.007 5.56188,-0.0467 8.28795,0.49134 2.35215,0.66807 3.97922,1.83144 4.61574,4.30716 0.84663,2.09831 1.41895,4.19998 1.64347,6.46278 0.28927,2.21943 0.0839,4.46709 0.14471,6.70102 8.5e-4,2.38891 0.006,4.77783 0.005,7.16674 -0.0129,2.33588 -0.0367,4.6732 -0.19375,7.00476 -0.20672,2.79565 -0.5509,5.57388 -0.88189,8.35653 -0.006,2.96067 -0.011,5.92133 -0.01,8.88201 0.003,2.83769 -0.01,5.67544 0.0136,8.51307 0.0322,2.95557 0.0646,5.9184 0.39086,8.85923 0.31147,2.43897 0.82871,4.84596 0.99677,7.30202 0.40026,2.46332 1.17308,4.82227 1.69228,7.25832 0.66096,2.95214 1.16009,5.93782 2.01306,8.84492 0.61883,3.14415 1.4046,6.29396 1.2835,9.52409 -0.003,3.03129 0.004,6.06257 -8.9e-4,9.09386 0.002,3.09812 9.3e-4,6.19624 0.005,9.29435 0.001,3.30321 0.0123,6.60645 0.002,9.90964 -0.0246,3.46839 -0.0567,6.94005 -0.35216,10.39843 -0.39884,3.61906 -1.05609,7.18727 -1.65904,10.77448 -0.52446,3.48891 -0.91783,6.98876 -1.18922,10.50771 -0.003,3.33778 -0.002,6.67557 -9e-5,10.01335 0.002,3.20682 -1.3e-4,6.41365 -3.9e-4,9.62047 0.002,3.21245 -5.5e-4,6.4249 0.002,9.63735 0.005,2.81995 0.004,5.6399 0.005,8.45985 7.9e-4,2.54154 0.002,5.08308 0.005,7.62462 -0.002,2.49282 -0.005,4.98565 -0.008,7.47847 -0.001,2.92901 2e-4,5.85802 -8.8e-4,8.78702 7.7e-4,2.76159 0.009,5.52318 0.002,8.28477 5.7e-4,2.62086 0.009,5.24172 0.003,7.86259 -0.003,2.61343 -0.001,5.22686 -0.001,7.8403 0.004,2.16689 -0.006,4.3338 0.008,6.50066 0.0219,2.13388 0.0529,4.2711 0.27178,6.39578 0.26537,2.319 0.80076,4.61985 0.77442,6.95967 0.002,2.30613 -0.005,4.61472 0.13747,6.91745 0.1912,2.38092 0.5523,4.73861 1.20698,7.04085 0.53244,2.21769 0.93178,4.48228 0.84533,6.77105 0.0132,2.1243 0.0597,4.25962 -0.20775,6.37172 -0.87048,4.71129 -3.89664,6.06868 -8.82519,7.88087 -2.40392,0.59857 -4.84673,0.73806 -7.30371,0.98734 -2.4389,0.34731 -4.86879,0.76726 -7.34513,0.60375 -2.44131,0.003 -4.88263,-0.002 -7.32394,0.002 -2.30255,0.005 -4.6051,0.004 -6.90765,0.007 -2.79431,0.002 -5.58885,0.0114 -8.38297,-0.0268 -4.52838,-0.10496 -9.05172,-0.34762 -13.57054,-0.65787 -8.02598,-0.5533 -16.04282,-1.31869 -24.09031,-1.4761 -3.86347,0.0166 -7.72729,0.0479 -11.5907,0.0101 -3.72583,-0.0587 -7.45059,-0.18024 -11.16866,-0.43716 -6.47699,-0.42398 -12.9477,-0.92926 -19.4398,-1.06796 -9.29189,-0.53194 -18.55218,-1.45356 -27.84037,-2.03646 -8.6333,-0.56855 -17.26265,-0.95265 -25.9179,-0.72548 -3.906,0.0115 -7.81201,0.0164 -11.71801,0.0248 -2.55595,0.003 -5.1119,-0.003 -7.66785,-0.008 -4.60533,-0.0105 -9.21067,-0.0172 -13.81601,-0.022 -6.00204,6.8e-4 -12.00408,-2.6e-4 -18.00612,-0.007 -5.83398,-0.004 -11.66797,-0.004 -17.50194,0.005 -6.48199,0.0213 -12.96644,0.0598 -19.44247,0.36616 -5.70812,0.32788 -11.37567,0.98156 -17.0645,1.5243 -5.19028,0.41937 -10.39082,0.52922 -15.58817,0.84147 -5.76022,0.36086 -11.51623,0.6161 -17.29054,0.47044 -6.48392,3.5e-4 -12.96794,0.003 -19.45173,-0.044 -7.37606,-0.0733 -14.75359,-0.19194 -22.12002,-0.60257 -8.57082,-0.48107 -17.14232,-0.84601 -25.72037,-1.16853 -9.06118,-0.48444 -18.11938,-1.00091 -27.19028,-1.27692 -6.82046,-0.19707 -13.64321,-0.0659 -20.46593,-0.10832 -5.48041,-0.0227 -10.96311,-0.0486 -16.43891,-0.29737 -4.92988,-0.25776 -9.84856,-0.81917 -14.78975,-0.7641 -5.99636,-0.0103 -11.99274,-0.0233 -17.98912,-0.0185 -6.27204,0.0124 -12.5464,0.0121 -18.81483,0.25177 -5.40534,0.2627 -10.79055,0.73534 -16.15669,1.4453 -4.53681,0.36944 -9.07158,0.69523 -13.61425,0.97332 -4.48174,0.44736 -8.94196,1.09053 -13.44221,1.34026 -4.23907,0.3564 -8.48523,0.4103 -12.72697,0.72207 -3.64072,0.37305 -7.26473,0.89794 -10.92971,0.98879 -4.99626,0.41286 -9.94936,1.15611 -14.93455,1.67051 -4.81887,0.54018 -9.64954,0.94201 -14.47066,1.46195 -3.91384,0.25786 -7.81698,0.77542 -11.74251,0.75742 -3.98745,-0.004 -7.97492,-0.005 -11.96237,0.003 -2.97383,0.002 -5.947668,0.004 -8.921501,0.002 -2.448425,-0.001 -4.896952,-0.005 -7.345271,0.0214 -3.268365,0.0491 -6.537302,0.14289 -9.795721,0.41806 -4.122353,0.34301 -8.242636,0.77298 -12.386425,0.61272 -3.599944,0.002 -7.199928,-0.0115 -10.799832,0.0109 -2.813504,0.0278 -5.632741,0.0573 -8.43295,0.36211 -2.942804,0.36926 -5.842296,1.00064 -8.79135,1.31247 -3.174262,0.37937 -6.337129,0.62422 -9.539429,0.57058 -3.759768,0.12113 -7.513616,0.33423 -11.268965,0.54652 -2.519085,-0.005 -5.250671,-0.25081 -5.955394,-3.1282 -0.290723,-2.51881 -0.08967,-5.06497 -0.130354,-7.59651 0.02829,-2.28283 0.09512,-4.56995 0.409807,-6.8345 0.355146,-2.39917 0.892421,-4.76782 1.044246,-7.19288 0.324738,-2.2903 0.830213,-4.55991 0.669501,-6.88893 0.02084,-2.3238 0.03068,-4.65215 0.272914,-6.96608 0.268208,-2.35474 0.810374,-4.69042 0.791097,-7.06538 -0.0017,-2.36422 -0.0052,-4.72843 -9.77e-4,-7.09265 9.33e-4,-2.33755 -0.0038,-4.67509 -0.0039,-7.01264 2.57e-4,-2.18311 6.85e-4,-4.36623 0.0026,-6.54934 0.0023,-2.57866 0.0066,-5.15731 0.0037,-7.73597 -0.0067,-2.42042 -0.01251,-4.84085 -0.0097,-7.26129 0.0043,-2.81677 0.01293,-5.63377 0.07666,-8.44995 0.09796,-2.9974 0.254832,-5.99613 0.669067,-8.96922 0.298826,-2.33139 0.391955,-4.64842 0.38178,-7.00067 0.119696,-2.94042 0.357451,-5.87334 0.737845,-8.79234 0.519174,-4.22758 0.561261,-8.47873 0.872733,-12.72504 0.356195,-4.90847 0.667559,-9.80785 0.488444,-14.73418 -0.0061,-4.08892 -0.0065,-8.17785 -0.0116,-12.26677 0.0042,-3.26935 -4.89e-4,-6.5387 0.0072,-9.80805 -0.0088,-3.63366 -0.01301,-7.26908 -0.186739,-10.89949 -0.217192,-3.7804 -0.633417,-7.53718 -1.179981,-11.28439 -0.304789,-3.78397 -0.875109,-7.5349 -1.179244,-11.31643 -0.304534,-3.51046 -0.810932,-7.01189 -0.658951,-10.54478 0.0033,-3.1928 -0.0028,-6.3856 -0.0043,-9.5784 -0.0032,-2.83393 3.58e-4,-5.66787 -1.78e-4,-8.5018 -0.0033,-2.7945 -1.78e-4,-5.58901 -8.62e-4,-8.38352 -0.0033,-2.80569 0.0038,-5.61139 -0.0033,-8.41708 -0.0056,-2.67657 -0.0039,-5.35317 -0.0048,-8.02974 0.0073,-2.88413 0.01028,-5.76897 0.120248,-8.65149 0.117807,-2.73103 0.359863,-5.45168 0.803763,-8.15111 0.29322,-2.73424 0.07667,-5.49241 0.320573,-8.23352 0.250061,-2.96496 0.707807,-5.90144 1.08385,-8.85187 0.2128,-3.61626 0.579123,-7.21782 0.865448,-10.82839 0,0 5.631109,-2.86919 5.631109,-2.86919 z"
       inkscape:connector-curvature="0" />
    <path
       style="fill:#000000;fill-opacity:0.78431373;stroke:none"
       id="path2995"
       d="m 542.59555,608.21677 c -2.48343,-1.02794 -5.05417,-1.8758 -7.5753,-2.83439 -1.86833,-0.72137 -3.89338,-0.99653 -5.86664,-1.41725 -1.87541,-0.33378 -3.65122,-0.96892 -5.49248,-1.41313 -2.03504,-0.3276 -4.07717,-0.6104 -6.11785,-0.92468 -2.25275,-0.57945 -4.60161,-0.72788 -6.90181,-1.08877 -2.01441,-0.3423 -4.04497,-0.53823 -6.04679,-0.92932 -1.94411,-0.30902 -3.90424,-0.4262 -5.84297,-0.75938 -1.71744,-0.31715 -3.46792,-0.43126 -5.21876,-0.49403 -1.72352,-0.24248 -3.43004,-0.50833 -5.11849,-0.88907 -1.97126,-0.45781 -4.01863,-0.51137 -6.04672,-0.57147 -3.2986,-0.28867 -6.59844,-0.52548 -9.88864,-0.87909 -3.1267,-0.33268 -6.21327,-0.85802 -9.35153,-1.12464 -2.47213,-0.18685 -4.95505,-0.21499 -7.43508,-0.228 -2.36029,0.1124 -4.6854,-0.13138 -7.02501,-0.34967 -2.87454,-0.1558 -5.72889,-0.44322 -8.59213,-0.70551 -3.36869,-0.24416 -6.74043,-0.31906 -10.10445,-0.61168 -3.09988,-0.17558 -6.17385,-0.50197 -9.25474,-0.83173 -2.93071,-0.29343 -5.83346,-0.72221 -8.7751,-0.94551 -2.64396,-0.0413 -5.24996,-0.27718 -7.86983,-0.5571 -2.52371,-0.53612 -5.09214,-0.80966 -7.68062,-0.96623 -3.67884,-0.27894 -7.33278,-0.71876 -10.99731,-1.10332 -3.2211,-0.29938 -6.40949,-0.77956 -9.63916,-1.0237 -2.95324,-0.18885 -5.91604,-0.19754 -8.87569,-0.2122 -3.16003,-0.0488 -6.32624,0.10346 -9.47991,-0.0944 -2.96935,-0.27265 -5.94524,-0.45701 -8.92905,-0.55191 -3.09514,-0.0755 -6.19188,-0.0791 -9.28803,-0.08 -2.6311,0.003 -5.26219,0.005 -7.89329,0.006 -3.11733,-0.044 -6.22189,-0.37599 -9.33508,-0.54293 -2.79975,-0.13519 -5.60394,-0.16941 -8.40745,-0.18391 -2.76608,-0.009 -5.53217,-0.009 -8.29827,-0.008 -3.55639,-0.002 -7.11279,-0.003 -10.66919,10e-4 -2.79821,0.004 -5.59644,0.007 -8.39466,0.004 -3.07772,0.0451 -6.13918,0.3842 -9.21445,0.53434 -3.33753,0.14743 -6.67972,0.17343 -10.02085,0.19383 -2.90603,0.0613 -5.82257,-0.10809 -8.72066,0.10535 -2.92235,0.17234 -5.80548,0.58742 -8.70902,0.89437 -3.63705,0.24044 -7.26886,0.51596 -10.90437,0.77912 -3.4606,0.21057 -6.89598,0.64435 -10.31073,1.15912 -2.83822,0.48876 -5.73746,0.49559 -8.60129,0.77562 -3.03856,0.26231 -6.03402,0.77125 -9.07001,1.05006 -3.71676,0.29914 -7.41902,0.68387 -11.14716,0.87616 -3.07582,0.14942 -6.15649,0.19317 -9.23658,0.20808 -2.57873,0.21748 -5.14479,0.48895 -7.7051,0.8284 -2.8807,0.23767 -5.71761,0.72483 -8.58568,1.04458 -2.27058,0.24773 -4.5605,0.29156 -6.84618,0.31422 -2.23847,0.0609 -4.49988,0.29307 -6.70323,0.65114 -2.041,0.38636 -4.10937,0.61981 -6.19249,0.74115 -2.52887,0.17995 -5.06902,0.40274 -7.58431,0.7096 -2.99766,0.40036 -6.01743,0.60576 -9.02148,0.96178 -2.86105,0.27433 -5.72682,0.58459 -8.54295,1.1054 -2.07199,0.45036 -4.17709,0.735 -6.30605,0.8728 -2.01589,0.10278 -3.99719,0.51007 -5.97483,0.84701 -2.41564,0.34603 -4.833,0.705 -7.21471,1.19905 -2.03881,0.54264 -4.18521,0.60634 -6.25791,0.9802 -1.74327,0.43662 -3.574902,0.42879 -5.338372,0.74044 -2.12026,0.56657 -4.31912,0.83119 -6.47783,1.25735 -2.0838,0.32419 -4.07126,0.9568 -6.15331,1.28068 -2.17181,0.36079 -4.39324,0.55871 -6.54817,0.98535 -2.1789,0.34881 -4.34635,0.72696 -6.52167,1.09446 -2.06954,0.62424 -4.25786,0.77822 -6.39139,1.14347 -2.18358,0.29818 -4.29271,0.85781 -6.47696,1.15451 -2.06544,0.23209 -4.08535,0.66578 -6.15508,0.88642 -1.594403,0.0619 -3.168704,0.30202 -4.671152,0.76875 -1.722562,0.43451 -3.491418,0.61557 -5.215498,1.03972 0.809422,-0.68409 -4.052831,1.46708 -2.935126,0.93245 3.972778,-1.90031 4.743132,-2.67991 3.30851,-1.38094 -0.879295,1.41531 0.736979,2.46595 1.806551,3.35813 1.346235,1.03155 3.09075,1.50616 4.740562,2.06285 1.899793,0.71709 3.978373,0.75543 5.974743,1.10804 1.79012,0.40907 3.63227,0.54541 5.47456,0.63369 2.03051,0.0669 4.02867,0.43033 6.04912,0.6143 2.16963,0.0424 4.29685,0.40695 6.44479,0.63864 2.11953,0.16598 4.23009,0.23834 6.33886,0.49381 2.18416,0.18467 4.30408,0.66644 6.47546,0.92684 2.81357,0.16165 5.61168,0.41965 8.41827,0.65823 2.93745,0.13923 5.851292,0.3979 8.768682,0.71579 2.38971,0.25642 4.79611,0.33604 7.20153,0.37833 2.61121,0.0311 5.22279,0.0235 7.83418,0.0263 3.72676,4.4e-4 7.45352,0.001 11.18027,0.003 3.89389,3e-4 7.78778,-0.004 11.68166,-0.005 3.49955,-0.002 6.9991,-4.1e-4 10.49866,-10e-4 3.43961,5.6e-4 6.87921,-2.2e-4 10.31883,-6.9e-4 3.15061,-6.8e-4 6.30123,-6e-4 9.45185,-0.003 2.61413,-0.002 5.22827,-0.005 7.84241,-10e-4 2.87238,1.1e-4 5.74476,10e-4 8.61713,10e-4 3.13017,-0.12011 6.23158,0.11093 9.34406,0.34788 3.30784,0.23798 6.58906,0.66525 9.89874,0.90236 2.88775,0.23065 5.79512,0.0903 8.6804,0.31283 2.41158,0.3226 4.86304,0.3493 7.27365,0.65498 2.25898,0.32519 4.52926,0.54598 6.79053,0.85706 2.77936,0.42843 5.61043,0.38805 8.40928,0.63789 2.97913,0.27209 5.95872,0.47889 8.92771,0.82242 3.14295,0.39625 6.3207,0.47716 9.49129,0.54037 3.66155,0.2466 7.3183,0.49039 10.96416,0.87174 3.27202,0.32819 6.55632,0.48013 9.82781,0.80844 3.61995,0.35276 7.26356,0.44545 10.90288,0.51124 2.69302,0.039 5.38648,0.0375 8.07978,0.033 2.42053,-0.005 4.84106,-6.9e-4 7.26159,-10e-4 3.15474,0.11806 6.28278,-0.10254 9.42034,-0.3435 2.99119,-0.2575 5.99613,-0.31989 8.99956,-0.3642 3.10696,-0.0741 6.23389,-0.27871 9.31154,-0.66612 2.88595,-0.30963 5.72062,-0.86613 8.60275,-1.19693 3.08454,-0.18686 6.1577,-0.41786 9.23397,-0.6939 2.5416,-0.0994 5.03209,-0.52873 7.54444,-0.83657 2.40783,-0.27774 4.84151,-0.17348 7.25361,-0.37743 2.7615,-0.18873 5.48824,-0.5759 8.22812,-0.90906 2.44529,-0.35457 4.93533,-0.28355 7.38848,-0.54266 2.33442,-0.21599 4.63235,-0.59651 6.94655,-0.92579 2.62488,-0.33775 5.22596,-0.75853 7.87167,-0.972 2.59126,-0.0477 5.14497,-0.41673 7.71482,-0.66934 2.15814,-0.37482 4.32215,-0.70105 6.51489,-0.87726 2.2875,-0.1851 4.55804,-0.49787 6.85164,-0.66921 2.37171,-0.14683 4.71073,-0.52941 7.07954,-0.72712 2.05825,-0.0409 4.07714,-0.28275 6.10944,-0.54151 2.10978,-0.10938 4.16104,-0.54124 6.24364,-0.81934 2.30017,-0.26249 4.62598,-0.17391 6.92953,-0.37744 2.37637,-0.15753 4.69798,-0.55268 7.03719,-0.91861 2.19654,-0.20833 4.37128,-0.50043 6.55692,-0.78281 2.45546,-0.34804 4.89424,-0.72739 7.37688,-0.91604 2.40485,-0.0351 4.76417,-0.27823 7.14,-0.56619 2.06711,-0.57367 4.20337,-0.81006 6.35812,-0.96099 2.03327,-0.34965 4.08047,-0.61368 6.14644,-0.76231 2.16955,-0.0639 4.25898,-0.59758 6.3613,-1.01134 2.0877,-0.39605 4.15295,-0.8411 6.27479,-1.08732 1.99602,-0.0508 3.93794,-0.4384 5.9102,-0.67053 2.27764,-0.15299 4.55395,-0.40089 6.78924,-0.811 2.2189,-0.56052 4.54242,-0.5848 6.79997,-0.93391 2.19306,-0.34585 4.40477,-0.50409 6.5932,-0.86985 1.83016,-0.5027 3.68832,-0.9042 5.52639,-1.38083 1.39176,-0.56494 2.88669,-0.86147 4.35439,-1.23164 0,0 -3.98923,2.64386 -3.98923,2.64386 l 0,0 c -1.47275,0.36179 -2.93363,0.74094 -4.35452,1.23797 -1.84003,0.47811 -3.70222,0.88893 -5.55136,1.33948 -2.19098,0.34754 -4.4111,0.49856 -6.60007,0.86052 -2.26634,0.28596 -4.55997,0.42582 -6.78231,0.94251 -2.25584,0.36806 -4.53247,0.62365 -6.81899,0.7989 -1.96746,0.24833 -3.91873,0.57856 -5.9088,0.67002 -2.10641,0.27211 -4.16339,0.7257 -6.24331,1.11323 -2.11432,0.42404 -4.22815,0.90014 -6.41041,0.96826 -2.06005,0.16763 -4.09338,0.47189 -6.13517,0.75427 -2.15274,0.17317 -4.25852,0.50237 -6.34794,0.98399 -2.37301,0.29606 -4.74475,0.44784 -7.14053,0.54076 -2.47696,0.21433 -4.91285,0.61456 -7.37052,0.94274 -2.18113,0.29031 -4.36366,0.53635 -6.54915,0.79435 -2.34067,0.37454 -4.67964,0.71656 -7.05622,0.88219 -2.30585,0.16159 -4.63054,0.11053 -6.92375,0.40986 -2.07839,0.2948 -4.14024,0.66958 -6.24413,0.8134 -2.03378,0.25955 -4.06465,0.44097 -6.11943,0.52252 -2.36508,0.21127 -4.70511,0.59138 -7.07905,0.72111 -2.29436,0.18291 -4.56533,0.51075 -6.85975,0.67941 -2.18492,0.19727 -4.3374,0.55241 -6.50034,0.87676 -2.56748,0.25865 -5.12509,0.58223 -7.71237,0.65899 -2.63754,0.23731 -5.23671,0.66009 -7.85743,0.99926 -2.31604,0.33964 -4.62607,0.69354 -6.96436,0.90664 -2.45337,0.20615 -4.93016,0.19934 -7.36893,0.54808 -2.74301,0.34612 -5.48198,0.69676 -8.24721,0.89124 -2.4147,0.15916 -4.84682,0.10597 -7.24965,0.40535 -2.50574,0.31672 -5.00034,0.69199 -7.53422,0.80836 -3.0749,0.27343 -6.15214,0.47294 -9.2299,0.70959 -2.87545,0.35469 -5.7143,0.89222 -8.59934,1.19465 -3.09607,0.34683 -6.22482,0.57479 -9.34619,0.62406 -2.99551,0.0471 -5.99102,0.13455 -8.97435,0.3863 -3.14893,0.24116 -6.29311,0.41023 -9.4575,0.31971 -2.4244,10e-4 -4.84878,0.009 -7.27318,0.009 -2.68589,-0.003 -5.37199,-0.007 -8.05733,-0.0593 -3.65066,-0.0773 -7.30507,-0.18362 -10.93604,-0.53951 -3.26899,-0.32095 -6.55405,-0.46337 -9.81959,-0.81634 -3.63677,-0.37647 -7.28704,-0.61681 -10.94106,-0.83526 -3.18532,-0.0701 -6.37703,-0.16254 -9.53288,-0.57189 -2.96536,-0.33591 -5.94464,-0.53352 -8.91824,-0.80947 -2.81158,-0.21886 -5.64934,-0.21664 -8.43611,-0.65345 -2.26033,-0.30551 -4.53372,-0.51393 -6.78939,-0.84644 -2.40896,-0.26051 -4.84159,-0.35146 -7.24837,-0.64128 -2.8872,-0.17913 -5.79062,-0.0805 -8.67579,-0.31877 -3.30489,-0.2571 -6.5856,-0.68466 -9.89344,-0.90609 -3.10575,-0.23259 -6.20355,-0.41965 -9.325,-0.31323 -2.87407,5e-4 -5.74814,10e-4 -8.62221,10e-4 -2.6129,0.003 -5.22581,6.9e-4 -7.83871,-10e-4 -3.14729,-0.003 -6.29458,-0.002 -9.44187,-0.003 -3.4388,-5.3e-4 -6.8776,-10e-4 -10.3164,-6.8e-4 -3.49827,-6.9e-4 -6.99652,6.8e-4 -10.49478,-10e-4 -3.88942,-4.7e-4 -7.77884,-0.005 -11.66826,-0.003 -3.73526,0.003 -7.47052,0.007 -11.20577,0.0128 -2.62026,0.005 -5.24081,0.0138 -7.86082,-0.0224 -2.41333,-0.0543 -4.82652,-0.15043 -7.22244,-0.42073 -2.908732,-0.32363 -5.820752,-0.54201 -8.746842,-0.71402 -2.81737,-0.24056 -5.6326,-0.45659 -8.45236,-0.66128 -2.16484,-0.27962 -4.29211,-0.73623 -6.47365,-0.92376 -2.1087,-0.24069 -4.22868,-0.27529 -6.34072,-0.48864 -2.14512,-0.24464 -4.27763,-0.56712 -6.44485,-0.62921 -2.01144,-0.20109 -4.00641,-0.55265 -6.03459,-0.59684 -1.85649,-0.10618 -3.70491,-0.27962 -5.5115,-0.68011 -2.02988,-0.31549 -4.108113,-0.44905 -6.024784,-1.17339 -1.71253,-0.56978 -3.485805,-1.10733 -4.849757,-2.20846 -1.278128,-1.07236 -2.808909,-2.23102 -2.164579,-3.92158 1.789286,-2.20432 5.331189,-3.18205 8.275759,-3.90213 1.723993,-0.39915 3.508783,-0.55604 5.203261,-1.05648 1.54298,-0.39077 3.11215,-0.62557 4.72016,-0.69949 2.05696,-0.2443 4.07533,-0.66544 6.1349,-0.89343 2.17063,-0.33569 4.29067,-0.86677 6.47147,-1.16107 2.1451,-0.32712 4.30136,-0.59433 6.39092,-1.14892 2.17125,-0.37685 4.34698,-0.72194 6.51774,-1.09879 2.17583,-0.36464 4.37505,-0.63358 6.55521,-0.98135 2.06092,-0.37421 4.06104,-0.95861 6.13683,-1.28247 2.17658,-0.3941 4.35439,-0.76169 6.504142,-1.25398 1.77928,-0.23962 3.5825,-0.35304 5.33376,-0.74242 2.08222,-0.30624 4.19349,-0.48027 6.23282,-0.98609 2.39251,-0.46274 4.80706,-0.8309 7.22321,-1.18826 1.99033,-0.3505 3.99099,-0.72365 6.02478,-0.81596 2.10958,-0.16122 4.19031,-0.47682 6.25028,-0.90185 2.83038,-0.47425 5.68932,-0.80459 8.55466,-1.07739 3.00392,-0.3516 6.02651,-0.55206 9.02177,-0.9621 2.53419,-0.28893 5.08181,-0.53949 7.63001,-0.70479 2.06916,-0.14043 4.11908,-0.40179 6.15086,-0.76972 2.22909,-0.31813 4.49201,-0.57764 6.75303,-0.59615 2.27217,-0.0335 4.54755,-0.0897 6.80301,-0.34974 2.8613,-0.33226 5.70149,-0.78496 8.57381,-1.04857 2.57262,-0.34193 5.15807,-0.61857 7.75483,-0.78118 3.06478,-0.0176 6.13039,-0.0539 9.19071,-0.20935 3.7264,-0.21037 7.42998,-0.59236 11.1459,-0.90161 3.03483,-0.3077 6.03882,-0.79902 9.08177,-1.0542 2.86098,-0.24189 5.74508,-0.3127 8.57492,-0.79454 3.41605,-0.50765 6.85735,-0.90525 10.3166,-1.11621 3.63765,-0.27066 7.27537,-0.52774 10.91146,-0.80595 2.90775,-0.33056 5.80588,-0.70567 8.7347,-0.88204 2.90716,-0.15362 5.82277,-0.0287 8.73395,-0.078 3.33254,-0.0165 6.66623,-0.0484 9.99457,-0.20547 3.08391,-0.16458 6.15644,-0.5185 9.24754,-0.52353 2.79408,-0.003 5.58815,-2.3e-4 8.38222,0.003 3.55763,0.003 7.11526,0.002 10.67289,-0.004 2.77289,-0.003 5.54587,-0.013 8.31873,3.3e-4 2.80294,0.0245 5.60622,0.0696 8.40483,0.2153 3.10908,0.17645 6.21259,0.50551 9.32973,0.51189 2.62858,-0.001 5.25716,-0.006 7.88574,-3.3e-4 3.09945,0.007 6.19947,0.009 9.29771,0.0935 2.98623,0.10095 5.96193,0.31002 8.93586,0.56181 3.14885,0.15319 6.3053,0.0327 9.45795,0.0763 2.97114,0.0106 5.94564,0.0268 8.90875,0.23757 3.2245,0.26443 6.41147,0.7493 9.63102,1.04533 3.66331,0.39442 7.32001,0.82322 11.00218,1.0743 2.59637,0.17221 5.16276,0.48715 7.70502,0.97813 2.61226,0.28233 5.21837,0.46981 7.85101,0.5514 2.94137,0.24241 5.84813,0.67505 8.78319,0.95823 3.07354,0.33658 6.14631,0.63056 9.23704,0.8288 3.36595,0.28341 6.74361,0.34187 10.11091,0.61174 2.86644,0.26597 5.72992,0.51435 8.60502,0.69806 2.33333,0.21586 4.65664,0.39786 7.00782,0.30766 2.48368,0.0241 4.97043,0.0665 7.44437,0.27217 3.13196,0.28836 6.21674,0.82053 9.34276,1.14118 3.28809,0.35015 6.58859,0.58483 9.88886,0.83296 2.05851,0.0696 4.13106,0.15174 6.12538,0.63855 1.66387,0.36656 3.35665,0.62322 5.05952,0.81515 1.76556,0.0792 3.52667,0.22342 5.25726,0.54837 1.94179,0.3202 3.91584,0.41516 5.85167,0.7685 1.9928,0.37895 4.02132,0.56388 6.02035,0.91994 2.31132,0.33046 4.64478,0.5556 6.91343,1.08573 2.04874,0.32628 4.11421,0.56645 6.14483,0.96103 1.83038,0.46257 3.61543,1.0641 5.48778,1.39699 1.99017,0.42672 4.02911,0.72422 5.89662,1.49117 2.51221,0.96751 5.07616,1.81749 7.57988,2.80063 0,0 -4.18337,2.42206 -4.18337,2.42206 z"
       inkscape:connector-curvature="0" />
    <path
       style="fill:#000000;fill-opacity:0.78431373;stroke:none"
       id="path2997"
       d="m 41.894693,618.03981 c -0.240356,2.49879 -0.61951,4.97653 -1.043377,7.45615 -0.369121,2.01828 -0.485471,4.0582 -0.546138,6.09756 -0.03762,1.72447 -0.03007,3.44934 -0.02575,5.17402 -0.02356,1.65416 -0.04602,3.29381 0.229788,4.93305 0.35688,1.69081 0.487669,3.40498 0.56256,5.1194 0.315483,1.90506 0.505127,3.82655 0.841336,5.72862 0.476386,2.10978 0.68656,4.25246 0.814236,6.39585 0.290725,2.18977 0.581632,4.37509 1.020386,6.54659 0.461889,2.00622 0.629544,4.041 0.720645,6.08015 0.06627,2.11481 0.06496,4.23055 0.06175,6.34593 0.0026,2.01941 -0.0054,4.03881 -0.0069,6.05822 0.103549,2.8766 -0.145902,5.73874 -0.395735,8.60422 -0.2405,3.70879 -0.574,7.41407 -1.05276,11.10601 -0.469384,3.46822 -1.208366,6.90005 -1.615669,10.3752 -0.327649,2.51462 -0.860169,4.99816 -1.400414,7.48314 -0.387263,2.31939 -0.733346,4.64459 -1.208311,6.95274 -0.569164,2.29328 -0.857069,4.62152 -1.015192,6.95908 -0.07567,2.10503 -0.505552,4.18349 -0.720173,6.27976 -0.197489,2.3047 -0.213563,4.61674 -0.232753,6.92645 -0.007,1.96219 0.0023,3.92438 -2.53e-4,5.88658 -1.53e-4,1.86447 0.0093,3.72893 0.0066,5.5934 -2.57e-4,1.68826 0.0024,3.37653 0.0037,5.0648 0.0032,1.55521 -4.2e-4,3.11042 -0.0021,4.66563 0.03069,1.81646 -0.08685,3.63667 0.0881,5.44829 0.307834,2.03591 0.527123,4.07737 0.655343,6.12716 0.102213,2.04018 0.09949,4.08247 0.104205,6.12405 -0.124204,2.39262 0.123618,4.76465 0.361251,7.14452 0.245972,2.88136 0.73488,5.74489 1.28107,8.59437 0.502239,2.52168 0.721387,5.07146 0.84059,7.62465 -0.03322,2.27213 0.168924,4.5227 0.436676,6.78038 0.157353,2.26556 0.433972,4.51148 0.811927,6.75671 0.329461,2.00485 0.430402,4.02752 0.481894,6.04931 -0.04643,1.88406 0.415995,3.73548 0.639279,5.60223 0.188393,1.97207 0.212211,3.95151 0.234694,5.92895 0.0088,1.85312 0.0092,3.70625 0.0094,5.55939 0.002,1.58203 -0.0022,3.16405 -0.0041,4.74608 0.115683,0.94736 0.0022,0.50537 0.310773,1.33136 0,0 -4.422649,2.09361 -4.422649,2.09361 l 0,0 c -0.361309,-0.92122 -0.229647,-0.43633 -0.375066,-1.45856 -0.0012,-1.58192 -0.0039,-3.16383 0.0024,-4.74574 0.0049,-1.85313 0.01367,-3.70628 8.77e-4,-5.5594 -0.01529,-1.96457 -0.03637,-3.93141 -0.218563,-5.89086 -0.218624,-1.87904 -0.677249,-3.74227 -0.648359,-5.63681 -0.05082,-2.00552 -0.135281,-4.01319 -0.454639,-6.00292 -0.370227,-2.25312 -0.670497,-4.50256 -0.811387,-6.77647 -0.27098,-2.26533 -0.513806,-4.52258 -0.454506,-6.80386 -0.102421,-2.53888 -0.303314,-5.07582 -0.794725,-7.58413 -0.546637,-2.85936 -1.048964,-5.73108 -1.300988,-8.62199 -0.250284,-2.38781 -0.532299,-4.76684 -0.399749,-7.16921 -0.0033,-2.0344 -0.0076,-4.06958 -0.09801,-6.10277 -0.115383,-2.04452 -0.320845,-4.08208 -0.647885,-6.11031 -0.216323,-1.82034 -0.07262,-3.65361 -0.114895,-5.48148 -0.0017,-1.55462 -0.0053,-3.10923 -0.002,-4.66385 0.0014,-1.68926 0.0041,-3.37852 0.0033,-5.06778 -0.0035,-1.86532 0.0042,-3.73065 1.8e-5,-5.59597 -0.0068,-1.96416 -0.0073,-3.92831 0.0053,-5.89245 0.01618,-2.31887 0.03892,-4.63994 0.213925,-6.9547 0.185537,-2.09684 0.638016,-4.16907 0.728561,-6.27058 0.144278,-2.35385 0.416947,-4.70127 0.9944,-7.0094 0.492028,-2.30462 0.832017,-4.63052 1.196939,-6.95148 0.54392,-2.47941 1.100564,-4.95317 1.446448,-7.46124 0.399886,-3.48257 1.153499,-6.91728 1.636819,-10.39048 0.490076,-3.6834 0.813857,-7.38232 1.045049,-11.08398 0.238474,-2.8519 0.507016,-5.69778 0.375578,-8.56041 0.0014,-2.01954 -8.78e-4,-4.03906 0.0078,-6.05859 -7.32e-4,-2.11039 0.0095,-4.22122 -0.05436,-6.33109 -0.08262,-2.02107 -0.240548,-4.03953 -0.685541,-6.02958 -0.446498,-2.18759 -0.73766,-4.3883 -1.050357,-6.59306 -0.120332,-2.12897 -0.309869,-4.25862 -0.794056,-6.35291 -0.364025,-1.9141 -0.513891,-3.8563 -0.872996,-5.77257 -0.07347,-1.69891 -0.188487,-3.39878 -0.543345,-5.07453 -0.291266,-1.65777 -0.304375,-3.31218 -0.266491,-4.9877 -0.0015,-1.73007 -0.0038,-3.46028 0.03372,-5.19013 0.05631,-2.05603 0.149297,-4.11451 0.528614,-6.14899 0.4268,-2.47104 0.855057,-4.93544 1.028424,-7.4324 0,0 4.515563,-1.92523 4.515563,-1.92523 z"
       inkscape:connector-curvature="0" />
    <path
       style="fill:#000000;fill-opacity:0.78431373;stroke:none"
       id="path2999"
       d="m 540.77201,608.65615 c -0.71991,3.01579 -1.08128,6.0796 -1.33223,9.14683 -0.0696,2.359 -0.32657,4.70735 -0.79473,7.03233 -0.5095,1.9151 -0.81069,3.85663 -0.97567,5.81393 -0.26299,1.59701 -0.566,3.18859 -1.02591,4.75268 -0.50616,1.55886 -0.63637,3.1732 -0.72629,4.78169 -0.0706,1.81195 -0.46996,3.59851 -0.67088,5.40233 -0.45204,2.09538 -0.75956,4.20309 -0.92929,6.32855 -0.14053,2.12223 -0.15526,4.24837 -0.16108,6.37338 -3.7e-4,1.77871 0.005,3.55741 0.004,5.33611 -0.005,2.47237 -0.008,4.94474 -0.0102,7.41712 -0.006,2.71699 0.003,5.43398 0.005,8.15097 0.005,2.5358 -0.002,5.0716 -0.006,7.6074 -0.0101,3.36131 -0.006,6.72263 -0.009,10.08395 0.0822,3.64443 0.64233,7.25621 1.06312,10.87728 0.27222,3.73059 0.61017,7.45277 0.98411,11.1767 0.32596,3.31164 0.427,6.63461 0.48102,9.95635 0.0434,2.97956 0.0306,5.95935 0.0333,8.93905 -0.004,2.83229 -0.003,5.66458 -0.005,8.49687 0.1133,2.64221 -0.0689,5.26372 -0.36946,7.89072 -0.4874,2.43472 -0.90719,4.87134 -1.13246,7.33495 -0.27954,2.39148 -0.814,4.74811 -1.26169,7.11772 -0.67679,2.48697 -0.98438,5.02237 -1.38891,7.54669 -0.41504,2.74386 -0.85437,5.48545 -1.23111,8.23366 -0.65157,3.40035 -1.03021,6.82431 -1.23916,10.26365 -0.13812,3.24186 -0.11988,6.48005 -0.41444,9.71523 -0.31175,2.79909 -0.45994,5.60787 -0.54261,8.41797 -0.0498,2.11066 -0.0536,4.22186 -0.0531,6.33287 -0.0235,1.84318 0.39374,3.66319 0.61178,5.49295 0.25177,1.73877 0.0938,3.50173 0.33585,5.23801 0.1693,1.33849 0.6869,2.5687 1.37304,3.76545 0.57545,1.43371 1.32378,2.79253 2.10495,4.15072 1.21027,1.43086 2.1989,2.83979 2.72202,4.56214 0.47913,2.22153 0.0923,4.501 -0.093,6.73552 -0.0581,1.65573 -0.59257,3.25335 -0.84424,4.88914 -0.39526,1.28927 -0.52815,2.66753 -1.23192,3.86667 0,0 -4.62109,1.763 -4.62109,1.763 l 0,0 c 0.88519,-1.07811 0.8477,-2.48227 1.33503,-3.71046 0.22775,-1.63893 0.76657,-3.22671 0.87232,-4.87565 0.18796,-2.19046 0.58048,-4.42632 0.15885,-6.60741 -0.49645,-1.70069 -1.50023,-3.06381 -2.67184,-4.48273 -0.78165,-1.35702 -1.56498,-2.70384 -2.12126,-4.14377 -0.70873,-1.23933 -1.26521,-2.50957 -1.44589,-3.89505 -0.27044,-1.73843 -0.0871,-3.50776 -0.33382,-5.25197 -0.20939,-1.84525 -0.64074,-3.67789 -0.62786,-5.53444 0.002,-2.11656 -0.003,-4.23341 0.062,-6.34942 0.0901,-2.81877 0.2246,-5.63812 0.54653,-8.44545 0.30786,-3.23362 0.30346,-6.46918 0.43605,-9.71071 0.20022,-3.44466 0.54507,-6.87667 1.2087,-10.28125 0.36248,-2.75042 0.80038,-5.49271 1.21389,-8.23736 0.41139,-2.52468 0.67722,-5.0677 1.37968,-7.55233 0.42878,-2.36248 0.97946,-4.70529 1.27814,-7.08525 0.21065,-2.4677 0.60354,-4.91185 1.1296,-7.3446 0.30167,-2.61602 0.52954,-5.22403 0.40065,-7.8569 5.9e-4,-2.8326 0.004,-5.66519 0.006,-8.49778 0.007,-2.97942 0.006,-5.95895 -0.0194,-8.9383 -0.0502,-3.31333 -0.1382,-6.6285 -0.45673,-9.93223 -0.37173,-3.72358 -0.70085,-7.44521 -0.97166,-11.17521 -0.43013,-3.63283 -0.98783,-7.25553 -1.09505,-10.91151 -0.002,-3.35862 8e-4,-6.71724 -0.009,-10.07585 -0.004,-2.53397 -0.0107,-5.06794 -0.006,-7.60193 0.002,-2.71841 0.0114,-5.43683 0.005,-8.15526 -0.002,-2.46843 -0.006,-4.93686 -0.0158,-7.40527 -0.006,-1.77934 -0.01,-3.55871 -0.005,-5.33806 0.0122,-2.13479 0.0261,-4.27066 0.16098,-6.4029 0.15085,-2.1266 0.41482,-4.24365 0.90994,-6.33376 0.18879,-1.79886 0.57845,-3.57835 0.67447,-5.38111 0.0824,-1.6314 0.18178,-3.27453 0.67652,-4.85967 0.46585,-1.54467 0.77932,-3.10959 1.07351,-4.68581 0.15799,-1.97252 0.42884,-3.9353 0.96476,-5.86162 0.50731,-2.30738 0.75139,-4.65169 0.83504,-6.99776 0.26094,-3.07653 0.62533,-6.14642 1.27422,-9.18278 0,0 4.52894,-1.88902 4.52894,-1.88902 z"
       inkscape:connector-curvature="0" />
    <path
       style="fill:#000000;fill-opacity:0.78431373;stroke:none"
       id="path3001"
       d="m 47.769422,854.08009 c 2.4487,1.39235 4.883546,2.81816 7.427326,4.08186 3.89828,1.93149 8.21647,2.9815 12.49187,4.09554 4.34934,0.93938 8.67851,1.93568 13.01511,2.91563 1.6935,0.55388 3.43305,0.96846 5.11265,1.54603 1.84177,0.40471 3.68999,0.78902 5.57307,1.0255 2.34162,0.3908 4.65383,0.89568 7.00147,1.25775 2.687642,0.48793 5.365432,1.03583 8.071042,1.44618 2.73604,0.17403 5.36965,0.77536 8.02832,1.31221 2.41895,0.3469 4.84154,0.65004 7.2625,0.99337 2.03116,0.55407 4.16256,0.70327 6.22983,1.10168 2.15299,0.50152 4.32277,0.91476 6.4986,1.33732 2.82295,0.43917 5.64813,0.87175 8.45856,1.36867 2.74754,0.37702 5.41999,1.03665 8.12399,1.57947 3.33843,0.56271 6.74352,0.67466 10.11454,1.03864 2.9322,0.34437 5.82777,0.82579 8.77959,1.0549 3.5419,0.11045 7.02553,0.68365 10.52496,1.11431 3.24411,0.40836 6.46666,0.87147 9.7386,1.09078 4.23899,0.4666 8.50399,0.6809 12.7716,0.82516 3.61285,0.0672 7.21391,0.0916 10.81644,0.34299 3.72541,0.17994 7.43366,0.45028 11.14184,0.8039 2.41312,0.25533 4.84088,0.35479 7.26975,0.40199 2.17249,0.0288 4.34538,0.0233 6.51806,0.0206 2.48791,0 4.97581,0 7.46372,0 2.42598,0.12101 4.80924,-0.10461 7.21007,-0.35458 2.17215,-0.23886 4.35862,-0.32276 6.54599,-0.35836 2.46408,-0.0316 4.92855,-0.0247 7.39282,-0.0226 2.34874,-4.1e-4 4.69749,0 7.04624,0 2.72869,0.007 5.4574,0.007 8.1861,0.007 2.47161,0.10942 4.89977,-0.0658 7.34218,-0.3598 2.11408,-0.15695 4.17776,-0.57176 6.27907,-0.81473 2.51594,-0.25773 5.05549,-0.26418 7.58571,-0.28194 3.56207,-0.26699 7.12643,-0.48725 10.69946,-0.606 3.5027,-0.29174 7.00121,-0.58665 10.51687,-0.73406 3.9606,-0.15078 7.92626,-0.0343 11.88448,-0.21369 3.80018,-0.24846 7.60257,-0.45117 11.41151,-0.56223 3.34348,-0.0783 6.68864,-0.0756 10.0331,-0.0796 2.67589,0 5.35178,0 8.02767,-0.007 1.97694,0.12272 3.90614,-0.13754 5.85769,-0.35108 2.54049,-0.31377 5.05999,-0.70039 7.62064,-0.89336 3.62103,-0.089 7.22121,-0.43367 10.8326,-0.65833 2.90781,-0.29847 5.80195,-0.68001 8.72095,-0.89171 2.1396,-0.0737 4.25852,-0.10447 6.3799,-0.36185 2.96536,-0.40713 5.92874,-0.77269 8.9239,-0.98185 3.50593,-0.17348 6.99095,-0.55825 10.49379,-0.77858 2.90893,-0.048 5.79115,-0.29086 8.68402,-0.53527 3.28154,-0.32447 6.50195,-0.95818 9.75634,-1.42657 2.82455,-0.28338 5.65428,-0.44458 8.46078,-0.85521 3.16817,-0.50468 6.37645,-0.7766 9.59099,-0.92923 2.6998,0.007 5.36905,-0.33476 8.05054,-0.5577 2.13994,-0.18858 4.28873,-0.49816 6.38753,-0.91325 2.10118,-0.50385 4.29793,-0.51194 6.42879,-0.85068 2.5654,-0.36275 5.09672,-0.8216 7.68334,-1.07164 3.34185,-0.34608 6.62898,-0.96909 9.95456,-1.40588 1.99163,-0.5212 4.04218,-0.77721 6.07621,-1.121 3.00962,-0.51406 6.00607,-1.08232 9.02628,-1.5529 2.93902,-0.33457 5.85903,-0.78456 8.73233,-1.41048 1.81256,-0.38086 3.69032,-0.64723 5.42469,-1.25275 1.66905,-0.77565 5.70397,-2.71299 -1.58444,0.85597 0,0 4.71283,-1.56041 4.71283,-1.56041 l 0,0 c -2.34838,1.16054 -4.65418,2.38354 -7.10413,3.37793 -1.78027,0.50585 -3.61554,0.84745 -5.44184,1.20484 -2.87515,0.60363 -5.80017,1.00228 -8.727,1.37306 -3.02772,0.48166 -6.03201,1.06144 -9.05255,1.57318 -2.03678,0.31912 -4.05645,0.67679 -6.06892,1.09785 -3.32436,0.44492 -6.61633,1.05442 -9.96031,1.39089 -2.58448,0.27775 -5.1232,0.75204 -7.69409,1.10422 -2.13964,0.27631 -4.31404,0.37839 -6.41328,0.86708 -2.11655,0.37516 -4.25551,0.71363 -6.41037,0.86475 -2.68223,0.2285 -5.35648,0.53403 -8.05703,0.54055 -3.20197,0.16752 -6.39472,0.45083 -9.55038,0.95948 -2.81331,0.3823 -5.6482,0.54673 -8.47029,0.86372 -3.25562,0.47573 -6.4847,1.08892 -9.77104,1.39954 -2.89359,0.251 -5.78241,0.44973 -8.69045,0.52559 -3.49892,0.22302 -6.9816,0.59681 -10.48391,0.77825 -2.99865,0.22781 -5.96376,0.62177 -8.93698,1.01676 -2.12539,0.23495 -4.25653,0.22541 -6.39304,0.34457 -2.9062,0.22191 -5.7899,0.60023 -8.69066,0.86543 -3.61581,0.23166 -7.22362,0.5468 -10.84714,0.67802 -2.55808,0.21719 -5.078,0.62116 -7.62344,0.91503 -1.96245,0.22542 -3.91357,0.40713 -5.89871,0.30698 -2.66688,-0.007 -5.33375,-0.013 -8.00062,-0.011 -3.34063,0 -6.68186,0.007 -10.02135,0.0897 -3.79971,0.11175 -7.59223,0.32502 -11.38468,0.55297 -3.96687,0.15126 -7.93983,0.0652 -11.90708,0.22918 -3.51131,0.15936 -7.0053,0.47086 -10.50836,0.72344 -3.58228,0.13315 -7.15362,0.37791 -10.72856,0.6084 -2.52423,0.0302 -5.05767,0.0473 -7.56401,0.33681 -2.09691,0.26232 -4.16906,0.65292 -6.28254,0.81522 -2.44874,0.2807 -4.89308,0.38223 -7.36497,0.30135 -2.73404,0 -5.46809,0 -8.20213,0.007 -2.34535,0 -4.6907,-0.007 -7.03605,-0.008 -2.46432,6.1e-4 -4.9289,-0.007 -7.3929,0.035 -2.17766,0.0508 -4.35404,0.14989 -6.51599,0.39211 -2.40833,0.25402 -4.8089,0.40088 -7.23868,0.30787 -2.49182,0 -4.98364,0.007 -7.47544,0.009 -2.17595,0 -4.35214,0.008 -6.52779,-0.0288 -2.42924,-0.0617 -4.8563,-0.1802 -7.26818,-0.44863 -3.7003,-0.36432 -7.40511,-0.60551 -11.12266,-0.79786 -3.59481,-0.23529 -7.19118,-0.23523 -10.79336,-0.33792 -4.27615,-0.16278 -8.54777,-0.39149 -12.79978,-0.82804 -3.27571,-0.23337 -6.50436,-0.70773 -9.75459,-1.11452 -3.49614,-0.44074 -6.98261,-0.97519 -10.52204,-1.08954 -2.9508,-0.2464 -5.84928,-0.73763 -8.78598,-1.06752 -3.38328,-0.3646 -6.80587,-0.47024 -10.14943,-1.07356 -2.69772,-0.55084 -5.37631,-1.17083 -8.11405,-1.56829 -2.8208,-0.47724 -5.64703,-0.92813 -8.47583,-1.36778 -2.18452,-0.40219 -4.33967,-0.87098 -6.50821,-1.32778 -2.07177,-0.35739 -4.1717,-0.59639 -6.21171,-1.08975 -2.42359,-0.35499 -4.85977,-0.62376 -7.27336,-1.02225 -2.64822,-0.5472 -5.28784,-1.07712 -8.00697,-1.29629 -2.703392,-0.43004 -5.384312,-0.96559 -8.076562,-1.44433 -2.34265,-0.37798 -4.65762,-0.8701 -7.0023,-1.24156 -1.90864,-0.26211 -3.80445,-0.62699 -5.65836,-1.09537 -1.65455,-0.56902 -3.37418,-0.98102 -5.0404,-1.52649 -4.31355,-1.01767 -8.63311,-2.00491 -12.96621,-2.96079 -4.31988,-1.12328 -8.67862,-2.19348 -12.61821,-4.14249 -2.555764,-1.28272 -4.994741,-2.73321 -7.47887,-4.11375 0,0 4.254804,-2.31482 4.254804,-2.31482 z"
       inkscape:connector-curvature="0" />
    <path
       style="fill:#000000;fill-opacity:0.78431373000000004;stroke:none"
       id="path3009"
       d="m 80.380159,202.0573 c -3.639605,0.48288 -7.121218,1.55253 -10.483173,3.00104 -1.112981,0.46887 -1.640988,0.65925 -2.695518,1.22626 -0.4104,0.22067 -1.614321,0.93131 -1.2055,0.70773 1.416365,-0.77461 2.781554,-1.64524 4.22854,-2.36101 0.417428,-0.20649 -0.744399,0.56016 -1.12643,0.8265 -0.397613,0.2772 -0.807895,0.53577 -1.211842,0.80365 -2.074878,1.26534 -3.927092,2.82125 -5.817435,4.3365 -2.038085,1.39202 -3.911361,2.98596 -5.760042,4.61452 -1.82597,1.26817 -3.061786,3.00152 -4.297983,4.80299 -1.242115,1.86473 -2.000508,4.00536 -2.659721,6.13375 -0.935926,2.38387 -1.377545,4.88565 -1.634814,7.42019 -0.22882,2.79983 -0.223426,5.61146 -0.236093,8.4185 0.0062,3.04547 0.380779,6.10222 0.886186,9.10419 0.860228,3.25878 1.87009,6.474 2.902049,9.68161 1.051781,2.93489 1.995148,5.89687 3.085067,8.81915 0.927814,2.98274 1.897817,5.95319 2.904826,8.91025 1.099735,3.00387 2.767417,5.71098 4.454589,8.40938 1.732573,2.89296 3.834557,5.54512 6.024736,8.10172 2.252985,2.81036 4.93803,5.09546 7.939993,7.05065 2.653159,2.07304 5.793812,3.19633 8.801001,4.60906 2.766299,1.01512 5.515419,2.09455 8.299489,3.06106 2.38955,0.79881 4.88956,1.06744 7.390596,1.20234 2.20297,0.0837 4.40809,0.0607 6.61214,0.0584 2.45229,-0.009 4.85953,-0.57752 7.29882,-0.81086 3.0515,-0.5315 5.92998,-1.71487 8.82408,-2.77478 3.23505,-0.87544 6.46492,-1.76347 9.69389,-2.66065 3.0576,-0.97934 5.98496,-2.24742 8.84154,-3.69837 3.4247,-1.97914 -0.94929,0.52834 2.34978,-1.30079 0.37074,-0.20555 1.46923,-0.84635 1.09918,-0.63957 -8.72817,4.87729 -3.57874,2.02737 -1.70647,0.8266 2.78736,-1.69019 5.22632,-3.87847 7.57647,-6.12013 2.35611,-2.39957 4.8142,-4.69461 7.12196,-7.14172 2.29494,-2.44207 4.44755,-5.00933 6.75208,-7.4428 2.67218,-2.66302 4.95751,-5.61504 7.12673,-8.68834 1.6732,-2.44467 3.0665,-5.06011 4.59028,-7.59654 1.57878,-2.65493 3.0146,-5.36076 3.9811,-8.29907 0.85427,-2.47613 1.98567,-4.81944 2.56851,-7.38257 0.46076,-2.51223 0.48745,-5.07319 0.52094,-7.61866 0.10662,-3.04487 -0.18969,-6.08708 -0.74578,-9.0784 -0.67282,-2.60051 -1.67717,-5.05691 -2.85711,-7.45922 -0.91771,-1.94862 -2.11872,-3.70471 -3.37987,-5.43721 -1.51271,-1.84859 -2.93641,-3.78428 -4.44658,-5.64457 -1.88519,-2.58086 -4.04684,-4.92379 -6.3269,-7.15581 -2.04894,-1.80433 -4.25727,-3.39217 -6.67728,-4.65478 -2.21405,-1.25684 -4.49119,-2.37867 -6.75995,-3.52961 -1.9216,-0.69921 -3.86398,-1.3945 -5.87115,-1.82298 -2.53015,-0.78875 -5.15721,-1.11067 -7.78913,-1.31174 -3.13379,-0.0306 -6.22667,-0.53705 -9.33842,-0.8502 -2.87339,-0.27976 -5.76019,-0.3402 -8.64482,-0.37603 -3.23256,0.13519 -6.42856,-0.18122 -9.63642,-0.52507 -2.92001,-0.30862 -5.85324,-0.44572 -8.78743,-0.5144 -2.739766,-0.12412 -5.446386,-0.0417 -8.164786,0.2943 -2.01748,0.44441 -3.96384,1.09918 -5.908326,1.78135 0,0 4.984846,-3.88457 4.984846,-3.88457 l 0,0 c 1.95424,-0.68188 3.93396,-1.2981 5.97639,-1.66013 2.737846,-0.31304 5.476666,-0.32902 8.230226,-0.22876 2.93818,0.0885 5.87396,0.25358 8.79745,0.56921 3.19838,0.34247 6.39056,0.57073 9.61076,0.47099 2.89489,0.0403 5.79105,0.12279 8.67255,0.42555 3.10922,0.32804 6.20584,0.77695 9.3373,0.83459 2.65777,0.23099 5.29421,0.61832 7.86053,1.37074 2.03058,0.48676 4.0294,1.16603 5.95768,1.95633 2.25752,1.17227 4.53693,2.29397 6.75184,3.54756 2.44006,1.33508 4.70708,2.93596 6.76652,4.81116 2.2894,2.25483 4.44615,4.63196 6.36143,7.21726 1.52114,1.86782 2.97748,3.79114 4.49553,5.65535 1.27947,1.76418 2.47406,3.56787 3.41756,5.54162 1.20109,2.45663 2.22622,4.96129 2.9236,7.61574 0.58364,3.02234 0.90625,6.10471 0.80888,9.18525 -0.0143,2.58072 -0.0362,5.17319 -0.45638,7.72691 -0.51254,2.60843 -1.62422,4.96945 -2.55273,7.44532 -0.92775,2.99221 -2.32727,5.74128 -3.91986,8.43463 -1.55228,2.53456 -2.92542,5.17445 -4.5863,7.64281 -2.18281,3.08618 -4.39961,6.10935 -7.09897,8.7783 -2.33013,2.40143 -4.44642,4.98754 -6.7344,7.42769 -2.29829,2.46846 -4.76358,4.76289 -7.12075,7.17301 -2.30949,2.28767 -4.75454,4.50571 -7.52109,6.22686 -4.01538,2.69892 -8.29385,5.00607 -12.52956,7.34344 -2.86842,1.43891 -5.84302,2.64332 -8.90948,3.59737 -3.21476,0.91906 -6.46359,1.71171 -9.65861,2.69499 -2.91614,1.07576 -5.84237,2.23416 -8.9396,2.66593 -2.44423,0.27491 -4.87138,0.80971 -7.34022,0.76196 -2.212736,0.009 -4.427326,0.0235 -6.637976,-0.0894 -2.53711,-0.17462 -5.06544,-0.50841 -7.478174,-1.35509 -2.788501,-0.99944 -5.568918,-2.03429 -8.325067,-3.11739 -3.039418,-1.40482 -6.163841,-2.61956 -8.844111,-4.6897 -3.031939,-2.00592 -5.738209,-4.36048 -8.027823,-7.20436 -2.211156,-2.58148 -4.338382,-5.25188 -6.086459,-8.17472 -1.710542,-2.74002 -3.3966,-5.49144 -4.523121,-8.53561 -1.017186,-2.94761 -1.979296,-5.91508 -2.901052,-8.89369 -1.088942,-2.93406 -2.048707,-5.8999 -3.090584,-8.84965 -1.029166,-3.23755 -2.060507,-6.47405 -2.952737,-9.75277 -0.540581,-3.02885 -0.893951,-6.12817 -0.933117,-9.20322 -6.32e-4,-2.82261 -0.0155,-5.64957 0.198842,-8.46605 0.234168,-2.56104 0.597417,-5.12141 1.567807,-7.52366 0.626644,-2.18188 1.402241,-4.36824 2.580382,-6.31519 1.251472,-1.80993 2.351863,-3.69269 4.227728,-4.95032 1.891239,-1.58417 3.656346,-3.32655 5.766771,-4.63723 1.884433,-1.53992 3.734386,-3.10876 5.80015,-4.40495 0.409055,-0.25255 0.818111,-0.50509 1.227167,-0.75763 0.370626,-0.28728 0.71362,-0.61429 1.11188,-0.86184 3.390619,-2.10756 6.764303,-4.28838 10.485031,-5.76555 3.419764,-1.38256 6.943704,-2.41514 10.614924,-2.87573 0,0 -5.071202,3.77088 -5.071202,3.77088 z"
       inkscape:connector-curvature="0" />
    <path
       style="fill:#000000;fill-opacity:0.78431373000000004;stroke:none"
       id="path3011"
       d="m 413.25231,201.59413 c -4.33579,-0.90645 -8.74965,-1.33381 -13.16399,-1.6152 -3.92613,0.1764 -7.89053,0.2363 -11.78432,0.80378 -3.13091,0.54122 -5.95484,1.9905 -8.90663,3.07828 -2.87069,1.07397 -5.59498,2.53725 -8.26846,4.03086 -4.08953,2.32507 1.62554,-0.96941 2.46478,-1.40553 0.49931,-0.25947 -0.94346,0.61355 -1.41339,0.92307 -1.40873,0.92783 -2.75356,1.93254 -4.14383,2.887 -2.83392,1.84016 -5.62949,3.72551 -8.27884,5.82415 -3.01113,2.47989 -5.85492,5.15994 -8.53535,7.99211 -2.51347,2.56978 -5.07763,5.08329 -7.26739,7.9397 -1.76919,2.50163 -2.91919,5.36415 -4.164,8.1468 -1.32588,3.17868 -2.64863,6.37209 -3.69134,9.65744 -1.04805,3.43254 -1.91706,6.91514 -2.88524,10.36962 -1.00028,3.03622 -1.21009,6.21557 -1.614,9.35995 -0.68506,4.07046 -1.33691,8.13541 -1.73208,12.24635 -0.31328,3.75609 -0.37657,7.52633 -0.40196,11.29341 -0.003,3.00491 -0.003,6.00983 -0.004,9.01474 0.16363,3.53185 0.6048,7.02474 1.45282,10.45642 0.73408,3.67619 2.41449,7.04582 4.29498,10.25642 1.64385,2.77543 3.87231,5.14169 5.61723,7.84111 1.21701,1.88471 2.73627,3.4102 4.4549,4.82779 2.47906,1.59661 4.73631,3.49383 7.10749,5.23582 1.97298,1.6834 4.14371,3.08372 6.23786,4.60127 2.06148,1.76432 4.29473,3.22469 6.74363,4.37785 2.14813,1.14904 4.29741,2.32017 6.50408,3.35189 2.01083,1.33944 4.3499,1.92401 6.55095,2.84214 2.90491,1.37221 5.97583,2.33591 8.98292,3.45946 2.86609,1.04648 5.62764,2.36961 8.59706,3.10104 2.74755,0.44861 5.50376,0.65166 8.21654,1.31045 2.63437,0.54003 5.22036,1.28233 7.84905,1.8403 2.6577,0.51973 5.37034,0.59688 8.06923,0.65737 2.73447,0.0384 5.46936,0.0287 8.20401,0.0226 2.58057,0.0796 5.16689,-0.21072 7.67048,-0.83453 2.72865,-0.55653 5.44637,-1.16276 8.17921,-1.70062 2.59755,-0.8354 5.29698,-1.16536 7.88579,-2.02091 2.79595,-0.74869 5.46174,-1.80569 8.08446,-3.01866 2.50691,-1.00786 5.03252,-1.98445 7.36047,-3.36507 -9.31149,5.69372 0.48078,-0.65432 2.30562,-2.04332 1.66894,-1.45678 3.42385,-2.81227 4.97586,-4.39616 1.72486,-2.22018 3.39275,-4.48716 5.00629,-6.7901 1.64081,-2.49 3.4072,-4.8926 4.96654,-7.43568 1.16936,-2.30336 2.85722,-4.28339 4.24025,-6.46034 1.46152,-2.19286 2.47608,-4.61306 3.42211,-7.05806 1.28628,-2.6612 2.19575,-5.47326 3.30429,-8.20988 1.20571,-3.21386 2.26347,-6.48359 3.32599,-9.74734 0.82492,-2.54382 1.17956,-5.18713 1.35207,-7.8445 0.10638,-2.64021 0.59085,-5.24506 0.84462,-7.87439 0.23026,-2.61276 0.26187,-5.23711 0.28417,-7.85819 0.22106,-2.4297 -0.3352,-4.73962 -0.89878,-7.07671 -0.90751,-2.92546 -1.89349,-5.83103 -2.86388,-8.7385 -1.06833,-2.99958 -2.21219,-5.96908 -3.50226,-8.88136 -0.92494,-2.82343 -2.14638,-5.52508 -3.22904,-8.28722 -0.90335,-2.21836 -1.74662,-4.43668 -2.77691,-6.60005 -1.27482,-2.72726 -2.869,-5.30459 -4.75824,-7.64745 -1.67258,-1.95405 -3.08912,-4.12117 -4.78114,-6.05416 -1.78685,-1.8564 -3.59,-3.68586 -5.46333,-5.45654 -1.97268,-1.6797 -3.8393,-3.55034 -5.98741,-5.00933 -1.77785,-1.30687 -3.55982,-2.61437 -5.41295,-3.81506 -2.66078,-1.86714 -5.60233,-3.25891 -8.45483,-4.79194 -2.49189,-1.2499 -5.00534,-2.48485 -7.63235,-3.42629 -2.00356,-1.07266 -4.22555,-1.54359 -6.39639,-2.15097 -2.51773,-0.78725 -5.06366,-1.32908 -7.68311,-1.65087 -2.44251,-0.34985 -4.92769,-0.12149 -7.36299,-0.47304 -1.77941,-0.3435 -3.57298,-0.57892 -5.37772,-0.73313 0,0 5.1503,-3.67031 5.1503,-3.67031 l 0,0 c 1.80613,0.17736 3.59745,0.44632 5.38637,0.75105 2.44279,0.24768 4.91475,0.12692 7.35144,0.48592 2.63625,0.35843 5.20338,0.94122 7.74738,1.71833 2.18137,0.61887 4.39786,1.13098 6.41965,2.19542 2.62808,0.99757 5.17004,2.21918 7.66646,3.50817 2.87218,1.53261 5.80551,2.97075 8.48814,4.83236 1.86232,1.20338 3.66531,2.49805 5.44269,3.82264 2.13311,1.53034 4.04136,3.37913 6.02043,5.09803 1.89085,1.7829 3.71584,3.62291 5.50839,5.50356 1.6758,1.95766 3.12049,4.10855 4.77933,6.08376 1.90049,2.39505 3.52626,5.00593 4.84631,7.76452 1.03558,2.17922 1.89666,4.40514 2.79381,6.64392 1.0616,2.76064 2.2931,5.44991 3.19905,8.27046 1.29669,2.92989 2.45136,5.91556 3.54422,8.92606 0.97767,2.92318 1.92191,5.85982 2.88594,8.78617 0.5875,2.37971 1.2167,4.72887 0.98069,7.21056 -0.0241,2.63764 -0.0521,5.27888 -0.2657,7.9093 -0.2432,2.62367 -0.72071,5.22215 -0.84458,7.85128 -0.15826,2.70558 -0.49131,5.40032 -1.30698,7.99704 -1.03826,3.28472 -2.15842,6.54857 -3.31608,9.79313 -1.09607,2.7341 -1.97903,5.5484 -3.28149,8.19198 -0.97121,2.46133 -1.89088,4.94852 -3.37356,7.16286 -1.34042,2.20992 -3.06412,4.16768 -4.24766,6.45418 -1.52308,2.57742 -3.33039,4.96154 -4.95079,7.47661 -1.62141,2.31291 -3.31499,4.56902 -4.95852,6.86673 -1.49514,1.66891 -3.29989,2.98436 -4.94255,4.49907 -4.14088,3.10949 -8.4796,5.90268 -13.07047,8.3388 -2.3887,1.28177 -4.88892,2.30077 -7.39673,3.32234 -2.64714,1.17141 -5.33431,2.19469 -8.13009,2.95898 -2.61148,0.78619 -5.31296,1.19403 -7.93011,1.96923 -2.72789,0.55702 -5.4532,1.1262 -8.17352,1.71737 -2.55082,0.53056 -5.14312,0.82439 -7.75222,0.72007 -2.73661,0.003 -5.47354,0.0156 -8.20979,-0.0388 -2.72684,-0.073 -5.46659,-0.18372 -8.14387,-0.75222 -2.6212,-0.59202 -5.21824,-1.28579 -7.84647,-1.85116 -2.72498,-0.59969 -5.49666,-0.77563 -8.22887,-1.32177 -2.9623,-0.80386 -5.74092,-2.11986 -8.62261,-3.1643 -3.01135,-1.13684 -6.09123,-2.09301 -9.0087,-3.46248 -2.22801,-0.88144 -4.53801,-1.55762 -6.57204,-2.87247 -2.19319,-1.06363 -4.35761,-2.19286 -6.50135,-3.35349 -2.46758,-1.18719 -4.69346,-2.72409 -6.80386,-4.47054 -2.12126,-1.48814 -4.24495,-2.95552 -6.24022,-4.61378 -2.36356,-1.77038 -4.66234,-3.62557 -7.12621,-5.2607 -1.77439,-1.45061 -3.3225,-3.05058 -4.56652,-4.99052 -1.73394,-2.7145 -3.94515,-5.10565 -5.58768,-7.88834 -1.90921,-3.2593 -3.64851,-6.66986 -4.40104,-10.40188 -0.88046,-3.47469 -1.3093,-7.01718 -1.52068,-10.59402 -0.009,-3.00535 -0.0306,-6.01078 -0.007,-9.01612 0.038,-3.78796 0.1093,-7.57754 0.40424,-11.35589 0.39358,-4.11194 0.99776,-8.18668 1.70137,-12.25599 0.42829,-3.16482 0.55884,-6.37914 1.56817,-9.44166 1.01463,-3.44643 1.84324,-6.94726 2.88764,-10.38665 1.01634,-3.31005 2.34456,-6.51436 3.6487,-9.71774 1.24283,-2.81667 2.41274,-5.69885 4.10779,-8.28021 2.16871,-2.901 4.69865,-5.46472 7.27147,-8.01168 2.64538,-2.87356 5.49843,-5.55375 8.4862,-8.06985 2.62764,-2.12865 5.39689,-4.04788 8.24616,-5.86889 1.88329,-1.22984 3.61793,-2.67987 5.55105,-3.83846 2.2637,-1.35672 4.55404,-2.66853 6.83733,-3.992 0.48432,-0.28073 0.97688,-0.547 1.46532,-0.82049 2.70275,-1.46318 5.42629,-2.93219 8.32861,-3.96327 2.94952,-1.1296 5.82315,-2.50239 8.9842,-2.95748 3.92018,-0.47112 7.88952,-0.63159 11.83461,-0.68612 4.44404,0.30898 8.87883,0.78746 13.25288,1.6531 0,0 -5.17822,3.60822 -5.17822,3.60822 z"
       inkscape:connector-curvature="0" />
    <path
       style="fill:#0000ff;fill-opacity:0.78431373000000004;stroke:none"
       id="path3019"
       d="m 121.99105,105.05356 c -0.0353,3.56084 -0.0136,7.12191 -0.0128,10.68285 -0.19949,2.51073 0.23901,4.95216 0.63407,7.41409 0.3309,2.44149 0.89103,4.83401 1.17874,7.28446 0.276,2.62537 0.30018,5.2677 0.32734,7.90472 0.0149,2.86393 -0.002,5.72793 -0.004,8.59189 0.003,2.696 0.002,5.39199 8.1e-4,8.08799 -1.6e-4,2.80884 -0.005,5.61768 -0.003,8.42653 1.9e-4,2.68392 0.002,5.36784 0.005,8.05177 0.003,2.23774 0.004,4.47549 0.004,6.71325 -0.007,2.02997 -0.004,4.05995 -0.003,6.08993 0,0 -5.62878,2.86801 -5.62878,2.86801 l 0,0 c 0.001,-2.02897 0.004,-4.05795 -0.003,-6.08691 5.1e-4,-2.23916 0.001,-4.47832 0.004,-6.71748 0.003,-2.68548 0.004,-5.37095 0.005,-8.05643 0.002,-2.80804 -0.003,-5.61607 -0.002,-8.4241 3.1e-4,-2.69811 0.002,-5.3962 0.0104,-8.09429 0.004,-2.85985 0.003,-5.7197 -0.007,-8.57954 -0.0182,-2.61736 -0.0396,-5.23924 -0.29444,-7.8466 -0.27446,-2.44317 -0.83316,-4.8242 -1.18148,-7.25273 -0.38891,-2.49774 -0.86503,-4.97207 -0.64783,-7.51842 8.4e-4,-3.55659 0.0225,-7.11331 -0.0128,-10.6698 0,0 5.63111,-2.86919 5.63111,-2.86919 z"
       inkscape:connector-curvature="0" />
    <path
       style="fill:#0000ff;fill-opacity:0.78431373000000004;stroke:none"
       id="path3021"
       d="m 111.90095,175.00052 c 1.76884,2.96663 3.51984,5.96522 5.45481,8.82857 1.60494,1.94747 2.32012,2.24896 4.64302,1.58812 2.17477,-1.00511 2.75679,-1.30064 -3.75935,2.18067 -0.28494,0.15223 0.54003,-0.35486 0.80481,-0.53993 0.92197,-0.64444 1.77615,-1.35742 2.63049,-2.0875 1.1874,-1.15007 2.21285,-2.44608 3.35234,-3.64164 0,0 5.83224,-2.42033 5.83224,-2.42033 l 0,0 c -1.18805,1.16235 -2.21129,2.45944 -3.33244,3.6854 -3.10788,2.75228 -6.63687,5.26819 -10.56491,6.66646 -2.36169,0.46317 -3.58984,-0.35854 -5.04405,-2.24367 -1.91265,-2.88766 -3.64827,-5.89725 -5.47641,-8.83861 0,0 5.45945,-3.17754 5.45945,-3.17754 z"
       inkscape:connector-curvature="0" />
    <path
       style="fill:#800000;fill-opacity:0.78431373000000004;stroke:none"
       id="path3037"
       d="m 193.12614,257.93074 c 6.02804,0.71813 12.05872,1.44053 18.07659,2.24701 6.64353,0.73697 13.26491,1.66987 19.9098,2.39564 3.39421,0.37817 6.80707,0.49534 10.21937,0.53591 2.48322,-0.14244 4.91635,0.37108 7.36916,0.67003 3.20177,0.39268 6.38052,0.90767 9.60007,1.16965 3.34483,0.16525 6.65192,0.73072 9.92499,1.41147 2.83838,0.62973 5.74066,0.82796 8.63765,0.9411 2.73036,0.0799 5.46228,0.0693 8.19349,0.0638 2.55695,0.39011 5.11494,0.7094 7.69649,0.88156 2.69247,0.48942 5.39747,0.85725 8.12579,1.06779 3.00262,0.1942 5.97866,0.69932 8.92347,1.30516 2.46931,0.5526 4.98263,0.81061 7.50529,0.93434 0.36421,0.0112 0.72843,0.0223 1.09265,0.0335 0,0 -5.12834,3.69821 -5.12834,3.69821 l 0,0 c -0.36625,-0.0148 -0.73249,-0.0296 -1.09874,-0.0444 -2.53601,-0.15523 -5.05737,-0.46145 -7.53868,-1.02378 -2.9343,-0.59455 -5.90182,-1.04601 -8.89198,-1.23536 -2.72241,-0.23801 -5.41623,-0.65256 -8.11614,-1.06545 -2.57199,-0.19016 -5.11606,-0.56312 -7.6775,-0.83998 -2.73392,-8.1e-4 -5.46891,0.005 -8.20148,-0.0921 -2.91749,-0.13635 -5.8352,-0.37748 -8.69022,-1.02818 -3.25558,-0.6694 -6.54836,-1.17963 -9.87114,-1.35727 -3.22892,-0.28202 -6.42069,-0.80782 -9.63907,-1.17281 -2.43471,-0.31084 -4.85864,-0.74231 -7.32471,-0.6174 -3.40823,-0.0638 -6.81595,-0.21233 -10.20268,-0.62294 -6.62289,-0.77363 -13.22584,-1.71491 -19.85339,-2.45018 -6.05462,-0.79326 -12.12113,-1.51573 -18.19415,-2.14763 0,0 5.15341,-3.65774 5.15341,-3.65774 z"
       inkscape:connector-curvature="0" />
    <path
       style="fill:#800000;fill-opacity:0.78431373000000004;stroke:none"
       id="path3039"
       d="m 314.29008,257.80983 c 2.46362,2.81692 5.04998,5.51853 7.56092,8.29349 1.76789,1.9905 3.05446,4.09467 2.35746,6.78313 -0.97031,1.95725 -2.83081,3.30109 -4.50308,4.64519 -1.8636,1.51213 -3.51128,3.28542 -5.1375,5.0474 -1.37201,1.47133 -2.94685,2.71907 -4.47746,4.01537 0,0 -5.84396,2.36839 -5.84396,2.36839 l 0,0 c 1.50808,-1.30911 3.11542,-2.49841 4.50389,-3.94371 1.61699,-1.78315 3.26477,-3.56317 5.08675,-5.13354 1.64522,-1.30146 3.41939,-2.59526 4.64455,-4.30506 0.98509,-2.42864 -0.43177,-4.38481 -2.01201,-6.21745 -2.4959,-2.77568 -5.04032,-5.50335 -7.56271,-8.25442 0,0 5.38315,-3.29879 5.38315,-3.29879 z"
       inkscape:connector-curvature="0" />
    <path
       style="fill:#000000;fill-opacity:0.78431373;stroke:none"
       id="path3179"
       d="m 40.087634,46.967156 c -2.958236,-1.731911 -6.249727,-2.632396 -9.604047,-3.190401 -2.731184,-0.391339 -5.492529,-0.440099 -8.246376,-0.455183 -2.354334,-0.144674 -4.629773,0.131675 -6.913573,0.682581 -1.423081,0.23158 -2.719815,0.749184 -3.995715,1.393201 -0.37156,0.187547 -1.4697133,0.780831 -1.111487,0.568924 1.436179,-0.849562 5.791117,-3.318516 4.346847,-2.482782 -2.136277,1.236169 -4.281929,2.456065 -6.4228932,3.684098 8.0011142,-4.87024 4.6241252,-2.900499 3.0906082,-1.155524 -0.756854,0.861219 -1.4650746,1.7582 -2.1486827,2.677728 -1.1729036,1.965153 -2.0095829,4.158928 -2.547428,6.382729 -0.5190532,2.492787 -0.5746246,5.008144 0.028807,7.483423 0.4586807,2.045845 1.6584959,3.367358 3.551435,4.162881 1.846287,0.695482 3.564487,1.661206 5.465314,2.208151 2.191588,0.335396 4.37579,0.717434 6.572224,1.038495 3.102627,0.376645 6.230799,0.463274 9.352706,0.521617 2.350126,0.03279 4.700553,0.02509 7.050831,0.02123 1.892499,-0.167161 3.495286,-1.047928 5.113063,-1.952285 -8.94963,5.341695 -4.346922,2.610512 -2.652434,0.840084 0.521288,-0.544651 0.970167,-1.167568 1.427055,-1.763664 1.469101,-1.996638 2.589779,-4.133737 3.195916,-6.535594 0.751291,-2.47555 1.274929,-5.002774 1.275024,-7.594034 -0.209055,-2.228457 -1.289284,-3.853588 -2.94033,-5.282304 -0.257565,-0.238313 -0.51513,-0.476626 -0.772696,-0.714938 0,0 5.37194,-3.321044 5.37194,-3.321044 l 0,0 c 0.25454,0.235037 0.50908,0.470073 0.763621,0.70511 1.745154,1.581921 2.918175,3.349327 3.183408,5.748115 0.06306,2.627108 -0.401384,5.224533 -1.20231,7.726781 -0.529261,2.493145 -1.615251,4.690313 -3.083994,6.77375 -2.585106,3.496776 -5.260707,5.354404 -9.487632,7.390213 -1.651371,0.910666 -3.381237,1.634965 -5.297597,1.691099 -2.347521,0.0013 -4.695283,0.0035 -7.042426,-0.04524 C 23.268259,74.095396 20.123417,73.98679 17.006215,73.589702 14.785622,73.253723 12.552123,72.955839 10.357508,72.489321 8.4617863,71.873994 6.7053082,70.926927 4.8470483,70.211506 2.8648698,69.237472 1.5218542,67.756824 1.016881,65.555 0.36749651,63.000522 0.35897847,60.401387 0.85466109,57.811318 1.3282418,55.505606 2.2199661,53.281561 3.2953677,51.197349 c 2.8165256,-4.047094 4.6929174,-5.532508 9.7526363,-7.991423 -11.8760944,6.904113 3.631248,-2.931417 7.282385,-3.013108 2.320877,-0.495471 4.636469,-0.709627 7.012386,-0.573695 2.767059,0.03424 5.541134,0.119242 8.278926,0.559056 3.409222,0.62711 6.732232,1.619256 9.762222,3.346174 0,0 -5.296289,3.442803 -5.296289,3.442803 z"
       inkscape:connector-curvature="0" />
    <path
       style="fill:#000000;fill-opacity:0.78431373;stroke:none"
       id="path3185"
       d="m 244.32791,380.78604 c -3.51288,-0.0257 -7.02591,-0.0137 -10.53884,-0.007 -2.56977,-0.32448 -4.84306,0.46695 -7.24362,1.20601 2.19295,-1.51992 -5.09306,2.71008 -2.68458,1.35381 8.49721,-4.78498 4.57334,-2.66885 2.73668,-1.3727 -1.43227,1.16923 -2.46247,2.50117 -3.01038,4.26404 -0.37397,1.89478 -0.55371,3.87132 -0.33019,5.79439 0.6562,2.32056 2.94166,3.50065 4.82366,4.73919 2.89578,1.61618 5.77885,3.09461 8.9845,3.97379 2.67641,0.57028 5.33393,1.21537 7.96096,1.97888 2.30281,0.68737 4.70627,0.82051 7.09185,0.92119 2.0431,0.14535 4.03525,-0.41363 5.78283,-1.45195 -8.45464,4.99306 -4.60728,2.88613 -3.02941,1.15502 0.81145,-0.89025 1.38194,-1.78304 1.92005,-2.85493 0.90812,-2.23571 1.0798,-4.6474 1.1833,-7.03057 0.32124,-2.21174 -0.25703,-3.85966 -1.32417,-5.73364 -1.13918,-1.47465 -2.20917,-3.06867 -3.67573,-4.23479 -1.42144,-1.38096 -3.27561,-2.05683 -5.05174,-2.84475 -0.96393,-0.61095 -0.48528,-0.31903 -1.43491,-0.87745 0,0 5.31326,-3.44218 5.31326,-3.44218 l 0,0 c 0.93139,0.5552 0.46741,0.28132 1.39186,0.82177 1.81291,0.83094 3.68474,1.56431 5.1352,2.99038 1.48688,1.26306 2.64446,2.86287 3.79309,4.43197 1.12383,1.96497 1.82136,3.7203 1.48619,6.04702 -0.0912,2.45057 -0.25077,4.92459 -1.08166,7.25567 -1.82256,4.31032 -5.34925,6.10401 -9.55352,8.27784 -1.88863,0.88788 -3.869,1.38045 -5.97223,1.17179 -2.42013,-0.12744 -4.85127,-0.31112 -7.17812,-1.04214 -2.6193,-0.76246 -5.27936,-1.36639 -7.93412,-1.99287 -3.23067,-0.95272 -6.17293,-2.46903 -9.09704,-4.1285 -2.05626,-1.35117 -4.39476,-2.67507 -5.13015,-5.18742 -0.28527,-1.99146 -0.0852,-4.03851 0.21505,-6.02012 0.47308,-1.91054 1.39316,-3.3214 2.85185,-4.64905 3.2525,-2.56052 6.98407,-4.58762 10.80832,-6.17364 2.41846,-0.75215 4.77205,-1.30604 7.33665,-1.03961 3.51974,0.006 7.03957,0.0181 10.55926,-0.007 0,0 -5.10415,3.70838 -5.10415,3.70838 z"
       inkscape:connector-curvature="0" />
    <path
       style="fill:#000000;fill-opacity:0.78431373;stroke:none"
       id="path3191"
       d="m 357.50586,470.69394 c -3.18102,-0.81347 -6.42973,-1.29678 -9.69464,-1.60457 -2.46496,-0.23355 -4.399,-0.48732 -6.58227,0.81353 8.08539,-4.78485 4.41015,-2.84791 2.97835,-0.93984 -0.68445,0.91212 -1.17952,1.86754 -1.64127,2.90418 -0.63864,2.0787 -1.19037,4.19705 -1.59479,6.33614 -0.37838,2.11599 -0.53713,4.21551 0.23402,6.24904 1.16913,2.03924 3.03014,3.09962 5.22243,3.7188 2.10065,0.45399 4.26075,0.44243 6.39891,0.45065 3.86647,0.34439 8.41904,-2.7541 0.13043,1.89203 1.51281,-0.85545 2.70931,-2.03858 3.65798,-3.47665 1.09236,-1.76755 1.8711,-3.64573 2.33512,-5.66578 0.31701,-2.02711 0.55465,-4.11359 0.32838,-6.1609 -0.13132,-0.899 -0.34544,-1.76804 -0.61332,-2.63406 0,0 5.54154,-3.0425 5.54154,-3.0425 l 0,0 c 0.29478,0.89957 0.52389,1.79935 0.66895,2.73707 0.28727,2.10493 0.034,4.2571 -0.23996,6.35381 -0.42148,2.08893 -1.15671,4.02051 -2.23054,5.86623 -0.93472,1.50382 -1.98528,2.8363 -3.54723,3.74654 -5.04767,2.87852 -6.13007,4.29374 -11.14201,4.09168 -2.17807,-0.0231 -4.38211,-0.0421 -6.50286,-0.60159 -2.32388,-0.76676 -4.28362,-2.01636 -5.51859,-4.2033 -0.85639,-2.12854 -0.79165,-4.31445 -0.39862,-6.55668 0.38118,-2.18395 0.97845,-4.31999 1.53753,-6.46158 1.81925,-4.57919 4.50477,-6.25793 9.32108,-8.5582 2.18192,-0.99593 4.4396,-0.75295 6.78072,-0.5036 3.28851,0.35049 6.55283,0.88623 9.76931,1.66372 0,0 -5.19865,3.58583 -5.19865,3.58583 z"
       inkscape:connector-curvature="0" />
    <path
       style="fill:#000000;fill-opacity:0.78431373;stroke:none"
       id="path3197"
       d="m 429.63275,326.06782 c -2.93297,-1.10024 -5.84535,-2.26359 -8.87791,-3.06474 -2.29275,-0.56476 -4.65284,-0.67054 -7.00227,-0.72084 -2.16189,-0.1238 -4.26734,0.10989 -6.16637,1.1896 -0.2927,0.16633 -1.17258,0.66215 -0.87809,0.499 8.60888,-4.76949 3.77227,-2.18627 1.6005,-0.0712 -1.42882,1.67459 -2.62208,3.46466 -3.42113,5.51743 -0.9963,2.29047 -1.4395,4.73887 -1.71406,7.20476 -0.36495,2.19518 0.3831,4.05806 1.54471,5.86764 1.24639,1.4754 3.05696,2.40988 4.83911,3.10149 1.92566,0.42235 3.85938,0.81009 5.79782,1.19273 2.58833,0.41319 5.21497,0.46698 7.83013,0.51865 2.32335,-0.0499 4.67274,0.20502 6.97742,-0.13632 2.45029,-0.68429 9.37746,-4.79033 0.0654,0.42997 1.80437,-1.18685 3.56675,-2.51933 5.00587,-4.13836 1.3869,-1.99213 1.37516,-4.53879 1.48452,-6.87643 -0.0684,-2.37916 -0.62431,-4.71233 -1.8332,-6.76739 -0.98337,-1.53293 -1.72537,-3.26696 -3.1614,-4.43649 -0.22613,-0.11549 -0.45226,-0.23098 -0.67838,-0.34647 0,0 5.30499,-3.45472 5.30499,-3.45472 l 0,0 c 0.2487,0.15065 0.4974,0.3013 0.74611,0.45195 1.42921,1.2816 2.26369,3.00687 3.25195,4.62772 1.2577,2.16587 1.88051,4.58931 1.99365,7.09094 -0.0996,2.43388 -0.0775,5.05649 -1.2933,7.23576 -1.32471,1.73754 -3.15329,3.09023 -4.94898,4.30895 -3.51456,2.09926 -6.95526,4.64596 -11.00002,5.64436 -2.3319,0.20679 -4.67921,0.0555 -7.01767,0.0564 -2.64293,-0.068 -5.29929,-0.13674 -7.90891,-0.59913 -1.96294,-0.4047 -3.95529,-0.71035 -5.87295,-1.28694 -1.87186,-0.80769 -3.7541,-1.80698 -5.03394,-3.43418 -1.22841,-1.907 -2.08933,-3.92513 -1.74049,-6.24766 0.25481,-2.50181 0.64296,-5.01498 1.64254,-7.34264 0.74523,-2.14661 1.90768,-3.97733 3.30983,-5.75559 2.7456,-3.00948 6.54649,-4.82751 10.04013,-6.79923 2.02258,-0.88015 4.15788,-1.08425 6.35128,-0.94165 2.37801,0.0757 4.76266,0.23424 7.07089,0.85785 3.04379,0.86143 5.98196,2.03816 8.9519,3.11959 0,0 -5.25972,3.50516 -5.25972,3.50516 z"
       inkscape:connector-curvature="0" />
    <path
       style="fill:#000000;fill-opacity:0.78431373;stroke:none"
       id="path3203"
       d="m 483.31334,481.00927 c -3.06605,0.61904 -6.11174,1.38688 -9.06794,2.41521 -1.91265,1.16116 -6.56429,3.12638 2.52322,-1.45319 0.29858,-0.15047 -0.53102,0.40828 -0.77428,0.63765 -0.52816,0.49801 -0.8567,0.96716 -1.30272,1.53966 -1.41854,1.89316 -1.72309,4.19417 -1.94622,6.47971 -0.20324,2.95502 -0.48758,4.84788 0.98901,7.51479 1.34917,2.2421 3.36651,3.44615 5.83812,4.06835 2.37141,0.41477 4.79506,0.36427 7.19409,0.35872 2.62878,-0.0956 5.28111,0.15277 7.89259,-0.19384 0.26998,0.37121 3.50486,-1.22391 3.17728,-1.03142 -8.4349,4.95641 -4.14945,2.32722 -2.32159,1.04202 1.82138,-1.23286 2.86388,-3.08397 3.65024,-5.08278 0.58268,-2.1707 1.01461,-4.47511 0.43523,-6.68063 -0.93686,-1.7708 -2.48316,-3.08375 -3.96117,-4.39176 -1.78709,-1.33905 -3.44045,-2.8655 -5.0626,-4.39851 -0.69071,-0.70077 -1.52173,-1.13071 -2.40313,-1.52937 0,0 5.27646,-3.48215 5.27646,-3.48215 l 0,0 c 0.90776,0.46468 1.77657,0.95777 2.49905,1.69666 1.62597,1.52191 3.27268,3.03847 5.05042,4.38269 1.57305,1.38576 3.17942,2.81039 4.15,4.70388 0.66953,2.31907 0.26515,4.71109 -0.2596,7.03349 -0.72204,2.07478 -1.72198,4.08437 -3.51096,5.44023 -3.63111,2.50617 -7.28517,5.5387 -11.77907,6.05692 -2.63731,0.21814 -5.29029,0.0779 -7.93441,0.14066 -2.43553,-0.007 -4.90552,0.0339 -7.29622,-0.49429 -2.57491,-0.77046 -4.67141,-2.15162 -6.0915,-4.50026 -1.62703,-2.91683 -1.36087,-4.60958 -1.1752,-7.84276 0.20186,-2.35787 0.44317,-4.77023 1.78897,-6.79252 2.66839,-3.65727 6.22059,-5.24125 10.32462,-7.08374 2.99491,-0.95648 6.0408,-1.73077 9.11411,-2.38955 0,0 -5.0168,3.83613 -5.0168,3.83613 z"
       inkscape:connector-curvature="0" />
  </g>
  <g
     inkscape:groupmode="layer"
     id="layer3"
     inkscape:label="Text"
     style="display:inline">
    <text
       xml:space="preserve"
       style="font-size:16px;font-style:normal;font-variant:normal;font-weight:normal;font-stretch:normal;text-align:start;line-height:125%;letter-spacing:0px;word-spacing:0px;writing-mode:lr-tb;text-anchor:start;fill:#000000;fill-opacity:1;stroke:none;font-family:Segoe Print;-inkscape-font-specification:Segoe Print"
       x="44.690815"
       y="89.381622"
       id="text3071"
       sodipodi:linespacing="125%"><tspan
         sodipodi:role="line"
         id="tspan3073"
         x="44.690815"
         y="89.381622">Command: Register <tspan
   style="font-weight:bold"
   id="tspan3076">X</tspan> and <tspan
   style="font-weight:bold"
   id="tspan3078">Y</tspan> onto Conference <tspan
   style="font-weight:bold"
   id="tspan3080">157</tspan></tspan></text>
    <text
       xml:space="preserve"
       style="font-size:16px;font-style:normal;font-variant:normal;font-weight:normal;font-stretch:normal;text-align:start;line-height:125%;letter-spacing:0px;word-spacing:0px;writing-mode:lr-tb;text-anchor:start;fill:#000000;fill-opacity:1;stroke:none;font-family:Segoe Print;-inkscape-font-specification:Segoe Print"
       x="63.844013"
       y="231.96658"
       id="text3075"
       sodipodi:linespacing="125%"><tspan
         sodipodi:role="line"
         id="tspan3077"
         x="63.844013"
         y="231.96658">Order</tspan><tspan
         sodipodi:role="line"
         x="63.844013"
         y="251.96658"
         id="tspan3079">Aggregate</tspan><tspan
         sodipodi:role="line"
         x="63.844013"
         y="271.96658"
         id="tspan3060">Order ID:</tspan><tspan
         sodipodi:role="line"
         x="63.844013"
         y="291.96658"
         id="tspan3062"
         style="font-weight:bold">4239</tspan></text>
    <text
       xml:space="preserve"
       style="font-size:16px;font-style:normal;font-variant:normal;font-weight:normal;font-stretch:normal;text-align:start;line-height:125%;letter-spacing:0px;word-spacing:0px;writing-mode:lr-tb;text-anchor:start;fill:#000000;fill-opacity:1;stroke:none;font-family:Segoe Print;-inkscape-font-specification:Segoe Print"
       x="343.58917"
       y="241.57584"
       id="text3081"
       sodipodi:linespacing="125%"><tspan
         sodipodi:role="line"
         x="343.58917"
         y="241.57584"
         id="tspan3129">SeatsAvailability</tspan><tspan
         sodipodi:role="line"
         x="343.58917"
         y="261.57584"
         id="tspan3085">Aggregate for</tspan><tspan
         sodipodi:role="line"
         x="343.58917"
         y="281.57584"
         id="tspan3087">Conference ID: <tspan
   style="font-weight:bold"
   id="tspan3064">157</tspan></tspan></text>
    <text
       xml:space="preserve"
       style="font-size:16px;font-style:normal;font-variant:normal;font-weight:normal;font-stretch:normal;text-align:start;line-height:125%;letter-spacing:0px;word-spacing:0px;writing-mode:lr-tb;text-anchor:start;fill:#000000;fill-opacity:1;stroke:none;font-family:Segoe Print;-inkscape-font-specification:Segoe Print"
       x="197.91644"
       y="289.42621"
       id="text3089"
       sodipodi:linespacing="125%"><tspan
         sodipodi:role="line"
         id="tspan3091"
         x="197.91644"
         y="289.42621">Event:</tspan><tspan
         sodipodi:role="line"
         x="197.91644"
         y="309.42621"
         id="tspan3093">Order created</tspan><tspan
         sodipodi:role="line"
         x="197.91644"
         y="329.42621"
         id="tspan3057">for two</tspan><tspan
         sodipodi:role="line"
         x="197.91644"
         y="349.42621"
         id="tspan3095">reservations to</tspan><tspan
         sodipodi:role="line"
         x="197.91644"
         y="369.42621"
         id="tspan3097">conference 157</tspan></text>
    <text
       xml:space="preserve"
       style="font-size:16px;font-style:normal;font-variant:normal;font-weight:normal;font-stretch:normal;text-align:start;line-height:125%;letter-spacing:0px;word-spacing:0px;writing-mode:lr-tb;text-anchor:start;fill:#000000;fill-opacity:1;stroke:none;font-family:Segoe Print;-inkscape-font-specification:Segoe Print"
       x="317.06583"
       y="517.23444"
       id="text3099"
       sodipodi:linespacing="125%"><tspan
         sodipodi:role="line"
         id="tspan3101"
         x="317.06583"
         y="517.23444">Re-hydrate</tspan></text>
    <text
       xml:space="preserve"
       style="font-size:16px;font-style:normal;font-variant:normal;font-weight:normal;font-stretch:normal;text-align:start;line-height:125%;letter-spacing:0px;word-spacing:0px;writing-mode:lr-tb;text-anchor:start;fill:#000000;fill-opacity:1;stroke:none;font-family:Segoe Print;-inkscape-font-specification:Segoe Print"
       x="457.50958"
       y="525.81879"
       id="text3103"
       sodipodi:linespacing="125%"><tspan
         sodipodi:role="line"
         id="tspan3105"
         x="457.50958"
         y="525.81879">Persist</tspan></text>
    <text
       xml:space="preserve"
       style="font-size:16px;font-style:normal;font-variant:normal;font-weight:normal;font-stretch:normal;text-align:start;line-height:125%;letter-spacing:0px;word-spacing:0px;writing-mode:lr-tb;text-anchor:start;fill:#000000;fill-opacity:1;stroke:none;font-family:Segoe Print;-inkscape-font-specification:Segoe Print"
       x="551.33026"
       y="169.4543"
       id="text3165"
       sodipodi:linespacing="125%"><tspan
         sodipodi:role="line"
         id="tspan3167"
         x="551.33026"
         y="169.4543"
         style="font-size:20px">Domain Model</tspan></text>
    <text
       xml:space="preserve"
       style="font-size:16px;font-style:normal;font-variant:normal;font-weight:normal;font-stretch:normal;text-align:start;line-height:125%;letter-spacing:0px;word-spacing:0px;writing-mode:lr-tb;text-anchor:start;fill:#000000;fill-opacity:1;stroke:none;font-family:Segoe Print;-inkscape-font-specification:Segoe Print"
       x="229.04857"
       y="760.25952"
       id="text3169"
       sodipodi:linespacing="125%"><tspan
         sodipodi:role="line"
         id="tspan3171"
         x="229.04857"
         y="760.25952"
         style="font-size:20px">Data Store</tspan></text>
    <text
       xml:space="preserve"
       style="font-size:20px;font-style:normal;font-variant:normal;font-weight:normal;font-stretch:normal;text-align:start;line-height:125%;letter-spacing:0px;word-spacing:0px;writing-mode:lr-tb;text-anchor:start;fill:#000000;fill-opacity:1;stroke:none;font-family:Segoe Print;-inkscape-font-specification:Segoe Print"
       x="23.409472"
       y="62.779949"
       id="text3175"
       sodipodi:linespacing="125%"><tspan
         sodipodi:role="line"
         id="tspan3177"
         x="23.409472"
         y="62.779949">1</tspan></text>
    <text
       xml:space="preserve"
       style="font-size:20px;font-style:normal;font-variant:normal;font-weight:normal;font-stretch:normal;text-align:start;line-height:125%;letter-spacing:0px;word-spacing:0px;writing-mode:lr-tb;text-anchor:start;fill:#000000;fill-opacity:1;stroke:none;font-family:Segoe Print;-inkscape-font-specification:Segoe Print"
       x="234.19264"
       y="395.95694"
       id="text3181"
       sodipodi:linespacing="125%"><tspan
         sodipodi:role="line"
         id="tspan3183"
         x="234.19264"
         y="395.95694">2</tspan></text>
    <text
       xml:space="preserve"
       style="font-size:20px;font-style:normal;font-variant:normal;font-weight:normal;font-stretch:normal;text-align:start;line-height:125%;letter-spacing:0px;word-spacing:0px;writing-mode:lr-tb;text-anchor:start;fill:#000000;fill-opacity:1;stroke:none;font-family:Segoe Print;-inkscape-font-specification:Segoe Print"
       x="412.91672"
       y="340.65808"
       id="text3193"
       sodipodi:linespacing="125%"><tspan
         sodipodi:role="line"
         id="tspan3195"
         x="412.91672"
         y="340.65808">4</tspan></text>
    <text
       xml:space="preserve"
       style="font-size:20px;font-style:normal;font-variant:normal;font-weight:normal;font-stretch:normal;text-align:start;line-height:125%;letter-spacing:0px;word-spacing:0px;writing-mode:lr-tb;text-anchor:start;fill:#000000;fill-opacity:1;stroke:none;font-family:Segoe Print;-inkscape-font-specification:Segoe Print"
       x="478.32748"
       y="494.79767"
       id="text3199"
       sodipodi:linespacing="125%"><tspan
         sodipodi:role="line"
         id="tspan3201"
         x="478.32748"
         y="494.79767">5</tspan></text>
    <text
       xml:space="preserve"
       style="font-size:20px;font-style:normal;font-variant:normal;font-weight:normal;font-stretch:normal;text-align:start;line-height:125%;letter-spacing:0px;word-spacing:0px;writing-mode:lr-tb;text-anchor:start;fill:#000000;fill-opacity:1;stroke:none;font-family:Segoe Print;-inkscape-font-specification:Segoe Print"
       x="345.16241"
       y="487.24472"
       id="text3187"
       sodipodi:linespacing="125%"><tspan
         sodipodi:role="line"
         id="tspan3189"
         x="345.16241"
         y="487.24472">3</tspan></text>
    <text
       xml:space="preserve"
       style="font-size:16px;font-style:normal;font-variant:normal;font-weight:normal;font-stretch:normal;text-align:start;line-height:125%;letter-spacing:0px;word-spacing:0px;writing-mode:lr-tb;text-anchor:start;fill:#000000;fill-opacity:1;stroke:none;font-family:Segoe Print;-inkscape-font-specification:Segoe Print"
       x="49.247368"
       y="497.79401"
       id="text3102"
       sodipodi:linespacing="125%"><tspan
         sodipodi:role="line"
         x="49.247368"
         y="497.79401"
         id="tspan3106">6</tspan></text>
    <text
       xml:space="preserve"
       style="font-size:16px;font-style:normal;font-variant:normal;font-weight:normal;font-stretch:normal;text-align:start;line-height:125%;letter-spacing:0px;word-spacing:0px;writing-mode:lr-tb;text-anchor:start;fill:#000000;fill-opacity:1;stroke:none;font-family:Segoe Print;-inkscape-font-specification:Segoe Print"
       x="28.906063"
       y="536.33545"
       id="text3110"
       sodipodi:linespacing="125%"><tspan
         sodipodi:role="line"
         id="tspan3112"
         x="28.906063"
         y="536.33545">Persist</tspan></text>
    <path
       style="fill:#000000;fill-opacity:1;fill-rule:nonzero;stroke:none"
       id="path3114"
       d="m 60.397093,481.61097 c -3.206482,-0.81244 -6.477702,-1.30751 -9.766637,-1.62433 -2.39509,-0.20617 -4.800067,-0.22544 -7.202252,-0.23395 -1.851274,-0.0851 -3.611071,0.45775 -5.294488,1.16027 5.829304,-3.19708 2.852253,-1.76827 1.744145,-0.79782 -0.660516,0.57847 -1.165929,1.2833 -1.718697,1.95972 -1.269225,1.73987 -2.173992,3.75104 -2.982046,5.74177 -0.812177,2.13387 -1.024046,4.40233 -1.140825,6.66197 0.09568,1.80785 0.440731,3.46125 1.675252,4.82084 1.184637,1.40735 2.771063,2.35071 4.505058,2.90686 2.306657,0.90583 4.724553,1.38562 7.177653,1.65688 2.190676,0.19554 4.392152,0.19377 6.589581,0.19762 2.366777,0.18009 4.593604,-0.36672 6.807062,-1.14126 1.109512,-0.6672 5.741715,-2.71467 -0.05032,0.15229 -0.342022,0.16929 0.645099,-0.40804 0.963159,-0.61894 1.087482,-0.72108 0.780969,-0.50926 1.750517,-1.32876 1.313632,-1.41396 2.449449,-2.96397 3.275117,-4.70916 0.92107,-2.2792 1.833857,-4.56746 2.463921,-6.94678 0.704541,-2.41775 0.352958,-4.72696 -0.563496,-7.02497 -1.100442,-2.08097 -2.956195,-3.64652 -5.041117,-4.67975 -1.939471,-1.18941 -4.06407,-1.79805 -6.296614,-2.10323 -0.349205,-0.0307 -0.698411,-0.0613 -1.047617,-0.092 0,0 3.450548,-2.45708 3.450548,-2.45708 l 0,0 c 0.353276,0.0365 0.706552,0.0729 1.059828,0.10941 2.258608,0.35262 4.398242,1.02811 6.366725,2.22313 2.147735,1.13235 4.064312,2.75589 5.201358,4.93721 0.947688,2.36253 1.386141,4.76177 0.686499,7.26298 -0.606727,2.40425 -1.532068,4.69966 -2.424672,7.0087 -0.78372,1.81283 -1.934167,3.37396 -3.207624,4.87519 -2.841274,2.61637 -6.453075,4.33405 -9.916246,5.98191 -2.252391,0.7424 -4.515794,1.21461 -6.904058,1.03958 -2.206182,-0.008 -4.417137,-0.0147 -6.61433,-0.23906 -2.471576,-0.30438 -4.898776,-0.83133 -7.229727,-1.72872 -1.78033,-0.6313 -3.409925,-1.6184 -4.632217,-3.08582 -1.284706,-1.46943 -1.70515,-3.18284 -1.826505,-5.11314 0.106378,-2.29799 0.299392,-4.60747 1.085857,-6.79009 0.787291,-2.02567 1.71655,-4.04527 2.913534,-5.85857 2.310062,-2.70697 3.436866,-3.78538 7.216431,-5.4482 1.714664,-0.68509 3.525919,-1.10352 5.385194,-1.02018 2.406136,0.0148 4.815109,0.0475 7.21235,0.27628 3.304766,0.34545 6.586452,0.8757 9.816727,1.66401 0,0 -3.487031,2.40521 -3.487031,2.40521 z"
       inkscape:connector-curvature="0" />
    <path
       style="fill:#008000;fill-opacity:1;fill-rule:nonzero;stroke:none"
       id="path3086"
       d="m 108.94804,323.47732 c -0.0238,3.79744 -0.0125,7.59497 -0.0113,11.39245 -0.038,3.48564 0.11139,6.97566 -0.1212,10.45518 -0.27795,3.87574 -1.02218,7.69068 -1.46762,11.5466 -0.44551,4.47163 -0.50564,8.9686 -0.55334,13.45832 -0.0301,4.75297 -0.0192,9.50607 -0.0185,14.2591 0.005,5.54698 4.8e-4,11.09397 -0.001,16.64095 -0.009,6.74899 -0.007,13.49798 -0.004,20.24698 0.008,5.84334 0.006,11.68669 0.008,17.53004 7.8e-4,5.2481 0.004,10.4962 0.005,15.7443 0.009,4.63421 0.002,9.26842 0.001,13.90264 0.008,5.1841 0.51064,10.35313 0.76706,15.52963 0.096,5.2676 0.60275,10.51142 0.93521,15.76661 0.62296,5.62513 1.05193,11.26144 1.29451,16.91507 0.18769,4.8441 0.21209,9.69195 0.23011,14.53894 0.008,3.63999 0.002,7.28001 0.002,10.92002 0.002,3.1694 -0.002,6.3388 -0.006,9.50821 2.6e-4,3.5819 -0.004,7.1638 6.2e-4,10.7457 -4e-4,2.92859 0.005,5.85717 0.008,8.78575 0.15019,2.70726 -0.31734,5.37545 -0.63574,8.0525 -0.0439,0.43253 -0.0878,0.86507 -0.13171,1.29761 0,0 -3.79099,1.88395 -3.79099,1.88395 l 0,0 c 0.0434,-0.43505 0.0868,-0.8701 0.1302,-1.30515 0.31373,-2.66233 0.80544,-5.31392 0.65401,-8.00584 0.003,-2.93125 0.008,-5.8625 0.008,-8.79375 0.004,-3.58217 1.8e-4,-7.16434 8.9e-4,-10.74652 -0.003,-3.16885 -0.006,-6.33771 0.002,-9.50656 0.007,-3.64247 0.0138,-7.28493 0.0154,-10.9274 -0.004,-4.84597 -0.0278,-9.69294 -0.19841,-14.53643 -0.23391,-5.65078 -0.66167,-11.28448 -1.29446,-16.9054 -0.32824,-5.25709 -0.86102,-10.50055 -0.94025,-15.77051 -0.25112,-5.182 -0.76394,-10.35508 -0.7846,-15.54366 -9.1e-4,-4.63466 -0.008,-9.26933 0.001,-13.90398 0.001,-5.24975 0.004,-10.49949 0.005,-15.74924 0.003,-5.84617 4.3e-4,-11.69234 0.008,-17.53851 0.003,-6.74743 0.005,-13.49486 -0.005,-20.24229 -0.004,-5.54395 -0.0102,-11.08789 -0.0161,-16.63183 -0.007,-4.7536 -0.0189,-9.50728 0.0118,-14.26083 0.0428,-4.50068 0.095,-9.00789 0.52481,-13.49195 0.42256,-3.85264 1.17998,-7.65766 1.46632,-11.52639 0.25851,-3.46949 0.0813,-6.95184 0.13492,-10.42881 0.001,-3.79365 0.0126,-7.58736 -0.0113,-11.38097 0,0 3.7771,-1.92453 3.7771,-1.92453 z"
       inkscape:connector-curvature="0" />
    <path
       style="fill:#008000;fill-opacity:1;fill-rule:nonzero;stroke:none"
       id="path3088"
       d="m 96.450317,569.51844 c 0.922712,3.6531 2.312487,7.14062 3.588143,10.67618 0.93603,2.30771 1.69642,4.66995 2.83095,6.89145 0.9293,1.47008 2.35157,2.35737 4.07153,1.80361 1.2947,-0.50767 3.10488,-1.25139 -2.388,1.43208 -0.24403,0.11922 0.43159,-0.33061 0.63456,-0.51107 0.77746,-0.69121 1.3753,-1.49673 1.99751,-2.32403 1.53463,-2.16756 3.20975,-4.22622 4.97311,-6.21118 1.25879,-1.55742 2.40282,-3.20112 3.69616,-4.73431 0.61511,-0.6709 1.05669,-1.46758 1.52344,-2.24174 0,0 3.88241,-1.721 3.88241,-1.721 l 0,0 c -0.46938,0.78812 -0.88287,1.61741 -1.49294,2.31067 -1.34794,1.49357 -2.46372,3.16826 -3.70356,4.74604 -1.79589,1.94415 -3.45024,4.01586 -4.98476,6.17132 -1.9354,2.63956 -4.09888,4.78793 -7.52474,5.66116 -1.89614,0.26809 -3.37565,-0.67214 -4.370461,-2.27854 -1.145864,-2.23817 -1.897715,-4.623 -2.837143,-6.95048 -1.257366,-3.5378 -2.642795,-7.02344 -3.603765,-10.66032 0,0 3.707556,-2.05984 3.707556,-2.05984 z"
       inkscape:connector-curvature="0" />
    <path
       style="fill:#008000;fill-opacity:1;fill-rule:nonzero;stroke:none"
       id="path3090"
       d="m 410.2905,577.89833 c 0.0273,-3.83142 0.0149,-7.663 0.008,-11.49448 0.10988,-3.07855 0.7216,-6.08542 1.33823,-9.09109 0.6057,-2.85115 0.57226,-5.77431 0.88687,-8.65791 0.34499,-3.11387 0.81186,-6.20126 1.34253,-9.28811 0.44218,-2.68275 0.59553,-5.39866 0.67751,-8.11249 0.0537,-2.46731 0.0417,-4.9354 0.0419,-7.40311 -0.003,-2.54738 -0.009,-5.09475 -0.0115,-7.64212 0.15859,-2.75594 -0.29338,-5.47403 -0.63163,-8.19775 -0.37964,-2.56207 -0.25504,-5.16115 -0.5404,-7.72791 -0.46428,-2.7802 -0.70862,-5.57972 -0.84489,-8.39262 -0.13775,-3.23944 -0.64506,-6.44756 -0.89159,-9.68114 -0.29648,-3.59178 -0.15127,-7.20039 -0.41425,-10.79174 -0.26182,-3.59237 -0.75799,-7.14987 -1.30635,-10.70699 -0.5752,-3.49442 -1.17543,-6.9665 -1.44895,-10.50059 -0.34152,-4.09442 -0.16071,-8.21139 -0.46358,-12.30506 -0.26282,-3.30758 -0.7932,-6.57289 -1.30044,-9.84804 -0.46981,-2.97188 -0.61301,-5.97831 -0.6882,-8.9817 -0.0495,-3.05524 -0.041,-6.11097 -0.0401,-9.16648 -5.9e-4,-2.53496 0.003,-5.06992 0.006,-7.60487 6.1e-4,-2.38211 -9e-4,-4.76423 -0.002,-7.14634 -6.6e-4,-2.16268 -7.8e-4,-4.32535 -8.6e-4,-6.48803 -5e-5,-1.78218 -4e-5,-3.56435 -3e-5,-5.34653 0,0 3.77987,-1.92594 3.77987,-1.92594 l 0,0 c 1e-5,1.78218 3e-5,3.56436 1e-5,5.34653 -4e-5,2.16296 -9e-5,4.32591 -7.4e-4,6.48887 -8.5e-4,2.38313 -0.002,4.76626 -0.004,7.1494 -5.6e-4,2.53593 -0.002,5.07185 -0.0107,7.60777 -0.006,3.0524 -0.0153,6.10512 0.0343,9.15723 0.0725,2.98755 0.19849,5.97886 0.65718,8.93664 0.50577,3.28634 1.05301,6.56034 1.30982,9.87974 0.32276,4.09359 0.10344,8.21403 0.45259,12.30982 0.27997,3.52208 0.87429,6.98279 1.45018,10.46512 0.53984,3.56914 1.05427,7.13454 1.31575,10.73795 0.2848,3.58954 0.12518,7.19872 0.41673,10.79063 0.24479,3.23676 0.75607,6.44699 0.90485,9.68774 0.13052,2.80304 0.36832,5.59448 0.83915,8.36361 0.30486,2.56428 0.17321,5.16231 0.53863,7.7252 0.33249,2.7388 0.80703,5.47053 0.6603,8.24092 -3e-5,2.54841 -1.2e-4,5.09683 0.005,7.64523 0.006,2.47069 0.0195,4.94182 -0.0307,7.41214 -0.0798,2.73271 -0.23193,5.46687 -0.66021,8.17057 -0.5331,3.08073 -1.01874,6.15675 -1.35356,9.26643 -0.34225,2.89086 -0.27574,5.82586 -0.86703,8.69029 -0.61432,2.98464 -1.25115,5.96144 -1.38455,9.01849 -0.007,3.82872 -0.0192,7.65753 0.008,11.48619 0,0 -3.77711,1.92453 -3.77711,1.92453 z"
       inkscape:connector-curvature="0" />
    <path
       style="fill:#008000;fill-opacity:1;fill-rule:nonzero;stroke:none"
       id="path3092"
       d="m 392.68087,389.49433 c 2.15389,-3.21977 4.5843,-6.22634 7.01859,-9.23365 0.92192,-1.20886 1.94627,-2.3187 3.31737,-3.01975 3.65044,-1.86648 4.0208,-3.00732 6.98,-1.84548 2.23605,1.07257 3.51444,3.34759 5.34583,4.96419 1.01279,0.85562 2.19578,1.37395 3.40835,1.86494 0,0 -3.52193,2.35166 -3.52193,2.35166 l 0,0 c -1.23775,-0.53309 -2.44705,-1.09399 -3.48068,-1.98467 -1.78003,-1.5904 -3.04978,-3.82491 -5.26732,-4.82088 -2.72409,-0.8598 -2.66201,0.70008 0.48535,-2.04673 0.34387,-0.30011 -0.83301,0.38516 -1.20637,0.64766 -0.99659,0.70069 -1.40249,1.30914 -2.17985,2.2343 -2.43413,2.9908 -4.87267,5.97122 -7.02259,9.1786 0,0 -3.87675,1.70981 -3.87675,1.70981 z"
       inkscape:connector-curvature="0" />
    <path
       style="fill:#008000;fill-opacity:1;fill-rule:nonzero;stroke:none"
       id="path3094"
       d="m 452.60902,377.00707 c -0.0251,4.00311 -0.0152,8.00634 -0.0138,12.00951 0.004,3.35901 0.005,6.71801 0.008,10.07702 0.002,2.88708 9.5e-4,5.77416 0.001,8.66124 0.12254,3.07981 -0.28822,6.13856 -0.7653,9.17342 -0.56853,4.13575 -1.36577,8.23382 -1.88513,12.37627 -0.44054,3.96867 -0.51824,7.96446 -0.56518,11.95342 -0.0266,3.18134 -0.009,6.36282 -0.007,9.54423 -0.25698,3.14806 -0.66246,6.27824 -0.86367,9.43149 -0.19097,3.82768 -0.19868,7.66152 -0.20872,11.49303 0.0359,3.74765 -0.47882,7.4726 -0.76396,11.20448 -0.22012,3.00576 -0.26393,6.01973 -0.29183,9.03212 -0.0128,2.7544 -0.009,5.50886 -0.005,8.26328 0.004,2.36618 0.007,4.73235 0.008,7.09853 -0.004,2.44326 -0.002,4.88654 -7e-4,7.32981 -0.005,2.91775 -0.007,5.8355 -0.005,8.75325 0.29092,2.90474 0.66076,5.7971 0.87064,8.71017 0.0993,2.74821 0.65898,5.45018 0.97373,8.17801 0.25329,2.67207 0.27537,5.35783 0.29964,8.03947 0.0101,2.93736 0.006,5.87476 0.002,8.81213 0.24339,2.88907 0.63836,5.76103 0.86789,8.65183 0.22396,1.346 0.56153,2.66776 0.81899,4.00743 0,0 -3.74632,1.99824 -3.74632,1.99824 l 0,0 c -0.25433,-1.35692 -0.59247,-2.69457 -0.82976,-4.05471 -0.21799,-2.90315 -0.5997,-5.7872 -0.87655,-8.6845 0.001,-2.93541 0.0111,-5.87085 -0.005,-8.80624 -0.0196,-2.66757 -0.0415,-5.33924 -0.28376,-7.99792 -0.30316,-2.73618 -0.86491,-5.44412 -0.9749,-8.19765 -0.20041,-2.92354 -0.56342,-5.82573 -0.88249,-8.73744 0.002,-2.91595 -1e-5,-5.83189 -0.005,-8.74783 0.001,-2.44287 0.003,-4.88574 -0.001,-7.32861 1.9e-4,-2.36743 5.7e-4,-4.73487 -9e-5,-7.10231 -0.001,-2.75629 -0.009,-5.5126 0.007,-8.26886 0.0219,-3.02225 0.0683,-6.04622 0.28754,-9.06178 0.27915,-3.72523 0.81434,-7.44101 0.78559,-11.18128 0.015,-3.83683 0.0125,-7.6757 0.1869,-11.50944 0.18587,-3.14667 0.57621,-6.26959 0.87328,-9.40655 -0.008,-3.18462 -0.013,-6.3693 0.0129,-9.55386 0.0527,-4.00385 0.12669,-8.01437 0.55287,-11.9994 0.50726,-4.14674 1.3175,-8.24447 1.87183,-12.38497 0.47256,-3.01316 0.89731,-6.04971 0.78058,-9.10758 5.4e-4,-2.88758 -8.9e-4,-5.77517 0.001,-8.66276 0.002,-3.36157 0.004,-6.72314 0.008,-10.0847 0.001,-3.99849 0.0113,-7.99703 -0.0138,-11.99546 0,0 3.7771,-1.92453 3.7771,-1.92453 z"
       inkscape:connector-curvature="0" />
    <path
       style="fill:#008000;fill-opacity:1;fill-rule:nonzero;stroke:none"
       id="path3096"
       d="m 440.34462,561.98852 c 1.29597,1.76904 2.80278,3.99357 5.04375,4.65734 0.90926,0.26932 1.98955,0.0761 2.89503,-0.008 1.72526,-0.69592 0.98251,-0.34702 2.61349,-1.19869 0.40004,-0.2089 1.59154,-0.85172 1.19784,-0.6311 -5.26232,2.94891 -1.93171,0.89438 -0.76369,-0.009 1.69803,-1.25385 3.3905,-2.50478 5.02158,-3.84581 0.93517,-0.85137 2.02984,-1.49453 3.07554,-2.19648 0,0 3.94183,-1.54577 3.94183,-1.54577 l 0,0 c -1.0373,0.70959 -2.15457,1.30111 -3.08151,2.1584 -1.64363,1.33025 -3.29087,2.63881 -5.01961,3.85891 -3.17475,2.41171 -6.55294,4.7151 -10.38647,5.91609 -1.11317,0.0511 -1.94208,0.20068 -3.02447,-0.18384 -2.26842,-0.80585 -3.80869,-3.00488 -5.17528,-4.84123 0,0 3.66197,-2.13136 3.66197,-2.13136 z"
       inkscape:connector-curvature="0" />
  </g>
  <g
     inkscape:groupmode="layer"
     id="versionlayer"
     inkscape:label="Version">
    <text
       xml:space="preserve"
       style="-inkscape-font-specification:Courier New;font-family:Courier New;font-weight:normal;font-style:normal;font-stretch:normal;font-variant:normal;fill:#ff0000"
       x="10"
       y="10"
       id="versiontext">Journey_03_Aggregates_01.svg (v1)</text>
  </g>
</svg>
