<?xml version="1.0" encoding="UTF-8" standalone="no"?>
<!-- Created with Inkscape (http://www.inkscape.org/) -->

<svg
   xmlns:dc="http://purl.org/dc/elements/1.1/"
   xmlns:cc="http://creativecommons.org/ns#"
   xmlns:rdf="http://www.w3.org/1999/02/22-rdf-syntax-ns#"
   xmlns:svg="http://www.w3.org/2000/svg"
   xmlns="http://www.w3.org/2000/svg"
   xmlns:sodipodi="http://sodipodi.sourceforge.net/DTD/sodipodi-0.dtd"
   xmlns:inkscape="http://www.inkscape.org/namespaces/inkscape"
   width="1052.3622"
   height="744.09448"
   id="svg2"
   version="1.1"
   inkscape:version="0.48.2 r9819"
   sodipodi:docname="Journey_04_ViewRepository.svg"
   inkscape:export-filename="D:\CQRS Resources\Source Code\cqrs-journey-doc\images\Journey_04_ViewRepository.png"
   inkscape:export-xdpi="90"
   inkscape:export-ydpi="90">
  <title
     id="title3145">Read-side Query</title>
  <defs
     id="defs4" />
  <sodipodi:namedview
     id="base"
     pagecolor="#ffffff"
     bordercolor="#666666"
     borderopacity="1.0"
     inkscape:pageopacity="0.0"
     inkscape:pageshadow="2"
     inkscape:zoom="1.3291323"
     inkscape:cx="439.65848"
     inkscape:cy="372.04724"
     inkscape:document-units="px"
     inkscape:current-layer="layer2"
     showgrid="false"
     inkscape:window-width="1846"
     inkscape:window-height="1178"
     inkscape:window-x="1592"
     inkscape:window-y="-8"
     inkscape:window-maximized="1" />
  <metadata
     id="metadata7">
    <rdf:RDF>
      <cc:Work
         rdf:about="">
        <dc:format>image/svg+xml</dc:format>
        <dc:type
           rdf:resource="http://purl.org/dc/dcmitype/StillImage" />
        <dc:title>Read-side Query</dc:title>
      </cc:Work>
    </rdf:RDF>
  </metadata>
  <g
     inkscape:label="Templates"
     inkscape:groupmode="layer"
     id="layer1"
     transform="translate(0,-308.2677)"
     sodipodi:insensitive="true"
     style="display:none">
    <rect
       style="color:#000000;fill:none;stroke:#000000;stroke-width:3;stroke-linecap:butt;stroke-linejoin:miter;stroke-miterlimit:4;stroke-opacity:1;stroke-dasharray:none;stroke-dashoffset:0;marker:none;visibility:visible;display:inline;overflow:visible;enable-background:accumulate"
       id="rect2985"
       width="249.03465"
       height="361.89023"
       x="71.475204"
       y="131.66484"
       transform="translate(0,308.2677)" />
    <rect
       style="color:#000000;fill:none;stroke:#000000;stroke-width:3;stroke-linecap:butt;stroke-linejoin:miter;stroke-miterlimit:4;stroke-opacity:1;stroke-dasharray:none;stroke-dashoffset:0;marker:none;visibility:visible;display:inline;overflow:visible;enable-background:accumulate"
       id="rect2987"
       width="109.8461"
       height="372.42343"
       x="446.15573"
       y="438.4278" />
    <path
       sodipodi:type="arc"
       style="fill:none;stroke:#000000;stroke-width:2;stroke-miterlimit:4;stroke-opacity:1;stroke-dasharray:none;stroke-dashoffset:0"
       id="path2989"
       sodipodi:cx="829.86475"
       sodipodi:cy="304.71008"
       sodipodi:rx="109.8461"
       sodipodi:ry="56.427792"
       d="m 939.71085,304.71008 c 0,31.16421 -49.17978,56.42779 -109.8461,56.42779 -60.66633,0 -109.8461,-25.26358 -109.8461,-56.42779 0,-31.16421 49.17977,-56.42779 109.8461,-56.42779 60.66632,0 109.8461,25.26358 109.8461,56.42779 z"
       transform="translate(0,308.2677)" />
    <path
       sodipodi:type="arc"
       style="fill:none;stroke:#000000;stroke-width:2;stroke-miterlimit:4;stroke-opacity:1;stroke-dasharray:none;stroke-dashoffset:0"
       id="path2992"
       sodipodi:cx="195.99252"
       sodipodi:cy="157.62163"
       sodipodi:rx="125.2697"
       sodipodi:ry="27.461525"
       d="m 321.26222,157.62163 c 0,15.16658 -56.08515,27.46152 -125.2697,27.46152 -69.18454,0 -125.269696,-12.29494 -125.269696,-27.46152 0,-15.16658 56.085156,-27.46153 125.269696,-27.46153 69.18455,0 125.2697,12.29495 125.2697,27.46153 z"
       transform="translate(0,308.2677)" />
    <path
       transform="translate(-1.1285483,617.11582)"
       sodipodi:type="arc"
       style="fill:none;stroke:#000000;stroke-width:2;stroke-miterlimit:4;stroke-opacity:1;stroke-dasharray:none;stroke-dashoffset:0"
       id="path2992-1"
       sodipodi:cx="195.99252"
       sodipodi:cy="157.62163"
       sodipodi:rx="125.2697"
       sodipodi:ry="27.461525"
       d="m 321.26222,157.62163 c 0,15.16658 -56.08515,27.46152 -125.2697,27.46152 -69.18454,0 -125.269696,-12.29494 -125.269696,-27.46152 0,-15.16658 56.085156,-27.46153 125.269696,-27.46153 69.18455,0 125.2697,12.29495 125.2697,27.46153 z" />
    <rect
       style="color:#000000;fill:none;stroke:#000000;stroke-width:3;stroke-linecap:butt;stroke-linejoin:miter;stroke-miterlimit:4;stroke-opacity:1;stroke-dasharray:none;stroke-dashoffset:0;marker:none;visibility:visible;display:inline;overflow:visible;enable-background:accumulate"
       id="rect3012"
       width="64.703865"
       height="53.418308"
       x="100.81766"
       y="240.00621"
       transform="translate(0,308.2677)" />
    <rect
       style="color:#000000;fill:none;stroke:#000000;stroke-width:3;stroke-linecap:butt;stroke-linejoin:miter;stroke-miterlimit:4;stroke-opacity:1;stroke-dasharray:none;stroke-dashoffset:0;marker:none;visibility:visible;display:inline;overflow:visible;enable-background:accumulate"
       id="rect3012-7"
       width="64.703865"
       height="53.418308"
       x="197.87346"
       y="599.0589" />
    <rect
       style="color:#000000;fill:none;stroke:#000000;stroke-width:3;stroke-linecap:butt;stroke-linejoin:miter;stroke-miterlimit:4;stroke-opacity:1;stroke-dasharray:none;stroke-dashoffset:0;marker:none;visibility:visible;display:inline;overflow:visible;enable-background:accumulate"
       id="rect3012-4"
       width="64.703865"
       height="53.418308"
       x="117.36981"
       y="671.2865" />
  </g>
  <g
     inkscape:groupmode="layer"
     id="layer2"
     inkscape:label="Drawing">
    <path
       style="fill:#000000;fill-opacity:1;fill-rule:nonzero;stroke:none"
       d="M 245.40625 131.53125 C 243.31005 131.52995 241.22113 131.542 239.125 131.5625 C 236.93852 131.58954 234.74088 131.63865 232.5625 131.84375 C 230.76929 132.04504 229.00102 132.3885 227.1875 132.28125 C 225.30216 132.28219 223.41659 132.31162 221.53125 132.3125 C 219.63215 132.31246 217.74286 132.3115 215.84375 132.3125 C 213.59663 132.31506 211.34087 132.3155 209.09375 132.3125 C 207.03853 132.3125 204.99272 132.28207 202.9375 132.28125 C 201.23768 132.28101 199.51232 132.27925 197.8125 132.28125 C 195.69848 132.28298 193.61402 132.3145 191.5 132.3125 C 189.50558 132.3145 187.49442 132.28225 185.5 132.28125 C 183.91996 132.27931 182.33004 132.28068 180.75 132.28125 C 178.80731 132.28225 176.88019 132.3127 174.9375 132.3125 C 172.83953 132.3105 170.72296 132.28525 168.625 132.28125 L 163.53125 132.28125 C 161.85895 132.28185 160.20299 132.29465 158.53125 132.34375 C 156.77345 132.40821 155.01966 132.53177 153.28125 132.8125 C 151.19626 133.08526 149.10068 133.07645 147 133.09375 C 145.14335 133.16139 143.29804 133.31724 141.46875 133.65625 C 139.8264 133.9549 138.16668 134.16166 136.53125 134.5 C 134.74906 134.82077 132.89807 134.81035 131.15625 135.375 C 129.15325 135.93787 127.17064 136.43269 125.09375 136.65625 C 122.78339 137.13362 120.51633 137.85072 118.1875 138.25 C 116.20523 138.78787 114.30968 139.53623 112.375 140.21875 C 110.76108 140.87356 109.03583 141.24203 107.4375 141.9375 C 105.76162 142.66953 104.068 143.27362 102.3125 143.78125 C 100.51659 144.4799 98.715931 145.18017 96.90625 145.84375 C 94.99564 146.45691 93.106416 147.17107 91.15625 147.65625 C 89.575359 148.2748 87.966438 148.84003 86.46875 149.65625 C 84.359505 150.46008 82.341114 151.42417 80.28125 152.34375 C 77.753597 153.60241 75.124491 154.71527 72.59375 155.96875 L 70.28125 157.8125 C 72.815533 156.54633 75.423854 155.43006 77.96875 154.1875 C 80.012163 153.25031 82.064467 152.29518 84.15625 151.46875 C 85.677317 150.70982 87.22532 150.1011 88.8125 149.5 C 90.745074 148.95956 92.656686 148.28318 94.5625 147.65625 C 96.376955 147.00351 98.17433 146.33029 99.96875 145.625 C 101.71592 145.08697 103.43785 144.48928 105.125 143.78125 C 106.71465 143.07515 108.40852 142.64976 110.03125 142.03125 C 111.96096 141.3367 113.86917 140.62175 115.84375 140.0625 C 118.16262 139.62526 120.41507 138.96907 122.71875 138.46875 C 124.78462 138.1973 126.81115 137.7582 128.8125 137.1875 C 130.54734 136.63086 132.37089 136.55192 134.15625 136.28125 C 135.7934 135.94441 137.45079 135.74137 139.09375 135.4375 C 140.91342 135.08905 142.74551 134.92585 144.59375 134.84375 C 146.6965 134.79675 148.8154 134.84398 150.90625 134.59375 C 152.64023 134.32683 154.37324 134.16775 156.125 134.09375 C 157.79301 134.0382 159.45627 134.03194 161.125 134.03125 C 162.82726 134.0323 164.54774 134.03195 166.25 134.03125 C 168.34974 134.02957 170.43151 134.03325 172.53125 134.03125 C 174.47093 134.03125 176.40407 134.03025 178.34375 134.03125 C 179.92376 134.0318 181.51374 134.03325 183.09375 134.03125 C 185.09032 134.03025 187.09717 134.03025 189.09375 134.03125 C 191.20682 134.02925 193.32443 134.02925 195.4375 134.03125 C 197.13663 134.03401 198.83212 134.03181 200.53125 134.03125 C 202.58904 134.03025 204.6297 134.03125 206.6875 134.03125 C 208.93312 134.02925 211.19188 134.02925 213.4375 134.03125 C 215.33662 134.03224 217.22588 134.03128 219.125 134.03125 C 221.00948 134.03213 222.89677 134.03031 224.78125 134.03125 C 226.60129 134.13981 228.38906 133.80951 230.1875 133.59375 C 232.35987 133.3664 234.53656 133.3451 236.71875 133.3125 C 238.81368 133.2921 240.93624 133.27925 243.03125 133.28125 C 244.97759 133.28525 246.8974 133.27925 248.84375 133.28125 C 250.81893 133.24764 252.78673 133.27566 254.75 133.5 C 256.93475 133.70623 259.0756 134.15383 261.25 134.4375 C 263.37093 134.62631 265.51228 134.85348 267.59375 135.3125 C 269.55511 135.86708 271.59173 135.9684 273.59375 136.28125 C 275.24017 136.49493 276.78946 137.05621 278.40625 137.40625 C 280.16693 137.59475 281.90864 137.9735 283.65625 138.25 C 285.40369 138.64518 287.15559 138.96656 288.9375 139.15625 C 290.48252 139.45788 292.02664 139.77603 293.59375 139.9375 C 295.40076 140.17656 297.11696 140.7566 298.84375 141.3125 C 300.82446 141.9307 302.7447 142.69836 304.65625 143.5 C 306.2891 143.99996 307.75839 144.8875 309.25 145.6875 C 310.75271 146.56278 312.01667 147.75794 313.1875 149.03125 C 314.39753 150.47497 315.58158 151.93896 316.59375 153.53125 C 317.46538 154.55888 317.95165 155.82084 318.5 157.03125 C 319.00507 158.24262 319.09205 159.54956 319.15625 160.84375 C 319.18914 161.25178 319.21353 161.66624 319.21875 162.0625 L 318.53125 162.40625 C 318.64313 163.29792 318.73831 164.19874 318.8125 165.09375 C 318.7307 165.35261 318.6438 165.61709 318.53125 165.875 C 318.65999 166.13448 317.23352 167.1537 316.84375 167.46875 C 316.74621 167.5229 316.79057 167.5053 316.6875 167.5625 C 315.10431 168.40501 313.38416 168.90287 311.71875 169.5625 C 309.9768 170.25619 308.11096 170.46823 306.28125 170.8125 C 304.15405 171.44741 301.92967 171.69077 299.75 172.0625 C 297.93809 172.67111 296.10487 173.0868 294.25 173.53125 C 292.5904 174.0195 290.9242 174.52803 289.25 174.96875 C 287.15771 175.38835 285.17444 176.15005 283.125 176.71875 C 280.92471 177.3988 278.65455 177.81664 276.4375 178.4375 C 274.24162 179.15309 272.03509 179.77164 269.75 180.125 C 267.52994 180.39451 265.32067 180.78256 263.09375 181 C 261.0258 181.14345 258.99935 181.53807 256.9375 181.75 C 254.74495 181.92984 252.54232 181.95125 250.34375 181.96875 C 248.23402 181.97778 246.14099 181.97275 244.03125 181.96875 C 241.80125 181.93456 239.56331 181.93059 237.34375 182.15625 C 235.18987 182.42835 233.04361 182.57825 230.875 182.65625 C 228.91215 182.69616 226.95365 183.07192 225 183.25 C 222.61517 183.4064 220.25198 183.39459 217.875 183.65625 C 215.48677 183.90705 213.12507 184.39139 210.78125 184.90625 C 208.36777 185.47011 205.87373 185.56715 203.40625 185.65625 C 201.26016 185.83232 199.14729 186.17944 197 186.34375 C 195.25661 186.45729 193.49641 186.45975 191.75 186.46875 C 190.11941 186.47133 188.47434 186.46775 186.84375 186.46875 C 184.9008 186.56944 183.016 186.40832 181.09375 186.15625 C 179.02019 185.86452 176.90281 185.7963 174.8125 185.75 C 172.53238 185.83642 170.29165 185.51591 168.03125 185.28125 C 165.90039 185.07476 163.78918 184.64038 161.65625 184.4375 C 159.36438 184.34576 157.09064 184.13418 154.8125 183.875 C 152.28261 183.4111 149.75151 183.07237 147.1875 182.875 C 145.21818 182.87086 143.28536 182.52927 141.34375 182.25 C 139.34453 182.11228 137.36088 181.89493 135.375 181.625 C 133.42542 181.34398 131.46669 181.26565 129.5 181.21875 C 127.29437 181.08472 125.14047 180.51963 122.96875 180.15625 C 120.88702 179.92846 118.8192 179.70456 116.75 179.375 C 114.95196 179.10543 113.17707 178.68748 111.375 178.4375 C 109.70815 178.28039 108.08815 177.8787 106.46875 177.46875 C 104.52541 177.07569 102.57397 176.86245 100.65625 176.34375 C 98.888186 175.78526 97.055218 175.4968 95.25 175.09375 C 93.558072 174.76369 91.839324 174.57202 90.1875 174.0625 C 88.615503 173.62008 87.110655 173.01034 85.53125 172.59375 C 84.342124 172.20805 83.194235 171.78214 82.09375 171.1875 C 81.01588 170.56144 79.877747 169.99541 78.875 169.25 C 77.767837 168.44512 76.594725 167.73876 75.53125 166.875 C 74.568037 166.00878 73.566428 165.17247 72.6875 164.21875 C 71.588357 163.17778 71.054792 161.88789 70.75 160.4375 C 70.619784 159.70772 70.59978 158.9573 70.5625 158.21875 L 67.90625 159.59375 C 67.948623 160.34678 67.983948 161.10082 68.125 161.84375 C 68.380255 162.99991 68.77788 164.07012 69.46875 165 L 68.65625 165.40625 C 68.787408 168.63698 68.548272 171.87442 68.3125 175.09375 C 68.101434 177.86615 68.00056 180.62694 67.9375 183.40625 C 67.846871 185.58713 67.997894 187.79561 67.78125 189.96875 C 67.527559 191.75276 67.3304 193.51388 67.21875 195.3125 C 67.13811 196.87554 67.124818 198.46656 67.125 200.03125 C 67.1258 202.01967 67.15305 203.98034 67.15625 205.96875 C 67.19446 209.03141 67.076518 212.09751 67.25 215.15625 C 67.401469 218.34175 67.757929 221.5262 68.15625 224.6875 C 68.517977 227.54441 68.60797 230.4057 68.65625 233.28125 C 68.940035 237.05325 69.147935 240.84455 69.28125 244.625 C 69.528992 247.69284 69.862756 250.73875 70.03125 253.8125 C 70.160126 256.60719 70.14785 259.42171 70.15625 262.21875 C 70.047652 265.47113 70.239972 268.69843 70.5 271.9375 C 70.738776 274.81806 70.82663 277.70472 70.875 280.59375 C 70.91087 283.72565 70.937368 286.86794 70.9375 290 C 70.9341 293.22681 70.90735 296.42944 70.90625 299.65625 C 70.955337 303.2335 70.931213 306.80406 70.71875 310.375 C 70.564231 314.61144 70.057931 318.83663 69.75 323.0625 C 69.5077 326.67129 69.43838 330.29059 69.40625 333.90625 C 69.220067 337.37187 68.950029 340.83276 68.5625 344.28125 C 68.209717 347.31956 68.03272 350.35011 67.9375 353.40625 C 67.996969 356.06875 67.788675 358.7262 67.5625 361.375 C 67.314817 364.24384 67.24027 367.12224 67.1875 370 C 67.261763 372.42196 67.049065 374.81529 66.78125 377.21875 C 66.510352 379.54765 66.44972 381.8766 66.40625 384.21875 C 66.3702 386.49098 66.3727 388.79007 66.375 391.0625 C 66.400665 393.14306 66.428717 395.18553 66.15625 397.25 C 65.855577 399.65107 65.75536 402.08313 65.6875 404.5 C 65.748051 406.76502 65.552697 409.0058 65.28125 411.25 C 64.984956 413.73576 64.94403 416.21885 64.90625 418.71875 C 64.87825 421.7832 64.906001 424.87295 64.90625 427.9375 C 64.907997 430.74404 64.90475 433.53721 64.90625 436.34375 C 64.877766 438.9033 65.235875 441.45204 65.4375 444 C 65.442233 446.07911 65.822514 448.10318 66.09375 450.15625 C 66.375606 452.15862 66.666719 454.1657 67.03125 456.15625 C 67.548156 458.42096 68.354514 460.62021 68.90625 462.875 C 69.153111 464.23126 69.446274 465.57974 69.6875 466.9375 L 72.3125 465.53125 C 72.066436 464.16815 71.754899 462.82986 71.5 461.46875 C 70.935492 459.22422 70.1534 457.04427 69.65625 454.78125 C 69.302074 452.79187 68.992571 450.78201 68.71875 448.78125 C 68.440858 446.73533 68.07285 444.69751 68.0625 442.625 C 67.856079 440.08592 67.49132 437.55229 67.53125 435 C 67.53115 432.1941 67.53305 429.39965 67.53125 426.59375 C 67.52938 423.53033 67.49074 420.46949 67.53125 417.40625 C 67.574665 414.91252 67.634519 412.41622 67.9375 409.9375 C 68.205745 407.6869 68.36337 405.4262 68.3125 403.15625 C 68.382699 400.74588 68.528056 398.33023 68.84375 395.9375 C 69.100891 393.86264 69.05411 391.80719 69.03125 389.71875 C 69.03165 387.44826 69.02976 385.17657 69.0625 382.90625 C 69.110269 380.57122 69.162887 378.2278 69.4375 375.90625 C 69.699249 373.49547 69.88311 371.08418 69.8125 368.65625 C 69.859857 365.78517 69.936342 362.9242 70.1875 360.0625 C 70.420359 357.40807 70.64522 354.76203 70.59375 352.09375 C 70.687885 349.0475 70.829107 345.99682 71.1875 342.96875 C 71.573492 339.51124 71.852142 336.03725 72.03125 332.5625 C 72.063892 328.95489 72.132487 325.35069 72.375 321.75 C 72.685953 317.52371 73.147172 313.29892 73.3125 309.0625 C 73.528599 305.48351 73.5784 301.92927 73.53125 298.34375 C 73.531733 295.11796 73.531288 291.88204 73.53125 288.65625 C 73.53306 285.52053 73.53844 282.38557 73.5 279.25 C 73.450049 276.35625 73.366666 273.44749 73.125 270.5625 C 72.864372 267.331 72.677379 264.11957 72.78125 260.875 C 72.777235 258.07128 72.802534 255.26965 72.65625 252.46875 C 72.48125 249.40039 72.148778 246.34453 71.90625 243.28125 C 71.765554 239.5016 71.513901 235.71033 71.25 231.9375 C 71.208939 229.05016 71.155407 226.17996 70.78125 223.3125 C 70.37341 220.16042 70.021746 216.9902 69.875 213.8125 C 69.7134 210.75456 69.80127 207.6863 69.78125 204.625 C 69.78195 202.63494 69.77935 200.64631 69.78125 198.65625 C 69.78826 197.09673 69.78933 195.55769 69.875 194 C 69.990832 192.2054 70.198567 190.40706 70.4375 188.625 C 70.612819 186.44352 70.48416 184.24903 70.5625 182.0625 C 70.617865 179.29196 70.730502 176.54499 70.9375 173.78125 C 71.102269 171.5036 71.266602 169.21794 71.3125 166.9375 C 71.865424 167.45448 72.43685 167.95631 73 168.46875 C 74.05667 169.34757 75.231559 170.03903 76.34375 170.84375 C 77.345291 171.61515 78.507026 172.17455 79.59375 172.8125 C 80.705596 173.44015 81.855948 173.86961 83.0625 174.28125 C 84.645959 174.67312 86.180466 175.31084 87.75 175.75 C 89.40175 176.29588 91.106942 176.47262 92.8125 176.78125 C 94.615052 177.18299 96.450315 177.45408 98.21875 178 C 100.13263 178.54695 102.08038 178.7882 104.03125 179.15625 C 105.65703 179.56952 107.29403 180.00348 108.96875 180.15625 C 110.77361 180.38952 112.51698 180.81337 114.3125 181.09375 C 116.38458 181.41898 118.47426 181.65069 120.5625 181.84375 C 122.74578 182.19512 124.88375 182.79296 127.09375 182.96875 C 129.05383 183.01141 131.02445 183.07242 132.96875 183.34375 C 134.95262 183.61079 136.90618 183.86168 138.90625 183.96875 C 140.85815 184.23877 142.80125 184.61135 144.78125 184.59375 C 147.34283 184.7775 149.88425 185.10126 152.40625 185.59375 C 154.6857 185.85193 156.95466 186.09315 159.25 186.15625 C 161.38385 186.34902 163.4968 186.78172 165.625 187 C 167.8913 187.22915 170.15171 187.56005 172.4375 187.46875 C 174.51908 187.51007 176.59024 187.56344 178.65625 187.84375 C 180.587 188.09794 182.51503 188.3366 184.46875 188.21875 C 186.09774 188.22285 187.71476 188.22275 189.34375 188.21875 C 191.0959 188.21121 192.84412 188.19763 194.59375 188.09375 C 196.74534 187.9458 198.8855 187.61515 201.03125 187.40625 C 203.50526 187.32742 205.98298 187.23394 208.40625 186.6875 C 210.7445 186.16902 213.11716 185.69345 215.5 185.4375 C 217.87438 185.16437 220.23928 185.11982 222.625 185 C 224.57827 184.83288 226.51169 184.47925 228.46875 184.40625 C 230.64291 184.3339 232.81002 184.21683 234.96875 183.9375 C 237.17976 183.69769 239.40146 183.6382 241.625 183.6875 C 243.73722 183.6875 245.82529 183.6955 247.9375 183.6875 C 250.13972 183.67602 252.36482 183.65576 254.5625 183.5 C 256.627 183.29741 258.65171 182.90481 260.71875 182.75 C 262.95112 182.54081 265.15125 182.17734 267.375 181.90625 C 269.67114 181.5793 271.89805 180.98877 274.09375 180.25 C 276.30532 179.61068 278.58209 179.21021 280.78125 178.53125 C 282.83853 177.99547 284.80804 177.17546 286.90625 176.78125 C 288.57349 176.32196 290.23196 175.88462 291.875 175.34375 C 293.72075 174.86801 295.61907 174.5401 297.40625 173.84375 C 299.58009 173.45244 301.7893 173.26596 303.90625 172.59375 C 305.74392 172.25494 307.61298 172.05538 309.375 171.40625 C 311.04835 170.75209 312.76181 170.22223 314.375 169.4375 C 315.86653 168.59343 317.52239 167.8873 318.9375 166.90625 C 319.01571 168.17116 319.07885 169.42116 319.125 170.6875 C 319.08385 173.30225 319.41473 175.90232 319.65625 178.5 C 319.93988 180.75723 320.43474 182.96531 320.90625 185.1875 C 321.30033 186.99569 321.3856 188.84428 321.4375 190.6875 C 321.4752 192.79795 321.47375 194.92056 321.46875 197.03125 C 321.46575 199.34473 321.4365 201.65527 321.4375 203.96875 C 321.4335 206.74093 321.46775 209.50907 321.46875 212.28125 C 321.46875 215.05679 321.4415 217.81821 321.4375 220.59375 C 321.4323 223.23584 321.46575 225.88916 321.46875 228.53125 C 321.3432 231.54239 321.65047 234.53692 321.90625 237.53125 C 322.10225 239.79706 322.1567 242.0708 322.1875 244.34375 C 322.21604 247.51331 322.21375 250.67411 322.21875 253.84375 C 322.21885 257.48369 322.22475 261.14132 322.21875 264.78125 C 322.26276 268.12924 322.21211 271.47113 322 274.8125 C 321.82008 278.92526 321.48677 283.02237 321.15625 287.125 C 320.86643 290.69081 320.76955 294.26782 320.71875 297.84375 C 320.68055 301.09612 320.6855 304.34124 320.6875 307.59375 C 320.68683 310.49352 320.68776 313.38148 320.6875 316.28125 C 320.6865 319.155 320.71375 322.03251 320.71875 324.90625 C 320.45916 328.64079 320.32085 332.39531 320 336.125 C 319.61323 339.64112 319.38651 343.15277 319.28125 346.6875 C 319.24247 350.38043 318.85518 354.05337 318.4375 357.71875 C 318.02932 361.2733 317.46521 364.8057 317.1875 368.375 C 317.06727 371.54722 316.86262 374.71218 316.59375 377.875 C 316.11503 381.78032 315.53256 385.67636 315.15625 389.59375 C 314.83123 393.09405 314.7321 396.61172 314.6875 400.125 C 314.62935 402.95446 314.76873 405.76844 314.59375 408.59375 C 314.34003 411.1815 314.10292 413.77666 314 416.375 C 313.9313 418.64965 313.90925 420.94319 313.90625 423.21875 C 313.95825 425.01174 313.819 426.8101 314.03125 428.59375 C 314.29761 430.67465 314.7646 432.70504 315.0625 434.78125 C 315.31781 436.70034 315.37125 438.66021 315.40625 440.59375 C 315.43155 442.88118 315.4415 445.14996 315.4375 447.4375 C 315.4306 449.53402 315.4405 451.62222 315.4375 453.71875 C 315.4385 455.58934 315.4395 457.47317 315.4375 459.34375 C 315.43595 460.8997 315.43767 462.44404 315.4375 464 C 315.4375 465.11478 315.43745 466.22896 315.4375 467.34375 L 318.0625 466 C 318.0625 464.88441 318.06207 463.77183 318.0625 462.65625 C 318.0625 461.10088 318.0635 459.55536 318.0625 458 C 318.06069 456.13021 318.0595 454.24479 318.0625 452.375 C 318.06151 450.28049 318.0635 448.18827 318.0625 446.09375 C 318.0645 443.80159 318.0819 441.51088 318.0625 439.21875 C 318.01997 437.27591 317.95113 435.33365 317.6875 433.40625 C 317.38615 431.33266 316.90648 429.30022 316.65625 427.21875 C 316.46925 425.44448 316.6116 423.65647 316.5625 421.875 C 316.5678 419.60449 316.57645 417.33193 316.65625 415.0625 C 316.76627 412.46788 316.97809 409.86678 317.21875 407.28125 C 317.38445 404.45146 317.2581 401.61474 317.3125 398.78125 C 317.35413 395.27928 317.42563 391.77048 317.75 388.28125 C 318.13415 384.35911 318.74249 380.47363 319.21875 376.5625 C 319.48745 373.40047 319.69059 370.2338 319.8125 367.0625 C 320.09608 363.49876 320.66446 359.98844 321.0625 356.4375 C 321.48518 352.76464 321.86275 349.07544 321.90625 345.375 C 322.0218 341.84615 322.247 338.32386 322.625 334.8125 C 322.93761 331.07354 323.06148 327.33735 323.3125 323.59375 C 323.31765 320.71767 323.34675 317.81359 323.34375 314.9375 C 323.34185 312.03993 323.3185 309.14756 323.3125 306.25 C 323.3103 302.99882 323.31355 299.75107 323.34375 296.5 C 323.39553 292.93222 323.49439 289.37035 323.78125 285.8125 C 324.10903 281.7078 324.43478 277.61397 324.625 273.5 C 324.83787 270.15102 324.89655 266.79331 324.84375 263.4375 C 324.83875 259.80016 324.8085 256.1686 324.8125 252.53125 C 324.8205 249.35499 324.8298 246.17624 324.8125 243 C 324.78377 240.72139 324.73538 238.42696 324.53125 236.15625 C 324.26948 233.17154 323.93111 230.18989 324.0625 227.1875 C 324.0645 224.543 324.09875 221.8945 324.09375 219.25 C 324.09075 216.47662 324.06295 213.71088 324.0625 210.9375 C 324.0635 208.16363 324.09575 205.39887 324.09375 202.625 C 324.09685 200.30984 324.08775 198.00265 324.09375 195.6875 C 324.09505 193.57388 324.0986 191.45717 324.0625 189.34375 C 324.0098 187.48377 323.93932 185.60353 323.53125 183.78125 C 323.0534 181.57251 322.55765 179.37118 322.28125 177.125 C 322.03168 174.53398 321.714 171.9523 321.75 169.34375 C 321.6774 167.56308 321.5727 165.77682 321.4375 164 C 321.8884 162.53317 321.92849 161.02871 321.8125 159.46875 C 321.74059 158.13811 321.62163 156.80446 321.09375 155.5625 C 320.53721 154.3412 320.07241 153.06537 319.1875 152.03125 C 318.16367 150.42519 316.93348 148.96297 315.71875 147.5 C 314.53785 146.19343 313.23744 144.97093 311.71875 144.0625 C 310.21286 143.27421 308.77499 142.32573 307.125 141.84375 C 305.20355 141.04668 303.26854 140.27967 301.28125 139.65625 C 299.54054 139.09819 297.8154 138.46092 296 138.1875 C 294.43061 138.04155 292.88259 137.77733 291.34375 137.4375 C 289.56353 137.26529 287.83153 136.95718 286.09375 136.53125 C 284.34764 136.26797 282.6044 135.87941 280.84375 135.71875 C 279.21596 135.38597 277.68298 134.78212 276.03125 134.5625 C 274.03826 134.22278 271.98705 134.1909 270.03125 133.625 C 267.94842 133.13548 265.8166 132.89918 263.6875 132.71875 C 261.51119 132.44547 259.37218 131.98859 257.1875 131.78125 C 255.21861 131.54162 253.23364 131.48245 251.25 131.53125 C 249.30197 131.53125 247.35427 131.53188 245.40625 131.53125 z M 72.53125 466.21875 L 70 467.78125 C 71.917055 469.77009 74.005512 471.5669 76.0625 473.40625 C 77.644004 474.85736 79.449887 476.00735 81.375 476.9375 C 83.064679 477.59562 84.702982 478.32146 86.34375 479.09375 C 88.83466 480.04767 91.317358 481.07911 93.84375 481.9375 C 95.911781 482.79638 97.921713 483.7459 99.9375 484.71875 C 101.70786 485.66165 103.47998 486.5567 105.3125 487.375 C 107.28244 488.00225 109.25304 488.68155 111.25 489.21875 C 113.53262 489.87203 115.84456 490.37099 118.15625 490.90625 C 121.32023 491.64789 124.59555 491.84677 127.8125 492.25 C 130.70362 492.61686 133.56522 493.137 136.46875 493.40625 C 139.12631 493.50021 141.76364 493.85172 144.40625 494.125 C 146.54305 494.34216 148.64407 494.74064 150.78125 494.96875 C 152.77737 495.16469 154.77745 495.1698 156.78125 495.1875 C 158.6737 495.1999 160.57629 495.1905 162.46875 495.1875 C 164.62342 495.18394 166.78283 495.1885 168.9375 495.1875 C 171.27067 495.18586 173.60433 495.1865 175.9375 495.1875 C 178.4542 495.1875 180.95205 495.1895 183.46875 495.1875 C 186.11504 495.1865 188.75996 495.18697 191.40625 495.1875 C 193.55617 495.19097 195.72508 495.1895 197.875 495.1875 C 200.64365 495.1815 203.41885 495.18655 206.1875 495.1875 C 208.67739 495.1536 211.17048 495.25717 213.65625 495.09375 C 215.98067 494.83221 218.28877 494.64554 220.625 494.53125 C 222.50273 494.30922 224.36956 494.0204 226.21875 493.625 C 228.04949 493.24179 229.91418 493.1305 231.75 492.78125 C 233.45556 492.50834 235.17267 492.16753 236.875 491.875 C 239.24189 491.61723 241.60368 491.3759 243.96875 491.09375 C 246.43105 490.62658 248.90708 490.25349 251.40625 490.0625 C 253.98067 490.03518 256.50819 489.74058 259.03125 489.25 C 261.05585 488.6152 263.08285 488.14238 265.1875 487.875 C 266.92125 487.73326 268.61716 487.32817 270.34375 487.125 C 272.22551 486.97202 274.10394 486.59878 275.9375 486.15625 C 277.82592 485.69031 279.77268 485.66394 281.65625 485.1875 C 283.54038 484.63327 285.42119 484.09022 287.34375 483.6875 C 289.42586 483.13829 291.51922 482.6083 293.59375 482.03125 C 295.42757 481.37451 297.25073 480.70243 299 479.84375 C 300.85813 479.08369 302.72487 478.38893 304.59375 477.65625 C 306.18261 477.04276 307.83114 476.50135 309.4375 475.9375 C 311.04352 475.33607 312.62801 474.74646 314.1875 474.03125 C 316.17215 472.99167 318.39861 472.16 320.03125 470.59375 L 318.25 471.3125 C 318.18264 471.35053 318.13377 471.36602 318.0625 471.40625 L 317.28125 471.71875 C 317.1204 471.85311 317.0409 471.9447 316.9375 472.03125 C 316.22226 472.42616 315.71874 472.70638 316.53125 472.1875 C 314.99617 472.94288 313.37172 473.49891 311.78125 474.125 C 310.18238 474.71776 308.52827 475.19464 306.9375 475.8125 C 305.07561 476.56464 303.1827 477.26796 301.3125 478 C 299.56577 478.86539 297.76758 479.54514 295.9375 480.21875 C 293.87308 480.81826 291.78568 481.31251 289.71875 481.90625 C 287.79108 482.29219 285.88258 482.80951 284 483.375 C 282.12662 483.904 280.17639 483.93434 278.28125 484.375 C 276.45669 484.82542 274.62603 485.19807 272.75 485.34375 C 271.01633 485.52278 269.32879 485.94267 267.59375 486.09375 C 265.48053 486.34275 263.39074 486.77439 261.375 487.46875 C 258.85874 487.96537 256.35429 488.3165 253.78125 488.3125 C 251.27884 488.49158 248.80281 488.83942 246.34375 489.34375 C 243.97918 489.62427 241.62053 489.87483 239.25 490.09375 C 237.54488 490.36869 235.83417 490.71761 234.125 490.96875 C 232.28817 491.33322 230.43454 491.46586 228.59375 491.8125 C 226.75054 492.21573 224.90059 492.49174 223.03125 492.75 C 220.69167 492.86068 218.35703 493.06272 216.03125 493.34375 C 213.55085 493.54135 211.04894 493.3947 208.5625 493.4375 C 205.79561 493.4385 203.01689 493.4435 200.25 493.4375 C 198.09965 493.43598 195.96285 493.4345 193.8125 493.4375 C 191.16354 493.4385 188.52396 493.43838 185.875 493.4375 C 183.36173 493.4355 180.82578 493.43724 178.3125 493.4375 C 175.97982 493.43815 173.64519 493.4385 171.3125 493.4375 C 169.15853 493.4365 167.02897 493.43675 164.875 493.4375 C 162.98347 493.43944 161.07902 493.4415 159.1875 493.4375 C 157.18914 493.42463 155.17941 493.4291 153.1875 493.25 C 151.04588 493.03515 148.95019 492.63109 146.8125 492.40625 C 144.16552 492.14329 141.53687 491.79645 138.875 491.71875 C 135.96956 491.46206 133.07824 490.93404 130.1875 490.5625 C 126.97984 490.1622 123.75077 489.9752 120.59375 489.25 C 118.29025 488.70313 115.96381 488.21877 113.6875 487.5625 C 111.6978 487.0475 109.78087 486.34046 107.8125 485.75 C 105.97566 484.94702 104.19829 484.01866 102.4375 483.0625 C 100.41214 482.07698 98.350698 481.17223 96.28125 480.28125 C 93.761375 479.43997 91.297113 478.40673 88.8125 477.46875 C 87.178271 476.68669 85.538635 475.9203 83.84375 475.28125 C 81.926769 474.38466 80.167523 473.27068 78.59375 471.84375 C 76.540635 470.01215 74.415409 468.22909 72.53125 466.21875 z "
       id="path3039" />
    <path
       style="fill:#000000;fill-opacity:1;fill-rule:nonzero;stroke:none"
       d="M 151.5 231.75 C 151.01961 231.73778 150.54272 231.77098 150.0625 231.8125 C 148.26198 231.99094 146.48305 232.34874 144.6875 232.53125 C 142.31793 232.78476 139.98128 233.258 137.59375 233.3125 C 134.30956 233.54981 131.02164 233.95987 127.8125 234.71875 C 123.80371 235.34599 119.80367 235.75663 115.75 235.96875 C 111.68136 236.34739 107.59737 236.76013 103.5625 237.40625 L 101.1875 239.21875 C 105.22481 238.50196 109.3252 238.07748 113.40625 237.6875 C 117.45155 237.4573 121.4644 237.08472 125.46875 236.46875 C 128.67837 235.73991 131.93998 235.28073 135.21875 235.03125 C 137.59846 234.97376 139.95144 234.57276 142.3125 234.3125 C 144.1122 234.15278 145.85855 233.75535 147.65625 233.5625 C 149.5649 233.35894 151.47667 233.69065 153.375 233.875 C 154.98502 233.98931 156.55929 234.4035 158.15625 234.625 C 159.40706 234.7824 160.67858 234.81715 161.9375 234.84375 L 164.34375 233.09375 C 163.09167 233.07231 161.83918 233.04871 160.59375 232.90625 C 158.98932 232.69963 157.42433 232.28518 155.8125 232.15625 C 154.37878 232.02298 152.94118 231.78666 151.5 231.75 z M 167.53125 236.3125 L 164.84375 237.625 C 164.56058 240.23248 164.39405 242.84906 164.28125 245.46875 C 164.20285 247.65308 164.1935 249.84581 164.1875 252.03125 C 164.2436 253.92972 164.06788 255.82916 164.28125 257.71875 C 164.57485 259.5385 164.7768 261.37894 164.875 263.21875 C 165.20642 265.14867 165.46085 267.07749 165.59375 269.03125 C 165.71187 271.19289 165.71375 273.36701 165.71875 275.53125 C 165.9001 277.17739 166.16524 278.78703 166.3125 280.4375 C 166.42674 281.9337 166.46075 283.4378 166.46875 284.9375 C 166.58455 286.45631 166.22164 287.9463 166 289.4375 C 165.89166 290.5647 165.47871 291.61225 165.25 292.71875 L 167.9375 291.4375 C 168.18068 290.33216 168.55645 289.25755 168.65625 288.125 C 168.88582 286.62163 169.20926 285.12533 169.09375 283.59375 C 169.08426 282.0865 169.09104 280.56574 168.96875 279.0625 C 168.81494 277.42198 168.50675 275.82637 168.34375 274.1875 C 168.33172 272.01805 168.33505 269.8231 168.21875 267.65625 C 168.07996 265.70392 167.81801 263.77449 167.5 261.84375 C 167.39721 259.99865 167.22052 258.17043 166.9375 256.34375 C 166.74753 254.46293 166.89165 252.57531 166.84375 250.6875 C 166.84595 248.50715 166.8597 246.30422 166.9375 244.125 C 167.04536 241.50855 167.20563 238.91216 167.53125 236.3125 z M 102.0625 241.5625 L 99.40625 242.875 C 99.193281 246.16847 98.691898 249.43482 98.375 252.71875 C 98.110193 255.58994 98.04373 258.4936 98 261.375 C 97.787243 263.36126 97.526573 265.31968 97.375 267.3125 C 97.265704 269.4429 97.26 271.58613 97.25 273.71875 C 97.2425 275.71004 97.249614 277.6962 97.25 279.6875 C 97.243862 281.59238 97.591373 283.48202 97.78125 285.375 C 97.832754 286.52316 98.11926 287.65201 98.3125 288.78125 L 100.9375 287.375 C 100.74574 286.25196 100.4925 285.14159 100.4375 284 C 100.24141 282.11797 99.8615 280.23952 99.875 278.34375 C 99.8722 276.35294 99.874838 274.36582 99.875 272.375 C 99.882036 270.24793 99.903876 268.12398 100.03125 266 C 100.18565 264.00474 100.45064 262.02405 100.625 260.03125 C 100.66036 257.16024 100.73732 254.29822 101 251.4375 C 101.31939 248.14892 101.78405 244.85497 102.0625 241.5625 z M 163.59375 288.78125 C 162.02573 288.78748 160.47054 288.78511 158.90625 288.90625 C 156.92655 289.08314 154.95936 289.42103 153 289.75 C 150.73097 289.9474 148.46975 290.34125 146.1875 290.28125 C 143.19787 290.23359 140.20046 290.14077 137.21875 289.90625 C 132.04547 289.55119 126.87267 289.4851 121.6875 289.5625 C 115.96139 289.5614 110.22604 289.56385 104.5 289.53125 L 102.125 291.28125 C 107.8796 291.24915 113.62033 291.251 119.375 291.25 C 124.53735 291.1815 129.69421 291.22623 134.84375 291.59375 C 137.82285 291.83917 140.7936 291.9436 143.78125 292 C 146.06609 292.08634 148.35524 291.70415 150.625 291.5 C 152.58712 291.20513 154.52385 290.87654 156.5 290.6875 C 158.0573 290.55564 159.62571 290.54025 161.1875 290.53125 C 161.93816 290.5289 162.68684 290.53033 163.4375 290.53125 L 165.84375 288.78125 C 165.09268 288.78014 164.34482 288.77925 163.59375 288.78125 z "
       id="path3050" />
    <path
       style="fill:#000000;fill-opacity:1;fill-rule:nonzero;stroke:none"
       d="M 261.40625 289.53125 C 259.82367 289.52955 258.23875 289.5435 256.65625 289.5625 C 254.64105 289.59538 252.63221 289.64978 250.625 289.84375 C 248.10747 290.08499 245.59762 290.39533 243.0625 290.28125 C 241.10797 290.28001 239.14203 290.28145 237.1875 290.28125 C 235.08099 290.28025 232.9815 290.3065 230.875 290.3125 C 226.32776 290.3239 221.766 290.31207 217.21875 290.3125 C 212.22198 290.3099 207.21546 290.30745 202.21875 290.28125 L 200.71875 291.375 C 200.72078 291.07304 200.71592 290.7707 200.71875 290.46875 L 198.0625 291.8125 C 198.0897 294.70283 198.0645 297.57834 198.0625 300.46875 C 198.0555 303.08004 198.0575 305.7012 198.0625 308.3125 C 197.97051 311.71625 198.13554 315.1089 198.40625 318.5 C 198.62095 320.84752 198.73085 323.20636 198.78125 325.5625 C 198.81045 327.31225 198.8145 329.06258 198.8125 330.8125 C 198.59047 332.32416 198.32767 333.82107 198.1875 335.34375 C 198.07029 336.84626 198.0705 338.36882 198.0625 339.875 C 198.07906 341.09704 197.76621 342.29333 197.59375 343.5 L 200.25 342.1875 C 200.43052 340.97041 200.7235 339.73656 200.6875 338.5 C 200.69723 337.00157 200.7185 335.52546 200.84375 334.03125 C 200.99325 332.50238 201.294 330.9937 201.46875 329.46875 C 201.46865 327.71842 201.4729 325.96881 201.4375 324.21875 C 201.38042 321.86045 201.25867 319.50498 201.03125 317.15625 C 200.74826 313.77209 200.5901 310.36607 200.6875 306.96875 C 200.6915 304.35663 200.6935 301.76837 200.6875 299.15625 C 200.6857 296.78217 200.70683 294.4053 200.71875 292.03125 C 205.44897 292.00921 210.17546 292.00283 214.90625 292 C 219.43478 292.0004 223.94024 292.01995 228.46875 292.03125 C 230.56908 292.03725 232.68092 292.03225 234.78125 292.03125 C 236.73619 292.03106 238.70131 292.03225 240.65625 292.03125 C 243.19838 292.13305 245.72494 291.83355 248.25 291.59375 C 250.24919 291.39683 252.24254 291.3472 254.25 291.3125 C 255.82994 291.292 257.41997 291.27925 259 291.28125 L 261.40625 289.53125 z M 263.90625 291.3125 L 261.25 292.65625 C 261.2706 295.68156 261.254 298.69339 261.25 301.71875 C 261.249 304.33168 261.253 306.94957 261.25 309.5625 C 261.17252 311.76192 261.40421 313.96596 261.8125 316.125 C 262.24129 318.00278 262.51882 319.89238 262.65625 321.8125 C 263.05936 324.1785 263.28259 326.57407 263.40625 328.96875 C 263.51583 331.39359 263.52725 333.82317 263.53125 336.25 C 263.53225 338.1423 263.504 340.01396 263.5 341.90625 L 266.15625 340.5625 C 266.15725 338.6711 266.16125 336.79763 266.15625 334.90625 C 266.14377 332.47709 266.14846 330.05184 266.03125 327.625 C 265.90243 325.22639 265.69744 322.81029 265.3125 320.4375 C 265.1696 318.50811 264.86362 316.60638 264.4375 314.71875 C 264.04634 312.57261 263.82905 310.40264 263.90625 308.21875 C 263.90325 305.6083 263.87596 303.0167 263.875 300.40625 C 263.8711 297.37625 263.88575 294.34243 263.90625 291.3125 z M 240.75 341.4375 C 238.3204 341.434 235.8982 341.43605 233.46875 341.46875 C 227.91682 341.56193 222.35558 341.72759 216.8125 342.0625 C 211.18289 342.45286 205.58759 343.12991 199.96875 343.625 L 197.59375 345.375 C 203.24057 344.82634 208.87047 344.15607 214.53125 343.75 C 220.04841 343.40294 225.56683 343.2538 231.09375 343.1875 C 233.51298 343.1634 235.92447 343.1785 238.34375 343.1875 C 240.03592 343.1945 241.74531 343.18696 243.4375 343.1875 C 245.3532 343.1878 247.24055 343.18747 249.15625 343.1875 C 250.90735 343.1885 252.6864 343.18687 254.4375 343.1875 C 256.1423 343.18655 257.82645 343.18694 259.53125 343.1875 L 260.34375 343.1875 L 262.75 341.46875 L 261.9375 341.46875 C 260.23324 341.46917 258.54801 341.46967 256.84375 341.46875 C 255.09026 341.46975 253.31599 341.46801 251.5625 341.46875 C 249.64823 341.46875 247.72676 341.46975 245.8125 341.46875 C 244.11945 341.46675 242.44304 341.4395 240.75 341.4375 z "
       id="path3061" />
    <path
       style="fill:#000000;fill-opacity:1;fill-rule:nonzero;stroke:none"
       d="M 121.0625 360.375 L 118.65625 362.09375 C 125.04851 362.56543 131.42531 363.05647 137.8125 363.59375 C 144.77799 364.21758 151.76191 364.6226 158.75 364.875 C 161.91734 364.982 165.11235 365.02525 168.28125 365.03125 C 170.14007 364.99145 171.97071 365.35931 173.8125 365.5625 C 175.36791 365.72509 176.93753 365.76145 178.5 365.78125 C 179.50401 365.78767 178.99705 365.77825 180 365.78125 L 182.40625 364.03125 C 181.40412 364.02925 181.90924 364.03625 180.90625 364.03125 C 179.3486 364.01574 177.77047 363.99349 176.21875 363.84375 C 174.36602 363.65067 172.52283 363.25655 170.65625 363.28125 C 167.47217 363.28847 164.30803 363.2781 161.125 363.1875 C 154.11984 362.97159 147.10618 362.59664 140.125 361.96875 C 133.77498 361.42121 127.41297 360.91566 121.0625 360.375 z M 185.40625 364.15625 L 182.71875 365.40625 C 181.83544 367.50478 181.30985 369.69036 181 371.9375 C 180.87178 374.30008 180.6668 376.64843 180.40625 379 C 180.16055 381.1071 180.08055 383.22457 180.03125 385.34375 C 179.99505 387.23957 179.996 389.13522 180 391.03125 C 179.9022 393.33245 180.4512 395.57643 180.90625 397.8125 C 181.27088 399.53504 181.40025 401.30688 181.46875 403.0625 C 181.72763 404.60282 181.99713 406.12962 182.125 407.6875 C 182.29465 409.34947 182.11688 411.03393 182.34375 412.6875 L 185 411.28125 C 184.7925 409.631 184.95237 407.96889 184.78125 406.3125 C 184.65177 404.75827 184.36217 403.22739 184.125 401.6875 C 184.04783 399.91884 183.87514 398.17134 183.5 396.4375 C 183.04224 394.22003 182.52169 391.97047 182.625 389.6875 C 182.6266 387.7925 182.62655 385.89482 182.65625 384 C 182.70365 381.88993 182.78676 379.78545 183.03125 377.6875 C 183.29516 375.33829 183.49675 373.01403 183.65625 370.65625 C 183.97637 368.42726 184.49601 366.22566 185.40625 364.15625 z M 118.625 365.71875 L 115.9375 367.03125 C 115.37928 369.37525 114.97552 371.75844 114.75 374.15625 C 114.35824 377.02281 113.91769 379.8765 113.375 382.71875 C 112.83486 385.37162 112.53562 388.05022 112.375 390.75 C 112.27452 392.65611 112.28073 394.56065 112.28125 396.46875 C 112.13472 398.49184 112.56782 400.43351 113.1875 402.34375 C 113.77481 403.9992 114.59221 405.52365 114.96875 407.25 C 115.12666 408.83256 115.38281 410.37117 115.65625 411.9375 C 115.83283 412.96573 115.90505 414.02252 115.96875 415.0625 L 118.625 413.6875 C 118.5563 412.63773 118.46233 411.60014 118.28125 410.5625 C 118.00613 408.99305 117.7771 407.42608 117.59375 405.84375 C 117.20327 404.11186 116.37826 402.59834 115.78125 400.9375 C 115.17659 399.04998 114.76443 397.11982 114.90625 395.125 C 114.90695 393.22382 114.93545 391.33681 115.03125 389.4375 C 115.19201 386.75083 115.49096 384.07687 116.03125 381.4375 C 116.56427 378.5841 117.02683 375.72153 117.40625 372.84375 C 117.64527 370.44443 118.07161 368.06628 118.625 365.71875 z M 120.15625 416.03125 L 117.71875 417.75 C 122.80345 418.11816 127.87647 418.52656 132.96875 418.78125 C 139.62438 419.06591 146.27962 419.17206 152.9375 418.9375 C 157.41873 418.74164 161.92173 418.5968 166.40625 418.5 C 168.59543 418.4549 170.77919 418.43776 172.96875 418.4375 C 174.71253 418.4395 176.44372 418.4355 178.1875 418.4375 C 179.72055 418.31873 181.25288 418.07218 182.78125 417.90625 L 185.15625 416.125 C 183.632 416.28338 182.11698 416.52163 180.59375 416.6875 C 178.8494 416.6875 177.11935 416.68683 175.375 416.6875 C 173.17599 416.6906 170.9797 416.6944 168.78125 416.75 C 164.28066 416.863 159.77868 417.04789 155.28125 417.25 C 148.62452 417.5055 141.96756 417.39336 135.3125 417.09375 C 130.25125 416.83861 125.20648 416.44313 120.15625 416.03125 z "
       id="path3072" />
    <path
       style="fill:#000000;fill-opacity:1;fill-rule:nonzero;stroke:none"
       id="path3083"
       d="m 448.83282,130.03719 c 4.10402,0.0157 8.20733,0.0641 12.30958,-0.067 5.83794,-0.28098 11.67958,-0.46183 17.52292,-0.5781 4.10774,-0.0788 8.21627,-0.09 12.32461,-0.10029 2.77643,-0.004 5.55286,-0.001 8.32929,-0.002 2.37727,0.004 4.75454,-0.002 7.13181,3.2e-4 2.6835,-4e-4 5.367,0.004 8.0505,0.005 3.2425,5.3e-4 6.48501,0.002 9.72751,0.001 3.27212,-7e-5 6.54424,0.002 9.81636,-0.002 2.41621,-0.002 4.83242,-0.005 7.24863,-0.006 2.09683,8.8e-4 4.19366,6.8e-4 6.29048,-8.9e-4 1.65829,-0.001 3.31657,-0.002 4.97486,-0.003 0.25355,-4e-5 0.5071,-8e-5 0.76065,-1.2e-4 0,0 -2.40805,1.74955 -2.40805,1.74955 l 0,0 c -0.25344,-4e-5 -0.50689,-8e-5 -0.76033,-1.1e-4 -1.65594,-3.8e-4 -3.31188,-0.001 -4.96783,-0.003 -2.09601,-0.002 -4.19202,-0.002 -6.28803,-8.9e-4 -2.41057,-0.001 -4.82113,-0.004 -7.23169,-0.006 -3.27074,-0.003 -6.54148,-0.001 -9.81222,-0.001 -3.24372,-5.6e-4 -6.48744,7.8e-4 -9.73115,0.001 -2.68792,0.001 -5.37583,0.005 -8.06375,0.005 -2.37616,0.002 -4.75233,-0.004 -7.12849,-0.003 -2.77148,-0.003 -5.54297,-0.006 -8.31445,-0.008 -4.09555,-0.001 -8.19125,0.0115 -12.28634,0.079 -5.84122,0.10971 -11.68017,0.29334 -17.51572,0.57735 -4.1287,0.1319 -8.25817,0.09 -12.38862,0.11301 0,0 2.40947,-1.75058 2.40947,-1.75058 z"
       inkscape:connector-curvature="0" />
    <path
       style="fill:#000000;fill-opacity:1;fill-rule:nonzero;stroke:none"
       d="M 543.5 127.78125 C 542.73351 127.79164 541.98448 127.8055 541.21875 127.84375 C 539.29055 127.95853 537.3537 128.19695 535.4375 128.4375 C 533.1322 128.63781 530.80957 128.49759 528.5 128.65625 C 526.17128 128.81055 523.85543 129.07643 521.53125 129.28125 C 518.98738 129.27321 516.44838 129.25982 513.90625 129.15625 C 509.33279 128.97049 504.76352 128.68299 500.1875 128.5625 C 494.07781 128.5645 487.98469 128.5615 481.875 128.5625 C 475.44556 128.5649 468.99193 128.5715 462.5625 128.5625 C 457.98212 128.5592 453.42407 128.55565 448.84375 128.53125 L 446.4375 130.28125 C 451.04475 130.25695 455.6427 130.253 460.25 130.25 C 466.67907 130.24139 473.10218 130.247 479.53125 130.25 C 485.64213 130.252 491.76412 130.248 497.875 130.25 C 502.43243 130.36195 506.9778 130.66761 511.53125 130.875 C 514.07093 130.99804 516.6142 131.02125 519.15625 131.03125 C 521.48501 130.87365 523.7958 130.59636 526.125 130.4375 C 528.43623 130.2745 530.75274 130.35228 533.0625 130.1875 C 534.97553 129.9701 536.89061 129.74844 538.8125 129.625 C 540.33934 129.5404 541.87756 129.53525 543.40625 129.53125 C 544.97822 129.53125 546.52178 129.53078 548.09375 129.53125 C 549.34421 129.53176 550.62455 129.53067 551.875 129.53125 L 554.25 127.78125 C 553.00045 127.78125 551.74955 127.78225 550.5 127.78125 C 548.92931 127.77925 547.38319 127.78035 545.8125 127.78125 C 545.04603 127.78265 544.26649 127.77086 543.5 127.78125 z M 558.09375 130.21875 L 555.4375 131.5625 C 555.4575 134.32411 555.4425 137.08208 555.4375 139.84375 C 555.63464 142.17593 555.92251 144.50649 556.0625 146.84375 C 556.21413 148.75299 556.06963 150.65988 556.28125 152.5625 C 556.52832 154.36371 556.75416 156.15133 557.09375 157.9375 C 557.51956 160.06179 557.51079 162.26134 557.75 164.40625 C 557.98447 166.91555 558.46855 169.38034 558.8125 171.875 C 559.30141 174.17774 559.6306 176.49845 559.8125 178.84375 C 559.93724 180.66783 559.9315 182.48501 559.9375 184.3125 C 559.9375 186.28191 559.9415 188.24934 559.9375 190.21875 C 559.9335 191.93625 559.9385 193.6575 559.9375 195.375 C 559.9091 197.13895 560.02021 198.93061 559.84375 200.6875 C 559.53888 202.69516 559.37055 204.69114 559.28125 206.71875 C 559.20725 208.94517 559.1925 211.17885 559.1875 213.40625 C 559.1875 215.50072 559.18843 217.59303 559.1875 219.6875 C 559.1865 221.55213 559.1855 223.41663 559.1875 225.28125 C 559.1905 227.25996 559.1895 229.24004 559.1875 231.21875 C 558.99348 232.80878 558.7342 234.38504 558.34375 235.9375 C 557.93843 237.47197 557.78705 239.04518 557.71875 240.625 C 557.66113 242.30102 557.30686 243.95732 557.125 245.625 C 557.09658 247.41315 556.72209 249.14295 556.46875 250.90625 C 556.02544 252.82529 555.74072 254.79013 555.5625 256.75 C 555.49344 258.63269 555.22861 260.49497 554.875 262.34375 C 554.4463 264.28558 554.14931 266.26829 554 268.25 C 553.97155 270.3867 553.65228 272.49854 553.46875 274.625 C 553.03318 277.45155 552.72192 280.27015 552.5625 283.125 C 552.46583 286.00167 552.44914 288.8802 552.21875 291.75 C 551.91032 295.3747 551.78025 299.02044 551.71875 302.65625 C 551.67155 306.03917 551.6895 309.39805 551.6875 312.78125 C 551.68584 315.42737 551.6855 318.07263 551.6875 320.71875 C 551.6875 322.79149 551.65825 324.86477 551.65625 326.9375 C 551.63635 328.69656 551.71999 330.46549 551.5625 332.21875 C 551.264 334.66194 551.10914 337.13579 551 339.59375 C 550.95117 341.8982 550.96041 344.17827 550.6875 346.46875 C 550.35831 348.83007 550.27855 351.21329 550.21875 353.59375 C 550.16735 356.3799 550.15694 359.15098 550.15625 361.9375 C 550.11005 364.34519 550.25648 366.78573 550.0625 369.1875 C 549.86869 371.78165 549.49156 374.32873 549.15625 376.90625 C 548.85393 379.36257 548.7485 381.84036 548.6875 384.3125 C 548.6491 386.44993 548.65425 388.58108 548.65625 390.71875 C 548.65938 392.76673 548.65425 394.82702 548.65625 396.875 C 548.6601 399.01025 548.65425 401.14599 548.65625 403.28125 C 548.65777 405.54422 548.65557 407.79952 548.65625 410.0625 C 548.65525 411.96265 548.65825 413.88109 548.65625 415.78125 C 548.65425 417.5823 548.65676 419.3552 548.65625 421.15625 C 548.65625 423.1947 548.65025 425.2428 548.65625 427.28125 C 548.66225 430.0259 548.65925 432.78659 548.65625 435.53125 C 548.65325 437.48889 548.65825 439.4486 548.65625 441.40625 C 548.65625 443.31939 548.65577 445.21186 548.65625 447.125 C 548.65725 449.14475 548.65825 451.16775 548.65625 453.1875 C 548.60688 454.87927 548.63521 456.54401 548.875 458.21875 C 549.02283 459.91112 549.53563 461.51716 549.8125 463.1875 C 550.12674 465.04755 550.42009 466.93488 550.8125 468.78125 C 551.27008 470.59301 551.47247 472.45225 551.59375 474.3125 C 551.67957 475.96098 551.6855 477.63104 551.6875 479.28125 C 551.6895 481.30468 551.66025 483.32032 551.65625 485.34375 C 551.65425 487.19027 551.65825 489.02847 551.65625 490.875 C 551.65768 492.76988 551.6572 494.66763 551.65625 496.5625 C 551.51139 498.30323 552.16857 499.87938 552.78125 501.46875 C 553.0646 502.1782 553.26406 502.93053 553.5 503.65625 L 556.125 502.21875 C 555.87943 501.49195 555.65762 500.74515 555.375 500.03125 C 554.78178 498.46849 554.15835 496.92801 554.3125 495.21875 C 554.3115 493.32327 554.3115 491.42672 554.3125 489.53125 C 554.31133 487.68549 554.3115 485.84576 554.3125 484 C 554.3125 481.97585 554.3075 479.93039 554.3125 477.90625 C 554.3119 476.24997 554.31675 474.59162 554.21875 472.9375 C 554.08699 471.06557 553.89486 469.19907 553.4375 467.375 C 553.05506 465.5298 552.74503 463.67067 552.4375 461.8125 C 552.15797 460.1456 551.64953 458.53303 551.5 456.84375 C 551.27103 455.18211 551.2807 453.52006 551.3125 451.84375 C 551.3104 449.82507 551.31179 447.79993 551.3125 445.78125 C 551.3135 443.86647 551.31226 441.94604 551.3125 440.03125 C 551.3105 438.07675 551.28525 436.142 551.28125 434.1875 C 551.27725 431.44211 551.3065 428.68289 551.3125 425.9375 C 551.3185 423.89776 551.31257 421.85224 551.3125 419.8125 C 551.3115 418.01038 551.3145 416.20837 551.3125 414.40625 C 551.3105 412.50807 551.3135 410.61693 551.3125 408.71875 C 551.31321 406.45558 551.3105 404.20067 551.3125 401.9375 C 551.31387 399.8015 551.3105 397.66725 551.3125 395.53125 C 551.3135 393.48398 551.28325 391.42226 551.28125 389.375 C 551.27835 387.23927 551.2765 385.10426 551.3125 382.96875 C 551.3698 380.50785 551.50465 378.038 551.8125 375.59375 C 552.15519 373.01144 552.52086 370.4431 552.71875 367.84375 C 552.89275 365.43519 552.74505 363.03831 552.78125 360.625 C 552.78165 357.84041 552.78525 355.03412 552.84375 352.25 C 552.91082 349.87522 553.01535 347.51195 553.34375 345.15625 C 553.60378 342.85971 553.59385 340.55851 553.65625 338.25 C 553.76267 335.79429 553.91902 333.34674 554.21875 330.90625 C 554.36475 329.14373 554.2989 327.36133 554.3125 325.59375 C 554.3105 323.52382 554.3145 321.47618 554.3125 319.40625 C 554.3125 316.76154 554.3165 314.11345 554.3125 311.46875 C 554.3115 308.09006 554.29405 304.69092 554.34375 301.3125 C 554.41266 297.6797 554.52481 294.0585 554.84375 290.4375 C 555.07466 287.56501 555.12075 284.69174 555.21875 281.8125 C 555.38973 278.95923 555.66404 276.1077 556.09375 273.28125 C 556.28806 271.1519 556.62005 269.04704 556.65625 266.90625 C 556.81029 264.93605 557.10849 262.994 557.53125 261.0625 C 557.87772 259.20235 558.15145 257.3306 558.21875 255.4375 C 558.40169 253.48083 558.69311 251.51198 559.125 249.59375 C 559.38302 247.82848 559.73205 246.10143 559.78125 244.3125 C 559.97027 242.64116 560.3333 240.9648 560.375 239.28125 C 560.45724 237.71781 560.62199 236.1734 561.03125 234.65625 C 561.4188 233.08591 561.68503 231.48529 561.84375 229.875 C 561.84208 227.89673 561.84175 225.91577 561.84375 223.9375 C 561.84575 222.07296 561.84675 220.20828 561.84375 218.34375 C 561.83999 216.24979 561.84302 214.15646 561.84375 212.0625 C 561.84685 209.8395 561.8532 207.62795 561.9375 205.40625 C 562.03823 203.38196 562.20742 201.34999 562.5 199.34375 C 562.6519 197.57576 562.57025 195.80449 562.59375 194.03125 C 562.59365 192.31528 562.5936 190.59097 562.59375 188.875 C 562.59475 186.90458 562.59475 184.93917 562.59375 182.96875 C 562.5876 181.13544 562.57679 179.2979 562.4375 177.46875 C 562.24326 175.11958 561.91647 172.80939 561.4375 170.5 C 561.08278 168.01034 560.60322 165.53798 560.375 163.03125 C 560.15151 160.87606 560.1138 158.69523 559.6875 156.5625 C 559.35294 154.78384 559.15304 152.98016 558.90625 151.1875 C 558.72152 149.28814 558.84142 147.37214 558.6875 145.46875 C 558.54176 143.13852 558.25245 140.82612 558.0625 138.5 C 558.0579 135.73427 558.07355 132.98442 558.09375 130.21875 z M 446.65625 134.75 L 443.96875 136.0625 C 443.67675 138.50067 443.51934 140.95414 443.40625 143.40625 C 443.32675 145.51139 443.3175 147.61244 443.3125 149.71875 C 443.3085 151.47468 443.3105 153.21283 443.3125 154.96875 C 443.3557 156.68854 443.24044 158.41378 443.4375 160.125 C 443.75023 161.95647 443.89939 163.83385 444 165.6875 C 444.00796 167.81098 444.36589 169.88945 444.5625 172 C 444.76468 174.37773 444.81435 176.77136 444.84375 179.15625 C 444.86085 181.39034 444.84175 183.60961 444.84375 185.84375 C 444.87486 188.33839 445.08209 190.87762 445.46875 193.34375 C 445.8419 195.28169 446.12276 197.21844 446.25 199.1875 C 446.45975 201.60004 446.20517 204.00451 446 206.40625 C 445.74808 209.37118 445.6778 212.33848 445.625 215.3125 C 445.70282 218.1821 445.4943 221.01939 445.25 223.875 C 444.97972 226.80864 444.9255 229.77489 444.875 232.71875 C 444.9001 235.35321 444.52167 237.97585 444.0625 240.5625 C 443.58278 243.08768 443.4545 245.65565 443.375 248.21875 C 443.3141 250.9523 443.3135 253.67219 443.3125 256.40625 C 443.3125 258.65752 443.33975 260.90498 443.34375 263.15625 C 443.34775 265.83005 443.34575 268.5137 443.34375 271.1875 C 443.34475 273.77838 443.34875 276.37788 443.34375 278.96875 C 443.34375 281.56146 443.34075 284.15729 443.34375 286.75 C 443.34375 289.56203 443.34875 292.34422 443.34375 295.15625 C 443.33875 297.16105 443.3145 299.1827 443.3125 301.1875 C 443.3165 303.43169 443.34575 305.66205 443.34375 307.90625 C 443.42952 310.01043 443.20497 312.12832 442.78125 314.1875 C 442.2392 316.28685 442.0291 318.43682 441.90625 320.59375 C 441.81363 322.4799 441.8155 324.36202 441.8125 326.25 C 441.52632 328.22563 441.40476 330.21213 441.125 332.1875 C 440.70667 334.53777 440.5162 336.93116 440.40625 339.3125 C 440.32685 341.508 440.3155 343.70961 440.3125 345.90625 C 440.3145 347.85755 440.3095 349.7987 440.3125 351.75 C 440.31247 353.60028 440.31207 355.46222 440.3125 357.3125 C 440.33882 359.45507 440.69873 361.58344 440.875 363.71875 C 441.0287 365.68401 441.0466 367.65478 441.0625 369.625 C 441.07034 371.24515 441.0645 372.8486 441.0625 374.46875 C 441.063 376.29279 441.0635 378.11347 441.0625 379.9375 C 440.94644 381.87797 441.147 383.7707 441.40625 385.6875 C 441.73324 388.17875 441.69923 390.71919 441.90625 393.21875 C 442.20783 396.11418 442.39001 398.99777 442.5 401.90625 C 442.575 404.17543 442.58975 406.44862 442.59375 408.71875 C 442.59375 410.56633 442.5655 412.43368 442.5625 414.28125 C 442.67116 416.22001 442.42007 418.10858 442.21875 420.03125 C 441.94604 422.80368 441.89285 425.59161 441.84375 428.375 C 441.80555 430.91931 441.8115 433.48672 441.8125 436.03125 C 441.8165 438.54004 441.84175 441.02247 441.84375 443.53125 C 441.73974 446.13238 441.91906 448.72877 442.1875 451.3125 C 442.43174 453.64059 442.5131 455.97354 442.5625 458.3125 C 442.5922 460.18308 442.59675 462.06675 442.59375 463.9375 C 442.5579 465.51795 442.9322 467.06272 443.125 468.625 C 443.53219 470.15306 443.79662 471.67621 443.9375 473.25 C 444.07206 475.16098 444.08775 477.08528 444.09375 479 C 444.09475 480.75521 444.09675 482.52604 444.09375 484.28125 C 444.08975 486.24094 444.09275 488.19657 444.09375 490.15625 C 444.14795 492.33685 443.97678 494.51445 444.1875 496.6875 C 444.59091 498.94665 444.61568 501.25357 444.84375 503.53125 C 445.02009 504.85123 445.1558 506.16945 445.1875 507.5 L 447.8125 506.125 C 447.76531 504.98297 447.66518 503.85084 447.53125 502.71875 C 451.76087 502.75377 455.97369 503.0857 460.1875 503.4375 C 463.83826 503.76002 467.49396 504.01493 471.15625 504.15625 C 474.01935 504.10278 476.84445 504.434 479.65625 504.9375 C 483.35289 505.87065 487.11536 506.5207 490.90625 506.90625 C 493.8552 507.18438 496.79067 507.20555 499.75 507.21875 C 502.93246 507.30073 506.10253 507.71707 509.25 508.15625 C 511.52981 508.50602 513.82223 508.6311 516.125 508.6875 C 518.49989 508.726 520.87488 508.71899 523.25 508.71875 C 525.04939 508.71775 526.85686 508.72175 528.65625 508.71875 C 530.87894 508.91883 533.08457 509.20032 535.3125 509.34375 C 537.47166 509.46619 539.65052 509.45785 541.8125 509.46875 C 543.59195 509.34221 545.34892 509.04069 547.125 508.875 C 548.77132 508.94039 550.24679 508.48554 551.78125 507.96875 C 552.74881 507.56415 553.73968 507.21788 554.71875 506.84375 L 557.0625 505 C 556.09095 505.38994 555.07792 505.68645 554.125 506.125 C 552.59603 506.63026 551.15053 507.20401 549.5 507.09375 C 547.72372 507.24773 545.96029 507.56722 544.1875 507.75 C 542.02795 507.74231 539.8759 507.70653 537.71875 507.59375 C 535.48773 507.45822 533.28311 507.21875 531.0625 506.96875 C 529.2624 506.96675 527.45634 506.994 525.65625 507 C 523.28094 507.0055 520.90636 507.00575 518.53125 506.96875 C 516.23339 506.91612 513.93301 506.80558 511.65625 506.46875 C 508.49897 506.03593 505.34628 505.60952 502.15625 505.5 C 499.19918 505.48937 496.22955 505.47507 493.28125 505.21875 C 489.49347 504.85364 485.74792 504.21217 482.0625 503.25 C 479.25176 502.72031 476.43063 502.33995 473.5625 502.40625 C 469.88734 502.28725 466.19449 502.06956 462.53125 501.75 C 458.24857 501.39142 453.98505 501.04925 449.6875 500.96875 L 447.5 502.5625 C 447.48347 502.42669 447.48647 502.29222 447.46875 502.15625 C 447.254 499.87491 447.21434 497.57441 446.8125 495.3125 C 446.62033 493.14777 446.77165 490.98343 446.71875 488.8125 C 446.72045 486.85016 446.71817 484.8686 446.71875 482.90625 C 446.72014 481.15197 446.72275 479.41053 446.71875 477.65625 C 446.71127 475.73298 446.73509 473.79417 446.59375 471.875 C 446.44748 470.29778 446.14213 468.75395 445.75 467.21875 C 445.5523 465.66948 445.16945 464.13177 445.21875 462.5625 C 445.21815 460.69163 445.2215 458.83937 445.1875 456.96875 C 445.13588 454.62311 445.05601 452.27213 444.8125 449.9375 C 444.54454 447.36273 444.36267 444.77936 444.46875 442.1875 C 444.46875 439.67895 444.46675 437.19604 444.46875 434.6875 C 444.46805 432.14537 444.4681 429.60449 444.5 427.0625 C 444.54557 424.28517 444.58909 421.48377 444.875 418.71875 C 445.08577 416.78533 445.3215 414.85631 445.21875 412.90625 C 445.21879 411.06014 445.22075 409.22111 445.21875 407.375 C 445.21615 405.10273 445.2045 402.83362 445.125 400.5625 C 445.00077 397.65197 444.82164 394.74277 444.53125 391.84375 C 444.33793 389.33564 444.38763 386.81152 444.0625 384.3125 C 443.80811 382.4078 443.60647 380.52086 443.71875 378.59375 C 443.71875 376.7686 443.71375 374.95014 443.71875 373.125 C 443.72075 371.50491 443.73135 369.87006 443.71875 368.25 C 443.69748 366.27434 443.66346 364.31382 443.5 362.34375 C 443.31865 360.21591 442.97675 358.07474 442.96875 355.9375 C 442.96875 354.08739 442.97175 352.25636 442.96875 350.40625 C 442.96875 348.4554 442.96825 346.51335 442.96875 344.5625 C 442.97035 342.37114 442.94765 340.15883 443.03125 337.96875 C 443.14346 335.59463 443.37053 333.21868 443.78125 330.875 C 444.05359 328.88456 444.21812 326.89962 444.46875 324.90625 C 444.47006 323.02545 444.4687 321.12895 444.5625 319.25 C 444.69067 317.10318 444.90737 314.96569 445.4375 312.875 C 445.83884 310.79406 446.06255 308.68462 445.96875 306.5625 C 445.96675 304.31666 445.96475 302.08958 445.96875 299.84375 C 445.96675 297.84106 445.97375 295.84643 445.96875 293.84375 C 445.96391 291.03346 445.96845 288.21653 445.96875 285.40625 C 445.97075 282.81105 445.96831 280.22019 445.96875 277.625 C 445.9639 275.03579 445.96775 272.43296 445.96875 269.84375 C 445.96575 267.16832 445.96675 264.48793 445.96875 261.8125 C 445.96955 259.5623 445.97375 257.31269 445.96875 255.0625 C 445.96505 252.33179 445.96425 249.60507 446.03125 246.875 C 446.11798 244.32267 446.23565 241.76373 446.71875 239.25 C 447.176 236.65083 447.5231 234.02003 447.5 231.375 C 447.54542 228.43701 447.60673 225.49016 447.875 222.5625 C 448.12084 219.70077 448.3189 216.84408 448.25 213.96875 C 448.30202 211.00091 448.39488 208.05186 448.65625 205.09375 C 448.86752 202.67545 449.11606 200.24193 448.90625 197.8125 C 448.77425 195.83676 448.46486 193.88242 448.09375 191.9375 C 447.72115 189.48277 447.48255 186.98259 447.46875 184.5 C 447.47375 182.26383 447.49105 180.04861 447.46875 177.8125 C 447.43764 175.42106 447.38939 173.00911 447.1875 170.625 C 446.98952 168.51646 446.638 166.43387 446.625 164.3125 C 446.51695 162.45395 446.36357 160.58836 446.0625 158.75 C 445.8851 157.04785 446.01425 155.33412 445.96875 153.625 C 445.96775 151.86985 445.97075 150.13015 445.96875 148.375 C 445.97125 146.27358 445.9824 144.16269 446.0625 142.0625 C 446.17127 139.61376 446.32896 137.1807 446.65625 134.75 z "
       id="path3088" />
    <path
       style="fill:#000000;fill-opacity:1;fill-rule:nonzero;stroke:none"
       id="path3105"
       d="m 824.25465,247.30216 c 2.43537,-0.297 4.88416,-0.45263 7.33409,-0.5629 1.81658,-0.0747 3.63482,-0.0866 5.45266,-0.0879 1.7018,1e-4 3.4036,0.002 5.1054,0.003 1.64358,-7e-5 3.28716,0.002 4.93074,0.003 1.63284,-3.1e-4 3.26568,-9.6e-4 4.89852,-0.001 1.87442,0.16543 3.66838,0.74583 5.51225,1.09469 1.91166,0.29681 3.80574,0.76707 5.62598,1.42306 1.55273,0.692 3.14838,1.24459 4.74667,1.81637 1.84895,0.77544 3.76598,1.37076 5.64528,2.06431 1.59686,0.52865 3.21728,1.00369 4.84917,1.41593 1.55556,0.29852 3.12421,0.57601 4.6441,1.02773 1.62977,0.62263 3.37525,0.68006 5.075,0.96277 1.98677,0.2633 3.91672,0.80694 5.89256,1.12938 1.91672,0.21035 3.8347,0.47138 5.71155,0.92154 1.78797,0.44493 3.61569,0.62018 5.3958,1.09051 1.27878,0.56558 2.55421,1.11098 3.71984,1.88992 1.62256,0.89387 3.22452,1.8188 4.83481,2.73377 1.46445,0.85699 2.95028,1.66901 4.41073,2.53179 1.35884,0.84533 2.76206,1.61978 4.0323,2.59706 1.4798,1.14416 3.0996,2.0589 4.57165,3.21577 1.46184,0.97911 2.66361,2.27832 3.88597,3.52989 1.15631,1.29825 1.97142,2.85425 2.72808,4.4081 0.79329,1.5121 1.35939,3.11452 2.11163,4.64675 0.61324,1.4433 1.16856,2.91542 1.53317,4.4426 0.40721,1.31963 1.04014,2.5404 1.42703,3.86695 0.49404,1.45493 0.89053,2.93624 1.46781,4.36198 0.46629,1.38382 1.15316,2.67493 1.57461,4.0735 0.35465,1.39237 0.38795,2.83507 0.41889,4.26334 0.0148,1.85812 0.004,3.71634 0.001,5.57449 0.0567,1.45411 -0.21866,2.88095 -0.73482,4.23328 -0.35894,1.25683 -0.89985,2.44386 -1.65475,3.50997 -0.73028,1.04788 -1.35821,2.15334 -1.99634,3.25811 -0.63822,0.91419 -1.32636,1.78094 -1.96326,2.69561 -0.76084,1.20235 -1.65839,2.30616 -2.4884,3.46018 -0.86684,1.11686 -1.86018,2.1196 -2.82457,3.1492 -0.93666,1.13028 -2.14853,1.9769 -3.29969,2.87124 -1.1575,0.7501 -2.01152,1.91511 -3.19072,2.63478 -1.05368,0.64306 -2.13359,1.2421 -3.20039,1.86314 4.54102,-2.70079 -0.19149,0.21895 -1.07337,0.85271 -2.14087,1.39967 -4.40896,2.7259 -6.79937,3.67252 -1.64368,0.72003 -3.31575,1.37682 -4.92352,2.17621 -1.18501,0.55087 -0.59942,0.26295 -1.75684,0.8636 -0.28348,0.13511 -1.11402,0.57608 -0.85046,0.40533 0.58322,-0.37785 2.41213,-1.38127 1.81312,-1.02899 -3.09496,1.82014 -2.17049,1.3614 -3.89302,2.17458 -1.3645,0.60628 -2.79901,1.01009 -4.1811,1.57785 -1.70334,0.77188 -3.45312,1.37022 -5.23824,1.91723 -1.80316,0.81291 -3.71156,1.25156 -5.66148,1.51931 -1.43084,0.47298 -2.94087,0.58674 -4.39394,0.93988 -1.71982,0.37386 -3.44932,0.71558 -5.18053,1.04119 -1.6897,0.27904 -3.38869,0.36014 -5.06964,0.68789 -1.54272,0.20346 -3.02302,0.67915 -4.54936,0.9678 -1.83316,0.15138 -3.64595,0.40031 -5.46527,0.6701 -1.88256,0.2719 -3.78644,0.34156 -5.6857,0.38096 -1.96051,0.0318 -3.92133,0.0227 -5.882,0.0209 -1.85603,0.11277 -3.66792,-0.0746 -5.4958,-0.36091 -1.66355,-0.2737 -3.35027,-0.3297 -5.03227,-0.37259 -1.9526,-0.0346 -3.90564,-0.0297 -5.85847,-0.0274 -1.65236,0.2039 -3.2906,0.48673 -4.95009,0.63342 -1.70158,0.33638 -3.4112,0.60388 -5.13905,0.75549 -1.4349,0.40159 -2.89025,0.62713 -4.37229,0.7548 -1.58684,0.1134 -3.17853,0.12038 -4.76861,0.1266 -1.54394,0.002 -3.08788,-0.001 -4.63181,-0.005 -1.6996,-0.0515 -3.4108,0.10939 -5.10008,-0.10525 -1.55175,-0.32478 -3.14054,-0.39673 -4.69714,-0.67506 -1.88282,-0.39259 -3.7292,-0.91312 -5.63247,-1.21258 -1.70198,-0.10263 -3.27795,-0.76268 -4.907,-1.18996 -1.72052,-0.36612 -3.41626,-0.83863 -5.09693,-1.3556 -1.53016,-0.3571 -3.0587,-0.71567 -4.594,-1.05528 -1.56853,-0.27218 -3.1483,-0.37926 -4.71807,-0.64688 -1.85133,-0.30865 -3.66097,-0.79412 -5.52415,-1.05353 -1.61158,-0.4714 -3.29171,-0.60542 -4.92222,-0.96747 -1.85356,-0.64094 -3.67372,-1.37362 -5.52479,-2.01941 -1.59463,-0.74863 -3.29931,-1.24232 -4.85883,-2.06271 -1.65069,-0.71844 -3.21974,-1.60442 -4.8432,-2.37678 -1.50799,-0.58823 -2.96713,-1.30622 -4.3937,-2.07022 -1.30641,-0.61052 -2.46198,-1.47204 -3.69367,-2.2136 -1.44917,-0.96131 -2.97806,-1.79249 -4.48754,-2.65404 -1.64465,-0.99535 -3.22101,-2.09274 -4.78378,-3.21077 -1.51593,-1.01456 -2.993,-2.11974 -4.30462,-3.39083 -1.14859,-1.04855 -2.18202,-2.23822 -3.12964,-3.47076 -0.86368,-1.3524 -1.96013,-2.5415 -2.78951,-3.91422 -0.70069,-1.04295 -1.35481,-2.13827 -1.86235,-3.28993 -0.42341,-1.37244 -1.11854,-2.62358 -1.55567,-3.9925 -0.4069,-1.4957 -0.83213,-2.97498 -1.06789,-4.50962 -0.0819,-1.52717 -0.42895,-3.01437 -0.66943,-4.52006 -0.22329,-1.50072 -0.26737,-3.01884 -0.29611,-4.53326 -0.0149,-1.71109 -0.0116,-3.42228 -0.0104,-5.13342 0.0361,-1.55634 -0.0805,-3.11916 0.0848,-4.66872 0.22802,-1.49742 0.728,-2.94596 1.31775,-4.33675 0.51587,-1.51288 1.43804,-2.8062 2.19134,-4.1972 0.64264,-1.45372 1.52146,-2.70897 2.57178,-3.89155 0.92309,-1.14311 1.94311,-2.201 2.89139,-3.32247 0.99815,-1.14051 2.23802,-1.96938 3.49944,-2.77984 1.19154,-0.97731 2.47831,-1.81099 3.75318,-2.67304 1.56207,-0.95762 3.16802,-1.83882 4.7642,-2.73816 0.25412,-0.14319 1.0186,-0.56898 0.76467,-0.42545 -0.59008,0.33354 -2.35482,1.34348 -1.77315,0.99548 1.09277,-0.65377 2.20449,-1.27532 3.30673,-1.91297 -5.52595,3.04424 3.4115,-1.93121 4.56127,-2.4932 -0.43996,0.33314 1.97176,-0.93236 1.51149,-0.63721 -0.60921,0.39065 -1.25658,0.7185 -1.89158,1.06566 -0.21381,0.1169 0.41591,-0.25419 0.62772,-0.37469 3.27963,-1.86581 2.05964,-1.36523 3.82574,-2.03639 1.31928,-0.58303 2.71104,-0.95361 4.00176,-1.60163 1.45852,-0.68467 2.97821,-1.2126 4.45404,-1.85959 1.74283,-0.66175 3.50403,-1.30828 5.30591,-1.79337 1.58262,-0.48882 3.14552,-1.04385 4.74008,-1.49279 1.69098,-0.36232 3.39601,-0.66546 5.07637,-1.07776 1.9143,-0.4881 3.87183,-0.74362 5.81313,-1.09536 1.94422,-0.35099 3.83866,-0.87274 5.80192,-1.12692 1.96201,-0.25414 3.89923,-0.62236 5.8747,-0.78989 1.95556,-0.39018 3.96076,-0.51743 5.91007,-0.92575 1.74254,-0.38807 3.51433,-0.59026 5.29341,-0.70307 1.76472,-0.32056 3.53469,-0.57992 5.29419,-0.92878 1.77707,-0.37098 3.58354,-0.5347 5.39435,-0.60677 1.84887,0.0599 3.66311,-0.15376 5.48969,-0.40239 1.72545,-0.25096 3.46648,-0.32685 5.20719,-0.36778 1.68963,-0.20404 3.36104,-0.47211 5.01085,-0.88571 1.56677,-0.41879 3.18044,-0.53326 4.79305,-0.60057 1.58119,0.0688 3.10379,-0.11621 4.64889,-0.41286 1.14234,-0.21841 2.30369,-0.28809 3.4631,-0.33995 0,0 -2.40092,1.76235 -2.40092,1.76235 l 0,0 c -1.15269,0.0611 -2.30587,0.14667 -3.43989,0.37445 -1.54849,0.29268 -3.08907,0.39887 -4.66712,0.37354 -1.60382,0.0797 -3.20454,0.22572 -4.76034,0.64908 -1.65884,0.40402 -3.3475,0.66019 -5.04621,0.83178 -1.73435,0.0483 -3.46802,0.14129 -5.1867,0.39285 -1.83162,0.24675 -3.65582,0.41471 -5.50721,0.38203 -1.8011,0.0884 -3.59667,0.26438 -5.36355,0.63955 -1.76677,0.34743 -3.54509,0.62323 -5.3234,0.90308 -1.77175,0.12454 -3.53367,0.3452 -5.26921,0.73225 -1.96133,0.36074 -3.95408,0.55466 -5.92002,0.8944 -1.9717,0.18639 -3.90856,0.5656 -5.8723,0.8046 -1.95426,0.27413 -3.84687,0.80625 -5.7905,1.1356 -1.93858,0.35667 -3.89671,0.60679 -5.80579,1.11011 -1.68507,0.39408 -3.38915,0.70226 -5.0744,1.09343 -1.58796,0.46985 -3.15549,1.00672 -4.73991,1.48886 -1.78702,0.51186 -3.55081,1.13023 -5.27516,1.82166 -1.48132,0.63751 -3.00375,1.17542 -4.45755,1.87602 -1.31343,0.59644 -2.69219,1.01266 -4.01436,1.58749 -1.31055,0.55655 -0.85226,0.39533 1.29443,-0.87716 0.21015,-0.12457 -0.41736,0.25412 -0.62878,0.37653 -1.58771,0.91923 -3.0268,1.86093 -4.71919,2.49758 -0.7597,0.38411 -1.51561,0.77873 -2.26196,1.18833 -0.25615,0.14057 -1.01167,0.58505 -0.76158,0.43397 0.67685,-0.40892 6.45632,-3.78467 -1.52487,0.88394 0.5908,-0.34302 2.35967,-1.37808 1.7724,-1.02905 -1.09967,0.65356 -2.20296,1.30106 -3.30964,1.94267 -2.7681,1.60483 3.01509,-1.79825 0.27269,-0.19751 -0.23836,0.13913 -0.47954,0.27336 -0.71931,0.41004 -1.27672,0.85977 -2.58235,1.66388 -3.7486,2.67555 -1.23808,0.82758 -2.52061,1.57067 -3.53023,2.69849 -0.94452,1.13158 -1.97492,2.18201 -2.89417,3.33457 -1.05748,1.16076 -1.97721,2.36687 -2.59774,3.82283 -0.72211,1.40215 -1.70118,2.65613 -2.19828,4.17347 -0.58943,1.36982 -1.11478,2.78433 -1.35742,4.26164 -0.20335,1.53558 -0.054,3.09289 -0.10284,4.63867 -0.003,1.70897 -0.01,3.41805 0.0105,5.12695 0.0254,1.50186 0.0631,3.00755 0.27667,4.49684 0.2353,1.5075 0.59965,2.99284 0.67044,4.52199 0.22401,1.52234 0.6445,2.98618 1.04581,4.46843 0.42669,1.36239 1.12836,2.59777 1.54665,3.96116 0.49726,1.14215 1.14968,2.22373 1.83739,3.25956 0.82164,1.3632 1.91112,2.54536 2.76904,3.88696 0.94261,1.21905 1.97336,2.38914 3.10705,3.4334 1.30864,1.25525 2.77095,2.354 4.28137,3.35393 1.55545,1.11029 3.11518,2.21559 4.76209,3.18813 1.51549,0.85792 3.04185,1.69966 4.49917,2.65483 1.22925,0.735 2.37958,1.59771 3.68413,2.20104 1.4294,0.75016 2.88126,1.46666 4.38172,2.06413 1.62056,0.78761 3.20537,1.6492 4.85472,2.37931 1.55816,0.78922 3.23609,1.30952 4.82366,2.03673 1.8403,0.65255 3.65411,1.37964 5.51301,1.98105 1.63282,0.33033 3.293,0.52565 4.90836,0.95322 1.86035,0.2773 3.67227,0.76813 5.5281,1.05911 1.57419,0.25963 3.16627,0.3431 4.73152,0.65741 1.53739,0.35105 3.07856,0.68257 4.60468,1.07593 1.67746,0.51683 3.37521,0.96791 5.08916,1.34757 1.61781,0.44183 3.19775,1.04964 4.88911,1.16607 1.8993,0.31877 3.74605,0.8491 5.63516,1.21255 1.55912,0.24442 3.1366,0.36613 4.68944,0.66059 1.68683,0.16325 3.38697,0.0396 5.07973,0.0794 1.54444,-2.9e-4 3.08888,0.005 4.63333,0.002 1.58465,-0.008 3.17126,-0.0184 4.75177,-0.14628 1.48019,-0.1439 2.9221,-0.43204 4.37196,-0.75456 1.72727,-0.16518 3.43198,-0.46049 5.14069,-0.75696 1.65978,-0.15992 3.29902,-0.46518 4.96007,-0.60697 1.95546,3.7e-4 3.91116,-0.005 5.86636,0.032 1.69056,0.0501 3.38508,0.11776 5.05571,0.40237 1.81483,0.28247 3.62077,0.41869 5.46073,0.32972 1.96043,0.001 3.92107,0.004 5.88128,-0.0292 1.89276,-0.049 3.7893,-0.12517 5.66386,-0.41073 1.81862,-0.27157 3.63794,-0.47967 5.46381,-0.68602 1.52036,-0.30834 3.00877,-0.75665 4.54927,-0.9656 1.67934,-0.31072 3.38363,-0.37199 5.06372,-0.68363 1.7308,-0.33416 3.46332,-0.66615 5.18203,-1.05471 1.46749,-0.30493 2.95159,-0.52417 4.40195,-0.91645 1.94175,-0.29029 3.82262,-0.78372 5.63326,-1.55545 1.78321,-0.54437 3.51409,-1.19242 5.22368,-1.93849 1.38676,-0.54927 2.81895,-0.96804 4.17384,-1.59878 0.21829,-0.10994 0.86255,-0.45868 0.65487,-0.32981 -0.60998,0.37851 -2.48705,1.43528 -1.8634,1.07974 1.93959,-1.10573 3.84089,-2.25875 5.88695,-3.15772 1.62103,-0.77831 3.28793,-1.45471 4.93991,-2.1637 0.81536,-0.34214 1.58985,-0.72752 2.37522,-1.13288 0.23363,-0.12058 0.92527,-0.49808 0.70301,-0.35764 -3.95878,2.50158 -2.0267,1.19781 -1.3811,0.75566 1.91675,-1.47289 4.11615,-2.53977 6.15465,-3.82447 -3.36481,1.97922 -2.01759,1.25873 -1.23777,0.65018 0.65158,-0.50847 1.22783,-1.10268 1.85576,-1.63627 0.22385,-0.19023 0.46546,-0.35851 0.69819,-0.53776 1.15287,-0.87307 2.35973,-1.72031 3.30999,-2.81841 0.93463,-1.05319 1.97427,-2.01039 2.84761,-3.12142 0.82701,-1.15225 1.72516,-2.25197 2.47604,-3.45614 0.66755,-0.88494 1.26323,-1.81418 1.97907,-2.66667 0.6272,-1.12066 1.28058,-2.21719 1.98008,-3.29301 0.80617,-1.00357 1.35031,-2.19627 1.68855,-3.43542 0.52571,-1.32079 0.85851,-2.70527 0.79616,-4.14083 0.005,-1.85484 0.0142,-3.70981 -0.006,-5.56459 -0.0269,-1.40296 -0.051,-2.82031 -0.38412,-4.19122 -0.40845,-1.39299 -1.09579,-2.67461 -1.55524,-4.05092 -0.58734,-1.43323 -0.98513,-2.92417 -1.48685,-4.38756 -0.38019,-1.33463 -1.02499,-2.55532 -1.43209,-3.88104 -0.34957,-1.50918 -0.90117,-2.9588 -1.49775,-4.38587 -0.74967,-1.5338 -1.32373,-3.13322 -2.11244,-4.64744 -0.73949,-1.52636 -1.53888,-3.05548 -2.67573,-4.32771 -1.21678,-1.2401 -2.41766,-2.51871 -3.86504,-3.49652 -1.47571,-1.147 -3.0969,-2.06252 -4.57066,-3.21109 -1.2772,-0.95201 -2.66722,-1.72823 -4.02035,-2.56531 -1.45276,-0.87047 -2.94323,-1.66943 -4.40111,-2.53187 -1.61092,-0.92639 -3.23016,-1.83313 -4.84858,-2.74662 -1.15164,-0.74167 -2.40674,-1.2818 -3.66887,-1.80776 -1.7762,-0.46056 -3.60427,-0.63311 -5.38341,-1.0891 -1.87885,-0.42268 -3.78831,-0.68415 -5.69977,-0.90716 -1.97169,-0.33868 -3.90517,-0.86725 -5.89162,-1.12713 -1.71489,-0.26086 -3.46093,-0.36934 -5.10165,-0.98835 -1.52688,-0.42341 -3.0886,-0.70605 -4.64039,-1.02032 -1.63358,-0.42927 -3.26407,-0.89012 -4.85915,-1.44453 -1.88404,-0.68293 -3.7893,-1.30955 -5.64966,-2.05716 -1.60305,-0.55696 -3.17704,-1.15967 -4.74008,-1.82117 -1.81885,-0.63093 -3.69954,-1.08737 -5.60151,-1.38616 -1.8277,-0.36003 -3.61758,-0.93769 -5.48613,-1.0437 -1.63162,-3.1e-4 -3.26325,-9e-4 -4.89487,-0.001 -1.64456,-1.5e-4 -3.28912,0.002 -4.93368,-6.9e-4 -1.70074,-0.002 -3.40149,-0.006 -5.10224,-0.004 -1.81219,0.006 -3.62482,0.0151 -5.43573,0.0914 -2.45092,0.1116 -4.90113,0.27028 -7.33469,0.59256 0,0 2.38732,-1.78026 2.38732,-1.78026 z"
       inkscape:connector-curvature="0" />
    <path
       style="fill:#008000;fill-opacity:1;fill-rule:nonzero;stroke:none"
       d="M 719 300.15625 C 715.54582 300.54337 712.06597 300.6522 708.59375 300.75 C 705.19476 300.88526 701.80874 301.36556 698.4375 301.78125 C 694.58175 302.23753 690.75206 302.65223 686.875 302.875 C 682.75518 303.02482 678.62837 303.40206 674.53125 303.84375 C 670.31828 304.3757 666.15519 305.13027 661.9375 305.625 C 657.89174 306.06437 653.83357 306.38223 649.78125 306.75 C 644.85512 307.15888 639.93145 307.65531 635 308 C 631.38616 308.31432 627.74114 308.20239 624.125 308.4375 C 621.09257 308.66535 618.08452 309.04397 615.0625 309.375 C 611.47669 309.76717 607.88235 310.14509 604.28125 310.375 C 601.2929 310.55081 598.30522 310.6089 595.3125 310.625 C 593.25776 310.631 591.21098 310.627 589.15625 310.625 C 586.93612 310.627 584.72012 310.62493 582.5 310.625 C 580.52988 310.59094 578.58063 310.96153 576.625 311.15625 C 574.50609 311.54594 572.36675 311.80742 570.21875 311.96875 C 568.17562 312.07796 566.15755 312.06348 564.125 312.3125 C 562.38878 312.56835 560.62735 312.7311 558.875 312.8125 L 557.21875 314 C 556.24936 313.02047 555.94389 312.01992 556.625 310.28125 C 557.52369 308.06494 558.75584 306.00556 560 303.96875 L 557.28125 305.1875 C 556.04123 307.23375 554.81354 309.26767 553.9375 311.5 C 553.02215 313.92294 553.99978 315.09962 555.875 316.5625 C 557.30271 317.72372 558.9405 318.60137 560.65625 319.25 C 562.4274 319.67278 564.16195 320.19796 565.875 320.8125 C 567.76867 321.36812 569.43711 322.41977 571 323.59375 L 573.5 322 C 571.92561 320.80266 570.26115 319.71991 568.34375 319.15625 C 566.63801 318.52798 564.90161 317.98641 563.125 317.59375 C 561.42175 316.98432 559.79006 316.13458 558.375 315 C 558.15774 314.83512 557.96945 314.65683 557.78125 314.5 C 559.10442 314.41672 560.43769 314.29185 561.75 314.09375 C 563.78054 313.82868 565.79919 313.80345 567.84375 313.71875 C 569.99114 313.56564 572.13781 313.33401 574.25 312.90625 C 576.20353 312.71969 578.1295 312.33975 580.09375 312.34375 C 582.31305 312.34475 584.53071 312.33675 586.75 312.34375 C 588.80799 312.34778 590.87953 312.35275 592.9375 312.34375 C 595.94069 312.32381 598.9386 312.29911 601.9375 312.125 C 605.53856 311.90096 609.10272 311.5215 612.6875 311.125 C 615.70688 310.79989 618.72166 310.42388 621.75 310.1875 C 625.37473 309.9164 629.03247 310.04942 632.65625 309.71875 C 637.5859 309.37242 642.51266 308.87212 647.4375 308.46875 C 651.48751 308.09778 655.55003 307.78296 659.59375 307.34375 C 663.81318 306.85011 667.97498 306.14035 672.1875 305.59375 C 676.28257 305.15338 680.38207 304.74161 684.5 304.59375 C 688.37519 304.38218 692.24021 303.98345 696.09375 303.53125 C 699.46411 303.12086 702.82216 302.62199 706.21875 302.46875 C 709.68245 302.37761 713.14342 302.26892 716.59375 301.9375 L 719 300.15625 z "
       id="path3107" />
    <path
       style="fill:#008000;fill-opacity:1;fill-rule:nonzero;stroke:none"
       d="M 179.0625 247.4375 L 176.3125 248.53125 C 174.26142 249.74957 172.41651 251.30139 170.4375 252.625 C 168.92874 253.64211 167.89467 254.80033 167.625 256.625 C 167.81819 258.61282 169.01848 259.95314 170.34375 261.3125 C 171.68843 262.58536 173.31675 263.49301 174.875 264.46875 C 176.28616 265.38307 177.6816 266.33748 179.09375 267.25 L 181.59375 265.625 C 180.17469 264.72143 178.78691 263.7586 177.375 262.84375 C 175.83986 261.87309 174.24956 260.98922 172.90625 259.75 C 172.1769 259.00495 171.4671 258.28978 170.96875 257.4375 C 171.47979 257.43738 171.98896 257.43743 172.5 257.4375 C 174.10536 257.43824 175.70714 257.4385 177.3125 257.4375 C 179.00866 257.43699 180.71009 257.4365 182.40625 257.4375 C 183.95012 257.43931 185.51863 257.43742 187.0625 257.4375 C 188.69432 257.4372 190.30568 257.43723 191.9375 257.4375 C 193.57025 257.4385 195.211 257.4355 196.84375 257.4375 C 198.56699 257.4394 200.27695 257.43655 202 257.40625 C 203.9968 257.36013 206.02136 257.29249 208 257 C 210.10793 256.66195 212.18259 256.32763 214.3125 256.15625 C 216.28763 255.90114 218.2585 255.8975 220.25 255.9375 C 222.94972 255.93403 225.67528 255.9057 228.375 255.90625 C 231.074 255.90662 233.76975 255.90581 236.46875 255.90625 C 239.23543 255.90326 241.98331 255.90673 244.75 255.90625 C 247.60306 255.90725 250.45944 255.90825 253.3125 255.90625 C 256.73936 255.90325 260.16689 255.90651 263.59375 255.90625 C 266.48891 255.90395 269.38621 255.9067 272.28125 255.9375 C 275.11581 255.98573 277.96384 256.0662 280.78125 256.40625 C 284.30821 256.8313 287.81477 257.27886 291.34375 257.6875 C 295.94083 258.25955 300.56029 258.60193 305.1875 258.8125 C 309.93683 258.9981 314.71659 258.87925 319.46875 258.90625 C 323.55161 258.89427 327.60754 258.89022 331.6875 258.71875 C 335.9367 258.52711 340.18216 258.13425 344.4375 258.15625 L 356.90625 258.1875 C 360.47431 258.19198 364.0257 258.1975 367.59375 258.1875 C 371.13511 258.17258 374.68079 258.14055 378.21875 257.96875 C 381.95567 257.77146 385.67582 257.3966 389.40625 257.125 C 392.37941 256.89753 395.33161 256.49392 398.3125 256.375 C 401.52324 256.13138 404.74273 255.77584 407.96875 255.90625 C 411.21412 255.89732 414.47528 255.90405 417.71875 255.78125 C 421.12825 255.61761 424.5286 255.32733 427.9375 255.15625 C 431.36738 255.15635 434.78891 255.1705 438.21875 255.1875 L 440.625 253.4375 C 437.18057 253.4544 433.72571 253.43741 430.28125 253.4375 C 426.8746 253.58236 423.49954 253.86578 420.09375 254.03125 C 416.85099 254.16639 413.58876 254.1785 410.34375 254.1875 C 407.11655 254.06827 403.89998 254.37889 400.6875 254.625 C 397.70459 254.74384 394.75533 255.13787 391.78125 255.375 C 388.04742 255.64351 384.33306 256.01548 380.59375 256.21875 C 377.06192 256.39146 373.50407 256.4212 369.96875 256.4375 C 366.39768 256.4445 362.85233 256.46873 359.28125 256.46875 C 355.12901 256.46575 350.96474 256.46828 346.8125 256.46875 C 342.55634 256.43986 338.31201 256.8043 334.0625 257 C 329.98253 257.17367 325.89545 257.19905 321.8125 257.21875 C 317.06033 257.19825 312.31233 257.29451 307.5625 257.125 C 302.94348 256.92636 298.30767 256.56437 293.71875 256 C 290.19597 255.58036 286.67737 255.1517 283.15625 254.71875 C 280.33722 254.36558 277.52512 254.2425 274.6875 254.1875 C 271.78811 254.1487 268.86831 254.1845 265.96875 254.1875 C 262.54216 254.19447 259.11409 254.1885 255.6875 254.1875 C 252.83698 254.1865 250.00677 254.18708 247.15625 254.1875 C 244.39052 254.18708 241.60947 254.1905 238.84375 254.1875 C 236.14347 254.18755 233.45028 254.18673 230.75 254.1875 C 228.0529 254.1875 225.35334 254.1905 222.65625 254.1875 C 220.66365 254.16021 218.66692 254.13244 216.6875 254.375 C 214.55906 254.57008 212.45322 254.87949 210.34375 255.21875 C 208.37499 255.52466 206.39514 255.60375 204.40625 255.65625 C 202.68693 255.68945 200.96956 255.6905 199.25 255.6875 C 197.6162 255.68344 195.97756 255.68834 194.34375 255.6875 C 192.7131 255.6865 191.0994 255.68785 189.46875 255.6875 C 187.92411 255.68757 186.35715 255.6855 184.8125 255.6875 C 183.11678 255.68903 181.44571 255.68801 179.75 255.6875 C 178.14376 255.68645 176.51248 255.68676 174.90625 255.6875 C 173.7701 255.68765 172.63615 255.68788 171.5 255.6875 L 170.5 256.40625 C 170.39511 256.07179 170.30639 255.72608 170.28125 255.34375 C 170.62789 253.60691 171.77383 252.49517 173.21875 251.53125 C 175.18275 250.17925 177.01875 248.67391 179.0625 247.4375 z "
       id="path3112" />
    <text
       xml:space="preserve"
       style="font-size:16px;font-style:normal;font-variant:normal;font-weight:bold;font-stretch:normal;text-align:start;line-height:125%;letter-spacing:0px;word-spacing:0px;writing-mode:lr-tb;text-anchor:start;fill:#000000;fill-opacity:1;stroke:none;font-family:Segoe Print;-inkscape-font-specification:Segoe Print Bold"
       x="158.75018"
       y="112.85558"
       id="text3117"
       sodipodi:linespacing="125%"><tspan
         sodipodi:role="line"
         id="tspan3119"
         x="158.75018"
         y="112.85558">RDBMS</tspan></text>
    <text
       xml:space="preserve"
       style="font-size:16px;font-style:normal;font-variant:normal;font-weight:bold;font-stretch:normal;text-align:start;line-height:125%;letter-spacing:0px;word-spacing:0px;writing-mode:lr-tb;text-anchor:start;fill:#000000;fill-opacity:1;stroke:none;font-family:Segoe Print;-inkscape-font-specification:Segoe Print Bold"
       x="444.651"
       y="97.808174"
       id="text3121"
       sodipodi:linespacing="125%"><tspan
         sodipodi:role="line"
         id="tspan3123"
         x="444.651"
         y="97.808174">ViewRepository</tspan></text>
    <text
       xml:space="preserve"
       style="font-size:16px;font-style:normal;font-variant:normal;font-weight:bold;font-stretch:normal;text-align:start;line-height:125%;letter-spacing:0px;word-spacing:0px;writing-mode:lr-tb;text-anchor:start;fill:#000000;fill-opacity:1;stroke:none;font-family:Segoe Print;-inkscape-font-specification:Segoe Print Bold"
       x="808.79834"
       y="224.95879"
       id="text3125"
       sodipodi:linespacing="125%"><tspan
         sodipodi:role="line"
         id="tspan3127"
         x="808.79834"
         y="224.95879">Client</tspan></text>
    <text
       xml:space="preserve"
       style="font-size:16px;font-style:normal;font-variant:normal;font-weight:normal;font-stretch:normal;text-align:start;line-height:125%;letter-spacing:0px;word-spacing:0px;writing-mode:lr-tb;text-anchor:start;fill:#008000;fill-opacity:1;stroke:none;font-family:Segoe Print;-inkscape-font-specification:Segoe Print"
       x="602.6488"
       y="329.5383"
       id="text3129"
       sodipodi:linespacing="125%"><tspan
         sodipodi:role="line"
         id="tspan3131"
         x="602.6488"
         y="329.5383">Invoke</tspan><tspan
         sodipodi:role="line"
         x="602.6488"
         y="349.5383"
         id="tspan3133">Query Method</tspan></text>
    <text
       xml:space="preserve"
       style="font-size:16px;font-style:normal;font-variant:normal;font-weight:normal;font-stretch:normal;text-align:start;line-height:125%;letter-spacing:0px;word-spacing:0px;writing-mode:lr-tb;text-anchor:start;fill:#008000;fill-opacity:1;stroke:none;font-family:Segoe Print;-inkscape-font-specification:Segoe Print"
       x="347.59521"
       y="273.1105"
       id="text3135"
       sodipodi:linespacing="125%"><tspan
         sodipodi:role="line"
         id="tspan3137"
         x="347.59521"
         y="273.1105">Query</tspan><tspan
         sodipodi:role="line"
         x="347.59521"
         y="293.1105"
         id="tspan3139">Database</tspan></text>
    <text
       xml:space="preserve"
       style="font-size:16px;font-style:normal;font-variant:normal;font-weight:normal;font-stretch:normal;text-align:start;line-height:125%;letter-spacing:0px;word-spacing:0px;writing-mode:lr-tb;text-anchor:start;fill:#000000;fill-opacity:1;stroke:none;font-family:Segoe Print;-inkscape-font-specification:Segoe Print"
       x="112.85558"
       y="452.92709"
       id="text3141"
       sodipodi:linespacing="125%"
       inkscape:export-xdpi="90"
       inkscape:export-ydpi="90"><tspan
         sodipodi:role="line"
         id="tspan3143"
         x="112.85558"
         y="452.92709">Denormalized Tables</tspan></text>
    <text
       xml:space="preserve"
       style="font-size:16px;font-style:normal;font-variant:normal;font-weight:normal;font-stretch:normal;text-align:start;line-height:125%;letter-spacing:0px;word-spacing:0px;writing-mode:lr-tb;text-anchor:start;fill:#000000;fill-opacity:1;stroke:none;font-family:Segoe Print;-inkscape-font-specification:Segoe Print"
       x="777.19879"
       y="300.19586"
       id="text3147"
       sodipodi:linespacing="125%"><tspan
         sodipodi:role="line"
         id="tspan3149"
         x="777.19879"
         y="300.19586">MVC Controller</tspan></text>
  </g>
  <g
     inkscape:groupmode="layer"
     id="versionlayer"
     inkscape:label="Version">
    <text
       xml:space="preserve"
       style="-inkscape-font-specification:Courier New;font-family:Courier New;font-weight:normal;font-style:normal;font-stretch:normal;font-variant:normal;fill:#ff0000"
       x="10"
       y="10"
       id="versiontext">Journey_04_ViewRepository.svg (v1)</text>
  </g>
</svg>
