<?xml version="1.0" encoding="UTF-8" standalone="no"?>
<!-- Created with Inkscape (http://www.inkscape.org/) -->

<svg
   xmlns:dc="http://purl.org/dc/elements/1.1/"
   xmlns:cc="http://creativecommons.org/ns#"
   xmlns:rdf="http://www.w3.org/1999/02/22-rdf-syntax-ns#"
   xmlns:svg="http://www.w3.org/2000/svg"
   xmlns="http://www.w3.org/2000/svg"
   xmlns:sodipodi="http://sodipodi.sourceforge.net/DTD/sodipodi-0.dtd"
   xmlns:inkscape="http://www.inkscape.org/namespaces/inkscape"
   width="1052.3622"
   height="744.09448"
   id="svg2"
   version="1.1"
   inkscape:version="0.48.2 r9819"
   sodipodi:docname="Reference_06_Naive.svg">
  <title
     id="title3970">No Process Manager</title>
  <defs
     id="defs4" />
  <sodipodi:namedview
     id="base"
     pagecolor="#ffffff"
     bordercolor="#666666"
     borderopacity="1.0"
     inkscape:pageopacity="0.0"
     inkscape:pageshadow="2"
     inkscape:zoom="1.3056341"
     inkscape:cx="526.18109"
     inkscape:cy="372.04724"
     inkscape:document-units="px"
     inkscape:current-layer="layer2"
     showgrid="false"
     inkscape:window-width="1846"
     inkscape:window-height="1178"
     inkscape:window-x="1592"
     inkscape:window-y="-8"
     inkscape:window-maximized="1" />
  <metadata
     id="metadata7">
    <rdf:RDF>
      <cc:Work
         rdf:about="">
        <dc:format>image/svg+xml</dc:format>
        <dc:type
           rdf:resource="http://purl.org/dc/dcmitype/StillImage" />
        <dc:title>No Process Manager</dc:title>
      </cc:Work>
    </rdf:RDF>
  </metadata>
  <g
     inkscape:label="Templates"
     inkscape:groupmode="layer"
     id="layer1"
     transform="translate(0,-308.2677)"
     style="display:none">
    <path
       sodipodi:type="arc"
       style="fill:none;stroke:#800000;stroke-width:2;stroke-miterlimit:4;stroke-opacity:1;stroke-dasharray:none;stroke-dashoffset:0"
       id="path3757"
       sodipodi:cx="446.90927"
       sodipodi:cy="271.52719"
       sodipodi:rx="82.335472"
       sodipodi:ry="56.677441"
       d="m 529.24474,271.52719 c 0,31.30209 -36.86284,56.67744 -82.33547,56.67744 -45.47262,0 -82.33547,-25.37535 -82.33547,-56.67744 0,-31.30208 36.86285,-56.67744 82.33547,-56.67744 45.47263,0 82.33547,25.37536 82.33547,56.67744 z"
       transform="translate(0,308.2677)" />
    <path
       transform="translate(195.69034,224.78336)"
       sodipodi:type="arc"
       style="fill:none;stroke:#800000;stroke-width:2;stroke-miterlimit:4;stroke-opacity:1;stroke-dasharray:none;stroke-dashoffset:0;display:inline"
       id="path3757-1"
       sodipodi:cx="446.90927"
       sodipodi:cy="271.52719"
       sodipodi:rx="82.335472"
       sodipodi:ry="56.677441"
       d="m 529.24474,271.52719 c 0,31.30209 -36.86284,56.67744 -82.33547,56.67744 -45.47262,0 -82.33547,-25.37535 -82.33547,-56.67744 0,-31.30208 36.86285,-56.67744 82.33547,-56.67744 45.47263,0 82.33547,25.37536 82.33547,56.67744 z" />
    <path
       transform="translate(187.26532,427.74986)"
       sodipodi:type="arc"
       style="fill:none;stroke:#800000;stroke-width:2;stroke-miterlimit:4;stroke-opacity:1;stroke-dasharray:none;stroke-dashoffset:0;display:inline"
       id="path3757-7"
       sodipodi:cx="446.90927"
       sodipodi:cy="271.52719"
       sodipodi:rx="82.335472"
       sodipodi:ry="56.677441"
       d="m 529.24474,271.52719 c 0,31.30209 -36.86284,56.67744 -82.33547,56.67744 -45.47262,0 -82.33547,-25.37535 -82.33547,-56.67744 0,-31.30208 36.86285,-56.67744 82.33547,-56.67744 45.47263,0 82.33547,25.37536 82.33547,56.67744 z" />
  </g>
  <g
     inkscape:groupmode="layer"
     id="layer2"
     inkscape:label="Drawing">
    <path
       style="fill:#000000;fill-opacity:1;fill-rule:nonzero;stroke:none"
       id="path3784"
       d="m 381.087,194.29595 c -2.16673,-0.0115 -4.3335,-0.005 -6.50025,-0.006 -1.79647,-0.11249 -3.53655,0.048 -5.29678,0.37379 -1.56916,0.32619 -3.17951,0.24135 -4.75703,0.47783 -1.71969,0.13273 -3.33608,0.72589 -5.00868,1.09178 -1.74176,0.15529 -3.4541,0.45229 -5.18094,0.71801 -1.82077,0.17358 -3.62033,0.51075 -5.39091,0.96729 -1.9031,0.37468 -3.66485,1.16654 -5.47514,1.82376 -1.71038,0.45676 -3.36153,1.0948 -5.0568,1.59823 -1.60933,0.40454 -3.19501,0.89604 -4.7736,1.4067 -1.73186,0.64103 -3.43767,1.34341 -5.14512,2.04772 -1.52021,0.63846 -2.98673,1.44433 -4.55544,1.95501 -1.54343,0.73005 -3.14116,1.36731 -4.6122,2.2377 -0.78406,0.53384 -3.51484,1.75013 0.34667,-0.23607 0.28873,-0.14851 -0.54541,0.35248 -0.82025,0.52535 -1.2449,0.78304 -0.39097,0.20701 -1.54096,1.01001 -1.35445,0.89658 -2.68107,1.79517 -3.88434,2.88881 -1.52947,1.56996 -2.98323,3.20117 -4.38256,4.88638 -1.14707,1.57228 -2.29723,3.13951 -3.41632,4.73221 -1.0303,1.34175 -1.68847,2.89128 -2.4882,4.36623 -0.84457,1.48834 -1.58959,3.02024 -2.19798,4.61973 -0.66133,1.70326 -1.28407,3.42676 -1.8175,5.17492 -0.46086,1.58434 -0.54687,3.23205 -0.59985,4.87041 -0.28077,1.8582 -0.52252,3.71379 -0.64775,5.58986 -0.11063,1.89468 -0.12356,3.79292 -0.13499,5.69019 -0.16775,2.00288 0.28739,3.89945 0.87566,5.79592 0.75215,1.90647 1.60641,3.77746 2.66224,5.53543 1.18862,1.78073 2.49232,3.4775 3.73304,5.22128 1.32836,1.66076 2.36128,3.51895 3.40564,5.36261 1.00288,1.29509 1.7525,2.74617 2.52732,4.18074 0.67394,1.33409 1.41148,2.6306 2.21502,3.89049 0.83981,1.34516 1.77017,2.62595 2.82662,3.80969 0.94372,0.99892 1.93551,1.97032 2.93429,2.92602 1.27074,1.01789 2.62049,1.92111 3.99631,2.78899 1.93416,0.98111 3.84507,2.00509 5.86224,2.8081 2.60761,1.1924 5.16308,2.478 7.83589,3.52117 2.14112,0.96764 4.34727,1.73632 6.66466,2.12907 1.70524,0.24778 3.3746,0.63034 5.0943,0.79137 2.06001,0.0916 4.12101,0.30123 6.1336,0.759 1.81685,0.56112 3.71764,0.6551 5.57953,0.96676 2.0696,0.31272 4.09317,0.83574 6.16215,1.1527 2.06964,0.24248 4.09961,0.72875 6.13542,1.15876 2.01232,0.58781 4.04491,1.07074 6.12563,1.33074 1.65698,0.1746 3.32508,0.17473 4.98916,0.18071 1.78146,0.005 3.53533,0.38745 5.30738,0.5586 1.90365,0.27245 3.79305,-0.0593 5.68136,-0.2823 1.70944,-0.12336 3.4028,-0.43121 5.06191,-0.85752 1.75266,-0.37879 3.42749,-1.01776 5.18862,-1.35639 1.82732,-0.45008 3.5862,-1.11565 5.36676,-1.71672 1.85908,-0.39653 3.59691,-1.09492 5.33282,-1.8513 1.78267,-0.74649 3.62963,-1.29434 5.46707,-1.87937 1.44364,-0.69459 2.92272,-1.30985 4.42358,-1.86341 0.21177,-0.10925 0.84144,-0.44724 0.63529,-0.32775 -0.64914,0.37625 -1.3032,0.74434 -1.96475,1.09832 -0.22042,0.11795 0.42347,-0.2661 0.6407,-0.38984 1.54056,-0.87752 3.04285,-1.78174 4.64742,-2.52239 2.28923,-1.23501 -1.51838,0.90233 -1.13602,0.68145 7.79099,-4.50047 2.39382,-1.29847 1.50846,-0.94432 -0.58151,0.23261 1.01916,-0.72833 1.52428,-1.09864 1.58211,-0.96494 3.01442,-2.10396 4.38379,-3.34426 1.33255,-1.10558 2.74873,-2.1145 4.01014,-3.30239 1.40085,-1.37871 2.7164,-2.83766 4.05342,-4.27775 1.36733,-1.55019 2.58211,-3.22469 3.79052,-4.89937 0.87919,-1.18464 1.56696,-2.48001 2.32392,-3.74064 0.82077,-1.36392 1.37924,-2.85444 1.95968,-4.32915 0.64973,-1.58365 1.26556,-3.17506 1.79687,-4.80324 0.53767,-1.80998 0.96046,-3.64839 1.56926,-5.43591 0.53538,-1.43301 0.96256,-2.89464 1.40507,-4.3573 0.51105,-1.45779 0.73642,-2.97811 0.86238,-4.51037 0.0965,-1.52627 0.0916,-3.05649 0.0925,-4.58509 4e-5,-1.71739 -0.003,-3.43478 -0.006,-5.15217 -0.1145,-1.62417 -0.78654,-3.13238 -1.37666,-4.62779 -0.74498,-1.38773 -1.41138,-2.8238 -2.23351,-4.16744 -0.83929,-1.32783 -1.70849,-2.63735 -2.57447,-3.95063 -0.97715,-1.40273 -1.92569,-2.82528 -2.86592,-4.25337 -1.04249,-1.34845 -2.1181,-2.66502 -3.26149,-3.92933 -1.28531,-1.37679 -2.52786,-2.78234 -3.87233,-4.10281 -1.1358,-1.20267 -2.57333,-2.04169 -3.94575,-2.94139 -1.16074,-0.971 -2.34203,-1.91101 -3.56691,-2.79926 -1.54319,-1.10847 -3.28192,-1.84374 -4.96196,-2.70055 -2.05614,-1.16311 -4.14765,-2.26212 -6.25494,-3.33024 -2.05656,-1.08138 -4.23877,-1.89316 -6.3813,-2.78549 -1.98336,-0.75329 -3.9509,-1.57043 -5.86612,-2.48495 -1.76757,-0.78207 -3.52748,-1.59352 -5.39926,-2.09307 -1.57223,-0.46315 -3.06718,-1.12715 -4.65679,-1.53191 -1.7253,-0.61238 -3.47999,-1.13838 -5.21714,-1.71673 -1.71229,-0.52935 -3.42646,-1.04807 -5.1868,-1.39295 -1.64993,-0.16152 -3.25422,-0.57494 -4.88819,-0.83863 -1.01596,-0.15335 -2.04222,-0.20519 -3.06739,-0.24885 0,0 2.45824,-1.76876 2.45824,-1.76876 l 0,0 c 1.03234,0.0513 2.06554,0.11281 3.08723,0.27868 1.6319,0.27795 3.24337,0.66139 4.88998,0.85015 1.76412,0.36571 3.48989,0.88225 5.20781,1.42173 1.73936,0.56139 3.47356,1.13438 5.21036,1.69948 1.58144,0.42861 3.08114,1.08668 4.65679,1.53639 1.87259,0.53365 3.64379,1.34823 5.41705,2.14397 1.9187,0.90015 3.88306,1.71046 5.86027,2.47237 2.1443,0.9028 4.33328,1.71067 6.39012,2.8058 2.10801,1.06768 4.19246,2.18006 6.2582,3.32693 1.70512,0.84427 3.44185,1.62018 4.99823,2.73505 1.22243,0.8845 2.39408,1.83019 3.56235,2.78504 1.38946,0.9064 2.82203,1.78319 3.97137,2.99584 1.3478,1.32496 2.58519,2.74347 3.88021,4.11871 1.15488,1.27457 2.24472,2.59964 3.28681,3.96808 0.94133,1.42743 1.89111,2.84921 2.87093,4.25016 0.86888,1.31505 1.73712,2.62984 2.57555,3.96218 0.83007,1.35948 1.51607,2.80426 2.26236,4.21103 0.60487,1.52942 1.28321,3.07246 1.42749,4.72933 9.5e-4,1.71686 0.004,3.43372 0.01,5.15058 0,1.53558 0.006,3.07254 -0.0819,4.60622 -0.11632,1.55045 -0.32034,3.0945 -0.83323,4.57108 -0.46363,1.45771 -0.84194,2.93969 -1.40281,4.36654 -0.62105,1.78414 -1.06583,3.61407 -1.57701,5.43285 -0.52001,1.63629 -1.12603,3.23469 -1.78305,4.8194 -0.59719,1.47917 -1.12279,2.99301 -1.93641,4.37468 -0.77865,1.25487 -1.42909,2.57868 -2.31866,3.764 -1.21687,1.68184 -2.43457,3.36426 -3.78965,4.93914 -1.33548,1.4395 -2.64131,2.90508 -4.03471,4.28747 -1.22933,1.22262 -2.65736,2.22779 -4.0048,3.31219 -1.3797,1.23188 -2.75619,2.45104 -4.37663,3.37283 -1.58221,1.17584 -3.15671,2.04656 -4.85806,3.14726 -0.59684,0.38612 2.45819,-1.42895 1.84054,-1.07707 -4.03117,2.29656 -2.08546,1.29773 -4.05505,2.29128 -0.46621,0.22539 -1.8235,0.97849 -1.38656,0.70058 4.93651,-3.13978 -1.00184,0.85802 -2.58772,1.4238 -1.48757,0.58705 -2.96783,1.18418 -4.42597,1.8421 -1.83912,0.56894 -3.67044,1.15904 -5.44802,1.90444 -1.74094,0.74836 -3.49882,1.39409 -5.34633,1.83104 -1.78287,0.61151 -3.55403,1.26469 -5.39417,1.68933 -1.74833,0.37562 -3.43113,0.98935 -5.1805,1.36578 -1.67419,0.39574 -3.36687,0.71104 -5.08543,0.82826 -1.90082,0.22458 -3.80479,0.5094 -5.71879,0.22861 -1.76431,-0.18006 -3.51425,-0.555 -5.29203,-0.5343 -1.67206,-0.008 -3.3486,-0.0123 -5.01144,-0.21166 -2.08017,-0.2848 -4.10839,-0.79439 -6.12986,-1.35664 -2.03258,-0.43101 -4.06351,-0.89142 -6.12831,-1.14419 -2.0666,-0.33091 -4.09487,-0.84462 -6.16588,-1.15129 -1.87106,-0.28554 -3.76649,-0.43365 -5.5899,-0.9807 -2.01218,-0.42608 -4.0599,-0.63145 -6.11296,-0.72946 -1.72285,-0.17332 -3.3996,-0.55925 -5.11058,-0.80911 -2.31965,-0.4314 -4.52461,-1.23166 -6.67772,-2.1921 -2.67202,-1.04981 -5.22351,-2.35339 -7.84608,-3.51756 -2.02779,-0.82254 -3.9626,-1.83676 -5.902,-2.84679 -1.39398,-0.87611 -2.76397,-1.78988 -4.0397,-2.83371 -1.00372,-0.96081 -2.00219,-1.9378 -2.94568,-2.94855 -1.05663,-1.20434 -2.00089,-2.49237 -2.84856,-3.85152 -0.8097,-1.26497 -1.55264,-2.56621 -2.22574,-3.90964 -0.77624,-1.43145 -1.52369,-2.88068 -2.51659,-4.18038 -1.03732,-1.83617 -2.06159,-3.6867 -3.38774,-5.33709 -1.24313,-1.75169 -2.55207,-3.45431 -3.74828,-5.23934 -1.06756,-1.77937 -1.92536,-3.67424 -2.69104,-5.60137 -0.60568,-1.91961 -1.09868,-3.84125 -0.92719,-5.87363 0.005,-1.90385 0.0273,-3.80838 0.13325,-5.70973 0.11769,-1.87154 0.31496,-3.72944 0.64485,-5.57661 0.0455,-1.6602 0.11442,-3.33033 0.5634,-4.94073 0.51943,-1.75747 1.15508,-3.48318 1.81195,-5.19293 0.58001,-1.62064 1.33406,-3.15991 2.17635,-4.65991 0.82516,-1.4703 1.44225,-3.0496 2.47812,-4.39933 1.13933,-1.58578 2.27036,-3.17122 3.41218,-4.75617 1.41274,-1.67961 2.84313,-3.33217 4.36222,-4.91967 1.18866,-1.12118 2.48823,-2.04965 3.86832,-2.92334 2.25294,-1.65148 4.74999,-2.94047 7.17809,-4.31285 1.50093,-0.82568 3.07637,-1.51895 4.6488,-2.19546 1.5451,-0.57054 3.02486,-1.31708 4.539,-1.96487 1.7079,-0.71298 3.42479,-1.39901 5.16421,-2.03202 1.57757,-0.51264 3.17117,-0.97555 4.77463,-1.40012 1.68767,-0.52177 3.35035,-1.12064 5.04752,-1.61366 1.80577,-0.67647 3.59292,-1.40428 5.49128,-1.79491 1.78144,-0.43234 3.583,-0.76081 5.40746,-0.94641 1.72334,-0.28043 3.445,-0.51476 5.17542,-0.73852 1.66852,-0.38877 3.30139,-0.92901 5.02071,-1.06768 1.58174,-0.19172 3.18782,-0.16164 4.75405,-0.49292 1.76432,-0.31679 3.52183,-0.39874 5.31559,-0.3199 2.17227,-7.4e-4 4.34456,0.005 6.51681,-0.006 0,0 -2.45472,1.78346 -2.45472,1.78346 z"
       inkscape:connector-curvature="0" />
    <path
       style="fill:#000000;fill-opacity:1;fill-rule:nonzero;stroke:none"
       id="path3786"
       d="m 571.78651,26.452164 c -2.12243,-0.30948 -4.26156,-0.47443 -6.40257,-0.58179 -1.96756,-0.0787 -3.93707,-0.0817 -5.90588,-0.0848 -1.83592,-0.12861 -3.62317,0.10714 -5.43152,0.36944 -1.84059,0.15344 -3.65386,0.44761 -5.47544,0.74339 -1.74884,0.29114 -3.51946,0.36637 -5.28835,0.408 -1.72221,-0.0443 -3.43989,0.15335 -5.10126,0.60742 -1.5741,0.56077 -3.24272,0.65385 -4.86832,0.95911 -1.67954,0.33148 -3.39025,0.4967 -4.982,1.15643 -1.75378,0.55558 -3.47189,1.19048 -5.13979,1.96993 -1.69932,0.6535 -3.33918,1.4184 -4.93147,2.30175 -0.25969,0.13032 -1.03147,0.53486 -0.77906,0.39096 4.21825,-2.40474 -0.3678,0.37069 -1.2477,0.93441 -1.53264,1.14095 -3.06958,2.29919 -4.50804,3.55884 -1.35352,1.01223 -2.48143,2.2507 -3.66116,3.44701 -1.12,1.23928 -2.25508,2.45828 -3.36304,3.70781 -1.29408,1.47163 -2.41752,3.06385 -3.46059,4.71936 -0.93757,1.25463 -1.73518,2.60197 -2.60829,3.89962 -0.9724,1.4706 -1.62913,3.11393 -2.27158,4.74728 -0.88507,1.49297 -1.24323,3.14915 -1.66115,4.80681 -0.44076,1.5713 -0.6338,3.1898 -1.0021,4.77702 -0.37545,1.50113 -0.51154,3.04099 -0.589,4.58149 -0.23948,1.53284 -0.52269,3.05376 -0.67183,4.59941 -0.13487,1.67821 -0.13673,3.36321 -0.14431,5.04568 -0.006,1.95471 -0.003,3.90945 -5e-4,5.86416 -0.1374,1.80162 0.45703,3.48867 0.8883,5.20359 0.60469,1.88921 1.40596,3.7209 2.20907,5.534926 0.8926,1.69911 1.74174,3.42425 2.75785,5.05398 0.86354,1.44795 1.76018,2.86625 2.84331,4.16204 1.09138,1.48326 2.41693,2.75828 3.72215,4.04926 1.13164,1.32925 2.47701,2.44181 3.83954,3.52216 1.69287,1.45121 3.44891,2.80586 5.26561,4.09784 1.60966,1.03817 3.2696,1.99239 4.94954,2.91384 1.43976,0.9506 3.07708,1.48149 4.69674,2.03032 1.71743,0.53635 3.48802,0.87264 5.22015,1.34725 1.72086,0.43124 3.45489,0.81344 5.19223,1.17821 1.64737,0.49843 3.31714,0.9073 4.98408,1.33119 1.81977,0.69123 3.71845,1.05356 5.64489,1.27436 1.6858,0.0819 3.36491,0.30412 4.99204,0.759 1.75349,0.45749 3.5444,0.71855 5.31711,1.08717 1.95727,0.3945 3.88986,0.87364 5.87032,1.14735 1.79244,0.0931 3.55537,0.36166 5.33139,0.60447 2.03103,0.1542 4.02453,0.57049 6.03892,0.85354 1.86634,0.2257 3.74701,0.27563 5.62477,0.30359 1.756,-0.0859 3.48033,0.26634 5.21422,0.48524 1.91544,0.22594 3.84664,0.25179 5.7729,0.27766 1.85232,0.016 3.70475,0.0131 5.55712,0.0109 1.6743,-0.003 3.3486,-0.005 5.02291,-0.005 1.95598,-0.20411 3.87448,-0.69344 5.76928,-1.20803 1.71992,-0.45773 3.32209,-1.20934 5.0693,-1.57901 1.23388,-0.43108 2.48378,-0.78494 3.72963,-1.17124 1.70259,-0.65692 3.33182,-1.48748 4.97189,-2.28944 1.85275,-0.88942 3.6915,-1.81063 5.55699,-2.67341 1.62983,-0.71054 3.15985,-1.59093 4.75418,-2.37195 -4.57759,2.75775 0.42395,-0.49723 1.28264,-1.10219 1.4128,-1.01325 2.87548,-1.94575 4.30787,-2.93102 1.81588,-1.35339 3.51163,-2.85347 5.09232,-4.47342 1.34566,-1.25296 2.51477,-2.67653 3.79671,-3.9866 1.21559,-1.15993 2.34457,-2.38884 3.29828,-3.7733 0.91153,-1.33497 1.91774,-2.59622 2.81425,-3.9432 0.98968,-1.51216 1.64897,-3.19608 2.39366,-4.83354 0.68759,-1.567706 1.19833,-3.214426 1.65567,-4.863176 0.42984,-1.46883 0.37176,-3.00939 0.60049,-4.50665 0.325,-1.31243 0.51129,-2.64456 0.61231,-3.9909 0.0921,-1.61248 0.0897,-3.22848 0.0928,-4.84302 0.0136,-1.74647 -0.37103,-3.4635 -0.55134,-5.19708 -0.24513,-1.701 -0.65871,-3.35366 -1.25953,-4.96187 -0.59947,-1.5596 -0.96729,-3.18943 -1.56672,-4.7494 -0.6162,-1.67439 -1.32866,-3.28834 -2.20806,-4.83961 -0.84022,-1.30186 -1.49536,-2.70441 -2.28012,-4.0395 -1.12535,-1.55419 -2.47807,-2.95251 -3.789,-4.3556 -1.28262,-1.67886 -2.78919,-3.14405 -4.31814,-4.59287 -1.27639,-1.23255 -2.67604,-2.32457 -4.0478,-3.44758 -1.61668,-1.16926 -3.30682,-2.23067 -4.96482,-3.33932 -1.86447,-1.04738 -3.62361,-2.26782 -5.46947,-3.34536 -1.5967,-0.86689 -3.23647,-1.58721 -4.91745,-2.26962 -1.97577,-0.82366 -3.95112,-1.64626 -5.9333,-2.45194 -1.64833,-0.72491 -3.24635,-1.52156 -4.91041,-2.20795 -1.52722,-0.53173 -3.08213,-0.92173 -4.58959,-1.51607 -1.66525,-0.50624 -3.27295,-1.17174 -4.91155,-1.75205 -1.91482,-0.55126 -3.78433,-1.24506 -5.69871,-1.79821 -1.65889,-0.33776 -3.3167,-0.66187 -4.97743,-0.99685 -1.49745,-0.51215 -3.02928,-0.85255 -4.59904,-1.03512 -1.65116,-0.19542 -3.27493,-0.54441 -4.93325,-0.71845 -1.68894,-0.0339 -3.3357,-0.27131 -4.99603,-0.5568 -1.72943,-0.30527 -3.43211,-0.71807 -5.17648,-0.9469 -0.8136,-0.0994 -1.6322,-0.13798 -2.45028,-0.17634 0,0 2.4577,-1.76668 2.4577,-1.76668 l 0,0 c 0.82249,0.0448 1.64548,0.0903 2.46272,0.19889 1.74373,0.24567 3.45009,0.66312 5.18514,0.95399 1.65395,0.28621 3.30279,0.47384 4.98144,0.54391 1.65769,0.18606 3.28466,0.53687 4.94057,0.71851 1.57244,0.20378 3.10007,0.57717 4.61178,1.05556 1.66237,0.34492 3.33244,0.63852 4.98516,1.02227 1.9138,0.57051 3.79508,1.24392 5.7098,1.81182 1.63836,0.5916 3.2604,1.22613 4.92116,1.755 1.51283,0.57459 3.0727,0.966 4.59009,1.523 1.66546,0.67929 3.24953,1.50761 4.90514,2.21148 1.97747,0.81849 3.95755,1.62789 5.93464,2.44905 1.6947,0.6807 3.33928,1.4293 4.94344,2.30644 1.83886,1.09567 3.60923,2.30307 5.46816,3.36588 1.6707,1.10938 3.37854,2.1654 4.99424,3.35526 1.37989,1.12304 2.77126,2.23487 4.05319,3.47057 1.53253,1.45308 3.03075,2.93294 4.3202,4.61263 1.33011,1.41687 2.70717,2.82463 3.8417,4.40182 0.78737,1.33588 1.43375,2.745 2.27675,4.04762 0.88185,1.56565 1.6095,3.18999 2.23101,4.87715 0.60645,1.55906 0.97265,3.18946 1.56719,4.75215 0.61898,1.62999 1.03326,3.30675 1.29376,5.03192 0.17749,1.74388 0.56973,3.46926 0.56697,5.22442 -0.002,1.61949 0.009,3.24026 -0.0761,4.85812 -0.0914,1.3543 -0.25003,2.70101 -0.59786,4.01685 -0.28326,1.49679 -0.15969,3.05689 -0.593,4.53562 -0.4452,1.6658 -0.97187,3.32249 -1.64085,4.9112 -0.7604,1.639816 -1.39414,3.342066 -2.36794,4.873736 -0.89604,1.34977 -1.87669,2.62848 -2.81546,3.94533 -0.92746,1.41572 -2.05086,2.6614 -3.27345,3.82991 -1.33421,1.25119 -2.4232,2.77243 -3.81022,3.98355 -1.57449,1.63811 -3.26739,3.14755 -5.07201,4.52957 -1.42797,0.98577 -2.87549,1.91967 -4.29413,2.91761 -2.03963,1.52526 -4.26071,2.83911 -6.46108,4.10634 -1.57987,0.80552 -3.13859,1.63317 -4.75615,2.36331 -1.85793,0.87686 -3.7059,1.77558 -5.55269,2.67538 -1.65253,0.79272 -3.27942,1.65232 -5.00959,2.26437 -1.24124,0.40734 -2.50182,0.7392 -3.74322,1.14754 -1.72628,0.40538 -3.32968,1.15608 -5.05019,1.58005 -1.91399,0.5013 -3.84691,1.01428 -5.82702,1.15301 -1.67256,2.7e-4 -3.34512,7.5e-4 -5.01768,0.002 -1.85237,0.001 -3.70483,0.007 -5.55709,-0.0168 -1.93463,-0.0313 -3.87456,-0.0608 -5.79692,-0.30236 -1.72644,-0.22498 -3.44691,-0.53813 -5.19608,-0.45707 -1.88431,-0.0357 -3.77134,-0.0976 -5.6427,-0.33746 -2.01135,-0.295 -4.00777,-0.68708 -6.03638,-0.85312 -1.77625,-0.24542 -3.54673,-0.47024 -5.33535,-0.60375 -1.98043,-0.29341 -3.91739,-0.77854 -5.88033,-1.1634 -1.77788,-0.36872 -3.57731,-0.62316 -5.33211,-1.09776 -1.62618,-0.41648 -3.2877,-0.6318 -4.96257,-0.72708 -1.93398,-0.24244 -3.83215,-0.63956 -5.66903,-1.30579 -1.66275,-0.42796 -3.32918,-0.83659 -4.97692,-1.32123 -1.73905,-0.37572 -3.48167,-0.74009 -5.20242,-1.18991 -1.74483,-0.45343 -3.50911,-0.82978 -5.23388,-1.36317 -1.6303,-0.56414 -3.26974,-1.11858 -4.72169,-2.07722 -1.68193,-0.93613 -3.35835,-1.88025 -4.96026,-2.94841 -1.81474,-1.30281 -3.57866,-2.65677 -5.27818,-4.10738 -1.374,-1.08519 -2.72525,-2.207 -3.86107,-3.54884 -1.30591,-1.30312 -2.64298,-2.58068 -3.73951,-4.07154 -1.09087,-1.30706 -1.99442,-2.73786 -2.86155,-4.19982 -1.0237,-1.64193 -1.87572,-3.3812 -2.77484,-5.09306 -0.81148,-1.828886 -1.61826,-3.675666 -2.23889,-5.577416 -0.43633,-1.73696 -1.05651,-3.44539 -0.91996,-5.27066 -5.6e-4,-1.9545 -0.006,-3.90899 -0.004,-5.8635 0.008,-1.68946 0.003,-3.38149 0.12768,-5.06734 0.13953,-1.54287 0.39719,-3.06434 0.67784,-4.58712 0.0712,-1.55604 0.19424,-3.11349 0.56598,-4.63148 0.37447,-1.58934 0.57369,-3.2067 1.00178,-4.78444 0.43726,-1.65967 0.70917,-3.36044 1.64972,-4.84117 0.63586,-1.65039 1.28792,-3.30805 2.23815,-4.80725 0.88664,-1.2879 1.64793,-2.65843 2.61708,-3.8902 1.03243,-1.67453 2.15711,-3.27422 3.44126,-4.76773 1.11992,-1.24113 2.23441,-2.47457 3.35079,-3.72217 1.20606,-1.17135 2.27,-2.48381 3.6588,-3.46261 1.4118,-1.29565 2.99114,-2.41203 4.491,-3.60242 2.3333,-1.53674 4.78059,-2.92557 7.1957,-4.31968 1.60349,-0.86133 3.25039,-1.60977 4.94114,-2.28247 1.68294,-0.75674 3.40991,-1.38019 5.15958,-1.96181 1.62207,-0.58067 3.32643,-0.7835 5.01213,-1.10636 1.63042,-0.27505 3.28037,-0.44589 4.8576,-0.97921 1.68555,-0.40321 3.40369,-0.59858 5.13864,-0.5505 1.76109,-0.0497 3.5229,-0.1436 5.26271,-0.44013 1.82213,-0.2993 3.64261,-0.55928 5.48051,-0.74111 1.81369,-0.26942 3.61667,-0.43247 5.45469,-0.33109 1.97171,0.005 3.9441,0.0104 5.91428,0.0977 2.15035,0.11955 4.29681,0.30235 6.43126,0.59446 0,0 -2.47954,1.74827 -2.47954,1.74827 z"
       inkscape:connector-curvature="0" />
    <path
       style="fill:#000000;fill-opacity:1;fill-rule:nonzero;stroke:none"
       id="path3788"
       d="m 624.6597,336.86432 c -2.20121,0.30417 -4.41614,0.46913 -6.63478,0.57009 -1.97137,0.0814 -3.94461,0.0841 -5.91727,0.0882 -1.69402,-0.033 -3.36205,-0.0446 -5.03416,0.23571 -1.45918,0.13503 -2.84891,0.49573 -4.26109,0.85705 -1.41181,0.25858 -2.82308,0.55979 -4.18931,1.00567 -1.66297,0.56083 -3.36405,1.06563 -4.9703,1.7835 -1.75483,0.70577 -3.50366,1.43218 -5.13161,2.39939 0.55563,-0.29387 1.08568,-0.64228 1.66689,-0.88162 0.35312,-0.14541 -0.6547,0.39348 -0.97741,0.59769 -1.12068,0.70916 -2.23711,1.43013 -3.32602,2.18714 -1.46249,0.97919 -2.77139,2.16625 -4.20989,3.17353 -1.35534,0.96971 -2.70614,1.93845 -4.0293,2.95182 -1.51811,1.1684 -3.11128,2.23788 -4.71224,3.28903 -1.64253,1.17745 -3.3744,2.22454 -4.95764,3.48201 -1.41029,1.14919 -2.73875,2.38938 -4.08796,3.60793 -1.07697,1.23849 -2.19543,2.43528 -3.21256,3.72399 -0.96189,1.0553 -1.88146,2.17273 -2.58142,3.42141 -0.69185,1.33353 -1.33554,2.69354 -1.97006,4.05558 -0.54185,1.51772 -1.05667,3.06015 -1.42059,4.63332 -0.23589,1.66266 -0.57591,3.30792 -0.82218,4.96941 -0.38752,1.6129 -0.73878,3.22574 -0.9251,4.87512 -0.15906,1.92186 -0.15522,3.85274 -0.16108,5.77982 -0.0718,1.69829 0.1283,3.3892 0.54194,5.03508 0.339,1.59131 0.92046,3.09031 1.55451,4.58189 0.87016,1.50073 1.83046,2.954 2.8321,4.37084 1.15106,1.5199 2.25187,3.07723 3.32322,4.65419 1.06559,1.51841 2.28535,2.91766 3.43105,4.37372 1.02147,1.28252 2.22474,2.34261 3.53872,3.31111 1.70223,1.25009 3.30825,2.61678 4.94186,3.95372 1.86593,1.32183 3.81285,2.54002 5.78768,3.69342 2.03033,0.93796 4.08385,1.82063 6.06044,2.86826 1.85129,0.88452 3.74344,1.6822 5.59652,2.56455 1.78547,0.89497 3.67704,1.45063 5.57113,2.05007 1.65897,0.78557 3.43505,1.24217 5.15629,1.85945 2.02675,0.57999 4.00571,1.2982 5.99735,1.98802 1.71426,0.46097 3.40217,1.01944 5.14413,1.37154 1.7016,0.22433 3.39493,0.52446 5.06867,0.90894 2.17727,0.5149 4.32091,1.10441 6.53831,1.43325 1.87741,0.15158 3.74359,0.41817 5.57308,0.8713 1.99569,0.54771 4.06704,0.72897 6.12512,0.85963 1.71172,-0.0432 3.37773,0.32614 5.06139,0.56906 1.91416,0.21836 3.84372,0.24673 5.76819,0.27274 1.71598,0.0558 3.39375,-0.38145 5.09393,-0.5592 1.51101,-0.39347 3.02979,-0.70141 4.58543,-0.83889 1.69579,-0.3447 3.39921,-0.62112 5.12301,-0.77378 1.57336,-0.37051 3.16239,-0.59682 4.72687,-1.00237 1.70692,-0.3181 3.40924,-0.64164 5.1149,-0.97661 1.74443,-0.48267 3.48268,-0.98859 5.23985,-1.425 1.64459,-0.53359 3.27874,-1.11143 4.88349,-1.75557 1.45414,-0.813 3.05623,-1.31282 4.50535,-2.12942 1.61943,-0.71983 3.20178,-1.49169 4.7564,-2.34006 -4.58899,3.04327 1.17059,-1.18811 1.87189,-1.77793 1.21951,-1.02824 2.31565,-2.22949 3.3475,-3.4478 0.92843,-1.12475 1.98258,-2.13051 2.93049,-3.23724 1.33617,-1.51658 2.69348,-3.01282 3.98823,-4.56518 0.94994,-1.01101 1.75694,-2.14213 2.59435,-3.24631 1.10061,-1.29157 1.84453,-2.82902 2.8419,-4.19706 1.20488,-1.39749 2.03092,-3.00454 2.85741,-4.63607 0.78622,-1.81063 1.65198,-3.59543 2.29267,-5.46461 0.53769,-1.88518 1.0958,-3.75521 1.38334,-5.69735 0.37066,-1.75305 0.69289,-3.51019 0.86698,-5.29408 0.14251,-1.9459 0.13949,-3.89885 0.14413,-5.84887 1.1e-4,-1.64632 -0.005,-3.29263 -0.008,-4.93895 -0.0538,-1.49387 0.10425,-3.00195 -0.0867,-4.48685 -0.18257,-1.18634 -0.57387,-2.33521 -1.11882,-3.40313 -0.58091,-1.01833 -1.24435,-2.0151 -1.95272,-2.95289 -1.05946,-1.23735 -1.95123,-2.59323 -3.02669,-3.81826 -1.23272,-1.12882 -2.24374,-2.46529 -3.43025,-3.64137 -0.98486,-1.11577 -2.10116,-2.11496 -3.23874,-3.06911 -1.2112,-1.00533 -2.14307,-2.27909 -3.21848,-3.41526 -1.31929,-1.1935 -2.63907,-2.39049 -4.00013,-3.53971 -1.34871,-1.33261 -2.91429,-2.41555 -4.41111,-3.57204 -1.16903,-0.98832 -2.55924,-1.65232 -3.77864,-2.5608 -1.22898,-0.77941 -2.45118,-1.59622 -3.77044,-2.21854 -1.7041,-0.69446 -3.43434,-1.27246 -5.12316,-2.01012 -1.57528,-0.6052 -3.22719,-0.95582 -4.82783,-1.491 -1.96932,-0.65549 -4.04273,-0.86608 -6.07295,-1.25985 -1.9659,-0.53065 -3.95879,-0.9301 -5.92397,-1.45992 -1.65396,-0.47262 -3.2689,-0.98109 -4.97688,-1.22649 -2.10316,-0.13194 -4.13436,-0.69904 -6.17743,-1.17027 -1.75379,-0.36482 -3.53506,-0.50114 -5.29829,-0.80994 -1.90175,-0.26431 -3.75963,-0.72475 -5.66248,-0.98832 -1.83381,-0.23539 -3.6826,-0.29443 -5.52913,-0.32366 -1.73961,-0.26839 -3.48076,-0.50611 -5.23584,-0.64446 -1.80302,-0.11105 -3.61016,-0.12048 -5.41595,-0.12755 -0.9205,-0.004 -1.84101,-0.002 -2.76151,-0.002 0,0 2.4443,-1.77611 2.4443,-1.77611 l 0,0 c 0.92174,-2.9e-4 1.84348,-8.1e-4 2.76522,0.001 1.81029,0.0111 3.62199,0.0264 5.42899,0.1469 1.75001,0.15002 3.48359,0.41243 5.22582,0.62778 1.85144,0.0374 3.70468,0.11061 5.54174,0.3602 1.90293,0.27551 3.7693,0.72375 5.67306,0.99219 1.766,0.30197 3.55589,0.42509 5.3049,0.8265 2.03746,0.47951 4.07002,1.00536 6.16768,1.14755 1.71036,0.2666 3.33339,0.79164 4.99672,1.25496 1.95757,0.5286 3.94363,0.93293 5.90571,1.44607 2.04068,0.39509 4.12583,0.60727 6.10014,1.2871 1.61208,0.51811 3.2734,0.87674 4.84373,1.5151 1.69071,0.74078 3.43889,1.29099 5.13431,2.01602 1.32316,0.65066 2.57295,1.45543 3.80355,2.26345 1.23398,0.89026 2.60353,1.5857 3.77542,2.57129 1.50264,1.15432 3.05538,2.25807 4.41112,3.58768 1.37271,1.155 2.70999,2.35325 4.03396,3.56056 1.05635,1.13788 1.98975,2.3944 3.19457,3.38879 1.13713,0.96912 2.27076,1.95853 3.2541,3.0883 1.18685,1.18371 2.19899,2.52716 3.43386,3.66338 1.07879,1.23169 1.98518,2.58854 3.0503,3.83084 0.71405,0.95595 1.3982,1.95835 1.98178,2.99644 0.56051,1.09747 0.96885,2.27665 1.16352,3.49508 0.21499,1.49554 0.0471,3.01801 0.10137,4.52507 0.002,1.64778 0.005,3.29557 0.002,4.94335 -0.007,1.95739 -0.008,3.91697 -0.12718,5.8714 -0.16599,1.78959 -0.47263,3.55509 -0.86583,5.30893 -0.2652,1.96379 -0.83448,3.84434 -1.36512,5.74924 -0.61242,1.89003 -1.50206,3.67381 -2.2697,5.50349 -0.83663,1.63702 -1.60534,3.28878 -2.83725,4.68363 -1.02968,1.34392 -1.73446,2.90182 -2.82874,4.18962 -0.81207,1.1275 -1.65652,2.24521 -2.59783,3.26539 -1.27719,1.5647 -2.65161,3.04474 -3.98021,4.56615 -0.93872,1.11885 -1.98672,2.12568 -2.93534,3.23531 -1.00595,1.24536 -2.13334,2.44494 -3.32971,3.49643 -2.15008,1.87855 -4.46046,3.52628 -7.02738,4.81003 -1.55533,0.85021 -3.16341,1.57803 -4.76216,2.3426 -1.47839,0.76197 -3.04582,1.33657 -4.5255,2.09868 -1.61805,0.61922 -3.24027,1.23678 -4.904,1.72325 -1.7558,0.45135 -3.49644,0.95826 -5.25105,1.41398 -1.70174,0.34182 -3.41063,0.63012 -5.10688,0.99093 -1.57087,0.39439 -3.16964,0.63767 -4.75543,0.96432 -1.72192,0.16727 -3.41912,0.47249 -5.12155,0.77443 -1.5511,0.16549 -3.05978,0.51184 -4.58228,0.84175 -1.70175,0.20141 -3.39065,0.60802 -5.11372,0.5264 -1.93414,-0.0328 -3.87401,-0.0675 -5.79635,-0.30129 -1.6748,-0.25152 -3.33763,-0.57876 -5.04036,-0.55465 -2.06972,-0.14658 -4.14845,-0.35104 -6.15637,-0.89957 -1.82978,-0.42182 -3.68445,-0.68787 -5.55396,-0.85415 -2.21762,-0.35015 -4.36555,-0.95307 -6.55163,-1.44865 -1.68004,-0.36204 -3.3733,-0.65614 -5.07372,-0.9006 -1.74353,-0.37578 -3.44407,-0.92338 -5.15863,-1.40897 -1.98909,-0.6969 -3.97516,-1.39344 -5.99656,-1.98993 -1.72592,-0.59815 -3.4884,-1.08655 -5.15515,-1.84723 -1.90847,-0.59072 -3.79082,-1.20332 -5.59018,-2.08774 -1.85967,-0.87548 -3.75485,-1.67499 -5.60158,-2.57661 -1.98471,-1.03894 -4.04369,-1.91768 -6.06522,-2.88196 -1.98011,-1.17242 -3.95252,-2.37819 -5.81379,-3.73194 -1.63028,-1.33548 -3.24054,-2.69254 -4.94469,-3.93419 -1.33179,-0.98633 -2.54702,-2.07762 -3.58309,-3.37933 -1.14662,-1.46395 -2.36485,-2.87287 -3.43698,-4.3944 -1.07013,-1.57546 -2.16914,-3.13171 -3.31941,-4.64982 -1.01461,-1.43392 -1.99203,-2.9028 -2.8709,-4.42315 -0.63893,-1.50589 -1.23325,-3.01666 -1.57475,-4.62334 -0.42966,-1.66612 -0.6499,-3.3824 -0.5738,-5.10475 0.008,-1.9354 0.008,-3.87357 0.14082,-5.80527 0.17512,-1.65457 0.50165,-3.27752 0.92432,-4.8869 0.24002,-1.66829 0.59263,-3.31622 0.8072,-4.98775 0.34866,-1.59566 0.8895,-3.1436 1.39554,-4.69183 0.62263,-1.36948 1.28265,-2.72368 1.95531,-4.06833 0.65166,-1.28533 1.58768,-2.4269 2.56946,-3.47421 1.01544,-1.30258 2.14527,-2.49511 3.18996,-3.77331 1.37133,-1.19845 2.66968,-2.47779 4.08791,-3.62332 1.56675,-1.28538 3.30766,-2.31897 4.94627,-3.50914 1.59862,-1.05333 3.20279,-2.10495 4.7222,-3.27062 1.32828,-1.00471 2.6577,-1.99716 4.01336,-2.96418 1.47513,-0.95684 2.7467,-2.20415 4.2204,-3.17121 2.5018,-1.78076 5.17794,-3.29767 7.78957,-4.90782 1.65789,-0.92344 3.39579,-1.67142 5.15657,-2.37562 1.62694,-0.68325 3.32034,-1.21837 4.99663,-1.76295 1.3819,-0.40967 2.78897,-0.72047 4.2024,-0.99764 1.41058,-0.37277 2.82195,-0.65937 4.27354,-0.82993 1.67916,-0.2547 3.36138,-0.2075 5.0567,-0.19361 1.96786,-0.004 3.93631,-0.012 5.90278,-0.0943 2.21938,-0.10725 4.4361,-0.27872 6.63522,-0.60616 0,0 -2.42893,1.81793 -2.42893,1.81793 z"
       inkscape:connector-curvature="0" />
    <text
       xml:space="preserve"
       style="font-size:16px;font-style:normal;font-variant:normal;font-weight:normal;font-stretch:normal;text-align:start;line-height:125%;letter-spacing:0px;word-spacing:0px;writing-mode:lr-tb;text-anchor:start;fill:#000000;fill-opacity:1;stroke:none;font-family:Segoe Print;-inkscape-font-specification:Segoe Print"
       x="336.23508"
       y="237.82709"
       id="text3790"
       sodipodi:linespacing="125%"><tspan
         sodipodi:role="line"
         id="tspan3792"
         x="336.23508"
         y="237.82709">Order</tspan><tspan
         sodipodi:role="line"
         x="336.23508"
         y="257.82709"
         id="tspan3794">Aggregate</tspan></text>
    <text
       xml:space="preserve"
       style="font-size:16px;font-style:normal;font-variant:normal;font-weight:normal;font-stretch:normal;text-align:start;line-height:125%;letter-spacing:0px;word-spacing:0px;writing-mode:lr-tb;text-anchor:start;fill:#000000;fill-opacity:1;stroke:none;font-family:Segoe Print;-inkscape-font-specification:Segoe Print"
       x="538.43567"
       y="71.624321"
       id="text3796"
       sodipodi:linespacing="125%"><tspan
         sodipodi:role="line"
         id="tspan3798"
         x="538.43567"
         y="71.624321">Reservation</tspan><tspan
         sodipodi:role="line"
         x="538.43567"
         y="91.624321"
         id="tspan3800">Aggregate</tspan></text>
    <text
       xml:space="preserve"
       style="font-size:16px;font-style:normal;font-variant:normal;font-weight:normal;font-stretch:normal;text-align:start;line-height:125%;letter-spacing:0px;word-spacing:0px;writing-mode:lr-tb;text-anchor:start;fill:#000000;fill-opacity:1;stroke:none;font-family:Segoe Print;-inkscape-font-specification:Segoe Print"
       x="590.51764"
       y="384.88205"
       id="text3802"
       sodipodi:linespacing="125%"><tspan
         sodipodi:role="line"
         id="tspan3804"
         x="590.51764"
         y="384.88205">Payment</tspan><tspan
         sodipodi:role="line"
         x="590.51764"
         y="404.88205"
         id="tspan3806">Aggregate</tspan></text>
    <path
       style="fill:#0000ff;fill-opacity:1;fill-rule:nonzero;stroke:none"
       d="M 198.875 176.40625 C 198.30003 176.39855 197.73419 176.41001 197.15625 176.4375 C 194.96247 176.4395 192.75627 176.4395 190.5625 176.4375 C 188.50965 176.4385 186.45909 176.4405 184.40625 176.4375 C 182.48054 176.4365 180.55072 176.4355 178.625 176.4375 C 176.5173 176.4397 174.41899 176.45305 172.3125 176.53125 C 169.86797 176.63598 167.42668 176.76742 165 177.09375 L 162.5625 178.90625 C 164.98747 178.54844 167.42833 178.3879 169.875 178.28125 C 171.97632 178.19855 174.0849 178.1935 176.1875 178.1875 C 178.11245 178.1875 180.0438 178.21675 181.96875 178.21875 C 184.02194 178.21775 186.07181 178.21675 188.125 178.21875 C 190.32004 178.21734 192.52371 178.21775 194.71875 178.21875 C 197.02191 178.12144 199.30905 178.26273 201.59375 178.53125 C 203.51064 178.68764 205.38508 178.96692 207.28125 179.28125 C 209.02076 179.5527 210.79331 179.62539 212.53125 179.90625 C 214.50507 180.19001 216.45425 180.59353 218.40625 181 C 220.84117 181.4481 223.27149 181.90391 225.71875 182.28125 C 228.19575 182.84337 230.71683 183.10183 233.1875 183.6875 C 235.8836 184.37619 238.6247 184.75055 241.28125 185.59375 C 244.00526 186.43062 246.80118 186.9645 249.53125 187.78125 C 251.47389 188.25146 253.31217 189.08211 255.1875 189.75 C 256.67253 190.44961 258.17644 191.04886 259.6875 191.6875 C 261.21205 192.30083 262.75919 192.91028 264.28125 193.53125 C 266.32229 194.52174 268.4591 195.24904 270.5625 196.09375 C 272.67773 197.07802 274.88135 197.8364 277.0625 198.65625 C 279.68501 199.63153 282.24146 200.7763 284.8125 201.875 C 286.93966 202.70561 289.08953 203.473 291.1875 204.375 C 292.67151 205.06286 294.2495 205.54386 295.75 206.1875 C 296.92832 206.66889 298.05776 207.22761 299.21875 207.75 C 300.66573 208.31883 301.9431 209.20913 303.3125 209.9375 L 304.78125 208.96875 C 304.79714 209.35794 304.72872 209.72547 304.5625 210.0625 C 303.3784 210.42704 302.14532 210.57745 300.9375 210.84375 C 299.39119 211.278 297.87909 211.89193 296.40625 212.53125 L 294.0625 214.40625 C 295.51828 213.74676 297.00939 213.16697 298.53125 212.6875 C 299.96939 212.30437 301.48417 212.27691 302.875 211.6875 C 305.15841 211.05462 307.71329 209.89542 307.4375 207.3125 C 306.99426 205.5903 306.09321 204.11471 305.25 202.5625 C 303.89296 200.23316 302.53196 197.91215 301.15625 195.59375 L 298.53125 197.09375 C 299.94931 199.38694 301.27755 201.72711 302.625 204.0625 C 303.21529 205.17268 303.84919 206.25732 304.3125 207.40625 C 303.48701 206.91481 302.64521 206.41868 301.75 206.0625 C 300.59437 205.5231 299.42796 204.98666 298.25 204.5 C 296.75873 203.83108 295.20319 203.38067 293.71875 202.6875 C 291.62339 201.76948 289.41609 201.04015 287.28125 200.21875 C 284.70318 199.13112 282.18746 197.94383 279.5625 196.96875 C 277.38842 196.13915 275.1724 195.39426 273.0625 194.40625 C 270.95828 193.56834 268.81928 192.86553 266.78125 191.875 C 265.26646 191.24548 263.74376 190.60193 262.21875 190 C 260.71173 189.3389 259.15849 188.77968 257.6875 188.03125 C 255.79767 187.38135 253.98647 186.55003 252.03125 186.09375 C 249.29961 185.28016 246.51203 184.71987 243.78125 183.90625 C 241.12446 183.03916 238.36227 182.64246 235.65625 181.96875 C 233.1841 181.35449 230.66914 181.109 228.1875 180.53125 C 225.74443 180.16335 223.30669 179.71541 220.875 179.28125 C 218.92636 178.85576 216.97387 178.47312 215 178.1875 C 213.2616 177.8968 211.49574 177.77064 209.75 177.53125 C 207.8477 177.22042 205.95706 176.9117 204.03125 176.78125 C 202.31239 176.57937 200.59991 176.42936 198.875 176.40625 z "
       id="path3810" />
    <path
       style="fill:#0000ff;fill-opacity:1;fill-rule:nonzero;stroke:none"
       d="M 459.21875 279.8125 L 456.75 281.59375 C 460.31541 281.50836 463.80907 282.39172 467.3125 282.9375 C 471.58848 283.64388 475.82175 284.632 480 285.78125 C 483.13729 286.77423 486.31592 287.62332 489.375 288.84375 C 492.0301 289.88243 494.66343 290.95845 497.375 291.84375 C 499.89116 292.90241 502.48149 293.77981 504.96875 294.90625 C 507.43841 296.17207 509.95652 297.31846 512.4375 298.5625 C 514.58663 299.67498 516.89639 300.43943 519.09375 301.4375 C 521.1779 302.308 523.07011 303.54564 525.03125 304.65625 C 527.1336 305.63114 529.26442 306.5662 531.34375 307.59375 C 533.37758 308.50041 535.2636 309.65876 537.28125 310.59375 C 539.70248 311.89339 542.22136 312.99258 544.75 314.0625 C 546.68551 314.95394 548.39698 316.20055 550.15625 317.375 C 551.79063 318.36829 553.22917 319.54721 554.65625 320.8125 C 556.35914 322.01806 558.04126 323.31376 559.78125 324.46875 C 561.38354 325.82515 563.10041 326.99321 564.84375 328.15625 C 566.57781 329.36251 568.08462 330.84428 569.59375 332.3125 C 571.10333 333.98884 572.74384 335.5421 574.21875 337.25 C 575.27175 338.73645 576.51514 340.04806 577.6875 341.4375 C 578.07342 341.80149 578.43063 342.20907 578.75 342.625 C 577.6901 342.69343 576.62157 342.68867 575.5625 342.6875 C 573.966 342.7091 572.3732 342.58081 570.78125 342.71875 L 568.34375 344.53125 C 569.92608 344.33056 571.53298 344.49715 573.125 344.46875 C 574.9442 344.47445 576.76569 344.51932 578.5625 344.1875 C 581.56301 342.65653 583.54106 342.48546 583.4375 338.96875 C 583.4336 336.64321 583.4182 334.32549 583.4375 332 L 580.75 333.375 C 580.7691 335.69738 580.754 338.02133 580.75 340.34375 C 580.75067 340.35436 580.74937 340.36438 580.75 340.375 C 580.59684 340.20811 580.45041 340.02983 580.28125 339.875 C 579.10738 338.48485 577.87212 337.17089 576.8125 335.6875 C 575.33091 333.97334 573.67169 332.43327 572.15625 330.75 C 570.63757 329.26796 569.11895 327.75277 567.375 326.53125 C 565.63147 325.36655 563.89785 324.19434 562.3125 322.8125 C 560.57433 321.67864 558.9231 320.39935 557.21875 319.21875 C 555.78194 317.94224 554.33726 316.74609 552.6875 315.75 C 550.90517 314.57748 549.20389 313.27559 547.25 312.375 C 544.71659 311.32232 542.19346 310.2495 539.78125 308.9375 C 537.76089 308.01847 535.88007 306.82944 533.84375 305.9375 C 531.76988 304.90403 529.641 303.98392 527.53125 303.03125 C 525.56717 301.91322 523.68049 300.62763 521.59375 299.75 C 519.40363 298.73541 517.08727 298.0189 514.9375 296.90625 C 512.45653 295.65541 509.93488 294.52948 507.46875 293.25 C 504.97561 292.10695 502.36472 291.23413 499.84375 290.15625 C 497.13252 289.28677 494.52731 288.18704 491.875 287.15625 C 488.80565 285.91587 485.62121 285.09319 482.46875 284.09375 C 478.28276 282.93591 474.0327 281.94173 469.75 281.21875 C 466.2514 280.678 462.77597 279.7877 459.21875 279.8125 z M 580 342.96875 C 579.90329 343.06715 579.80808 343.16452 579.6875 343.25 C 579.50558 343.37896 578.91293 343.69299 579.09375 343.5625 C 579.38526 343.35212 579.69828 343.16436 580 342.96875 z "
       id="path3825" />
    <path
       style="fill:#800000;fill-opacity:1;fill-rule:nonzero;stroke:none"
       d="M 429.6875 304.46875 C 429.29188 304.4915 428.90963 304.56575 428.5 304.71875 C 427.98442 305.00701 427.45642 305.27996 426.9375 305.5625 C 426.81989 305.32214 426.71558 305.0825 426.59375 304.84375 L 424.28125 306.15625 C 424.65306 305.60609 425.03796 305.07954 425.34375 304.5 L 422.5625 305.71875 C 421.51111 307.74151 419.77658 309.48738 419.09375 311.6875 C 419.25617 312.33173 419.77396 312.15105 420.25 311.875 C 422.30051 310.68593 423.3683 310.19752 424.75 308.65625 C 424.81713 308.58825 424.87169 308.50663 424.9375 308.4375 C 425.17731 308.97976 425.41565 309.50503 425.625 310.0625 C 426.43079 311.79966 427.28649 313.51587 427.875 315.34375 C 428.6952 317.05262 429.57765 318.75055 430.5 320.40625 C 431.33592 321.89957 432.28758 323.31015 433.34375 324.65625 C 434.25803 325.89903 435.21861 327.11104 436.1875 328.3125 C 437.41219 329.6569 438.57029 331.04561 440 332.1875 C 441.51996 333.7104 443.0416 335.25973 444.59375 336.75 C 446.12054 338.19123 447.67553 339.58441 449.40625 340.78125 C 451.44657 342.2018 453.44934 343.68489 455.40625 345.21875 C 457.24609 346.57171 459.05212 347.98071 460.90625 349.3125 C 462.9883 350.57589 465.28156 351.39527 467.3125 352.75 C 469.94159 354.20473 472.49486 355.8206 475.15625 357.21875 C 478.15526 358.75614 481.27613 360.0144 484.34375 361.40625 C 488.0916 362.94601 491.83622 364.48882 495.65625 365.84375 C 499.23305 366.94869 502.7668 368.22408 506.25 369.59375 C 509.33596 370.79343 512.43054 372.01842 515.625 372.90625 C 519.17969 374.01987 522.74348 375.12786 526.375 375.96875 C 529.88914 376.94702 533.45488 377.64445 537 378.5 C 540.35417 379.18684 543.70706 379.80703 547.09375 380.3125 L 549.5625 378.5625 C 546.1637 378.104 542.79604 377.50097 539.4375 376.8125 C 535.89717 375.96505 532.32343 375.24603 528.8125 374.28125 C 525.18264 373.44204 521.64688 372.33058 518.09375 371.21875 C 514.90922 370.31652 511.80304 369.1279 508.71875 367.9375 C 505.23123 366.55867 501.70465 365.27537 498.125 364.15625 C 494.3044 362.82118 490.55485 361.28654 486.8125 359.75 C 483.75563 358.36497 480.64588 357.09019 477.65625 355.5625 C 474.99455 354.17015 472.46823 352.58295 469.84375 351.125 C 467.8237 349.76859 465.5191 348.90228 463.4375 347.65625 C 461.57989 346.34237 459.80385 344.97155 457.96875 343.625 C 456.00035 342.10406 454.00665 340.61395 451.96875 339.1875 C 450.24826 338.00069 448.67507 336.58555 447.15625 335.15625 C 445.60429 333.66995 444.11185 332.14568 442.59375 330.625 C 441.18257 329.47145 439.99386 328.09848 438.78125 326.75 C 437.81669 325.55829 436.87614 324.36022 435.96875 323.125 C 434.92187 321.78775 433.92501 320.38814 433.09375 318.90625 C 432.17462 317.25624 431.31324 315.58001 430.5 313.875 C 429.91405 312.04786 429.0512 310.3312 428.25 308.59375 C 427.96161 307.81668 427.6288 307.06123 427.28125 306.3125 C 428.42699 306.18577 429.53635 306.54666 430.6875 306.90625 L 431.3125 307.1875 L 433.84375 305.5 L 433.1875 305.1875 C 432.01218 304.82216 430.87435 304.40049 429.6875 304.46875 z M 424.0625 306.5 C 424.17736 306.72559 424.26429 306.9603 424.375 307.1875 C 423.57581 307.91567 422.92621 308.84893 422.15625 309.59375 C 422.66307 308.50549 423.37534 307.50176 424.0625 306.5 z M 422.09375 310.3125 C 422.01384 310.37223 422.00145 310.50125 421.90625 310.53125 C 421.87272 310.54188 421.84718 310.48588 421.84375 310.4375 C 421.92475 310.38954 422.0126 310.36018 422.09375 310.3125 z "
       id="path3830" />
    <path
       style="fill:#800000;fill-opacity:1;fill-rule:nonzero;stroke:none"
       d="M 162.625 227.09375 C 161.79029 227.42465 160.94945 227.81837 160.09375 228.09375 C 158.12015 228.85452 156.17792 229.63004 154.25 230.5 L 151.875 232.375 C 153.81393 231.52238 155.73553 230.68251 157.71875 229.9375 C 158.56934 229.65207 159.4179 229.3026 160.25 228.96875 L 162.625 227.09375 z M 152.5 232.53125 L 150 234.21875 C 150.17621 234.28344 150.35515 234.34135 150.53125 234.40625 L 148.78125 235.3125 C 149.00063 237.19546 149.16704 239.09621 149.625 240.9375 C 149.83591 242.29829 150.29753 243.52746 150.96875 244.71875 C 151.22928 245.24307 151.4048 245.78371 151.65625 246.3125 L 154.3125 244.8125 C 154.05914 244.27769 153.86315 243.71493 153.59375 243.1875 C 152.93504 242.02099 152.49529 240.83142 152.28125 239.5 C 151.89825 237.9647 151.72001 236.38463 151.5625 234.8125 C 152.36215 235.10908 153.16976 235.38866 153.96875 235.6875 C 156.04326 236.52077 158.14318 237.23674 160.15625 238.21875 C 161.89803 238.88947 163.69579 239.44212 165.40625 240.1875 C 166.99377 240.9277 168.65931 241.47656 170.21875 242.28125 C 172.38109 243.16599 174.667 243.62051 176.84375 244.46875 C 178.64018 245.04744 180.38809 245.79595 182.25 246.125 C 185.12294 246.73745 188.01083 247.28656 190.875 247.9375 C 193.28365 248.569 195.67295 249.40609 198.15625 249.65625 C 200.63872 250.00759 203.07535 250.64694 205.5625 250.96875 C 209.57807 251.61869 213.61144 252.23241 217.5625 253.21875 C 221.83887 254.06364 226.12796 254.69337 230.40625 255.53125 C 237.13622 256.77302 243.89664 257.93662 250.625 259.1875 C 257.96615 260.22368 265.35129 261.06628 272.78125 260.75 C 276.97468 260.65329 281.16358 260.52271 285.34375 260.15625 L 287.8125 258.375 C 283.6027 258.74878 279.3798 258.91781 275.15625 259.03125 C 267.72365 259.3835 260.31523 258.55381 252.96875 257.53125 C 246.25032 256.31544 239.52494 255.09228 232.8125 253.84375 C 228.54448 252.99495 224.27111 252.32927 220 251.5 C 216.04615 250.52808 212.01362 249.91062 208 249.25 C 205.52234 248.9232 203.09424 248.28227 200.625 247.90625 C 198.13766 247.6665 195.75576 246.87194 193.34375 246.25 C 190.48668 245.5845 187.61502 245.03726 184.75 244.40625 C 182.89108 244.08827 181.13661 243.34713 179.34375 242.78125 C 177.16761 241.95396 174.88143 241.45557 172.71875 240.59375 C 171.15815 239.80305 169.49802 239.2503 167.90625 238.53125 C 166.20258 237.75434 164.43301 237.20579 162.6875 236.53125 C 160.66268 235.57462 158.54943 234.85186 156.46875 234.03125 C 155.15249 233.52653 153.82103 233.02385 152.5 232.53125 z "
       id="path3849" />
    <text
       xml:space="preserve"
       style="font-size:16px;font-style:normal;font-variant:normal;font-weight:normal;font-stretch:normal;text-align:start;line-height:125%;letter-spacing:0px;word-spacing:0px;writing-mode:lr-tb;text-anchor:start;fill:#000000;fill-opacity:1;stroke:none;font-family:Segoe Print;-inkscape-font-specification:Segoe Print"
       x="75.825218"
       y="266.9317"
       id="text3857"
       sodipodi:linespacing="125%"><tspan
         sodipodi:role="line"
         id="tspan3859"
         x="75.825218"
         y="266.9317">Customer</tspan></text>
    <text
       xml:space="preserve"
       style="font-size:16px;font-style:normal;font-variant:normal;font-weight:normal;font-stretch:normal;text-align:start;line-height:125%;letter-spacing:0px;word-spacing:0px;writing-mode:lr-tb;text-anchor:start;fill:#0000ff;fill-opacity:1;stroke:none;font-family:Segoe Print;-inkscape-font-specification:Segoe Print"
       x="223.45071"
       y="117.507"
       id="text3861"
       sodipodi:linespacing="125%"
       transform="matrix(0.97465232,0.22372496,-0.22372496,0.97465232,0,0)"><tspan
         sodipodi:role="line"
         id="tspan3863"
         x="223.45071"
         y="117.507"
         style="font-size:14px">1. PlaceOrder</tspan></text>
    <text
       xml:space="preserve"
       style="font-size:16px;font-style:normal;font-variant:normal;font-weight:normal;font-stretch:normal;text-align:start;line-height:125%;letter-spacing:0px;word-spacing:0px;writing-mode:lr-tb;text-anchor:start;fill:#0000ff;fill-opacity:1;stroke:none;font-family:Segoe Print;-inkscape-font-specification:Segoe Print"
       x="96.531593"
       y="402.0087"
       id="text3861-4"
       sodipodi:linespacing="125%"
       transform="matrix(0.64390839,-0.7651026,0.7651026,0.64390839,0,0)"><tspan
         sodipodi:role="line"
         id="tspan3863-0"
         x="96.531593"
         y="402.0087"
         style="font-size:14px">2. MakeReservation</tspan></text>
    <text
       xml:space="preserve"
       style="font-size:16px;font-style:normal;font-variant:normal;font-weight:normal;font-stretch:normal;text-align:start;line-height:125%;letter-spacing:0px;word-spacing:0px;writing-mode:lr-tb;text-anchor:start;fill:#800000;fill-opacity:1;stroke:none;font-family:Segoe Print;-inkscape-font-specification:Segoe Print"
       x="124.3934"
       y="500.94028"
       id="text3861-9"
       sodipodi:linespacing="125%"
       transform="matrix(0.63994094,-0.7684241,0.7684241,0.63994094,0,0)"><tspan
         sodipodi:role="line"
         id="tspan3863-4"
         x="124.3934"
         y="500.94028"
         style="font-size:14px;fill:#800000">3. SeatsReserved</tspan></text>
    <text
       xml:space="preserve"
       style="font-size:16px;font-style:normal;font-variant:normal;font-weight:normal;font-stretch:normal;text-align:start;line-height:125%;letter-spacing:0px;word-spacing:0px;writing-mode:lr-tb;text-anchor:start;fill:#0000ff;fill-opacity:1;stroke:none;font-family:Segoe Print;-inkscape-font-specification:Segoe Print"
       x="552.6181"
       y="31.071594"
       id="text3861-8"
       sodipodi:linespacing="125%"
       transform="matrix(0.89568152,0.4446961,-0.4446961,0.89568152,0,0)"
       inkscape:transform-center-x="-13.786404"
       inkscape:transform-center-y="-9.1909361"><tspan
         sodipodi:role="line"
         id="tspan3863-8"
         x="552.6181"
         y="31.071594"
         style="font-size:14px">4. MakePayment</tspan></text>
    <text
       xml:space="preserve"
       style="font-size:16px;font-style:normal;font-variant:normal;font-weight:normal;font-stretch:normal;text-align:start;line-height:125%;letter-spacing:0px;word-spacing:0px;writing-mode:lr-tb;text-anchor:start;fill:#800000;fill-opacity:1;stroke:none;font-family:Segoe Print;-inkscape-font-specification:Segoe Print"
       x="508.88803"
       y="122.97194"
       id="text3861-2"
       sodipodi:linespacing="125%"
       transform="matrix(0.89423937,0.44758905,-0.44758905,0.89423937,0,0)"><tspan
         sodipodi:role="line"
         id="tspan3863-45"
         x="508.88803"
         y="122.97194"
         style="font-size:14px;fill:#800000">5. PaymentAccepted</tspan></text>
    <text
       xml:space="preserve"
       style="font-size:16px;font-style:normal;font-variant:normal;font-weight:normal;font-stretch:normal;text-align:start;line-height:125%;letter-spacing:0px;word-spacing:0px;writing-mode:lr-tb;text-anchor:start;fill:#800000;fill-opacity:1;stroke:none;font-family:Segoe Print;-inkscape-font-specification:Segoe Print"
       x="191.23294"
       y="252.35648"
       id="text3861-5"
       sodipodi:linespacing="125%"
       transform="matrix(0.99561471,0.09354869,-0.09354869,0.99561471,0,0)"><tspan
         sodipodi:role="line"
         id="tspan3863-1"
         x="191.23294"
         y="252.35648"
         style="font-size:14px;fill:#800000">6. OrderConfirmed</tspan></text>
    <path
       style="fill:#0000ff;fill-opacity:1;fill-rule:nonzero;stroke:none"
       d="M 475.9375 97.96875 L 473.375 99.625 C 475.15356 100.60676 476.86088 101.70806 478.75 102.46875 C 479.27847 102.74875 479.83728 102.89855 480.28125 103.125 C 479.01806 103.51913 477.72285 103.82 476.4375 104.125 C 475.16409 104.55242 473.93534 105.09981 472.6875 105.59375 C 470.96453 106.37985 469.07142 106.71798 467.34375 107.5 C 464.46458 108.75253 461.46025 109.68004 458.84375 111.5 C 454.93398 113.81684 465.23228 107.71998 456.65625 112.78125 C 456.67566 112.76959 456.53049 112.86264 456.5625 112.84375 L 454.65625 113.90625 C 454.02441 114.28606 452.40072 115.48389 452.25 115.6875 C 452.24211 115.69199 452.22664 115.68301 452.21875 115.6875 C 451.49147 116.10291 450.72271 116.56729 451.09375 116.34375 C 449.97555 116.98636 448.88619 117.66138 447.84375 118.4375 C 446.36612 119.39166 444.85958 120.30616 443.4375 121.34375 C 441.66532 122.55483 439.89777 123.81848 438.21875 125.15625 C 436.38825 126.5539 434.49212 127.87957 432.875 129.53125 C 431.53322 130.84993 430.21878 132.1942 429 133.625 C 427.86169 134.92024 426.58726 136.06189 425.46875 137.375 C 424.23828 138.89748 423.1076 140.48606 421.90625 142.03125 C 420.67251 143.53359 419.63482 145.20363 418.5 146.78125 C 417.3403 148.42818 416.45067 150.19751 415.625 152.03125 C 414.75385 153.72836 414.00287 155.47969 413.21875 157.21875 C 412.36809 159.38604 411.50185 161.53836 410.53125 163.65625 C 409.68952 165.58394 408.98452 167.56117 408.09375 169.46875 C 407.25275 171.50031 406.44211 173.55179 405.625 175.59375 C 404.82671 177.72215 403.93453 179.80676 403.0625 181.90625 C 401.99244 184.16708 400.98491 186.45046 400.15625 188.8125 L 402.90625 187.53125 C 403.72611 185.18314 404.74677 182.90066 405.8125 180.65625 C 406.68655 178.54918 407.53017 176.44322 408.34375 174.3125 C 409.14729 172.26617 410.01848 170.25456 410.84375 168.21875 C 411.74851 166.32032 412.39274 164.32405 413.25 162.40625 C 414.23184 160.28984 415.07198 158.10149 415.9375 155.9375 C 416.72452 154.20263 417.51035 152.47808 418.375 150.78125 C 419.16998 148.9407 420.07088 147.21764 421.25 145.59375 C 422.3908 144.026 423.38697 142.34235 424.65625 140.875 C 425.83878 139.31439 427.00742 137.70242 428.25 136.1875 C 429.41926 134.91594 430.63092 133.72448 431.78125 132.4375 C 432.99129 131.01076 434.34549 129.68711 435.6875 128.375 C 437.30831 126.73873 439.21069 125.42894 441.03125 124.03125 C 442.70731 122.68481 444.44393 121.4617 446.21875 120.25 C 447.65138 119.22435 449.16568 118.281 450.65625 117.34375 L 451.21875 116.9375 C 451.2808 116.85543 451.83136 116.49441 452.21875 116.25 C 453.82573 115.49179 455.13112 114.38585 456.5625 113.40625 C 456.88394 113.22016 457.21066 113.03131 457.53125 112.84375 C 458.48239 112.29003 458.28044 112.3927 458.6875 112.15625 C 458.92357 112.01774 459.16998 111.88816 459.40625 111.75 C 459.60853 111.63234 460.22866 111.29208 460.40625 111.1875 C 460.28792 111.26898 460.17009 111.34174 460.0625 111.4375 C 459.78146 111.68761 460.75186 111.12575 461.09375 110.96875 C 462.37051 110.38245 463.67658 109.89547 464.96875 109.34375 C 466.69001 108.56034 468.56715 108.18498 470.3125 107.46875 C 471.54407 106.9457 472.77428 106.46035 474.03125 106 C 475.36144 105.65206 476.71059 105.32452 478.03125 104.9375 C 479.04782 104.57336 480.10316 104.37216 481.15625 104.15625 C 481.18213 104.31164 481.1732 104.48626 481.15625 104.6875 C 480.72218 105.85912 479.85083 106.76852 478.96875 107.625 C 478.41567 108.32036 477.72753 108.9055 477 109.40625 L 479.8125 108.28125 C 480.52189 107.74505 481.17733 107.15336 481.75 106.46875 C 482.63504 105.5467 483.58262 104.63234 483.875 103.34375 C 483.87449 103.05645 483.8389 102.80265 483.78125 102.59375 L 484.3125 102.1875 C 484.09422 102.24263 483.87655 102.26591 483.65625 102.3125 C 483.25728 101.47728 482.33325 101.30199 481.28125 100.78125 C 479.39601 100.06115 477.69247 98.951923 475.9375 97.96875 z "
       id="path3934" />
    <path
       style="fill:#800000;fill-opacity:1;fill-rule:nonzero;stroke:none"
       d="M 514.25 129.84375 L 511.5 131.09375 C 510.4552 133.32965 509.3092 135.55231 508.125 137.71875 C 507.14204 139.50997 506.21749 141.31132 505.40625 143.1875 C 504.77177 144.99479 503.89326 146.71614 503.0625 148.4375 C 502.09803 150.11936 501.40025 151.91185 500.5 153.625 C 499.66947 155.27744 499.03943 157.01508 498.125 158.625 C 497.07835 160.12049 496.21199 161.77416 495.09375 163.21875 C 494.16872 164.44751 493.56116 165.85582 492.75 167.15625 C 491.56194 168.84439 490.23728 170.41913 489.03125 172.09375 C 487.59929 173.98073 486.14387 175.88858 484.53125 177.625 C 483.05164 179.28386 481.4485 180.80607 479.84375 182.34375 C 478.5689 183.77341 477.16275 185.08175 475.78125 186.40625 C 474.12019 187.90268 472.44633 189.36765 470.59375 190.625 C 468.75135 191.80025 467.02116 193.16115 465.25 194.4375 C 464.98019 194.6066 464.15792 195.08989 464.4375 194.9375 C 465.39951 194.41311 470.47705 191.32655 462.75 195.96875 C 461.96635 196.43954 461.21155 196.9677 460.46875 197.5 C 462.34227 196.45503 458.77688 198.62161 457.90625 199.125 C 457.98906 199.07019 458.02012 199.03211 458.21875 198.90625 C 461.90719 196.56909 459.67303 197.9965 458.78125 198.46875 C 457.37193 199.09559 456.01513 199.83567 454.59375 200.4375 C 452.77228 201.25962 450.91857 201.99162 449.125 202.875 C 447.75614 203.53536 446.35299 204.06368 444.96875 204.6875 C 444.13359 205.11322 444.53212 204.89362 443.6875 205.3125 L 443.375 205.5625 C 442.5284 204.75109 442.47822 203.51344 442.5 202.34375 C 442.497 200.28113 442.498 198.21888 442.5 196.15625 C 442.499 193.94292 442.51595 191.74453 442.53125 189.53125 L 439.8125 190.90625 C 439.8275 193.1162 439.8135 195.32126 439.8125 197.53125 C 439.8145 199.59548 439.8145 201.65452 439.8125 203.71875 C 439.76104 205.14249 439.92829 206.51963 441.09375 207.4375 C 442.74412 207.90395 444.52795 207.56565 446.21875 207.46875 C 448.5197 207.35208 450.82156 207.331 453.125 207.3125 C 454.81586 207.3025 456.49661 207.3115 458.1875 207.3125 C 459.46301 207.31354 460.75574 207.31211 462.03125 207.3125 L 464.46875 205.53125 C 463.19303 205.53125 461.93198 205.53182 460.65625 205.53125 C 458.96189 205.53085 457.25682 205.51855 455.5625 205.53125 C 453.25611 205.55241 450.96078 205.5872 448.65625 205.6875 C 447.18703 205.76513 445.68849 205.94923 444.21875 205.84375 C 445.07434 205.48375 445.93454 205.13697 446.78125 204.75 C 448.57398 203.86545 450.39137 203.12032 452.21875 202.3125 C 453.64715 201.72009 454.99431 200.99758 456.40625 200.375 C 458.75956 199.16096 461.09364 197.87151 463.28125 196.375 C 464.12091 195.78962 463.92195 195.92022 464.78125 195.375 C 465.03815 195.212 465.836 194.74175 465.5625 194.875 C 464.96008 195.16852 463.24027 196.19248 463.8125 195.84375 C 470.31544 191.88068 465.48429 194.99313 468.0625 193.3125 C 469.8317 192.03721 471.53396 190.70473 473.375 189.53125 C 475.20512 188.23143 476.91108 186.76848 478.5625 185.25 C 479.94459 183.92839 481.37041 182.63641 482.65625 181.21875 C 484.26057 179.67854 485.82887 178.09505 487.3125 176.4375 C 488.91321 174.68286 490.34873 172.79934 491.78125 170.90625 C 493.00657 169.23681 494.33211 167.64885 495.5 165.9375 C 496.28887 164.6312 496.93811 163.24466 497.875 162.03125 C 498.94983 160.54432 499.86707 158.93745 500.875 157.40625 C 501.76017 155.78172 502.40935 154.02209 503.25 152.375 C 504.13176 150.65066 504.86611 148.88033 505.8125 147.1875 C 506.65087 145.46815 507.50837 143.74073 508.15625 141.9375 C 508.98026 140.07375 509.90446 138.25975 510.875 136.46875 C 512.04056 134.27807 513.20695 132.09522 514.25 129.84375 z "
       id="path3939" />
    <path
       style="fill:#800000;fill-opacity:1;fill-rule:nonzero;stroke:none"
       d="M 634.5 129.0625 L 631.75 130.34375 C 631.44426 131.11779 631.1236 131.8856 630.8125 132.65625 C 630.61379 132.92141 630.42779 133.22666 630.28125 133.53125 C 629.76443 134.94021 629.2002 136.28451 628.59375 137.65625 C 628.25013 138.48175 628.0139 139.005 628.0625 139 C 628.12113 138.99445 628.16256 138.97459 628.21875 138.96875 C 628.18578 139.02686 628.1989 139.01848 628.15625 139.09375 C 628.11568 139.16535 627.98942 139.32494 627.96875 139.375 C 628.39782 139.14121 628.66841 139.0308 628.96875 138.875 C 630.80328 138.5731 630.95479 137.96403 631.625 136.28125 C 632.19661 134.75583 632.78882 133.22365 633.40625 131.71875 C 633.48993 131.69596 633.57532 131.67371 633.65625 131.65625 C 634.00763 131.60388 634.36531 131.55943 634.71875 131.53125 L 634.34375 131.75 C 634.78381 132.57754 634.54453 132.16658 635.0625 132.96875 C 636.17423 134.60506 637.13013 136.35164 638 138.125 C 639.21555 140.61158 640.37741 143.16447 641.28125 145.78125 C 642.12336 147.93431 642.93145 150.08614 643.65625 152.28125 C 644.45016 154.24775 645.09441 156.26004 645.90625 158.21875 C 646.594 160.50444 647.3145 162.76337 647.3125 165.1875 C 647.463 167.63808 647.37685 170.07694 647.40625 172.53125 C 647.40815 174.53061 647.4089 176.53356 647.3125 178.53125 C 647.16763 180.73779 646.90455 182.95793 646.1875 185.0625 C 645.38766 187.48236 644.6749 189.91082 643.65625 192.25 C 642.74275 194.47869 641.6837 196.6535 640.1875 198.5625 C 639.0475 200.0848 637.6522 201.3438 636.28125 202.65625 C 635.48038 203.39352 634.62965 204.07626 633.75 204.71875 C 633.47464 204.91988 632.66843 205.34338 632.71875 205.375 C 630.83087 206.28259 628.90237 207.08187 626.9375 207.8125 C 623.90071 209.06639 620.82674 210.23983 617.6875 211.21875 C 614.71111 212.17387 611.71544 213.13301 608.65625 213.78125 C 605.21645 214.4358 601.78966 215.12715 598.40625 216.03125 C 594.62862 216.9868 590.93129 218.23333 587.21875 219.40625 C 583.81151 220.31476 580.3479 220.85704 576.9375 221.75 C 573.48258 222.74671 570.00655 223.70983 566.59375 224.84375 C 563.85255 225.66567 561.07474 226.32009 558.28125 226.9375 C 555.69493 227.40877 553.1012 227.88116 550.53125 228.4375 C 547.77765 228.85982 545.03539 229.17163 542.28125 229.59375 C 539.51538 229.856 536.75014 230.26425 533.96875 230.34375 C 530.49699 230.61213 527.03994 230.9968 523.5625 231.1875 C 520.19592 231.54128 516.86716 232.21981 513.53125 232.78125 C 509.61119 233.55902 505.70678 234.31174 501.78125 235.0625 C 497.95095 235.61215 494.0799 235.91617 490.25 236.46875 C 487.08649 236.94993 483.90612 237.31182 480.75 237.84375 C 478.37453 238.24935 475.98556 238.60224 473.625 239.09375 C 471.34524 239.46964 469.04238 239.59378 466.75 239.875 L 464.34375 241.71875 C 466.63669 241.39523 468.931 241.26727 471.21875 240.90625 C 473.58752 240.44165 475.96249 240.05013 478.34375 239.65625 C 481.50507 239.12497 484.70468 238.7205 487.875 238.25 C 491.7067 237.68996 495.57115 237.37891 499.40625 236.84375 C 503.33645 236.12108 507.23386 235.35721 511.15625 234.59375 C 514.48426 234.02282 517.79958 233.35031 521.15625 232.96875 C 524.62983 232.76049 528.09348 232.39398 531.5625 232.125 C 534.33969 232.04129 537.08269 231.64787 539.84375 231.375 C 542.60271 230.96486 545.39922 230.6401 548.15625 230.21875 C 550.73008 229.68181 553.29015 229.22974 555.875 228.75 C 558.67812 228.14302 561.4685 227.47136 564.21875 226.65625 C 567.6381 225.52875 571.1022 224.55542 574.5625 223.5625 C 577.96248 222.64366 581.46751 222.10787 584.875 221.21875 C 588.60024 220.07151 592.2844 218.81509 596.0625 217.84375 C 599.43408 216.93778 602.85287 216.24815 606.28125 215.59375 C 609.35634 214.97134 612.35598 214.01166 615.34375 213.0625 C 618.47738 212.0745 621.52717 210.90947 624.5625 209.65625 C 626.73061 208.83445 628.88729 207.99224 630.96875 206.96875 C 633.79722 205.3872 636.76553 203.82631 639.09375 201.53125 C 640.47827 200.21615 641.85892 198.90336 642.96875 197.34375 C 644.47058 195.42025 645.45945 193.23937 646.375 191 C 647.38018 188.65144 648.11573 186.2086 648.90625 183.78125 C 649.6225 181.65191 649.88943 179.41699 650.03125 177.1875 C 650.12165 175.18453 650.10075 173.19194 650.09375 171.1875 C 650.0677 168.72983 650.13729 166.26539 649.96875 163.8125 C 649.97114 161.36535 649.25207 159.09019 648.5625 156.78125 C 647.74257 154.81583 647.08348 152.78567 646.28125 150.8125 C 645.55949 148.61756 644.75335 146.46255 643.90625 144.3125 C 642.98933 141.693 641.81015 139.15069 640.59375 136.65625 C 639.73597 134.8763 638.8162 133.11495 637.71875 131.46875 C 637.86469 131.46925 638.01047 131.46846 638.15625 131.46875 C 639.70678 131.45389 641.21766 131.83341 642.75 132.03125 L 645.21875 130.28125 C 643.67563 130.09472 642.14922 129.705 640.59375 129.6875 C 639.08397 129.68113 637.56474 129.63648 636.0625 129.8125 C 635.35296 129.93353 634.63206 130.13209 633.9375 130.40625 C 634.12167 129.95801 634.31719 129.51176 634.5 129.0625 z "
       id="path3944" />
    <text
       xml:space="preserve"
       style="font-size:16px;font-style:normal;font-variant:normal;font-weight:normal;font-stretch:normal;text-align:start;line-height:125%;letter-spacing:0px;word-spacing:0px;writing-mode:lr-tb;text-anchor:start;fill:#800000;fill-opacity:1;stroke:none;font-family:Segoe Print;-inkscape-font-specification:Segoe Print"
       x="301.76907"
       y="574.8222"
       id="text3861-5-7"
       sodipodi:linespacing="125%"
       transform="matrix(0.77261819,-0.63487096,0.63487096,0.77261819,0,0)"
       inkscape:transform-center-y="21.445518"><tspan
         sodipodi:role="line"
         id="tspan3863-1-1"
         x="301.76907"
         y="574.8222"
         style="font-size:14px;fill:#800000">6. OrderConfirmed</tspan></text>
    <path
       style="fill:#000000;fill-opacity:1;fill-rule:nonzero;stroke:none"
       d="M 89.53125 115.96875 C 87.697454 116.01981 85.886362 116.34699 84.09375 116.78125 C 81.332373 117.49001 78.968258 119.04999 76.53125 120.46875 C 74.770755 121.60043 73.415346 123.22485 72.34375 125 C 71.345119 127.06109 70.67576 129.28962 70.21875 131.53125 C 69.610794 133.97939 71.085681 135.71673 72.625 137.4375 C 74.374301 139.16834 76.501972 140.46995 78.78125 141.375 C 80.765357 142.15357 82.858608 142.5965 84.96875 142.84375 C 86.575568 143.00029 88.168532 142.998 89.78125 143 C 92.5374 142.7578 94.931156 141.05088 97.25 139.71875 C 99.071284 138.53559 100.74531 137.12616 102.21875 135.53125 C 103.4911 134.40601 104.25794 132.88458 105.25 131.53125 C 106.33257 130.04134 106.71167 128.22629 106.9375 126.4375 C 107.2117 124.69103 106.96709 122.97899 106.71875 121.25 C 106.4288 119.62927 105.65967 118.31955 104.40625 117.28125 C 103.57825 116.75483 103.98995 117.01233 103.125 116.5 L 100.59375 118.15625 C 101.44353 118.65795 101.03613 118.41932 101.84375 118.90625 C 103.05637 119.88443 103.77116 121.12826 104.03125 122.6875 C 104.27486 124.39222 104.4945 126.06197 104.21875 127.78125 C 103.97836 129.53959 103.56642 131.30623 102.46875 132.75 C 101.49563 134.10659 100.70378 135.56722 99.4375 136.6875 C 98.201848 137.97217 96.812774 139.14473 95.34375 140.15625 C 94.423018 140.58371 92.856085 141.29645 92.25 141.21875 C 90.64276 141.21998 89.040382 141.22969 87.4375 141.09375 C 85.341833 140.87345 83.251555 140.45677 81.28125 139.6875 C 79.02536 138.83649 76.953803 137.55768 75.21875 135.875 C 73.721415 134.20733 72.349422 132.55507 72.96875 130.1875 C 73.434904 127.97661 74.055169 125.79401 75.09375 123.78125 C 76.044725 122.29484 77.171833 120.91374 78.59375 119.875 C 79.6508 119.34676 81.164516 118.63924 81.6875 118.625 C 84.069372 118.03853 86.462494 117.56001 88.9375 117.78125 C 92.055863 117.87868 95.179681 118.02193 98.28125 118.375 L 100.75 116.625 C 97.633656 116.29175 94.506143 116.13501 91.375 116.03125 C 90.756466 115.97836 90.142515 115.95173 89.53125 115.96875 z M 87.90625 143.09375 L 85.1875 144.46875 C 85.257478 148.35514 85.240447 152.21448 85 156.09375 C 84.691762 159.92808 83.904316 163.69055 83.40625 167.5 C 83.098341 170.09008 82.96183 172.70622 82.90625 175.3125 C 82.94024 177.77407 82.626858 180.23601 82.4375 182.6875 C 82.344301 185.43626 82.124061 188.14689 81.78125 190.875 C 81.673945 192.83002 81.2652 194.69373 80.375 196.4375 C 78.752149 199.06885 76.960682 201.59027 75.1875 204.125 C 72.97923 207.43955 70.892693 210.83804 68.6875 214.15625 C 66.888103 217.03985 65.143987 219.94757 63.21875 222.75 C 61.764569 224.94449 60.235191 227.07432 58.625 229.15625 C 56.979707 231.32883 55.788505 233.80064 54.5625 236.21875 C 53.202131 238.61004 52.154229 241.17756 50.84375 243.59375 C 49.945423 245.10376 49.495772 246.78175 49.0625 248.46875 C 48.909867 249.35578 48.643249 250.2272 48.40625 251.09375 L 51.125 249.78125 C 51.36184 248.91372 51.611093 248.04025 51.78125 247.15625 C 52.232522 245.49166 52.695351 243.83486 53.59375 242.34375 C 54.868103 239.91125 55.97261 237.39935 57.3125 235 C 58.534189 232.58729 59.719101 230.12375 61.375 227.96875 C 62.975575 225.87995 64.514359 223.75612 65.96875 221.5625 C 67.873872 218.75207 69.602638 215.81318 71.40625 212.9375 C 73.60984 209.61892 75.711251 206.23979 77.9375 202.9375 C 79.716275 200.3858 81.536679 197.86083 83.125 195.1875 C 83.968855 193.39671 84.40052 191.51172 84.5 189.53125 C 84.831919 186.80056 85.014458 184.06113 85.125 181.3125 C 85.31576 178.8533 85.63148 176.40763 85.59375 173.9375 C 85.64458 171.34534 85.781425 168.763 86.09375 166.1875 C 86.595404 162.37561 87.358757 158.58835 87.65625 154.75 C 87.784206 152.64821 87.843257 150.56496 87.875 148.46875 C 91.815233 152.12142 95.424818 156.10901 98.84375 160.25 C 102.32618 164.1646 105.38085 168.41146 108.4375 172.65625 C 110.07783 174.88829 111.72712 177.12974 113.75 179.03125 L 116.3125 177.4375 C 114.28883 175.56249 112.64881 173.32757 111 171.125 C 107.91426 166.89096 104.83568 162.66677 101.34375 158.75 C 97.599502 154.21636 93.670365 149.86476 89.34375 145.875 L 87.875 146.75 C 87.883875 145.53495 87.909547 144.3132 87.90625 143.09375 z M 84.6875 147.625 C 81.839634 149.15892 79.184321 151.00546 76.46875 152.75 C 74.298245 153.86271 72.144427 154.99019 69.96875 156.09375 C 67.88933 157.07369 65.830736 158.14773 63.75 159.125 C 63.003854 159.53886 62.267328 159.93968 61.5 160.3125 L 59.125 162.1875 C 59.904274 161.83007 60.64412 161.45051 61.375 161 C 63.465123 160.03516 65.504982 158.96761 67.59375 158 C 69.876194 156.84095 72.156702 155.66122 74.4375 154.5 C 76.723842 153.20428 78.922487 151.9791 81.09375 150.53125 C 81.558208 150.22154 82.001604 149.89939 82.46875 149.59375 C 82.914162 149.30232 84.306309 148.91742 83.8125 148.71875 C 83.564133 148.61882 83.326399 148.72817 83.09375 148.90625 L 84.6875 147.625 z M 84.15625 197.4375 L 81.46875 198.84375 C 81.769777 203.04349 82.740191 207.14464 83.75 211.21875 C 85.225188 216.10594 87.014324 220.89945 88.78125 225.6875 C 90.154599 229.28679 91.622751 232.85909 92.96875 236.46875 C 93.605878 238.42464 94.387349 240.32683 94.8125 242.34375 C 95.119681 243.35957 95.37954 244.3982 95.59375 245.4375 L 98.28125 244 C 98.060711 242.96223 97.7717 241.92301 97.46875 240.90625 C 97.029339 238.87904 96.250826 236.96317 95.59375 235 C 94.233247 231.39815 92.746801 227.84736 91.375 224.25 C 89.604496 219.47533 87.836846 214.692 86.375 209.8125 C 85.374998 205.74357 84.403376 201.63501 84.15625 197.4375 z "
       id="path3023" />
  </g>
  <g
     inkscape:groupmode="layer"
     id="versionlayer"
     inkscape:label="Version">
    <text
       xml:space="preserve"
       style="-inkscape-font-specification:Courier New;font-family:Courier New;font-weight:normal;font-style:normal;font-stretch:normal;font-variant:normal;fill:#ff0000"
       x="10"
       y="10"
       id="versiontext">Reference_06_Naive.svg (v1)</text>
  </g>
</svg>
