<?xml version="1.0" encoding="UTF-8" standalone="no"?>
<!-- Created with Inkscape (http://www.inkscape.org/) -->

<svg
   xmlns:dc="http://purl.org/dc/elements/1.1/"
   xmlns:cc="http://creativecommons.org/ns#"
   xmlns:rdf="http://www.w3.org/1999/02/22-rdf-syntax-ns#"
   xmlns:svg="http://www.w3.org/2000/svg"
   xmlns="http://www.w3.org/2000/svg"
   xmlns:sodipodi="http://sodipodi.sourceforge.net/DTD/sodipodi-0.dtd"
   xmlns:inkscape="http://www.inkscape.org/namespaces/inkscape"
   width="1052.3622"
   height="744.09448"
   id="svg2"
   version="1.1"
   inkscape:version="0.48.2 r9819"
   sodipodi:docname="Reference_06_Workflow.svg"
   inkscape:export-filename="D:\CQRS Resources\Source Code\cqrs-journey-doc\images\Reference_06_Workflow.png"
   inkscape:export-xdpi="90"
   inkscape:export-ydpi="90">
  <title
     id="title3970">With Workflow</title>
  <defs
     id="defs4" />
  <sodipodi:namedview
     id="base"
     pagecolor="#ffffff"
     bordercolor="#666666"
     borderopacity="1.0"
     inkscape:pageopacity="0.0"
     inkscape:pageshadow="2"
     inkscape:zoom="1.3056341"
     inkscape:cx="526.18109"
     inkscape:cy="372.04724"
     inkscape:document-units="px"
     inkscape:current-layer="layer2"
     showgrid="false"
     inkscape:window-width="1846"
     inkscape:window-height="1178"
     inkscape:window-x="1592"
     inkscape:window-y="-8"
     inkscape:window-maximized="1" />
  <metadata
     id="metadata7">
    <rdf:RDF>
      <cc:Work
         rdf:about="">
        <dc:format>image/svg+xml</dc:format>
        <dc:type
           rdf:resource="http://purl.org/dc/dcmitype/StillImage" />
        <dc:title>With Workflow</dc:title>
      </cc:Work>
    </rdf:RDF>
  </metadata>
  <g
     inkscape:label="Templates"
     inkscape:groupmode="layer"
     id="layer1"
     transform="translate(0,-308.2677)"
     style="display:none">
    <path
       sodipodi:type="arc"
       style="fill:none;stroke:#800000;stroke-width:2;stroke-miterlimit:4;stroke-opacity:1;stroke-dasharray:none;stroke-dashoffset:0"
       id="path3757"
       sodipodi:cx="446.90927"
       sodipodi:cy="271.52719"
       sodipodi:rx="82.335472"
       sodipodi:ry="56.677441"
       d="m 529.24474,271.52719 c 0,31.30209 -36.86284,56.67744 -82.33547,56.67744 -45.47262,0 -82.33547,-25.37535 -82.33547,-56.67744 0,-31.30208 36.86285,-56.67744 82.33547,-56.67744 45.47263,0 82.33547,25.37536 82.33547,56.67744 z"
       transform="translate(0,308.2677)" />
    <path
       transform="translate(410.91143,309.79952)"
       sodipodi:type="arc"
       style="fill:none;stroke:#800000;stroke-width:2;stroke-miterlimit:4;stroke-opacity:1;stroke-dasharray:none;stroke-dashoffset:0;display:inline"
       id="path3757-1"
       sodipodi:cx="446.90927"
       sodipodi:cy="271.52719"
       sodipodi:rx="82.335472"
       sodipodi:ry="56.677441"
       d="m 529.24474,271.52719 c 0,31.30209 -36.86284,56.67744 -82.33547,56.67744 -45.47262,0 -82.33547,-25.37535 -82.33547,-56.67744 0,-31.30208 36.86285,-56.67744 82.33547,-56.67744 45.47263,0 82.33547,25.37536 82.33547,56.67744 z" />
    <path
       transform="translate(187.26532,427.74986)"
       sodipodi:type="arc"
       style="fill:none;stroke:#800000;stroke-width:2;stroke-miterlimit:4;stroke-opacity:1;stroke-dasharray:none;stroke-dashoffset:0;display:inline"
       id="path3757-7"
       sodipodi:cx="446.90927"
       sodipodi:cy="271.52719"
       sodipodi:rx="82.335472"
       sodipodi:ry="56.677441"
       d="m 529.24474,271.52719 c 0,31.30209 -36.86284,56.67744 -82.33547,56.67744 -45.47262,0 -82.33547,-25.37535 -82.33547,-56.67744 0,-31.30208 36.86285,-56.67744 82.33547,-56.67744 45.47263,0 82.33547,25.37536 82.33547,56.67744 z" />
  </g>
  <g
     inkscape:groupmode="layer"
     id="layer2"
     inkscape:label="Drawing"
     style="display:inline">
    <path
       style="fill:#000000;fill-opacity:1;fill-rule:nonzero;stroke:none"
       id="path3784"
       d="m 381.087,194.29595 c -2.16673,-0.0115 -4.3335,-0.005 -6.50025,-0.006 -1.79647,-0.11249 -3.53655,0.048 -5.29678,0.37379 -1.56916,0.32619 -3.17951,0.24135 -4.75703,0.47783 -1.71969,0.13273 -3.33608,0.72589 -5.00868,1.09178 -1.74176,0.15529 -3.4541,0.45229 -5.18094,0.71801 -1.82077,0.17358 -3.62033,0.51075 -5.39091,0.96729 -1.9031,0.37468 -3.66485,1.16654 -5.47514,1.82376 -1.71038,0.45676 -3.36153,1.0948 -5.0568,1.59823 -1.60933,0.40454 -3.19501,0.89604 -4.7736,1.4067 -1.73186,0.64103 -3.43767,1.34341 -5.14512,2.04772 -1.52021,0.63846 -2.98673,1.44433 -4.55544,1.95501 -1.54343,0.73005 -3.14116,1.36731 -4.6122,2.2377 -0.78406,0.53384 -3.51484,1.75013 0.34667,-0.23607 0.28873,-0.14851 -0.54541,0.35248 -0.82025,0.52535 -1.2449,0.78304 -0.39097,0.20701 -1.54096,1.01001 -1.35445,0.89658 -2.68107,1.79517 -3.88434,2.88881 -1.52947,1.56996 -2.98323,3.20117 -4.38256,4.88638 -1.14707,1.57228 -2.29723,3.13951 -3.41632,4.73221 -1.0303,1.34175 -1.68847,2.89128 -2.4882,4.36623 -0.84457,1.48834 -1.58959,3.02024 -2.19798,4.61973 -0.66133,1.70326 -1.28407,3.42676 -1.8175,5.17492 -0.46086,1.58434 -0.54687,3.23205 -0.59985,4.87041 -0.28077,1.8582 -0.52252,3.71379 -0.64775,5.58986 -0.11063,1.89468 -0.12356,3.79292 -0.13499,5.69019 -0.16775,2.00288 0.28739,3.89945 0.87566,5.79592 0.75215,1.90647 1.60641,3.77746 2.66224,5.53543 1.18862,1.78073 2.49232,3.4775 3.73304,5.22128 1.32836,1.66076 2.36128,3.51895 3.40564,5.36261 1.00288,1.29509 1.7525,2.74617 2.52732,4.18074 0.67394,1.33409 1.41148,2.6306 2.21502,3.89049 0.83981,1.34516 1.77017,2.62595 2.82662,3.80969 0.94372,0.99892 1.93551,1.97032 2.93429,2.92602 1.27074,1.01789 2.62049,1.92111 3.99631,2.78899 1.93416,0.98111 3.84507,2.00509 5.86224,2.8081 2.60761,1.1924 5.16308,2.478 7.83589,3.52117 2.14112,0.96764 4.34727,1.73632 6.66466,2.12907 1.70524,0.24778 3.3746,0.63034 5.0943,0.79137 2.06001,0.0916 4.12101,0.30123 6.1336,0.759 1.81685,0.56112 3.71764,0.6551 5.57953,0.96676 2.0696,0.31272 4.09317,0.83574 6.16215,1.1527 2.06964,0.24248 4.09961,0.72875 6.13542,1.15876 2.01232,0.58781 4.04491,1.07074 6.12563,1.33074 1.65698,0.1746 3.32508,0.17473 4.98916,0.18071 1.78146,0.005 3.53533,0.38745 5.30738,0.5586 1.90365,0.27245 3.79305,-0.0593 5.68136,-0.2823 1.70944,-0.12336 3.4028,-0.43121 5.06191,-0.85752 1.75266,-0.37879 3.42749,-1.01776 5.18862,-1.35639 1.82732,-0.45008 3.5862,-1.11565 5.36676,-1.71672 1.85908,-0.39653 3.59691,-1.09492 5.33282,-1.8513 1.78267,-0.74649 3.62963,-1.29434 5.46707,-1.87937 1.44364,-0.69459 2.92272,-1.30985 4.42358,-1.86341 0.21177,-0.10925 0.84144,-0.44724 0.63529,-0.32775 -0.64914,0.37625 -1.3032,0.74434 -1.96475,1.09832 -0.22042,0.11795 0.42347,-0.2661 0.6407,-0.38984 1.54056,-0.87752 3.04285,-1.78174 4.64742,-2.52239 2.28923,-1.23501 -1.51838,0.90233 -1.13602,0.68145 7.79099,-4.50047 2.39382,-1.29847 1.50846,-0.94432 -0.58151,0.23261 1.01916,-0.72833 1.52428,-1.09864 1.58211,-0.96494 3.01442,-2.10396 4.38379,-3.34426 1.33255,-1.10558 2.74873,-2.1145 4.01014,-3.30239 1.40085,-1.37871 2.7164,-2.83766 4.05342,-4.27775 1.36733,-1.55019 2.58211,-3.22469 3.79052,-4.89937 0.87919,-1.18464 1.56696,-2.48001 2.32392,-3.74064 0.82077,-1.36392 1.37924,-2.85444 1.95968,-4.32915 0.64973,-1.58365 1.26556,-3.17506 1.79687,-4.80324 0.53767,-1.80998 0.96046,-3.64839 1.56926,-5.43591 0.53538,-1.43301 0.96256,-2.89464 1.40507,-4.3573 0.51105,-1.45779 0.73642,-2.97811 0.86238,-4.51037 0.0965,-1.52627 0.0916,-3.05649 0.0925,-4.58509 4e-5,-1.71739 -0.003,-3.43478 -0.006,-5.15217 -0.1145,-1.62417 -0.78654,-3.13238 -1.37666,-4.62779 -0.74498,-1.38773 -1.41138,-2.8238 -2.23351,-4.16744 -0.83929,-1.32783 -1.70849,-2.63735 -2.57447,-3.95063 -0.97715,-1.40273 -1.92569,-2.82528 -2.86592,-4.25337 -1.04249,-1.34845 -2.1181,-2.66502 -3.26149,-3.92933 -1.28531,-1.37679 -2.52786,-2.78234 -3.87233,-4.10281 -1.1358,-1.20267 -2.57333,-2.04169 -3.94575,-2.94139 -1.16074,-0.971 -2.34203,-1.91101 -3.56691,-2.79926 -1.54319,-1.10847 -3.28192,-1.84374 -4.96196,-2.70055 -2.05614,-1.16311 -4.14765,-2.26212 -6.25494,-3.33024 -2.05656,-1.08138 -4.23877,-1.89316 -6.3813,-2.78549 -1.98336,-0.75329 -3.9509,-1.57043 -5.86612,-2.48495 -1.76757,-0.78207 -3.52748,-1.59352 -5.39926,-2.09307 -1.57223,-0.46315 -3.06718,-1.12715 -4.65679,-1.53191 -1.7253,-0.61238 -3.47999,-1.13838 -5.21714,-1.71673 -1.71229,-0.52935 -3.42646,-1.04807 -5.1868,-1.39295 -1.64993,-0.16152 -3.25422,-0.57494 -4.88819,-0.83863 -1.01596,-0.15335 -2.04222,-0.20519 -3.06739,-0.24885 0,0 2.45824,-1.76876 2.45824,-1.76876 l 0,0 c 1.03234,0.0513 2.06554,0.11281 3.08723,0.27868 1.6319,0.27795 3.24337,0.66139 4.88998,0.85015 1.76412,0.36571 3.48989,0.88225 5.20781,1.42173 1.73936,0.56139 3.47356,1.13438 5.21036,1.69948 1.58144,0.42861 3.08114,1.08668 4.65679,1.53639 1.87259,0.53365 3.64379,1.34823 5.41705,2.14397 1.9187,0.90015 3.88306,1.71046 5.86027,2.47237 2.1443,0.9028 4.33328,1.71067 6.39012,2.8058 2.10801,1.06768 4.19246,2.18006 6.2582,3.32693 1.70512,0.84427 3.44185,1.62018 4.99823,2.73505 1.22243,0.8845 2.39408,1.83019 3.56235,2.78504 1.38946,0.9064 2.82203,1.78319 3.97137,2.99584 1.3478,1.32496 2.58519,2.74347 3.88021,4.11871 1.15488,1.27457 2.24472,2.59964 3.28681,3.96808 0.94133,1.42743 1.89111,2.84921 2.87093,4.25016 0.86888,1.31505 1.73712,2.62984 2.57555,3.96218 0.83007,1.35948 1.51607,2.80426 2.26236,4.21103 0.60487,1.52942 1.28321,3.07246 1.42749,4.72933 9.5e-4,1.71686 0.004,3.43372 0.01,5.15058 0,1.53558 0.006,3.07254 -0.0819,4.60622 -0.11632,1.55045 -0.32034,3.0945 -0.83323,4.57108 -0.46363,1.45771 -0.84194,2.93969 -1.40281,4.36654 -0.62105,1.78414 -1.06583,3.61407 -1.57701,5.43285 -0.52001,1.63629 -1.12603,3.23469 -1.78305,4.8194 -0.59719,1.47917 -1.12279,2.99301 -1.93641,4.37468 -0.77865,1.25487 -1.42909,2.57868 -2.31866,3.764 -1.21687,1.68184 -2.43457,3.36426 -3.78965,4.93914 -1.33548,1.4395 -2.64131,2.90508 -4.03471,4.28747 -1.22933,1.22262 -2.65736,2.22779 -4.0048,3.31219 -1.3797,1.23188 -2.75619,2.45104 -4.37663,3.37283 -1.58221,1.17584 -3.15671,2.04656 -4.85806,3.14726 -0.59684,0.38612 2.45819,-1.42895 1.84054,-1.07707 -4.03117,2.29656 -2.08546,1.29773 -4.05505,2.29128 -0.46621,0.22539 -1.8235,0.97849 -1.38656,0.70058 4.93651,-3.13978 -1.00184,0.85802 -2.58772,1.4238 -1.48757,0.58705 -2.96783,1.18418 -4.42597,1.8421 -1.83912,0.56894 -3.67044,1.15904 -5.44802,1.90444 -1.74094,0.74836 -3.49882,1.39409 -5.34633,1.83104 -1.78287,0.61151 -3.55403,1.26469 -5.39417,1.68933 -1.74833,0.37562 -3.43113,0.98935 -5.1805,1.36578 -1.67419,0.39574 -3.36687,0.71104 -5.08543,0.82826 -1.90082,0.22458 -3.80479,0.5094 -5.71879,0.22861 -1.76431,-0.18006 -3.51425,-0.555 -5.29203,-0.5343 -1.67206,-0.008 -3.3486,-0.0123 -5.01144,-0.21166 -2.08017,-0.2848 -4.10839,-0.79439 -6.12986,-1.35664 -2.03258,-0.43101 -4.06351,-0.89142 -6.12831,-1.14419 -2.0666,-0.33091 -4.09487,-0.84462 -6.16588,-1.15129 -1.87106,-0.28554 -3.76649,-0.43365 -5.5899,-0.9807 -2.01218,-0.42608 -4.0599,-0.63145 -6.11296,-0.72946 -1.72285,-0.17332 -3.3996,-0.55925 -5.11058,-0.80911 -2.31965,-0.4314 -4.52461,-1.23166 -6.67772,-2.1921 -2.67202,-1.04981 -5.22351,-2.35339 -7.84608,-3.51756 -2.02779,-0.82254 -3.9626,-1.83676 -5.902,-2.84679 -1.39398,-0.87611 -2.76397,-1.78988 -4.0397,-2.83371 -1.00372,-0.96081 -2.00219,-1.9378 -2.94568,-2.94855 -1.05663,-1.20434 -2.00089,-2.49237 -2.84856,-3.85152 -0.8097,-1.26497 -1.55264,-2.56621 -2.22574,-3.90964 -0.77624,-1.43145 -1.52369,-2.88068 -2.51659,-4.18038 -1.03732,-1.83617 -2.06159,-3.6867 -3.38774,-5.33709 -1.24313,-1.75169 -2.55207,-3.45431 -3.74828,-5.23934 -1.06756,-1.77937 -1.92536,-3.67424 -2.69104,-5.60137 -0.60568,-1.91961 -1.09868,-3.84125 -0.92719,-5.87363 0.005,-1.90385 0.0273,-3.80838 0.13325,-5.70973 0.11769,-1.87154 0.31496,-3.72944 0.64485,-5.57661 0.0455,-1.6602 0.11442,-3.33033 0.5634,-4.94073 0.51943,-1.75747 1.15508,-3.48318 1.81195,-5.19293 0.58001,-1.62064 1.33406,-3.15991 2.17635,-4.65991 0.82516,-1.4703 1.44225,-3.0496 2.47812,-4.39933 1.13933,-1.58578 2.27036,-3.17122 3.41218,-4.75617 1.41274,-1.67961 2.84313,-3.33217 4.36222,-4.91967 1.18866,-1.12118 2.48823,-2.04965 3.86832,-2.92334 2.25294,-1.65148 4.74999,-2.94047 7.17809,-4.31285 1.50093,-0.82568 3.07637,-1.51895 4.6488,-2.19546 1.5451,-0.57054 3.02486,-1.31708 4.539,-1.96487 1.7079,-0.71298 3.42479,-1.39901 5.16421,-2.03202 1.57757,-0.51264 3.17117,-0.97555 4.77463,-1.40012 1.68767,-0.52177 3.35035,-1.12064 5.04752,-1.61366 1.80577,-0.67647 3.59292,-1.40428 5.49128,-1.79491 1.78144,-0.43234 3.583,-0.76081 5.40746,-0.94641 1.72334,-0.28043 3.445,-0.51476 5.17542,-0.73852 1.66852,-0.38877 3.30139,-0.92901 5.02071,-1.06768 1.58174,-0.19172 3.18782,-0.16164 4.75405,-0.49292 1.76432,-0.31679 3.52183,-0.39874 5.31559,-0.3199 2.17227,-7.4e-4 4.34456,0.005 6.51681,-0.006 0,0 -2.45472,1.78346 -2.45472,1.78346 z"
       inkscape:connector-curvature="0" />
    <path
       style="fill:#000000;fill-opacity:1;fill-rule:nonzero;stroke:none"
       id="path3786"
       d="m 682.84366,276.13926 c -2.12243,-0.30948 -4.26156,-0.47443 -6.40257,-0.58179 -1.96756,-0.0787 -3.93707,-0.0817 -5.90588,-0.0848 -1.83592,-0.12861 -3.62317,0.10714 -5.43152,0.36944 -1.84059,0.15344 -3.65386,0.44761 -5.47544,0.74339 -1.74884,0.29114 -3.51946,0.36637 -5.28835,0.408 -1.72221,-0.0443 -3.43989,0.15335 -5.10126,0.60742 -1.5741,0.56077 -3.24272,0.65385 -4.86832,0.95911 -1.67954,0.33148 -3.39025,0.4967 -4.982,1.15643 -1.75378,0.55558 -3.47189,1.19048 -5.13979,1.96993 -1.69932,0.6535 -3.33918,1.4184 -4.93147,2.30175 -0.25969,0.13032 -1.03147,0.53486 -0.77906,0.39096 4.21825,-2.40474 -0.3678,0.37069 -1.2477,0.93441 -1.53264,1.14095 -3.06958,2.29919 -4.50804,3.55884 -1.35352,1.01223 -2.48143,2.2507 -3.66116,3.44701 -1.12,1.23928 -2.25508,2.45828 -3.36304,3.70781 -1.29408,1.47163 -2.41752,3.06385 -3.46059,4.71936 -0.93757,1.25463 -1.73518,2.60197 -2.60829,3.89962 -0.9724,1.4706 -1.62913,3.11393 -2.27158,4.74728 -0.88507,1.49297 -1.24323,3.14915 -1.66115,4.80681 -0.44076,1.5713 -0.6338,3.1898 -1.0021,4.77702 -0.37545,1.50113 -0.51154,3.04099 -0.589,4.58149 -0.23948,1.53284 -0.52269,3.05376 -0.67183,4.59941 -0.13487,1.67821 -0.13673,3.36321 -0.14431,5.04568 -0.006,1.95471 -0.003,3.90945 -5e-4,5.86416 -0.1374,1.80162 0.45703,3.48867 0.8883,5.20359 0.60469,1.88921 1.40596,3.7209 2.20907,5.53493 0.8926,1.69911 1.74174,3.42425 2.75785,5.05398 0.86354,1.44795 1.76018,2.86625 2.84331,4.16204 1.09138,1.48326 2.41693,2.75828 3.72215,4.04926 1.13164,1.32925 2.47701,2.44181 3.83954,3.52216 1.69287,1.45121 3.44891,2.80586 5.26561,4.09784 1.60966,1.03817 3.2696,1.99239 4.94954,2.91384 1.43976,0.9506 3.07708,1.48149 4.69674,2.03032 1.71743,0.53635 3.48802,0.87264 5.22015,1.34725 1.72086,0.43124 3.45489,0.81344 5.19223,1.17821 1.64737,0.49843 3.31714,0.9073 4.98408,1.33119 1.81977,0.69123 3.71845,1.05356 5.64489,1.27436 1.6858,0.0819 3.36491,0.30412 4.99204,0.759 1.75349,0.45749 3.5444,0.71855 5.31711,1.08717 1.95727,0.3945 3.88986,0.87364 5.87032,1.14735 1.79244,0.0931 3.55537,0.36166 5.33139,0.60447 2.03103,0.1542 4.02453,0.57049 6.03892,0.85354 1.86634,0.2257 3.74701,0.27563 5.62477,0.30359 1.756,-0.0859 3.48033,0.26634 5.21422,0.48524 1.91544,0.22594 3.84664,0.25179 5.7729,0.27766 1.85232,0.016 3.70475,0.0131 5.55712,0.0109 1.6743,-0.003 3.3486,-0.005 5.02291,-0.005 1.95598,-0.20411 3.87448,-0.69344 5.76928,-1.20803 1.71992,-0.45773 3.32209,-1.20934 5.0693,-1.57901 1.23388,-0.43108 2.48378,-0.78494 3.72963,-1.17124 1.70259,-0.65692 3.33182,-1.48748 4.97189,-2.28944 1.85275,-0.88942 3.6915,-1.81063 5.55699,-2.67341 1.62983,-0.71054 3.15985,-1.59093 4.75418,-2.37195 -4.57759,2.75775 0.42395,-0.49723 1.28264,-1.10219 1.4128,-1.01325 2.87548,-1.94575 4.30787,-2.93102 1.81588,-1.35339 3.51163,-2.85347 5.09232,-4.47342 1.34566,-1.25296 2.51477,-2.67653 3.79671,-3.9866 1.21559,-1.15993 2.34457,-2.38884 3.29828,-3.7733 0.91153,-1.33497 1.91774,-2.59622 2.81425,-3.9432 0.98968,-1.51216 1.64897,-3.19608 2.39366,-4.83354 0.68759,-1.56771 1.19833,-3.21443 1.65567,-4.86318 0.42984,-1.46883 0.37176,-3.00939 0.60049,-4.50665 0.325,-1.31243 0.51129,-2.64456 0.61231,-3.9909 0.0921,-1.61248 0.0897,-3.22848 0.0928,-4.84302 0.0136,-1.74647 -0.37103,-3.4635 -0.55134,-5.19708 -0.24513,-1.701 -0.65871,-3.35366 -1.25953,-4.96187 -0.59947,-1.5596 -0.96729,-3.18943 -1.56672,-4.7494 -0.6162,-1.67439 -1.32866,-3.28834 -2.20806,-4.83961 -0.84022,-1.30186 -1.49536,-2.70441 -2.28012,-4.0395 -1.12535,-1.55419 -2.47807,-2.95251 -3.789,-4.3556 -1.28262,-1.67886 -2.78919,-3.14405 -4.31814,-4.59287 -1.27639,-1.23255 -2.67604,-2.32457 -4.0478,-3.44758 -1.61668,-1.16926 -3.30682,-2.23067 -4.96482,-3.33932 -1.86447,-1.04738 -3.62361,-2.26782 -5.46947,-3.34536 -1.5967,-0.86689 -3.23647,-1.58721 -4.91745,-2.26962 -1.97577,-0.82366 -3.95112,-1.64626 -5.9333,-2.45194 -1.64833,-0.72491 -3.24635,-1.52156 -4.91041,-2.20795 -1.52722,-0.53173 -3.08213,-0.92173 -4.58959,-1.51607 -1.66525,-0.50624 -3.27295,-1.17174 -4.91155,-1.75205 -1.91482,-0.55126 -3.78433,-1.24506 -5.69871,-1.79821 -1.65889,-0.33776 -3.3167,-0.66187 -4.97743,-0.99685 -1.49745,-0.51215 -3.02928,-0.85255 -4.59904,-1.03512 -1.65116,-0.19542 -3.27493,-0.54441 -4.93325,-0.71845 -1.68894,-0.0339 -3.3357,-0.27131 -4.99603,-0.5568 -1.72943,-0.30527 -3.43211,-0.71807 -5.17648,-0.9469 -0.8136,-0.0994 -1.6322,-0.13798 -2.45028,-0.17634 0,0 2.4577,-1.76668 2.4577,-1.76668 l 0,0 c 0.82249,0.0448 1.64548,0.0903 2.46272,0.19889 1.74373,0.24567 3.45009,0.66312 5.18514,0.95399 1.65395,0.28621 3.30279,0.47384 4.98144,0.54391 1.65769,0.18606 3.28466,0.53687 4.94057,0.71851 1.57244,0.20378 3.10007,0.57717 4.61178,1.05556 1.66237,0.34492 3.33244,0.63852 4.98516,1.02227 1.9138,0.57051 3.79508,1.24392 5.7098,1.81182 1.63836,0.5916 3.2604,1.22613 4.92116,1.755 1.51283,0.57459 3.0727,0.966 4.59009,1.523 1.66546,0.67929 3.24953,1.50761 4.90514,2.21148 1.97747,0.81849 3.95755,1.62789 5.93464,2.44905 1.6947,0.6807 3.33928,1.4293 4.94344,2.30644 1.83886,1.09567 3.60923,2.30307 5.46816,3.36588 1.6707,1.10938 3.37854,2.1654 4.99424,3.35526 1.37989,1.12304 2.77126,2.23487 4.05319,3.47057 1.53253,1.45308 3.03075,2.93294 4.3202,4.61263 1.33011,1.41687 2.70717,2.82463 3.8417,4.40182 0.78737,1.33588 1.43375,2.745 2.27675,4.04762 0.88185,1.56565 1.6095,3.18999 2.23101,4.87715 0.60645,1.55906 0.97265,3.18946 1.56719,4.75215 0.61898,1.62999 1.03326,3.30675 1.29376,5.03192 0.17749,1.74388 0.56973,3.46926 0.56697,5.22442 -0.002,1.61949 0.009,3.24026 -0.0761,4.85812 -0.0914,1.3543 -0.25003,2.70101 -0.59786,4.01685 -0.28326,1.49679 -0.15969,3.05689 -0.593,4.53562 -0.4452,1.6658 -0.97187,3.32249 -1.64085,4.9112 -0.7604,1.63982 -1.39414,3.34207 -2.36794,4.87374 -0.89604,1.34977 -1.87669,2.62848 -2.81546,3.94533 -0.92746,1.41572 -2.05086,2.6614 -3.27345,3.82991 -1.33421,1.25119 -2.4232,2.77243 -3.81022,3.98355 -1.57449,1.63811 -3.26739,3.14755 -5.07201,4.52957 -1.42797,0.98577 -2.87549,1.91967 -4.29413,2.91761 -2.03963,1.52526 -4.26071,2.83911 -6.46108,4.10634 -1.57987,0.80552 -3.13859,1.63317 -4.75615,2.36331 -1.85793,0.87686 -3.7059,1.77558 -5.55269,2.67538 -1.65253,0.79272 -3.27942,1.65232 -5.00959,2.26437 -1.24124,0.40734 -2.50182,0.7392 -3.74322,1.14754 -1.72628,0.40538 -3.32968,1.15608 -5.05019,1.58005 -1.91399,0.5013 -3.84691,1.01428 -5.82702,1.15301 -1.67256,2.7e-4 -3.34512,7.5e-4 -5.01768,0.002 -1.85237,0.001 -3.70483,0.007 -5.55709,-0.0168 -1.93463,-0.0313 -3.87456,-0.0608 -5.79692,-0.30236 -1.72644,-0.22498 -3.44691,-0.53813 -5.19608,-0.45707 -1.88431,-0.0357 -3.77134,-0.0976 -5.6427,-0.33746 -2.01135,-0.295 -4.00777,-0.68708 -6.03638,-0.85312 -1.77625,-0.24542 -3.54673,-0.47024 -5.33535,-0.60375 -1.98043,-0.29341 -3.91739,-0.77854 -5.88033,-1.1634 -1.77788,-0.36872 -3.57731,-0.62316 -5.33211,-1.09776 -1.62618,-0.41648 -3.2877,-0.6318 -4.96257,-0.72708 -1.93398,-0.24244 -3.83215,-0.63956 -5.66903,-1.30579 -1.66275,-0.42796 -3.32918,-0.83659 -4.97692,-1.32123 -1.73905,-0.37572 -3.48167,-0.74009 -5.20242,-1.18991 -1.74483,-0.45343 -3.50911,-0.82978 -5.23388,-1.36317 -1.6303,-0.56414 -3.26974,-1.11858 -4.72169,-2.07722 -1.68193,-0.93613 -3.35835,-1.88025 -4.96026,-2.94841 -1.81474,-1.30281 -3.57866,-2.65677 -5.27818,-4.10738 -1.374,-1.08519 -2.72525,-2.207 -3.86107,-3.54884 -1.30591,-1.30312 -2.64298,-2.58068 -3.73951,-4.07154 -1.09087,-1.30706 -1.99442,-2.73786 -2.86155,-4.19982 -1.0237,-1.64193 -1.87572,-3.3812 -2.77484,-5.09306 -0.81148,-1.82889 -1.61826,-3.67567 -2.23889,-5.57742 -0.43633,-1.73696 -1.05651,-3.44539 -0.91996,-5.27066 -5.6e-4,-1.9545 -0.006,-3.90899 -0.004,-5.8635 0.008,-1.68946 0.003,-3.38149 0.12768,-5.06734 0.13953,-1.54287 0.39719,-3.06434 0.67784,-4.58712 0.0712,-1.55604 0.19424,-3.11349 0.56598,-4.63148 0.37447,-1.58934 0.57369,-3.2067 1.00178,-4.78444 0.43726,-1.65967 0.70917,-3.36044 1.64972,-4.84117 0.63586,-1.65039 1.28792,-3.30805 2.23815,-4.80725 0.88664,-1.2879 1.64793,-2.65843 2.61708,-3.8902 1.03243,-1.67453 2.15711,-3.27422 3.44126,-4.76773 1.11992,-1.24113 2.23441,-2.47457 3.35079,-3.72217 1.20606,-1.17135 2.27,-2.48381 3.6588,-3.46261 1.4118,-1.29565 2.99114,-2.41203 4.491,-3.60242 2.3333,-1.53674 4.78059,-2.92557 7.1957,-4.31968 1.60349,-0.86133 3.25039,-1.60977 4.94114,-2.28247 1.68294,-0.75674 3.40991,-1.38019 5.15958,-1.96181 1.62207,-0.58067 3.32643,-0.7835 5.01213,-1.10636 1.63042,-0.27505 3.28037,-0.44589 4.8576,-0.97921 1.68555,-0.40321 3.40369,-0.59858 5.13864,-0.5505 1.76109,-0.0497 3.5229,-0.1436 5.26271,-0.44013 1.82213,-0.2993 3.64261,-0.55928 5.48051,-0.74111 1.81369,-0.26942 3.61667,-0.43247 5.45469,-0.33109 1.97171,0.005 3.9441,0.0104 5.91428,0.0977 2.15035,0.11955 4.29681,0.30235 6.43126,0.59446 0,0 -2.47954,1.74827 -2.47954,1.74827 z"
       inkscape:connector-curvature="0" />
    <path
       style="fill:#000000;fill-opacity:1;fill-rule:nonzero;stroke:none"
       id="path3788"
       d="m 337.44295,477.02609 c -2.20121,0.30417 -4.41614,0.46913 -6.63478,0.57009 -1.97137,0.0814 -3.94461,0.0841 -5.91727,0.0882 -1.69402,-0.033 -3.36205,-0.0446 -5.03416,0.23571 -1.45918,0.13503 -2.84891,0.49573 -4.26109,0.85705 -1.41181,0.25858 -2.82308,0.55979 -4.18931,1.00567 -1.66297,0.56083 -3.36405,1.06563 -4.9703,1.7835 -1.75483,0.70577 -3.50366,1.43218 -5.13161,2.39939 0.55563,-0.29387 1.08568,-0.64228 1.66689,-0.88162 0.35312,-0.14541 -0.6547,0.39348 -0.97741,0.59769 -1.12068,0.70916 -2.23711,1.43013 -3.32602,2.18714 -1.46249,0.97919 -2.77139,2.16625 -4.20989,3.17353 -1.35534,0.96971 -2.70614,1.93845 -4.0293,2.95182 -1.51811,1.1684 -3.11128,2.23788 -4.71224,3.28903 -1.64253,1.17745 -3.3744,2.22454 -4.95764,3.48201 -1.41029,1.14919 -2.73875,2.38938 -4.08796,3.60793 -1.07697,1.23849 -2.19543,2.43528 -3.21256,3.72399 -0.96189,1.0553 -1.88146,2.17273 -2.58142,3.42141 -0.69185,1.33353 -1.33554,2.69354 -1.97006,4.05558 -0.54185,1.51772 -1.05667,3.06015 -1.42059,4.63332 -0.23589,1.66266 -0.57591,3.30792 -0.82218,4.96941 -0.38752,1.6129 -0.73878,3.22574 -0.9251,4.87512 -0.15906,1.92186 -0.15522,3.85274 -0.16108,5.77982 -0.0718,1.69829 0.1283,3.3892 0.54194,5.03508 0.339,1.59131 0.92046,3.09031 1.55451,4.58189 0.87016,1.50073 1.83046,2.954 2.8321,4.37084 1.15106,1.5199 2.25187,3.07723 3.32322,4.65419 1.06559,1.51841 2.28535,2.91766 3.43105,4.37372 1.02147,1.28252 2.22474,2.34261 3.53872,3.31111 1.70223,1.25009 3.30825,2.61678 4.94186,3.95372 1.86593,1.32183 3.81285,2.54002 5.78768,3.69342 2.03033,0.93796 4.08385,1.82063 6.06044,2.86826 1.85129,0.88452 3.74344,1.6822 5.59652,2.56455 1.78547,0.89497 3.67704,1.45063 5.57113,2.05007 1.65897,0.78557 3.43505,1.24217 5.15629,1.85945 2.02675,0.57999 4.00571,1.2982 5.99735,1.98802 1.71426,0.46097 3.40217,1.01944 5.14413,1.37154 1.7016,0.22433 3.39493,0.52446 5.06867,0.90894 2.17727,0.5149 4.32091,1.10441 6.53831,1.43325 1.87741,0.15158 3.74359,0.41817 5.57308,0.8713 1.99569,0.54771 4.06704,0.72897 6.12512,0.85963 1.71172,-0.0432 3.37773,0.32614 5.06139,0.56906 1.91416,0.21836 3.84372,0.24673 5.76819,0.27274 1.71598,0.0558 3.39375,-0.38145 5.09393,-0.5592 1.51101,-0.39347 3.02979,-0.70141 4.58543,-0.83889 1.69579,-0.3447 3.39921,-0.62112 5.12301,-0.77378 1.57336,-0.37051 3.16239,-0.59682 4.72687,-1.00237 1.70692,-0.3181 3.40924,-0.64164 5.1149,-0.97661 1.74443,-0.48267 3.48268,-0.98859 5.23985,-1.425 1.64459,-0.53359 3.27874,-1.11143 4.88349,-1.75557 1.45414,-0.813 3.05623,-1.31282 4.50535,-2.12942 1.61943,-0.71983 3.20178,-1.49169 4.7564,-2.34006 -4.58899,3.04327 1.17059,-1.18811 1.87189,-1.77793 1.21951,-1.02824 2.31565,-2.22949 3.3475,-3.4478 0.92843,-1.12475 1.98258,-2.13051 2.93049,-3.23724 1.33617,-1.51658 2.69348,-3.01282 3.98823,-4.56518 0.94994,-1.01101 1.75694,-2.14213 2.59435,-3.24631 1.10061,-1.29157 1.84453,-2.82902 2.8419,-4.19706 1.20488,-1.39749 2.03092,-3.00454 2.85741,-4.63607 0.78622,-1.81063 1.65198,-3.59543 2.29267,-5.46461 0.53769,-1.88518 1.0958,-3.75521 1.38334,-5.69735 0.37066,-1.75305 0.69289,-3.51019 0.86698,-5.29408 0.14251,-1.9459 0.13949,-3.89885 0.14413,-5.84887 1.1e-4,-1.64632 -0.005,-3.29263 -0.008,-4.93895 -0.0538,-1.49387 0.10425,-3.00195 -0.0867,-4.48685 -0.18257,-1.18634 -0.57387,-2.33521 -1.11882,-3.40313 -0.58091,-1.01833 -1.24435,-2.0151 -1.95272,-2.95289 -1.05946,-1.23735 -1.95123,-2.59323 -3.02669,-3.81826 -1.23272,-1.12882 -2.24374,-2.46529 -3.43025,-3.64137 -0.98486,-1.11577 -2.10116,-2.11496 -3.23874,-3.06911 -1.2112,-1.00533 -2.14307,-2.27909 -3.21848,-3.41526 -1.31929,-1.1935 -2.63907,-2.39049 -4.00013,-3.53971 -1.34871,-1.33261 -2.91429,-2.41555 -4.41111,-3.57204 -1.16903,-0.98832 -2.55924,-1.65232 -3.77864,-2.5608 -1.22898,-0.77941 -2.45118,-1.59622 -3.77044,-2.21854 -1.7041,-0.69446 -3.43434,-1.27246 -5.12316,-2.01012 -1.57528,-0.6052 -3.22719,-0.95582 -4.82783,-1.491 -1.96932,-0.65549 -4.04273,-0.86608 -6.07295,-1.25985 -1.9659,-0.53065 -3.95879,-0.9301 -5.92397,-1.45992 -1.65396,-0.47262 -3.2689,-0.98109 -4.97688,-1.22649 -2.10316,-0.13194 -4.13436,-0.69904 -6.17743,-1.17027 -1.75379,-0.36482 -3.53506,-0.50114 -5.29829,-0.80994 -1.90175,-0.26431 -3.75963,-0.72475 -5.66248,-0.98832 -1.83381,-0.23539 -3.6826,-0.29443 -5.52913,-0.32366 -1.73961,-0.26839 -3.48076,-0.50611 -5.23584,-0.64446 -1.80302,-0.11105 -3.61016,-0.12048 -5.41595,-0.12755 -0.9205,-0.004 -1.84101,-0.002 -2.76151,-0.002 0,0 2.4443,-1.77611 2.4443,-1.77611 l 0,0 c 0.92174,-2.9e-4 1.84348,-8.1e-4 2.76522,10e-4 1.81029,0.0111 3.62199,0.0264 5.42899,0.1469 1.75001,0.15002 3.48359,0.41243 5.22582,0.62778 1.85144,0.0374 3.70468,0.11061 5.54174,0.3602 1.90293,0.27551 3.7693,0.72375 5.67306,0.99219 1.766,0.30197 3.55589,0.42509 5.3049,0.8265 2.03746,0.47951 4.07002,1.00536 6.16768,1.14755 1.71036,0.2666 3.33339,0.79164 4.99672,1.25496 1.95757,0.5286 3.94363,0.93293 5.90571,1.44607 2.04068,0.39509 4.12583,0.60727 6.10014,1.2871 1.61208,0.51811 3.2734,0.87674 4.84373,1.5151 1.69071,0.74078 3.43889,1.29099 5.13431,2.01602 1.32316,0.65066 2.57295,1.45543 3.80355,2.26345 1.23398,0.89026 2.60353,1.5857 3.77542,2.57129 1.50264,1.15432 3.05538,2.25807 4.41112,3.58768 1.37271,1.155 2.70999,2.35325 4.03396,3.56056 1.05635,1.13788 1.98975,2.3944 3.19457,3.38879 1.13713,0.96912 2.27076,1.95853 3.2541,3.0883 1.18685,1.18371 2.19899,2.52716 3.43386,3.66338 1.07879,1.23169 1.98518,2.58854 3.0503,3.83084 0.71405,0.95595 1.3982,1.95835 1.98178,2.99644 0.56051,1.09747 0.96885,2.27665 1.16352,3.49508 0.21499,1.49554 0.0471,3.01801 0.10137,4.52507 0.002,1.64778 0.005,3.29557 0.002,4.94335 -0.007,1.95739 -0.008,3.91697 -0.12718,5.8714 -0.16599,1.78959 -0.47263,3.55509 -0.86583,5.30893 -0.2652,1.96379 -0.83448,3.84434 -1.36512,5.74924 -0.61242,1.89003 -1.50206,3.67381 -2.2697,5.50349 -0.83663,1.63702 -1.60534,3.28878 -2.83725,4.68363 -1.02968,1.34392 -1.73446,2.90182 -2.82874,4.18962 -0.81207,1.1275 -1.65652,2.24521 -2.59783,3.26539 -1.27719,1.5647 -2.65161,3.04474 -3.98021,4.56615 -0.93872,1.11885 -1.98672,2.12568 -2.93534,3.23531 -1.00595,1.24536 -2.13334,2.44494 -3.32971,3.49643 -2.15008,1.87855 -4.46046,3.52628 -7.02738,4.81003 -1.55533,0.85021 -3.16341,1.57803 -4.76216,2.3426 -1.47839,0.76197 -3.04582,1.33657 -4.5255,2.09868 -1.61805,0.61922 -3.24027,1.23678 -4.904,1.72325 -1.7558,0.45135 -3.49644,0.95826 -5.25105,1.41398 -1.70174,0.34182 -3.41063,0.63012 -5.10688,0.99093 -1.57087,0.39439 -3.16964,0.63767 -4.75543,0.96432 -1.72192,0.16727 -3.41912,0.47249 -5.12155,0.77443 -1.5511,0.16549 -3.05978,0.51184 -4.58228,0.84175 -1.70175,0.20141 -3.39065,0.60802 -5.11372,0.5264 -1.93414,-0.0328 -3.87401,-0.0675 -5.79635,-0.30129 -1.6748,-0.25152 -3.33763,-0.57876 -5.04036,-0.55465 -2.06972,-0.14658 -4.14845,-0.35104 -6.15637,-0.89957 -1.82978,-0.42182 -3.68445,-0.68787 -5.55396,-0.85415 -2.21762,-0.35015 -4.36555,-0.95307 -6.55163,-1.44865 -1.68004,-0.36204 -3.3733,-0.65614 -5.07372,-0.9006 -1.74353,-0.37578 -3.44407,-0.92338 -5.15863,-1.40897 -1.98909,-0.6969 -3.97516,-1.39344 -5.99656,-1.98993 -1.72592,-0.59815 -3.4884,-1.08655 -5.15515,-1.84723 -1.90847,-0.59072 -3.79082,-1.20332 -5.59018,-2.08774 -1.85967,-0.87548 -3.75485,-1.67499 -5.60158,-2.57661 -1.98471,-1.03894 -4.04369,-1.91768 -6.06522,-2.88196 -1.98011,-1.17242 -3.95252,-2.37819 -5.81379,-3.73194 -1.63028,-1.33548 -3.24054,-2.69254 -4.94469,-3.93419 -1.33179,-0.98633 -2.54702,-2.07762 -3.58309,-3.37933 -1.14662,-1.46395 -2.36485,-2.87287 -3.43698,-4.3944 -1.07013,-1.57546 -2.16914,-3.13171 -3.31941,-4.64982 -1.01461,-1.43392 -1.99203,-2.9028 -2.8709,-4.42315 -0.63893,-1.50589 -1.23325,-3.01666 -1.57475,-4.62334 -0.42966,-1.66612 -0.6499,-3.3824 -0.5738,-5.10475 0.008,-1.9354 0.008,-3.87357 0.14082,-5.80527 0.17512,-1.65457 0.50165,-3.27752 0.92432,-4.8869 0.24002,-1.66829 0.59263,-3.31622 0.8072,-4.98775 0.34866,-1.59566 0.8895,-3.1436 1.39554,-4.69183 0.62263,-1.36948 1.28265,-2.72368 1.95531,-4.06833 0.65166,-1.28533 1.58768,-2.4269 2.56946,-3.47421 1.01544,-1.30258 2.14527,-2.49511 3.18996,-3.77331 1.37133,-1.19845 2.66968,-2.47779 4.08791,-3.62332 1.56675,-1.28538 3.30766,-2.31897 4.94627,-3.50914 1.59862,-1.05333 3.20279,-2.10495 4.7222,-3.27062 1.32828,-1.00471 2.6577,-1.99716 4.01336,-2.96418 1.47513,-0.95684 2.7467,-2.20415 4.2204,-3.17121 2.5018,-1.78076 5.17794,-3.29767 7.78957,-4.90782 1.65789,-0.92344 3.39579,-1.67142 5.15657,-2.37562 1.62694,-0.68325 3.32034,-1.21837 4.99663,-1.76295 1.3819,-0.40967 2.78897,-0.72047 4.2024,-0.99764 1.41058,-0.37277 2.82195,-0.65937 4.27354,-0.82993 1.67916,-0.2547 3.36138,-0.2075 5.0567,-0.19361 1.96786,-0.004 3.93631,-0.012 5.90278,-0.0943 2.21938,-0.10725 4.4361,-0.27872 6.63522,-0.60616 0,0 -2.42893,1.81793 -2.42893,1.81793 z"
       inkscape:connector-curvature="0" />
    <text
       xml:space="preserve"
       style="font-size:16px;font-style:normal;font-variant:normal;font-weight:normal;font-stretch:normal;text-align:start;line-height:125%;letter-spacing:0px;word-spacing:0px;writing-mode:lr-tb;text-anchor:start;fill:#000000;fill-opacity:1;stroke:none;font-family:Segoe Print;-inkscape-font-specification:Segoe Print"
       x="380.65793"
       y="54.008366"
       id="text3790"
       sodipodi:linespacing="125%"><tspan
         sodipodi:role="line"
         id="tspan3792"
         x="380.65793"
         y="54.008366">Order</tspan><tspan
         sodipodi:role="line"
         x="380.65793"
         y="74.008362"
         id="tspan3794">Aggregate</tspan></text>
    <text
       xml:space="preserve"
       style="font-size:16px;font-style:normal;font-variant:normal;font-weight:normal;font-stretch:normal;text-align:start;line-height:125%;letter-spacing:0px;word-spacing:0px;writing-mode:lr-tb;text-anchor:start;fill:#000000;fill-opacity:1;stroke:none;font-family:Segoe Print;-inkscape-font-specification:Segoe Print"
       x="649.4928"
       y="321.31143"
       id="text3796"
       sodipodi:linespacing="125%"><tspan
         sodipodi:role="line"
         id="tspan3798"
         x="649.4928"
         y="321.31143">Reservation</tspan><tspan
         sodipodi:role="line"
         x="649.4928"
         y="341.31143"
         id="tspan3800">Aggregate</tspan></text>
    <text
       xml:space="preserve"
       style="font-size:16px;font-style:normal;font-variant:normal;font-weight:normal;font-stretch:normal;text-align:start;line-height:125%;letter-spacing:0px;word-spacing:0px;writing-mode:lr-tb;text-anchor:start;fill:#000000;fill-opacity:1;stroke:none;font-family:Segoe Print;-inkscape-font-specification:Segoe Print"
       x="303.30087"
       y="525.04382"
       id="text3802"
       sodipodi:linespacing="125%"><tspan
         sodipodi:role="line"
         id="tspan3804"
         x="303.30087"
         y="525.04382">Payment</tspan><tspan
         sodipodi:role="line"
         x="303.30087"
         y="545.04382"
         id="tspan3806">Aggregate</tspan></text>
    <path
       style="fill:#800000;fill-opacity:1;fill-rule:nonzero;stroke:none"
       d="m 162.625,227.09375 c -0.83471,0.3309 -1.67555,0.72462 -2.53125,1 -1.9736,0.76077 -3.91583,1.53629 -5.84375,2.40625 l -2.375,1.875 c 1.93893,-0.85262 3.86053,-1.69249 5.84375,-2.4375 0.85059,-0.28543 1.69915,-0.6349 2.53125,-0.96875 l 2.375,-1.875 z m -10.125,5.4375 -2.5,1.6875 c 0.17621,0.0647 0.35515,0.1226 0.53125,0.1875 l -1.75,0.90625 c 0.21938,1.88296 0.38579,3.78371 0.84375,5.625 0.21091,1.36079 0.67253,2.58996 1.34375,3.78125 0.26053,0.52432 0.43605,1.06496 0.6875,1.59375 l 2.65625,-1.5 c -0.25336,-0.53481 -0.44935,-1.09757 -0.71875,-1.625 -0.65871,-1.16651 -1.09846,-2.35608 -1.3125,-3.6875 -0.383,-1.5353 -0.56124,-3.11537 -0.71875,-4.6875 0.79965,0.29658 1.60726,0.57616 2.40625,0.875 2.07451,0.83327 4.17443,1.54924 6.1875,2.53125 1.74178,0.67072 3.53954,1.22337 5.25,1.96875 1.58752,0.7402 3.25306,1.28906 4.8125,2.09375 2.16234,0.88474 4.44825,1.33926 6.625,2.1875 1.79643,0.57869 3.54434,1.3272 5.40625,1.65625 2.87294,0.61245 5.76083,1.16156 8.625,1.8125 2.40865,0.6315 4.79795,1.46859 7.28125,1.71875 2.48247,0.35134 4.9191,0.99069 7.40625,1.3125 4.01557,0.64994 8.04894,1.26366 12,2.25 4.27637,0.84489 8.56546,1.47462 12.84375,2.3125 6.72997,1.24177 13.49039,2.40537 20.21875,3.65625 7.34115,1.03618 14.72629,1.87878 22.15625,1.5625 4.19343,-0.0967 8.38233,-0.22729 12.5625,-0.59375 l 2.46875,-1.78125 c -4.2098,0.37378 -8.4327,0.54281 -12.65625,0.65625 -7.4326,0.35225 -14.84102,-0.47744 -22.1875,-1.5 -6.71843,-1.21581 -13.44381,-2.43897 -20.15625,-3.6875 -4.26802,-0.8488 -8.54139,-1.51448 -12.8125,-2.34375 -3.95385,-0.97192 -7.98638,-1.58938 -12,-2.25 -2.47766,-0.3268 -4.90576,-0.96773 -7.375,-1.34375 -2.48734,-0.23975 -4.86924,-1.03431 -7.28125,-1.65625 -2.85707,-0.6655 -5.72873,-1.21274 -8.59375,-1.84375 -1.85892,-0.31798 -3.61339,-1.05912 -5.40625,-1.625 -2.17614,-0.82729 -4.46232,-1.32568 -6.625,-2.1875 -1.5606,-0.7907 -3.22073,-1.34345 -4.8125,-2.0625 -1.70367,-0.77691 -3.47324,-1.32546 -5.21875,-2 -2.02482,-0.95663 -4.13807,-1.67939 -6.21875,-2.5 -1.31626,-0.50472 -2.64772,-1.0074 -3.96875,-1.5 z"
       id="path3849"
       inkscape:connector-curvature="0" />
    <text
       xml:space="preserve"
       style="font-size:16px;font-style:normal;font-variant:normal;font-weight:normal;font-stretch:normal;text-align:start;line-height:125%;letter-spacing:0px;word-spacing:0px;writing-mode:lr-tb;text-anchor:start;fill:#000000;fill-opacity:1;stroke:none;font-family:Segoe Print;-inkscape-font-specification:Segoe Print"
       x="55.911522"
       y="248.54984"
       id="text3857"
       sodipodi:linespacing="125%"><tspan
         sodipodi:role="line"
         id="tspan3859"
         x="55.911522"
         y="248.54984">Customer</tspan></text>
    <text
       xml:space="preserve"
       style="font-size:16px;font-style:normal;font-variant:normal;font-weight:normal;font-stretch:normal;text-align:start;line-height:125%;letter-spacing:0px;word-spacing:0px;writing-mode:lr-tb;text-anchor:start;fill:#0000ff;fill-opacity:1;stroke:none;font-family:Segoe Print;-inkscape-font-specification:Segoe Print"
       x="155.46135"
       y="140.13126"
       id="text3861"
       sodipodi:linespacing="125%"
       transform="matrix(0.98337611,-0.18158038,0.18158038,0.98337611,0,0)"><tspan
         sodipodi:role="line"
         id="tspan3863"
         x="155.46135"
         y="140.13126"
         style="font-size:14px">1. PlaceOrder</tspan></text>
    <text
       xml:space="preserve"
       style="font-size:16px;font-style:normal;font-variant:normal;font-weight:normal;font-stretch:normal;text-align:start;line-height:125%;letter-spacing:0px;word-spacing:0px;writing-mode:lr-tb;text-anchor:start;fill:#0000ff;fill-opacity:1;stroke:none;font-family:Segoe Print;-inkscape-font-specification:Segoe Print"
       x="506.52713"
       y="200.23187"
       id="text3861-4"
       sodipodi:linespacing="125%"
       transform="matrix(0.99694899,0.07805586,-0.07805586,0.99694899,0,0)"><tspan
         sodipodi:role="line"
         id="tspan3863-0"
         x="506.52713"
         y="200.23187"
         style="font-size:14px">3. MakeReservation</tspan></text>
    <text
       xml:space="preserve"
       style="font-size:16px;font-style:normal;font-variant:normal;font-weight:normal;font-stretch:normal;text-align:start;line-height:125%;letter-spacing:0px;word-spacing:0px;writing-mode:lr-tb;text-anchor:start;fill:#800000;fill-opacity:1;stroke:none;font-family:Segoe Print;-inkscape-font-specification:Segoe Print"
       x="497.30008"
       y="262.01828"
       id="text3861-9"
       sodipodi:linespacing="125%"
       transform="matrix(0.99052331,0.13734472,-0.13734472,0.99052331,0,0)"><tspan
         sodipodi:role="line"
         id="tspan3863-4"
         x="497.30008"
         y="262.01828"
         style="font-size:14px;fill:#800000">4. SeatsReserved</tspan></text>
    <text
       xml:space="preserve"
       style="font-size:16px;font-style:normal;font-variant:normal;font-weight:normal;font-stretch:normal;text-align:start;line-height:125%;letter-spacing:0px;word-spacing:0px;writing-mode:lr-tb;text-anchor:start;fill:#0000ff;fill-opacity:1;stroke:none;font-family:Segoe Print;-inkscape-font-specification:Segoe Print"
       x="-366.92578"
       y="466.78455"
       id="text3861-8"
       sodipodi:linespacing="125%"
       transform="matrix(0.19384736,-0.9810317,0.9810317,0.19384736,0,0)"
       inkscape:transform-center-x="12.489469"
       inkscape:transform-center-y="-10.889373"><tspan
         sodipodi:role="line"
         id="tspan3863-8"
         x="-366.92578"
         y="466.78455"
         style="font-size:14px">5. MakePayment</tspan></text>
    <text
       xml:space="preserve"
       style="font-size:16px;font-style:normal;font-variant:normal;font-weight:normal;font-stretch:normal;text-align:start;line-height:125%;letter-spacing:0px;word-spacing:0px;writing-mode:lr-tb;text-anchor:start;fill:#800000;fill-opacity:1;stroke:none;font-family:Segoe Print;-inkscape-font-specification:Segoe Print"
       x="-367.32941"
       y="403.18289"
       id="text3861-2"
       sodipodi:linespacing="125%"
       transform="matrix(0.26343963,-0.96467588,0.96467588,0.26343963,0,0)"><tspan
         sodipodi:role="line"
         id="tspan3863-45"
         x="-367.32941"
         y="403.18289"
         style="font-size:14px;fill:#800000">6. PaymentAccepted</tspan></text>
    <text
       xml:space="preserve"
       style="font-size:16px;font-style:normal;font-variant:normal;font-weight:normal;font-stretch:normal;text-align:start;line-height:125%;letter-spacing:0px;word-spacing:0px;writing-mode:lr-tb;text-anchor:start;fill:#800000;fill-opacity:1;stroke:none;font-family:Segoe Print;-inkscape-font-specification:Segoe Print"
       x="184.08337"
       y="249.95111"
       id="text3861-5"
       sodipodi:linespacing="125%"
       transform="matrix(0.99561471,0.09354869,-0.09354869,0.99561471,0,0)"><tspan
         sodipodi:role="line"
         id="tspan3863-1"
         x="184.08337"
         y="249.95111"
         style="font-size:14px;fill:#800000">7. OrderConfirmed</tspan></text>
    <text
       xml:space="preserve"
       style="font-size:16px;font-style:normal;font-variant:normal;font-weight:normal;font-stretch:normal;text-align:start;line-height:125%;letter-spacing:0px;word-spacing:0px;writing-mode:lr-tb;text-anchor:start;fill:#800000;fill-opacity:1;stroke:none;font-family:Segoe Print;-inkscape-font-specification:Segoe Print"
       x="-29.829546"
       y="566.80524"
       id="text3861-5-7"
       sodipodi:linespacing="125%"
       transform="matrix(0.3264664,-0.94520881,0.94520881,0.3264664,0,0)"
       inkscape:transform-center-y="18.733553"
       inkscape:transform-center-x="-11.770349"><tspan
         sodipodi:role="line"
         id="tspan3863-1-1"
         x="-29.829546"
         y="566.80524"
         style="font-size:14px;fill:#800000">7. OrderConfirmed</tspan></text>
    <path
       style="fill:#000000;fill-opacity:1;fill-rule:nonzero;stroke:none"
       id="path3972"
       d="m 437.67452,15.071467 c -3.18959,-0.02 -6.37927,-0.0129 -9.56889,-0.0119 -2.57226,-0.14682 -5.11286,0.18408 -7.65891,0.48406 -1.77815,0.26398 -3.58496,0.14677 -5.36151,0.38787 -1.68071,0.32574 -3.37706,0.50298 -5.08464,0.59444 -1.97333,0.16289 -3.87471,0.68416 -5.80521,1.07849 -1.98646,0.30782 -3.97935,0.50289 -5.93782,0.97104 -1.9108,0.50967 -3.86274,0.81791 -5.7954,1.22748 -1.63978,0.64363 -3.4073,0.83476 -5.0787,1.34338 -1.4326,0.31576 -2.76756,0.83307 -4.13267,1.35093 -2.19828,0.8155 -4.32634,1.79256 -6.47633,2.72282 -0.35104,0.16746 -0.70208,0.33492 -1.05312,0.50237 -0.33243,0.14847 -0.66787,0.29036 -0.99728,0.4454 -0.31446,0.14801 -1.22714,0.65017 -0.93395,0.46354 0.51586,-0.32835 2.13246,-1.1979 1.60408,-0.89009 -3.21168,1.87098 -5.24729,2.92447 -2.14432,1.28679 -2.25878,1.48286 -4.59814,2.82294 -6.9525,4.1483 -0.65893,0.37094 1.31641,-0.74448 1.97461,-1.11672 -1.35144,0.90572 -2.65805,1.8769 -4.01343,2.77494 -1.29323,0.82389 -2.31805,1.97506 -3.43846,3.00539 -1.11184,0.98119 -2.07361,2.11213 -3.02969,3.24127 -1.03983,1.42775 -2.24424,2.72471 -3.33731,4.10827 -1.19652,1.39001 -2.13251,2.97288 -2.99385,4.58467 -0.96675,1.53661 -1.79224,3.16407 -2.4717,4.84759 -0.74233,1.5245 -1.46857,2.9979 -1.84749,4.65895 -0.19802,1.70079 -0.56094,3.37375 -0.82851,5.06398 -0.2451,1.71759 -0.27304,3.45602 -0.29924,5.18785 -0.0159,1.59926 -0.0102,3.19863 -0.008,4.79793 -0.0315,1.65373 -0.0188,3.2893 0.20975,4.92841 0.22642,1.82917 0.65143,3.63012 1.26027,5.36797 0.37876,1.51591 0.87362,2.9035 1.85475,4.13433 1.07739,1.26709 2.00289,2.64813 3.03918,3.9478 1.28283,1.48241 2.76272,2.76188 4.14393,4.14402 1.22883,0.90516 2.32443,2.00129 3.64487,2.7739 1.52195,0.97894 3.07477,1.89775 4.6242,2.830493 1.66202,1.00259 3.1939,2.18787 4.77705,3.30373 1.49332,1.095 3.00157,2.17828 4.3731,3.42463 1.3688,1.18015 2.94852,2.07904 4.49725,3.00243 1.53254,1.09166 3.14676,2.08178 4.89335,2.78912 1.74842,0.84176 3.67183,1.01211 5.54243,1.39368 1.83448,0.71922 3.76826,1.03787 5.67977,1.46262 2.41661,0.53864 4.86428,0.90742 7.29601,1.36506 2.84068,0.57997 5.72989,0.82024 8.62108,0.95011 2.98261,0.10072 5.96752,0.0933 8.95143,0.0944 2.94926,-0.001 5.8985,-0.008 8.84774,-0.0142 2.46816,-0.003 4.93632,-0.002 7.40448,-9.2e-4 3.22582,0.13847 6.42143,-0.27277 9.61121,-0.68751 3.2895,-0.43558 6.60113,-0.66531 9.91564,-0.78836 2.15558,-0.17112 4.27882,-0.52767 6.34319,-1.17031 1.88146,-0.72757 3.90521,-0.80983 5.85976,-1.19551 1.81265,-0.39553 3.62915,-0.78973 5.42196,-1.2674 1.94198,-0.5374 3.94449,-0.75129 5.91058,-1.17827 1.48307,-0.45038 2.84983,-1.11693 4.2199,-1.82373 0.85205,-0.31561 5.74599,-2.70324 1.41467,-0.51565 -0.3017,0.15238 0.57785,-0.35081 0.86678,-0.52622 1.72479,-1.05909 3.32572,-2.29256 4.92401,-3.52964 1.52543,-1.26169 2.84427,-2.7298 4.1704,-4.19157 1.04479,-1.31064 2.08218,-2.652983 2.90865,-4.114833 0.77935,-1.42504 1.4702,-2.89792 2.07639,-4.4046 0.72718,-1.86066 1.36502,-3.76165 1.9276,-5.67896 0.65534,-1.97648 0.99713,-4.03401 1.44565,-6.06288 0.53816,-1.76545 0.90717,-3.57385 1.49017,-5.32451 0.44037,-1.59041 0.8749,-3.18869 1.1618,-4.81573 0.43517,-1.78589 0.79194,-3.58128 0.9731,-5.41084 0.14815,-1.93758 0.14927,-3.88247 0.15447,-5.82453 -0.17493,-1.65109 -0.81135,-3.22172 -1.382,-4.77072 -0.43672,-1.51552 -1.30178,-2.85337 -2.07613,-4.21357 -0.85709,-1.56827 -2.03598,-2.91972 -2.91921,-4.469 -0.93346,-1.52624 -1.96525,-2.98979 -3.16121,-4.32173 -1.1131,-1.26651 -2.27126,-2.50204 -3.49446,-3.6638 -1.31981,-1.59816 -2.95579,-2.86091 -4.49699,-4.22698 -1.67098,-1.46429 -3.43639,-2.78926 -5.31092,-3.9793 -1.42175,-0.88875 -2.94685,-1.53861 -4.46422,-2.23423 -1.59921,-0.74358 -3.33692,-1.09284 -4.99777,-1.66466 -1.74587,-0.61085 -3.567,-0.94943 -5.32262,-1.52833 -1.57266,-0.4391 -3.11435,-0.95683 -4.67513,-1.43295 -1.61,-0.50965 -3.21913,-1.03326 -4.84935,-1.4771 -1.71512,-0.5872 -3.42976,-1.1833 -5.06112,-1.97835 -1.67524,-0.84793 -3.43136,-1.47345 -5.20066,-2.0834 -1.9202,-0.56382 -3.77177,-1.32706 -5.67669,-1.93449 -1.54262,-0.72817 -3.22216,-0.97687 -4.85268,-1.403 -0.77579,-0.18917 -1.54394,-0.37059 -2.30579,-0.61007 0,0 2.50038,-1.70598 2.50038,-1.70598 l 0,0 c 0.76074,0.22436 1.52801,0.40665 2.29763,0.59811 1.64246,0.40217 3.3028,0.72555 4.85846,1.42302 1.89984,0.62555 3.75971,1.368 5.6784,1.9392 1.78169,0.60428 3.53429,1.26783 5.21937,2.1138 1.62724,0.76945 3.32956,1.36465 5.03709,1.92997 1.62991,0.45972 3.24551,0.97251 4.86045,1.48103 1.55356,0.49332 3.10262,0.98229 4.66662,1.44267 1.76253,0.5576 3.58288,0.90837 5.32574,1.5311 1.67458,0.55525 3.41657,0.92408 5.01603,1.6888 1.53495,0.68913 3.05855,1.36882 4.48579,2.27231 1.87275,1.21459 3.64988,2.5466 5.32537,4.02414 1.55439,1.3595 3.18182,2.63817 4.51906,4.22707 1.22669,1.16988 2.38286,2.41718 3.50526,3.6864 1.19915,1.35654 2.25361,2.82848 3.19049,4.37764 0.88636,1.54708 2.06508,2.90008 2.92595,4.46596 0.78026,1.37557 1.66098,2.72551 2.09775,4.25842 0.58153,1.58263 1.23151,3.18424 1.42992,4.86709 -0.008,1.95006 -0.0103,3.90261 -0.14254,5.84903 -0.16279,1.83784 -0.50819,3.64289 -0.96346,5.43101 -0.26605,1.64295 -0.71573,3.24732 -1.13354,4.85512 -0.59517,1.74279 -0.97218,3.54042 -1.51727,5.30071 -0.4414,2.0339 -0.79483,4.09333 -1.43111,6.07818 -0.55206,1.92769 -1.20822,3.83041 -1.91642,5.70529 -0.5911,1.51925 -1.27789,3.00024 -2.05213,4.43436 -0.79061,1.50083 -1.87369,2.83346 -2.89049,4.185183 -1.33124,1.46759 -2.64265,2.9494 -4.15162,4.24063 -1.59833,1.24407 -3.19375,2.48515 -4.91212,3.56217 -2.415,1.46396 -4.82963,2.96801 -7.45704,4.02375 -1.36979,0.71449 -2.7711,1.33894 -4.26462,1.75615 -1.9637,0.41634 -3.96603,0.62715 -5.89902,1.18566 -1.80314,0.45621 -3.61429,0.88716 -5.43806,1.25298 -1.95925,0.34188 -3.95772,0.51209 -5.83732,1.21948 -2.08147,0.60362 -4.21104,0.96305 -6.37604,1.09931 -3.30328,0.12685 -6.60363,0.3525 -9.88111,0.79695 -3.20392,0.41818 -6.41542,0.80079 -9.65456,0.67134 -2.4691,0.002 -4.9382,0.002 -7.4073,0.003 -2.94459,-0.002 -5.88917,7.3e-4 -8.83375,0.004 -2.98831,5.2e-4 -5.97784,0.0122 -8.96454,-0.10191 -2.90071,-0.13673 -5.79626,-0.40247 -8.64612,-0.98281 -2.44068,-0.44582 -4.8939,-0.82251 -7.31722,-1.36157 -1.91545,-0.40752 -3.83028,-0.78847 -5.67815,-1.45704 -1.89255,-0.36502 -3.8171,-0.5992 -5.58164,-1.43927 -1.74421,-0.74215 -3.36129,-1.7386 -4.90755,-2.83139 -1.56753,-0.92956 -3.16613,-1.83896 -4.53816,-3.04768 -1.36774,-1.23278 -2.86348,-2.31334 -4.35097,-3.39625 -1.57009,-1.1216 -3.10872,-2.28321 -4.76093,-3.28651 -1.55459,-0.92897 -3.10608,-1.85624 -4.63908,-2.821543 -1.31808,-0.81606 -2.44574,-1.90161 -3.67452,-2.84208 -1.39133,-1.38752 -2.86654,-2.68754 -4.16106,-4.17332 -1.03799,-1.29909 -1.96895,-2.6769 -3.04359,-3.94689 -0.9905,-1.26397 -1.53842,-2.66476 -1.90648,-4.22081 -0.61124,-1.75722 -1.04372,-3.57596 -1.28331,-5.42256 -0.23796,-1.65096 -0.27936,-3.29547 -0.2344,-4.96313 -0.002,-1.60137 -0.007,-3.20281 0.009,-4.80413 0.0255,-1.74346 0.0493,-3.49369 0.27838,-5.22468 0.26037,-1.69793 0.65116,-3.37154 0.82414,-5.08238 0.35393,-1.68404 1.0262,-3.18166 1.82261,-4.70073 0.6559,-1.70176 1.4839,-3.34763 2.46781,-4.88231 0.84703,-1.62569 1.76234,-3.23803 2.96774,-4.62882 1.05259,-1.41367 2.32385,-2.66321 3.32659,-4.1196 0.95927,-1.13297 1.90211,-2.28406 3.01066,-3.2755 1.13595,-1.02889 2.15544,-2.19247 3.43036,-3.05676 1.37446,-0.86003 2.65942,-1.86608 4.00139,-2.77846 1.07062,-0.62336 2.13101,-1.26464 3.21186,-1.87008 0.63141,-0.35368 -1.23936,0.74773 -1.86318,1.11462 -0.25957,0.15266 0.5165,-0.30991 0.77035,-0.4719 0.95772,-0.61111 1.93359,-1.1846 2.88614,-1.80473 3.88807,-2.33775 3.19899,-2.21738 8.68294,-4.76662 2.15176,-0.94169 4.29726,-1.89417 6.49642,-2.723 1.36205,-0.53896 2.73196,-0.97768 4.15455,-1.33209 1.69211,-0.4449 3.42082,-0.75261 5.08245,-1.32055 1.92997,-0.40833 3.8796,-0.71779 5.78735,-1.22809 1.96641,-0.43629 3.96198,-0.63643 5.94582,-0.96965 1.93396,-0.41627 3.85451,-0.89262 5.83519,-1.04453 1.70384,-0.104 3.39247,-0.31344 5.07392,-0.61036 1.78067,-0.19061 3.58147,-0.1295 5.35864,-0.38416 2.54502,-0.29569 5.0875,-0.57223 7.65622,-0.43865 3.20059,9.4e-4 6.40124,0.008 9.60179,-0.012 0,0 -2.45132,1.78099 -2.45132,1.78099 z"
       inkscape:connector-curvature="0" />
    <text
       xml:space="preserve"
       style="font-size:16px;font-style:normal;font-variant:normal;font-weight:normal;font-stretch:normal;text-align:start;line-height:125%;letter-spacing:0px;word-spacing:0px;writing-mode:lr-tb;text-anchor:start;fill:#000000;fill-opacity:1;stroke:none;font-family:Segoe Print;-inkscape-font-specification:Segoe Print"
       x="320.15094"
       y="235.52934"
       id="text3974"
       sodipodi:linespacing="125%"><tspan
         sodipodi:role="line"
         id="tspan3976"
         x="320.15094"
         y="235.52934">Order Process</tspan><tspan
         sodipodi:role="line"
         x="320.15094"
         y="255.52934"
         id="tspan3980">Manager</tspan></text>
    <text
       xml:space="preserve"
       style="font-size:16px;font-style:normal;font-variant:normal;font-weight:normal;font-stretch:normal;text-align:start;line-height:125%;letter-spacing:0px;word-spacing:0px;writing-mode:lr-tb;text-anchor:start;fill:#800000;fill-opacity:1;stroke:none;display:inline;font-family:Segoe Print;-inkscape-font-specification:Segoe Print"
       x="-113.97088"
       y="470.72476"
       id="text3861-5-7-2"
       sodipodi:linespacing="125%"
       transform="matrix(0.16315452,-0.98660053,0.98660053,0.16315452,0,0)"
       inkscape:transform-center-y="16.709207"
       inkscape:transform-center-x="-14.82331"><tspan
         sodipodi:role="line"
         id="tspan3863-1-1-7"
         x="-113.97088"
         y="470.72476"
         style="font-size:14px;fill:#800000">2. Order</tspan><tspan
         sodipodi:role="line"
         x="-113.97088"
         y="488.22476"
         style="font-size:14px;fill:#800000"
         id="tspan4056">Created</tspan></text>
    <path
       style="fill:#0000ff;fill-opacity:1;fill-rule:nonzero;stroke:none"
       d="M 476.96875 247.6875 C 476.18881 247.68471 475.4048 247.71247 474.625 247.75 C 471.99399 247.83339 469.35876 247.93511 466.75 248.3125 L 464.34375 250.125 C 466.95519 249.72035 469.58161 249.62275 472.21875 249.53125 C 475.32654 249.36889 478.45164 249.54311 481.53125 249.96875 C 483.81711 250.39275 486.11939 250.70495 488.4375 250.875 C 490.44469 250.87323 492.41933 251.19844 494.40625 251.4375 C 496.55113 251.63234 498.67074 252.05463 500.8125 252.28125 C 502.93396 252.37261 505.01737 252.59576 507.125 252.84375 C 509.24265 253.0828 511.31899 253.53105 513.4375 253.78125 C 515.42986 254.02607 517.44211 253.94797 519.4375 254.125 C 522.23618 254.56662 525.03716 254.9496 527.84375 255.34375 C 530.71729 255.66292 533.55373 256.2324 536.40625 256.6875 C 538.82482 257.24168 541.27951 257.55774 543.71875 258 C 548.23628 259.03206 552.86537 259.55919 557.4375 260.28125 C 560.87636 260.72381 564.26825 261.47233 567.6875 262.03125 C 569.53875 262.22442 571.35189 262.47829 573.1875 262.78125 C 574.90438 263.03887 576.6344 263.10016 578.34375 263.40625 C 580.14007 263.76774 581.91067 264.23568 583.6875 264.6875 C 586.06014 265.44255 588.46198 266.1187 590.84375 266.84375 C 594.2299 267.90304 597.53901 269.13221 600.90625 270.25 C 603.22862 270.90882 605.49832 271.78524 607.8125 272.46875 C 609.42845 273.09468 611.151 273.39986 612.75 274.0625 C 614.32508 274.74077 615.88597 275.38791 617.5 275.96875 C 618.8987 276.67538 620.39864 277.15543 621.84375 277.75 C 622.69809 278.16246 622.28061 277.93699 623.125 278.4375 L 623.90625 277.9375 C 623.98808 278.1891 624.03024 278.42154 624 278.65625 C 623.14638 278.93648 622.04594 279.31656 621.5625 279.4375 C 620.63357 279.58409 619.72375 279.86174 618.84375 280.1875 L 616.46875 282.0625 C 617.32608 281.69593 618.23159 281.41422 619.15625 281.28125 C 621.5791 280.73552 623.8259 279.76564 625.9375 278.4375 C 627.34116 277.32325 626.30716 276.07945 625.75 274.71875 C 625.04978 272.65079 624.60703 270.53309 624.125 268.40625 L 621.4375 269.8125 C 621.91013 271.71481 622.32293 273.62982 622.90625 275.5 C 621.92609 275.13199 620.96457 274.76646 620.03125 274.28125 C 618.42724 273.68837 616.8101 273.07819 615.25 272.375 C 613.64927 271.67384 611.94105 271.41898 610.3125 270.78125 C 607.98885 270.11823 605.73888 269.22954 603.40625 268.59375 C 600.03257 267.49232 596.69222 266.2379 593.3125 265.15625 C 590.93532 264.41814 588.55382 263.74125 586.1875 262.96875 C 584.40716 262.51747 582.60862 262.03004 580.8125 261.65625 C 579.1009 261.33696 577.38162 261.28869 575.65625 261.0625 C 573.81456 260.7656 571.98728 260.46291 570.125 260.3125 C 566.68823 259.77799 563.29768 259.02445 559.84375 258.59375 C 555.28263 257.87104 550.68852 257.33942 546.1875 256.28125 C 543.75547 255.81627 541.28871 255.53051 538.875 254.96875 C 536.01267 254.53245 533.16195 253.94053 530.28125 253.625 C 527.48071 253.21825 524.69436 252.85798 521.90625 252.375 C 519.91445 252.16134 517.8993 252.26508 515.90625 252.03125 C 513.7831 251.79582 511.71143 251.34467 509.59375 251.09375 C 507.48599 250.84641 505.37428 250.59125 503.25 250.53125 C 501.10779 250.3177 499.0165 249.89452 496.875 249.6875 C 494.88375 249.45613 492.88625 249.07885 490.875 249.09375 C 488.55519 248.94093 486.25434 248.64954 483.96875 248.21875 C 481.65287 247.88012 479.30857 247.69588 476.96875 247.6875 z "
       id="path4033" />
    <path
       style="fill:#800000;fill-opacity:1;fill-rule:nonzero;stroke:none"
       d="M 471.90625 289.09375 C 470.69755 289.16338 471.30192 289.11995 470.0625 289.21875 C 467.81558 289.45353 465.61743 289.89768 463.375 290.15625 C 460.44245 290.56419 457.57475 291.23087 454.6875 291.875 L 454.25 292.1875 C 454.14584 292.11411 454.04248 292.04096 453.9375 291.96875 C 453.356 291.51477 452.74605 291.10699 452.1875 290.625 L 449.625 292.21875 C 449.9916 292.53992 450.36607 292.86115 450.75 293.15625 L 448.65625 294.375 C 449.81888 296.50941 450.98768 298.61664 452.09375 300.78125 C 452.77341 302.49884 453.66604 304.1396 454.375 305.84375 C 454.69096 306.49804 455.00895 307.11119 455.40625 307.71875 L 458.03125 306.1875 C 457.63961 305.59873 457.31154 304.9791 457 304.34375 C 456.28106 302.63589 455.41555 300.99933 454.71875 299.28125 C 453.80557 297.50564 452.85114 295.75653 451.90625 294 C 452.97367 294.75653 454.01571 295.55569 455.125 296.25 C 456.36371 296.85568 457.4978 297.59781 458.6875 298.28125 C 459.99906 298.88838 461.21256 299.7067 462.4375 300.46875 C 463.84668 301.20266 465.23786 301.94011 466.65625 302.65625 C 468.41068 303.37516 470.1242 304.21101 471.875 304.9375 C 474.03296 305.69329 476.21819 306.36815 478.34375 307.21875 C 480.61792 307.98467 482.82777 308.93681 485.15625 309.53125 C 487.73081 310.28029 490.32379 310.9611 492.9375 311.5625 C 495.88746 312.15386 498.81535 312.8031 501.71875 313.59375 C 504.03643 314.17741 506.43552 314.42571 508.75 315.03125 C 511.31085 315.47479 513.85709 315.96503 516.40625 316.46875 C 518.75333 317.01771 521.13526 317.37199 523.4375 318.09375 C 525.69667 318.76141 528.0362 319.22091 530.375 319.5 C 532.64385 319.88455 534.85063 320.51423 537.125 320.875 C 539.69204 321.39991 542.24034 321.95284 544.75 322.71875 C 547.05703 323.31678 549.45831 323.43143 551.78125 323.96875 C 554.22808 324.47559 556.67711 324.84222 559.125 325.34375 C 561.10722 325.84346 563.11907 326.28131 565.15625 326.5 C 567.08831 326.92236 568.97228 327.39626 570.9375 327.65625 C 573.08584 328.02905 575.27025 328.31503 577.4375 328.53125 C 579.73028 328.71637 582.01087 329.09075 584.3125 329.09375 C 586.52118 329.09275 588.72884 329.08365 590.9375 329.09375 L 593.40625 327.3125 C 591.19163 327.3225 588.96464 327.31328 586.75 327.3125 C 584.4522 327.33247 582.19255 326.97507 579.90625 326.78125 C 577.74055 326.58224 575.55417 326.28663 573.40625 325.9375 C 571.45138 325.66473 569.54741 325.2138 567.625 324.78125 C 565.59406 324.52697 563.60813 324.12409 561.625 323.625 C 559.17375 323.11256 556.67406 322.7422 554.21875 322.25 C 551.90397 321.70653 549.52652 321.56264 547.21875 321 C 544.69697 320.25973 542.16871 319.67258 539.59375 319.15625 C 537.32321 318.78737 535.10653 318.15356 532.84375 317.75 C 530.5111 317.46486 528.19721 317.05287 525.9375 316.40625 C 523.6327 315.67107 521.23089 315.28486 518.875 314.75 C 516.32676 314.23078 513.77931 313.76923 511.21875 313.3125 C 508.9063 312.71992 506.50608 312.43209 504.1875 311.875 C 501.27644 311.09078 498.3603 310.4432 495.40625 309.84375 C 492.79729 309.2644 490.1935 308.57836 487.625 307.84375 C 485.29974 307.24902 483.08015 306.30636 480.8125 305.53125 C 478.68334 304.69907 476.53434 303.99493 474.375 303.25 C 472.61792 302.55233 470.93753 301.71416 469.1875 301 C 467.76963 300.30407 466.37081 299.53878 464.96875 298.8125 C 463.73564 298.05633 462.51917 297.26206 461.21875 296.625 C 460.01909 295.96201 458.88575 295.18079 457.65625 294.5625 C 456.88135 294.091 456.13881 293.56512 455.40625 293.03125 C 457.25119 292.62892 459.09682 292.24019 460.96875 291.96875 C 463.20502 291.72242 465.41934 291.2458 467.65625 291 C 468.88725 290.89536 468.26795 290.9502 469.46875 290.875 L 471.90625 289.09375 z "
       id="path4038" />
    <path
       style="fill:#0000ff;fill-opacity:1;fill-rule:nonzero;stroke:none"
       d="M 382.84375 318.1875 L 380.1875 319.59375 C 380.49802 321.98435 380.60428 324.40227 381 326.78125 C 381.28265 329.16412 381.62382 331.52714 381.9375 333.90625 C 382.23349 336.15187 382.3257 338.42544 382.375 340.6875 C 382.4033 342.67521 382.379 344.63714 382.375 346.625 C 382.37453 348.48715 382.75011 350.33651 382.9375 352.1875 C 383.0984 354.05489 383.1062 355.93947 383.125 357.8125 C 383.136 359.74369 383.15925 361.66255 383.15625 363.59375 C 383.19846 365.34634 382.75471 367.05905 382.34375 368.75 C 381.88164 370.72421 381.8206 372.748 381.34375 374.71875 C 380.77897 376.95564 380.23906 379.21351 379.625 381.4375 C 379.11557 383.72213 378.53617 386.00095 378.15625 388.3125 C 378.02617 390.36282 377.59155 392.328 377.09375 394.3125 C 376.61264 396.32516 376.45398 398.37691 376.0625 400.40625 C 375.85969 402.36606 375.34943 404.26783 374.8125 406.15625 C 374.1927 408.76305 373.91129 411.42889 373.4375 414.0625 C 372.91213 416.75268 372.44839 419.48196 371.84375 422.15625 C 371.10913 424.18486 370.70187 426.28259 370.21875 428.375 C 369.65036 430.50311 369.24956 432.66132 368.78125 434.8125 C 368.41898 436.55808 367.70054 438.18829 367.34375 439.9375 C 367.07587 441.68467 366.50333 443.40047 365.90625 445.0625 C 365.2828 446.61974 364.6337 448.13411 364.28125 449.78125 C 364.05594 451.49456 363.49695 453.11503 363.0625 454.78125 C 362.81591 456.6229 362.19377 458.35746 361.65625 460.125 C 361.60416 460.33252 361.55305 460.54297 361.5 460.75 C 361.22786 460.02247 360.95269 459.2899 360.6875 458.5625 C 359.93317 456.18206 358.98754 453.87618 358.4375 451.4375 L 355.78125 452.875 C 356.3779 455.30231 357.30062 457.62062 358.0625 460 C 359.04608 462.68131 360.03082 465.41341 361.4375 467.90625 C 361.79544 468.37754 361.91638 468.70762 362.46875 468.9375 C 363.70727 469.45292 366.14679 467.58827 366.78125 466.625 C 367.50708 465.04959 367.98046 463.40652 368.75 461.84375 C 369.45127 460.60952 369.08896 461.18249 369.90625 460.0625 L 367.125 461.28125 C 366.32829 462.43855 366.69571 461.83673 366 463.09375 C 365.39954 464.33319 364.99773 465.62943 364.4375 466.875 C 364.30854 466.72297 364.16235 466.57 364.03125 466.40625 C 363.65211 465.75061 363.32134 465.05963 363 464.375 L 363.09375 464.34375 C 363.38845 462.47453 363.90185 460.6736 364.375 458.84375 C 364.92026 457.07526 365.50507 455.33738 365.78125 453.5 C 366.22455 451.83174 366.75953 450.18383 367 448.46875 C 367.37471 446.84136 368.06783 445.33764 368.65625 443.78125 C 369.22856 442.09478 369.80014 440.39026 370.0625 438.625 C 370.44033 436.88926 371.13585 435.24641 371.46875 433.5 C 371.92412 431.34515 372.38965 429.19602 372.9375 427.0625 C 373.40426 424.96633 373.87161 422.88317 374.5625 420.84375 C 375.13936 418.16178 375.64335 415.44446 376.15625 412.75 C 376.61399 410.11789 376.91717 407.47163 377.5625 404.875 C 378.10133 402.97869 378.55554 401.05697 378.78125 399.09375 C 379.16014 397.0691 379.30754 395.00127 379.8125 393 C 380.31813 391.01079 380.71839 389.02016 380.875 386.96875 C 381.26273 384.66773 381.82105 382.42882 382.34375 380.15625 C 382.94129 377.92515 383.50675 375.6793 384.0625 373.4375 C 384.52007 371.46334 384.5821 369.43915 385.0625 367.46875 C 385.47707 365.75677 385.89835 363.99243 385.84375 362.21875 C 385.84475 360.28667 385.85495 358.36956 385.84375 356.4375 C 385.82766 354.55561 385.7865 352.65724 385.625 350.78125 C 385.43174 348.94137 385.0524 347.13433 385.0625 345.28125 C 385.0634 343.2921 385.06765 341.30143 385.03125 339.3125 C 384.98016 337.04161 384.89674 334.7534 384.59375 332.5 C 384.27908 330.11693 383.94723 327.72969 383.65625 325.34375 C 383.25563 322.96571 383.12403 320.58147 382.84375 318.1875 z "
       id="path4046" />
    <path
       style="fill:#800000;fill-opacity:1;fill-rule:nonzero;stroke:none"
       d="M 350.125 309.375 C 347.84969 309.38836 345.75713 311.18059 343.8125 312.3125 L 346.21875 311.375 C 346.09014 311.46079 345.98334 311.57611 345.875 311.6875 C 345.6217 311.94794 346.55719 311.38196 346.90625 311.28125 C 347.77382 311.03088 348.38606 311.10224 349.21875 311.375 C 349.59 311.57445 349.91671 311.81484 350.21875 312.09375 L 348.59375 312.8125 C 348.13417 313.78631 347.56989 314.69111 347.09375 315.65625 C 346.31678 317.27664 345.40631 318.83853 344.78125 320.53125 C 344.08974 322.1141 343.26089 323.64172 342.625 325.25 C 341.66273 327.24159 340.796 329.26155 339.96875 331.3125 C 338.90564 333.82214 337.92518 336.37877 336.90625 338.90625 C 336.0544 341.04077 335.23132 343.19962 334.40625 345.34375 C 333.49236 347.50636 332.80025 349.71013 332.40625 352.03125 C 331.76039 354.78712 331.12702 357.5376 330.4375 360.28125 C 330.04508 362.53762 329.7268 364.83394 329.1875 367.0625 C 328.48965 370.41457 327.99795 373.80119 327.3125 377.15625 C 326.61388 380.62115 326.02606 384.10439 325.46875 387.59375 C 324.81423 390.68127 324.11912 393.76211 323.78125 396.90625 C 323.39376 400.2663 322.77419 403.60211 322.21875 406.9375 C 321.71244 409.89599 321.41418 412.86412 321.0625 415.84375 C 320.66692 419.42554 320.50731 423.02221 320 426.59375 C 319.67988 430.21499 319.23339 433.81718 318.65625 437.40625 C 318.05881 440.59436 317.48318 443.81396 317.0625 447.03125 C 316.55432 450.16975 316.00648 453.26501 315.34375 456.375 C 314.86557 459.08563 314.58616 461.82903 314.28125 464.5625 L 317 463.21875 C 317.25311 460.48973 317.54353 457.76115 318.03125 455.0625 C 318.70668 451.95433 319.24378 448.85813 319.75 445.71875 C 320.16598 442.50264 320.74865 439.31146 321.34375 436.125 C 321.91019 432.52835 322.33804 428.9086 322.65625 425.28125 C 323.17543 421.71084 323.32403 418.07856 323.75 414.5 C 324.11232 411.52683 324.39263 408.57723 324.90625 405.625 C 325.46044 402.2852 326.05546 398.92739 326.4375 395.5625 C 326.7829 392.4261 327.51034 389.36363 328.15625 386.28125 C 328.70263 382.79276 329.29588 379.30495 330 375.84375 C 330.69256 372.48624 331.17546 369.09913 331.90625 365.75 C 332.4502 363.51713 332.73924 361.23181 333.125 358.96875 C 333.83241 356.23693 334.47509 353.49737 335.125 350.75 C 335.50132 348.43014 336.23527 346.21315 337.15625 344.0625 C 337.98031 341.92042 338.76212 339.7847 339.625 337.65625 C 340.6334 335.12591 341.62132 332.56952 342.6875 330.0625 C 343.51901 328.01332 344.39178 325.98168 345.375 324 C 345.98687 322.37525 346.86015 320.87874 347.53125 319.28125 C 348.13478 317.57936 349.09216 316.03706 349.84375 314.40625 C 350.1464 313.82394 350.47563 313.2644 350.78125 312.6875 C 351.33216 313.33434 351.79052 314.07579 352.25 314.78125 C 352.76322 315.6153 352.96034 316.57011 353.21875 317.5 L 355.875 316.0625 C 355.61473 315.10008 355.40903 314.10907 354.875 313.25 C 354.00692 311.92131 353.1217 310.50684 351.71875 309.6875 C 351.17619 309.47086 350.65007 309.37192 350.125 309.375 z "
       id="path4051" />
    <path
       style="fill:#800000;fill-opacity:1;fill-rule:nonzero;stroke:none"
       d="M 524.875 87.34375 C 523.57024 87.543222 522.2607 87.66799 520.9375 87.59375 C 518.19912 87.59757 515.45709 87.61241 512.71875 87.59375 L 510.6875 89.0625 L 509.28125 89.96875 C 510.30448 90.779113 511.31986 91.604652 512.375 92.375 C 513.89636 93.767936 515.19643 95.332167 516.5625 96.875 C 518.03511 98.697213 519.52113 100.52121 520.6875 102.5625 C 521.89139 104.68634 523.2127 106.74029 524.15625 109 C 525.11396 111.27964 526.21213 113.52192 526.78125 115.9375 C 527.5143 118.48941 528.06413 121.09356 528.46875 123.71875 C 528.74644 126.11835 528.67535 128.49431 528.59375 130.90625 C 528.49496 133.79214 528.35528 136.69854 527.96875 139.5625 C 527.68654 142.1289 527.62292 144.71651 526.90625 147.21875 C 526.13721 150.22033 525.4423 153.28987 524.09375 156.09375 C 522.71398 158.74334 521.30747 161.39545 519.84375 164 C 517.63173 167.72582 515.40248 171.42936 512.71875 174.84375 C 510.48947 177.72852 508.24167 180.62279 505.8125 183.34375 C 503.78806 185.80854 501.67291 188.19292 499.3125 190.34375 C 496.84192 192.38905 494.28702 194.33324 491.625 196.125 C 489.80176 197.51241 487.83829 198.64865 485.96875 199.96875 C 484.22655 201.23652 482.46344 202.48207 480.65625 203.65625 C 478.42077 204.90713 476.23518 206.20108 474.125 207.65625 C 473.75598 207.89482 473.29603 208.0285 472.96875 208.3125 C 472.84228 208.39118 472.72488 208.46524 472.59375 208.53125 C 471.26723 209.19894 469.92325 209.81184 468.5625 210.40625 C 466.35152 211.42463 464.09489 212.37638 461.875 213.375 C 459.70116 214.33599 457.44793 215.13025 455.25 216.03125 L 452.84375 217.875 C 455.07087 217.0168 457.33694 216.16186 459.53125 215.21875 C 461.75839 214.23359 463.96792 213.28362 466.1875 212.28125 C 469.92404 210.70159 473.51822 208.79546 476.90625 206.5625 L 478.125 205.78125 C 478.38696 205.60656 478.64409 205.42437 478.90625 205.25 C 479.12592 205.12928 479.41699 204.98874 479.5625 204.90625 C 480.7097 204.25581 481.8262 203.56483 482.96875 202.90625 C 484.93019 201.60429 486.86085 200.24699 488.75 198.84375 C 490.6452 197.54926 492.62332 196.41227 494.4375 195 C 497.10744 193.24075 499.60293 191.2581 502.0625 189.21875 C 504.40703 187.03104 506.54569 184.64648 508.5625 182.15625 C 510.99386 179.45091 513.22628 176.57301 515.4375 173.6875 C 518.1221 170.25797 520.33353 166.51088 522.5625 162.78125 C 524.03889 160.17439 525.42449 157.52905 526.8125 154.875 C 528.12405 152.03953 528.82636 148.95613 529.59375 145.9375 C 530.32271 143.42284 530.3508 140.79558 530.65625 138.21875 C 531.0357 135.34865 531.17927 132.45327 531.28125 129.5625 C 531.37834 127.13353 531.40745 124.72842 531.125 122.3125 C 530.69949 119.67566 530.1708 117.06724 529.4375 114.5 C 528.8632 112.07434 527.74686 109.82029 526.78125 107.53125 C 525.83575 105.25929 524.52097 103.19737 523.3125 101.0625 C 522.13945 99.006658 520.64205 97.14521 519.15625 95.3125 C 517.79019 93.750457 516.46837 92.185051 514.9375 90.78125 C 514.32735 90.32188 513.72351 89.851796 513.125 89.375 C 514.92069 89.372085 516.70431 89.341199 518.5 89.34375 C 519.82255 89.404212 521.12862 89.335957 522.4375 89.15625 L 524.875 87.34375 z M 509.40625 91.4375 L 506.75 92.90625 C 507.76574 95.458096 508.93959 97.95323 509.96875 100.5 L 512.59375 99.03125 C 511.54848 96.48741 510.37424 94.013361 509.40625 91.4375 z "
       id="path4058" />
    <path
       style="fill:#800000;fill-opacity:1;fill-rule:nonzero;stroke:none"
       d="M 430.59375 308.375 L 427.96875 309.84375 C 429.3854 313.23082 431.36146 316.31533 433.3125 319.40625 C 435.68044 322.84882 438.19812 326.18067 440.5625 329.625 C 443.2929 333.68897 446.2803 337.56491 449.5 341.25 C 454.17699 345.98149 459.50282 350.02443 464.625 354.25 C 470.93027 359.65798 478.08663 363.88447 485.25 368.03125 C 490.54742 371.04526 496.06555 373.60143 501.40625 376.53125 C 504.30644 378.23131 507.18295 379.99777 510.125 381.625 C 512.7759 383.1849 515.8028 383.72048 518.78125 384.28125 C 522.38262 384.83503 525.97833 385.26872 529.59375 385.71875 C 533.21272 386.16325 536.85795 386.37712 540.5 386.5 C 542.64758 386.5624 544.82045 386.53425 546.96875 386.53125 C 548.77573 386.53543 550.57729 386.2807 552.34375 385.90625 C 554.23433 385.35207 556.14824 384.83621 558.03125 384.25 C 560.87584 383.3702 563.7186 382.52504 566.59375 381.75 C 570.06417 380.73485 573.66201 380.22257 577.21875 379.625 C 579.868 379.24306 582.35627 378.35695 584.875 377.5 C 586.41803 377.00979 587.98363 376.50068 589.4375 375.78125 C 590.93168 375.03423 592.44312 374.38703 594 373.78125 C 595.41329 373.19456 596.86141 372.61506 598.21875 371.90625 L 600.5625 370.03125 C 599.22986 370.78519 597.80938 371.29862 596.40625 371.90625 C 594.841 372.49312 593.28429 373.17705 591.78125 373.90625 C 590.35317 374.6764 588.78853 375.15899 587.25 375.65625 C 584.72788 376.5055 582.24652 377.4599 579.59375 377.84375 C 576.03255 378.44852 572.44829 378.90408 568.96875 379.90625 C 566.09358 380.65977 563.24813 381.53706 560.40625 382.40625 C 558.53174 382.99618 556.62192 383.50514 554.75 384.09375 C 553.00778 384.51602 551.19568 384.74795 549.40625 384.78125 C 547.25466 384.78325 545.08867 384.77065 542.9375 384.71875 C 539.29291 384.61725 535.65272 384.44167 532.03125 384 C 528.42627 383.54986 524.81107 383.10549 521.21875 382.5625 C 518.26341 382.01814 515.26542 381.52373 512.625 380 C 509.67852 378.37166 506.82078 376.59075 503.90625 374.90625 C 498.54352 371.99117 492.97348 369.47334 487.65625 366.46875 C 480.50191 362.33871 473.35011 358.12325 467.0625 352.71875 C 461.96493 348.49698 456.68906 344.43808 452.03125 339.71875 C 448.82261 336.03989 445.83736 332.1875 443.125 328.125 C 440.7671 324.68125 438.28071 321.33912 435.90625 317.90625 C 433.9675 314.82467 431.94701 311.77604 430.59375 308.375 z M 591.65625 361.34375 L 589.125 363.03125 C 592.29418 364.48607 595.62842 365.54478 598.90625 366.71875 C 600.04067 367.31263 603.13005 368.43434 603.09375 370.125 C 603.08947 370.32458 602.9872 370.5254 602.9375 370.71875 C 601.90369 372.68714 600.29966 374.2771 598.875 375.96875 C 597.65968 377.44043 596.46125 378.93146 595.25 380.40625 L 598 379.21875 C 599.21438 377.75416 600.39661 376.26527 601.625 374.8125 C 603.06903 373.0993 604.79393 371.48831 605.6875 369.40625 C 605.7174 369.17625 605.7666 368.91884 605.75 368.6875 C 605.60591 366.67793 602.74533 365.84929 601.34375 365.0625 C 598.08168 363.89232 594.78744 362.84658 591.65625 361.34375 z "
       id="path4066" />
    <text
       xml:space="preserve"
       style="font-size:16px;font-style:normal;font-variant:normal;font-weight:normal;font-stretch:normal;text-align:start;line-height:125%;letter-spacing:0px;word-spacing:0px;writing-mode:lr-tb;text-anchor:start;fill:#800000;fill-opacity:1;stroke:none;display:inline;font-family:Segoe Print;-inkscape-font-specification:Segoe Print"
       x="486.89038"
       y="350.30084"
       id="text3861-5-6"
       sodipodi:linespacing="125%"
       transform="matrix(0.99561471,0.09354869,-0.09354869,0.99561471,0,0)"><tspan
         sodipodi:role="line"
         id="tspan3863-1-14"
         x="486.89038"
         y="350.30084"
         style="font-size:14px;fill:#800000">7. OrderConfirmed</tspan></text>
    <path
       style="fill:#800000;fill-opacity:1;fill-rule:nonzero;stroke:none"
       d="M 432.5625 126.71875 L 429.84375 128.09375 C 429.86915 130.64896 429.88 133.22596 429.875 135.78125 C 429.871 137.56542 429.84475 139.34083 429.84375 141.125 C 429.61148 142.68266 429.34275 144.20968 429.21875 145.78125 C 428.89609 147.49663 428.62775 149.22997 428.46875 150.96875 C 428.34245 152.7163 428.3205 154.46753 428.3125 156.21875 C 428.26958 157.78215 428.02524 159.38377 427.65625 160.90625 C 427.17323 162.80245 426.99766 164.74068 426.875 166.6875 C 426.77823 168.25754 426.48541 169.84248 426.125 171.375 C 425.7429 172.95992 425.51324 174.54311 425.125 176.125 C 424.64901 178.10704 424.2079 180.10682 423.75 182.09375 C 423.28988 184.15872 422.74804 186.21724 422.4375 188.3125 C 422.00089 189.82748 421.72333 191.34607 421.34375 192.875 C 421.28035 193.06021 421.28665 193.04926 421.25 193.15625 C 420.7132 193.07777 420.17494 192.94716 419.65625 192.75 C 418.08538 191.89401 417.102 190.39211 416.21875 188.875 C 415.1014 186.75666 414.11496 184.56825 412.96875 182.46875 L 410.34375 184 C 411.51779 186.07103 412.48603 188.26461 413.59375 190.375 C 414.4961 191.94885 415.54247 193.46725 417.125 194.40625 C 418.4295 194.97415 419.84063 195.19086 421.21875 194.8125 C 423.2566 193.9554 425.37444 192.83027 426.9375 191.21875 C 427.90189 190.22848 429.05703 189.54497 430.1875 188.78125 L 430.78125 188.34375 L 427.96875 189.46875 L 427.375 189.875 C 426.22066 190.61799 425.09845 191.39393 424.125 192.375 C 424.02541 192.46743 423.83601 192.59906 423.6875 192.71875 C 423.77435 192.46105 423.81839 192.35047 424.0625 191.59375 C 424.44384 190.05948 424.76103 188.49958 425.15625 186.96875 C 425.47436 184.88374 426.0151 182.83882 426.46875 180.78125 C 426.92773 178.79242 427.35665 176.79437 427.84375 174.8125 C 428.23668 173.23144 428.44098 171.64231 428.84375 170.0625 C 429.18574 168.51047 429.52895 166.93371 429.59375 165.34375 C 429.71954 163.40885 429.88289 161.4755 430.375 159.59375 C 430.71877 158.04375 431.02225 156.43262 431.03125 154.84375 C 431.03845 153.10006 431.01776 151.36432 431.15625 149.625 C 431.32306 147.88656 431.64275 146.1578 431.9375 144.4375 C 432.07952 142.86059 432.3779 141.32097 432.5625 139.75 C 432.5615 137.96825 432.5665 136.188 432.5625 134.40625 C 432.5576 131.8475 432.5371 129.27742 432.5625 126.71875 z "
       id="path4094" />
    <path
       style="fill:#000000;fill-opacity:1;fill-rule:nonzero;stroke:none"
       id="path3038"
       d="m 99.814908,121.53392 c -3.005992,-0.0536 -5.999621,-0.0372 -8.995068,0.22066 -3.024577,0.42748 -6.031398,0.8583 -8.941021,1.80904 -1.673343,0.56338 -3.383672,1.08532 -4.985366,1.83949 -0.336847,0.15861 -1.308589,0.70934 -0.991857,0.51363 0.54095,-0.33426 1.110428,-0.61998 1.665642,-0.92997 -1.665839,1.09425 -2.706257,2.51476 -3.031703,4.4765 -0.02291,2.13723 0.960493,4.01368 2.23148,5.66722 1.533694,2.21319 3.745019,3.85233 5.929685,5.37748 3.304923,2.2657 7.011356,3.74492 10.771594,5.05275 2.594445,0.92204 5.272788,1.48703 8.011516,1.70844 1.72262,0.16735 3.43718,-0.0987 5.01675,-0.82264 0.43564,-0.19965 1.3801,-0.23997 1.25437,-0.7024 -0.12274,-0.45144 -0.86979,0.34491 -1.30468,0.51737 2.24574,-2.12515 3.77477,-4.74104 4.80261,-7.6288 0.71775,-1.8294 1.18699,-3.72268 1.41091,-5.6713 0.18393,-1.89723 0.26643,-3.75189 -0.4994,-5.52549 -1.1884,-1.46313 -3.12962,-2.04735 -4.90247,-2.47807 -1.85768,-0.36957 -3.70439,-0.75572 -5.59071,-0.94905 -0.32412,-0.0237 -0.64825,-0.0474 -0.97237,-0.0711 0,0 2.4624,-1.76042 2.4624,-1.76042 l 0,0 c 0.3259,0.0261 0.65181,0.0523 0.97771,0.0784 1.89327,0.2103 3.75175,0.59962 5.61632,0.98311 1.85448,0.48473 3.84749,1.13298 5.05102,2.71166 0.79492,1.82021 0.75671,3.70895 0.57482,5.66401 -0.21108,1.9724 -0.66209,3.89314 -1.39779,5.74101 -1.01207,2.93404 -2.52663,5.58436 -4.74411,7.79089 -3.462,2.24688 -5.96836,4.30955 -10.216332,3.87867 -2.74622,-0.25124 -5.426748,-0.85467 -8.02575,-1.79017 -3.778742,-1.32773 -7.503152,-2.83772 -10.827892,-5.11387 -2.209896,-1.54684 -4.44304,-3.20454 -5.996575,-5.44526 -1.311833,-1.7253 -2.320029,-3.6605 -2.349554,-5.87721 0.254631,-2.03655 1.240026,-3.53958 2.928035,-4.72256 3.061227,-1.78435 6.049428,-3.47068 9.509013,-4.35429 2.927672,-0.91076 5.947176,-1.35023 8.98148,-1.75482 3.007445,-0.24612 6.014415,-0.23098 9.030805,-0.2155 0,0 -2.453512,1.78258 -2.453512,1.78258 z"
       inkscape:connector-curvature="0" />
    <path
       style="fill:#000000;fill-opacity:1;fill-rule:nonzero;stroke:none"
       d="M 100.15625 148.34375 L 97.4375 149.71875 C 97.45343 152.24898 97.47265 154.78223 97.46875 157.3125 C 97.46465 159.16514 97.46545 161.02235 97.46875 162.875 C 97.581474 164.78359 97.381146 166.64989 97.09375 168.53125 C 96.934392 170.20379 96.500972 171.80991 96.25 173.46875 C 96.002279 175.34405 95.96825 177.26738 95.9375 179.15625 C 95.91736 180.84875 95.90305 182.52618 95.90625 184.21875 C 95.91018 186.01867 96.152523 187.82781 95.21875 189.4375 C 94.329507 190.6285 93.296717 191.66793 92.40625 192.875 C 90.814248 194.88209 89.06649 196.73534 87.40625 198.6875 C 85.743044 200.52651 84.278932 202.54563 82.71875 204.46875 C 81.53347 206.1586 80.64394 208.02287 79.6875 209.84375 C 78.786544 211.45076 77.836517 213.01104 76.84375 214.5625 C 75.850364 216.22588 75.030424 217.96391 74.21875 219.71875 C 73.395433 221.30987 72.634423 222.93904 71.8125 224.53125 C 70.950628 226.16196 70.027595 227.75026 68.90625 229.21875 C 68.17779 230.22973 68.534911 229.71883 67.90625 230.75 L 70.65625 229.53125 C 71.295337 228.52449 70.960883 229.03285 71.6875 228.03125 C 72.782802 226.53215 73.705197 224.92626 74.5625 223.28125 C 75.393072 221.69118 76.142849 220.06108 76.96875 218.46875 C 77.768949 216.71784 78.595149 214.99306 79.59375 213.34375 C 80.581699 211.78411 81.583109 210.21487 82.46875 208.59375 C 83.408934 206.77953 84.29181 204.93872 85.5 203.28125 C 87.046725 201.3541 88.497741 199.36735 90.15625 197.53125 C 91.831578 195.58237 93.605412 193.7129 95.1875 191.6875 C 95.796646 190.87348 96.487968 190.12399 97.125 189.34375 C 98.167843 192.9614 99.533023 196.48031 100.78125 200.03125 C 101.97112 202.92687 102.94374 205.88323 104.125 208.78125 C 104.98633 211.14425 106.04439 213.44854 107.125 215.71875 C 108.00025 217.81905 109.0656 219.83465 110.1875 221.8125 C 111.05331 223.33553 111.5627 224.99779 112.34375 226.5625 L 112.65625 227.25 L 115.3125 225.75 L 115 225.0625 C 114.21889 223.4929 113.68436 221.83741 112.8125 220.3125 C 111.69494 218.34055 110.62348 216.31193 109.75 214.21875 C 108.67575 211.95185 107.64293 209.66938 106.78125 207.3125 C 105.60039 204.42087 104.60504 201.47933 103.40625 198.59375 C 102.09211 194.87997 100.62771 191.18791 99.625 187.375 L 97.90625 188.34375 C 97.939599 188.29311 97.967612 188.23892 98 188.1875 C 98.821076 186.49758 98.6318 184.67879 98.625 182.84375 C 98.62355 181.15274 98.6076 179.47219 98.625 177.78125 C 98.655964 175.9043 98.70546 174.01787 98.96875 172.15625 C 99.232229 170.50048 99.65652 168.86035 99.8125 167.1875 C 100.09607 165.29404 100.25225 163.41792 100.15625 161.5 C 100.15925 159.6479 100.16025 157.7896 100.15625 155.9375 C 100.15225 153.40567 100.14035 150.87556 100.15625 148.34375 z M 96.125 150.46875 C 91.929805 151.40311 87.914195 153.05034 83.9375 154.65625 C 81.330911 155.65643 78.891261 156.98981 76.375 158.1875 L 74.03125 160.09375 C 76.564395 158.90399 78.978874 157.51133 81.59375 156.5 C 85.54424 154.89607 89.531784 153.26888 93.6875 152.28125 L 96.125 150.46875 z M 104.75 152.84375 L 102.15625 154.4375 C 105.65018 157.7277 109.47036 160.64429 113.34375 163.46875 C 115.82041 165.29494 118.29818 167.10941 120.75 168.96875 C 122.66898 170.37594 124.78426 171.51164 126.8125 172.75 L 127.59375 173.1875 L 130.125 171.5625 L 129.34375 171.09375 C 127.32464 169.85695 125.22315 168.74869 123.3125 167.34375 C 120.85894 165.47356 118.3245 163.70901 115.84375 161.875 C 111.97681 159.07537 108.18884 156.16554 104.75 152.84375 z "
       id="path3040" />
    <path
       style="fill:#0000ff;fill-opacity:1;fill-rule:nonzero;stroke:none"
       id="path3113"
       d="m 154.06532,178.74254 c 2.69724,-1.91721 5.37731,-3.86076 8.06899,-5.78709 4.24424,-3.01476 8.82576,-5.51486 13.52816,-7.73668 2.82085,-1.27534 5.60597,-2.62577 8.42624,-3.90327 3.00973,-1.41501 6.04631,-2.76931 9.07707,-4.13832 3.08933,-1.33176 6.13019,-2.77305 9.20945,-4.12512 3.58702,-1.46648 7.15948,-2.94012 10.70249,-4.50935 3.7997,-1.63502 7.51608,-3.44808 11.26623,-5.18833 3.33611,-1.58782 6.63204,-3.25418 9.95472,-4.86604 3.0155,-1.32873 5.89333,-2.94875 8.93676,-4.21014 3.2101,-1.53626 6.46779,-2.99243 9.75049,-4.37137 3.17223,-1.53606 6.30842,-3.14212 9.48019,-4.6824 3.21144,-1.51458 6.3408,-3.20361 9.57282,-4.67319 2.32911,-1.04148 4.51739,-2.36144 6.80086,-3.49207 2.26697,-0.84698 4.38343,-2.02288 6.6058,-2.97008 3.84654,-1.55681 7.66534,-3.15086 11.56833,-4.56403 3.22535,-1.31125 6.57307,-2.34247 9.75527,-3.75585 1.92987,-0.75181 3.8524,-1.49161 5.88897,-1.88888 2.08025,-0.48208 4.04715,-1.3355 6.09137,-1.9436 1.84183,-0.50904 3.68444,-1.00341 5.52744,-1.51143 1.83179,-0.674729 3.73714,-1.094682 5.55098,-1.823681 1.68478,-0.553313 3.36098,-1.075806 4.89783,-1.979389 0.72477,-0.374403 1.44515,-0.720564 2.15347,-1.122774 0.20684,-0.117452 0.83621,-0.453585 0.63053,-0.334116 -1.50668,0.875146 -12.49566,7.15348 1.27021,-0.716526 2.14791,-1.260921 0.88218,-0.514189 -3.83427,2.176148 0,0 5.65173,-2.202207 5.65173,-2.202207 l 0,0 c -6.09691,3.586861 -3.89184,2.347984 -6.54862,3.832785 10.98016,-6.387336 -0.64427,0.527416 -4.04321,2.17176 -1.58345,0.80803 -3.27591,1.31221 -4.94494,1.90986 -1.84068,0.6607 -3.73402,1.14775 -5.58479,1.77841 -1.8367,0.51041 -3.68042,0.99145 -5.51182,1.52081 -2.03895,0.64652 -4.02723,1.47261 -6.12881,1.90489 -1.9936,0.46033 -3.89914,1.21341 -5.79802,1.96677 -3.20573,1.31532 -6.4918,2.43462 -9.72222,3.6876 -3.91008,1.42352 -7.73309,3.0458 -11.58205,4.62449 -2.20787,0.9966 -4.36811,2.09529 -6.61041,3.016 -2.25378,1.16473 -4.46539,2.41556 -6.78408,3.45157 -3.20763,1.50858 -6.35421,3.14449 -9.55218,4.67367 -3.16395,1.56096 -6.30909,3.16078 -9.50232,4.65974 -3.27338,1.41333 -6.54038,2.8467 -9.75966,4.37851 -3.01413,1.31757 -5.91536,2.88024 -8.91452,4.2334 -3.30412,1.63747 -6.62243,3.24244 -9.94475,4.84375 -3.73855,1.75922 -7.47504,3.52144 -11.26378,5.17225 -3.5462,1.58481 -7.15278,3.00596 -10.72574,4.52786 -3.06517,1.38257 -6.12832,2.767 -9.20465,4.1252 -3.0375,1.36868 -6.07009,2.74674 -9.09114,4.15141 -2.81641,1.28253 -5.60379,2.62697 -8.4196,3.9105 -0.46407,0.22064 -0.92908,0.43932 -1.3922,0.66193 -0.4681,0.225 -1.83171,0.97179 -1.40145,0.68089 1.18764,-0.80295 2.4565,-1.47868 3.68192,-2.22271 0.46791,-0.2841 -0.94735,0.54941 -1.40942,0.84292 -0.92255,0.586 -1.7929,1.25166 -2.7238,1.82516 -2.68404,1.89898 -5.3373,3.84653 -8.00604,5.76108 0,0 -5.64383,2.22928 -5.64383,2.22928 z"
       inkscape:connector-curvature="0" />
    <path
       style="fill:#0000ff;fill-opacity:1;fill-rule:nonzero;stroke:none"
       id="path3115"
       d="m 326.56261,87.929899 c 2.75234,1.032792 5.43232,2.250721 8.19857,3.245417 1.71554,0.78091 3.50077,1.299303 5.36693,1.532954 1.75796,2.83e-4 3.21834,0.354048 4.09356,1.98184 0.60605,1.684882 -0.0364,3.243395 -0.65965,4.813422 -0.93335,1.758988 -2.11921,3.356548 -3.10381,5.088438 -0.97995,1.45216 -1.64194,3.07554 -2.43994,4.62561 -0.14137,0.22247 -0.28274,0.44494 -0.42411,0.66742 0,0 -5.5622,2.42817 -5.5622,2.42817 l 0,0 c 0.14895,-0.20531 0.29791,-0.41062 0.44686,-0.61593 0.88784,-1.50634 1.41617,-3.20931 2.44861,-4.63867 0.97997,-1.72049 2.05305,-3.36265 3.13655,-5.01932 0.5924,-1.38307 1.30016,-2.803733 0.88113,-4.331547 -0.73738,-1.460663 -2.33559,-1.377373 -3.77559,-1.502965 -1.87983,-0.299689 -3.67051,-0.887237 -5.41187,-1.657832 -2.76324,-1.046527 -5.46102,-2.260765 -8.24198,-3.26335 0,0 5.04694,-3.353657 5.04694,-3.353657 z"
       inkscape:connector-curvature="0" />
  </g>
  <g
     inkscape:groupmode="layer"
     id="versionlayer"
     inkscape:label="Version">
    <text
       xml:space="preserve"
       style="font-style:normal;font-variant:normal;font-weight:normal;font-stretch:normal;fill:#ff0000;font-family:Courier New;-inkscape-font-specification:Courier New"
       x="10"
       y="10"
       id="versiontext">Reference_06_Workflow.svg (v3)</text>
  </g>
</svg>
