<?xml version="1.0" encoding="UTF-8" standalone="no"?>
<!-- Created with Inkscape (http://www.inkscape.org/) -->

<svg
   xmlns:dc="http://purl.org/dc/elements/1.1/"
   xmlns:cc="http://creativecommons.org/ns#"
   xmlns:rdf="http://www.w3.org/1999/02/22-rdf-syntax-ns#"
   xmlns:svg="http://www.w3.org/2000/svg"
   xmlns="http://www.w3.org/2000/svg"
   xmlns:sodipodi="http://sodipodi.sourceforge.net/DTD/sodipodi-0.dtd"
   xmlns:inkscape="http://www.inkscape.org/namespaces/inkscape"
   width="1052.3622"
   height="744.09448"
   id="svg12288"
   version="1.1"
   inkscape:version="0.48.2 r9819"
   sodipodi:docname="Reference_02_Messages.svg"
   inkscape:export-filename="D:\CQRS Resources\Docs\Drawings\Reference_02_Messages.png"
   inkscape:export-xdpi="90"
   inkscape:export-ydpi="90">
  <title
     id="title12418">CQRS Messages</title>
  <defs
     id="defs12290" />
  <sodipodi:namedview
     id="base"
     pagecolor="#ffffff"
     bordercolor="#666666"
     borderopacity="1.0"
     inkscape:pageopacity="0.0"
     inkscape:pageshadow="2"
     inkscape:zoom="1.3291323"
     inkscape:cx="488.26205"
     inkscape:cy="430.75167"
     inkscape:document-units="px"
     inkscape:current-layer="layer1"
     showgrid="false"
     inkscape:window-width="1846"
     inkscape:window-height="1178"
     inkscape:window-x="1592"
     inkscape:window-y="-8"
     inkscape:window-maximized="1" />
  <metadata
     id="metadata12293">
    <rdf:RDF>
      <cc:Work
         rdf:about="">
        <dc:format>image/svg+xml</dc:format>
        <dc:type
           rdf:resource="http://purl.org/dc/dcmitype/StillImage" />
        <dc:title>CQRS Messages</dc:title>
      </cc:Work>
    </rdf:RDF>
  </metadata>
  <g
     inkscape:label="Layer 1"
     inkscape:groupmode="layer"
     id="layer1"
     transform="translate(0,-308.2677)">
    <path
       style="fill:#000000;fill-opacity:0.78431373;stroke:none"
       id="path12302"
       d="m 731.75259,112.29614 c 4.04478,0.0298 8.08203,-0.42995 12.08463,-0.97577 4.17567,-0.81508 8.3984,-1.32331 12.59379,-2.01538 2.46918,-0.36978 4.87735,-1.00313 7.359,-1.30338 1.59574,-0.12583 3.13045,-0.5942 4.71718,-0.8024 1.54854,-0.13343 3.10586,-0.41349 4.41074,0.58107 0.96316,1.27035 1.09614,3.00401 1.34656,4.53962 0.34471,2.53899 0.2829,5.10536 0.46872,7.65517 0.35683,3.21105 0.50073,6.43605 0.58663,9.66382 0.14964,4.19862 0.77066,8.35354 1.34698,12.50832 0.47595,4.06888 0.88894,8.14706 1.26639,12.22679 0.34256,3.74962 0.41948,7.51501 0.46171,11.27767 0.0263,4.33781 0.0152,8.67577 0.0137,13.01364 0.1106,4.24534 -0.0906,8.47756 -0.33984,12.7133 -0.50011,4.41868 -0.72329,8.85979 -1.09082,13.28902 -0.37935,4.43933 -0.76944,8.87947 -1.28734,13.30513 -0.50679,4.42645 -0.93677,8.86303 -1.30116,13.30361 -0.27352,4.81299 -0.8246,9.60335 -1.45854,14.38034 -0.71414,5.04228 -0.99673,10.12916 -1.4111,15.20126 -0.44927,5.42015 -0.54945,10.85951 -0.62137,16.29506 -0.0566,6.09742 -0.0488,12.19519 -0.0555,18.2928 -0.17815,7.05434 -0.45645,14.10495 -0.82823,21.15154 -0.66345,8.3217 -1.04129,16.65883 -1.25986,25.00276 -0.17908,8.07022 -0.17571,16.14283 -0.18574,24.21456 -0.005,8.16947 -0.37102,16.33369 -0.54782,24.50085 -0.19152,8.7859 -0.43904,17.57459 -0.83095,26.35423 -0.33664,7.97138 -0.73533,15.93909 -1.11892,23.90828 -0.36033,7.09081 -0.69681,14.18452 -1.10617,21.27288 -0.27284,6.15969 -0.83005,12.29993 -1.23365,18.45112 -0.25269,3.88982 -0.33126,7.78745 -0.35935,11.6844 0.0164,2.69252 0.0756,5.37585 -0.40781,8.03333 -0.82698,2.85104 -3.46284,3.57638 -6.20848,4.69993 -0.18274,0.0748 -1.87722,-0.12941 -2.03902,-0.14661 -1.8354,-0.24085 -3.66475,-0.43738 -5.47173,-0.84015 -1.65649,-0.62423 -3.3857,-0.97471 -5.13764,-1.18496 -2.26325,-0.26039 -4.51529,-0.63473 -6.77135,-0.96347 -2.14538,-0.59324 -4.68018,-0.0203 -6.74205,-0.96237 -0.33275,-0.15202 -0.60212,-0.41568 -0.90318,-0.62352 -2.10989,-2.02653 -2.92236,-4.9525 -3.67792,-7.69122 -1.01259,-3.94757 -1.89401,-7.93379 -2.5424,-11.95803 -0.55223,-4.87102 -1.31934,-9.71216 -2.07024,-14.5552 -0.67026,-3.91924 -0.90654,-7.88925 -1.04084,-11.85705 -0.0831,-3.35908 -0.0708,-6.71966 -0.0683,-10.07951 0.006,-3.3707 0.0142,-6.74139 0.015,-10.1121 0.005,-3.9606 0.01,-7.92119 0.0124,-11.88179 -0.14213,-4.28257 0.1763,-8.54256 0.6546,-12.79348 0.67485,-4.10072 1.13581,-8.2293 1.61043,-12.35659 0.62165,-4.38795 1.24287,-8.77483 1.85625,-13.16387 0.70762,-4.88092 1.70422,-9.71217 2.46569,-14.58356 0.59572,-5.00238 1.2702,-9.99021 2.01492,-14.97217 0.9216,-5.20669 1.46946,-10.46757 2.16419,-15.70682 0.6594,-5.51657 1.24596,-11.04207 1.85502,-16.56461 0.75968,-6.25232 1.38146,-12.52275 1.85579,-18.80315 0.40258,-7.24572 0.6936,-14.4977 1.13663,-21.74133 0.40863,-7.44266 0.97501,-14.87503 1.33911,-22.32015 0.42178,-6.85741 0.77594,-13.71844 1.41489,-20.55993 0.53226,-5.92875 0.99854,-11.8641 1.44127,-17.80042 0.41202,-5.03934 0.354,-10.09863 0.58399,-15.14529 0.30293,-4.543 0.49336,-9.09086 0.59629,-13.64243 0.0786,-4.24706 0.0799,-8.49504 0.0771,-12.74267 -0.004,-3.26379 -0.0126,-6.52756 -0.0138,-9.79135 0.0432,-2.77749 -0.30134,-5.54033 -0.74944,-8.27534 -0.4259,-2.30035 -0.55713,-4.63421 -0.91628,-6.9435 -0.37733,-2.34487 -0.83864,-4.66593 -1.09549,-7.02947 -0.11065,-2.38878 -0.30323,-4.75896 -0.59405,-7.13232 -0.18149,-2.18848 -0.57708,-4.34763 -0.83843,-6.52691 -0.21849,-2.08382 -0.29291,-4.17845 -0.33182,-6.27211 -0.0217,-1.5773 -0.0169,-3.15479 -0.0148,-4.73218 0.0974,-1.62252 -0.22535,-3.2164 -0.43243,-4.81751 -0.13096,-1.30643 -0.2002,-2.60182 -0.48352,-3.88567 0,0 3.94256,-2.11904 3.94256,-2.11904 l 0,0 c 0.29249,1.29857 0.3822,2.60219 0.49272,3.92743 0.20479,1.61854 0.56194,3.22571 0.46534,4.8653 -0.003,1.5762 -0.009,3.15245 0.004,4.72862 0.0277,2.08207 0.0844,4.16593 0.29797,6.23865 0.25348,2.18016 0.67109,4.33507 0.83936,6.52477 0.28605,2.3769 0.50178,4.74728 0.59264,7.14069 0.24385,2.35844 0.70537,4.67115 1.09086,7.00757 0.35822,2.31026 0.50037,4.6417 0.90279,6.94627 0.45375,2.75728 0.81851,5.54366 0.77258,8.34441 0.002,3.26727 -4e-4,6.53454 -0.006,9.80181 -0.009,4.25319 -0.0152,8.50662 -0.089,12.7593 -0.0997,4.55615 -0.28283,9.10909 -0.59819,13.65593 -0.25295,5.05225 -0.17602,10.11897 -0.59548,15.16448 -0.45277,5.94256 -0.9346,11.88349 -1.46066,17.81977 -0.66697,6.83801 -1.01301,13.6985 -1.44844,20.55403 -0.3543,7.44771 -0.94321,14.88078 -1.33843,22.32635 -0.453,7.24102 -0.73223,14.49175 -1.1149,21.73658 -0.46311,6.28129 -1.07368,12.55242 -1.82691,18.80563 -0.60278,5.52386 -1.19042,11.04998 -1.83994,16.56827 -0.69811,5.24022 -1.23158,10.50437 -2.15842,15.71152 -0.73709,4.9825 -1.42627,9.9671 -2.00605,14.97105 -0.75311,4.86864 -1.75567,9.6946 -2.45764,14.57236 -0.61797,4.38424 -1.21902,8.76985 -1.85613,13.15153 -0.47341,4.12666 -0.90661,8.25831 -1.60734,12.35464 -0.48897,4.23554 -0.82707,8.48135 -0.68009,12.75048 0.002,3.95707 0.007,7.91413 0.009,11.87119 -0.003,3.3698 -0.001,6.73961 -0.009,10.1094 -0.007,3.35692 -0.0204,6.71433 0.0534,10.07069 0.11721,3.95682 0.34007,7.91481 0.98415,11.82653 0.74153,4.84257 1.52414,9.68007 2.07501,14.54939 0.64369,4.00679 1.54164,7.97045 2.54673,11.901 0.72442,2.62873 1.49099,5.47653 3.54974,7.39524 0.2724,0.16807 0.52055,0.38402 0.81721,0.50422 2.08382,0.84431 4.55071,0.35635 6.69607,0.9368 2.26435,0.32583 4.52677,0.67272 6.79889,0.93551 1.7583,0.24198 3.47912,0.64298 5.16079,1.21649 1.79208,0.38588 3.61383,0.56548 5.43073,0.80028 2.71132,0.19872 2.95929,-0.69049 -1.04201,2.00451 -0.24776,0.16687 0.53753,-0.27369 0.76379,-0.46872 0.6048,-0.52132 0.61253,-0.82681 0.89292,-1.55797 0.54647,-2.62889 0.4807,-5.29863 0.46759,-7.97254 0.0472,-3.91255 0.12276,-7.82651 0.39532,-11.73109 0.42954,-6.158 1.01707,-12.30419 1.28615,-18.47294 0.41792,-7.0889 0.73334,-14.18494 1.12039,-21.27556 0.39858,-7.97159 0.79375,-15.94233 1.13834,-23.91647 0.41143,-8.777 0.66793,-17.56465 0.84415,-26.34901 0.1643,-8.16087 0.51784,-16.31857 0.52814,-24.48131 0.007,-8.0782 0.0326,-16.15701 0.19969,-24.23375 0.2191,-8.34197 0.5841,-16.67801 1.2279,-24.99925 0.36787,-7.03671 0.63274,-14.07718 0.81871,-21.12119 -0.0102,-6.09538 -0.0217,-12.19095 0.0301,-18.28618 0.0652,-5.44135 0.15122,-10.88761 0.59282,-16.3141 0.40988,-5.07849 0.69803,-10.17089 1.40003,-15.22051 0.63092,-4.76936 1.18864,-9.55203 1.46162,-14.35704 0.35601,-4.44382 0.76915,-8.8848 1.28344,-13.31307 0.53248,-4.4198 0.91468,-8.85654 1.29281,-13.29165 0.38835,-4.42384 0.57521,-8.86515 1.09616,-13.27857 0.24623,-4.22885 0.45979,-8.45307 0.35324,-12.69163 0.004,-4.33385 0.0108,-8.6678 -0.0255,-13.00155 -0.0453,-3.75214 -0.1144,-7.50721 -0.44319,-11.24742 -0.37479,-4.07566 -0.7823,-8.14954 -1.24353,-12.21575 -0.58228,-4.16661 -1.21609,-8.3314 -1.38916,-12.54145 -0.0901,-3.21743 -0.23647,-6.43267 -0.59856,-9.63291 -0.2064,-2.534 -0.13264,-5.08624 -0.47293,-7.6112 -0.22501,-1.40546 -0.33932,-3.04689 -1.18739,-4.22133 -1.25437,-0.8075 -2.80771,-0.41542 -4.21229,-0.30632 -1.57323,0.24018 -3.11234,0.67891 -4.7052,0.78513 -2.46071,0.32589 -4.86,0.95638 -7.3189,1.29271 -4.19092,0.66918 -8.40304,1.19564 -12.57481,1.98576 -4.03977,0.52946 -8.10448,0.98234 -12.18419,0.9761 0,0 3.61111,-2.62363 3.61111,-2.62363 z"
       inkscape:connector-curvature="0"
       transform="translate(0,308.2677)" />
    <path
       style="fill:#000000;fill-opacity:0.78431373;stroke:none"
       id="path12304"
       d="m 123.76637,105.78265 c -2.47315,-0.28918 -4.95771,-0.4607 -7.44464,-0.5707 -2.07811,-0.0798 -4.15813,-0.0772 -6.23741,-0.0811 -2.42964,-0.001 -4.85927,-3.7e-4 -7.2889,-8.8e-4 -2.59949,0.002 -5.198983,0.003 -7.798472,0.002 -2.251786,-0.11124 -4.468192,0.0733 -6.695907,0.36918 -2.193408,0.17812 -4.370378,0.35292 -6.523099,0.82818 -2.141653,0.46698 -4.243542,1.11767 -6.335149,1.77416 -1.783745,0.44952 -7.706488,3.84511 -1.006108,0.0186 -1.557311,0.87189 -3.114622,1.74377 -4.671934,2.61566 -0.259868,0.15389 -1.044255,0.60716 -0.779604,0.46166 1.024666,-0.56338 2.016192,-1.18826 3.059952,-1.71542 0.273706,-0.13824 -0.503466,0.35113 -0.741474,0.54446 -0.534576,0.43423 -0.782727,0.72506 -1.258113,1.222 -1.378457,1.51824 -1.594024,3.45148 -1.556967,5.414 0.352195,2.43323 1.740371,4.34295 3.592384,5.87416 2.513548,1.96374 5.495278,3.01558 8.470941,4.0383 2.496303,0.77433 5.059995,1.37263 7.636024,1.81977 2.567162,0.40428 5.172343,0.42441 7.764596,0.4591 3.660963,0.11596 7.30889,-0.0366 10.94865,-0.42991 4.66883,-0.62306 9.35452,-1.08259 14.03516,-1.60256 3.44672,-0.34983 6.86194,-0.95956 10.18906,-1.92592 0.76192,-0.36813 1.59975,-0.53891 2.37541,-0.86957 0.3799,-0.16196 1.45958,-0.77176 1.10604,-0.55829 -5.45787,3.29548 -2.08655,1.11604 -0.94959,-0.004 1.43196,-1.61904 2.14225,-3.58499 2.53436,-5.67302 0.2528,-1.98545 0.48196,-4.00983 -0.0767,-5.95288 -0.57888,-1.79572 -1.36453,-3.49828 -2.88277,-4.65951 -1.57618,-1.0039 -3.37624,-1.50223 -5.14258,-2.05604 -0.29031,-0.0768 -0.58063,-0.15368 -0.87095,-0.23052 0,0 3.67937,-2.52629 3.67937,-2.52629 l 0,0 c 0.29313,0.0823 0.58625,0.16468 0.87938,0.24702 1.80576,0.5809 3.65143,1.10235 5.23536,2.18725 1.55343,1.25753 2.394,3.02107 3.01099,4.90148 0.61765,2.00214 0.42327,4.07573 0.1736,6.13678 -0.36477,2.15497 -1.03216,4.19211 -2.4331,5.91778 -2.70464,2.9038 -6.43227,4.6167 -10.15573,5.8455 -3.33445,0.91493 -6.74588,1.50016 -10.18779,1.83295 -4.68786,0.50298 -9.37289,1.00606 -14.04901,1.61051 -3.659814,0.37213 -7.327063,0.5183 -11.005885,0.40716 -2.612285,-0.037 -5.238467,-0.063 -7.820628,-0.50811 -2.583177,-0.47565 -5.158125,-1.07278 -7.654652,-1.89057 -3.021409,-1.0473 -6.031776,-2.16379 -8.579457,-4.16218 -1.91919,-1.6458 -3.362192,-3.64902 -3.785209,-6.19662 -0.06758,-2.02704 0.06485,-4.07973 1.401555,-5.72279 1.957106,-2.16608 3.722931,-2.92966 6.527243,-4.58214 0.26074,-0.15364 1.052529,-0.59766 0.794076,-0.4402 -0.986798,0.60121 -1.986394,1.18115 -2.979592,1.77172 2.84485,-1.63422 5.569117,-3.34649 8.700198,-4.34925 2.093931,-0.6551 4.205803,-1.27908 6.352631,-1.73323 2.167254,-0.43162 4.356224,-0.59213 6.552346,-0.80679 2.233399,-0.28282 4.46276,-0.39807 6.715507,-0.31235 2.598747,-0.001 5.197497,-5e-5 7.796247,-9.3e-4 2.4341,-0.003 4.86819,-0.008 7.30228,-0.008 2.08308,0.003 4.16732,0.005 6.2487,0.0982 2.49595,0.12831 4.98745,0.32409 7.47321,0.58476 0,0 -3.64383,2.58628 -3.64383,2.58628 z"
       inkscape:connector-curvature="0"
       transform="translate(0,308.2677)" />
    <path
       style="fill:#000000;fill-opacity:0.78431373;stroke:none"
       id="path12306"
       d="m 68.199405,122.43201 c 0.0733,3.99085 -0.275063,7.96291 -0.692717,11.92668 -0.4484,3.83142 -0.659832,7.6828 -0.772922,11.53682 -0.0678,2.89081 -0.06464,5.78268 -0.06091,8.6741 0.03494,2.3725 -0.328695,4.72774 -0.52484,7.08826 -0.02658,2.38971 -0.392434,4.73053 -0.863074,7.06593 -0.119757,1.27896 -1.065708,3.88571 -0.0581,4.99949 0.154881,0.1712 0.378916,0.26385 0.568375,0.39577 2.641051,0.92275 5.455729,0.96849 8.199139,1.34494 2.025055,0.30953 4.049349,0.55983 6.056835,0.96276 1.685868,0.72193 3.500032,0.89964 5.272729,1.27689 2.665637,0.67697 5.364349,1.07245 8.102884,1.30087 4.403769,0.43215 8.754133,-0.34725 13.010443,-1.40295 2.95638,-0.86506 5.85244,-1.92737 8.67461,-3.16033 2.83457,-1.69464 -3.1548,1.77003 -2.36696,1.32599 1.49571,-0.843 2.98304,-1.70078 4.47424,-2.55172 2.90375,-1.65699 -4.77741,3.56588 -1.84418,0.69648 1.22009,-1.23877 2.32903,-2.57904 3.43447,-3.9193 1.00393,-1.20819 1.58154,-2.6665 2.21962,-4.07983 0.70281,-1.35128 1.71402,-2.48724 2.69614,-3.63534 0.16196,-0.17627 0.32393,-0.35255 0.48589,-0.52882 0,0 4.12979,-1.72121 4.12979,-1.72121 l 0,0 c -0.1666,0.16698 -0.33319,0.33396 -0.49979,0.50093 -0.93875,1.15956 -2.00252,2.21707 -2.73981,3.53172 -0.69979,1.40646 -1.18108,2.93713 -2.18032,4.18406 -1.11529,1.34261 -2.20444,2.70678 -3.42931,3.95201 -1.80399,2.01108 -0.44332,0.63298 -5.11481,3.4659 -0.20962,0.12712 -0.85399,0.48184 -0.64309,0.35685 1.0567,-0.62623 4.24611,-2.47196 3.18068,-1.8607 -5.73936,3.29279 -2.80521,1.71147 -5.2986,3.04492 -2.83053,1.17753 -5.70256,2.25772 -8.66481,3.0605 -4.299215,1.02268 -8.684766,1.75361 -13.119232,1.30628 -2.758419,-0.241 -5.475421,-0.6636 -8.167218,-1.31872 -1.780705,-0.34867 -3.569206,-0.62119 -5.27494,-1.27277 -1.993437,-0.39491 -4.00977,-0.62907 -6.015223,-0.95783 -2.802976,-0.37123 -5.719555,-0.39888 -8.360352,-1.51686 -0.222173,-0.18521 -0.482945,-0.33211 -0.66652,-0.55563 -1.168832,-1.4232 -0.20076,-3.70632 -0.06152,-5.28564 0.464261,-2.31983 0.884037,-4.63863 0.88025,-7.0162 0.18572,-2.35311 0.564605,-4.69713 0.549881,-7.06046 0.0016,-2.89889 0.0044,-5.79807 0.07513,-8.6963 0.116906,-3.86837 0.329652,-7.7349 0.784421,-11.58015 0.423343,-3.93578 0.797545,-7.88438 0.642129,-11.84867 0,0 3.981592,-2.02872 3.981592,-2.02872 z"
       inkscape:connector-curvature="0"
       transform="translate(0,308.2677)" />
    <path
       style="fill:#000000;fill-opacity:0.78431373;stroke:none"
       id="path12308"
       d="m 138.6884,122.41359 c -1.31518,3.34666 -2.4182,6.78064 -3.40129,10.23853 -1.15961,4.09411 -2.00149,8.26824 -3.06848,12.3868 -0.73148,2.50934 -1.25135,5.05729 -1.47693,7.65982 -0.0162,2.06541 -0.33314,4.10334 -0.56202,6.151 -0.0561,0.31213 -0.11223,0.62426 -0.16835,0.93638 0,0 -4.01332,1.9488 -4.01332,1.9488 l 0,0 c 0.0631,-0.30166 0.12628,-0.60331 0.18943,-0.90497 0.21454,-2.04683 0.57148,-4.07837 0.57134,-6.14277 0.20496,-2.63623 0.71903,-5.21518 1.48321,-7.74906 1.09572,-4.11732 1.9305,-8.29749 3.07913,-12.40009 0.9575,-3.45571 2.0581,-6.87986 3.31339,-10.23887 0,0 4.05389,-1.88557 4.05389,-1.88557 z"
       inkscape:connector-curvature="0"
       transform="translate(0,308.2677)" />
    <path
       style="fill:#000000;fill-opacity:0.78431373;stroke:none"
       id="path12310"
       d="m 94.423922,393.94057 c -2.720284,-0.32693 -5.456412,-0.47801 -8.193171,-0.57406 -3.128149,-0.075 -6.248908,0.29324 -9.370595,0.46991 -2.605216,0.18007 -5.145733,0.67287 -7.568406,1.64485 -1.600787,0.44846 -9.218924,4.8713 -2.1846,0.82978 -1.891827,1.07868 -3.658993,2.37936 -5.263282,3.84977 -1.533284,1.30422 -2.808747,2.81183 -3.774273,4.57344 -0.903951,1.69817 -1.421396,3.43263 -1.67416,5.33172 -0.0159,2.39662 0.651956,4.6239 2.011466,6.5845 1.199591,1.63707 3.109714,2.17892 4.970255,2.7128 2.181641,0.55783 4.379458,0.96638 6.618635,1.20585 2.041152,0.18998 4.093079,0.20081 6.141296,0.2106 1.968078,0.006 3.909993,-0.39256 5.867721,-0.5687 2.033939,-0.16046 4.075542,-0.17753 6.114635,-0.1933 1.864109,-0.0452 3.733032,0.0832 5.58924,-0.10912 2.389962,-0.29864 4.786726,-0.46225 7.172917,-0.79251 2.17227,-0.39695 4.38965,-0.3761 6.57085,-0.67095 2.12219,-0.21194 7.83745,-3.77406 1.1537,0.0132 1.35284,-0.84821 2.36798,-2.06374 3.05732,-3.49013 0.60225,-1.57598 0.73205,-3.27614 0.631,-4.94676 -0.1602,-1.89484 -0.91426,-3.66137 -1.82665,-5.30722 -0.90018,-1.35679 -2.03242,-2.50309 -3.33265,-3.47446 -1.5225,-0.95301 -3.13033,-1.76557 -4.77456,-2.48935 -1.22871,-0.68222 -2.45876,-1.3777 -3.623729,-2.16304 -0.997403,-0.64304 -1.878721,-1.41724 -2.963874,-1.92072 -0.206823,-0.0689 -0.413646,-0.13778 -0.620469,-0.20667 0,0 3.709591,-2.50523 3.709591,-2.50523 l 0,0 c 0.216237,0.0824 0.432475,0.16473 0.648713,0.24709 1.075798,0.54831 1.987878,1.31589 2.998288,1.96705 1.16367,0.74634 2.33805,1.48074 3.56914,2.11228 1.66331,0.75455 3.30554,1.5723 4.83569,2.57242 1.33003,1.03153 2.50445,2.2151 3.4195,3.6376 0.94291,1.69816 1.73089,3.52518 1.92232,5.4768 0.13708,1.72858 0.0219,3.48436 -0.52714,5.14031 -0.62292,1.49768 -1.60615,2.8084 -2.95952,3.72968 -2.90714,1.71488 -5.52812,3.70627 -8.88876,4.26982 -2.18268,0.24228 -4.386272,0.29335 -6.555841,0.66676 -2.394372,0.31909 -4.801172,0.49051 -7.198539,0.78543 -1.866766,0.13627 -3.738895,0.0484 -5.609587,0.0802 -2.03257,0.0192 -4.067905,0.0449 -6.093811,0.22612 -1.961617,0.1997 -3.915659,0.57423 -5.89315,0.5311 -2.056335,-0.0155 -4.116922,-0.0351 -6.163985,-0.25236 -2.253813,-0.26595 -4.472081,-0.68998 -6.667969,-1.26628 -1.950405,-0.58998 -3.89434,-1.23378 -5.131789,-2.97073 -1.399513,-2.06241 -2.108957,-4.36846 -2.158266,-6.87139 0.222434,-1.95346 0.670457,-3.72658 1.595115,-5.47295 0.922983,-1.81894 2.15357,-3.39813 3.726658,-4.71184 1.560767,-1.52445 3.340593,-2.83266 5.216751,-3.94334 3.218395,-1.85307 6.379177,-3.81484 9.847696,-5.17406 2.454734,-0.90974 5.020044,-1.35491 7.63232,-1.52034 3.131171,-0.18437 6.263,-0.54504 9.402269,-0.44125 2.752221,0.10552 5.500893,0.28198 8.239514,0.58139 0,0 -3.643824,2.58627 -3.643824,2.58627 z"
       inkscape:connector-curvature="0"
       transform="translate(0,308.2677)" />
    <path
       style="fill:#000000;fill-opacity:0.78431373;stroke:none"
       id="path12312"
       d="m 56.07911,415.9676 c -0.371944,3.491 -0.511251,7.00063 -0.60928,10.50819 -0.08551,3.77887 -0.08759,7.55901 -0.09489,11.33865 -0.0019,3.30845 0.0081,6.61689 0.02038,9.92532 0.003,2.06125 0.0092,4.12249 0.01257,6.18373 -3.43e-4,1.73055 -8.12e-4,3.46109 4.15e-4,5.19164 -0.164496,1.78321 -0.451022,3.55047 -0.607246,5.33509 -0.04815,1.39838 -0.46311,2.74266 -0.67474,4.11963 -0.238137,1.50404 -0.246726,2.97 0.259553,4.41197 1.144652,2.63033 3.184127,4.72157 5.161836,6.74622 1.9793,1.77313 3.993812,3.5011 6.301785,4.82732 2.055131,0.96117 4.084861,1.98072 6.257938,2.64912 1.746168,0.46723 3.565046,0.50646 5.36121,0.53952 1.925751,0.0168 3.851623,0.003 5.777389,-0.005 1.8554,-0.0473 3.718386,0.0937 5.564615,-0.11552 1.932453,-0.21887 3.755143,-0.95016 5.57631,-1.59515 1.372832,-0.50945 5.094932,-2.64629 -0.804321,0.65208 -0.310485,0.1736 0.615556,-0.35676 0.920517,-0.53989 2.525702,-1.51668 -0.705702,0.39135 1.715576,-1.03276 1.365273,-0.93169 2.73631,-1.8851 3.960855,-2.99937 1.18098,-1.02829 2.32874,-2.07665 3.44718,-3.17303 0.64926,-0.69919 1.30285,-1.38266 1.85394,-2.16254 0,0 4.10004,-1.79739 4.10004,-1.79739 l 0,0 c -0.51318,0.84049 -1.17513,1.5171 -1.82284,2.25407 -1.12544,1.09871 -2.22288,2.18727 -3.44662,3.17815 -1.1804,1.18625 -2.59901,2.09529 -3.92919,3.10186 -3.14719,1.78486 -6.112116,3.95768 -9.507273,5.25648 -1.841723,0.64203 -3.685989,1.35318 -5.647696,1.5133 -1.859056,0.14363 -3.72592,0.0493 -5.589341,0.0833 -1.929437,0.006 -3.859032,0.022 -5.788392,-0.002 -1.823334,-0.0504 -3.668905,-0.12106 -5.428749,-0.64803 -2.177991,-0.72044 -4.23855,-1.73796 -6.299246,-2.73786 -2.323832,-1.36507 -4.358224,-3.1287 -6.345549,-4.94212 -2.018277,-2.07495 -4.094751,-4.21189 -5.295153,-6.88594 -0.564668,-1.49673 -0.60714,-3.02311 -0.371864,-4.60253 0.189164,-1.3782 0.614795,-2.71118 0.694684,-4.09993 0.147448,-1.77512 0.41338,-3.53359 0.624833,-5.30139 0.0013,-1.73066 8.49e-4,-3.46131 3.17e-4,-5.19197 0.003,-2.06489 0.0084,-4.12978 0.0093,-6.19467 0.0087,-3.31446 0.01332,-6.62894 0.01367,-9.94341 -1.73e-4,-3.78229 0.0018,-7.56489 0.0844,-11.34649 0.09562,-3.50817 0.241627,-7.01511 0.546176,-10.51231 0,0 3.996852,-1.98657 3.996852,-1.98657 z"
       inkscape:connector-curvature="0"
       transform="translate(0,308.2677)" />
    <path
       style="fill:#000000;fill-opacity:0.78431373;stroke:none"
       id="path12314"
       d="m 113.33938,422.71901 c -0.0822,3.84069 -0.40688,7.6722 -0.57322,11.51084 -0.12862,4.08226 -0.53178,8.14838 -0.74452,12.22686 -0.2303,3.33875 -0.0524,6.69434 -0.27953,10.03095 -0.2053,1.75293 -0.45396,3.49794 -0.57101,5.25972 -0.12152,1.67512 -0.006,3.35925 -0.17004,5.02997 -0.11092,1.66708 -0.66758,3.24006 -1.01928,4.85929 -0.22624,1.16203 -0.29161,2.34425 -0.35092,3.52369 0,0 -3.98413,2.00655 -3.98413,2.00655 l 0,0 c 0.0522,-1.19803 0.10386,-2.39876 0.31391,-3.5822 0.30928,-1.62015 0.92954,-3.16396 1.03541,-4.82417 0.22033,-1.65802 0.0567,-3.34155 0.18286,-5.00921 0.0961,-1.77043 0.34259,-3.52207 0.58758,-5.27721 0.29949,-3.33319 0.0834,-6.6987 0.32105,-10.03823 0.20665,-4.08007 0.62119,-8.14595 0.75754,-12.2289 0.15677,-3.8214 0.48756,-7.63809 0.51722,-11.46153 0,0 3.97708,-2.02642 3.97708,-2.02642 z"
       inkscape:connector-curvature="0"
       transform="translate(0,308.2677)" />
    <path
       style="fill:#000000;fill-opacity:0.78431373;stroke:none"
       id="path12316"
       d="m 260.12856,368.71421 c 0.44784,8.32302 0.90982,16.6455 1.44476,24.96347 0.7568,10.45393 1.10428,20.92794 1.27237,31.4057 0.26608,10.86491 -0.39854,21.71939 -1.08134,32.5567 -0.45435,6.42363 -1.0608,12.82925 -1.86852,19.21716 -0.44795,2.22547 -0.70556,4.49272 -1.16363,6.71541 -1.38748,0.53422 -2.77496,1.06844 -4.16244,1.60265 0,0 3.92078,-2.1816 3.92078,-2.1816 l 0,0 c -1.27168,0.83707 -2.54336,1.67414 -3.81505,2.51121 0.26034,-0.74985 0.31384,-1.55199 0.44932,-2.33042 0.25415,-1.46019 0.59627,-2.90437 0.82199,-4.36988 0.87806,-6.40245 1.55704,-12.82352 2.03802,-19.26947 0.72111,-10.82618 1.38585,-21.67295 1.10295,-32.52919 -0.17799,-10.47326 -0.49458,-20.9452 -1.24757,-31.39531 -0.55149,-8.28081 -1.01829,-16.56744 -1.66256,-24.84178 0,0 3.95092,-2.05465 3.95092,-2.05465 z"
       inkscape:connector-curvature="0"
       transform="translate(0,308.2677)" />
    <path
       style="fill:#000000;fill-opacity:0.78431373;stroke:none"
       id="path12318"
       d="m 263.6754,364.22896 c 4.71797,-0.54133 9.43576,-0.91814 14.18575,-0.97501 9.35489,0.30621 18.67126,1.30897 27.99773,2.05586 14.31765,1.28188 28.69019,1.67397 43.05575,1.94602 10.72325,0.0262 21.4506,-0.0697 32.15794,-0.68118 6.30821,-0.35142 12.61938,-0.60925 18.92038,-1.0806 7.54527,-0.47338 15.09136,-0.95696 22.64129,-1.3546 9.09991,-0.36567 18.20693,-0.42434 27.31021,-0.68782 8.15378,-0.33044 16.30967,-0.93652 24.38133,-2.15979 3.83407,-0.71056 7.71372,-1.08513 11.57688,-1.58878 2.49367,-0.34217 4.95239,-1.13352 7.48276,-1.12698 2.06318,0.29367 2.68607,2.08964 3.2688,3.85097 1.43627,5.42999 2.37016,10.98025 3.18413,16.53244 1.20967,9.67066 2.19632,19.37238 3.1634,29.0708 1.14789,11.11713 2.21967,22.24094 3.29688,33.36512 1.06395,12.35549 2.33871,24.68271 3.73842,37.00417 1.11704,10.27897 2.28301,20.55128 3.49469,30.81948 0.97638,7.55189 1.68375,15.13624 2.61409,22.69292 0.38069,3.47864 0.91281,6.9316 1.46035,10.38584 0.0647,0.76562 0.25733,1.50966 0.30655,2.27556 0,0 -4.00982,2.03341 -4.00982,2.03341 l 0,0 c 0.0888,-0.75244 -0.21149,-1.477 -0.22414,-2.23073 -0.53243,-3.47319 -1.03758,-6.94488 -1.38402,-10.44389 -0.8753,-7.57532 -1.56502,-15.17268 -2.53022,-22.73837 -1.17741,-10.28215 -2.34875,-20.56392 -3.42618,-30.85719 -1.37014,-12.32466 -2.66797,-24.65099 -3.75078,-37.00477 -1.08668,-11.11861 -2.16617,-22.23699 -3.32701,-33.34815 -0.96925,-9.68285 -1.96974,-19.36894 -3.21706,-29.01942 -0.8335,-5.51054 -1.80269,-11.01523 -3.28034,-16.39473 -0.53515,-1.60346 -1.05949,-3.24554 -2.98559,-3.36206 -2.50501,0.1011 -4.93981,0.80915 -7.41789,1.14019 -3.84305,0.49584 -7.70097,0.87337 -11.51858,1.55431 -8.05576,1.14228 -16.18234,1.72674 -24.30995,2.04484 -9.12124,0.26984 -18.24704,0.34232 -27.36401,0.74012 -7.55203,0.41258 -15.1031,0.86039 -22.64885,1.37138 -6.30119,0.46961 -12.61103,0.75157 -18.92112,1.07008 -10.65483,0.54085 -21.3268,0.5617 -31.99342,0.52314 -14.39701,-0.28513 -28.80063,-0.6663 -43.15334,-1.90614 -9.35473,-0.72865 -18.70334,-1.70693 -28.08751,-1.94107 -4.77977,0.099 -9.52954,0.49755 -14.2732,1.0909 0,0 3.5857,-2.66627 3.5857,-2.66627 z"
       inkscape:connector-curvature="0"
       transform="translate(0,308.2677)" />
    <path
       style="fill:#000000;fill-opacity:0.78431373;stroke:none"
       id="path12320"
       d="m 258.38212,482.28351 c -0.76417,5.26724 -1.30835,10.56704 -1.88435,15.85825 -0.76616,5.86616 -1.19372,11.76642 -1.77197,17.652 -0.19111,1.80489 -0.28562,3.61545 -0.56208,5.4104 -0.0683,0.44321 -0.34468,1.59473 -0.22158,2.10998 0.0599,0.25076 0.26772,0.44069 0.40158,0.66104 0.36768,0.18984 0.71452,0.42709 1.10303,0.56951 2.5065,0.91879 5.47246,1.03727 8.08694,1.26793 3.88251,0.34252 5.69163,0.39071 9.70704,0.59129 13.91826,0.51423 27.84907,0.5259 41.77492,0.56561 7.83592,0.11169 15.68441,0.17756 23.50907,0.66578 7.83492,0.48885 15.64586,1.41814 23.45424,2.20549 13.09614,1.36175 26.20897,2.56286 39.35575,3.30222 7.53702,0.31818 15.07547,0.48266 22.6091,0.88088 3.43894,0.20747 6.882,0.30881 10.32642,0.3526 5.35293,-0.0595 10.69727,0.1767 16.04421,0.39001 6.08395,0.25295 12.17274,0.32785 18.26108,0.37686 7.63624,0.046 15.27271,0.0475 22.90907,0.0364 4.42042,0.12991 8.82169,-0.31464 13.22573,-0.59878 2.89437,-0.1503 5.79319,-0.17703 8.6908,-0.19803 0.39972,-0.002 0.79944,-0.004 1.19916,-0.006 0,0 -3.59665,2.61518 -3.59665,2.61518 l 0,0 c -0.39773,0.001 -0.79546,0.002 -1.19319,0.003 -2.89096,0.0172 -5.78342,0.0462 -8.67027,0.21501 -4.37392,0.2855 -8.75055,0.62409 -13.13847,0.49993 -7.64487,-0.009 -15.28976,0.003 -22.9346,-0.0218 -6.09158,-0.0403 -12.18342,-0.12426 -18.27012,-0.38754 -5.36735,-0.21021 -10.73249,-0.40988 -16.10529,-0.3309 -3.43624,-0.0373 -6.86953,-0.167 -10.29871,-0.39657 -7.48759,-0.44467 -14.98295,-0.61762 -22.47456,-0.97848 -13.11629,-0.78459 -26.19707,-2.02814 -39.2652,-3.38884 -7.80123,-0.79502 -15.60455,-1.71276 -23.43402,-2.19109 -7.82353,-0.47796 -15.67005,-0.55003 -23.50458,-0.64846 -13.96611,-0.032 -27.93654,-0.025 -41.8963,-0.50109 -4.15948,-0.19092 -5.78469,-0.22284 -9.79432,-0.55734 -2.64526,-0.22068 -5.7887,-0.28729 -8.297,-1.34219 -0.4475,-0.18821 -0.83079,-0.5025 -1.24619,-0.75375 -0.17105,-0.29211 -0.42368,-0.54986 -0.51315,-0.87633 -0.16869,-0.6155 0.11816,-1.60924 0.21743,-2.17817 0.3132,-1.79499 0.42656,-3.60728 0.62369,-5.41739 0.60746,-5.8904 1.0501,-11.79668 1.80443,-17.67169 0.56713,-5.27975 1.13025,-10.56103 1.7614,-15.83315 0,0 4.00751,-1.95196 4.00751,-1.95196 z"
       inkscape:connector-curvature="0"
       transform="translate(0,308.2677)" />
    <path
       style="fill:#000000;fill-opacity:0.78431373;stroke:none"
       id="path12322"
       d="m 262.22864,67.620029 c -0.88081,7.283001 -1.56473,14.589336 -2.09692,21.905956 -0.73776,11.067305 -1.9085,22.098535 -2.96104,33.138695 -1.1395,10.88438 -2.3457,21.7619 -3.54848,32.63967 -0.95304,8.85807 -1.58451,17.74998 -2.96433,26.5557 -0.71535,4.78154 -1.57484,9.5375 -2.43258,14.29465 -0.52369,2.93669 -0.80264,5.90539 -0.92884,8.88319 -0.0858,3.10852 -0.0768,6.21894 -0.0755,9.32838 0.10183,2.03362 -0.40622,4.8796 1.36141,6.4009 0.28528,0.24553 0.62787,0.41528 0.94181,0.62291 3.3065,1.29552 6.94754,1.47855 10.45388,1.68799 4.48723,0.26803 7.95996,0.31623 12.53612,0.43793 19.43947,0.49441 38.87881,-0.28695 58.31691,-0.42516 5.13484,-0.0365 10.26994,-6e-5 15.40491,-9e-5 32.6114,0.36969 65.1087,3.44357 97.5884,6.1344 20.91342,1.67807 41.85544,3.00944 62.81998,3.83708 4.88972,0.17314 9.78105,0.30167 14.67331,0.37376 2.20531,0.0325 4.04037,0.13585 6.16963,-0.39591 -1.04196,0.51363 -1.99352,1.28154 -3.12587,1.54089 -0.29951,0.0686 0.2414,-0.57772 0.25972,-0.88444 0.0275,-0.46065 -0.0432,-0.92456 -0.12449,-1.37882 -0.46058,-2.57406 -1.44006,-5.11271 -2.1853,-7.60944 -2.7292,-9.14181 -5.30471,-18.33214 -7.6707,-27.57459 -3.0623,-10.99354 -5.54675,-22.1132 -7.52402,-33.3488 -1.71107,-10.9249 -2.85108,-21.92242 -3.54494,-32.95542 -0.54023,-10.28535 -0.60114,-20.58766 -0.64507,-30.88463 -0.19456,-7.421138 0.2284,-14.814431 1.05788,-22.183142 0.61074,-4.645165 1.35179,-9.27067 2.33331,-13.851916 0.0597,-0.992873 0.82584,-2.377791 0.35881,-3.397661 -0.41355,-0.903085 -2.54946,-0.617086 -3.11407,-0.623199 -8.34383,0.442942 -16.69174,0.854399 -25.03943,1.255025 -10.70245,0.542945 -21.41515,0.806468 -32.12925,0.964147 -9.89992,0.116433 -19.80068,0.08729 -29.70105,0.07928 -11.58805,-0.1923 -23.16553,0.161606 -34.72929,0.889482 -9.08806,0.680327 -18.19211,1.056899 -27.30181,1.266718 -6.61512,0.295483 -13.21356,0.03829 -19.78305,-0.754531 -4.57748,-0.703941 -9.18957,-1.056394 -13.81339,-1.241886 -3.83848,-0.200119 -7.64876,-0.667701 -11.46518,-1.098341 -2.91466,-0.523098 -5.84535,-0.919171 -8.79972,-1.117589 -2.35729,-0.133787 -4.71893,-0.144719 -7.07926,-0.147045 -1.93555,-0.2033 -3.85242,-0.514277 -5.76691,-0.856037 -2.14965,-0.401523 -4.33247,-0.52651 -6.51348,-0.600468 -2.48008,-0.05997 -4.94741,0.318015 -7.41715,0.511778 -1.85074,0.142668 -3.70659,0.186452 -5.56204,0.206038 -1.70052,0.01013 -3.4011,0.0048 -5.10164,0.001 -1.7903,-0.0024 -3.5806,-0.0012 -5.3709,-6.23e-4 -1.49648,0.26042 -4.63059,1.780967 2.18764,-1.502788 0.15442,-0.07437 -0.24695,0.243239 -0.33415,0.39079 -0.27019,0.457203 -0.29484,0.86155 -0.39664,1.381005 -0.2398,1.78919 0.1509,3.584047 0.35757,5.359893 0.21009,1.065148 0.0976,0.534738 0.33746,1.591251 0,0 -3.93472,2.117372 -3.93472,2.117372 l 0,0 c -0.2474,-1.078304 -0.12751,-0.533061 -0.35912,-1.635849 -0.20249,-1.814479 -0.5986,-3.64158 -0.41391,-5.47029 0.0715,-0.521658 0.10863,-1.052162 0.30032,-1.549914 0.82747,-2.148661 3.69568,-3.084455 5.87046,-3.307721 1.78833,0.0015 3.57665,0.0042 5.36499,0.0053 1.70169,-6.96e-4 3.40343,0.0038 5.10509,-0.01043 1.84414,-0.02318 3.68855,-0.07256 5.52772,-0.218403 2.47957,-0.200251 4.9591,-0.564069 7.45118,-0.472442 2.19403,0.08812 4.38749,0.237074 6.54822,0.651369 1.8981,0.334057 3.80514,0.635255 5.72722,0.790046 2.36047,0.0122 4.72236,0.03287 7.07888,0.184087 2.95263,0.216518 5.87726,0.647218 8.79505,1.144716 3.80164,0.441053 7.60104,0.889118 11.42574,1.087457 4.62278,0.200731 9.23215,0.57465 13.8075,1.287803 6.53957,0.778941 13.10514,1.030645 19.68926,0.746495 9.08652,-0.198321 18.16674,-0.578266 27.23266,-1.23663 11.56634,-0.696441 23.14486,-1.021691 34.73329,-0.860357 9.91129,-0.0081 19.82286,-0.0125 29.73374,-0.110321 10.70109,-0.139973 21.40126,-0.392176 32.08968,-0.953532 8.41148,-0.419765 16.8207,-0.884197 25.22768,-1.350043 0.98532,0.04728 2.01307,-0.07942 2.89988,0.472442 1.40765,0.875988 0.44241,3.020931 0.25245,4.213414 -1.0246,4.575062 -1.78193,9.199124 -2.41885,13.84395 -0.8509,7.367136 -1.35418,14.757852 -1.16816,22.182351 0.0277,10.294712 0.0653,20.594782 0.60313,30.878252 0.68053,11.021 1.81208,22.00534 3.51366,32.91882 1.96879,11.22598 4.42413,22.34156 7.51418,33.31714 2.37639,9.22396 4.96898,18.39413 7.77373,27.49732 0.31757,1.02722 0.6282,2.05662 0.95271,3.08167 0.6059,1.91388 1.51375,3.99132 1.56577,6.04123 0.01,0.38299 0.15144,0.89267 -0.14052,1.14073 -1.35798,1.15379 -3.023,1.88755 -4.53449,2.83133 -2.06114,0.38096 -4.02876,0.29019 -6.12711,0.23568 -4.83867,-0.1257 -9.67601,-0.29893 -14.51209,-0.50038 -20.85316,-0.95877 -41.68486,-2.35202 -62.48714,-4.09549 -32.45712,-2.7794 -64.94213,-5.86417 -97.54231,-6.12901 -5.15177,0.0145 -10.30375,-0.007 -15.45529,0.0434 -19.55102,0.19099 -39.09968,1.01607 -58.65413,0.65087 -4.44213,-0.0903 -8.28783,-0.12507 -12.68092,-0.36107 -3.59475,-0.19312 -7.36968,-0.3362 -10.72112,-1.78449 -0.33731,-0.24015 -0.70715,-0.44016 -1.01192,-0.72044 -1.81561,-1.66972 -1.40651,-4.49897 -1.46441,-6.69723 -0.006,-3.10803 -0.0532,-6.21714 0.0242,-9.32451 0.1333,-3.00321 0.41626,-5.99597 0.94529,-8.95798 0.85912,-4.77044 1.77196,-9.53087 2.50926,-14.32288 1.44963,-8.8095 2.1274,-17.71122 3.07022,-26.5846 1.20759,-10.87841 2.41584,-21.75681 3.56602,-32.64124 1.05344,-11.03193 2.2195,-22.05592 2.9395,-33.116346 0.49862,-7.281281 1.15808,-14.548928 1.87839,-21.811103 0,0 3.99685,-1.986572 3.99685,-1.986572 z"
       inkscape:connector-curvature="0"
       transform="translate(0,308.2677)" />
    <path
       style="fill:#000000;fill-opacity:0.78431373;stroke:none"
       id="path12324"
       d="m 869.08404,649.5845 c -2.32207,2.78564 -5.14178,5.06858 -7.94131,7.3479 -3.01654,2.44542 -6.14454,4.74927 -9.14923,7.20947 -3.08055,2.45178 -5.85765,5.23734 -8.72254,7.92808 -3.1296,2.90488 -6.54048,5.49026 -9.94811,8.05763 -3.97168,2.89541 -7.85979,5.90428 -11.7008,8.97053 -3.80247,3.01187 -7.59599,6.03298 -11.38011,9.06785 -3.34839,2.5893 -6.72043,5.14763 -10.15793,7.61827 -3.08492,2.24587 -6.21535,4.42177 -9.27842,6.69783 -2.82732,2.24609 -5.66051,4.50192 -8.36524,6.8959 -1.3651,1.27806 -2.83868,2.42841 -4.22102,3.68706 -0.83941,0.79385 -0.43759,0.38602 -1.20688,1.22208 0,0 -4.11565,1.73445 -4.11565,1.73445 l 0,0 c 0.74741,-0.87925 0.35152,-0.45772 1.18854,-1.26377 1.37754,-1.28622 2.86483,-2.42811 4.24843,-3.70543 2.68758,-2.43093 5.57325,-4.64714 8.375,-6.94342 3.06782,-2.2743 6.1851,-4.47138 9.28089,-6.70696 3.45011,-2.46003 6.81996,-5.02569 10.18263,-7.60263 3.79211,-3.03135 7.58148,-6.06252 11.39075,-9.07259 3.83646,-3.06828 7.71364,-6.08692 11.68543,-8.97851 3.40686,-2.55121 6.80709,-5.13235 9.94834,-8.00693 2.88132,-2.67741 5.62716,-5.50128 8.71238,-7.95333 2.98913,-2.48259 6.13071,-4.77179 9.15188,-7.21376 2.77534,-2.25469 5.57616,-4.4934 7.92144,-7.2109 0,0 4.10153,-1.77882 4.10153,-1.77882 z"
       inkscape:connector-curvature="0" />
    <path
       style="fill:#000000;fill-opacity:0.78431373;stroke:none"
       id="path12326"
       d="m 779.18958,395.54252 c 0.0489,2.99611 -0.51718,5.95869 -1.29543,8.8388 -0.77555,3.0602 -1.69552,6.08198 -2.44635,9.14824 -0.72133,2.87591 -0.38782,3.10473 1.90146,4.68978 2.01878,1.30789 4.16754,2.39635 6.30341,3.49877 1.69657,0.79786 3.53648,1.25237 5.36483,1.6387 1.15074,0.19184 0.57897,0.10873 1.71512,0.25067 0,0 -3.64766,2.57685 -3.64766,2.57685 l 0,0 c -1.14829,-0.16333 -0.5705,-0.0695 -1.73315,-0.28283 -1.85257,-0.41759 -3.71815,-0.88128 -5.42138,-1.74324 -2.14251,-1.12741 -4.31219,-2.21301 -6.33724,-3.54517 -2.36767,-1.66449 -2.9095,-2.18761 -2.14497,-5.16484 0.74798,-3.07313 1.68875,-6.09448 2.44991,-9.16467 0.79844,-2.82963 1.39359,-5.75821 1.30986,-8.71234 0,0 3.98159,-2.02872 3.98159,-2.02872 z"
       inkscape:connector-curvature="0"
       transform="translate(0,308.2677)" />
    <path
       style="fill:#000000;fill-opacity:0.78431373;stroke:none"
       id="path12328"
       d="m 284.80311,385.03149 c -0.23597,2.75221 -0.58216,5.48753 -0.93218,8.22692 -0.25883,2.76123 -0.52251,5.51926 -0.81934,8.27718 -0.24465,2.36153 -0.35466,4.73357 -0.40915,7.10617 0.0161,1.67259 -0.12148,3.35528 0.0556,5.02104 0.11102,0.34263 0.1943,0.80352 0.50909,1.04967 0.67839,0.53047 2.24606,0.27485 3.00148,0.26564 3.74281,-0.19049 7.47807,-0.53238 11.22369,-0.72401 3.30905,-0.14347 6.62048,-0.22036 9.93232,-0.2547 2.20234,-0.0787 4.38335,0.01 6.57299,0.23176 2.17749,0.24027 4.36211,0.39674 6.55102,0.4763 1.83794,0.0517 3.67686,0.049 5.51535,0.0486 1.63326,0.0738 6.41669,-1.34028 -0.60548,1.3191 -0.25304,0.0958 0.35948,-0.40932 0.4941,-0.64403 0.15208,-0.26515 0.23946,-0.56248 0.3592,-0.84373 0.58842,-2.66595 0.60371,-5.41592 1.01401,-8.11605 0.37319,-2.38763 1.03328,-4.72433 1.88109,-6.98476 0.57826,-1.66754 1.26408,-3.30347 1.73564,-5.00628 0.25877,-1.12708 1.17811,-2.51346 0.45554,-3.61039 -1.16422,-0.71472 -2.67912,-0.58029 -3.99619,-0.60813 -2.34779,0.0517 -4.69233,-0.17461 -7.00543,-0.56534 -2.59446,-0.50594 -5.16575,-1.1226 -7.76187,-1.62337 -2.60517,-0.70528 -5.25194,-1.15769 -7.93773,-1.39272 -2.33883,-0.13835 -4.65143,-0.52904 -6.98591,-0.73256 -2.02364,-0.37339 -4.05523,-0.6551 -6.10705,-0.80865 -1.26948,-0.0848 -2.54198,-0.10112 -3.81373,-0.11707 0,0 3.61299,-2.61682 3.61299,-2.61682 l 0,0 c 1.27701,0.0218 2.55506,0.0427 3.829,0.14166 2.05026,0.17345 4.07647,0.48828 6.107,0.81497 2.32885,0.22221 4.63969,0.60544 6.97611,0.74018 2.69068,0.26203 5.33588,0.75568 7.95332,1.4358 2.59421,0.50721 5.16662,1.11776 7.76445,1.60404 2.31154,0.35281 4.64243,0.56384 6.98304,0.50781 1.45139,0.0419 3.107,-0.0721 4.25872,0.96017 0.79452,1.28428 0.1455,2.62739 -0.29726,3.94481 -0.44108,1.7299 -1.15766,3.36976 -1.72927,5.05714 -0.88665,2.22498 -1.54003,4.54763 -1.94221,6.90889 -0.44043,2.72023 -0.47862,5.47589 -0.94917,8.18634 -1.17643,3.52003 -4.52768,4.75675 -7.89991,4.66944 -1.8434,-0.002 -3.68759,0.009 -5.53004,-0.06 -2.18785,-0.0968 -4.37005,-0.27493 -6.54749,-0.5098 -2.18202,-0.20262 -4.3615,-0.23931 -6.55272,-0.1886 -3.29245,0.0225 -6.58511,0.081 -9.87431,0.23602 -3.76614,0.19879 -7.5194,0.57334 -11.28484,0.74375 -1.66194,0.001 -3.40313,0.0852 -3.86835,-1.86055 -0.20748,-1.68306 -0.0655,-3.3873 -0.0765,-5.07985 0.0598,-2.38769 0.18123,-4.77385 0.41717,-7.15127 0.29358,-2.76082 0.56792,-5.5197 0.81498,-8.28458 0.34246,-2.7325 0.7299,-5.45493 0.9047,-8.20577 0,0 4.00355,-1.98441 4.00355,-1.98441 z"
       inkscape:connector-curvature="0"
       transform="translate(0,308.2677)" />
    <path
       style="fill:#000000;fill-opacity:0.78431373;stroke:none"
       id="path12330"
       d="m 318.65643,443.80531 c -0.51797,3.51747 -1.22145,6.99961 -1.66926,10.52753 -0.33778,2.7969 -0.45582,5.61241 -0.50981,8.42694 -0.026,2.02391 -0.0143,4.04801 -0.006,6.07199 0.0459,1.80866 -0.0838,3.62454 0.0876,5.42704 0.092,0.22628 0.12106,0.48999 0.27599,0.67885 1.24872,1.52215 6.87419,1.223 8.53579,1.224 6.16766,-0.0922 12.33396,-0.25469 18.50134,-0.36438 3.01483,-0.054 6.02991,-0.0929 9.0452,-0.1073 1.7146,-0.006 3.4292,-0.001 5.14381,-9.6e-4 1.63412,0.0359 3.23994,0.0403 4.85092,-0.24317 0.0643,0.33012 2.80863,-0.8379 2.52371,-0.66505 -5.35459,3.24833 -3.00218,1.85847 -1.96628,0.43003 0.97328,-2.36381 1.19839,-4.9822 1.72772,-7.47579 0.62667,-3.1836 1.13923,-6.38875 1.6826,-9.58787 0.15086,-1.759 0.60593,-3.45597 0.96416,-5.17668 0.21793,-1.12844 0.48556,-2.26575 -0.66322,-2.89085 -2.78466,-0.45362 -5.64532,-0.57363 -8.46569,-0.75493 -4.38925,-0.34292 -8.7385,-1.02641 -13.12015,-1.44279 -3.66332,-0.19498 -7.30896,-0.59955 -10.96483,-0.89196 -2.44566,-0.18341 -4.89172,-0.14623 -7.31865,-0.51311 -1.47212,-0.25689 -2.96315,-0.36533 -4.45346,-0.44518 0,0 3.62759,-2.60353 3.62759,-2.60353 l 0,0 c 1.49721,0.0939 2.99323,0.22228 4.4727,0.47938 2.4115,0.34228 4.84787,0.2971 7.27252,0.51132 3.64831,0.30923 7.2895,0.69489 10.94506,0.91388 4.37571,0.43252 8.72217,1.11739 13.10995,1.43222 1.91041,0.12034 3.8174,0.26799 5.72645,0.40623 0.78663,0.057 1.51046,0.0531 2.27507,0.24016 0.22884,0.056 0.44301,0.16045 0.66452,0.24067 1.20854,0.85289 1.21217,1.99556 0.91928,3.36652 -0.33771,1.72889 -0.87034,3.41282 -1.00161,5.18054 -0.5565,3.20611 -1.09636,6.41477 -1.69554,9.61275 -0.53098,2.53529 -0.80356,5.14677 -1.61298,7.60772 -1.7055,2.80563 -5.04997,4.27654 -8.22298,4.71191 -1.62348,0.24154 -3.25243,0.19351 -4.89042,0.18266 -1.71252,-0.002 -3.42504,-0.001 -5.13756,-0.002 -2.98928,0.002 -5.97856,0.018 -8.9676,0.0581 -6.16694,0.0885 -12.33249,0.23984 -18.49895,0.35335 -2.17457,-0.004 -7.33047,0.44527 -8.90815,-1.60267 -0.17538,-0.22766 -0.22204,-0.53014 -0.33306,-0.79521 -0.19793,-1.81407 -0.063,-3.64432 -0.10738,-5.46669 -0.002,-2.02879 -0.0102,-4.05771 0.0135,-6.08639 0.052,-2.83515 0.19339,-5.67058 0.52683,-8.48799 0.43586,-3.51644 1.13672,-6.98435 1.62462,-10.49297 0,0 3.99685,-1.98657 3.99685,-1.98657 z"
       inkscape:connector-curvature="0"
       transform="translate(0,308.2677)" />
    <path
       style="fill:#000000;fill-opacity:0.78431373;stroke:none"
       id="path12332"
       d="m 417.88468,391.24668 c -0.6801,3.66399 -1.28948,7.3395 -1.9362,11.00953 -0.3969,2.88294 -0.76714,5.74558 -1.41263,8.58435 -0.38362,2.1324 -0.87927,4.22661 -1.57424,6.27827 -0.64209,2.05543 1.4413,2.20997 2.95284,2.62714 4.41267,0.84636 8.92726,0.81276 13.39633,1.08706 5.52284,0.23968 11.02336,0.74314 16.51804,1.33156 3.83566,0.52488 7.7234,0.50182 11.56494,0.9251 1.91015,0.29463 3.82393,0.52458 5.75403,0.6243 2.04378,0.16769 5.20014,-1.55125 -1.14892,1.55471 -0.15967,0.0781 0.26993,-0.23778 0.36766,-0.38626 0.11611,-0.17641 0.17684,-0.38359 0.26526,-0.57538 0.48719,-2.03955 0.38748,-4.17566 0.39369,-6.25928 -0.001,-3.30625 -0.01,-6.61252 -0.0239,-9.91874 -0.007,-2.42401 -0.0181,-4.848 -0.0245,-7.27201 -0.004,-1.58188 -0.004,-3.16376 -0.005,-4.74564 -0.12786,-1.33333 0.34991,-2.87344 -0.34228,-4.07809 -1.97767,-1.16096 -4.58558,-0.94337 -6.81039,-1.00612 -2.76928,-0.0495 -5.53919,-0.0263 -8.30867,-0.009 -2.49955,0.12813 -4.9768,-0.12368 -7.46198,-0.34515 -2.86072,-0.24372 -5.73193,-0.32338 -8.60155,-0.37039 -1.72287,-0.17699 -3.42353,-0.49801 -5.14936,-0.651 -1.46505,-0.10828 -2.93496,-0.11291 -4.40318,-0.11913 -1.49909,-0.002 -2.99819,9.7e-4 -4.49729,0.003 -0.25077,2.2e-4 -0.50155,4.4e-4 -0.75232,6.6e-4 0,0 3.61759,-2.62885 3.61759,-2.62885 l 0,0 c 0.25076,-2.4e-4 0.50152,-4.9e-4 0.75228,-7.3e-4 1.49981,-0.002 2.99963,-0.006 4.49943,-4.8e-4 1.47639,0.01 2.9549,0.0212 4.42665,0.15158 1.70777,0.17411 3.39311,0.50869 5.1052,0.64082 2.87356,0.0605 5.74825,0.15462 8.61283,0.40034 2.48123,0.2185 4.95712,0.41199 7.45089,0.30222 2.76536,-0.008 5.53108,-0.0224 8.29603,0.0369 2.34171,0.075 5.17443,-0.17941 7.10478,1.35827 0.7366,1.3067 0.37987,2.83369 0.44593,4.28503 -4.2e-4,1.58337 -0.001,3.16674 -0.005,4.75011 -0.005,2.42954 -0.0131,4.85907 -0.01,7.28861 10e-4,3.30456 0.0171,6.60905 0.0369,9.91354 0.004,2.1266 0.0944,4.28391 -0.28971,6.38454 -0.84539,2.84876 -4.39673,4.1224 -7.16773,3.89934 -1.92781,-0.11683 -3.83664,-0.37421 -5.74673,-0.65672 -3.82657,-0.39113 -7.68532,-0.46592 -11.5036,-0.96937 -5.492,-0.59279 -10.99207,-1.07535 -16.51266,-1.30998 -4.50804,-0.2624 -9.06498,-0.23674 -13.50997,-1.1224 -1.65701,-0.47195 -3.96351,-1.03696 -3.32862,-3.24594 0.70465,-2.04166 1.26136,-4.11168 1.61672,-6.2463 0.64564,-2.83781 1.0733,-5.68983 1.44637,-8.57702 0.65286,-3.66018 1.28291,-7.32402 1.89361,-10.99094 0,0 4.00751,-1.95195 4.00751,-1.95195 z"
       inkscape:connector-curvature="0"
       transform="translate(0,308.2677)" />
    <path
       style="fill:#000000;fill-opacity:0.78431373;stroke:none"
       id="path12334"
       d="m 337.42247,402.70969 c 3.98232,0.35536 7.97728,0.52157 11.9724,0.64487 4.53944,0.12033 9.0808,0.12816 13.62151,0.13619 4.74076,0.004 9.48151,0.002 14.22226,-4.1e-4 3.39515,-0.003 6.79027,-0.0146 10.18541,-0.0212 2.10805,0.1101 4.18313,-0.10477 6.26969,-0.36621 2.44585,-0.14117 4.86956,-0.43583 7.30114,-0.7229 2.23024,-0.12606 4.41743,-0.56617 6.62451,-0.87931 2.08534,-0.29221 4.15606,-0.64899 6.25611,-0.84997 0,0 -3.57712,2.65335 -3.57712,2.65335 l 0,0 c -2.09601,0.21526 -4.163,0.59255 -6.24983,0.86998 -2.20186,0.32287 -4.39319,0.71024 -6.61681,0.86011 -2.43376,0.29506 -4.86682,0.5392 -7.31064,0.73208 -2.09335,0.25459 -4.18138,0.41195 -6.2929,0.31547 -3.37769,-0.006 -6.75537,-0.0162 -10.13307,-0.0167 -4.74167,9.5e-4 -9.48334,0.007 -14.22502,0.001 -4.54518,-0.009 -9.09122,-0.0129 -13.63493,-0.14278 -4.01265,-0.13329 -8.02104,-0.33668 -12.02792,-0.58716 0,0 3.61521,-2.6266 3.61521,-2.6266 z"
       inkscape:connector-curvature="0"
       transform="translate(0,308.2677)" />
    <path
       style="fill:#000000;fill-opacity:0.78431373;stroke:none"
       id="path12336"
       d="m 410.91216,395.24057 c 1.16781,2.11129 1.61878,3.96064 0.73228,6.23837 -1.33278,1.85547 -3.52469,2.88978 -5.44784,4.03931 -0.37212,0.22895 -0.74425,0.45791 -1.11637,0.68686 0,0 -4.14055,1.60412 -4.14055,1.60412 l 0,0 c 0.37114,-0.23139 0.74229,-0.46277 1.11344,-0.69416 1.90973,-1.1315 3.97776,-2.17255 5.53536,-3.77313 1.0067,-2.11452 0.62274,-3.82375 -0.52624,-5.82873 0,0 3.84992,-2.27264 3.84992,-2.27264 z"
       inkscape:connector-curvature="0"
       transform="translate(0,308.2677)" />
    <path
       style="fill:#000000;fill-opacity:0.78431373;stroke:none"
       id="path12338"
       d="m 372.87184,462.90082 c 5.4563,0.0302 10.91239,0.0856 16.36736,-0.0486 6.2225,-0.21351 12.44406,-0.45089 18.66856,-0.59912 3.35022,-0.0782 6.70125,-0.0985 10.05225,-0.0994 2.54773,-6.7e-4 5.09545,-0.002 7.64318,-0.005 1.73699,0.0892 3.31876,0.0605 4.89233,-0.72143 -6.03417,3.54319 -2.74032,1.6383 -1.56969,0.60704 0.70565,-0.62163 1.30584,-1.35301 1.91791,-2.06298 1.27692,-1.68322 1.81345,-3.76273 2.25267,-5.79508 0.67165,-2.67318 0.9637,-5.41301 1.15664,-8.15577 0.12429,-2.04886 0.13997,-4.10186 0.14302,-6.15378 -0.004,-1.91503 4.5e-4,-3.83006 -0.002,-5.7451 -0.004,-1.85319 -0.008,-3.70639 -0.01,-5.55959 -2.2e-4,-0.26399 -4.5e-4,-0.52799 -6.7e-4,-0.79198 0,0 3.98246,-2.02921 3.98246,-2.02921 l 0,0 c -1.8e-4,0.2642 -3.7e-4,0.52839 -5.5e-4,0.79258 -0.002,1.85546 -0.005,3.71092 -0.004,5.56638 0.002,1.91339 0.0157,3.82674 0.0151,5.74013 -0.007,2.06497 -0.0304,4.13075 -0.15452,6.19261 -0.18514,2.75659 -0.46109,5.51649 -1.12194,8.20563 -0.41178,2.08501 -0.95013,4.20995 -2.14866,5.99426 -2.38647,2.81221 -4.3096,4.307 -7.95593,5.97073 -1.62033,0.65273 -3.26964,0.62901 -4.99821,0.56521 -2.53966,-0.006 -5.07932,-0.0132 -7.61899,-0.0116 -3.33671,0.007 -6.67358,0.0158 -10.00981,0.0799 -6.20446,0.12558 -12.40621,0.34026 -18.60809,0.55634 -5.49913,0.13502 -10.99899,0.0902 -16.49941,0.13142 0,0 3.61112,-2.62363 3.61112,-2.62363 z"
       inkscape:connector-curvature="0"
       transform="translate(0,308.2677)" />
    <path
       style="fill:#000000;fill-opacity:0.78431373;stroke:none"
       id="path12340"
       d="m 426.6498,432.23192 c 2.25149,-1.58822 4.5716,-3.0701 6.92538,-4.50056 2.22894,-1.18914 5.79435,-4.68132 8.03005,-3.65113 0.23155,0.1067 0.40845,0.30525 0.61268,0.45787 1.27006,1.39857 1.91916,3.26966 2.63469,4.99651 0.2888,0.84605 0.6198,1.67612 0.92684,2.51557 0,0 -3.90572,2.16485 -3.90572,2.16485 l 0,0 c -0.302,-0.8351 -0.63502,-1.65803 -0.91311,-2.50166 -0.67393,-1.64323 -1.28216,-3.45583 -2.51364,-4.76304 -0.50533,-0.2939 -0.49734,-0.38868 -1.12467,-0.33178 -0.23613,0.0214 -0.88436,0.30025 -0.69303,0.16021 5.71736,-4.18445 2.53591,-1.30124 1.09217,-0.64986 -2.34388,1.42657 -4.67772,2.86657 -6.9136,4.46062 0,0 -4.15804,1.6424 -4.15804,1.6424 z"
       inkscape:connector-curvature="0"
       transform="translate(0,308.2677)" />
    <path
       style="fill:#000000;fill-opacity:0.78431373;stroke:none"
       id="path12344"
       d="m 250.84336,451.98178 c -4.63634,-0.028 -9.27281,-0.0287 -13.90921,-0.0353 -6.33748,-0.006 -12.67497,-0.004 -19.01245,4.6e-4 -5.64667,0.001 -11.29334,0.005 -16.94001,0.005 -5.06768,-0.003 -10.13536,0.005 -15.20304,0.007 -3.64626,0.002 -7.29251,0.009 -10.93877,0.013 -2.28853,0.005 -4.57706,0.006 -6.86559,0.009 -2.21496,0.004 -4.42992,-0.005 -6.64487,-0.008 -3.03231,-0.004 -6.06461,-0.003 -9.09691,0.002 -2.15822,0.0726 -4.29234,-0.003 -6.4367,-0.23109 -3.12187,-0.20793 -6.21921,-0.64815 -9.33278,-0.94676 -2.2737,-0.22267 -4.55684,-0.29088 -6.83978,-0.32067 -2.00566,-0.0154 -4.01141,-0.01 -6.01709,-0.005 -1.88566,0.004 -3.77133,0.003 -5.65699,0.004 -0.31906,2.1e-4 -0.63812,4.2e-4 -0.95718,6.3e-4 0,0 3.60847,-2.62183 3.60847,-2.62183 l 0,0 c 0.31865,7e-5 0.6373,1.4e-4 0.95595,2.1e-4 1.8863,-7.5e-4 3.7726,-0.004 5.6589,-0.006 2.00511,-0.001 4.01031,-0.008 6.01533,0.0148 2.2843,0.0355 4.56766,0.12586 6.84097,0.36571 3.11575,0.31538 6.21988,0.73747 9.34638,0.93858 2.13344,0.20583 4.26349,0.23061 6.40675,0.19737 3.03022,0.006 6.06045,0.006 9.09068,0.002 2.22241,-0.003 4.44482,-0.0125 6.66723,-0.008 2.28041,0.003 4.56083,0.004 6.84124,0.009 3.63429,0.004 7.26858,0.0106 10.90288,0.013 5.06104,0.002 10.12208,0.0104 15.18312,0.007 5.64237,1.6e-4 11.28474,0.004 16.9271,0.005 6.33706,0.005 12.67413,0.007 19.01118,4.6e-4 4.66877,-0.007 9.3376,-0.007 14.0063,-0.0353 0,0 -3.61111,2.62363 -3.61111,2.62363 z"
       inkscape:connector-curvature="0"
       transform="translate(0,308.2677)" />
    <path
       style="fill:#000000;fill-opacity:0.78431373;stroke:none"
       id="path12346"
       d="m 126.41064,439.14374 c -1.92125,2.5134 -4.06854,4.84503 -6.0012,7.34669 -1.33535,1.81208 -2.57136,2.72867 -0.65192,4.4973 1.79473,1.40165 3.83518,2.44247 5.73681,3.6896 1.35267,0.7173 2.67425,1.49083 4.00283,2.25121 0,0 -3.71476,2.41423 -3.71476,2.41423 l 0,0 c -1.33451,-0.76481 -2.66404,-1.53879 -4.01664,-2.27149 -1.93844,-1.24377 -4.01955,-2.28341 -5.8134,-3.738 -2.00561,-1.95332 -1.21689,-3.09446 0.39236,-5.09456 1.89113,-2.52303 4.09341,-4.8004 5.95171,-7.35369 0,0 4.11421,-1.74129 4.11421,-1.74129 z"
       inkscape:connector-curvature="0"
       transform="translate(0,308.2677)" />
    <path
       style="fill:#0000ff;fill-opacity:0.78431373000000004;stroke:none"
       id="path12348"
       d="m 708.28466,447.46755 c -4.31267,0.30155 -8.61405,0.74748 -12.91991,1.14153 -8.80567,0.69775 -17.61334,1.36726 -26.43382,1.8483 -10.06288,0.46472 -20.12221,0.96806 -30.19247,1.24602 -7.80211,0.19653 -15.60679,0.2258 -23.41091,0.24386 -5.89691,0.009 -11.79383,0.007 -17.69074,0.0136 -4.02725,0.0897 -8.0215,0.58844 -12.0254,0.97679 -4.64874,0.46783 -9.30034,0.83182 -13.96788,1.05426 -3.92198,0.30851 -7.84114,0.59696 -11.74359,1.09354 -3.7025,0.43987 -7.40162,0.83568 -11.12465,1.05557 -4.87597,0.23978 -9.75868,0.29831 -14.63971,0.33379 -3.13269,0.02 -6.26542,0.0197 -9.39814,0.02 -1.85714,-0.003 -3.71427,9.9e-4 -5.5714,-3e-4 0,0 3.60543,-2.61925 3.60543,-2.61925 l 0,0 c 1.85345,4e-4 3.70689,0.007 5.56033,0.009 3.11913,0.008 6.2383,0.0165 9.35743,0.005 4.8718,-0.0297 9.74584,-0.0739 14.61146,-0.34342 3.72843,-0.24597 7.43433,-0.67177 11.14478,-1.10495 3.89474,-0.48606 7.81075,-0.73712 11.72366,-1.03648 4.67132,-0.22646 9.32414,-0.62469 13.97719,-1.08841 4.00405,-0.39955 8.00361,-0.87934 12.03335,-0.92886 5.87947,0.0145 11.75895,0.0245 17.63844,0.0231 7.78589,-0.009 15.57244,-0.0348 23.35656,-0.21772 10.05863,-0.2688 20.10705,-0.75667 30.15747,-1.23535 8.85214,-0.5035 17.69205,-1.1853 26.52646,-1.9364 4.34414,-0.41018 8.68308,-0.89392 13.03717,-1.17689 0,0 -3.61111,2.62362 -3.61111,2.62362 z"
       inkscape:connector-curvature="0"
       transform="translate(0,308.2677)" />
    <path
       style="fill:#0000ff;fill-opacity:0.78431373000000004;stroke:none"
       id="path12350"
       d="m 531.03098,442.78863 c -2.63298,1.52318 -5.13378,3.24864 -7.521,5.13039 -1.68229,1.46544 -3.39546,2.87687 -4.06042,5.07169 -0.46673,2.68385 1.94323,4.46932 3.72992,6.04785 3.11534,2.69812 6.78744,4.56015 10.43611,6.40551 1.19211,0.68608 2.43754,1.26059 3.6446,1.91839 0,0 -3.72346,2.43089 -3.72346,2.43089 l 0,0 c -1.19843,-0.65443 -2.42857,-1.24335 -3.61268,-1.92447 -3.66421,-1.88236 -7.34271,-3.7958 -10.48448,-6.50523 -1.92571,-1.68342 -4.39087,-3.59437 -4.01846,-6.45071 0.54527,-2.33772 2.2269,-3.80262 3.97229,-5.34345 2.36697,-1.89634 4.84551,-3.64577 7.47342,-5.16564 0,0 4.16416,-1.61522 4.16416,-1.61522 z"
       inkscape:connector-curvature="0"
       transform="translate(0,308.2677)" />
    <path
       style="fill:#000000;fill-opacity:0.78431373;stroke:none"
       id="path12354"
       d="m 141.89407,136.372 c 5.91269,0.4686 11.78454,1.41741 17.62478,2.43321 7.61083,1.31159 15.27684,2.27431 22.92878,3.31083 3.77548,0.65107 7.6095,0.73053 11.41034,1.11515 2.96891,0.30812 5.94321,0.47405 8.90565,0.83981 2.46707,0.34565 4.95435,0.47328 7.44198,0.5451 2.17664,0.0501 4.35397,0.0394 6.53099,0.0421 2.27263,-0.29416 4.56825,-0.40745 6.83553,-0.73413 2.04817,-0.20073 4.00603,-0.84095 6.0274,-1.18365 1.19327,-0.18684 2.39902,-0.2571 3.60394,-0.31352 0,0 -3.5997,2.64365 -3.5997,2.64365 l 0,0 c -1.19308,0.0667 -2.38701,0.14854 -3.56569,0.35591 -2.01033,0.38546 -3.98277,0.96039 -6.02778,1.15942 -2.28381,0.28982 -4.58357,0.47901 -6.87548,0.68936 -2.17857,0.004 -4.35758,1.4e-4 -6.53555,-0.0561 -2.49259,-0.0832 -4.9834,-0.23324 -7.45449,-0.58561 -2.95932,-0.35866 -5.93298,-0.51852 -8.89728,-0.83232 -3.78549,-0.35349 -7.5902,-0.52791 -11.34426,-1.18363 -7.63537,-1.07534 -15.28794,-2.0495 -22.88812,-3.35643 -5.87131,-0.98901 -11.78116,-1.94554 -17.73215,-2.26553 0,0 3.61111,-2.62363 3.61111,-2.62363 z"
       inkscape:connector-curvature="0"
       transform="translate(0,308.2677)" />
    <path
       style="fill:#000000;fill-opacity:0.78431373;stroke:none"
       id="path12356"
       d="m 227.64655,132.50724 c 2.85441,1.9997 5.92911,3.61523 9.04532,5.15562 1.9788,0.95376 3.90436,1.89322 4.70739,4.053 -0.005,2.52183 -2.46756,4.06078 -4.32347,5.35014 -4.01815,2.47168 -8.24469,4.60257 -12.26665,7.06232 -0.59291,0.36261 1.21765,-0.6704 1.82647,-1.00561 -0.54228,0.32503 -1.08457,0.65006 -1.62685,0.9751 0,0 -4.11189,1.58551 -4.11189,1.58551 l 0,0 c 8.31013,-4.95168 6.91119,-4.00422 12.07035,-7.00696 1.7607,-1.15452 4.09782,-2.56383 4.51976,-4.79666 -0.68321,-2.05647 -2.69804,-2.85306 -4.4946,-3.78183 -3.12557,-1.56771 -6.18829,-3.24374 -9.1014,-5.18598 0,0 3.75557,-2.40465 3.75557,-2.40465 z"
       inkscape:connector-curvature="0"
       transform="translate(0,308.2677)" />
    <path
       style="fill:#000000;fill-opacity:0.78431373;stroke:none"
       id="path12358"
       d="m 515.9219,144.75603 c 5.86166,0.73588 11.76778,1.0435 17.65929,1.44713 6.72359,0.42499 13.43527,0.97418 20.16758,1.25202 5.68419,0.14649 11.35847,0.53324 17.02295,1.0136 4.37861,0.23943 8.72859,0.79416 13.09878,1.1329 4.65666,0.45773 9.29366,1.06044 13.95966,1.42158 5.52513,0.57665 11.07171,0.86854 16.62212,1.04564 4.62976,0.14652 9.26406,0.40438 13.88119,0.78556 5.26509,0.4818 10.55086,0.65219 15.83445,0.76882 4.12227,-0.0462 8.22761,0.17242 12.33888,0.43199 5.52676,0.31515 11.06465,0.3499 16.59876,0.38634 3.80862,0.0181 7.61728,0.006 11.42591,6.4e-4 2.26443,-0.004 4.52886,-0.008 6.79328,-0.0122 1.99503,-0.005 3.99007,5e-4 5.9851,0.005 2.52363,0.12802 5.01235,-0.0729 7.51351,-0.36479 2.75806,-0.29635 5.53564,-0.32536 8.3066,-0.35983 3.23375,0.0992 6.44642,-0.26819 9.66638,-0.49393 2.61553,-0.15797 5.23534,-0.21873 7.85479,-0.26367 0,0 -3.58392,2.61297 -3.58392,2.61297 l 0,0 c -2.6123,0.0419 -5.22524,0.10298 -7.83266,0.27744 -3.22317,0.23377 -6.44171,0.55897 -9.67867,0.4719 -2.77113,0.0465 -5.54834,0.0909 -8.3042,0.41375 -2.50722,0.28994 -5.00908,0.40076 -7.53476,0.31658 -2.00054,0.005 -4.00109,0.01 -6.00164,0.007 -2.25706,-0.002 -4.51413,-0.003 -6.7712,-0.004 -3.78569,-0.002 -7.57134,-0.0209 -11.35688,-0.0551 -5.55297,-0.0489 -11.11022,-0.0653 -16.6563,-0.37456 -4.10119,-0.25695 -8.19854,-0.44259 -12.30954,-0.43219 -5.28996,-0.13821 -10.58193,-0.31852 -15.85499,-0.78408 -4.6103,-0.35652 -9.23209,-0.63393 -13.85353,-0.7804 -5.55601,-0.19291 -11.10671,-0.50574 -16.63999,-1.05704 -4.67234,-0.37204 -9.31821,-0.97246 -13.98495,-1.4038 -4.35996,-0.35152 -8.70094,-0.90523 -13.06965,-1.15688 -5.65245,-0.48162 -11.31528,-0.85687 -16.98692,-1.01658 -6.72769,-0.2891 -13.43411,-0.85335 -20.15382,-1.27564 -5.93262,-0.40056 -11.87319,-0.72703 -17.78605,-1.36881 0,0 3.63044,-2.58771 3.63044,-2.58771 z"
       inkscape:connector-curvature="0"
       transform="translate(0,308.2677)" />
    <path
       style="fill:#000000;fill-opacity:0.78431373;stroke:none"
       id="path12360"
       d="m 720.21499,138.66605 c 1.62859,2.48336 3.67604,4.64425 5.55496,6.93152 1.24834,1.5049 2.4245,3.14375 4.02025,4.30287 1.41668,0.81744 2.21793,1.91713 2.20719,3.56379 -0.8686,2.68486 -3.41404,4.43615 -5.48119,6.19166 -3.14788,2.47156 -6.20001,5.05266 -9.08448,7.82742 -1.5,1.41783 -0.78924,0.72387 -2.13713,2.0769 0,0 -4.09771,1.70002 -4.09771,1.70002 l 0,0 c 1.35237,-1.37761 0.63618,-0.67714 2.15532,-2.09449 2.86582,-2.8008 5.92143,-5.38857 9.07798,-7.85651 2.02783,-1.71719 4.40252,-3.37753 5.57262,-5.83317 0.14523,-1.53616 -0.72915,-2.42211 -1.99294,-3.18563 -1.58137,-1.23133 -2.79338,-2.86399 -4.04692,-4.41197 -1.86722,-2.29454 -3.88918,-4.46854 -5.57495,-6.90745 0,0 3.827,-2.30496 3.827,-2.30496 z"
       inkscape:connector-curvature="0"
       transform="translate(0,308.2677)" />
    <path
       style="fill:#000000;fill-opacity:0.78431373;stroke:none"
       id="path12362"
       d="m 785.59784,471.88108 c 1.351,2.33967 2.53758,4.75856 4.0652,6.99157 1.25933,1.87358 2.59768,3.69679 3.9546,5.5015 1.22351,1.90024 2.5729,3.69857 3.9909,5.45714 1.86806,2.57781 4.04662,4.89113 6.19237,7.23332 1.9157,2.47895 3.8329,4.95199 5.88917,7.31663 2.63083,3.06154 5.62306,5.77251 8.58687,8.50188 2.47022,1.9855 4.64571,4.27385 6.64572,6.72295 2.34601,2.71259 4.58853,5.51384 6.76682,8.36348 2.17774,2.72073 4.22054,5.54256 6.26878,8.36057 2.47884,3.15759 4.82324,6.41662 7.11912,9.70867 1.89436,3.01768 4.10704,5.81249 6.03244,8.80687 1.53282,2.03654 3.08918,4.05035 4.50801,6.1687 1.039,1.791 2.42901,3.34171 3.63547,5.01941 1.17723,1.56329 2.26701,3.1834 3.38304,4.78793 1.09951,1.47716 1.98743,3.09449 3.01515,4.61732 0.7956,1.66278 1.90984,3.11879 2.96042,4.6197 1.19697,1.42223 2.20542,2.97292 3.28236,4.48474 0.93289,1.67559 2.17627,3.14002 3.31544,4.67387 0,0 -3.83917,2.27585 -3.83917,2.27585 l 0,0 c -1.14056,-1.53659 -2.379,-3.00783 -3.31532,-4.68478 -1.07399,-1.51519 -2.10675,-3.04988 -3.28717,-4.48568 -1.05144,-1.50369 -2.17061,-2.96086 -2.97043,-4.6245 -1.01523,-1.52895 -1.90782,-3.13971 -3.01132,-4.61184 -1.10478,-1.60858 -2.1935,-3.22559 -3.36659,-4.78761 -1.21155,-1.67994 -2.61272,-3.23039 -3.64406,-5.03259 -1.41384,-2.1232 -2.96683,-4.14217 -4.48512,-6.19134 -1.91852,-2.99179 -4.11983,-5.7879 -6.00867,-8.80185 -2.28712,-3.29504 -4.63455,-6.54822 -7.12056,-9.69697 -2.04969,-2.81332 -4.09991,-5.62537 -6.2674,-8.35006 -2.16698,-2.85263 -4.4161,-5.64299 -6.76709,-8.34517 -1.99439,-2.42621 -4.16476,-4.68915 -6.60372,-6.67738 -2.95984,-2.75496 -5.95393,-5.48351 -8.60699,-8.54395 -2.06893,-2.35104 -3.99146,-4.81684 -5.90043,-7.29861 -2.14594,-2.35405 -4.32376,-4.67922 -6.21312,-7.25144 -1.43101,-1.75582 -2.79544,-3.55165 -4.01536,-5.46206 -1.35667,-1.81292 -2.69869,-3.64205 -3.95717,-5.52373 -1.52018,-2.24485 -2.6914,-4.67828 -4.0924,-6.99579 0,0 3.86021,-2.24675 3.86021,-2.24675 z"
       inkscape:connector-curvature="0" />
    <path
       style="fill:#000000;fill-opacity:0.78431373;stroke:none"
       id="path12364"
       d="m 874.0668,260.09392 c 0.4153,3.4025 1.24163,6.72813 1.95419,10.07497 0.60049,2.57283 1.49823,5.11474 0.94084,7.76076 -0.57111,1.61896 -1.7932,2.9137 -3.12475,3.95876 -4.0149,2.34983 -5.07097,3.66687 -9.24744,2.49951 -2.85005,-0.72772 -5.63207,-1.69561 -8.47857,-2.43319 -2.14857,-0.60676 -4.38797,-0.57606 -6.58136,-0.86385 -2.7251,-0.3993 -5.37512,-1.15389 -8.0929,-1.61599 -1.7397,-0.24563 -0.89028,-0.13834 -2.5478,-0.32552 0,0 3.62722,-2.57039 3.62722,-2.57039 l 0,0 c 1.65877,0.2066 0.80867,0.0899 2.54982,0.35349 2.71134,0.4827 5.36734,1.23155 8.09931,1.58325 2.20963,0.24433 4.44977,0.30045 6.60238,0.92419 2.83947,0.76705 5.62593,1.72395 8.48404,2.42636 0.88328,0.20941 1.28132,0.36911 2.17721,0.34636 1.8935,-0.0481 5.58725,-2.19938 -0.75061,1.32172 1.35853,-0.90585 2.56866,-2.19326 3.26246,-3.67445 0.70605,-2.57105 -0.24513,-5.08436 -0.81157,-7.60543 -0.69677,-3.35895 -1.52549,-6.68992 -2.02112,-10.08803 0,0 3.95865,-2.07252 3.95865,-2.07252 z"
       inkscape:connector-curvature="0"
       transform="translate(0,308.2677)" />
    <path
       style="fill:#000000;fill-opacity:0.78431373;stroke:none"
       id="path12366"
       d="m 338.97379,97.625933 c -0.40455,3.197977 -0.42365,6.425547 -0.6901,9.633777 -0.28442,2.46493 -0.53309,4.9321 -0.65768,7.41052 -0.0884,2.08941 -0.0867,4.18112 -0.0917,6.27196 -0.13002,1.9369 -0.36525,3.86515 -0.79661,5.75799 -0.4917,1.99874 -0.58068,4.06382 -0.6548,6.11174 -0.358,3.20185 -0.32213,3.5486 3.02034,3.88569 7.84352,0.13539 15.69142,-0.0507 23.53567,-0.12589 7.13589,0.0732 14.28369,-0.34385 21.41676,-0.0773 2.66727,-0.0114 5.19147,0.79457 7.66714,1.69678 1.58095,0.81818 3.21657,1.43729 4.9686,1.74776 1.54149,0.2296 3.04674,0.61179 4.60085,0.77682 2.04257,0.21252 4.10813,0.032 6.10985,-0.4028 0.9436,-0.17891 1.85427,-0.50206 2.72141,-0.91232 0.31418,-0.14864 1.22388,-0.65888 0.92419,-0.48284 -3.64807,2.14296 -3.6619,2.20071 -2.09757,1.05616 1.32113,-1.07308 1.81004,-2.5295 2.04133,-4.15198 0.17389,-2.2167 0.11671,-4.44586 0.11466,-6.66772 0.059,-3.64757 -0.3871,-7.27818 -0.9746,-10.87093 -0.60953,-3.61069 -0.97378,-7.25423 -1.19459,-10.90733 -0.35864,-1.89015 -0.18786,-3.99224 -1.02354,-5.76028 -0.12047,-0.13047 -0.21685,-0.28826 -0.3614,-0.39142 -1.14901,-0.81998 -5.21508,-0.61839 -6.52625,-0.64483 -5.16407,-0.0525 -10.32856,-0.0207 -15.49272,0.002 -3.22646,0.0161 -6.45294,0.0341 -9.67945,0.0351 -3.04612,6.9e-4 -6.09224,-0.002 -9.13837,-0.005 -3.33052,-0.001 -6.66104,8.3e-4 -9.99157,0.002 -2.69636,0.004 -5.39272,0.005 -8.08909,0.004 -2.11453,0.001 -4.22906,0.005 -6.34359,0.008 -1.30559,0.001 -2.61118,0.002 -3.91677,0.002 0,0 3.61771,-2.628429 3.61771,-2.628429 l 0,0 c 1.30388,2.19e-4 2.60775,5.39e-4 3.91162,0.0019 2.10763,0.0023 4.21525,0.0064 6.32288,0.0075 2.69244,-0.0011 5.38488,2.21e-4 8.07732,0.0043 3.32859,0.0011 6.65719,0.0034 9.98578,0.0023 3.05136,-0.0029 6.10272,-0.0046 9.15408,-0.0071 3.21132,-0.0042 6.42265,0.0013 9.63397,-0.0032 5.16877,-0.0076 10.33767,-0.03412 15.50638,2.5e-4 2.10095,0.03786 5.7434,-0.406818 7.22475,1.405139 0.86087,1.831594 0.71843,3.969934 1.06422,5.932674 0.19136,3.64317 0.52937,7.27894 1.15191,10.87635 0.59944,3.60917 1.05858,7.25678 1.02849,10.92215 0.017,2.23323 0.0756,4.47187 -0.0519,6.70234 -0.19703,1.69207 -0.61189,3.27606 -1.91118,4.47815 -2.67238,2.16161 -5.86475,3.9293 -9.24235,4.68177 -2.04482,0.36845 -4.1271,0.54729 -6.19883,0.29669 -1.55686,-0.1901 -3.07327,-0.5713 -4.62314,-0.8026 -1.75465,-0.36206 -3.38749,-1.02926 -4.99639,-1.81232 -2.44244,-0.86039 -4.91024,-1.64324 -7.53445,-1.62406 -7.08695,-0.26841 -14.18754,0.0485 -21.27717,0.002 -7.90629,0.0867 -15.81678,0.32532 -23.72206,0.1889 -3.4983,-0.50551 -3.81372,-1.03859 -3.38256,-4.43397 0.0662,-2.06796 0.12657,-4.15829 0.59979,-6.18142 0.4442,-1.86569 0.69976,-3.76021 0.85394,-5.67301 -5e-4,-2.09702 -0.005,-4.19509 0.0808,-6.29076 0.12264,-2.48878 0.36483,-4.9669 0.67706,-7.43918 0.29868,-3.20087 0.3025,-6.42369 0.64535,-9.622821 0,0 4.00355,-1.984416 4.00355,-1.984416 z"
       inkscape:connector-curvature="0"
       transform="translate(0,308.2677)" />
    <text
       xml:space="preserve"
       style="font-size:40px;font-style:normal;font-weight:normal;line-height:125%;letter-spacing:0px;word-spacing:0px;fill:#000000;fill-opacity:1;stroke:none;font-family:Script MT Bold;-inkscape-font-specification:Script MT Bold"
       x="840.39789"
       y="394.24216"
       id="text12368"
       sodipodi:linespacing="125%"
       transform="translate(0,308.2677)"><tspan
         sodipodi:role="line"
         id="tspan12370"
         x="840.39789"
         y="394.24216"
         style="font-size:16px;font-style:normal;font-variant:normal;font-weight:normal;font-stretch:normal;text-align:start;line-height:125%;writing-mode:lr-tb;text-anchor:start;font-family:Segoe Print;-inkscape-font-specification:Segoe Print">User makes a change </tspan><tspan
         sodipodi:role="line"
         x="840.39789"
         y="414.24216"
         style="font-size:16px;font-style:normal;font-variant:normal;font-weight:normal;font-stretch:normal;text-align:start;line-height:125%;writing-mode:lr-tb;text-anchor:start;font-family:Segoe Print;-inkscape-font-specification:Segoe Print"
         id="tspan12372">in the UI</tspan></text>
    <text
       xml:space="preserve"
       style="font-size:16px;font-style:normal;font-variant:normal;font-weight:normal;font-stretch:normal;text-align:start;line-height:125%;letter-spacing:0px;word-spacing:0px;writing-mode:lr-tb;text-anchor:start;fill:#000000;fill-opacity:1;stroke:none;font-family:Segoe Print;-inkscape-font-specification:Segoe Print"
       x="831.36945"
       y="170.03575"
       id="text12374"
       sodipodi:linespacing="125%"
       transform="translate(0,308.2677)"><tspan
         sodipodi:role="line"
         id="tspan12376"
         x="831.36945"
         y="170.03575">User views data</tspan><tspan
         sodipodi:role="line"
         x="831.36945"
         y="190.03575"
         id="tspan12378">in the UI</tspan></text>
    <text
       xml:space="preserve"
       style="font-size:16px;font-style:normal;font-variant:normal;font-weight:normal;font-stretch:normal;text-align:start;line-height:125%;letter-spacing:0px;word-spacing:0px;writing-mode:lr-tb;text-anchor:start;fill:#0000ff;fill-opacity:1;stroke:none;font-family:Segoe Print;-inkscape-font-specification:Segoe Print"
       x="564.27789"
       y="777.74695"
       id="text12380"
       sodipodi:linespacing="125%"><tspan
         sodipodi:role="line"
         id="tspan12382"
         x="564.27789"
         y="777.74695">Commands</tspan><tspan
         sodipodi:role="line"
         x="564.27789"
         y="797.74695"
         id="tspan3061">(messages)</tspan></text>
    <text
       xml:space="preserve"
       style="font-size:16px;font-style:normal;font-variant:normal;font-weight:normal;font-stretch:normal;text-align:start;line-height:125%;letter-spacing:0px;word-spacing:0px;writing-mode:lr-tb;text-anchor:start;fill:#000000;fill-opacity:1;stroke:none;font-family:Segoe Print;-inkscape-font-specification:Segoe Print"
       x="565.03027"
       y="117.36981"
       id="text12384"
       sodipodi:linespacing="125%"
       transform="translate(0,308.2677)"><tspan
         sodipodi:role="line"
         id="tspan12386"
         x="565.03027"
         y="117.36981">Query response</tspan></text>
    <text
       xml:space="preserve"
       style="font-size:16px;font-style:normal;font-variant:normal;font-weight:normal;font-stretch:normal;text-align:start;line-height:125%;letter-spacing:0px;word-spacing:0px;writing-mode:lr-tb;text-anchor:start;fill:#000000;fill-opacity:1;stroke:none;font-family:Segoe Print;-inkscape-font-specification:Segoe Print"
       x="159.50256"
       y="81.25602"
       id="text12388"
       sodipodi:linespacing="125%"
       transform="translate(0,308.2677)"><tspan
         sodipodi:role="line"
         id="tspan12390"
         x="159.50256"
         y="81.25602">Read data</tspan><tspan
         sodipodi:role="line"
         x="159.50256"
         y="101.25602"
         id="tspan12392">store</tspan></text>
    <text
       xml:space="preserve"
       style="font-size:16px;font-style:normal;font-variant:normal;font-weight:normal;font-stretch:normal;text-align:start;line-height:125%;letter-spacing:0px;word-spacing:0px;writing-mode:lr-tb;text-anchor:start;fill:#000000;fill-opacity:1;stroke:none;font-family:Segoe Print;-inkscape-font-specification:Segoe Print"
       x="151.22649"
       y="483.02191"
       id="text12394"
       sodipodi:linespacing="125%"
       transform="translate(0,308.2677)"><tspan
         sodipodi:role="line"
         id="tspan12396"
         x="151.22649"
         y="483.02191">Update</tspan><tspan
         sodipodi:role="line"
         x="151.22649"
         y="503.02191"
         id="tspan12398">data store</tspan></text>
    <text
       xml:space="preserve"
       style="font-size:16px;font-style:normal;font-variant:normal;font-weight:normal;font-stretch:normal;text-align:start;line-height:125%;letter-spacing:0px;word-spacing:0px;writing-mode:lr-tb;text-anchor:start;fill:#000000;fill-opacity:1;stroke:none;font-family:Segoe Print;-inkscape-font-specification:Segoe Print"
       x="304.71008"
       y="552.99237"
       id="text12404"
       sodipodi:linespacing="125%"
       transform="translate(0,308.2677)"><tspan
         sodipodi:role="line"
         id="tspan12406"
         x="304.71008"
         y="552.99237">Write-side</tspan></text>
    <text
       xml:space="preserve"
       style="font-size:16px;font-style:normal;font-variant:normal;font-weight:normal;font-stretch:normal;text-align:start;line-height:125%;letter-spacing:0px;word-spacing:0px;writing-mode:lr-tb;text-anchor:start;fill:#000000;fill-opacity:1;stroke:none;font-family:Segoe Print;-inkscape-font-specification:Segoe Print"
       x="329.5383"
       y="44.389862"
       id="text12408"
       sodipodi:linespacing="125%"
       transform="translate(0,308.2677)"><tspan
         sodipodi:role="line"
         id="tspan12410"
         x="329.5383"
         y="44.389862">Read-side</tspan></text>
    <text
       xml:space="preserve"
       style="font-size:16px;font-style:normal;font-variant:normal;font-weight:normal;font-stretch:normal;text-align:start;line-height:125%;letter-spacing:0px;word-spacing:0px;writing-mode:lr-tb;text-anchor:start;fill:#000000;fill-opacity:1;stroke:none;font-family:Segoe Print;-inkscape-font-specification:Segoe Print"
       x="739.58026"
       y="522.89752"
       id="text12412"
       sodipodi:linespacing="125%"
       transform="translate(0,308.2677)"><tspan
         sodipodi:role="line"
         id="tspan12414"
         x="739.58026"
         y="522.89752">Service</tspan><tspan
         sodipodi:role="line"
         x="739.58026"
         y="542.89752"
         id="tspan12416">Interfaces</tspan></text>
    <path
       style="fill:#800000;fill-opacity:1;fill-rule:nonzero;stroke:none"
       id="path3041"
       d="m 240.82243,388.34782 c -2.49004,-0.44015 -4.92587,-0.98931 -7.32788,-1.77824 -1.76436,-0.59798 -3.50823,-1.25484 -5.27012,-1.86704 -1.3581,-0.71382 -2.79466,-1.24292 -4.2082,-1.82911 -2.01649,-0.67838 -3.89061,-1.68918 -5.8556,-2.49063 -1.73045,-0.58319 -3.40038,-1.33885 -5.06752,-2.08218 -1.81541,-0.67711 -3.56739,-1.50739 -5.3732,-2.20486 -2.21951,-0.9356 -4.5221,-1.64549 -6.75335,-2.55207 -2.36097,-0.81936 -4.67033,-1.77608 -7.00275,-2.67088 -2.32142,-0.86019 -4.58955,-1.84366 -6.90273,-2.72486 -2.60718,-1.06128 -5.23733,-2.05599 -7.81647,-3.18763 -2.67732,-1.08577 -5.35124,-2.17501 -8.01254,-3.30114 -2.09834,-0.96456 -4.18961,-1.96171 -6.10476,-3.25992 -1.63571,-0.89992 -3.14142,-2.01468 -4.5861,-3.19206 -1.76145,-1.38227 -3.55573,-2.733 -5.24409,-4.20332 -1.64508,-1.25822 -3.15328,-2.67984 -4.75235,-3.99217 -1.88063,-1.45465 -3.70315,-2.98417 -5.60873,-4.4074 -1.94578,-1.58172 -3.77168,-3.29488 -5.52754,-5.08324 -1.56679,-1.50781 -3.08724,-3.05969 -4.59168,-4.63144 -1.39782,-1.4411 -2.53529,-3.12296 -3.61354,-4.81244 -1.30219,-1.582 -2.32027,-3.36109 -3.53616,-5.00597 -1.12954,-1.56231 -2.16251,-3.1768 -3.16779,-4.82018 -1.21068,-1.7904 -2.11462,-3.75096 -3.18305,-5.62181 -1.01549,-1.50896 -1.84748,-3.14785 -2.51698,-4.83875 -0.77655,-1.47245 -1.34118,-3.05144 -2.11901,-4.52097 -0.85304,-1.7394 -1.45651,-3.57752 -2.18621,-5.36798 -0.81233,-1.62518 -1.27466,-3.39344 -1.87654,-5.1014 -0.65221,-1.79853 -0.99437,-3.68514 -1.58054,-5.50358 -0.5616,-1.92523 -1.06141,-3.86695 -1.61531,-5.79391 -0.59432,-1.90858 -0.76767,-3.90138 -1.19192,-5.848 -0.38911,-1.92613 -0.5043,-3.89286 -0.58344,-5.85199 -0.12808,-1.64414 -0.59578,-3.21404 -1.00366,-4.8009 -0.34143,-1.68849 -0.6552,-3.38395 -1.05903,-5.05939 -0.43608,-1.93966 -0.834,-3.88668 -1.23622,-5.83436 -0.21035,-1.65715 -0.64946,-3.26826 -0.9411,-4.91069 -0.15819,-1.63166 -0.39159,-3.24573 -0.64948,-4.86475 -0.24185,-1.56063 -0.26108,-3.13073 -0.61352,-4.6716 -0.39738,-1.5519 -0.45148,-3.15669 -0.50893,-4.74894 -0.0324,-2.14013 -0.38871,-4.25926 -0.59425,-6.38743 -0.1527,-1.6435 -0.18744,-3.29414 -0.20542,-4.94356 -0.01,-1.68534 -0.004,-3.37074 6.8e-4,-5.05609 0.003,-1.79145 9.2e-4,-3.58289 -1e-5,-5.37433 -0.002,-1.61057 2.8e-4,-3.22114 0.002,-4.83171 1.2e-4,-1.66559 -0.001,-3.33119 -0.002,-4.99679 0.0303,-1.5276 0.0363,-3.0333 -0.21457,-4.54183 -0.16869,-1.00207 -0.089,-0.50019 -0.23907,-1.50564 0,0 2.97584,-0.0442 2.97584,-0.0442 l 0,0 c 0.15013,1.00033 0.0705,0.49993 0.23887,1.50117 0.24983,1.52489 0.24587,3.04705 0.21389,4.59051 -7.1e-4,1.6656 -0.002,3.3312 -0.002,4.99679 0.001,1.61059 0.004,3.22118 0.001,4.83177 -0.002,1.79152 -0.005,3.58304 -0.006,5.37456 0.001,1.68422 -0.003,3.36846 0.008,5.05266 0.0168,1.64095 0.049,3.2831 0.19635,4.91852 0.20053,2.13457 0.55047,4.25937 0.59507,6.40464 0.0596,1.57481 0.12721,3.15953 0.52073,4.6939 0.34335,1.54812 0.35947,3.12533 0.60422,4.69062 0.25835,1.61725 0.49535,3.22938 0.65412,4.85931 0.29273,1.6389 0.72442,3.24881 0.93349,4.90285 0.3993,1.94457 0.7949,3.88916 1.23469,5.82434 0.40507,1.67411 0.72244,3.36789 1.06735,5.05469 0.41462,1.60624 0.87565,3.1994 0.99918,4.86421 0.0745,1.94254 0.18569,3.89269 0.58301,5.80063 0.41389,1.94138 0.59032,3.92777 1.1869,5.82843 0.54826,1.92575 1.05293,3.86329 1.6169,5.7848 0.57568,1.81848 0.93096,3.69859 1.5788,5.49513 0.59748,1.70592 1.07851,3.46223 1.88326,5.08708 0.71984,1.78453 1.31093,3.61928 2.18328,5.33996 0.76211,1.48895 1.36645,3.05818 2.12358,4.55055 0.67436,1.67579 1.50295,3.29642 2.50699,4.79881 1.05471,1.87503 1.96858,3.82618 3.18065,5.61198 1.00188,1.63678 2.04789,3.23579 3.16804,4.79504 1.20924,1.65536 2.24235,3.43074 3.53754,5.02428 1.08228,1.6678 2.20405,3.33758 3.60545,4.756 1.50316,1.56978 3.03288,3.10972 4.58688,4.62791 1.74956,1.77801 3.57242,3.47919 5.52095,5.03919 1.90301,1.43396 3.737,2.95692 5.61658,4.42046 1.5929,1.32223 3.1201,2.72309 4.75298,3.99827 1.70493,1.45051 3.47819,2.82166 5.24678,4.19389 1.45121,1.16365 2.96743,2.24633 4.58778,3.16452 1.92109,1.25851 3.98408,2.2677 6.07726,3.2066 2.66353,1.11739 5.33278,2.21611 8.0074,3.30557 2.5833,1.12235 5.21639,2.11216 7.82467,3.1725 2.31363,0.8815 4.58267,1.86874 6.90596,2.7258 2.32925,0.90493 4.64871,1.83593 7.00307,2.67498 2.23777,0.8905 4.53743,1.61398 6.75792,2.54901 1.80354,0.71868 3.57709,1.51077 5.38706,2.21527 1.67226,0.72493 3.32923,1.49186 5.05718,2.077 1.9575,0.824 3.85,1.79891 5.86398,2.48818 1.41769,0.57089 2.83033,1.14827 4.2072,1.814 1.75271,0.61952 3.49405,1.26911 5.25421,1.86267 2.40139,0.78064 4.84986,1.30569 7.34091,1.71913 0,0 -2.94658,0.42921 -2.94658,0.42921 z"
       inkscape:connector-curvature="0"
       transform="translate(0,308.2677)" />
    <path
       style="fill:#800000;fill-opacity:1;fill-rule:nonzero;stroke:none"
       id="path3043"
       d="m 90.093192,207.07399 c 1.799704,-1.41632 3.502532,-2.94691 5.28024,-4.39005 1.507123,-1.08182 3.041059,-2.12868 4.50224,-3.27233 1.072578,-0.93602 1.808528,-2.14926 3.295228,-2.39403 1.15925,0.0578 2.32664,0.0246 3.47777,0.17336 0.70889,0.0916 2.24316,1.94867 2.78021,2.4787 1.13455,0.84842 2.08552,1.90142 3.1525,2.82378 0.61675,0.59275 1.23124,1.13414 1.72291,1.83847 0,0 -2.9775,0.18717 -2.9775,0.18717 l 0,0 c -0.50203,-0.66409 -1.11445,-1.1992 -1.71439,-1.77371 -1.04826,-0.94849 -2.04423,-1.95344 -3.14897,-2.84039 -0.70675,-0.69779 -1.37573,-1.52669 -2.22779,-2.05245 -0.1738,-0.10724 -0.74757,-0.23332 -0.5476,-0.27476 0.79617,-0.16498 1.62431,-0.0778 2.43646,-0.11666 -1.54208,-0.008 -2.23897,1.28594 -3.28841,2.21767 -1.44627,1.16332 -2.991325,2.20311 -4.510804,3.26878 -1.779401,1.43434 -3.485882,2.95306 -5.264847,4.38707 0,0 -2.967247,-0.26062 -2.967247,-0.26062 z"
       inkscape:connector-curvature="0"
       transform="translate(0,308.2677)" />
    <path
       style="fill:#800000;fill-opacity:1;fill-rule:nonzero;stroke:none"
       id="path3045"
       d="m 148.97108,309.74375 c 2.47837,0.003 4.95675,0.002 7.43512,0.001 2.2572,6e-5 4.5144,2.7e-4 6.7716,-1.9e-4 1.74751,-4.6e-4 3.49502,-8e-4 5.24252,-9.7e-4 1.51173,-1.2e-4 3.02346,-1.2e-4 4.53519,-1.2e-4 1.50139,0 3.00278,10e-6 4.50417,10e-6 2.42455,0.16276 5.06343,-0.48844 7.37091,0.35016 1.28745,0.74886 1.52801,2.13118 1.6886,3.49563 0.069,1.47518 0.18653,2.97248 -0.0125,4.44038 -0.34749,1.40771 -0.50827,2.83921 -0.60237,4.28284 -0.1085,1.86911 -0.46364,3.71194 -0.64107,5.57673 -0.26864,1.61496 0.13123,3.36056 -0.49781,4.89734 -1.65883,1.66442 -4.49801,0.81472 -6.63317,0.47152 -1.66438,-0.52838 -3.35272,-0.88672 -5.08706,-1.07145 -1.88916,-0.15996 -3.78727,-0.16138 -5.68182,-0.16866 -0.35302,-3.4e-4 -1.41207,-8.4e-4 -1.05905,-0.001 0.61905,-3.2e-4 1.2381,-8.8e-4 1.85715,6.1e-4 0.67269,0.002 -1.34539,0.002 -2.01808,0.003 -2.20685,0.004 -0.60719,0.0104 -4.74904,-0.10125 -1.57206,-0.27453 -3.15255,-0.46845 -4.7448,-0.56938 -1.60385,-0.19058 -3.06804,-0.80518 -4.42467,-1.66008 -1.21667,-0.94241 -1.51314,-2.33696 -1.682,-3.7838 -0.12095,-1.60943 -0.0823,-3.22553 -0.073,-4.83801 0.0109,-1.63724 0.0161,-3.2745 0.019,-4.91178 0.002,-1.26433 0.002,-2.52866 0.002,-3.793 0,0 2.97648,4e-5 2.97648,4e-5 l 0,0 c -2.2e-4,1.26453 -4.6e-4,2.52906 -0.003,3.79359 -0.004,1.63763 -0.0115,3.27524 -0.0236,4.91283 -0.009,1.60017 -0.0401,3.20412 0.0801,4.80107 0.16659,1.37439 0.45676,2.67416 1.66406,3.51473 1.36598,0.79983 2.81417,1.38643 4.40735,1.51882 1.59018,0.11571 3.16548,0.33538 4.74063,0.57965 -0.68397,0.0248 -1.36895,0.0298 -2.05192,0.0744 -0.31019,0.0202 0.62172,-9e-4 0.93258,-0.001 0.24807,-3.7e-4 1.79551,-0.003 2.0218,-0.003 1.33185,-5e-4 2.6637,-7.3e-4 3.99555,-4.9e-4 0.35437,6e-5 0.70874,9.4e-4 1.06311,0.001 1.89735,0.0101 3.79902,0.0168 5.68924,0.20001 1.73358,0.20797 3.41077,0.61831 5.09203,1.0837 1.0465,0.16096 3.95519,0.31866 -0.62422,0.28601 -0.47002,-0.003 1.67501,-0.14412 1.3313,-0.46472 0.72427,-1.44953 0.19842,-3.24354 0.51517,-4.79901 0.17591,-1.8618 0.52472,-3.70199 0.63377,-5.56781 0.0923,-1.45059 0.23491,-2.89324 0.59579,-4.30583 0.2149,-1.43905 0.0773,-2.91469 0.014,-4.36261 -0.15692,-1.27577 -0.38083,-2.56226 -1.66583,-3.15753 -1.39915,-0.39565 -0.75903,-0.14278 1.53292,-0.25829 1.00157,-0.0505 -4.00872,0.0726 -3.00851,0 -1.50136,0 -3.00272,10e-6 -4.50408,10e-6 -1.51224,0 -3.02449,0 -4.53673,-1.2e-4 -1.7516,-1.8e-4 -3.50319,-5.1e-4 -5.25479,-9.7e-4 -2.25797,-4.5e-4 -4.51594,-2.5e-4 -6.77391,-1.9e-4 -2.47257,-7.7e-4 -4.94515,-0.002 -7.41772,0.001 0,0 -2.94126,-0.46585 -2.94126,-0.46585 z"
       inkscape:connector-curvature="0"
       transform="translate(0,308.2677)" />
    <path
       style="fill:#0000ff;fill-opacity:1;fill-rule:nonzero;stroke:none"
       id="path3049"
       d="m 583.18083,498.58907 c 2.48827,0.003 4.97654,0.002 7.4648,9.3e-4 1.81894,-8.4e-4 3.63788,-9.9e-4 5.45681,-3.3e-4 2.86263,0.002 5.72527,0.002 8.5879,0.002 2.43994,-4e-4 4.87989,-0.001 7.31983,-0.002 1.49028,-0.17285 2.98102,-0.40533 4.45721,-0.67771 1.59372,-0.3817 3.21219,-0.60947 4.84417,-0.73561 2.59745,-0.0313 5.072,-1.07727 6.42387,1.61185 0.49776,1.39906 0.49046,2.90186 0.50872,4.36826 0.004,1.5893 -0.0159,3.17854 -0.0246,4.7678 -0.006,2.07171 -0.35858,4.12461 -0.55631,6.18434 -0.15659,1.70038 -0.1871,3.40825 -0.20453,5.11458 -0.0835,1.7542 0.37905,3.59049 -0.73811,5.07609 -1.84639,1.19515 -4.23705,1.05921 -6.35896,1.11231 -3.38129,0.0374 -6.76295,0.01 -10.14431,-0.009 -2.02157,-0.011 -4.04318,-0.0135 -6.06478,-0.0155 -0.7505,-0.001 -7.12599,3.9e-4 -2.25862,-8.8e-4 0.36391,-9e-5 -0.7278,4e-5 -1.0917,5e-5 -2.19689,-2.5e-4 -4.39377,-10e-6 -6.59066,5.3e-4 -1.67043,4.7e-4 -3.34085,6.9e-4 -5.01128,8.1e-4 -1.66628,-0.82262 -4.04403,0.4352 -5.87138,-0.10961 -0.53027,-0.15809 -0.57109,-0.27726 -0.95688,-0.63743 -0.77598,-1.42295 -0.75004,-3.09248 -0.79029,-4.67035 0.0844,-1.93526 -0.0638,-3.83666 -0.33407,-5.74945 -0.22611,-1.61609 -0.27577,-3.23626 -0.5903,-4.8385 -0.32966,-1.48562 -0.45646,-3.00024 -0.51753,-4.51713 -0.01,-1.69484 -0.14533,-3.3993 0.0396,-5.08702 0,0 2.97387,0.0332 2.97387,0.0332 l 0,0 c -0.19183,1.67127 -0.0495,3.36218 -0.0404,5.04106 0.0684,1.50184 0.19274,3.00157 0.51946,4.47285 0.30844,1.60772 0.36268,3.23362 0.58602,4.85419 0.26713,1.92412 0.40629,3.83743 0.33233,5.78294 0.0406,1.48195 -0.0197,3.11922 0.79597,4.41689 0.40312,0.29416 0.41351,0.36362 0.93183,0.47245 1.01402,0.21292 4.71172,-0.0501 -0.0173,0.0704 1.67369,1.1e-4 3.34737,3.3e-4 5.02106,7.5e-4 2.19827,4.8e-4 4.39653,6e-4 6.59479,1.3e-4 3.06737,-10e-5 6.13474,-0.001 9.20211,8.4e-4 2.02161,0.001 4.04323,0.005 6.06482,0.017 0.73725,0.005 1.4745,0.009 2.21175,0.0136 0.41063,0.002 1.64239,-0.004 1.23189,0.007 -4.02992,0.10482 0.19598,-0.0645 0.85697,-0.005 2.09807,-0.0419 4.37186,0.0656 6.30315,-0.86379 1.20113,-1.28622 0.62849,-3.2585 0.74049,-4.8722 0.0156,-1.71512 0.0426,-3.43176 0.20756,-5.14045 0.20158,-2.04995 0.55891,-4.09405 0.55284,-6.15698 0.006,-1.58756 0.0199,-3.17509 0.0192,-4.76265 -0.0182,-1.41857 -8e-4,-2.88085 -0.51038,-4.22646 -0.23956,-0.42474 -0.30648,-0.64919 -0.70806,-0.94871 -0.16232,-0.12106 -0.73296,-0.23809 -0.53613,-0.28564 0.73893,-0.17849 1.5185,-0.078 2.27657,-0.13478 0.51108,-0.0383 -2.05777,0.0779 -1.53654,0.056 -1.63011,0.10863 -3.25163,0.30621 -4.84075,0.69882 -1.47527,0.3134 -2.98615,0.47342 -4.47219,0.73432 -2.44836,-7.9e-4 -4.89671,-0.002 -7.34507,-0.002 -2.8544,-2.6e-4 -5.70879,4.4e-4 -8.56319,0.002 -1.82031,6.7e-4 -3.64061,5.1e-4 -5.46092,-3.2e-4 -2.48434,-8e-4 -4.9687,-0.002 -7.45304,9.3e-4 0,0 -2.93737,-0.46523 -2.93737,-0.46523 z"
       inkscape:connector-curvature="0"
       transform="translate(0,308.2677)" />
    <path
       style="fill:#0000ff;fill-opacity:1;fill-rule:nonzero;stroke:none"
       id="path3051"
       d="m 584.35841,496.88425 c 1.77378,1.47851 3.45515,3.09093 5.37792,4.37719 1.44059,1.01827 2.97392,1.88139 4.50018,2.76013 1.2046,0.7958 2.22554,1.82065 3.42473,2.62169 1.06841,0.99044 2.24979,1.81706 3.46561,2.61255 1.22235,0.78398 2.39345,1.50789 3.81362,1.86136 -1.81323,0.20873 3.95271,0.24516 2.09617,0.23321 -3.93761,-0.0254 -2.31445,0.0125 -1.0784,-0.45562 1.62641,-0.86018 2.34514,-2.60623 3.23867,-4.11626 1.0043,-1.66643 2.41575,-3.0398 3.89705,-4.28202 1.35427,-0.83862 2.5792,-1.87132 4.03031,-2.54093 1.06781,-0.62546 2.25851,-0.9482 3.40067,-1.39953 0.63398,-0.34096 0.31785,-0.16464 0.94819,-0.52928 0,0 2.96907,0.31198 2.96907,0.31198 l 0,0 c -0.63851,0.36839 -0.3202,0.1775 -0.95465,0.57313 -1.14364,0.44964 -2.3379,0.75955 -3.40448,1.38817 -1.47482,0.60763 -2.65902,1.66153 -4.03208,2.45802 -1.48136,1.19573 -2.88003,2.55666 -3.89276,4.17918 -0.92219,1.55028 -1.64477,3.32873 -3.24092,4.3131 -0.0755,0.0308 -1.14844,0.47675 -1.23839,0.48298 -1.9195,0.13299 -3.81745,0.18407 -5.69268,-0.22796 -1.40603,-0.41098 -2.59111,-1.174 -3.81957,-1.95506 -1.2182,-0.79673 -2.36974,-1.66667 -3.47075,-2.61899 -1.16944,-0.82742 -2.20162,-1.82925 -3.41498,-2.59807 -1.53326,-0.87384 -3.0523,-1.76849 -4.49764,-2.78437 -1.90132,-1.33299 -3.59365,-2.93897 -5.39214,-4.40399 0,0 2.96725,-0.26061 2.96725,-0.26061 z"
       inkscape:connector-curvature="0"
       transform="translate(0,308.2677)" />
    <path
       style="fill:#800000;fill-opacity:1;fill-rule:nonzero;stroke:none"
       id="path3053"
       d="m 153.42498,309.52412 c 2.42017,1.62277 4.95329,3.09858 7.30692,4.8184 1.56827,1.1576 3.15884,2.28415 4.71827,3.45369 1.28946,1.00084 2.61584,1.94095 3.76972,3.10057 1.02988,1.01393 1.89894,1.84953 3.38526,1.99491 -0.69235,-0.0282 -1.40725,0.093 -2.07706,-0.0845 -0.30387,-0.0805 0.61737,-0.12582 0.91631,-0.22305 1.19837,-0.38973 2.27442,-1.0427 3.34149,-1.69436 1.30174,-0.98502 2.47265,-2.14511 3.60433,-3.32013 1.30201,-1.05533 2.22118,-2.47526 3.43006,-3.61558 0.15842,-0.15207 0.31685,-0.30415 0.47527,-0.45622 0,0 2.97083,0.23896 2.97083,0.23896 l 0,0 c -0.15941,0.155 -0.31881,0.31001 -0.47822,0.46501 -1.25015,1.09431 -2.11409,2.56409 -3.43846,3.59404 -1.1366,1.19794 -2.32111,2.36111 -3.60719,3.39733 -2.86431,1.74882 -4.40287,2.44507 -8.08414,2.12145 -1.4556,-0.2826 -2.38265,-1.15766 -3.40721,-2.18274 -1.16036,-1.13208 -2.47927,-2.06786 -3.75775,-3.05983 -1.5624,-1.15752 -3.13705,-2.29739 -4.70203,-3.45139 -2.36548,-1.70432 -4.87652,-3.21409 -7.32345,-4.7962 0,0 2.95705,-0.30034 2.95705,-0.30034 z"
       inkscape:connector-curvature="0"
       transform="translate(0,308.2677)" />
    <text
       xml:space="preserve"
       style="font-size:16px;font-style:normal;font-variant:normal;font-weight:normal;font-stretch:normal;text-align:center;line-height:125%;letter-spacing:0px;word-spacing:0px;writing-mode:lr-tb;text-anchor:middle;fill:#800000;fill-opacity:1;stroke:none;font-family:Segoe Print;-inkscape-font-specification:Segoe Print"
       x="167.05605"
       y="586.64484"
       id="text3055"
       sodipodi:linespacing="125%"><tspan
         sodipodi:role="line"
         id="tspan3057"
         x="167.05605"
         y="586.64484">Events</tspan><tspan
         sodipodi:role="line"
         x="167.05605"
         y="606.64484"
         id="tspan3059">(messages)</tspan></text>
    <path
       style="fill:#000000;fill-opacity:1;fill-rule:nonzero;stroke:none"
       d="M 918.8125 241.4375 C 917.68592 241.41485 916.53444 241.48209 915.40625 241.59375 C 912.28501 242.23981 909.64896 244.07241 907.59375 246.4375 C 906.36639 247.74146 905.75228 249.33027 905.4375 251.0625 C 905.03817 253.39956 905.59291 255.62391 906.375 257.8125 C 907.25273 260.03551 908.62371 261.92889 910.4375 263.46875 C 912.42458 264.96214 914.80571 265.71461 917.0625 266.6875 C 919.49279 267.58647 922.0064 268.32201 924.53125 268.90625 C 926.54003 269.42699 928.35848 269.43995 930.28125 268.65625 C 933.52397 267.11632 935.93164 265.13353 937.5625 261.96875 C 938.19755 260.21488 938.85986 258.45411 939.25 256.625 C 939.45844 255.2032 939.62987 253.74345 939.4375 252.3125 C 939.32039 250.71452 938.37657 249.65604 937.34375 248.53125 C 936.15388 247.36562 934.97048 246.22533 933.53125 245.375 C 932.48277 244.63555 931.36602 243.98112 930.3125 243.25 L 927.8125 244.84375 C 928.86895 245.58345 929.99009 246.23668 931.03125 247 C 932.46511 247.81077 933.63452 248.92314 934.8125 250.0625 C 935.80998 251.14659 936.717 252.13834 936.8125 253.6875 C 936.97391 255.09126 936.78827 256.51738 936.5625 257.90625 C 936.15549 259.70513 935.54752 261.47433 934.875 263.1875 C 934.07796 264.64264 933.13076 265.90048 931.875 267 C 931.80312 267.06294 931.65758 267.16367 931.53125 267.25 C 930.03854 267.71017 928.65802 267.61369 926.96875 267.21875 C 924.45058 266.66001 921.95816 265.93258 919.53125 265.0625 C 917.3033 264.09259 914.95028 263.35564 912.96875 261.90625 C 911.17204 260.42285 909.82689 258.55079 908.96875 256.375 C 908.20881 254.22482 907.69307 252.0373 908.125 249.75 C 908.46642 248.05926 909.13421 246.54399 910.34375 245.28125 C 911.01575 244.54153 911.04249 244.49114 911.8125 243.8125 C 911.85078 243.77876 911.94169 243.73081 912 243.6875 C 912.63885 243.39148 913.27709 243.0926 913.03125 243.34375 C 915.27493 243.10652 917.50753 243.13095 919.75 243.4375 C 922.27251 243.7758 924.75523 244.33051 927.15625 245.1875 L 929.59375 243.5 C 927.16874 242.69265 924.71685 242.07818 922.1875 241.71875 C 921.06236 241.56298 919.93908 241.46015 918.8125 241.4375 z M 927.5 271.75 L 924.84375 273.09375 C 924.82166 273.97102 924.82281 274.84426 924.84375 275.71875 L 924.8125 275.71875 C 922.17387 278.13109 919.54367 280.52552 916.875 282.90625 C 915.05654 284.38888 913.42173 286.08104 911.71875 287.6875 C 911.09846 288.15117 910.52233 288.65647 909.90625 289.125 L 912.6875 288.03125 C 913.29043 287.54887 913.87215 287.05272 914.46875 286.5625 C 916.15704 284.95438 917.79272 283.26834 919.59375 281.78125 C 921.36255 280.18778 923.13615 278.59189 924.90625 277 C 925.01509 279.44331 925.24188 281.87919 925.53125 284.3125 C 926.04001 288.38343 926.21034 292.49603 926.3125 296.59375 C 926.3825 300.067 926.38 303.52624 926.375 307 C 926.365 309.68741 926.34075 312.37509 926.34375 315.0625 C 926.07423 318.15062 925.39751 321.15826 924.78125 324.1875 C 924.60841 324.84902 924.55059 324.97981 924.5 325.15625 L 922 326.25 C 919.10691 329.00539 916.15973 331.7054 913.1875 334.375 C 910.37073 336.89488 907.78703 339.63679 905.15625 342.34375 C 903.16155 344.25551 901.25017 346.24793 899.6875 348.53125 L 902.40625 347.34375 C 903.99171 345.09071 905.89933 343.10176 907.875 341.1875 C 910.4842 338.47489 913.1043 335.76809 915.90625 333.25 C 918.78707 330.64466 921.67691 328.04485 924.46875 325.34375 C 924.41357 325.53305 924.35247 325.7401 924.15625 326.46875 L 926.84375 325.1875 C 927.23484 323.70724 927.04629 324.46989 927.4375 322.90625 C 928.05305 319.86229 928.74994 316.82278 929 313.71875 C 929.006 311.03127 929.003 308.34374 929 305.65625 C 928.9976 302.18272 928.97645 298.72295 928.90625 295.25 C 928.79403 291.14469 928.63314 287.0475 928.125 282.96875 C 927.79657 280.21764 927.52539 277.45641 927.46875 274.6875 C 927.50755 274.65312 927.55493 274.62812 927.59375 274.59375 L 927.46875 274.65625 C 927.44949 273.68824 927.46242 272.72002 927.5 271.75 z M 933.46875 275.65625 L 931 277.3125 C 935.84291 280.08927 940.56961 283.05237 945.3125 286 C 948.55811 288.04861 951.77063 290.1765 955 292.25 L 957.4375 290.6875 C 954.18566 288.63433 951.00346 286.48851 947.75 284.4375 C 943.01482 281.48032 938.2536 278.52945 933.46875 275.65625 z M 930.25 322.28125 L 927.6875 323.75 C 930.26473 328.35119 933.04713 332.83968 935.9375 337.25 C 937.73557 340.33168 939.64122 343.31765 941.625 346.28125 C 942.07241 347.04181 942.69922 347.68888 943.3125 348.3125 L 945.84375 346.75 C 945.23843 346.14335 944.62739 345.52631 944.1875 344.78125 C 942.18084 341.83367 940.23865 338.86113 938.4375 335.78125 C 935.54057 331.38562 932.75241 326.9148 930.25 322.28125 z "
       transform="translate(0,308.2677)"
       id="path3048" />
  </g>
  <g
     inkscape:groupmode="layer"
     id="versionlayer"
     inkscape:label="Version">
    <text
       xml:space="preserve"
       style="-inkscape-font-specification:Courier New;font-family:Courier New;font-weight:normal;font-style:normal;font-stretch:normal;font-variant:normal;fill:#ff0000"
       x="10"
       y="10"
       id="versiontext">Reference_02_Messages.svg (v1)</text>
  </g>
</svg>
