<?xml version="1.0" encoding="UTF-8" standalone="no"?>
<!-- Created with Inkscape (http://www.inkscape.org/) -->

<svg
   xmlns:dc="http://purl.org/dc/elements/1.1/"
   xmlns:cc="http://creativecommons.org/ns#"
   xmlns:rdf="http://www.w3.org/1999/02/22-rdf-syntax-ns#"
   xmlns:svg="http://www.w3.org/2000/svg"
   xmlns="http://www.w3.org/2000/svg"
   xmlns:sodipodi="http://sodipodi.sourceforge.net/DTD/sodipodi-0.dtd"
   xmlns:inkscape="http://www.inkscape.org/namespaces/inkscape"
   width="1052.3622"
   height="744.09448"
   id="svg12288"
   version="1.1"
   inkscape:version="0.48.2 r9819"
   sodipodi:docname="Reference_03_CQRS.svg"
   inkscape:export-filename="D:\CQRS Resources\Docs\Drawings\Reference_03_CQRS.png"
   inkscape:export-xdpi="90"
   inkscape:export-ydpi="90">
  <title
     id="title12418">CQRS High Level</title>
  <defs
     id="defs12290" />
  <sodipodi:namedview
     id="base"
     pagecolor="#ffffff"
     bordercolor="#666666"
     borderopacity="1.0"
     inkscape:pageopacity="0.0"
     inkscape:pageshadow="2"
     inkscape:zoom="1.3291323"
     inkscape:cx="488.26205"
     inkscape:cy="380.91373"
     inkscape:document-units="px"
     inkscape:current-layer="layer1"
     showgrid="false"
     inkscape:window-width="1846"
     inkscape:window-height="1178"
     inkscape:window-x="1592"
     inkscape:window-y="-8"
     inkscape:window-maximized="1" />
  <metadata
     id="metadata12293">
    <rdf:RDF>
      <cc:Work
         rdf:about="">
        <dc:format>image/svg+xml</dc:format>
        <dc:type
           rdf:resource="http://purl.org/dc/dcmitype/StillImage" />
        <dc:title>CQRS High Level</dc:title>
      </cc:Work>
    </rdf:RDF>
  </metadata>
  <g
     inkscape:label="Layer 1"
     inkscape:groupmode="layer"
     id="layer1"
     transform="translate(0,-308.2677)">
    <path
       style="fill:#000000;fill-opacity:0.78431373;stroke:none"
       id="path12302"
       d="m 731.75259,112.29614 c 4.04478,0.0298 8.08203,-0.42995 12.08463,-0.97577 4.17567,-0.81508 8.3984,-1.32331 12.59379,-2.01538 2.46918,-0.36978 4.87735,-1.00313 7.359,-1.30338 1.59574,-0.12583 3.13045,-0.5942 4.71718,-0.8024 1.54854,-0.13343 3.10586,-0.41349 4.41074,0.58107 0.96316,1.27035 1.09614,3.00401 1.34656,4.53962 0.34471,2.53899 0.2829,5.10536 0.46872,7.65517 0.35683,3.21105 0.50073,6.43605 0.58663,9.66382 0.14964,4.19862 0.77066,8.35354 1.34698,12.50832 0.47595,4.06888 0.88894,8.14706 1.26639,12.22679 0.34256,3.74962 0.41948,7.51501 0.46171,11.27767 0.0263,4.33781 0.0152,8.67577 0.0137,13.01364 0.1106,4.24534 -0.0906,8.47756 -0.33984,12.7133 -0.50011,4.41868 -0.72329,8.85979 -1.09082,13.28902 -0.37935,4.43933 -0.76944,8.87947 -1.28734,13.30513 -0.50679,4.42645 -0.93677,8.86303 -1.30116,13.30361 -0.27352,4.81299 -0.8246,9.60335 -1.45854,14.38034 -0.71414,5.04228 -0.99673,10.12916 -1.4111,15.20126 -0.44927,5.42015 -0.54945,10.85951 -0.62137,16.29506 -0.0566,6.09742 -0.0488,12.19519 -0.0555,18.2928 -0.17815,7.05434 -0.45645,14.10495 -0.82823,21.15154 -0.66345,8.3217 -1.04129,16.65883 -1.25986,25.00276 -0.17908,8.07022 -0.17571,16.14283 -0.18574,24.21456 -0.005,8.16947 -0.37102,16.33369 -0.54782,24.50085 -0.19152,8.7859 -0.43904,17.57459 -0.83095,26.35423 -0.33664,7.97138 -0.73533,15.93909 -1.11892,23.90828 -0.36033,7.09081 -0.69681,14.18452 -1.10617,21.27288 -0.27284,6.15969 -0.83005,12.29993 -1.23365,18.45112 -0.25269,3.88982 -0.33126,7.78745 -0.35935,11.6844 0.0164,2.69252 0.0756,5.37585 -0.40781,8.03333 -0.82698,2.85104 -3.46284,3.57638 -6.20848,4.69993 -0.18274,0.0748 -1.87722,-0.12941 -2.03902,-0.14661 -1.8354,-0.24085 -3.66475,-0.43738 -5.47173,-0.84015 -1.65649,-0.62423 -3.3857,-0.97471 -5.13764,-1.18496 -2.26325,-0.26039 -4.51529,-0.63473 -6.77135,-0.96347 -2.14538,-0.59324 -4.68018,-0.0203 -6.74205,-0.96237 -0.33275,-0.15202 -0.60212,-0.41568 -0.90318,-0.62352 -2.10989,-2.02653 -2.92236,-4.9525 -3.67792,-7.69122 -1.01259,-3.94757 -1.89401,-7.93379 -2.5424,-11.95803 -0.55223,-4.87102 -1.31934,-9.71216 -2.07024,-14.5552 -0.67026,-3.91924 -0.90654,-7.88925 -1.04084,-11.85705 -0.0831,-3.35908 -0.0708,-6.71966 -0.0683,-10.07951 0.006,-3.3707 0.0142,-6.74139 0.015,-10.1121 0.005,-3.9606 0.01,-7.92119 0.0124,-11.88179 -0.14213,-4.28257 0.1763,-8.54256 0.6546,-12.79348 0.67485,-4.10072 1.13581,-8.2293 1.61043,-12.35659 0.62165,-4.38795 1.24287,-8.77483 1.85625,-13.16387 0.70762,-4.88092 1.70422,-9.71217 2.46569,-14.58356 0.59572,-5.00238 1.2702,-9.99021 2.01492,-14.97217 0.9216,-5.20669 1.46946,-10.46757 2.16419,-15.70682 0.6594,-5.51657 1.24596,-11.04207 1.85502,-16.56461 0.75968,-6.25232 1.38146,-12.52275 1.85579,-18.80315 0.40258,-7.24572 0.6936,-14.4977 1.13663,-21.74133 0.40863,-7.44266 0.97501,-14.87503 1.33911,-22.32015 0.42178,-6.85741 0.77594,-13.71844 1.41489,-20.55993 0.53226,-5.92875 0.99854,-11.8641 1.44127,-17.80042 0.41202,-5.03934 0.354,-10.09863 0.58399,-15.14529 0.30293,-4.543 0.49336,-9.09086 0.59629,-13.64243 0.0786,-4.24706 0.0799,-8.49504 0.0771,-12.74267 -0.004,-3.26379 -0.0126,-6.52756 -0.0138,-9.79135 0.0432,-2.77749 -0.30134,-5.54033 -0.74944,-8.27534 -0.4259,-2.30035 -0.55713,-4.63421 -0.91628,-6.9435 -0.37733,-2.34487 -0.83864,-4.66593 -1.09549,-7.02947 -0.11065,-2.38878 -0.30323,-4.75896 -0.59405,-7.13232 -0.18149,-2.18848 -0.57708,-4.34763 -0.83843,-6.52691 -0.21849,-2.08382 -0.29291,-4.17845 -0.33182,-6.27211 -0.0217,-1.5773 -0.0169,-3.15479 -0.0148,-4.73218 0.0974,-1.62252 -0.22535,-3.2164 -0.43243,-4.81751 -0.13096,-1.30643 -0.2002,-2.60182 -0.48352,-3.88567 0,0 3.94256,-2.11904 3.94256,-2.11904 l 0,0 c 0.29249,1.29857 0.3822,2.60219 0.49272,3.92743 0.20479,1.61854 0.56194,3.22571 0.46534,4.8653 -0.003,1.5762 -0.009,3.15245 0.004,4.72862 0.0277,2.08207 0.0844,4.16593 0.29797,6.23865 0.25348,2.18016 0.67109,4.33507 0.83936,6.52477 0.28605,2.3769 0.50178,4.74728 0.59264,7.14069 0.24385,2.35844 0.70537,4.67115 1.09086,7.00757 0.35822,2.31026 0.50037,4.6417 0.90279,6.94627 0.45375,2.75728 0.81851,5.54366 0.77258,8.34441 0.002,3.26727 -4e-4,6.53454 -0.006,9.80181 -0.009,4.25319 -0.0152,8.50662 -0.089,12.7593 -0.0997,4.55615 -0.28283,9.10909 -0.59819,13.65593 -0.25295,5.05225 -0.17602,10.11897 -0.59548,15.16448 -0.45277,5.94256 -0.9346,11.88349 -1.46066,17.81977 -0.66697,6.83801 -1.01301,13.6985 -1.44844,20.55403 -0.3543,7.44771 -0.94321,14.88078 -1.33843,22.32635 -0.453,7.24102 -0.73223,14.49175 -1.1149,21.73658 -0.46311,6.28129 -1.07368,12.55242 -1.82691,18.80563 -0.60278,5.52386 -1.19042,11.04998 -1.83994,16.56827 -0.69811,5.24022 -1.23158,10.50437 -2.15842,15.71152 -0.73709,4.9825 -1.42627,9.9671 -2.00605,14.97105 -0.75311,4.86864 -1.75567,9.6946 -2.45764,14.57236 -0.61797,4.38424 -1.21902,8.76985 -1.85613,13.15153 -0.47341,4.12666 -0.90661,8.25831 -1.60734,12.35464 -0.48897,4.23554 -0.82707,8.48135 -0.68009,12.75048 0.002,3.95707 0.007,7.91413 0.009,11.87119 -0.003,3.3698 -0.001,6.73961 -0.009,10.1094 -0.007,3.35692 -0.0204,6.71433 0.0534,10.07069 0.11721,3.95682 0.34007,7.91481 0.98415,11.82653 0.74153,4.84257 1.52414,9.68007 2.07501,14.54939 0.64369,4.00679 1.54164,7.97045 2.54673,11.901 0.72442,2.62873 1.49099,5.47653 3.54974,7.39524 0.2724,0.16807 0.52055,0.38402 0.81721,0.50422 2.08382,0.84431 4.55071,0.35635 6.69607,0.9368 2.26435,0.32583 4.52677,0.67272 6.79889,0.93551 1.7583,0.24198 3.47912,0.64298 5.16079,1.21649 1.79208,0.38588 3.61383,0.56548 5.43073,0.80028 2.71132,0.19872 2.95929,-0.69049 -1.04201,2.00451 -0.24776,0.16687 0.53753,-0.27369 0.76379,-0.46872 0.6048,-0.52132 0.61253,-0.82681 0.89292,-1.55797 0.54647,-2.62889 0.4807,-5.29863 0.46759,-7.97254 0.0472,-3.91255 0.12276,-7.82651 0.39532,-11.73109 0.42954,-6.158 1.01707,-12.30419 1.28615,-18.47294 0.41792,-7.0889 0.73334,-14.18494 1.12039,-21.27556 0.39858,-7.97159 0.79375,-15.94233 1.13834,-23.91647 0.41143,-8.777 0.66793,-17.56465 0.84415,-26.34901 0.1643,-8.16087 0.51784,-16.31857 0.52814,-24.48131 0.007,-8.0782 0.0326,-16.15701 0.19969,-24.23375 0.2191,-8.34197 0.5841,-16.67801 1.2279,-24.99925 0.36787,-7.03671 0.63274,-14.07718 0.81871,-21.12119 -0.0102,-6.09538 -0.0217,-12.19095 0.0301,-18.28618 0.0652,-5.44135 0.15122,-10.88761 0.59282,-16.3141 0.40988,-5.07849 0.69803,-10.17089 1.40003,-15.22051 0.63092,-4.76936 1.18864,-9.55203 1.46162,-14.35704 0.35601,-4.44382 0.76915,-8.8848 1.28344,-13.31307 0.53248,-4.4198 0.91468,-8.85654 1.29281,-13.29165 0.38835,-4.42384 0.57521,-8.86515 1.09616,-13.27857 0.24623,-4.22885 0.45979,-8.45307 0.35324,-12.69163 0.004,-4.33385 0.0108,-8.6678 -0.0255,-13.00155 -0.0453,-3.75214 -0.1144,-7.50721 -0.44319,-11.24742 -0.37479,-4.07566 -0.7823,-8.14954 -1.24353,-12.21575 -0.58228,-4.16661 -1.21609,-8.3314 -1.38916,-12.54145 -0.0901,-3.21743 -0.23647,-6.43267 -0.59856,-9.63291 -0.2064,-2.534 -0.13264,-5.08624 -0.47293,-7.6112 -0.22501,-1.40546 -0.33932,-3.04689 -1.18739,-4.22133 -1.25437,-0.8075 -2.80771,-0.41542 -4.21229,-0.30632 -1.57323,0.24018 -3.11234,0.67891 -4.7052,0.78513 -2.46071,0.32589 -4.86,0.95638 -7.3189,1.29271 -4.19092,0.66918 -8.40304,1.19564 -12.57481,1.98576 -4.03977,0.52946 -8.10448,0.98234 -12.18419,0.9761 0,0 3.61111,-2.62363 3.61111,-2.62363 z"
       inkscape:connector-curvature="0"
       transform="translate(0,308.2677)" />
    <path
       style="fill:#000000;fill-opacity:0.78431373;stroke:none"
       id="path12304"
       d="m 157.76637,414.05035 c -2.47315,-0.28918 -4.95771,-0.4607 -7.44464,-0.5707 -2.07811,-0.0798 -4.15813,-0.0772 -6.23741,-0.0811 -2.42964,-10e-4 -4.85927,-3.7e-4 -7.2889,-8.8e-4 -2.59949,0.002 -5.19898,0.003 -7.79847,0.002 -2.25179,-0.11124 -4.46819,0.0733 -6.69591,0.36918 -2.19341,0.17812 -4.37038,0.35292 -6.5231,0.82818 -2.14165,0.46698 -4.24354,1.11767 -6.33515,1.77416 -1.78374,0.44952 -7.70649,3.84511 -1.00611,0.0186 -1.55731,0.87189 -3.11462,1.74377 -4.67193,2.61566 -0.25987,0.15389 -1.04425,0.60716 -0.7796,0.46166 1.02466,-0.56338 2.01619,-1.18826 3.05995,-1.71542 0.2737,-0.13824 -0.50347,0.35113 -0.74148,0.54446 -0.53457,0.43423 -0.78272,0.72506 -1.25811,1.222 -1.37846,1.51824 -1.59402,3.45148 -1.55697,5.414 0.3522,2.43323 1.74038,4.34295 3.59239,5.87416 2.51355,1.96374 5.49528,3.01558 8.47094,4.0383 2.4963,0.77433 5.06,1.37263 7.63602,1.81977 2.56717,0.40428 5.17235,0.42441 7.7646,0.4591 3.66096,0.11596 7.30889,-0.0366 10.94865,-0.42991 4.66883,-0.62306 9.35452,-1.08259 14.03516,-1.60256 3.44672,-0.34983 6.86194,-0.95956 10.18906,-1.92592 0.76192,-0.36813 1.59975,-0.53891 2.37541,-0.86957 0.3799,-0.16196 1.45958,-0.77176 1.10604,-0.55829 -5.45787,3.29548 -2.08655,1.11604 -0.94959,-0.004 1.43196,-1.61904 2.14225,-3.58499 2.53436,-5.67302 0.2528,-1.98545 0.48196,-4.00983 -0.0767,-5.95288 -0.57888,-1.79572 -1.36453,-3.49828 -2.88277,-4.65951 -1.57618,-1.0039 -3.37624,-1.50223 -5.14258,-2.05604 -0.29031,-0.0768 -0.58063,-0.15368 -0.87095,-0.23052 0,0 3.67937,-2.52629 3.67937,-2.52629 l 0,0 c 0.29313,0.0823 0.58625,0.16468 0.87938,0.24702 1.80576,0.5809 3.65143,1.10235 5.23536,2.18725 1.55343,1.25753 2.394,3.02107 3.01099,4.90148 0.61765,2.00214 0.42327,4.07573 0.1736,6.13678 -0.36477,2.15497 -1.03216,4.19211 -2.4331,5.91778 -2.70464,2.9038 -6.43227,4.6167 -10.15573,5.8455 -3.33445,0.91493 -6.74588,1.50016 -10.18779,1.83295 -4.68786,0.50298 -9.37289,1.00606 -14.04901,1.61051 -3.65981,0.37213 -7.32706,0.5183 -11.00588,0.40716 -2.61229,-0.037 -5.23847,-0.063 -7.82063,-0.50811 -2.58318,-0.47565 -5.15813,-1.07278 -7.65466,-1.89057 -3.0214,-1.0473 -6.03177,-2.16379 -8.57945,-4.16218 -1.91919,-1.6458 -3.362194,-3.64902 -3.785211,-6.19662 -0.06758,-2.02704 0.06485,-4.07973 1.401555,-5.72279 1.957106,-2.16608 3.722926,-2.92966 6.527246,-4.58214 0.26074,-0.15364 1.05253,-0.59766 0.79407,-0.4402 -0.9868,0.60121 -1.98639,1.18115 -2.97959,1.77172 2.84485,-1.63422 5.56912,-3.34649 8.7002,-4.34925 2.09393,-0.6551 4.2058,-1.27908 6.35263,-1.73323 2.16725,-0.43162 4.35622,-0.59213 6.55235,-0.80679 2.2334,-0.28282 4.46276,-0.39807 6.7155,-0.31235 2.59875,-10e-4 5.1975,-5e-5 7.79625,-9.3e-4 2.4341,-0.003 4.86819,-0.008 7.30228,-0.008 2.08308,0.003 4.16732,0.005 6.2487,0.0982 2.49595,0.12831 4.98745,0.32409 7.47321,0.58476 0,0 -3.64383,2.58628 -3.64383,2.58628 z"
       inkscape:connector-curvature="0" />
    <path
       style="fill:#000000;fill-opacity:0.78431373;stroke:none"
       id="path12306"
       d="m 102.19941,430.69971 c 0.0733,3.99085 -0.27507,7.96291 -0.69272,11.92668 -0.4484,3.83142 -0.65983,7.6828 -0.77292,11.53682 -0.0678,2.89081 -0.0646,5.78268 -0.0609,8.6741 0.0349,2.3725 -0.3287,4.72774 -0.52484,7.08826 -0.0266,2.38971 -0.392438,4.73053 -0.863078,7.06593 -0.119757,1.27896 -1.065708,3.88571 -0.0581,4.99949 0.154881,0.1712 0.378916,0.26385 0.568375,0.39577 2.641053,0.92275 5.455733,0.96849 8.199143,1.34494 2.02505,0.30953 4.04935,0.55983 6.05683,0.96276 1.68587,0.72193 3.50003,0.89964 5.27273,1.27689 2.66564,0.67697 5.36435,1.07245 8.10288,1.30087 4.40377,0.43215 8.75414,-0.34725 13.01045,-1.40295 2.95638,-0.86506 5.85244,-1.92737 8.67461,-3.16033 2.83457,-1.69464 -3.1548,1.77003 -2.36696,1.32599 1.49571,-0.843 2.98304,-1.70078 4.47424,-2.55172 2.90375,-1.65699 -4.77741,3.56588 -1.84418,0.69648 1.22009,-1.23877 2.32903,-2.57904 3.43447,-3.9193 1.00393,-1.20819 1.58154,-2.6665 2.21962,-4.07983 0.70281,-1.35128 1.71402,-2.48724 2.69614,-3.63534 0.16196,-0.17627 0.32393,-0.35255 0.48589,-0.52882 0,0 4.12979,-1.72121 4.12979,-1.72121 l 0,0 c -0.1666,0.16698 -0.33319,0.33396 -0.49979,0.50093 -0.93875,1.15956 -2.00252,2.21707 -2.73981,3.53172 -0.69979,1.40646 -1.18108,2.93713 -2.18032,4.18406 -1.11529,1.34261 -2.20444,2.70678 -3.42931,3.95201 -1.80399,2.01108 -0.44332,0.63298 -5.11481,3.4659 -0.20962,0.12712 -0.85399,0.48184 -0.64309,0.35685 1.0567,-0.62623 4.24611,-2.47196 3.18068,-1.8607 -5.73936,3.29279 -2.80521,1.71147 -5.2986,3.04492 -2.83053,1.17753 -5.70256,2.25772 -8.66481,3.0605 -4.29922,1.02268 -8.68477,1.75361 -13.11923,1.30628 -2.75842,-0.241 -5.47543,-0.6636 -8.16722,-1.31872 -1.78071,-0.34867 -3.56921,-0.62119 -5.27494,-1.27277 -1.99344,-0.39491 -4.00977,-0.62907 -6.01523,-0.95783 -2.80297,-0.37123 -5.719551,-0.39888 -8.360348,-1.51686 -0.222173,-0.18521 -0.482945,-0.33211 -0.66652,-0.55563 -1.168832,-1.4232 -0.20076,-3.70632 -0.06152,-5.28564 0.464261,-2.31983 0.884037,-4.63863 0.88025,-7.0162 0.18572,-2.35311 0.564605,-4.69713 0.549881,-7.06046 0.0016,-2.89889 0.0044,-5.79807 0.07513,-8.6963 0.116906,-3.86837 0.329652,-7.7349 0.784421,-11.58015 0.423343,-3.93578 0.797545,-7.88438 0.642129,-11.84867 0,0 3.981597,-2.02872 3.981597,-2.02872 z"
       inkscape:connector-curvature="0" />
    <path
       style="fill:#000000;fill-opacity:0.78431373;stroke:none"
       id="path12308"
       d="m 172.6884,430.68129 c -1.31518,3.34666 -2.4182,6.78064 -3.40129,10.23853 -1.15961,4.09411 -2.00149,8.26824 -3.06848,12.3868 -0.73148,2.50934 -1.25135,5.05729 -1.47693,7.65982 -0.0162,2.06541 -0.33314,4.10334 -0.56202,6.151 -0.0561,0.31213 -0.11223,0.62426 -0.16835,0.93638 0,0 -4.01332,1.9488 -4.01332,1.9488 l 0,0 c 0.0631,-0.30166 0.12628,-0.60331 0.18943,-0.90497 0.21454,-2.04683 0.57148,-4.07837 0.57134,-6.14277 0.20496,-2.63623 0.71903,-5.21518 1.48321,-7.74906 1.09572,-4.11732 1.9305,-8.29749 3.07913,-12.40009 0.9575,-3.45571 2.0581,-6.87986 3.31339,-10.23887 0,0 4.05389,-1.88557 4.05389,-1.88557 z"
       inkscape:connector-curvature="0" />
    <path
       style="fill:#000000;fill-opacity:0.78431373;stroke:none"
       id="path12310"
       d="m 128.42392,702.20827 c -2.72028,-0.32693 -5.45641,-0.47801 -8.19317,-0.57406 -3.12815,-0.075 -6.24891,0.29324 -9.37059,0.46991 -2.60522,0.18007 -5.14574,0.67287 -7.56841,1.64485 -1.60079,0.44846 -9.218924,4.8713 -2.1846,0.82978 -1.891827,1.07868 -3.658993,2.37936 -5.263282,3.84977 -1.533284,1.30422 -2.808747,2.81183 -3.774273,4.57344 -0.903951,1.69817 -1.421396,3.43263 -1.67416,5.33172 -0.0159,2.39662 0.651956,4.6239 2.011466,6.5845 1.199591,1.63707 3.109714,2.17892 4.970255,2.7128 2.181641,0.55783 4.379454,0.96638 6.618634,1.20585 2.04115,0.18998 4.09308,0.20081 6.1413,0.2106 1.96808,0.006 3.90999,-0.39256 5.86772,-0.5687 2.03394,-0.16046 4.07554,-0.17753 6.11463,-0.1933 1.86411,-0.0452 3.73303,0.0832 5.58924,-0.10912 2.38996,-0.29864 4.78673,-0.46225 7.17292,-0.79251 2.17227,-0.39695 4.38965,-0.3761 6.57085,-0.67095 2.12219,-0.21194 7.83745,-3.77406 1.1537,0.0132 1.35284,-0.84821 2.36798,-2.06374 3.05732,-3.49013 0.60225,-1.57598 0.73205,-3.27614 0.631,-4.94676 -0.1602,-1.89484 -0.91426,-3.66137 -1.82665,-5.30722 -0.90018,-1.35679 -2.03242,-2.50309 -3.33265,-3.47446 -1.5225,-0.95301 -3.13033,-1.76557 -4.77456,-2.48935 -1.22871,-0.68222 -2.45876,-1.3777 -3.62373,-2.16304 -0.9974,-0.64304 -1.87872,-1.41724 -2.96387,-1.92072 -0.20683,-0.0689 -0.41365,-0.13778 -0.62047,-0.20667 0,0 3.70959,-2.50523 3.70959,-2.50523 l 0,0 c 0.21624,0.0824 0.43247,0.16473 0.64871,0.24709 1.0758,0.54831 1.98788,1.31589 2.99829,1.96705 1.16367,0.74634 2.33805,1.48074 3.56914,2.11228 1.66331,0.75455 3.30554,1.5723 4.83569,2.57242 1.33003,1.03153 2.50445,2.2151 3.4195,3.6376 0.94291,1.69816 1.73089,3.52518 1.92232,5.4768 0.13708,1.72858 0.0219,3.48436 -0.52714,5.14031 -0.62292,1.49768 -1.60615,2.8084 -2.95952,3.72968 -2.90714,1.71488 -5.52812,3.70627 -8.88876,4.26982 -2.18268,0.24228 -4.38627,0.29335 -6.55584,0.66676 -2.39437,0.31909 -4.80117,0.49051 -7.19854,0.78543 -1.86677,0.13627 -3.73889,0.0484 -5.60959,0.0802 -2.03257,0.0192 -4.0679,0.0449 -6.09381,0.22612 -1.96161,0.1997 -3.91566,0.57423 -5.89315,0.5311 -2.05633,-0.0155 -4.11692,-0.0351 -6.16398,-0.25236 -2.253816,-0.26595 -4.472084,-0.68998 -6.667972,-1.26628 -1.950405,-0.58998 -3.89434,-1.23378 -5.131789,-2.97073 -1.399513,-2.06241 -2.108957,-4.36846 -2.158266,-6.87139 0.222434,-1.95346 0.670457,-3.72658 1.595115,-5.47295 0.922983,-1.81894 2.15357,-3.39813 3.726658,-4.71184 1.560767,-1.52445 3.340593,-2.83266 5.216751,-3.94334 3.218393,-1.85307 6.379173,-3.81484 9.847693,-5.17406 2.45474,-0.90974 5.02005,-1.35491 7.63232,-1.52034 3.13117,-0.18437 6.263,-0.54504 9.40227,-0.44125 2.75222,0.10552 5.5009,0.28198 8.23952,0.58139 0,0 -3.64383,2.58627 -3.64383,2.58627 z"
       inkscape:connector-curvature="0" />
    <path
       style="fill:#000000;fill-opacity:0.78431373;stroke:none"
       id="path12312"
       d="m 90.07911,724.2353 c -0.371944,3.491 -0.511251,7.00063 -0.60928,10.50819 -0.08551,3.77887 -0.08759,7.55901 -0.09489,11.33865 -0.0019,3.30845 0.0081,6.61689 0.02038,9.92532 0.003,2.06125 0.0092,4.12249 0.01257,6.18373 -3.43e-4,1.73055 -8.12e-4,3.46109 4.15e-4,5.19164 -0.164496,1.78321 -0.451022,3.55047 -0.607246,5.33509 -0.04815,1.39838 -0.46311,2.74266 -0.67474,4.11963 -0.238137,1.50404 -0.246726,2.97 0.259553,4.41197 1.144652,2.63033 3.184127,4.72157 5.161836,6.74622 1.9793,1.77313 3.993812,3.5011 6.301785,4.82732 2.055127,0.96117 4.084857,1.98072 6.257937,2.64912 1.74617,0.46723 3.56505,0.50646 5.36121,0.53952 1.92575,0.0168 3.85162,0.003 5.77739,-0.005 1.8554,-0.0473 3.71839,0.0937 5.56461,-0.11552 1.93246,-0.21887 3.75515,-0.95016 5.57632,-1.59515 1.37283,-0.50945 5.09493,-2.64629 -0.80433,0.65208 -0.31048,0.1736 0.61556,-0.35676 0.92052,-0.53989 2.5257,-1.51668 -0.7057,0.39135 1.71558,-1.03276 1.36527,-0.93169 2.73631,-1.8851 3.96085,-2.99937 1.18098,-1.02829 2.32874,-2.07665 3.44718,-3.17303 0.64926,-0.69919 1.30285,-1.38266 1.85394,-2.16254 0,0 4.10004,-1.79739 4.10004,-1.79739 l 0,0 c -0.51318,0.84049 -1.17513,1.5171 -1.82284,2.25407 -1.12544,1.09871 -2.22288,2.18727 -3.44662,3.17815 -1.1804,1.18625 -2.59901,2.09529 -3.92919,3.10186 -3.14719,1.78486 -6.11211,3.95768 -9.50727,5.25648 -1.84172,0.64203 -3.68599,1.35318 -5.6477,1.5133 -1.85905,0.14363 -3.72592,0.0493 -5.58934,0.0833 -1.92944,0.006 -3.85903,0.022 -5.78839,-0.002 -1.82333,-0.0504 -3.66891,-0.12106 -5.42875,-0.64803 -2.17799,-0.72044 -4.238549,-1.73796 -6.299245,-2.73786 -2.323832,-1.36507 -4.358224,-3.1287 -6.345549,-4.94212 -2.018277,-2.07495 -4.094751,-4.21189 -5.295153,-6.88594 -0.564668,-1.49673 -0.60714,-3.02311 -0.371864,-4.60253 0.189164,-1.3782 0.614795,-2.71118 0.694684,-4.09993 0.147448,-1.77512 0.41338,-3.53359 0.624833,-5.30139 0.0013,-1.73066 8.49e-4,-3.46131 3.17e-4,-5.19197 0.003,-2.06489 0.0084,-4.12978 0.0093,-6.19467 0.0087,-3.31446 0.01332,-6.62894 0.01367,-9.94341 -1.73e-4,-3.78229 0.0018,-7.56489 0.0844,-11.34649 0.09562,-3.50817 0.241627,-7.01511 0.546176,-10.51231 0,0 3.996852,-1.98657 3.996852,-1.98657 z"
       inkscape:connector-curvature="0" />
    <path
       style="fill:#000000;fill-opacity:0.78431373;stroke:none"
       id="path12314"
       d="m 147.33938,730.98671 c -0.0822,3.84069 -0.40688,7.6722 -0.57322,11.51084 -0.12862,4.08226 -0.53178,8.14838 -0.74452,12.22686 -0.2303,3.33875 -0.0524,6.69434 -0.27953,10.03095 -0.2053,1.75293 -0.45396,3.49794 -0.57101,5.25972 -0.12152,1.67512 -0.006,3.35925 -0.17004,5.02997 -0.11092,1.66708 -0.66758,3.24006 -1.01928,4.85929 -0.22624,1.16203 -0.29161,2.34425 -0.35092,3.52369 0,0 -3.98413,2.00655 -3.98413,2.00655 l 0,0 c 0.0522,-1.19803 0.10386,-2.39876 0.31391,-3.5822 0.30928,-1.62015 0.92954,-3.16396 1.03541,-4.82417 0.22033,-1.65802 0.0567,-3.34155 0.18286,-5.00921 0.0961,-1.77043 0.34259,-3.52207 0.58758,-5.27721 0.29949,-3.33319 0.0834,-6.6987 0.32105,-10.03823 0.20665,-4.08007 0.62119,-8.14595 0.75754,-12.2289 0.15677,-3.8214 0.48756,-7.63809 0.51722,-11.46153 0,0 3.97708,-2.02642 3.97708,-2.02642 z"
       inkscape:connector-curvature="0" />
    <path
       style="fill:#000000;fill-opacity:0.78431373;stroke:none"
       id="path12316"
       d="m 260.12856,368.71421 c 0.44784,8.32302 0.90982,16.6455 1.44476,24.96347 0.7568,10.45393 1.10428,20.92794 1.27237,31.4057 0.26608,10.86491 -0.39854,21.71939 -1.08134,32.5567 -0.45435,6.42363 -1.0608,12.82925 -1.86852,19.21716 -0.44795,2.22547 -0.70556,4.49272 -1.16363,6.71541 -1.38748,0.53422 -2.77496,1.06844 -4.16244,1.60265 0,0 3.92078,-2.1816 3.92078,-2.1816 l 0,0 c -1.27168,0.83707 -2.54336,1.67414 -3.81505,2.51121 0.26034,-0.74985 0.31384,-1.55199 0.44932,-2.33042 0.25415,-1.46019 0.59627,-2.90437 0.82199,-4.36988 0.87806,-6.40245 1.55704,-12.82352 2.03802,-19.26947 0.72111,-10.82618 1.38585,-21.67295 1.10295,-32.52919 -0.17799,-10.47326 -0.49458,-20.9452 -1.24757,-31.39531 -0.55149,-8.28081 -1.01829,-16.56744 -1.66256,-24.84178 0,0 3.95092,-2.05465 3.95092,-2.05465 z"
       inkscape:connector-curvature="0"
       transform="translate(0,308.2677)" />
    <path
       style="fill:#000000;fill-opacity:0.78431373;stroke:none"
       id="path12318"
       d="m 263.6754,364.22896 c 4.71797,-0.54133 9.43576,-0.91814 14.18575,-0.97501 9.35489,0.30621 18.67126,1.30897 27.99773,2.05586 14.31765,1.28188 28.69019,1.67397 43.05575,1.94602 10.72325,0.0262 21.4506,-0.0697 32.15794,-0.68118 6.30821,-0.35142 12.61938,-0.60925 18.92038,-1.0806 7.54527,-0.47338 15.09136,-0.95696 22.64129,-1.3546 9.09991,-0.36567 18.20693,-0.42434 27.31021,-0.68782 8.15378,-0.33044 16.30967,-0.93652 24.38133,-2.15979 3.83407,-0.71056 7.71372,-1.08513 11.57688,-1.58878 2.49367,-0.34217 4.95239,-1.13352 7.48276,-1.12698 2.06318,0.29367 2.68607,2.08964 3.2688,3.85097 1.43627,5.42999 2.37016,10.98025 3.18413,16.53244 1.20967,9.67066 2.19632,19.37238 3.1634,29.0708 1.14789,11.11713 2.21967,22.24094 3.29688,33.36512 1.06395,12.35549 2.33871,24.68271 3.73842,37.00417 1.11704,10.27897 2.28301,20.55128 3.49469,30.81948 0.97638,7.55189 1.68375,15.13624 2.61409,22.69292 0.38069,3.47864 0.91281,6.9316 1.46035,10.38584 0.0647,0.76562 0.25733,1.50966 0.30655,2.27556 0,0 -4.00982,2.03341 -4.00982,2.03341 l 0,0 c 0.0888,-0.75244 -0.21149,-1.477 -0.22414,-2.23073 -0.53243,-3.47319 -1.03758,-6.94488 -1.38402,-10.44389 -0.8753,-7.57532 -1.56502,-15.17268 -2.53022,-22.73837 -1.17741,-10.28215 -2.34875,-20.56392 -3.42618,-30.85719 -1.37014,-12.32466 -2.66797,-24.65099 -3.75078,-37.00477 -1.08668,-11.11861 -2.16617,-22.23699 -3.32701,-33.34815 -0.96925,-9.68285 -1.96974,-19.36894 -3.21706,-29.01942 -0.8335,-5.51054 -1.80269,-11.01523 -3.28034,-16.39473 -0.53515,-1.60346 -1.05949,-3.24554 -2.98559,-3.36206 -2.50501,0.1011 -4.93981,0.80915 -7.41789,1.14019 -3.84305,0.49584 -7.70097,0.87337 -11.51858,1.55431 -8.05576,1.14228 -16.18234,1.72674 -24.30995,2.04484 -9.12124,0.26984 -18.24704,0.34232 -27.36401,0.74012 -7.55203,0.41258 -15.1031,0.86039 -22.64885,1.37138 -6.30119,0.46961 -12.61103,0.75157 -18.92112,1.07008 -10.65483,0.54085 -21.3268,0.5617 -31.99342,0.52314 -14.39701,-0.28513 -28.80063,-0.6663 -43.15334,-1.90614 -9.35473,-0.72865 -18.70334,-1.70693 -28.08751,-1.94107 -4.77977,0.099 -9.52954,0.49755 -14.2732,1.0909 0,0 3.5857,-2.66627 3.5857,-2.66627 z"
       inkscape:connector-curvature="0"
       transform="translate(0,308.2677)" />
    <path
       style="fill:#000000;fill-opacity:0.78431373;stroke:none"
       id="path12320"
       d="m 258.38212,482.28351 c -0.76417,5.26724 -1.30835,10.56704 -1.88435,15.85825 -0.76616,5.86616 -1.19372,11.76642 -1.77197,17.652 -0.19111,1.80489 -0.28562,3.61545 -0.56208,5.4104 -0.0683,0.44321 -0.34468,1.59473 -0.22158,2.10998 0.0599,0.25076 0.26772,0.44069 0.40158,0.66104 0.36768,0.18984 0.71452,0.42709 1.10303,0.56951 2.5065,0.91879 5.47246,1.03727 8.08694,1.26793 3.88251,0.34252 5.69163,0.39071 9.70704,0.59129 13.91826,0.51423 27.84907,0.5259 41.77492,0.56561 7.83592,0.11169 15.68441,0.17756 23.50907,0.66578 7.83492,0.48885 15.64586,1.41814 23.45424,2.20549 13.09614,1.36175 26.20897,2.56286 39.35575,3.30222 7.53702,0.31818 15.07547,0.48266 22.6091,0.88088 3.43894,0.20747 6.882,0.30881 10.32642,0.3526 5.35293,-0.0595 10.69727,0.1767 16.04421,0.39001 6.08395,0.25295 12.17274,0.32785 18.26108,0.37686 7.63624,0.046 15.27271,0.0475 22.90907,0.0364 4.42042,0.12991 8.82169,-0.31464 13.22573,-0.59878 2.89437,-0.1503 5.79319,-0.17703 8.6908,-0.19803 0.39972,-0.002 0.79944,-0.004 1.19916,-0.006 0,0 -3.59665,2.61518 -3.59665,2.61518 l 0,0 c -0.39773,0.001 -0.79546,0.002 -1.19319,0.003 -2.89096,0.0172 -5.78342,0.0462 -8.67027,0.21501 -4.37392,0.2855 -8.75055,0.62409 -13.13847,0.49993 -7.64487,-0.009 -15.28976,0.003 -22.9346,-0.0218 -6.09158,-0.0403 -12.18342,-0.12426 -18.27012,-0.38754 -5.36735,-0.21021 -10.73249,-0.40988 -16.10529,-0.3309 -3.43624,-0.0373 -6.86953,-0.167 -10.29871,-0.39657 -7.48759,-0.44467 -14.98295,-0.61762 -22.47456,-0.97848 -13.11629,-0.78459 -26.19707,-2.02814 -39.2652,-3.38884 -7.80123,-0.79502 -15.60455,-1.71276 -23.43402,-2.19109 -7.82353,-0.47796 -15.67005,-0.55003 -23.50458,-0.64846 -13.96611,-0.032 -27.93654,-0.025 -41.8963,-0.50109 -4.15948,-0.19092 -5.78469,-0.22284 -9.79432,-0.55734 -2.64526,-0.22068 -5.7887,-0.28729 -8.297,-1.34219 -0.4475,-0.18821 -0.83079,-0.5025 -1.24619,-0.75375 -0.17105,-0.29211 -0.42368,-0.54986 -0.51315,-0.87633 -0.16869,-0.6155 0.11816,-1.60924 0.21743,-2.17817 0.3132,-1.79499 0.42656,-3.60728 0.62369,-5.41739 0.60746,-5.8904 1.0501,-11.79668 1.80443,-17.67169 0.56713,-5.27975 1.13025,-10.56103 1.7614,-15.83315 0,0 4.00751,-1.95196 4.00751,-1.95196 z"
       inkscape:connector-curvature="0"
       transform="translate(0,308.2677)" />
    <path
       style="fill:#000000;fill-opacity:0.78431373;stroke:none"
       id="path12322"
       d="m 262.22864,67.620029 c -0.88081,7.283001 -1.56473,14.589336 -2.09692,21.905956 -0.73776,11.067305 -1.9085,22.098535 -2.96104,33.138695 -1.1395,10.88438 -2.3457,21.7619 -3.54848,32.63967 -0.95304,8.85807 -1.58451,17.74998 -2.96433,26.5557 -0.71535,4.78154 -1.57484,9.5375 -2.43258,14.29465 -0.52369,2.93669 -0.80264,5.90539 -0.92884,8.88319 -0.0858,3.10852 -0.0768,6.21894 -0.0755,9.32838 0.10183,2.03362 -0.40622,4.8796 1.36141,6.4009 0.28528,0.24553 0.62787,0.41528 0.94181,0.62291 3.3065,1.29552 6.94754,1.47855 10.45388,1.68799 4.48723,0.26803 7.95996,0.31623 12.53612,0.43793 19.43947,0.49441 38.87881,-0.28695 58.31691,-0.42516 5.13484,-0.0365 10.26994,-6e-5 15.40491,-9e-5 32.6114,0.36969 65.1087,3.44357 97.5884,6.1344 20.91342,1.67807 41.85544,3.00944 62.81998,3.83708 4.88972,0.17314 9.78105,0.30167 14.67331,0.37376 2.20531,0.0325 4.04037,0.13585 6.16963,-0.39591 -1.04196,0.51363 -1.99352,1.28154 -3.12587,1.54089 -0.29951,0.0686 0.2414,-0.57772 0.25972,-0.88444 0.0275,-0.46065 -0.0432,-0.92456 -0.12449,-1.37882 -0.46058,-2.57406 -1.44006,-5.11271 -2.1853,-7.60944 -2.7292,-9.14181 -5.30471,-18.33214 -7.6707,-27.57459 -3.0623,-10.99354 -5.54675,-22.1132 -7.52402,-33.3488 -1.71107,-10.9249 -2.85108,-21.92242 -3.54494,-32.95542 -0.54023,-10.28535 -0.60114,-20.58766 -0.64507,-30.88463 -0.19456,-7.421138 0.2284,-14.814431 1.05788,-22.183142 0.61074,-4.645165 1.35179,-9.27067 2.33331,-13.851916 0.0597,-0.992873 0.82584,-2.377791 0.35881,-3.397661 -0.41355,-0.903085 -2.54946,-0.617086 -3.11407,-0.623199 -8.34383,0.442942 -16.69174,0.854399 -25.03943,1.255025 -10.70245,0.542945 -21.41515,0.806468 -32.12925,0.964147 -9.89992,0.116433 -19.80068,0.08729 -29.70105,0.07928 -11.58805,-0.1923 -23.16553,0.161606 -34.72929,0.889482 -9.08806,0.680327 -18.19211,1.056899 -27.30181,1.266718 -6.61512,0.295483 -13.21356,0.03829 -19.78305,-0.754531 -4.57748,-0.703941 -9.18957,-1.056394 -13.81339,-1.241886 -3.83848,-0.200119 -7.64876,-0.667701 -11.46518,-1.098341 -2.91466,-0.523098 -5.84535,-0.919171 -8.79972,-1.117589 -2.35729,-0.133787 -4.71893,-0.144719 -7.07926,-0.147045 -1.93555,-0.2033 -3.85242,-0.514277 -5.76691,-0.856037 -2.14965,-0.401523 -4.33247,-0.52651 -6.51348,-0.600468 -2.48008,-0.05997 -4.94741,0.318015 -7.41715,0.511778 -1.85074,0.142668 -3.70659,0.186452 -5.56204,0.206038 -1.70052,0.01013 -3.4011,0.0048 -5.10164,0.001 -1.7903,-0.0024 -3.5806,-0.0012 -5.3709,-6.23e-4 -1.49648,0.26042 -4.63059,1.780967 2.18764,-1.502788 0.15442,-0.07437 -0.24695,0.243239 -0.33415,0.39079 -0.27019,0.457203 -0.29484,0.86155 -0.39664,1.381005 -0.2398,1.78919 0.1509,3.584047 0.35757,5.359893 0.21009,1.065148 0.0976,0.534738 0.33746,1.591251 0,0 -3.93472,2.117372 -3.93472,2.117372 l 0,0 c -0.2474,-1.078304 -0.12751,-0.533061 -0.35912,-1.635849 -0.20249,-1.814479 -0.5986,-3.64158 -0.41391,-5.47029 0.0715,-0.521658 0.10863,-1.052162 0.30032,-1.549914 0.82747,-2.148661 3.69568,-3.084455 5.87046,-3.307721 1.78833,0.0015 3.57665,0.0042 5.36499,0.0053 1.70169,-6.96e-4 3.40343,0.0038 5.10509,-0.01043 1.84414,-0.02318 3.68855,-0.07256 5.52772,-0.218403 2.47957,-0.200251 4.9591,-0.564069 7.45118,-0.472442 2.19403,0.08812 4.38749,0.237074 6.54822,0.651369 1.8981,0.334057 3.80514,0.635255 5.72722,0.790046 2.36047,0.0122 4.72236,0.03287 7.07888,0.184087 2.95263,0.216518 5.87726,0.647218 8.79505,1.144716 3.80164,0.441053 7.60104,0.889118 11.42574,1.087457 4.62278,0.200731 9.23215,0.57465 13.8075,1.287803 6.53957,0.778941 13.10514,1.030645 19.68926,0.746495 9.08652,-0.198321 18.16674,-0.578266 27.23266,-1.23663 11.56634,-0.696441 23.14486,-1.021691 34.73329,-0.860357 9.91129,-0.0081 19.82286,-0.0125 29.73374,-0.110321 10.70109,-0.139973 21.40126,-0.392176 32.08968,-0.953532 8.41148,-0.419765 16.8207,-0.884197 25.22768,-1.350043 0.98532,0.04728 2.01307,-0.07942 2.89988,0.472442 1.40765,0.875988 0.44241,3.020931 0.25245,4.213414 -1.0246,4.575062 -1.78193,9.199124 -2.41885,13.84395 -0.8509,7.367136 -1.35418,14.757852 -1.16816,22.182351 0.0277,10.294712 0.0653,20.594782 0.60313,30.878252 0.68053,11.021 1.81208,22.00534 3.51366,32.91882 1.96879,11.22598 4.42413,22.34156 7.51418,33.31714 2.37639,9.22396 4.96898,18.39413 7.77373,27.49732 0.31757,1.02722 0.6282,2.05662 0.95271,3.08167 0.6059,1.91388 1.51375,3.99132 1.56577,6.04123 0.01,0.38299 0.15144,0.89267 -0.14052,1.14073 -1.35798,1.15379 -3.023,1.88755 -4.53449,2.83133 -2.06114,0.38096 -4.02876,0.29019 -6.12711,0.23568 -4.83867,-0.1257 -9.67601,-0.29893 -14.51209,-0.50038 -20.85316,-0.95877 -41.68486,-2.35202 -62.48714,-4.09549 -32.45712,-2.7794 -64.94213,-5.86417 -97.54231,-6.12901 -5.15177,0.0145 -10.30375,-0.007 -15.45529,0.0434 -19.55102,0.19099 -39.09968,1.01607 -58.65413,0.65087 -4.44213,-0.0903 -8.28783,-0.12507 -12.68092,-0.36107 -3.59475,-0.19312 -7.36968,-0.3362 -10.72112,-1.78449 -0.33731,-0.24015 -0.70715,-0.44016 -1.01192,-0.72044 -1.81561,-1.66972 -1.40651,-4.49897 -1.46441,-6.69723 -0.006,-3.10803 -0.0532,-6.21714 0.0242,-9.32451 0.1333,-3.00321 0.41626,-5.99597 0.94529,-8.95798 0.85912,-4.77044 1.77196,-9.53087 2.50926,-14.32288 1.44963,-8.8095 2.1274,-17.71122 3.07022,-26.5846 1.20759,-10.87841 2.41584,-21.75681 3.56602,-32.64124 1.05344,-11.03193 2.2195,-22.05592 2.9395,-33.116346 0.49862,-7.281281 1.15808,-14.548928 1.87839,-21.811103 0,0 3.99685,-1.986572 3.99685,-1.986572 z"
       inkscape:connector-curvature="0"
       transform="translate(0,308.2677)" />
    <path
       style="fill:#000000;fill-opacity:0.78431373;stroke:none"
       id="path12324"
       d="m 869.08404,649.5845 c -2.32207,2.78564 -5.14178,5.06858 -7.94131,7.3479 -3.01654,2.44542 -6.14454,4.74927 -9.14923,7.20947 -3.08055,2.45178 -5.85765,5.23734 -8.72254,7.92808 -3.1296,2.90488 -6.54048,5.49026 -9.94811,8.05763 -3.97168,2.89541 -7.85979,5.90428 -11.7008,8.97053 -3.80247,3.01187 -7.59599,6.03298 -11.38011,9.06785 -3.34839,2.5893 -6.72043,5.14763 -10.15793,7.61827 -3.08492,2.24587 -6.21535,4.42177 -9.27842,6.69783 -2.82732,2.24609 -5.66051,4.50192 -8.36524,6.8959 -1.3651,1.27806 -2.83868,2.42841 -4.22102,3.68706 -0.83941,0.79385 -0.43759,0.38602 -1.20688,1.22208 0,0 -4.11565,1.73445 -4.11565,1.73445 l 0,0 c 0.74741,-0.87925 0.35152,-0.45772 1.18854,-1.26377 1.37754,-1.28622 2.86483,-2.42811 4.24843,-3.70543 2.68758,-2.43093 5.57325,-4.64714 8.375,-6.94342 3.06782,-2.2743 6.1851,-4.47138 9.28089,-6.70696 3.45011,-2.46003 6.81996,-5.02569 10.18263,-7.60263 3.79211,-3.03135 7.58148,-6.06252 11.39075,-9.07259 3.83646,-3.06828 7.71364,-6.08692 11.68543,-8.97851 3.40686,-2.55121 6.80709,-5.13235 9.94834,-8.00693 2.88132,-2.67741 5.62716,-5.50128 8.71238,-7.95333 2.98913,-2.48259 6.13071,-4.77179 9.15188,-7.21376 2.77534,-2.25469 5.57616,-4.4934 7.92144,-7.2109 0,0 4.10153,-1.77882 4.10153,-1.77882 z"
       inkscape:connector-curvature="0" />
    <path
       style="fill:#000000;fill-opacity:0.78431373;stroke:none"
       id="path12326"
       d="m 779.18958,395.54252 c 0.0489,2.99611 -0.51718,5.95869 -1.29543,8.8388 -0.77555,3.0602 -1.69552,6.08198 -2.44635,9.14824 -0.72133,2.87591 -0.38782,3.10473 1.90146,4.68978 2.01878,1.30789 4.16754,2.39635 6.30341,3.49877 1.69657,0.79786 3.53648,1.25237 5.36483,1.6387 1.15074,0.19184 0.57897,0.10873 1.71512,0.25067 0,0 -3.64766,2.57685 -3.64766,2.57685 l 0,0 c -1.14829,-0.16333 -0.5705,-0.0695 -1.73315,-0.28283 -1.85257,-0.41759 -3.71815,-0.88128 -5.42138,-1.74324 -2.14251,-1.12741 -4.31219,-2.21301 -6.33724,-3.54517 -2.36767,-1.66449 -2.9095,-2.18761 -2.14497,-5.16484 0.74798,-3.07313 1.68875,-6.09448 2.44991,-9.16467 0.79844,-2.82963 1.39359,-5.75821 1.30986,-8.71234 0,0 3.98159,-2.02872 3.98159,-2.02872 z"
       inkscape:connector-curvature="0"
       transform="translate(0,308.2677)" />
    <path
       style="fill:#000000;fill-opacity:0.78431373;stroke:none"
       id="path12328"
       d="m 284.80311,385.03149 c -0.23597,2.75221 -0.58216,5.48753 -0.93218,8.22692 -0.25883,2.76123 -0.52251,5.51926 -0.81934,8.27718 -0.24465,2.36153 -0.35466,4.73357 -0.40915,7.10617 0.0161,1.67259 -0.12148,3.35528 0.0556,5.02104 0.11102,0.34263 0.1943,0.80352 0.50909,1.04967 0.67839,0.53047 2.24606,0.27485 3.00148,0.26564 3.74281,-0.19049 7.47807,-0.53238 11.22369,-0.72401 3.30905,-0.14347 6.62048,-0.22036 9.93232,-0.2547 2.20234,-0.0787 4.38335,0.01 6.57299,0.23176 2.17749,0.24027 4.36211,0.39674 6.55102,0.4763 1.83794,0.0517 3.67686,0.049 5.51535,0.0486 1.63326,0.0738 6.41669,-1.34028 -0.60548,1.3191 -0.25304,0.0958 0.35948,-0.40932 0.4941,-0.64403 0.15208,-0.26515 0.23946,-0.56248 0.3592,-0.84373 0.58842,-2.66595 0.60371,-5.41592 1.01401,-8.11605 0.37319,-2.38763 1.03328,-4.72433 1.88109,-6.98476 0.57826,-1.66754 1.26408,-3.30347 1.73564,-5.00628 0.25877,-1.12708 1.17811,-2.51346 0.45554,-3.61039 -1.16422,-0.71472 -2.67912,-0.58029 -3.99619,-0.60813 -2.34779,0.0517 -4.69233,-0.17461 -7.00543,-0.56534 -2.59446,-0.50594 -5.16575,-1.1226 -7.76187,-1.62337 -2.60517,-0.70528 -5.25194,-1.15769 -7.93773,-1.39272 -2.33883,-0.13835 -4.65143,-0.52904 -6.98591,-0.73256 -2.02364,-0.37339 -4.05523,-0.6551 -6.10705,-0.80865 -1.26948,-0.0848 -2.54198,-0.10112 -3.81373,-0.11707 0,0 3.61299,-2.61682 3.61299,-2.61682 l 0,0 c 1.27701,0.0218 2.55506,0.0427 3.829,0.14166 2.05026,0.17345 4.07647,0.48828 6.107,0.81497 2.32885,0.22221 4.63969,0.60544 6.97611,0.74018 2.69068,0.26203 5.33588,0.75568 7.95332,1.4358 2.59421,0.50721 5.16662,1.11776 7.76445,1.60404 2.31154,0.35281 4.64243,0.56384 6.98304,0.50781 1.45139,0.0419 3.107,-0.0721 4.25872,0.96017 0.79452,1.28428 0.1455,2.62739 -0.29726,3.94481 -0.44108,1.7299 -1.15766,3.36976 -1.72927,5.05714 -0.88665,2.22498 -1.54003,4.54763 -1.94221,6.90889 -0.44043,2.72023 -0.47862,5.47589 -0.94917,8.18634 -1.17643,3.52003 -4.52768,4.75675 -7.89991,4.66944 -1.8434,-0.002 -3.68759,0.009 -5.53004,-0.06 -2.18785,-0.0968 -4.37005,-0.27493 -6.54749,-0.5098 -2.18202,-0.20262 -4.3615,-0.23931 -6.55272,-0.1886 -3.29245,0.0225 -6.58511,0.081 -9.87431,0.23602 -3.76614,0.19879 -7.5194,0.57334 -11.28484,0.74375 -1.66194,0.001 -3.40313,0.0852 -3.86835,-1.86055 -0.20748,-1.68306 -0.0655,-3.3873 -0.0765,-5.07985 0.0598,-2.38769 0.18123,-4.77385 0.41717,-7.15127 0.29358,-2.76082 0.56792,-5.5197 0.81498,-8.28458 0.34246,-2.7325 0.7299,-5.45493 0.9047,-8.20577 0,0 4.00355,-1.98441 4.00355,-1.98441 z"
       inkscape:connector-curvature="0"
       transform="translate(0,308.2677)" />
    <path
       style="fill:#000000;fill-opacity:0.78431373;stroke:none"
       id="path12330"
       d="m 318.65643,443.80531 c -0.51797,3.51747 -1.22145,6.99961 -1.66926,10.52753 -0.33778,2.7969 -0.45582,5.61241 -0.50981,8.42694 -0.026,2.02391 -0.0143,4.04801 -0.006,6.07199 0.0459,1.80866 -0.0838,3.62454 0.0876,5.42704 0.092,0.22628 0.12106,0.48999 0.27599,0.67885 1.24872,1.52215 6.87419,1.223 8.53579,1.224 6.16766,-0.0922 12.33396,-0.25469 18.50134,-0.36438 3.01483,-0.054 6.02991,-0.0929 9.0452,-0.1073 1.7146,-0.006 3.4292,-0.001 5.14381,-9.6e-4 1.63412,0.0359 3.23994,0.0403 4.85092,-0.24317 0.0643,0.33012 2.80863,-0.8379 2.52371,-0.66505 -5.35459,3.24833 -3.00218,1.85847 -1.96628,0.43003 0.97328,-2.36381 1.19839,-4.9822 1.72772,-7.47579 0.62667,-3.1836 1.13923,-6.38875 1.6826,-9.58787 0.15086,-1.759 0.60593,-3.45597 0.96416,-5.17668 0.21793,-1.12844 0.48556,-2.26575 -0.66322,-2.89085 -2.78466,-0.45362 -5.64532,-0.57363 -8.46569,-0.75493 -4.38925,-0.34292 -8.7385,-1.02641 -13.12015,-1.44279 -3.66332,-0.19498 -7.30896,-0.59955 -10.96483,-0.89196 -2.44566,-0.18341 -4.89172,-0.14623 -7.31865,-0.51311 -1.47212,-0.25689 -2.96315,-0.36533 -4.45346,-0.44518 0,0 3.62759,-2.60353 3.62759,-2.60353 l 0,0 c 1.49721,0.0939 2.99323,0.22228 4.4727,0.47938 2.4115,0.34228 4.84787,0.2971 7.27252,0.51132 3.64831,0.30923 7.2895,0.69489 10.94506,0.91388 4.37571,0.43252 8.72217,1.11739 13.10995,1.43222 1.91041,0.12034 3.8174,0.26799 5.72645,0.40623 0.78663,0.057 1.51046,0.0531 2.27507,0.24016 0.22884,0.056 0.44301,0.16045 0.66452,0.24067 1.20854,0.85289 1.21217,1.99556 0.91928,3.36652 -0.33771,1.72889 -0.87034,3.41282 -1.00161,5.18054 -0.5565,3.20611 -1.09636,6.41477 -1.69554,9.61275 -0.53098,2.53529 -0.80356,5.14677 -1.61298,7.60772 -1.7055,2.80563 -5.04997,4.27654 -8.22298,4.71191 -1.62348,0.24154 -3.25243,0.19351 -4.89042,0.18266 -1.71252,-0.002 -3.42504,-0.001 -5.13756,-0.002 -2.98928,0.002 -5.97856,0.018 -8.9676,0.0581 -6.16694,0.0885 -12.33249,0.23984 -18.49895,0.35335 -2.17457,-0.004 -7.33047,0.44527 -8.90815,-1.60267 -0.17538,-0.22766 -0.22204,-0.53014 -0.33306,-0.79521 -0.19793,-1.81407 -0.063,-3.64432 -0.10738,-5.46669 -0.002,-2.02879 -0.0102,-4.05771 0.0135,-6.08639 0.052,-2.83515 0.19339,-5.67058 0.52683,-8.48799 0.43586,-3.51644 1.13672,-6.98435 1.62462,-10.49297 0,0 3.99685,-1.98657 3.99685,-1.98657 z"
       inkscape:connector-curvature="0"
       transform="translate(0,308.2677)" />
    <path
       style="fill:#000000;fill-opacity:0.78431373;stroke:none"
       id="path12332"
       d="m 417.88468,391.24668 c -0.6801,3.66399 -1.28948,7.3395 -1.9362,11.00953 -0.3969,2.88294 -0.76714,5.74558 -1.41263,8.58435 -0.38362,2.1324 -0.87927,4.22661 -1.57424,6.27827 -0.64209,2.05543 1.4413,2.20997 2.95284,2.62714 4.41267,0.84636 8.92726,0.81276 13.39633,1.08706 5.52284,0.23968 11.02336,0.74314 16.51804,1.33156 3.83566,0.52488 7.7234,0.50182 11.56494,0.9251 1.91015,0.29463 3.82393,0.52458 5.75403,0.6243 2.04378,0.16769 5.20014,-1.55125 -1.14892,1.55471 -0.15967,0.0781 0.26993,-0.23778 0.36766,-0.38626 0.11611,-0.17641 0.17684,-0.38359 0.26526,-0.57538 0.48719,-2.03955 0.38748,-4.17566 0.39369,-6.25928 -0.001,-3.30625 -0.01,-6.61252 -0.0239,-9.91874 -0.007,-2.42401 -0.0181,-4.848 -0.0245,-7.27201 -0.004,-1.58188 -0.004,-3.16376 -0.005,-4.74564 -0.12786,-1.33333 0.34991,-2.87344 -0.34228,-4.07809 -1.97767,-1.16096 -4.58558,-0.94337 -6.81039,-1.00612 -2.76928,-0.0495 -5.53919,-0.0263 -8.30867,-0.009 -2.49955,0.12813 -4.9768,-0.12368 -7.46198,-0.34515 -2.86072,-0.24372 -5.73193,-0.32338 -8.60155,-0.37039 -1.72287,-0.17699 -3.42353,-0.49801 -5.14936,-0.651 -1.46505,-0.10828 -2.93496,-0.11291 -4.40318,-0.11913 -1.49909,-0.002 -2.99819,9.7e-4 -4.49729,0.003 -0.25077,2.2e-4 -0.50155,4.4e-4 -0.75232,6.6e-4 0,0 3.61759,-2.62885 3.61759,-2.62885 l 0,0 c 0.25076,-2.4e-4 0.50152,-4.9e-4 0.75228,-7.3e-4 1.49981,-0.002 2.99963,-0.006 4.49943,-4.8e-4 1.47639,0.01 2.9549,0.0212 4.42665,0.15158 1.70777,0.17411 3.39311,0.50869 5.1052,0.64082 2.87356,0.0605 5.74825,0.15462 8.61283,0.40034 2.48123,0.2185 4.95712,0.41199 7.45089,0.30222 2.76536,-0.008 5.53108,-0.0224 8.29603,0.0369 2.34171,0.075 5.17443,-0.17941 7.10478,1.35827 0.7366,1.3067 0.37987,2.83369 0.44593,4.28503 -4.2e-4,1.58337 -0.001,3.16674 -0.005,4.75011 -0.005,2.42954 -0.0131,4.85907 -0.01,7.28861 10e-4,3.30456 0.0171,6.60905 0.0369,9.91354 0.004,2.1266 0.0944,4.28391 -0.28971,6.38454 -0.84539,2.84876 -4.39673,4.1224 -7.16773,3.89934 -1.92781,-0.11683 -3.83664,-0.37421 -5.74673,-0.65672 -3.82657,-0.39113 -7.68532,-0.46592 -11.5036,-0.96937 -5.492,-0.59279 -10.99207,-1.07535 -16.51266,-1.30998 -4.50804,-0.2624 -9.06498,-0.23674 -13.50997,-1.1224 -1.65701,-0.47195 -3.96351,-1.03696 -3.32862,-3.24594 0.70465,-2.04166 1.26136,-4.11168 1.61672,-6.2463 0.64564,-2.83781 1.0733,-5.68983 1.44637,-8.57702 0.65286,-3.66018 1.28291,-7.32402 1.89361,-10.99094 0,0 4.00751,-1.95195 4.00751,-1.95195 z"
       inkscape:connector-curvature="0"
       transform="translate(0,308.2677)" />
    <path
       style="fill:#000000;fill-opacity:0.78431373;stroke:none"
       id="path12334"
       d="m 337.42247,402.70969 c 3.98232,0.35536 7.97728,0.52157 11.9724,0.64487 4.53944,0.12033 9.0808,0.12816 13.62151,0.13619 4.74076,0.004 9.48151,0.002 14.22226,-4.1e-4 3.39515,-0.003 6.79027,-0.0146 10.18541,-0.0212 2.10805,0.1101 4.18313,-0.10477 6.26969,-0.36621 2.44585,-0.14117 4.86956,-0.43583 7.30114,-0.7229 2.23024,-0.12606 4.41743,-0.56617 6.62451,-0.87931 2.08534,-0.29221 4.15606,-0.64899 6.25611,-0.84997 0,0 -3.57712,2.65335 -3.57712,2.65335 l 0,0 c -2.09601,0.21526 -4.163,0.59255 -6.24983,0.86998 -2.20186,0.32287 -4.39319,0.71024 -6.61681,0.86011 -2.43376,0.29506 -4.86682,0.5392 -7.31064,0.73208 -2.09335,0.25459 -4.18138,0.41195 -6.2929,0.31547 -3.37769,-0.006 -6.75537,-0.0162 -10.13307,-0.0167 -4.74167,9.5e-4 -9.48334,0.007 -14.22502,0.001 -4.54518,-0.009 -9.09122,-0.0129 -13.63493,-0.14278 -4.01265,-0.13329 -8.02104,-0.33668 -12.02792,-0.58716 0,0 3.61521,-2.6266 3.61521,-2.6266 z"
       inkscape:connector-curvature="0"
       transform="translate(0,308.2677)" />
    <path
       style="fill:#000000;fill-opacity:0.78431373;stroke:none"
       id="path12336"
       d="m 410.91216,395.24057 c 1.16781,2.11129 1.61878,3.96064 0.73228,6.23837 -1.33278,1.85547 -3.52469,2.88978 -5.44784,4.03931 -0.37212,0.22895 -0.74425,0.45791 -1.11637,0.68686 0,0 -4.14055,1.60412 -4.14055,1.60412 l 0,0 c 0.37114,-0.23139 0.74229,-0.46277 1.11344,-0.69416 1.90973,-1.1315 3.97776,-2.17255 5.53536,-3.77313 1.0067,-2.11452 0.62274,-3.82375 -0.52624,-5.82873 0,0 3.84992,-2.27264 3.84992,-2.27264 z"
       inkscape:connector-curvature="0"
       transform="translate(0,308.2677)" />
    <path
       style="fill:#000000;fill-opacity:0.78431373;stroke:none"
       id="path12338"
       d="m 372.87184,462.90082 c 5.4563,0.0302 10.91239,0.0856 16.36736,-0.0486 6.2225,-0.21351 12.44406,-0.45089 18.66856,-0.59912 3.35022,-0.0782 6.70125,-0.0985 10.05225,-0.0994 2.54773,-6.7e-4 5.09545,-0.002 7.64318,-0.005 1.73699,0.0892 3.31876,0.0605 4.89233,-0.72143 -6.03417,3.54319 -2.74032,1.6383 -1.56969,0.60704 0.70565,-0.62163 1.30584,-1.35301 1.91791,-2.06298 1.27692,-1.68322 1.81345,-3.76273 2.25267,-5.79508 0.67165,-2.67318 0.9637,-5.41301 1.15664,-8.15577 0.12429,-2.04886 0.13997,-4.10186 0.14302,-6.15378 -0.004,-1.91503 4.5e-4,-3.83006 -0.002,-5.7451 -0.004,-1.85319 -0.008,-3.70639 -0.01,-5.55959 -2.2e-4,-0.26399 -4.5e-4,-0.52799 -6.7e-4,-0.79198 0,0 3.98246,-2.02921 3.98246,-2.02921 l 0,0 c -1.8e-4,0.2642 -3.7e-4,0.52839 -5.5e-4,0.79258 -0.002,1.85546 -0.005,3.71092 -0.004,5.56638 0.002,1.91339 0.0157,3.82674 0.0151,5.74013 -0.007,2.06497 -0.0304,4.13075 -0.15452,6.19261 -0.18514,2.75659 -0.46109,5.51649 -1.12194,8.20563 -0.41178,2.08501 -0.95013,4.20995 -2.14866,5.99426 -2.38647,2.81221 -4.3096,4.307 -7.95593,5.97073 -1.62033,0.65273 -3.26964,0.62901 -4.99821,0.56521 -2.53966,-0.006 -5.07932,-0.0132 -7.61899,-0.0116 -3.33671,0.007 -6.67358,0.0158 -10.00981,0.0799 -6.20446,0.12558 -12.40621,0.34026 -18.60809,0.55634 -5.49913,0.13502 -10.99899,0.0902 -16.49941,0.13142 0,0 3.61112,-2.62363 3.61112,-2.62363 z"
       inkscape:connector-curvature="0"
       transform="translate(0,308.2677)" />
    <path
       style="fill:#000000;fill-opacity:0.78431373;stroke:none"
       id="path12340"
       d="m 426.6498,432.23192 c 2.25149,-1.58822 4.5716,-3.0701 6.92538,-4.50056 2.22894,-1.18914 5.79435,-4.68132 8.03005,-3.65113 0.23155,0.1067 0.40845,0.30525 0.61268,0.45787 1.27006,1.39857 1.91916,3.26966 2.63469,4.99651 0.2888,0.84605 0.6198,1.67612 0.92684,2.51557 0,0 -3.90572,2.16485 -3.90572,2.16485 l 0,0 c -0.302,-0.8351 -0.63502,-1.65803 -0.91311,-2.50166 -0.67393,-1.64323 -1.28216,-3.45583 -2.51364,-4.76304 -0.50533,-0.2939 -0.49734,-0.38868 -1.12467,-0.33178 -0.23613,0.0214 -0.88436,0.30025 -0.69303,0.16021 5.71736,-4.18445 2.53591,-1.30124 1.09217,-0.64986 -2.34388,1.42657 -4.67772,2.86657 -6.9136,4.46062 0,0 -4.15804,1.6424 -4.15804,1.6424 z"
       inkscape:connector-curvature="0"
       transform="translate(0,308.2677)" />
    <path
       style="fill:#0000ff;fill-opacity:0.78431373000000004;stroke:none"
       id="path12348"
       d="m 708.28466,447.46755 c -4.31267,0.30155 -8.61405,0.74748 -12.91991,1.14153 -8.80567,0.69775 -17.61334,1.36726 -26.43382,1.8483 -10.06288,0.46472 -20.12221,0.96806 -30.19247,1.24602 -7.80211,0.19653 -15.60679,0.2258 -23.41091,0.24386 -5.89691,0.009 -11.79383,0.007 -17.69074,0.0136 -4.02725,0.0897 -8.0215,0.58844 -12.0254,0.97679 -4.64874,0.46783 -9.30034,0.83182 -13.96788,1.05426 -3.92198,0.30851 -7.84114,0.59696 -11.74359,1.09354 -3.7025,0.43987 -7.40162,0.83568 -11.12465,1.05557 -4.87597,0.23978 -9.75868,0.29831 -14.63971,0.33379 -3.13269,0.02 -6.26542,0.0197 -9.39814,0.02 -1.85714,-0.003 -3.71427,9.9e-4 -5.5714,-3e-4 0,0 3.60543,-2.61925 3.60543,-2.61925 l 0,0 c 1.85345,4e-4 3.70689,0.007 5.56033,0.009 3.11913,0.008 6.2383,0.0165 9.35743,0.005 4.8718,-0.0297 9.74584,-0.0739 14.61146,-0.34342 3.72843,-0.24597 7.43433,-0.67177 11.14478,-1.10495 3.89474,-0.48606 7.81075,-0.73712 11.72366,-1.03648 4.67132,-0.22646 9.32414,-0.62469 13.97719,-1.08841 4.00405,-0.39955 8.00361,-0.87934 12.03335,-0.92886 5.87947,0.0145 11.75895,0.0245 17.63844,0.0231 7.78589,-0.009 15.57244,-0.0348 23.35656,-0.21772 10.05863,-0.2688 20.10705,-0.75667 30.15747,-1.23535 8.85214,-0.5035 17.69205,-1.1853 26.52646,-1.9364 4.34414,-0.41018 8.68308,-0.89392 13.03717,-1.17689 0,0 -3.61111,2.62362 -3.61111,2.62362 z"
       inkscape:connector-curvature="0"
       transform="translate(0,308.2677)" />
    <path
       style="fill:#0000ff;fill-opacity:0.78431373000000004;stroke:none"
       id="path12350"
       d="m 531.03098,442.78863 c -2.63298,1.52318 -5.13378,3.24864 -7.521,5.13039 -1.68229,1.46544 -3.39546,2.87687 -4.06042,5.07169 -0.46673,2.68385 1.94323,4.46932 3.72992,6.04785 3.11534,2.69812 6.78744,4.56015 10.43611,6.40551 1.19211,0.68608 2.43754,1.26059 3.6446,1.91839 0,0 -3.72346,2.43089 -3.72346,2.43089 l 0,0 c -1.19843,-0.65443 -2.42857,-1.24335 -3.61268,-1.92447 -3.66421,-1.88236 -7.34271,-3.7958 -10.48448,-6.50523 -1.92571,-1.68342 -4.39087,-3.59437 -4.01846,-6.45071 0.54527,-2.33772 2.2269,-3.80262 3.97229,-5.34345 2.36697,-1.89634 4.84551,-3.64577 7.47342,-5.16564 0,0 4.16416,-1.61522 4.16416,-1.61522 z"
       inkscape:connector-curvature="0"
       transform="translate(0,308.2677)" />
    <path
       style="fill:#000000;fill-opacity:0.78431373;stroke:none"
       id="path12358"
       d="m 515.9219,144.75603 c 5.86166,0.73588 11.76778,1.0435 17.65929,1.44713 6.72359,0.42499 13.43527,0.97418 20.16758,1.25202 5.68419,0.14649 11.35847,0.53324 17.02295,1.0136 4.37861,0.23943 8.72859,0.79416 13.09878,1.1329 4.65666,0.45773 9.29366,1.06044 13.95966,1.42158 5.52513,0.57665 11.07171,0.86854 16.62212,1.04564 4.62976,0.14652 9.26406,0.40438 13.88119,0.78556 5.26509,0.4818 10.55086,0.65219 15.83445,0.76882 4.12227,-0.0462 8.22761,0.17242 12.33888,0.43199 5.52676,0.31515 11.06465,0.3499 16.59876,0.38634 3.80862,0.0181 7.61728,0.006 11.42591,6.4e-4 2.26443,-0.004 4.52886,-0.008 6.79328,-0.0122 1.99503,-0.005 3.99007,5e-4 5.9851,0.005 2.52363,0.12802 5.01235,-0.0729 7.51351,-0.36479 2.75806,-0.29635 5.53564,-0.32536 8.3066,-0.35983 3.23375,0.0992 6.44642,-0.26819 9.66638,-0.49393 2.61553,-0.15797 5.23534,-0.21873 7.85479,-0.26367 0,0 -3.58392,2.61297 -3.58392,2.61297 l 0,0 c -2.6123,0.0419 -5.22524,0.10298 -7.83266,0.27744 -3.22317,0.23377 -6.44171,0.55897 -9.67867,0.4719 -2.77113,0.0465 -5.54834,0.0909 -8.3042,0.41375 -2.50722,0.28994 -5.00908,0.40076 -7.53476,0.31658 -2.00054,0.005 -4.00109,0.01 -6.00164,0.007 -2.25706,-0.002 -4.51413,-0.003 -6.7712,-0.004 -3.78569,-0.002 -7.57134,-0.0209 -11.35688,-0.0551 -5.55297,-0.0489 -11.11022,-0.0653 -16.6563,-0.37456 -4.10119,-0.25695 -8.19854,-0.44259 -12.30954,-0.43219 -5.28996,-0.13821 -10.58193,-0.31852 -15.85499,-0.78408 -4.6103,-0.35652 -9.23209,-0.63393 -13.85353,-0.7804 -5.55601,-0.19291 -11.10671,-0.50574 -16.63999,-1.05704 -4.67234,-0.37204 -9.31821,-0.97246 -13.98495,-1.4038 -4.35996,-0.35152 -8.70094,-0.90523 -13.06965,-1.15688 -5.65245,-0.48162 -11.31528,-0.85687 -16.98692,-1.01658 -6.72769,-0.2891 -13.43411,-0.85335 -20.15382,-1.27564 -5.93262,-0.40056 -11.87319,-0.72703 -17.78605,-1.36881 0,0 3.63044,-2.58771 3.63044,-2.58771 z"
       inkscape:connector-curvature="0"
       transform="translate(0,308.2677)" />
    <path
       style="fill:#000000;fill-opacity:0.78431373;stroke:none"
       id="path12360"
       d="m 720.21499,138.66605 c 1.62859,2.48336 3.67604,4.64425 5.55496,6.93152 1.24834,1.5049 2.4245,3.14375 4.02025,4.30287 1.41668,0.81744 2.21793,1.91713 2.20719,3.56379 -0.8686,2.68486 -3.41404,4.43615 -5.48119,6.19166 -3.14788,2.47156 -6.20001,5.05266 -9.08448,7.82742 -1.5,1.41783 -0.78924,0.72387 -2.13713,2.0769 0,0 -4.09771,1.70002 -4.09771,1.70002 l 0,0 c 1.35237,-1.37761 0.63618,-0.67714 2.15532,-2.09449 2.86582,-2.8008 5.92143,-5.38857 9.07798,-7.85651 2.02783,-1.71719 4.40252,-3.37753 5.57262,-5.83317 0.14523,-1.53616 -0.72915,-2.42211 -1.99294,-3.18563 -1.58137,-1.23133 -2.79338,-2.86399 -4.04692,-4.41197 -1.86722,-2.29454 -3.88918,-4.46854 -5.57495,-6.90745 0,0 3.827,-2.30496 3.827,-2.30496 z"
       inkscape:connector-curvature="0"
       transform="translate(0,308.2677)" />
    <path
       style="fill:#000000;fill-opacity:0.78431373;stroke:none"
       id="path12362"
       d="m 785.59784,471.88108 c 1.351,2.33967 2.53758,4.75856 4.0652,6.99157 1.25933,1.87358 2.59768,3.69679 3.9546,5.5015 1.22351,1.90024 2.5729,3.69857 3.9909,5.45714 1.86806,2.57781 4.04662,4.89113 6.19237,7.23332 1.9157,2.47895 3.8329,4.95199 5.88917,7.31663 2.63083,3.06154 5.62306,5.77251 8.58687,8.50188 2.47022,1.9855 4.64571,4.27385 6.64572,6.72295 2.34601,2.71259 4.58853,5.51384 6.76682,8.36348 2.17774,2.72073 4.22054,5.54256 6.26878,8.36057 2.47884,3.15759 4.82324,6.41662 7.11912,9.70867 1.89436,3.01768 4.10704,5.81249 6.03244,8.80687 1.53282,2.03654 3.08918,4.05035 4.50801,6.1687 1.039,1.791 2.42901,3.34171 3.63547,5.01941 1.17723,1.56329 2.26701,3.1834 3.38304,4.78793 1.09951,1.47716 1.98743,3.09449 3.01515,4.61732 0.7956,1.66278 1.90984,3.11879 2.96042,4.6197 1.19697,1.42223 2.20542,2.97292 3.28236,4.48474 0.93289,1.67559 2.17627,3.14002 3.31544,4.67387 0,0 -3.83917,2.27585 -3.83917,2.27585 l 0,0 c -1.14056,-1.53659 -2.379,-3.00783 -3.31532,-4.68478 -1.07399,-1.51519 -2.10675,-3.04988 -3.28717,-4.48568 -1.05144,-1.50369 -2.17061,-2.96086 -2.97043,-4.6245 -1.01523,-1.52895 -1.90782,-3.13971 -3.01132,-4.61184 -1.10478,-1.60858 -2.1935,-3.22559 -3.36659,-4.78761 -1.21155,-1.67994 -2.61272,-3.23039 -3.64406,-5.03259 -1.41384,-2.1232 -2.96683,-4.14217 -4.48512,-6.19134 -1.91852,-2.99179 -4.11983,-5.7879 -6.00867,-8.80185 -2.28712,-3.29504 -4.63455,-6.54822 -7.12056,-9.69697 -2.04969,-2.81332 -4.09991,-5.62537 -6.2674,-8.35006 -2.16698,-2.85263 -4.4161,-5.64299 -6.76709,-8.34517 -1.99439,-2.42621 -4.16476,-4.68915 -6.60372,-6.67738 -2.95984,-2.75496 -5.95393,-5.48351 -8.60699,-8.54395 -2.06893,-2.35104 -3.99146,-4.81684 -5.90043,-7.29861 -2.14594,-2.35405 -4.32376,-4.67922 -6.21312,-7.25144 -1.43101,-1.75582 -2.79544,-3.55165 -4.01536,-5.46206 -1.35667,-1.81292 -2.69869,-3.64205 -3.95717,-5.52373 -1.52018,-2.24485 -2.6914,-4.67828 -4.0924,-6.99579 0,0 3.86021,-2.24675 3.86021,-2.24675 z"
       inkscape:connector-curvature="0" />
    <path
       style="fill:#000000;fill-opacity:0.78431373;stroke:none"
       id="path12364"
       d="m 874.0668,260.09392 c 0.4153,3.4025 1.24163,6.72813 1.95419,10.07497 0.60049,2.57283 1.49823,5.11474 0.94084,7.76076 -0.57111,1.61896 -1.7932,2.9137 -3.12475,3.95876 -4.0149,2.34983 -5.07097,3.66687 -9.24744,2.49951 -2.85005,-0.72772 -5.63207,-1.69561 -8.47857,-2.43319 -2.14857,-0.60676 -4.38797,-0.57606 -6.58136,-0.86385 -2.7251,-0.3993 -5.37512,-1.15389 -8.0929,-1.61599 -1.7397,-0.24563 -0.89028,-0.13834 -2.5478,-0.32552 0,0 3.62722,-2.57039 3.62722,-2.57039 l 0,0 c 1.65877,0.2066 0.80867,0.0899 2.54982,0.35349 2.71134,0.4827 5.36734,1.23155 8.09931,1.58325 2.20963,0.24433 4.44977,0.30045 6.60238,0.92419 2.83947,0.76705 5.62593,1.72395 8.48404,2.42636 0.88328,0.20941 1.28132,0.36911 2.17721,0.34636 1.8935,-0.0481 5.58725,-2.19938 -0.75061,1.32172 1.35853,-0.90585 2.56866,-2.19326 3.26246,-3.67445 0.70605,-2.57105 -0.24513,-5.08436 -0.81157,-7.60543 -0.69677,-3.35895 -1.52549,-6.68992 -2.02112,-10.08803 0,0 3.95865,-2.07252 3.95865,-2.07252 z"
       inkscape:connector-curvature="0"
       transform="translate(0,308.2677)" />
    <path
       style="fill:#000000;fill-opacity:0.78431373;stroke:none"
       id="path12366"
       d="m 338.97379,97.625933 c -0.40455,3.197977 -0.42365,6.425547 -0.6901,9.633777 -0.28442,2.46493 -0.53309,4.9321 -0.65768,7.41052 -0.0884,2.08941 -0.0867,4.18112 -0.0917,6.27196 -0.13002,1.9369 -0.36525,3.86515 -0.79661,5.75799 -0.4917,1.99874 -0.58068,4.06382 -0.6548,6.11174 -0.358,3.20185 -0.32213,3.5486 3.02034,3.88569 7.84352,0.13539 15.69142,-0.0507 23.53567,-0.12589 7.13589,0.0732 14.28369,-0.34385 21.41676,-0.0773 2.66727,-0.0114 5.19147,0.79457 7.66714,1.69678 1.58095,0.81818 3.21657,1.43729 4.9686,1.74776 1.54149,0.2296 3.04674,0.61179 4.60085,0.77682 2.04257,0.21252 4.10813,0.032 6.10985,-0.4028 0.9436,-0.17891 1.85427,-0.50206 2.72141,-0.91232 0.31418,-0.14864 1.22388,-0.65888 0.92419,-0.48284 -3.64807,2.14296 -3.6619,2.20071 -2.09757,1.05616 1.32113,-1.07308 1.81004,-2.5295 2.04133,-4.15198 0.17389,-2.2167 0.11671,-4.44586 0.11466,-6.66772 0.059,-3.64757 -0.3871,-7.27818 -0.9746,-10.87093 -0.60953,-3.61069 -0.97378,-7.25423 -1.19459,-10.90733 -0.35864,-1.89015 -0.18786,-3.99224 -1.02354,-5.76028 -0.12047,-0.13047 -0.21685,-0.28826 -0.3614,-0.39142 -1.14901,-0.81998 -5.21508,-0.61839 -6.52625,-0.64483 -5.16407,-0.0525 -10.32856,-0.0207 -15.49272,0.002 -3.22646,0.0161 -6.45294,0.0341 -9.67945,0.0351 -3.04612,6.9e-4 -6.09224,-0.002 -9.13837,-0.005 -3.33052,-0.001 -6.66104,8.3e-4 -9.99157,0.002 -2.69636,0.004 -5.39272,0.005 -8.08909,0.004 -2.11453,0.001 -4.22906,0.005 -6.34359,0.008 -1.30559,0.001 -2.61118,0.002 -3.91677,0.002 0,0 3.61771,-2.628429 3.61771,-2.628429 l 0,0 c 1.30388,2.19e-4 2.60775,5.39e-4 3.91162,0.0019 2.10763,0.0023 4.21525,0.0064 6.32288,0.0075 2.69244,-0.0011 5.38488,2.21e-4 8.07732,0.0043 3.32859,0.0011 6.65719,0.0034 9.98578,0.0023 3.05136,-0.0029 6.10272,-0.0046 9.15408,-0.0071 3.21132,-0.0042 6.42265,0.0013 9.63397,-0.0032 5.16877,-0.0076 10.33767,-0.03412 15.50638,2.5e-4 2.10095,0.03786 5.7434,-0.406818 7.22475,1.405139 0.86087,1.831594 0.71843,3.969934 1.06422,5.932674 0.19136,3.64317 0.52937,7.27894 1.15191,10.87635 0.59944,3.60917 1.05858,7.25678 1.02849,10.92215 0.017,2.23323 0.0756,4.47187 -0.0519,6.70234 -0.19703,1.69207 -0.61189,3.27606 -1.91118,4.47815 -2.67238,2.16161 -5.86475,3.9293 -9.24235,4.68177 -2.04482,0.36845 -4.1271,0.54729 -6.19883,0.29669 -1.55686,-0.1901 -3.07327,-0.5713 -4.62314,-0.8026 -1.75465,-0.36206 -3.38749,-1.02926 -4.99639,-1.81232 -2.44244,-0.86039 -4.91024,-1.64324 -7.53445,-1.62406 -7.08695,-0.26841 -14.18754,0.0485 -21.27717,0.002 -7.90629,0.0867 -15.81678,0.32532 -23.72206,0.1889 -3.4983,-0.50551 -3.81372,-1.03859 -3.38256,-4.43397 0.0662,-2.06796 0.12657,-4.15829 0.59979,-6.18142 0.4442,-1.86569 0.69976,-3.76021 0.85394,-5.67301 -5e-4,-2.09702 -0.005,-4.19509 0.0808,-6.29076 0.12264,-2.48878 0.36483,-4.9669 0.67706,-7.43918 0.29868,-3.20087 0.3025,-6.42369 0.64535,-9.622821 0,0 4.00355,-1.984416 4.00355,-1.984416 z"
       inkscape:connector-curvature="0"
       transform="translate(0,308.2677)" />
    <text
       xml:space="preserve"
       style="font-size:40px;font-style:normal;font-weight:normal;line-height:125%;letter-spacing:0px;word-spacing:0px;fill:#000000;fill-opacity:1;stroke:none;font-family:Script MT Bold;-inkscape-font-specification:Script MT Bold"
       x="840.39789"
       y="394.24216"
       id="text12368"
       sodipodi:linespacing="125%"
       transform="translate(0,308.2677)"><tspan
         sodipodi:role="line"
         id="tspan12370"
         x="840.39789"
         y="394.24216"
         style="font-size:16px;font-style:normal;font-variant:normal;font-weight:normal;font-stretch:normal;text-align:start;line-height:125%;writing-mode:lr-tb;text-anchor:start;font-family:Segoe Print;-inkscape-font-specification:Segoe Print">User makes a change </tspan><tspan
         sodipodi:role="line"
         x="840.39789"
         y="414.24216"
         style="font-size:16px;font-style:normal;font-variant:normal;font-weight:normal;font-stretch:normal;text-align:start;line-height:125%;writing-mode:lr-tb;text-anchor:start;font-family:Segoe Print;-inkscape-font-specification:Segoe Print"
         id="tspan12372">in the UI</tspan></text>
    <text
       xml:space="preserve"
       style="font-size:16px;font-style:normal;font-variant:normal;font-weight:normal;font-stretch:normal;text-align:start;line-height:125%;letter-spacing:0px;word-spacing:0px;writing-mode:lr-tb;text-anchor:start;fill:#000000;fill-opacity:1;stroke:none;font-family:Segoe Print;-inkscape-font-specification:Segoe Print"
       x="831.36945"
       y="170.03575"
       id="text12374"
       sodipodi:linespacing="125%"
       transform="translate(0,308.2677)"><tspan
         sodipodi:role="line"
         id="tspan12376"
         x="831.36945"
         y="170.03575">User views data</tspan><tspan
         sodipodi:role="line"
         x="831.36945"
         y="190.03575"
         id="tspan12378">in the UI</tspan></text>
    <text
       xml:space="preserve"
       style="font-size:16px;font-style:normal;font-variant:normal;font-weight:normal;font-stretch:normal;text-align:start;line-height:125%;letter-spacing:0px;word-spacing:0px;writing-mode:lr-tb;text-anchor:start;fill:#0000ff;fill-opacity:1;stroke:none;font-family:Segoe Print;-inkscape-font-specification:Segoe Print"
       x="568.79211"
       y="483.77426"
       id="text12380"
       sodipodi:linespacing="125%"
       transform="translate(0,308.2677)"><tspan
         sodipodi:role="line"
         id="tspan12382"
         x="568.79211"
         y="483.77426">Command</tspan></text>
    <text
       xml:space="preserve"
       style="font-size:16px;font-style:normal;font-variant:normal;font-weight:normal;font-stretch:normal;text-align:start;line-height:125%;letter-spacing:0px;word-spacing:0px;writing-mode:lr-tb;text-anchor:start;fill:#000000;fill-opacity:1;stroke:none;font-family:Segoe Print;-inkscape-font-specification:Segoe Print"
       x="565.03027"
       y="117.36981"
       id="text12384"
       sodipodi:linespacing="125%"
       transform="translate(0,308.2677)"><tspan
         sodipodi:role="line"
         id="tspan12386"
         x="565.03027"
         y="117.36981">Query response</tspan></text>
    <text
       xml:space="preserve"
       style="font-size:16px;font-style:normal;font-variant:normal;font-weight:normal;font-stretch:normal;text-align:start;line-height:125%;letter-spacing:0px;word-spacing:0px;writing-mode:lr-tb;text-anchor:start;fill:#000000;fill-opacity:1;stroke:none;font-family:Segoe Print;-inkscape-font-specification:Segoe Print"
       x="304.71008"
       y="552.99237"
       id="text12404"
       sodipodi:linespacing="125%"
       transform="translate(0,308.2677)"><tspan
         sodipodi:role="line"
         id="tspan12406"
         x="304.71008"
         y="552.99237">Write-side</tspan></text>
    <text
       xml:space="preserve"
       style="font-size:16px;font-style:normal;font-variant:normal;font-weight:normal;font-stretch:normal;text-align:start;line-height:125%;letter-spacing:0px;word-spacing:0px;writing-mode:lr-tb;text-anchor:start;fill:#000000;fill-opacity:1;stroke:none;font-family:Segoe Print;-inkscape-font-specification:Segoe Print"
       x="329.5383"
       y="44.389862"
       id="text12408"
       sodipodi:linespacing="125%"
       transform="translate(0,308.2677)"><tspan
         sodipodi:role="line"
         id="tspan12410"
         x="329.5383"
         y="44.389862">Read-side</tspan></text>
    <text
       xml:space="preserve"
       style="font-size:16px;font-style:normal;font-variant:normal;font-weight:normal;font-stretch:normal;text-align:start;line-height:125%;letter-spacing:0px;word-spacing:0px;writing-mode:lr-tb;text-anchor:start;fill:#000000;fill-opacity:1;stroke:none;font-family:Segoe Print;-inkscape-font-specification:Segoe Print"
       x="739.58026"
       y="522.89752"
       id="text12412"
       sodipodi:linespacing="125%"
       transform="translate(0,308.2677)"><tspan
         sodipodi:role="line"
         id="tspan12414"
         x="739.58026"
         y="522.89752">Service</tspan><tspan
         sodipodi:role="line"
         x="739.58026"
         y="542.89752"
         id="tspan12416">Interfaces</tspan></text>
    <path
       style="fill:#800000;fill-opacity:0.78431373000000004;stroke:none"
       id="path3506"
       d="m 75.628964,444.45956 c -2.525567,-0.0106 -5.034354,-0.37424 -7.550805,-0.56541 -1.759311,-0.0569 -3.464125,-0.52862 -5.204671,-0.75451 -1.518282,-0.0328 -2.989656,-0.32004 -4.483175,-0.55695 -1.674595,-0.24997 -3.367242,-0.32194 -5.05755,-0.36377 -1.558946,0.0195 -3.086414,0.002 -4.622906,-0.26452 -1.483462,-0.2878 -2.989532,-0.39992 -4.496569,-0.46393 -1.501622,-0.0484 -3.004272,-0.0449 -4.506485,-0.0448 -1.504673,0.002 -3.009345,0.003 -4.514018,0.004 -1.610676,0.0751 -2.816925,0.0857 -4.2378,-0.73512 -1.0996,-0.89626 -1.912357,-2.07479 -2.405973,-3.39761 -0.412657,-1.39404 -0.432199,-2.8575 -0.458841,-4.29921 -0.03667,-1.52758 -0.04007,-3.03986 0.202972,-4.55009 0.20991,-1.6755 0.558236,-3.30593 1.145318,-4.88908 0.550872,-1.33167 0.750921,-2.74646 0.860269,-4.17153 0.08568,-1.59599 0.07605,-3.19528 0.0747,-4.79301 0.03139,-1.64136 -0.09118,-3.28859 0.06702,-4.92415 0.294877,-1.68176 0.47529,-3.37719 0.583071,-5.0802 0.06531,-1.73666 0.05795,-3.46233 0.296657,-5.18601 0.150634,-1.55064 0.464048,-3.05671 0.816149,-4.5698 0.358185,-1.57488 0.346638,-3.19528 0.541035,-4.79025 0.308549,-1.77118 0.508991,-3.55366 0.612111,-5.34773 0.327028,-1.96177 0.461165,-3.95233 0.77851,-5.91374 0.363061,-1.70683 0.595123,-3.43286 0.72039,-5.17213 0.09621,-1.66865 0.09214,-3.34086 0.09822,-5.01163 -0.0013,-1.93773 -0.0027,-3.87547 -0.0058,-5.8132 -0.0033,-1.67223 -0.0052,-3.34447 -0.0062,-5.01671 -7.13e-4,-1.51202 -6.9e-4,-3.02405 -7e-4,-4.53608 0.03037,-1.82924 -0.06547,-3.66157 0.08562,-5.48589 0.257824,-1.84032 0.428896,-3.68712 0.781031,-5.51243 0.35348,-1.61022 0.510319,-3.24842 0.592644,-4.89164 0.06804,-1.93187 0.05573,-3.86535 0.05781,-5.7981 -0.0037,-1.84346 -0.0057,-3.68692 -0.0065,-5.53038 -0.0033,-1.84017 -0.0028,-3.68035 5.52e-4,-5.52052 -0.02497,-2.11139 -0.03728,-4.21013 0.203545,-6.30922 0.272076,-1.8726 0.418426,-3.75655 0.494254,-5.6461 -0.07367,-1.64249 0.257489,-3.24297 0.493686,-4.85742 0.254851,-1.81984 0.276237,-3.65995 0.305183,-5.49392 -0.07827,-2.06256 0.07811,-4.09767 0.339267,-6.14047 0.105457,-1.73843 0.512461,-3.42621 0.82626,-5.13248 0.273841,-1.57136 0.308459,-3.16835 0.337124,-4.75886 0.01911,-1.6265 0.01243,-3.25316 0.0093,-4.87973 -0.0052,-1.62873 -0.0014,-3.25745 -0.0019,-4.88619 0.100308,-2.02752 -0.05389,-4.02661 -0.325715,-6.03277 -0.242539,-1.62567 -0.347064,-3.26534 -0.401891,-4.90653 0.0998,-1.5764 -0.223416,-3.10649 -0.471108,-4.65105 -0.142839,-1.64607 -0.377699,-3.27263 -0.620739,-4.90664 -0.261039,-1.78504 -0.360836,-3.58664 -0.415859,-5.38799 -0.03054,-1.77724 -0.03117,-3.55487 -0.02666,-5.33233 0.0012,-1.85522 0.0053,-3.71044 0.0051,-5.56566 -0.001,-1.6619 -0.0024,-3.32381 -0.0032,-4.98571 -5.88e-4,-1.51266 -6.37e-4,-3.02533 -6.78e-4,-4.53799 0.0037,-1.7153 0.0014,-3.43061 0.0046,-5.14591 0.0356,-1.92306 -0.08113,-3.85163 0.08016,-5.76946 0.267206,-1.89992 0.475716,-3.80406 0.582935,-5.71964 0.09915,-1.91578 0.375807,-3.83186 0.713231,-5.72055 0.390606,-1.78271 0.648452,-3.58579 0.786256,-5.40442 0.0086,-1.70877 0.18007,-3.391 0.427326,-5.07952 0.153979,-1.76281 0.556208,-3.48506 0.833094,-5.22966 0.268342,-1.94523 0.303536,-3.91165 0.332664,-5.87196 0.01664,-1.65123 0.01022,-3.30257 0.007,-4.95384 -0.0032,-1.50785 -0.0043,-3.01569 -0.005,-4.52354 -0.03517,-1.4947 0.08055,-2.99611 -0.07806,-4.48436 -0.312695,-1.60914 -0.481058,-3.23347 -0.580844,-4.86795 -0.0806,-1.84146 -0.08972,-3.68501 -0.09624,-5.52791 -0.0029,-1.56097 -4.32e-4,-3.12194 7.71e-4,-4.6829 -0.03729,-1.59523 -0.01326,-3.17206 0.205038,-4.75309 0.327333,-1.40596 0.759571,-2.78711 1.488153,-4.03818 1.88516,-1.8148 4.286482,-3.38565 6.882626,-3.91835 1.579384,-0.25596 3.183672,-0.27224 4.779621,-0.28949 1.535533,-0.008 3.071091,5.1e-4 4.606625,0.004 1.624014,0.0328 3.252631,-0.0816 4.867009,0.11552 1.622582,0.27857 3.254772,0.46936 4.897502,0.56978 1.564648,0.0138 3.097935,0.0781 4.642769,0.31997 1.66712,0.22875 3.326039,0.36158 4.972222,0.70948 1.536465,0.33351 3.104541,0.44719 4.671418,0.5129 1.513068,0.0472 3.02712,0.042 4.540734,0.0409 1.504485,-0.002 3.00897,-0.004 4.513457,-0.005 1.539181,-0.12213 3.025948,0.11557 4.53516,0.37021 0.998801,0.14531 0.499109,0.0799 1.49906,0.19623 0,0 -3.649299,2.5841 -3.649299,2.5841 l 0,0 c -1.008162,-0.12932 -0.504702,-0.0584 -1.510375,-0.21277 -1.492784,-0.24994 -2.974679,-0.39943 -4.492186,-0.30898 -1.504514,0.001 -3.009026,0.004 -4.51354,0.005 -1.517538,-3e-4 -3.035735,0.003 -4.552324,-0.0586 -1.581946,-0.0825 -3.161754,-0.22607 -4.711365,-0.57082 -1.639247,-0.33324 -3.302646,-0.43344 -4.954917,-0.69119 -1.53723,-0.21979 -3.07502,-0.22319 -4.624884,-0.28764 -1.643598,-0.11842 -3.273251,-0.33835 -4.901999,-0.58629 -1.611844,-0.13356 -3.230579,-0.0471 -4.846788,-0.0751 -1.533573,-0.004 -3.067208,-0.0132 -4.600756,2.5e-4 -1.578468,0.0254 -3.171456,0.0455 -4.721804,0.37613 -0.218899,0.0655 -0.442445,0.11717 -0.656697,0.19659 -0.179245,0.0664 -0.68432,0.33907 -0.520899,0.23989 6.311274,-3.83021 3.631575,-2.21408 2.374065,-1.39207 -0.153557,0.10037 -0.281447,0.23539 -0.422171,0.35308 -0.825121,1.15245 -1.1796,2.52745 -1.584352,3.86985 -0.228045,1.56204 -0.277163,3.11475 -0.22664,4.69388 -0.0016,1.56133 -0.0049,3.12265 -0.0059,4.68398 0.0016,1.83561 0.0023,3.67208 0.08303,5.5063 0.09198,1.62562 0.250068,3.24284 0.57453,4.84083 0.19812,1.50098 0.06492,3.02015 0.102788,4.53134 5.59e-4,1.50786 0.0016,3.01573 0.0037,4.52359 0.0019,1.65503 0.0059,3.31013 -0.01271,4.96509 -0.03017,1.97753 -0.06083,3.96016 -0.301469,5.92571 -0.265247,1.74699 -0.689214,3.4629 -0.834225,5.22631 -0.248631,1.67975 -0.458363,3.34608 -0.439151,5.04879 -0.128606,1.83489 -0.371577,3.65661 -0.774085,5.45326 -0.357792,1.86687 -0.61149,3.77333 -0.736496,5.6677 -0.09877,1.92139 -0.287814,3.83263 -0.572521,5.73606 -0.211027,1.90113 -0.0526,3.82097 -0.09983,5.73093 0.0032,1.71374 8.61e-4,3.42749 0.0046,5.14123 -1.9e-5,1.51289 -2.3e-5,3.02578 -6.22e-4,4.53866 -8.11e-4,1.6633 -0.0023,3.3266 -0.0046,4.98989 -0.0018,1.85511 -5.56e-4,3.71021 -0.0041,5.56532 0.0016,1.7728 -0.0094,3.54583 0.02555,5.31841 0.04563,1.78607 0.1299,3.57341 0.384332,5.34392 0.244488,1.63122 0.511745,3.25047 0.630748,4.89702 0.243401,1.56245 0.594603,3.10809 0.494701,4.70214 0.04693,1.62853 0.137639,3.25647 0.371629,4.87049 0.271217,2.02359 0.456529,4.03799 0.35657,6.08395 5.96e-4,1.62769 0.0061,3.25537 0.0068,4.88307 0.002,1.62978 0.0065,3.25964 -0.01044,4.88937 -0.02426,1.61017 -0.03983,3.22728 -0.299837,4.82087 -0.300064,1.70587 -0.758826,3.37975 -0.846464,5.11799 -0.266584,2.02862 -0.462202,4.04616 -0.367979,6.09716 -0.0195,1.8478 -0.02465,3.70254 -0.264741,5.53802 -0.224468,1.60461 -0.597616,3.18805 -0.520706,4.81939 -0.07174,1.90103 -0.19641,3.79855 -0.484738,5.68101 -0.257082,2.08302 -0.265351,4.16291 -0.224942,6.26086 0.0035,1.83949 0.004,3.67897 0.0029,5.51846 0.0016,1.84375 0.0045,3.6875 0.0051,5.53125 0.0035,1.93775 2.9e-5,3.87576 -0.04347,5.81312 -0.06385,1.66341 -0.210148,3.32329 -0.565592,4.95312 -0.36461,1.81315 -0.535988,3.6439 -0.80288,5.47347 -0.19387,1.80679 -0.0615,3.62817 -0.09443,5.44306 -4.4e-5,1.51224 -9.9e-5,3.02449 -6.59e-4,4.53673 -7.09e-4,1.67363 -0.0021,3.34727 -0.0028,5.0209 1.32e-4,1.93812 0.005,3.87623 0.0054,5.81434 0.0027,1.67831 0.01309,3.35797 -0.0763,5.03454 -0.11599,1.75425 -0.331337,3.49799 -0.705861,5.21768 -0.371691,1.93648 -0.416832,3.92706 -0.802296,5.86559 -0.09297,1.80374 -0.268316,3.59832 -0.594213,5.37673 -0.225675,1.60104 -0.177247,3.23334 -0.517333,4.82227 -0.318768,1.5118 -0.727124,2.99088 -0.837568,4.54311 -0.257803,1.71315 -0.267098,3.42211 -0.311163,5.15218 -0.101096,1.70849 -0.25694,3.41528 -0.569257,5.09984 -0.216318,1.615 -0.0453,3.2547 -0.095,4.88049 0.0024,1.60592 0.02129,3.21301 -0.05269,4.81776 -0.09422,1.45955 -0.258307,2.91955 -0.805761,4.29013 -0.603282,1.55753 -1.011651,3.14241 -1.182613,4.81006 -0.261757,1.48642 -0.288458,2.9672 -0.238527,4.47622 0.0201,1.39413 0.02388,2.80972 0.392842,4.16487 0.438872,1.22592 1.19133,2.33177 2.236521,3.12275 1.309056,0.66591 2.66597,0.59787 4.109265,0.55255 1.504774,-0.001 3.009547,-0.003 4.514321,-0.004 1.506366,0.001 3.013371,-3e-5 4.518754,0.0618 1.517867,0.0792 3.031163,0.21994 4.525827,0.50625 1.522682,0.23489 3.048728,0.194 4.586323,0.21699 1.702155,0.0541 3.405666,0.14611 5.089934,0.41297 1.490414,0.24459 2.972808,0.4531 4.481938,0.54506 1.723758,0.25028 3.421135,0.69769 5.169614,0.74754 2.512756,0.20393 5.02152,0.5728 7.547034,0.52504 0,0 -3.61521,2.6266 -3.61521,2.6266 z"
       inkscape:connector-curvature="0"
       transform="translate(0,308.2677)" />
    <path
       style="fill:#800000;fill-opacity:0.78431373000000004;stroke:none"
       id="path3508"
       d="m 88.223725,133.39946 c 1.641739,1.67819 3.153182,3.48549 4.826592,5.13167 1.201307,1.18487 2.225347,2.51305 2.963424,4.03068 0.555238,1.39563 -0.14626,2.32219 -1.178006,3.18716 -2.16276,2.02943 -5.118204,2.61242 -7.579937,4.07305 -2.201794,1.20228 1.76904,-1.05031 2.68243,-1.52218 0.198283,-0.10243 -0.348265,0.27919 -0.522289,0.41892 -0.513797,0.41255 -1.005177,0.84516 -1.501817,1.27802 -0.173997,0.14464 -0.347994,0.28928 -0.521992,0.43392 0,0 -4.151314,1.67399 -4.151314,1.67399 l 0,0 c 0.173765,-0.14319 0.347529,-0.28639 0.521293,-0.42958 2.293046,-1.8641 3.839217,-3.42592 6.975225,-4.66221 1.652637,-0.85314 7.036043,-3.35883 -0.06533,0.39372 0.956771,-0.64796 1.898642,-1.36503 1.453658,-2.63813 -0.707468,-1.47685 -1.718775,-2.75204 -2.875927,-3.90723 -1.662391,-1.67485 -3.180067,-3.4907 -4.853014,-5.15683 0,0 3.827007,-2.30497 3.827007,-2.30497 z"
       inkscape:connector-curvature="0"
       transform="translate(0,308.2677)" />
    <path
       style="fill:#000000;fill-opacity:0.78431373;stroke:none"
       id="path3510"
       d="m 171.98889,139.38149 c 3.10255,0.0195 6.20521,0.0132 9.30779,0.009 2.5151,-0.001 5.03019,-0.003 7.54528,-0.005 2.17233,-0.0651 4.32253,0.006 6.48148,0.23436 3.04521,0.25521 6.06662,0.69399 9.11258,0.94827 3.28182,0.42492 6.57585,0.71427 9.85204,1.17938 2.53797,0.27055 5.06147,0.61918 7.58858,0.97434 2.09405,0.27891 4.20496,0.36753 6.31481,0.41085 1.87674,0.0262 3.75374,0.0207 5.6306,0.0169 1.61556,-0.004 3.23113,-0.006 4.8467,-0.007 1.72703,0.0601 3.42485,4.2e-4 5.13419,-0.23569 1.74888,-0.32991 3.5463,-0.27376 5.29281,-0.58528 0.26295,-0.0513 0.5259,-0.10253 0.78885,-0.1538 0,0 -3.56627,2.69303 -3.56627,2.69303 l 0,0 c -0.26547,0.0474 -0.53094,0.0949 -0.79641,0.14227 -1.75871,0.23289 -3.54117,0.27044 -5.29319,0.57359 -1.72172,0.22085 -3.44258,0.22019 -5.17705,0.19415 -1.61345,6.4e-4 -3.22689,0.002 -4.84033,0.003 -1.8776,9.2e-4 -3.75545,0.008 -5.63279,-0.0287 -2.11846,-0.0546 -4.23661,-0.1643 -6.33729,-0.45966 -2.52085,-0.36478 -5.04498,-0.68038 -7.57374,-0.98458 -3.26625,-0.46523 -6.55224,-0.75535 -9.82556,-1.1675 -3.05308,-0.26359 -6.08668,-0.68627 -9.14071,-0.93708 -2.1512,-0.20822 -4.29971,-0.22985 -6.46055,-0.19409 -2.51018,-0.002 -5.02035,-0.004 -7.53053,-0.005 -3.11079,-0.004 -6.22165,-0.0105 -9.3324,0.009 0,0 3.61111,-2.62362 3.61111,-2.62362 z"
       inkscape:connector-curvature="0"
       transform="translate(0,308.2677)" />
    <path
       style="fill:#000000;fill-opacity:0.78431373;stroke:none"
       id="path3512"
       d="m 241.71308,132.75058 c 1.64094,2.45097 3.32997,4.86192 5.10363,7.21753 1.20656,1.58622 2.58268,3.01321 3.4712,4.81135 0.56437,1.4701 -0.0938,2.61871 -1.09776,3.66798 -0.97532,0.98158 -1.96825,1.94849 -3.08519,2.76801 -1.25792,0.86312 -2.49488,1.75902 -3.70308,2.69038 0,0 -4.14402,1.6611 -4.14402,1.6611 l 0,0 c 1.18108,-0.96409 2.44246,-1.83227 3.68647,-2.71382 1.15223,-0.75988 2.14578,-1.71464 3.10576,-2.70269 0.97418,-0.84167 1.80196,-1.80489 1.35347,-3.16371 -0.86133,-1.7793 -2.24273,-3.17205 -3.40914,-4.75129 -1.75525,-2.36921 -3.42201,-4.79592 -5.11987,-7.20686 0,0 3.83853,-2.27798 3.83853,-2.27798 z"
       inkscape:connector-curvature="0"
       transform="translate(0,308.2677)" />
    <path
       style="fill:#800000;fill-opacity:0.78431373000000004;stroke:none"
       id="path3514"
       d="m 253.11373,443.81356 c -3.87829,0.30987 -7.76709,0.44799 -11.65559,0.54558 -3.65034,0.0725 -7.30166,0.0882 -10.95264,0.0923 -2.82027,0.21193 -5.63177,0.49502 -8.45789,0.62432 -3.3933,0.12241 -6.78956,0.1154 -10.18456,0.12228 -3.43729,0.20963 -6.87104,0.46341 -10.31106,0.62971 -2.36616,-0.0361 -4.69697,0.34175 -7.03956,0.61017 -1.71727,0.1957 -3.44507,0.25204 -5.17187,0.27314 -1.72982,0.014 -3.45973,0.0124 -5.18959,0.008 -1.867,-0.002 -3.734,-0.003 -5.601,-0.006 -2.06599,-0.20124 -4.12274,-0.47504 -6.19336,-0.62863 -1.58508,-0.10541 -3.17411,-0.11682 -4.76202,-0.12391 -1.65138,-0.003 -3.30277,-0.002 -4.95415,3.1e-4 -1.75058,0.002 -3.50116,8.5e-4 -5.25174,0.002 -1.75685,0.001 -3.51369,-6.4e-4 -5.27054,1.1e-4 -1.54606,-0.0194 -3.06396,-0.0717 -4.57928,0.25231 0,0 3.57135,-2.70053 3.57135,-2.70053 l 0,0 c 1.52938,-0.26561 3.07319,-0.16591 4.62,-0.1761 1.75683,7.8e-4 3.51365,-0.001 5.27047,-1.4e-4 1.75077,4.8e-4 3.50153,-0.002 5.25229,-0.003 1.65358,-0.001 3.30717,-0.007 4.96075,-0.001 1.59235,0.0117 3.18589,0.0324 4.77435,0.155 2.0594,0.17126 4.10525,0.47097 6.16752,0.60425 1.86905,-0.002 3.73809,-5.9e-4 5.60714,0.002 1.72877,-5.5e-4 3.45763,0.008 5.1863,-0.0154 1.71614,-0.0349 3.43285,-0.0999 5.13873,-0.3034 2.34025,-0.27223 4.67382,-0.59552 7.03672,-0.57077 3.43782,-0.16023 6.86786,-0.43477 10.30504,-0.60062 3.39769,-0.009 6.79686,-0.0132 10.19223,-0.15346 2.82535,-0.1481 5.63738,-0.44796 8.46194,-0.60101 3.64253,-0.004 7.28539,-0.004 10.92721,-0.087 3.89985,-0.10019 7.8028,-0.23291 11.68739,-0.60987 0,0 -3.58458,2.65934 -3.58458,2.65934 z"
       inkscape:connector-curvature="0"
       transform="translate(0,308.2677)" />
    <path
       style="fill:#800000;fill-opacity:0.78431373000000004;stroke:none"
       id="path3516"
       d="m 157.25783,435.38189 c -1.81094,1.75864 -3.45358,3.66041 -5.06519,5.59849 -1.09646,1.18684 -1.64804,2.57034 -1.89089,4.14007 -0.0869,1.62678 0.86311,2.81289 2.04538,3.80174 1.13833,0.77476 2.36197,1.38186 3.58738,2.00073 1.09451,0.50043 2.1718,1.03292 3.29005,1.48891 0.90052,0.43853 0.44882,0.19755 1.35258,0.72764 0,0 -3.74758,2.4362 -3.74758,2.4362 l 0,0 c -0.88597,-0.49205 -0.44291,-0.26766 -1.32726,-0.677 -1.12133,-0.47299 -2.21422,-0.99692 -3.31286,-1.51711 -1.24303,-0.64709 -2.50113,-1.25971 -3.63416,-2.09573 -1.26544,-1.11158 -2.27669,-2.42531 -2.26755,-4.19002 0.20615,-1.63396 0.67354,-3.12507 1.80445,-4.37622 1.63542,-1.91006 3.1973,-3.88306 5.05144,-5.59641 0,0 4.11421,-1.74129 4.11421,-1.74129 z"
       inkscape:connector-curvature="0"
       transform="translate(0,308.2677)" />
    <text
       xml:space="preserve"
       style="font-size:16px;font-style:normal;font-variant:normal;font-weight:normal;font-stretch:normal;text-align:start;line-height:125%;letter-spacing:0px;word-spacing:0px;writing-mode:lr-tb;text-anchor:start;fill:#800000;fill-opacity:1;stroke:none;font-family:Segoe Print;-inkscape-font-specification:Segoe Print"
       x="173.79761"
       y="480.7648"
       id="text3518"
       sodipodi:linespacing="125%"
       transform="translate(0,308.2677)"><tspan
         sodipodi:role="line"
         id="tspan3520"
         x="173.79761"
         y="480.7648">Append</tspan><tspan
         sodipodi:role="line"
         x="173.79761"
         y="500.7648"
         id="tspan3522">events</tspan></text>
    <text
       xml:space="preserve"
       style="font-size:16px;font-style:normal;font-variant:normal;font-weight:normal;font-stretch:normal;text-align:start;line-height:125%;letter-spacing:0px;word-spacing:0px;writing-mode:lr-tb;text-anchor:start;fill:#000000;fill-opacity:1;stroke:none;font-family:Segoe Print;-inkscape-font-specification:Segoe Print"
       x="183.57841"
       y="163.26442"
       id="text3524"
       sodipodi:linespacing="125%"
       transform="translate(0,308.2677)"><tspan
         sodipodi:role="line"
         id="tspan3526"
         x="183.57841"
         y="163.26442">Query</tspan></text>
    <text
       xml:space="preserve"
       style="font-size:16px;font-style:normal;font-variant:normal;font-weight:normal;font-stretch:normal;text-align:start;line-height:125%;letter-spacing:0px;word-spacing:0px;writing-mode:lr-tb;text-anchor:start;fill:#000000;fill-opacity:1;stroke:none;font-family:Segoe Print;-inkscape-font-specification:Segoe Print"
       x="61.694386"
       y="503.33591"
       id="text3528"
       sodipodi:linespacing="125%"
       transform="translate(0,308.2677)"><tspan
         sodipodi:role="line"
         id="tspan3530"
         x="61.694386"
         y="503.33591">Event</tspan><tspan
         sodipodi:role="line"
         x="61.694386"
         y="523.33594"
         id="tspan3532">store</tspan></text>
    <text
       xml:space="preserve"
       style="font-size:16px;font-style:normal;font-variant:normal;font-weight:normal;font-stretch:normal;text-align:start;line-height:125%;letter-spacing:0px;word-spacing:0px;writing-mode:lr-tb;text-anchor:start;fill:#000000;fill-opacity:1;stroke:none;font-family:Segoe Print;-inkscape-font-specification:Segoe Print"
       x="85.770248"
       y="336.10541"
       id="text3534"
       sodipodi:linespacing="125%"><tspan
         sodipodi:role="line"
         id="tspan3536"
         x="85.770248"
         y="336.10541">Denormalized</tspan><tspan
         sodipodi:role="line"
         x="85.770248"
         y="356.10541"
         id="tspan3538">read store</tspan></text>
    <text
       xml:space="preserve"
       style="font-size:16px;font-style:normal;font-variant:normal;font-weight:normal;font-stretch:normal;text-align:start;line-height:125%;letter-spacing:0px;word-spacing:0px;writing-mode:lr-tb;text-anchor:start;fill:#000000;fill-opacity:1;stroke:none;font-family:Segoe Print;-inkscape-font-specification:Segoe Print"
       x="12.037929"
       y="852.23163"
       id="text3540"
       sodipodi:linespacing="125%"><tspan
         sodipodi:role="line"
         id="tspan3542"
         x="12.037929"
         y="852.23163">Publishes events after</tspan><tspan
         sodipodi:role="line"
         x="12.037929"
         y="872.23163"
         id="tspan3546">they have been saved</tspan></text>
    <text
       xml:space="preserve"
       style="font-size:16px;font-style:normal;font-variant:normal;font-weight:normal;font-stretch:normal;text-align:start;line-height:125%;letter-spacing:0px;word-spacing:0px;writing-mode:lr-tb;text-anchor:start;fill:#800000;fill-opacity:1;stroke:none;font-family:Segoe Print;-inkscape-font-specification:Segoe Print"
       x="51.913567"
       y="284.39609"
       id="text3550"
       sodipodi:linespacing="125%"
       transform="translate(0,308.2677)"><tspan
         sodipodi:role="line"
         id="tspan3552"
         x="51.913567"
         y="284.39609">Events</tspan></text>
    <text
       xml:space="preserve"
       style="font-size:16px;font-style:normal;font-variant:normal;font-weight:normal;font-stretch:normal;text-align:start;line-height:125%;letter-spacing:0px;word-spacing:0px;writing-mode:lr-tb;text-anchor:start;fill:#000000;fill-opacity:1;stroke:none;font-family:Segoe Print;-inkscape-font-specification:Segoe Print"
       x="59.437275"
       y="377.48581"
       id="text3554"
       sodipodi:linespacing="125%"><tspan
         sodipodi:role="line"
         id="tspan3556"
         x="59.437275"
         y="377.48581">Subscribes to events</tspan><tspan
         sodipodi:role="line"
         x="59.437275"
         y="397.48581"
         id="tspan3558">on the write-side</tspan></text>
    <path
       style="fill:#000000;fill-opacity:1;fill-rule:nonzero;stroke:none"
       d="M 932.96875 255.75 C 931.84118 255.79995 930.71906 255.92323 929.59375 256.1875 C 926.63774 257.1146 924.12494 259.02561 922.15625 261.375 C 920.8536 263.06232 920.498 265.14097 920.5 267.21875 C 920.71773 269.68975 921.77775 271.53242 923.5 273.25 C 924.89343 274.67382 926.58338 275.53984 928.5 276 C 930.49874 276.52975 932.53757 276.731 934.59375 276.875 C 936.34454 276.9042 938.14383 277.167 939.875 276.84375 C 942.34444 276.02138 944.72562 274.66973 946.5625 272.8125 C 948.23597 271.06175 949.53043 269.02212 950.84375 267 C 952.11607 264.94516 952.7561 263.73295 952.375 261.3125 C 951.94908 259.68065 951.13693 258.96955 949.75 258.125 C 948.55918 257.48559 947.28207 257.09799 945.96875 256.8125 L 945.75 256.96875 C 942.65623 256.41378 939.50718 256.11378 936.375 255.875 C 935.22397 255.74554 934.09632 255.70005 932.96875 255.75 z M 930.59375 257.46875 C 931.70229 257.40219 932.79807 257.46064 933.96875 257.59375 C 937.19511 257.82162 940.41419 258.10833 943.59375 258.71875 L 943.78125 258.59375 C 944.98479 258.85053 946.14796 259.1824 947.25 259.75 C 948.58516 260.52747 949.35297 261.15689 949.75 262.71875 C 950.08133 265.03053 949.33081 266.24313 948.125 268.1875 C 946.81433 270.20377 945.4779 272.21731 943.78125 273.9375 C 943.26236 274.42738 942.2108 275.14925 942.375 275.125 C 942.06111 275.26304 941.93445 275.29302 942.25 275.03125 C 940.56157 275.48326 938.76199 275.14075 937.03125 275.15625 C 934.98749 275.02562 932.92252 274.84574 930.9375 274.3125 C 929.05088 273.90836 927.39941 273.08235 926.03125 271.6875 C 924.35006 270.03447 923.3339 268.24601 923.15625 265.84375 C 923.18721 263.80708 923.55058 261.8367 924.875 260.21875 C 925.34537 259.67266 925.7195 259.21075 926.25 258.71875 C 926.51374 258.47415 927.41618 257.96575 927.0625 258.03125 C 926.94178 258.05361 926.83077 258.07784 926.71875 258.125 C 927.09955 257.94588 927.39205 257.82885 927.21875 258 C 928.35671 257.71643 929.48521 257.53531 930.59375 257.46875 z M 926.53125 258.21875 C 926.14783 258.42004 925.80795 258.71233 925.40625 258.875 C 925.03819 259.02404 925.85286 258.55301 926.53125 258.21875 z M 937.28125 277.9375 L 934.625 279.28125 C 934.71242 284.81938 935.07013 290.34907 935.4375 295.875 C 935.65256 300.9079 936.16493 305.91782 936.5625 310.9375 C 936.88191 313.48484 937.27872 316.03509 937.5 318.59375 C 937.55663 320.04769 936.96379 321.34533 936.4375 322.65625 C 935.14002 325.88796 936.68326 322.36762 935.0625 325.90625 C 933.02336 329.96056 930.37044 333.64291 927.8125 337.375 C 925.471 340.79179 923.0767 344.15656 920.71875 347.5625 C 919.17602 349.71898 917.78152 351.98273 916.09375 354.03125 L 918.8125 352.875 C 920.46035 350.8023 921.87334 348.56318 923.40625 346.40625 C 925.76777 343.00534 928.1575 339.60127 930.5 336.1875 C 933.06395 332.4448 935.71932 328.75946 937.75 324.6875 C 938.26577 323.54961 938.80266 322.38417 939.25 321.1875 C 940.36136 323.94208 941.38459 326.73353 942.6875 329.40625 C 943.62683 331.33316 944.67357 333.18858 945.65625 335.09375 C 948.46439 340.31753 951.17765 345.6123 954.25 350.6875 C 955.79169 353.28317 957.35452 355.87382 958.84375 358.5 L 961.375 357.03125 C 959.86828 354.41204 958.32535 351.81608 956.78125 349.21875 C 953.70302 344.15522 950.96388 338.87236 948.15625 333.65625 C 945.61715 328.72402 943.15555 323.80214 941.375 318.53125 L 939.8125 319.40625 C 939.98716 318.687 940.11298 317.96345 940.125 317.21875 C 939.88819 314.66662 939.47926 312.13559 939.15625 309.59375 C 938.73292 304.58409 938.22761 299.5869 938 294.5625 C 937.63187 289.03118 937.28179 283.48266 937.28125 277.9375 z M 942.53125 281.125 L 940.03125 282.71875 C 943.33279 285.00144 946.54983 287.37727 949.875 289.625 C 952.01753 290.99642 953.92674 292.75003 956.0625 294.125 C 957.39005 294.85638 958.73527 295.49082 960.125 296.09375 C 961.12597 296.49715 960.60857 296.3103 961.625 296.65625 L 964.09375 295 C 963.08809 294.67308 963.58576 294.86071 962.59375 294.46875 C 961.21913 293.86241 959.88473 293.21441 958.5625 292.5 C 956.40075 291.1612 954.49915 289.41806 952.34375 288.0625 C 949.01324 285.83136 945.79623 283.45082 942.53125 281.125 z M 933.09375 281.4375 L 930.375 282.625 C 928.62146 284.81026 926.79822 286.90481 924.9375 289 C 923.3502 291.04015 921.58612 292.94184 919.875 294.875 L 919.15625 295.59375 L 921.90625 294.46875 L 922.625 293.71875 C 924.3311 291.79109 926.05591 289.89372 927.65625 287.875 C 929.52375 285.76721 931.34455 283.64485 933.09375 281.4375 z "
       transform="translate(0,308.2677)"
       id="path3053" />
  </g>
  <g
     inkscape:groupmode="layer"
     id="versionlayer"
     inkscape:label="Version">
    <text
       xml:space="preserve"
       style="-inkscape-font-specification:Courier New;font-family:Courier New;font-weight:normal;font-style:normal;font-stretch:normal;font-variant:normal;fill:#ff0000"
       x="10"
       y="10"
       id="versiontext">Reference_03_CQRS.svg (v1)</text>
  </g>
</svg>
